<svg width="36" height="36" viewBox="0 0 36 36" fill="none" xmlns="http://www.w3.org/2000/svg">
<mask id="mask0_924_1831" style="mask-type:luminance" maskUnits="userSpaceOnUse" x="0" y="0" width="36" height="36">
<path d="M36 0H0V36H36V0Z" fill="white"/>
</mask>
<g mask="url(#mask0_924_1831)">
<path d="M18.0045 35.3719C27.6045 35.3719 35.3821 27.5943 35.3821 17.9943C35.3821 8.3943 27.6045 0.616699 18.0045 0.616699C8.4045 0.616699 0.626953 8.3943 0.626953 17.9943C0.626953 27.5943 8.4045 35.3719 18.0045 35.3719Z" fill="white"/>
<path d="M33.5201 18.0048C33.5201 26.5791 26.5691 33.5201 17.9948 33.5201C13.8819 33.5201 9.9384 31.8869 7.02051 28.9791C8.0462 29.9152 9.4106 30.3832 10.7948 30.3035C14.6886 30.3035 19.6379 27.7741 23.701 23.711C26.7682 20.6538 28.9491 17.1284 29.8554 13.7923C30.2935 12.1293 30.7915 9.1118 29.1483 7.21973C31.9566 10.1077 33.5201 13.9716 33.5101 18.0048H33.5201Z" fill="#BBE8E9"/>
<path d="M24.2091 16.1424L21.7294 23.5814H14.2904L11.8008 16.1424L18.0049 11.7905L24.219 16.1424H24.2091Z" fill="#25809F"/>
<path d="M31.0101 29.5271C29.1578 31.6283 26.8275 33.2416 24.2084 34.2375L21.1113 31.6582L24.8358 27.3063L29.8051 26.0615L31.02 29.5171L31.0101 29.5271Z" fill="#25809F"/>
<path d="M4.99922 29.5271C6.8515 31.6283 9.1818 33.2416 11.8009 34.2375L14.898 31.6582L11.1735 27.3063L6.20419 26.0615L4.98926 29.5171L4.99922 29.5271Z" fill="#25809F"/>
<path d="M6.82134 9.31104V14.2803L3.71428 19.8671L0.617188 18.1741V18.0048C0.617188 14.9476 1.40391 11.96 2.93752 9.32104H6.81138L6.82134 9.31104Z" fill="#25809F"/>
<path d="M29.1787 9.31104V14.2803L32.2858 19.8671L35.3829 18.1741V18.0048C35.3829 14.9476 34.5862 11.96 33.0625 9.32104H29.1887L29.1787 9.31104Z" fill="#25809F"/>
<path d="M24.2093 4.96945L18.0051 7.44911L11.791 4.96945L12.3587 1.56364C16.0234 0.308866 19.9869 0.308866 23.6516 1.56364L24.2192 4.96945H24.2093Z" fill="#25809F"/>
<path d="M21.1119 31.658L22.536 32.853C24.9659 32.1161 27.1766 30.7717 28.9692 28.9792C29.5268 28.4115 29.9053 27.7144 30.0845 26.9476L29.7758 26.0713L24.8065 27.3161L21.082 31.668H21.092L21.1119 31.658Z" fill="#055473"/>
<path d="M14.8975 31.6578L13.4734 32.8529C11.0336 32.1159 8.8228 30.7715 7.03027 28.979C8.056 29.9151 9.4203 30.3832 10.8045 30.3035C11.7008 30.3035 12.5871 30.184 13.4436 29.9649L14.9075 31.6578H14.8975Z" fill="#055473"/>
<path d="M33.5201 18.0048C33.5201 18.4131 33.5002 18.8114 33.4703 19.2197L32.2753 19.8671L29.5068 14.8878C29.6363 14.5193 29.7558 14.1509 29.8554 13.7824C30.2836 12.3384 30.3931 10.8048 30.1442 9.31104H30.8413C32.5741 11.8704 33.5002 14.9077 33.5002 17.9949H33.5102L33.5201 18.0048Z" fill="#055473"/>
<path d="M31.4585 29.9249C38.061 22.5058 37.3838 11.1432 29.9548 4.54069C28.1523 2.94733 26.061 1.72243 23.7805 0.955629C17.3772 -1.22529 10.2967 0.378038 5.4469 5.08841C5.19794 5.32741 5.19794 5.71579 5.43694 5.96476C5.67594 6.21372 6.06433 6.21372 6.31329 5.97472C7.82698 4.50086 9.5996 3.32575 11.5614 2.50916L11.2129 4.64028L6.58217 8.6834H2.93736C2.70831 8.6834 2.5191 8.793 2.3996 8.9921C-1.47426 15.6942 -0.617832 24.139 4.53072 29.9249C4.55063 29.9448 4.56059 29.9648 4.58051 29.9847C6.48258 32.1158 8.8627 33.749 11.5116 34.7847C11.5216 34.7847 11.5415 34.7946 11.5515 34.8046C15.6942 36.398 20.2751 36.398 24.4179 34.8046C24.4278 34.8046 24.4477 34.8046 24.4577 34.7847C27.1067 33.7589 29.4967 32.1158 31.3888 29.9847C31.4087 29.9648 31.4286 29.9448 31.4386 29.9249H31.4585ZM25.0552 26.6087L22.4262 23.4519L24.7067 16.6104L28.8892 15.037L31.5979 19.8967L29.3473 25.5332L25.0652 26.5988H25.0552V26.6087ZM10.954 26.6087L6.68175 25.5432L4.43113 19.9067L7.13985 15.0469L11.3224 16.6204L13.6029 23.4619L10.9739 26.6187H10.9639L10.954 26.6087ZM1.30416 19.2394L3.24607 20.305L5.55644 26.0909L4.78964 28.2818C2.7581 25.6826 1.54316 22.5357 1.30416 19.2295V19.2394ZM11.9199 5.68592L17.3772 7.87679V11.4718L11.7008 15.4353L7.44856 13.8419V9.5897L11.9199 5.68592ZM24.0892 5.68592L28.7697 9.7789C28.8793 9.8784 29.0286 9.9282 29.178 9.9282H32.6834C34.0079 12.3382 34.7249 15.037 34.7548 17.7955L32.5241 19.0204L29.7954 14.1108V13.0353C29.7954 12.6967 29.5166 12.4179 29.178 12.4179C28.8394 12.4179 28.5606 12.6967 28.5606 13.0353V13.8519L24.3083 15.4453L18.632 11.4818V7.88675L24.0892 5.69588V5.68592ZM14.7183 22.9639L12.5174 16.3814L17.9847 12.5473L23.4519 16.3814L21.261 22.9639H14.7083H14.7183ZM30.4527 26.0809L32.7631 20.295L34.705 19.2295C34.466 22.5158 33.251 25.6627 31.2195 28.2619L30.4527 26.071V26.0809ZM31.9266 8.6934H29.4071L24.7764 4.65023L24.4278 2.52907C27.4851 3.80376 30.0842 5.9548 31.9266 8.6934ZM18.0046 1.24443C19.7274 1.24443 21.4502 1.5133 23.0934 2.0411L23.5116 4.58052L18.0046 6.78135L12.4975 4.58052L12.9158 2.03115C14.5589 1.50335 16.2818 1.25438 18.0046 1.25438V1.24443ZM3.31578 9.9282H6.2137V14.1108L3.48507 19.0204L1.25437 17.7955C1.28424 15.037 1.9913 12.3482 3.31578 9.9282ZM5.70582 29.3672L6.60208 26.798L10.8245 27.8536L14.0112 31.578L11.6909 33.5199C9.4203 32.5938 7.36889 31.1797 5.70582 29.3772V29.3672ZM13.0353 33.9979L15.1166 32.2552H17.3772C17.7158 32.2552 17.9946 31.9764 17.9946 31.6378C17.9946 31.2992 17.7158 31.0204 17.3772 31.0204H15.1764L11.9797 27.2859L14.5589 24.1888H21.4303L24.0096 27.2859L20.6237 31.2295C20.3946 31.4884 20.4245 31.8768 20.6934 32.1058L22.944 33.988C19.7174 34.9838 16.2618 34.9838 13.0253 33.988H13.0353V33.9979ZM24.3083 33.5L21.988 31.5581L25.1747 27.8336L29.3971 26.778L30.2934 29.3473C28.6303 31.1498 26.5788 32.5639 24.3083 33.4901V33.5Z" fill="black"/>
</g>
</svg>
