<svg width="18" height="20" viewBox="0 0 18 20" fill="none" xmlns="http://www.w3.org/2000/svg">
  <path fillRule="evenodd" clipRule="evenodd" d="M13.7816 0H7.13647H6.62178L6.25795 0.363828L1.22721 5.39461L0.863342 5.75844V6.27312V16.6447C0.863342 18.4948 2.36834 20 4.21866 20H13.7816C15.6316 20 17.1366 18.4948 17.1366 16.6447V3.35527C17.1366 1.505 15.6316 0 13.7816 0ZM15.8943 16.6447C15.8943 17.8118 14.9484 18.7577 13.7816 18.7577H4.21866C3.05158 18.7577 2.10573 17.8118 2.10573 16.6447V6.27309H5.37592C6.34795 6.27309 7.13647 5.48484 7.13647 4.51254V1.24234H13.7816C14.9484 1.24234 15.8943 2.1882 15.8943 3.35527V16.6447ZM13.3288 3.6394H9.83771V7.13054H13.3288V3.6394ZM4.6709 9.08569H13.3289V10.0632H4.6709V9.08569ZM13.3289 11.8784H4.6709V12.8559H13.3289V11.8784ZM4.6709 14.6714H13.3289V15.6489H4.6709V14.6714Z" fill="#393EBE"/>
</svg>