<svg width="18" height="20" viewBox="0 0 18 20" fill="none" xmlns="http://www.w3.org/2000/svg">
  <path fillRule="evenodd" clipRule="evenodd" d="M7.13661 0H13.7818C15.6315 0 17.1365 1.505 17.1365 3.35531V16.6448C17.1365 18.4948 15.6315 20 13.7818 20H4.21884C2.36853 20 0.863525 18.4948 0.863525 16.6448V6.27312V5.75844L1.22735 5.39461L6.25782 0.363828L6.62169 0H7.13661ZM13.7818 18.7577C14.9486 18.7577 15.8944 17.8118 15.8944 16.6447V3.35531C15.8944 2.1882 14.9486 1.24234 13.7818 1.24234H7.13661V4.51254C7.13661 5.48488 6.34786 6.27309 5.37579 6.27309H2.10563V16.6447C2.10563 17.8118 3.05149 18.7577 4.21884 18.7577H13.7818ZM4.34265 9.87451H5.45652C6.24691 9.87451 6.71386 10.3466 6.71386 11.0364C6.71386 11.7155 6.24203 12.1931 5.45652 12.1931H4.81449C4.7932 12.1931 4.78285 12.2037 4.78285 12.225V13.1003C4.78285 13.3498 4.61812 13.5143 4.39558 13.5143C4.16757 13.5143 4.00281 13.3498 4.00281 13.1003V10.2192C4.00281 10.0125 4.13046 9.87451 4.34265 9.87451ZM4.81449 11.5192H5.40906C5.73796 11.5192 5.93433 11.3282 5.93437 11.0364C5.93437 10.7446 5.73796 10.5482 5.40906 10.5482H4.81449C4.7932 10.5482 4.78285 10.5588 4.78285 10.5801V11.4875C4.78285 11.5085 4.7932 11.5192 4.81449 11.5192ZM9.74951 9.84253C9.53733 9.84253 9.39389 9.9805 9.39389 10.2192V12.193H9.3726L8.26908 10.2247C8.12619 9.97511 7.97725 9.84257 7.75471 9.84257C7.48905 9.84257 7.3194 10.0231 7.3194 10.3095V13.1376C7.3194 13.3762 7.46287 13.5142 7.67506 13.5142C7.88725 13.5142 8.03014 13.3762 8.03014 13.1376V11.1689H8.05143L9.15494 13.1321C9.29842 13.3814 9.44678 13.5142 9.66987 13.5142C9.93498 13.5142 10.1052 13.3337 10.1052 13.0473V10.2192C10.1052 9.9805 9.9617 9.84253 9.74951 9.84253ZM12.5883 11.4769H13.3312C13.5276 11.4769 13.6389 11.5882 13.6388 11.7845V11.8216C13.6388 12.14 13.6127 12.4372 13.5488 12.6388C13.3628 13.217 12.8752 13.5407 12.2331 13.5407C11.591 13.5407 11.0925 13.2489 10.9065 12.6652C10.8268 12.4105 10.8055 12.2089 10.8055 11.6784C10.8055 11.148 10.8268 10.9461 10.9065 10.6916C11.0925 10.108 11.591 9.81616 12.2331 9.81616C12.8168 9.81616 13.2199 10.0548 13.4108 10.3785C13.4534 10.4527 13.4796 10.5272 13.4796 10.612C13.4796 10.819 13.3208 10.9622 13.1244 10.9622C12.9919 10.9622 12.8855 10.9196 12.7797 10.771C12.6417 10.5801 12.4666 10.5059 12.2331 10.5059C11.9255 10.5059 11.734 10.6598 11.6549 10.9091C11.6124 11.0419 11.5966 11.2115 11.5966 11.6784C11.5966 12.1454 11.6123 12.3205 11.6549 12.453C11.734 12.6971 11.9304 12.851 12.2435 12.851C12.5195 12.851 12.7475 12.7078 12.8217 12.4795C12.8539 12.384 12.8643 12.2621 12.8643 12.1241C12.8643 12.1028 12.8539 12.0922 12.8327 12.0922H12.5883C12.387 12.0922 12.2593 11.9703 12.2593 11.7846C12.2593 11.5988 12.387 11.4769 12.5883 11.4769Z" fill="#4C8F90"/>
</svg>