<svg width="18" height="20" viewBox="0 0 18 20" fill="none" xmlns="http://www.w3.org/2000/svg">
  <path fillRule="evenodd" clipRule="evenodd" d="M13.7817 0H7.13663H6.62167L6.25784 0.363828L1.22733 5.39461L0.863464 5.75844V6.27312V16.6448C0.863464 18.4948 2.36846 20 4.21878 20H13.7817C15.6315 20 17.1365 18.4948 17.1365 16.6448V3.35531C17.1365 1.505 15.6315 0 13.7817 0ZM15.8944 16.6447C15.8944 17.8118 14.9485 18.7577 13.7817 18.7577H4.21878C3.05143 18.7577 2.10557 17.8118 2.10557 16.6447V6.27309H5.37577C6.34784 6.27309 7.13663 5.48488 7.13663 4.51254V1.24234H13.7817C14.9485 1.24234 15.8944 2.1882 15.8944 3.35531V16.6447ZM5.23364 10.6323C4.89927 10.6323 4.68189 10.7649 4.56513 10.9294H4.5597C4.52259 10.7913 4.41134 10.6588 4.20431 10.6588C3.98665 10.6588 3.83282 10.8074 3.83282 11.0515V13.8529C3.83282 14.097 3.98665 14.2454 4.20431 14.2454C4.4165 14.2454 4.57575 14.097 4.57575 13.8529V13.0409H4.58095C4.68185 13.1896 4.89923 13.3169 5.23361 13.3169C5.65282 13.3169 5.99236 13.0676 6.12493 12.6643C6.18849 12.4733 6.21525 12.2612 6.21525 11.9745C6.21525 11.6881 6.18849 11.4759 6.12493 11.2847C5.99243 10.8816 5.65286 10.6323 5.23364 10.6323ZM5.41396 12.3937C5.3504 12.5901 5.2124 12.691 5.01603 12.691C4.81993 12.691 4.68712 12.5901 4.62353 12.3937C4.59165 12.2983 4.57579 12.1551 4.57579 11.9745C4.57579 11.7942 4.59165 11.651 4.62353 11.5556C4.68708 11.3592 4.81993 11.2583 5.01603 11.2583C5.2124 11.2583 5.3504 11.3592 5.41396 11.5556C5.44587 11.651 5.46169 11.7942 5.46169 11.9745C5.46165 12.1551 5.44587 12.2983 5.41396 12.3937ZM7.48896 10.9294C7.60571 10.7649 7.82306 10.6323 8.15747 10.6323C8.57665 10.6323 8.91622 10.8816 9.0488 11.2847C9.11236 11.4759 9.13907 11.6881 9.13907 11.9745C9.13907 12.2612 9.11236 12.4733 9.0488 12.6643C8.91622 13.0676 8.57665 13.3169 8.15747 13.3169C7.82306 13.3169 7.60572 13.1896 7.50478 13.0409H7.49962V13.8529C7.49962 14.097 7.34032 14.2454 7.12814 14.2454C6.91048 14.2454 6.75665 14.097 6.75665 13.8529V11.0515C6.75665 10.8074 6.91048 10.6588 7.12814 10.6588C7.33513 10.6588 7.44642 10.7913 7.48353 10.9294H7.48896ZM7.93986 12.691C8.13622 12.691 8.27419 12.5901 8.33779 12.3937C8.36966 12.2983 8.38548 12.1551 8.38552 11.9745C8.38552 11.7942 8.36966 11.651 8.33779 11.5556C8.27423 11.3592 8.13622 11.2583 7.93986 11.2583C7.74372 11.2583 7.61087 11.3592 7.54736 11.5556C7.51544 11.651 7.49962 11.7942 7.49962 11.9745C7.49962 12.1551 7.51544 12.2983 7.54736 12.3937C7.61091 12.5901 7.74372 12.691 7.93986 12.691ZM10.6091 11.2426H10.8107C11.0016 11.2426 11.1077 11.131 11.1077 10.9665C11.1077 10.8021 11.0016 10.6908 10.8107 10.6908H10.6091C10.5879 10.6908 10.5772 10.6802 10.5772 10.6589V10.2768C10.5772 10.0327 10.4234 9.88428 10.2112 9.88428C9.99356 9.88428 9.83973 10.0327 9.83973 10.2768V10.6589C9.83973 10.6802 9.82364 10.6908 9.80262 10.6908H9.78133C9.5904 10.6908 9.48407 10.8021 9.48407 10.9665C9.48407 11.131 9.5904 11.2426 9.78133 11.2426H9.80262C9.82364 11.2426 9.83973 11.2532 9.83973 11.2745V12.4309C9.83973 13.0146 10.0571 13.2906 10.662 13.2906H10.694C10.9751 13.2906 11.1025 13.1526 11.1025 12.9723C11.1025 12.813 11.0071 12.6698 10.7736 12.6431C10.6356 12.6273 10.5772 12.5638 10.5772 12.4099V11.2745C10.5772 11.2532 10.5879 11.2426 10.6091 11.2426ZM13.6495 11.2263L13.1083 11.9322L13.7132 12.7226C13.7716 12.8022 13.8032 12.8871 13.8032 12.9667C13.8032 13.1418 13.6653 13.2904 13.4743 13.2904C13.363 13.2904 13.2515 13.2372 13.1667 13.126L12.6839 12.4891H12.6785L12.1957 13.126C12.1109 13.2372 11.9993 13.2904 11.8881 13.2904C11.6969 13.2904 11.5591 13.1418 11.5591 12.9667C11.5591 12.887 11.5908 12.8022 11.6491 12.7226L12.2541 11.9322L11.713 11.2263C11.6547 11.1469 11.6227 11.0618 11.6227 10.9824C11.6227 10.8074 11.7607 10.6587 11.9516 10.6587C12.0632 10.6587 12.1745 10.7116 12.2593 10.8232L12.6785 11.3749H12.684L13.1029 10.8232C13.188 10.7116 13.2993 10.6587 13.4108 10.6587C13.6017 10.6587 13.7398 10.8074 13.7398 10.9824C13.7398 11.0618 13.7078 11.1469 13.6495 11.2263Z" fill="#B64400"/>
</svg>