<svg width="18" height="20" viewBox="0 0 18 20" fill="none" xmlns="http://www.w3.org/2000/svg">
  <path fillRule="evenodd" clipRule="evenodd" d="M13.7818 0H7.13661H6.62165L6.25782 0.363828L1.22735 5.39461L0.863525 5.75844V6.27312V16.6448C0.863525 18.4948 2.36849 20 4.2188 20H13.7818C15.6315 20 17.1365 18.4948 17.1365 16.6448V3.35531C17.1365 1.505 15.6315 0 13.7818 0ZM15.8944 16.6447C15.8944 17.8118 14.9486 18.7577 13.7818 18.7577H4.2188C3.05145 18.7577 2.1056 17.8118 2.1056 16.6447V6.27309H5.37579C6.34786 6.27309 7.13661 5.48488 7.13661 4.51254V1.24234H13.7818C14.9486 1.24234 15.8944 2.1882 15.8944 3.35531V16.6447ZM5.68724 11.8206L6.22837 11.1147C6.28673 11.0354 6.31892 10.9502 6.31892 10.8709C6.31892 10.6958 6.18091 10.5471 5.98998 10.5471C5.87814 10.5471 5.76685 10.6 5.68177 10.7116L5.26283 11.2634H5.2574L4.83845 10.7116C4.75337 10.6 4.64209 10.5471 4.5308 10.5471C4.33986 10.5471 4.20189 10.6958 4.20189 10.8709C4.20189 10.9502 4.23353 11.0354 4.29189 11.1147L4.83302 11.8206L4.22806 12.611C4.1697 12.6906 4.13806 12.7755 4.13806 12.8551C4.13806 13.0302 4.27607 13.1789 4.46697 13.1789C4.57822 13.1789 4.69005 13.1257 4.77462 13.0144L5.25736 12.3775H5.26279L5.74552 13.0144C5.83064 13.1257 5.94189 13.1789 6.05318 13.1789C6.24412 13.1789 6.38209 13.0302 6.38209 12.8551C6.38209 12.7755 6.35044 12.6907 6.29209 12.611L5.68724 11.8206ZM7.69349 12.2983C7.69349 12.4467 7.74642 12.5105 7.86318 12.5315C8.07537 12.5688 8.16044 12.6908 8.16044 12.8553C8.16044 13.0355 8.04373 13.179 7.77318 13.179H7.74099C7.15236 13.179 6.95056 12.8872 6.95056 12.3619V9.9001C6.95056 9.65596 7.10439 9.50732 7.32205 9.50732C7.53419 9.50732 7.69349 9.65596 7.69349 9.9001V12.2983ZM9.85857 11.5446L9.57709 11.5127C9.28525 11.4811 9.22197 11.4172 9.22197 11.3005C9.22197 11.1786 9.31744 11.099 9.54545 11.099C9.73092 11.099 9.906 11.1361 10.0653 11.2105C10.1662 11.2583 10.2246 11.2741 10.2775 11.2741C10.4526 11.2741 10.5693 11.1467 10.5693 10.9822C10.5693 10.8549 10.4951 10.7649 10.3517 10.6904C10.1346 10.5791 9.85853 10.5208 9.57158 10.5208C8.89791 10.5208 8.51061 10.8442 8.51061 11.3483C8.51061 11.7939 8.79154 12.0699 9.34904 12.1335L9.62994 12.1654C9.93268 12.1973 10.0014 12.2609 10.0014 12.3831C10.0014 12.5263 9.87432 12.6217 9.60377 12.6217C9.35447 12.6217 9.1581 12.5421 8.97209 12.4359C8.88752 12.3882 8.82369 12.367 8.75443 12.367C8.58475 12.367 8.44678 12.4998 8.44678 12.6642C8.44678 12.7861 8.49971 12.8816 8.62732 12.9613C8.83951 13.0938 9.16354 13.2054 9.56666 13.2054C10.2932 13.2054 10.7127 12.85 10.7127 12.3247C10.7128 11.8948 10.4635 11.6136 9.85857 11.5446ZM13.2543 11.1147L12.7132 11.8206L13.318 12.611C13.3764 12.6907 13.408 12.7755 13.408 12.8551C13.408 13.0302 13.27 13.1789 13.0791 13.1789C12.9678 13.1789 12.8566 13.1257 12.7714 13.0144L12.2887 12.3775H12.2832L11.8005 13.0144C11.716 13.1257 11.6041 13.1789 11.4928 13.1789C11.302 13.1789 11.1639 13.0302 11.1639 12.8551C11.1639 12.7755 11.1956 12.6906 11.2539 12.611L11.8589 11.8206L11.3178 11.1147C11.2594 11.0354 11.2278 10.9502 11.2278 10.8709C11.2278 10.6958 11.3658 10.5471 11.5567 10.5471C11.668 10.5471 11.7793 10.6 11.8644 10.7116L12.2833 11.2634H12.2888L12.7077 10.7116C12.7928 10.6 12.9041 10.5471 13.0159 10.5471C13.2068 10.5471 13.3448 10.6958 13.3448 10.8709C13.3448 10.9502 13.3127 11.0354 13.2543 11.1147Z" fill="#2B8343"/>
</svg>