<svg width="107" height="15" viewBox="0 0 107 15" fill="none" xmlns="http://www.w3.org/2000/svg">
  <path fillRule="evenodd" clipRule="evenodd" d="M73.9418 13.2019C75.5774 10.0042 76.4137 5.75987 76.7503 2.07305L74.5834 1.72067C74.2731 5.27075 73.4106 8.9155 71.8012 11.9396L73.9418 13.2019ZM80.416 12.9074L82.6986 12.1973H82.7039C82.1832 8.5789 81.1103 4.86052 79.6903 1.5997L77.7285 2.57795C79.0065 5.87032 79.848 9.36255 80.416 12.9074ZM82.0675 3.52464C81.7887 2.48854 81.5258 1.68385 81.0419 0.731906L81.0472 0.726647L80.1689 1.22629C80.6475 2.26238 80.8526 2.93033 81.1313 4.05057L82.0675 3.52464ZM83.5349 2.84618C83.2351 1.81008 82.9931 1.00013 82.4988 0.0639648L81.6099 0.563605C82.0938 1.57341 82.3357 2.28342 82.5987 3.38789L83.5349 2.84618ZM12.0335 11.2245C13.0907 10.0307 13.5693 8.41603 13.6902 6.72777L15.6257 6.96971C15.4837 9.11027 14.942 11.3403 13.6482 12.9286L12.0335 11.2245ZM22.1631 5.63908H18.4868V13.2599H16.3199V5.64434H12.5332V3.3197H16.3199V1.25802H18.4868V3.31444H20.5169C20.2382 2.9568 20.0962 2.52027 20.0962 2.03641C20.0962 0.984534 20.8272 0.121996 21.716 0.121996C22.6049 0.121996 23.3412 0.984534 23.3412 2.03641C23.3412 2.91473 22.8731 3.62474 22.1631 3.88245V5.63908ZM19.1337 6.95919L21.0323 6.64362C21.3321 8.75789 21.6109 9.70984 22.7311 11.4244L21.0376 12.9444C19.7385 11.1877 19.3861 9.21546 19.1337 6.95919ZM20.9219 2.03641C20.9219 2.56235 21.2848 2.97258 21.716 2.97258C22.1473 2.97258 22.5102 2.56235 22.5102 2.03641C22.5102 1.51047 22.1631 1.10024 21.716 1.10024C21.269 1.10024 20.9219 1.52625 20.9219 2.03641ZM10.7134 11.4665L8.93568 13.5124C7.91537 12.1345 6.84245 10.8038 5.68539 9.58366C4.36528 11.1878 2.94525 12.5394 1.1781 13.402L0 11.3298C2.83481 9.93604 5.07004 7.53776 6.20081 4.12969H0.731054V1.77874H8.98828C8.68849 3.89827 8.03107 5.95995 6.97394 7.71658C8.4676 9.03669 9.37747 9.915 10.7134 11.4613V11.4665ZM25.4672 13.3809L25.4712 13.3862V13.3809H25.4672ZM25.4667 13.3803L25.4672 13.3809H25.4659L25.4667 13.3803ZM25.4667 13.3803C27.8592 11.6027 29.2159 9.04683 29.6576 5.81268H31.8718V6.42277C31.8718 7.24323 31.7877 9.24705 31.6562 10.0254C31.5405 10.7197 31.3564 10.8196 30.6727 10.8196C30.1783 10.8196 29.6839 10.7355 29.2053 10.6513L29.3263 13.1337C29.9048 13.2337 30.4676 13.2757 31.0461 13.2757C31.4563 13.2757 31.9034 13.2442 32.2978 13.1022C32.8133 12.9181 33.2445 12.3501 33.4496 11.7558C33.9072 10.4094 33.9651 7.23271 33.9651 5.71275V3.47226H29.889C29.9364 2.70965 29.9732 1.95756 29.9942 1.18969L27.8169 1.17917C27.8169 1.94704 27.7958 2.71491 27.759 3.48278H24.5981V5.8232H27.5328C27.3645 6.89085 27.1384 7.76917 26.6335 8.70534C25.9708 9.92551 25.0925 10.7933 24.0248 11.4875L25.4667 13.3803ZM39.5033 4.84488C39.5033 7.75331 39.2929 11.3455 37.4048 13.486L35.8059 11.5558C37.2575 9.65195 37.389 7.51138 37.389 5.07103V1.73658H39.5033V4.84488ZM42.7904 10.0517C44.2683 9.18386 44.7732 7.43775 45.0256 5.62327L47.0347 6.64359C46.7244 8.18984 46.2195 9.69403 45.3201 10.9142C44.1789 12.4762 42.3854 13.1284 40.6919 13.1863V1.37895H42.7904V10.0464V10.0517ZM54.5872 2.8885V0.532301H52.3257V2.90428C52.331 4.35061 51.9576 6.36495 51.4053 7.64298C50.5743 9.57317 49.1701 10.8512 47.5344 11.7453L48.8598 14.0279C51.0109 12.55 52.6833 10.5093 53.4512 7.66928C54.3295 10.5514 55.7601 12.5079 58.0111 14.0226L59.3312 11.6664C57.8901 10.7881 56.5542 9.68362 55.6864 7.97958C54.9764 6.5911 54.5872 4.33483 54.5872 2.8885ZM59.7677 4.91319V2.73055H61.5243V0.474275H63.4229V2.73055H64.6641V4.91319H63.4282V5.6495C63.9436 6.58567 64.5116 7.22206 65.2584 7.89L64.033 9.73604C63.7911 9.42573 63.6333 9.19958 63.4334 8.84194V13.9804H61.5348V9.09965C61.1614 10.0937 60.7775 10.8458 60.1516 11.6399L59.5257 8.7578C60.4987 7.62177 61.0404 6.44367 61.4717 4.91319H59.7677ZM65.0586 4.92371V2.72529H67.8461V0.469015H69.8551V2.72529H71.1437V4.92371H69.8604V12.6287C69.8604 13.3229 69.5028 13.9751 68.8664 13.9751H66.1L65.8107 11.6767H67.4201C67.7304 11.6767 67.8513 11.6347 67.8513 11.235V8.62631C67.1045 9.94641 66.1315 11.3244 65.1007 12.3342L63.8121 10.4355C65.3163 9.22588 66.9099 6.78553 67.825 4.92897H65.0586V4.92371ZM89.4569 3.74032L88.3419 6.01237C87.1007 5.03413 85.9857 4.41352 84.5762 3.82973L85.5124 1.71546C86.9798 2.2414 88.1368 2.80415 89.4569 3.74032ZM84.8076 10.5249C86.7063 10.3093 88.8573 9.76757 90.3352 8.23709C91.6922 6.81705 92.5705 4.33463 93.0017 2.30451L94.853 3.79291C94.2535 6.17541 93.291 8.62102 91.6816 10.2777C89.904 12.108 87.5688 12.8233 85.2968 13.2072L84.8024 10.5249H84.8076ZM97.793 13.4807C100.049 12.9653 102.132 11.9449 103.705 9.89903H103.699C105.487 7.56913 106.134 4.67647 106.303 1.61551H99.2446C98.5872 3.33533 97.6983 4.59758 96.3151 5.5653L97.6615 7.39557C98.9238 6.46992 99.8021 5.38123 100.607 3.91386H103.878C103.268 8.32648 100.496 10.4986 96.9357 11.1823L97.793 13.4807Z" fill="#307DC1"/>
</svg>