<svg width="18" height="14" viewBox="0 0 18 14" fill="none" xmlns="http://www.w3.org/2000/svg">
<g clip-path="url(#clip0_1209_57298)">
<path d="M2.75328 0C2.58362 0 2.42166 0.0706674 2.29827 0.188446C2.17488 0.314077 2.10547 0.478968 2.10547 0.651711V10.4823C2.10547 10.8435 2.39853 11.134 2.75328 11.134C4.24943 11.134 6.76357 11.456 8.49879 13.3012V3.02299C8.49879 2.89736 8.46794 2.78744 8.41395 2.69321C6.98722 0.361189 4.25714 0 2.75328 0Z" fill="#307DC1"/>
<path d="M15.8876 10.4901V0.659523C15.8876 0.486781 15.8181 0.32189 15.6948 0.196259C15.5714 0.070628 15.4171 0.0078125 15.2475 0.0078125C13.7436 0.0078125 11.0135 0.369002 9.58679 2.70103C9.52509 2.79525 9.50195 2.91303 9.50195 3.03081V13.3168C11.2372 11.4716 13.7436 11.1497 15.2475 11.1497C15.6022 11.1497 15.8953 10.8513 15.8953 10.498L15.8876 10.4901Z" fill="#307DC1"/>
<path d="M17.3527 2.26917H16.8822V10.4901C16.8822 11.4088 16.1419 12.1626 15.2396 12.1626C13.9671 12.1626 11.8694 12.4217 10.3887 13.8508C12.9568 13.2069 15.6637 13.6231 17.2062 13.9843C17.399 14.0314 17.5995 13.9843 17.7537 13.8586C17.908 13.733 17.9928 13.5445 17.9928 13.3482V2.92088C17.9928 2.55969 17.7074 2.26917 17.3527 2.26917Z" fill="#307DC1"/>
<path d="M1.11054 10.4901V2.26917H0.640103C0.285347 2.26917 0 2.55969 0 2.92088V13.3404C0 13.5445 0.0848329 13.7251 0.239075 13.8508C0.393316 13.9764 0.59383 14.0235 0.786632 13.9764C2.32905 13.6152 5.03599 13.1991 7.60411 13.8429C6.11568 12.4139 4.02571 12.1626 2.75321 12.1548C1.8509 12.1548 1.11054 11.401 1.11054 10.4823V10.4901Z" fill="#307DC1"/>
</g>
<defs>
<clipPath id="clip0_1209_57298">
<rect width="18" height="14" fill="white"/>
</clipPath>
</defs>
</svg>
