<svg width="24" height="18" viewBox="0 0 24 18" fill="none" xmlns="http://www.w3.org/2000/svg">
<g clip-path="url(#clip0_1209_57303)">
<path d="M23.2485 3.91532L12.1067 0.530605C12.0381 0.492403 11.9619 0.492403 11.8933 0.530605L0.751491 3.91532C0.606693 3.95353 0.5 4.09869 0.5 4.27443C0.5 4.45016 0.606693 4.56476 0.751491 4.63353L11.8933 8.01825C11.9619 8.05645 12.0381 8.05645 12.1067 8.01825L16.1687 6.79577L11.6418 5.06903C11.0702 4.8551 10.8188 4.24386 10.994 3.66319C11.2074 3.12072 11.8171 2.79982 12.3963 3.01375L17.6776 5.03083C18.112 5.176 18.394 5.60386 18.394 6.03937V6.07757L23.2485 4.60296C23.3933 4.56476 23.5 4.41959 23.5 4.24386C23.5 4.06813 23.3933 3.95353 23.2485 3.92296V3.91532Z" fill="#307DC1"/>
<path d="M16.2375 7.48336C11.924 8.78223 12.2136 8.70583 12.0002 8.70583C11.7868 8.70583 12.4651 8.8892 3.22852 6.07751V11.1966C3.22852 11.3418 3.2971 11.487 3.4419 11.5175C3.83819 11.7314 7.03899 13.4276 11.8173 13.4276C13.1815 13.4276 14.6599 13.2825 16.2375 12.9234V7.48336Z" fill="#307DC1"/>
<path d="M18.3936 12.4191C19.1099 12.2052 19.8339 11.9149 20.5503 11.594C20.6189 11.594 20.7637 11.4488 20.7637 11.2731V6.12341C19.8644 6.41375 19.0718 6.62768 18.3555 6.84162V12.4268H18.3936V12.4191Z" fill="#307DC1"/>
<path d="M17.6779 13.9319V6.03934C17.6779 5.89418 17.5712 5.74901 17.4264 5.71845L12.107 3.73957C11.9241 3.67081 11.7107 3.77777 11.6421 3.9535C11.5735 4.12923 11.6802 4.35081 11.8555 4.41957L16.9234 6.29148V13.9319C16.2375 14.0771 15.7345 14.6883 15.7345 15.376V17.1409C15.7345 17.3243 15.9175 17.5 16.0927 17.5H18.4628C18.6457 17.5 18.821 17.3166 18.821 17.1409V15.376C18.821 14.6578 18.318 14.0771 17.6703 13.9319H17.6779Z" fill="#307DC1"/>
</g>
<defs>
<clipPath id="clip0_1209_57303">
<rect width="23" height="17" fill="white" transform="translate(0.5 0.5)"/>
</clipPath>
</defs>
</svg>
