<svg width="14" height="14" viewBox="0 0 14 14" fill="none" xmlns="http://www.w3.org/2000/svg">
  <rect width="14" height="14" rx="7" fill="#AFAFAF"/>
  <path d="M10.675 3.33088C10.4475 3.10338 10.08 3.10338 9.85251 3.33088L7.00001 6.17754L4.14751 3.32504C3.92001 3.09754 3.55251 3.09754 3.32501 3.32504C3.09751 3.55254 3.09751 3.92004 3.32501 4.14754L6.17751 7.00004L3.32501 9.85254C3.09751 10.08 3.09751 10.4475 3.32501 10.675C3.55251 10.9025 3.92001 10.9025 4.14751 10.675L7.00001 7.82254L9.85251 10.675C10.08 10.9025 10.4475 10.9025 10.675 10.675C10.9025 10.4475 10.9025 10.08 10.675 9.85254L7.82251 7.00004L10.675 4.14754C10.8967 3.92588 10.8967 3.55254 10.675 3.33088Z" fill="#FDFDFD"/>
</svg>