<svg width="18" height="18" viewBox="0 0 18 18" fill="none" xmlns="http://www.w3.org/2000/svg">
<g clip-path="url(#clip0_1209_57296)">
<path d="M15.0118 2.9882C11.6891 -0.326797 6.31093 -0.326797 2.9882 2.9882C-0.326797 6.31093 -0.326797 11.6891 2.9882 15.0118C6.31093 18.3346 11.6814 18.3346 15.0041 15.0118C18.3268 11.6891 18.3268 6.31866 15.0041 2.99593L15.0118 2.9882ZM11.1327 10.4296C11.5191 10.4296 11.8282 10.7387 11.8282 11.125C11.8282 11.5114 11.5191 11.8205 11.1327 11.8205H9.7032V12.5391C9.7032 12.9255 9.39411 13.2346 9.00775 13.2346C8.62139 13.2346 8.31229 12.9255 8.31229 12.5391V11.8205H6.88275C6.49639 11.8205 6.18729 11.5114 6.18729 11.125C6.18729 10.7387 6.49639 10.4296 6.88275 10.4296H8.31229V9.69547H6.88275C6.49639 9.69547 6.18729 9.38638 6.18729 9.00002C6.18729 8.61366 6.49639 8.30457 6.88275 8.30457H7.77911L6.28775 5.81638C6.08684 5.48411 6.19502 5.05911 6.52729 4.8582C6.85957 4.65729 7.28457 4.76548 7.48548 5.09775L9.01548 7.64775L10.5455 5.09775C10.7464 4.76548 11.1714 4.65729 11.5037 4.8582C11.8359 5.05911 11.9441 5.48411 11.7432 5.81638L10.2518 8.30457H11.1482C11.5346 8.30457 11.8437 8.61366 11.8437 9.00002C11.8437 9.38638 11.5346 9.69547 11.1482 9.69547H9.71866V10.4296H11.1482H11.1327Z" fill="#307DC1"/>
</g>
<defs>
<clipPath id="clip0_1209_57296">
<rect width="17" height="17" fill="white" transform="translate(0.5 0.5)"/>
</clipPath>
</defs>
</svg>
