<svg width="68" height="60" viewBox="0 0 68 60" fill="none" xmlns="http://www.w3.org/2000/svg">
<path d="M28.3337 15.6667C27.0337 16.9667 27.0337 19.0333 28.3337 20.3333L34.667 26.6667L4.00033 26.6667C2.16699 26.6667 0.666992 28.1667 0.666992 30C0.666992 31.8333 2.16699 33.3333 4.00033 33.3333H34.667L28.3337 39.6667C27.0337 40.9667 27.0337 43.0333 28.3337 44.3333C29.6337 45.6333 31.7003 45.6333 33.0003 44.3333L44.967 32.3667C46.267 31.0667 46.267 28.9667 44.967 27.6667L33.0003 15.6667C31.7003 14.3667 29.6337 14.3667 28.3337 15.6667ZM60.667 53.3333H37.3337C35.5003 53.3333 34.0003 54.8333 34.0003 56.6667C34.0003 58.5 35.5003 60 37.3337 60H60.667C64.3337 60 67.3337 57 67.3337 53.3333V6.66667C67.3337 3 64.3337 0 60.667 0L37.3337 0C35.5003 0 34.0003 1.5 34.0003 3.33333C34.0003 5.16667 35.5003 6.66667 37.3337 6.66667L60.667 6.66667V53.3333Z" fill="#307DC1"/>
</svg>
