<svg width="60" height="62" viewBox="0 0 60 62" fill="none" xmlns="http://www.w3.org/2000/svg">
<path d="M45.49 22.1746C46.1377 22.1746 46.6616 21.6507 46.6616 21.003V4.52434C46.6616 2.58119 45.0804 1 43.1372 1H4.46477C2.52162 1 0.94043 2.58119 0.94043 4.52434V57.6657C0.94043 59.6088 2.52162 61.19 4.46477 61.19H43.1372C45.0804 61.19 46.6616 59.6088 46.6616 57.6657V51.6076C46.6616 50.9599 46.1377 50.436 45.49 50.436C44.8423 50.436 44.3184 50.9599 44.3184 51.6076V57.6657C44.3184 58.3134 43.7945 58.8373 43.1468 58.8373H4.47429C3.82658 58.8373 3.30269 58.3134 3.30269 57.6657V4.52434C3.30269 3.87662 3.82658 3.35273 4.47429 3.35273H43.1468C43.7945 3.35273 44.3184 3.87662 44.3184 4.52434V21.003C44.3184 21.6507 44.8423 22.1746 45.49 22.1746Z" fill="#005B91" stroke="#005B91" stroke-width="0.5" stroke-miterlimit="10"/>
<path d="M24.3441 7.33472C18.3813 7.33472 13.5234 12.1831 13.5234 18.1554C13.5234 21.2511 14.8284 24.042 16.924 26.0137C16.9621 26.0518 17.0002 26.0994 17.0478 26.128C18.9719 27.8902 21.5342 28.9665 24.3441 28.9665C27.1541 28.9665 29.7163 27.8902 31.6404 26.128C31.6881 26.0899 31.7262 26.0518 31.7643 26.0137C33.8503 24.042 35.1648 21.2416 35.1648 18.1554C35.1648 12.1926 30.3164 7.33472 24.3441 7.33472ZM24.3441 26.6138C22.42 26.6138 20.6483 25.9661 19.2291 24.8897C20.2578 23.0609 22.1914 21.9083 24.3441 21.9083C26.4968 21.9083 28.4209 23.0514 29.4592 24.8897C28.0399 25.9756 26.2682 26.6138 24.3441 26.6138ZM22.4581 17.6791V16.9171C22.4581 15.8789 23.3059 15.0311 24.3441 15.0311C25.3824 15.0311 26.2301 15.8789 26.2301 16.9171V17.6791C26.2301 18.7174 25.3824 19.5651 24.3441 19.5651C23.3059 19.5651 22.4581 18.7174 22.4581 17.6791ZM31.1547 23.1657C30.2879 21.8798 29.0877 20.8796 27.6875 20.2605C28.2399 19.5461 28.5733 18.6507 28.5733 17.6791V16.9171C28.5733 14.5834 26.6778 12.6879 24.3441 12.6879C22.0104 12.6879 20.1149 14.5834 20.1149 16.9171V17.6791C20.1149 18.6507 20.4483 19.5461 21.0008 20.2605C19.6101 20.8796 18.4004 21.8798 17.5336 23.1657C16.4953 21.7559 15.8762 20.0223 15.8762 18.1459C15.8762 13.4785 19.6767 9.67793 24.3441 9.67793C29.0115 9.67793 32.8121 13.4785 32.8121 18.1459C32.8121 20.0223 32.1929 21.7559 31.1547 23.1657Z" fill="#005B91" stroke="#005B91" stroke-width="0.5" stroke-miterlimit="10"/>
<path d="M30.6973 52.4838H24.344C23.6962 52.4838 23.1724 53.0077 23.1724 53.6554C23.1724 54.3031 23.6962 54.827 24.344 54.827H30.6973C31.345 54.827 31.8689 54.3031 31.8689 53.6554C31.8689 53.0077 31.345 52.4838 30.6973 52.4838Z" fill="#005B91" stroke="#005B91" stroke-width="0.5" stroke-miterlimit="10"/>
<path d="M30.6975 45.9016H15.0857C14.438 45.9016 13.9141 46.4255 13.9141 47.0732C13.9141 47.7209 14.438 48.2448 15.0857 48.2448H30.6975C31.3453 48.2448 31.8691 47.7209 31.8691 47.0732C31.8691 46.4255 31.3453 45.9016 30.6975 45.9016Z" fill="#005B91" stroke="#005B91" stroke-width="0.5" stroke-miterlimit="10"/>
<path d="M30.6975 39.3206H15.0857C14.438 39.3206 13.9141 39.8444 13.9141 40.4922C13.9141 41.1399 14.438 41.6638 15.0857 41.6638H30.6975C31.3453 41.6638 31.8691 41.1399 31.8691 40.4922C31.8691 39.8444 31.3453 39.3206 30.6975 39.3206Z" fill="#005B91" stroke="#005B91" stroke-width="0.5" stroke-miterlimit="10"/>
<path d="M10.8939 33.0813C10.6748 32.8622 10.37 32.7384 10.0652 32.7384C9.76035 32.7384 9.45554 32.8622 9.23646 33.0813C9.01738 33.3004 8.89355 33.6052 8.89355 33.91C8.89355 34.2148 9.01738 34.5196 9.23646 34.7387C9.45554 34.9578 9.76035 35.0816 10.0652 35.0816C10.37 35.0816 10.6748 34.9578 10.8939 34.7387C11.1129 34.5196 11.2368 34.2148 11.2368 33.91C11.2368 33.6052 11.1129 33.3004 10.8939 33.0813Z" fill="#005B91" stroke="#005B91" stroke-width="0.5" stroke-miterlimit="10"/>
<path d="M10.8939 39.6635C10.6748 39.4444 10.37 39.3206 10.0652 39.3206C9.76035 39.3206 9.45554 39.4444 9.23646 39.6635C9.01738 39.8825 8.89355 40.1874 8.89355 40.4922C8.89355 40.797 9.01738 41.1018 9.23646 41.3209C9.45554 41.5399 9.76035 41.6638 10.0652 41.6638C10.37 41.6638 10.6748 41.5399 10.8939 41.3209C11.1129 41.1018 11.2368 40.797 11.2368 40.4922C11.2368 40.1874 11.1129 39.8825 10.8939 39.6635Z" fill="#005B91" stroke="#005B91" stroke-width="0.5" stroke-miterlimit="10"/>
<path d="M10.8939 46.2445C10.6748 46.0254 10.37 45.9016 10.0652 45.9016C9.76035 45.9016 9.45554 46.0254 9.23646 46.2445C9.01738 46.4636 8.89355 46.7684 8.89355 47.0732C8.89355 47.378 9.01738 47.6828 9.23646 47.9019C9.45554 48.121 9.76035 48.2448 10.0652 48.2448C10.37 48.2448 10.6748 48.121 10.8939 47.9019C11.1129 47.6828 11.2368 47.378 11.2368 47.0732C11.2368 46.7684 11.1129 46.4636 10.8939 46.2445Z" fill="#005B91" stroke="#005B91" stroke-width="0.5" stroke-miterlimit="10"/>
<path d="M33.0884 32.7384H15.0857C14.438 32.7384 13.9141 33.2623 13.9141 33.91C13.9141 34.5577 14.438 35.0816 15.0857 35.0816H33.0884C33.7361 35.0816 34.26 34.5577 34.26 33.91C34.26 33.2623 33.7361 32.7384 33.0884 32.7384Z" fill="#005B91" stroke="#005B91" stroke-width="0.5" stroke-miterlimit="10"/>
<path d="M57.1492 16.3067C56.0062 15.6495 54.6726 15.4685 53.4058 15.8114C52.1294 16.1543 51.0626 16.9735 50.4053 18.1165L35.6126 43.7394C35.5269 43.8823 35.4793 44.0347 35.4602 44.1966L34.422 53.5218C34.3743 53.9886 34.5934 54.4363 35.003 54.6744C35.184 54.7792 35.384 54.8363 35.5936 54.8363C35.8412 54.8363 36.0889 54.7601 36.2889 54.6077L43.852 49.045C43.9853 48.9497 44.0901 48.8259 44.1758 48.683L58.9685 23.0601C60.3306 20.6979 59.521 17.6783 57.1587 16.3162L57.1492 16.3067ZM37.0509 51.1215L37.5939 46.2541L40.9944 48.2163L37.0509 51.1215ZM42.7089 46.4922L38.2321 43.9013L50.11 23.3363L54.5869 25.9272L42.7089 46.4922ZM56.9206 21.879L55.7585 23.8888L51.2816 21.2979L52.4437 19.2881C52.7866 18.688 53.3486 18.2594 54.0154 18.0784C54.6821 17.8974 55.3775 17.9927 55.9776 18.3356C56.5777 18.6785 57.0063 19.2405 57.1873 19.9073C57.3683 20.574 57.273 21.2694 56.9301 21.8695L56.9206 21.879Z" fill="#005B91" stroke="#005B91" stroke-width="0.5" stroke-miterlimit="10"/>
</svg>
