<svg width="84" height="80" viewBox="0 0 84 80" fill="none" xmlns="http://www.w3.org/2000/svg">
<g clip-path="url(#clip0_82_15905)">
<path fill-rule="evenodd" clip-rule="evenodd" d="M23.1921 1.2973H60.8095C62.0833 1.2973 63.1266 2.34001 63.1266 3.61299V56.1961C63.1266 57.469 62.0833 58.5117 60.8095 58.5117H23.1921C21.9183 58.5117 20.875 57.469 20.875 56.1961V3.61299C20.875 2.33839 21.9167 1.2973 23.1921 1.2973Z" fill="#EDF6FF"/>
<path fill-rule="evenodd" clip-rule="evenodd" d="M23.1921 1.2973H26.2086C24.9348 1.2973 23.8915 2.34001 23.8915 3.61299V56.1961C23.8915 57.469 24.9348 58.5117 26.2086 58.5117H23.1921C21.9183 58.5117 20.875 57.469 20.875 56.1961V3.61299C20.875 2.33839 21.9167 1.2973 23.1921 1.2973Z" fill="#D5DDE6"/>
<path fill-rule="evenodd" clip-rule="evenodd" d="M8.15332 65.574L12.4582 66.4919C29.1453 68.2594 37.9107 87.1952 64.1194 68.0778L74.2251 65.9178L69.917 43.6966L61.6416 45.4641C45.8324 36.336 33.1824 41.8528 21.6098 45.3036L17.1897 44.3598L13.104 43.4874L8.15332 65.574Z" fill="#F7DBC6"/>
<path fill-rule="evenodd" clip-rule="evenodd" d="M69.9156 43.6949L61.6402 45.4625C54.6483 41.2268 46.2236 39.2273 35.3503 41.397L27.0311 49.1501C20.7791 54.9263 31.4869 55.6155 38.4739 48.6506C43.7053 58.6382 57.0644 58.9463 64.1179 68.0745L74.2236 65.9145L69.9156 43.6949Z" fill="#F9BB91"/>
<path fill-rule="evenodd" clip-rule="evenodd" d="M23.2349 71.3226L27.405 67.648C28.7112 66.495 28.8394 64.4826 27.6857 63.1772C26.5369 61.8718 24.5216 61.7436 23.217 62.8966L19.0469 66.5712C17.7374 67.7242 17.6125 69.7334 18.7661 71.0421C19.915 72.3475 21.9303 72.4724 23.2349 71.3226Z" fill="#F9BB91"/>
<path fill-rule="evenodd" clip-rule="evenodd" d="M30.6099 73.2637L34.78 69.5891C36.0862 68.441 36.2144 66.4269 35.0607 65.1231C33.9119 63.8144 31.8966 63.6896 30.592 64.8426L26.4219 68.5172C25.1124 69.6669 24.9875 71.6794 26.1411 72.9832C27.29 74.2934 29.3036 74.4183 30.6099 73.2637Z" fill="#F9BB91"/>
<path fill-rule="evenodd" clip-rule="evenodd" d="M36.5853 76.4438L40.7555 72.766C42.0649 71.6162 42.1899 69.6038 41.0362 68.3C39.8874 66.9946 37.8721 66.8665 36.5675 68.0194L32.3973 71.6941C31.0911 72.847 30.9629 74.8562 32.1166 76.1649C33.267 77.4687 35.2807 77.5936 36.5853 76.4438Z" fill="#F9BB91"/>
<path fill-rule="evenodd" clip-rule="evenodd" d="M41.473 72.1384L40.3144 73.1584C39.005 74.3114 38.88 76.3206 40.0337 77.6292C41.1825 78.9346 43.1978 79.0579 44.5024 77.9098L45.661 76.8898C46.9672 75.7368 47.0954 73.7243 45.9417 72.4189C44.7929 71.1135 42.7792 70.9838 41.473 72.1384Z" fill="#F9BB91"/>
<path fill-rule="evenodd" clip-rule="evenodd" d="M34.0634 22.792C38.644 22.792 42.3826 19.0558 42.3826 14.4779C42.3826 9.90004 38.644 6.15894 34.0634 6.15894C29.4827 6.15894 25.7441 9.89518 25.7441 14.4779C25.7441 19.0606 29.4778 22.792 34.0634 22.792Z" fill="#2EBD33"/>
<path fill-rule="evenodd" clip-rule="evenodd" d="M1.76367 64.2085L6.49688 42.0748L17.1965 44.3597L12.4633 66.4934L1.76367 64.2085Z" fill="#5C9CEE"/>
<path fill-rule="evenodd" clip-rule="evenodd" d="M66.8193 44.3646L77.5157 42.0797L82.2489 64.2134L71.5525 66.4983L66.8193 44.3646Z" fill="#5C9CEE"/>
<path fill-rule="evenodd" clip-rule="evenodd" d="M13.1065 63.4366L12.4558 66.4918L1.75781 64.2069L2.41335 61.1517L13.1065 63.4366Z" fill="#538CD6"/>
<path fill-rule="evenodd" clip-rule="evenodd" d="M70.8926 63.4366L71.5465 66.4918L82.2412 64.2069L81.5906 61.1517L70.8926 63.4366Z" fill="#538CD6"/>
<path fill-rule="evenodd" clip-rule="evenodd" d="M70.8922 63.4366L61.6367 65.4102C62.5275 66.2113 63.3616 67.0934 64.1193 68.0778L71.5477 66.4918L70.8922 63.4366Z" fill="#E59B6A"/>
<path fill-rule="evenodd" clip-rule="evenodd" d="M46.1621 76.3286C51.2069 75.6378 57.0207 73.2508 64.1197 68.0762C63.362 67.0918 62.5296 66.2145 61.6371 65.4086L60.8388 65.5821C55.3364 69.594 50.5984 71.9275 46.4023 73.0983C46.915 74.1281 46.8258 75.38 46.1621 76.3286Z" fill="#E8BC9C"/>
<path fill-rule="evenodd" clip-rule="evenodd" d="M12.4561 66.4918C14.4697 66.7059 16.3682 67.168 18.1953 67.7875C18.3738 67.3334 18.6594 66.915 19.0472 66.5713L20.6828 65.128C18.8379 64.5004 16.9215 64.0285 14.89 63.8145L13.1084 63.4366L12.4561 66.4918Z" fill="#E8BC9C"/>
<path d="M83.5094 63.9361L78.7762 41.8073C78.7048 41.4716 78.502 41.1765 78.2131 40.99C77.9243 40.8035 77.5738 40.7387 77.2363 40.81L66.5432 43.0949L64.4224 43.5473V3.613C64.4224 1.62001 62.8014 0 60.8072 0H23.1914C21.1972 0 19.5762 1.62001 19.5762 3.613V43.5473L17.4603 43.0965L6.76233 40.8116C6.06136 40.6624 5.37336 41.1084 5.22246 41.8089L0.489254 63.9361C0.417858 64.2718 0.482763 64.6237 0.669366 64.9123C0.855968 65.201 1.15129 65.4037 1.48717 65.475L12.1852 67.7599H12.1868C12.2257 67.768 12.2647 67.7745 12.3036 67.7778C12.3101 67.7778 12.3166 67.7794 12.3231 67.781C12.3312 67.781 12.3377 67.781 12.3458 67.7826C12.3831 67.7859 12.4204 67.7891 12.4578 67.7891H12.461C13.3616 67.7907 15.2195 68.2399 16.6896 68.6713C16.6149 69.8632 17.0076 71.0113 17.793 71.8999C18.5783 72.7918 19.6687 73.3254 20.863 73.4C20.9587 73.4064 21.0544 73.4097 21.1502 73.4097C22.239 73.4097 23.2758 73.0205 24.0952 72.2972L24.2364 72.1724C24.4181 72.7854 24.7313 73.3546 25.1646 73.8459C25.9499 74.7378 27.0403 75.2697 28.2346 75.3443C28.3303 75.3508 28.426 75.354 28.5218 75.354C29.0816 75.354 29.6268 75.2502 30.1363 75.0524C30.2953 75.7611 30.6279 76.4421 31.1423 77.0259C32.0234 78.0232 33.255 78.5308 34.493 78.5308C35.5413 78.5308 36.596 78.1643 37.4414 77.42L38.131 76.8119C38.3095 77.4135 38.6178 77.9875 39.0591 78.4903C39.9386 79.4892 41.1702 80 42.4082 80C43.4581 80 44.5128 79.6335 45.363 78.8859L46.5151 77.8676C46.6335 77.7638 46.7439 77.6551 46.8477 77.5416C52.3614 76.6724 58.1948 73.9675 64.6528 69.2924L71.8151 67.7632H71.8167L82.5098 65.4783C83.2108 65.3242 83.6571 64.6367 83.5078 63.9361H83.5094ZM64.6285 66.6426C61.2112 62.5658 56.6387 60.268 52.2105 58.0415C47.0765 55.4615 42.2281 53.0225 39.627 48.0506C39.4356 47.6857 39.0818 47.4328 38.6746 47.3695C38.2657 47.3063 37.8535 47.4425 37.5614 47.7328C34.3275 50.9566 30.0827 52.5068 27.5628 52.3739C26.857 52.3366 26.5308 52.1712 26.4448 52.0949C26.4481 51.902 26.7093 51.2176 27.9198 50.0987L35.9696 42.597C45.3939 40.7889 53.5768 42.0911 60.9743 46.5733C61.2567 46.7452 61.5942 46.8019 61.9171 46.7322L65.8195 45.9003L70.0107 65.4945L64.6285 66.6426ZM23.1914 2.59137H60.8072C61.3703 2.59137 61.8278 3.04867 61.8278 3.61138V44.0662C53.8851 39.4122 45.1342 38.123 35.0983 40.1257C35.0983 40.1257 35.0972 40.1262 35.095 40.1273H35.0902C31.4701 40.8749 28.022 41.9549 24.6875 42.9976C23.8226 43.2684 22.9935 43.5279 22.1692 43.7792V3.613C22.1692 3.06002 22.6381 2.59137 23.1914 2.59137ZM7.48765 43.6171L15.6495 45.3603L11.4582 64.9529L3.2964 63.2096L7.48765 43.6171ZM22.3785 70.3513C22.0069 70.6789 21.5282 70.8426 21.0252 70.8102C20.5238 70.7794 20.0679 70.5572 19.7385 70.1826C19.4107 69.8113 19.2468 69.3313 19.2793 68.8302C19.3101 68.3291 19.5324 67.8718 19.9072 67.5442L24.0709 63.8696C24.4279 63.5566 24.8725 63.4026 25.3138 63.4026C25.8331 63.4026 26.3491 63.615 26.7158 64.0302C27.3973 64.8069 27.3227 65.994 26.547 66.675L22.3785 70.3513ZM28.3968 72.7529C27.8954 72.7221 27.4395 72.4999 27.1117 72.127C26.7839 71.7556 26.6201 71.2756 26.6525 70.7745C26.6833 70.2734 26.9056 69.8178 27.2788 69.4886L31.449 65.8123C31.8044 65.4994 32.2457 65.3469 32.6854 65.3469C33.2047 65.3469 33.7207 65.5594 34.089 65.9761C34.4168 66.3491 34.5807 66.8291 34.5482 67.3318C34.5174 67.8329 34.2951 68.2886 33.9235 68.6161L29.7517 72.294C29.3801 72.6216 28.8998 72.7854 28.3968 72.7529ZM35.7279 75.4708C34.9539 76.1519 33.7694 76.0773 33.0879 75.307C32.7601 74.934 32.5962 74.454 32.6286 73.9513C32.6595 73.4502 32.8818 72.9945 33.2534 72.667L37.4235 68.9907C37.7789 68.6778 38.2218 68.5237 38.6616 68.5237C39.1808 68.5237 39.6968 68.7378 40.0652 69.1561C40.3929 69.5275 40.5568 70.0075 40.5244 70.5086C40.4935 71.0097 40.2712 71.467 39.898 71.7945L35.7279 75.4708ZM43.6495 76.9367C42.8739 77.6194 41.6894 77.5448 41.0095 76.7729C40.3264 75.9978 40.3994 74.8108 41.1767 74.1281L42.3287 73.1097C43.106 72.4302 44.2921 72.5048 44.9736 73.2783C45.6551 74.0518 45.5788 75.2356 44.8032 75.9184L43.6495 76.9367ZM46.9191 71.5643C45.931 70.4437 44.4998 69.9378 43.1124 70.0772C43.0459 69.101 42.6662 68.1815 42.0107 67.4405C40.7402 65.9988 38.7378 65.574 37.0389 66.234C36.8783 65.5091 36.5376 64.8329 36.0345 64.2621C34.407 62.4215 31.5804 62.2431 29.7339 63.868L29.5878 63.9961C29.4094 63.3945 29.1027 62.8188 28.6613 62.3177C27.0354 60.4788 24.2072 60.3004 22.3558 61.9237L18.1905 65.5999C17.9698 65.7945 17.7719 66.0069 17.5966 66.2356C16.5987 65.9372 15.226 65.5691 14.0252 65.3599L18.1873 45.9003L21.34 46.5717C21.4293 46.5911 21.5201 46.6009 21.611 46.6009C21.7359 46.6009 21.8609 46.583 21.9826 46.5473C23.1347 46.2036 24.3192 45.8322 25.4664 45.4738C27.2172 44.9257 29.0005 44.3695 30.8145 43.8587L26.1544 48.2014C24.3532 49.8652 23.602 51.3863 23.9232 52.7209C24.0595 53.2885 24.5252 54.3085 26.1138 54.7593C28.8609 55.536 34.0127 54.1723 38.1715 50.689C41.274 55.4452 46.236 57.9393 51.0471 60.3588C55.0517 62.3729 59.1813 64.4485 62.2303 67.8361C57.0946 71.4345 52.4198 73.687 48.029 74.6746C48.0663 73.5718 47.7029 72.4545 46.9191 71.5643ZM72.5437 64.9529L68.3524 45.3587L76.5094 43.6154L80.7006 63.2096L72.5437 64.9529ZM34.0647 24.091C39.3674 24.091 43.682 19.7791 43.682 14.4796C43.682 9.18006 39.3674 4.86814 34.0647 4.86814C28.7619 4.86814 24.4474 9.18006 24.4474 14.4796C24.4474 19.7791 28.7619 24.091 34.0647 24.091ZM34.0647 7.45951C37.9379 7.45951 41.0874 10.6087 41.0874 14.4796C41.0874 18.3504 37.9363 21.498 34.0647 21.498C30.1931 21.498 27.0403 18.3488 27.0403 14.4796C27.0403 10.6087 30.1915 7.45951 34.0647 7.45951ZM45.978 6.16383C45.978 5.44706 46.5589 4.86814 47.2745 4.86814H58.2256C58.9428 4.86814 59.5221 5.44869 59.5221 6.16383C59.5221 6.87896 58.9412 7.45951 58.2256 7.45951H47.2745C46.5589 7.45951 45.978 6.87896 45.978 6.16383ZM45.978 13.372C45.978 12.6552 46.5589 12.0763 47.2745 12.0763H58.2256C58.9428 12.0763 59.5221 12.6568 59.5221 13.372C59.5221 14.0871 58.9412 14.6677 58.2256 14.6677H47.2745C46.5589 14.6677 45.978 14.0871 45.978 13.372ZM45.978 20.5785C45.978 19.8618 46.5589 19.2828 47.2745 19.2828H58.2256C58.9428 19.2828 59.5221 19.8634 59.5221 20.5785C59.5221 21.2937 58.9412 21.8742 58.2256 21.8742H47.2745C46.5589 21.8742 45.978 21.2953 45.978 20.5785ZM24.4474 27.7818C24.4474 27.065 25.0283 26.4861 25.7438 26.4861H58.2256C58.9412 26.4861 59.5221 27.0667 59.5221 27.7818C59.5221 28.497 58.9412 29.0775 58.2256 29.0775H25.7438C25.0283 29.0775 24.4474 28.4986 24.4474 27.7818ZM24.4474 34.99C24.4474 34.2732 25.0283 33.6943 25.7438 33.6943H58.2256C58.9412 33.6943 59.5221 34.2748 59.5221 34.99C59.5221 35.7051 58.9412 36.2856 58.2256 36.2856H25.7438C25.0283 36.2856 24.4474 35.7051 24.4474 34.99ZM29.3623 14.2282C28.856 13.7223 28.856 12.9001 29.3623 12.3958C29.8686 11.8898 30.6912 11.8898 31.1959 12.3974L33.5763 14.7796L36.927 11.4309C37.4332 10.9249 38.2543 10.9249 38.7606 11.4309C39.2668 11.9368 39.2668 12.7574 38.7606 13.2633L34.4914 17.5298C34.248 17.7731 33.9186 17.9093 33.5746 17.9093C33.2306 17.9093 32.9012 17.7731 32.6579 17.5282L29.3607 14.2282H29.3623Z" fill="#3D3D3D"/>
</g>
<defs>
<clipPath id="clip0_82_15905">
<rect width="83.0769" height="80" fill="white" transform="translate(0.461914)"/>
</clipPath>
</defs>
</svg>
