<svg width="18" height="20" viewBox="0 0 18 20" fill="none" xmlns="http://www.w3.org/2000/svg">
  <path fillRule="evenodd" clipRule="evenodd" d="M7.13661 0H13.7818C15.6315 0 17.1365 1.505 17.1365 3.35531V16.6448C17.1365 18.4948 15.6315 20 13.7818 20H4.21884C2.36853 20 0.863525 18.4948 0.863525 16.6448V6.27312V5.75844L1.22735 5.39461L6.2581 0.363828L6.62192 0H7.13661ZM13.7818 18.7577C14.9486 18.7577 15.8944 17.8118 15.8944 16.6447V3.35531C15.8944 2.1882 14.9486 1.24234 13.7818 1.24234H7.13661V4.51254C7.13661 5.48488 6.34813 6.27309 5.37606 6.27309H2.10587V16.6447C2.10587 17.8118 3.05173 18.7577 4.21884 18.7577H13.7818ZM5.50975 10.2563C5.50975 10.0018 5.6742 9.84253 5.89701 9.84253C6.1253 9.84253 6.28947 10.0018 6.28951 10.2563V12.1876C6.28951 13.0737 5.8174 13.5407 4.98963 13.5407C4.65549 13.5407 4.3053 13.4081 4.15666 13.2382C4.08795 13.1585 4.05084 13.0631 4.05084 12.9676C4.05084 12.7819 4.1992 12.6387 4.39561 12.6387C4.49104 12.6387 4.57588 12.6758 4.6926 12.7555C4.77744 12.8138 4.89963 12.8509 5.01635 12.8509C5.31338 12.8509 5.50975 12.6864 5.50975 12.2408V10.2563ZM8.84208 9.87451H7.7279C7.51571 9.87451 7.38837 10.0125 7.38837 10.2192V13.1003C7.38837 13.3498 7.55282 13.5143 7.78087 13.5143C8.00395 13.5143 8.16813 13.3498 8.16813 13.1003V12.225C8.16813 12.2037 8.17903 12.1931 8.20032 12.1931H8.84212C9.62735 12.1931 10.0997 11.7155 10.0997 11.0364C10.0997 10.3466 9.63278 9.87451 8.84208 9.87451ZM8.79434 11.5192H8.20028C8.17899 11.5192 8.16809 11.5085 8.16809 11.4875V10.5801C8.16809 10.5588 8.17899 10.5482 8.20028 10.5482H8.79434C9.12325 10.5482 9.31966 10.7446 9.31966 11.0364C9.31966 11.3282 9.12329 11.5192 8.79434 11.5192ZM12.3922 11.4769H13.1348C13.3312 11.4769 13.4427 11.5882 13.4428 11.7845V11.8216C13.4428 12.14 13.4163 12.4372 13.3525 12.6388C13.1668 13.217 12.6788 13.5407 12.0368 13.5407C11.3947 13.5407 10.8961 13.2489 10.7101 12.6652C10.6305 12.4105 10.6095 12.2089 10.6095 11.6784C10.6095 11.148 10.6305 10.9461 10.7101 10.6916C10.8962 10.108 11.3947 9.81616 12.0368 9.81616C12.6204 9.81616 13.0236 10.0548 13.2145 10.3785C13.257 10.4527 13.2835 10.5272 13.2835 10.612C13.2835 10.819 13.1245 10.9622 12.9281 10.9622C12.7956 10.9622 12.6892 10.9196 12.5834 10.771C12.4454 10.5801 12.2702 10.5059 12.0368 10.5059C11.7291 10.5059 11.5379 10.6598 11.4586 10.9091C11.416 11.0419 11.4002 11.2115 11.4002 11.6784C11.4002 12.1454 11.416 12.3205 11.4586 12.453C11.5379 12.6971 11.7343 12.851 12.0472 12.851C12.3232 12.851 12.5512 12.7078 12.6256 12.4795C12.6575 12.384 12.6679 12.2621 12.6679 12.1241C12.6679 12.1028 12.6575 12.0922 12.6363 12.0922H12.3922C12.1906 12.0922 12.0632 11.9703 12.0632 11.7846C12.0632 11.5988 12.1906 11.4769 12.3922 11.4769Z" fill="#002B7F"/>
</svg>