<svg width="68" height="67" viewBox="0 0 68 67" fill="none" xmlns="http://www.w3.org/2000/svg">
<path d="M34.0001 0.166626C15.6001 0.166626 0.666748 15.1 0.666748 33.5C0.666748 51.9 15.6001 66.8333 34.0001 66.8333C52.4001 66.8333 67.3334 51.9 67.3334 33.5C67.3334 15.1 52.4001 0.166626 34.0001 0.166626ZM34.0001 60.1666C19.3001 60.1666 7.33342 48.2 7.33342 33.5C7.33342 18.8 19.3001 6.83329 34.0001 6.83329C48.7001 6.83329 60.6668 18.8 60.6668 33.5C60.6668 48.2 48.7001 60.1666 34.0001 60.1666ZM46.9334 21.1333L27.3334 40.7333L21.0667 34.4666C19.7667 33.1666 17.6667 33.1666 16.3667 34.4666C15.0667 35.7666 15.0667 37.8666 16.3667 39.1666L25.0001 47.8C26.3001 49.1 28.4001 49.1 29.7001 47.8L51.6667 25.8333C52.9667 24.5333 52.9667 22.4333 51.6667 21.1333C50.3667 19.8333 48.2334 19.8333 46.9334 21.1333Z" fill="#307DC1"/>
</svg>
