<svg width="80" height="80" viewBox="0 0 80 80" fill="none" xmlns="http://www.w3.org/2000/svg">
<g clip-path="url(#clip0_82_17103)">
<path d="M61.5635 78.4375H4.68848C2.96254 78.4375 1.56348 77.0384 1.56348 75.3125V4.6875C1.56348 2.96156 2.96254 1.5625 4.68848 1.5625H61.5635C63.2894 1.5625 64.6885 2.96156 64.6885 4.6875V75.3125C64.6885 77.0384 63.2894 78.4375 61.5635 78.4375Z" fill="white"/>
<path d="M33.1265 35.625C40.2026 35.625 45.939 29.8886 45.939 22.8125C45.939 15.7364 40.2026 10 33.1265 10C26.0503 10 20.314 15.7364 20.314 22.8125C20.314 29.8886 26.0503 35.625 33.1265 35.625Z" fill="#FE6663"/>
<path d="M37.1885 21.1719V22.1875C37.1885 24.4311 35.3696 26.25 33.126 26.25C30.8824 26.25 29.0635 24.4311 29.0635 22.1875V21.1719C29.0635 18.9283 30.8824 17.1094 33.126 17.1094C35.3696 17.1094 37.1885 18.9283 37.1885 21.1719Z" fill="#FFCDAC"/>
<path d="M33.1261 26.25C29.1605 26.25 25.7723 28.7136 24.4023 32.1927C26.6898 34.3211 29.755 35.625 33.1261 35.625C36.4972 35.625 39.5623 34.3211 41.8498 32.1927C40.4798 28.7136 37.0917 26.25 33.1261 26.25Z" fill="#A5DDFF"/>
<path d="M68.2147 25.0922L69.1075 23.5458C70.4883 21.1544 73.5461 20.335 75.9376 21.7156C78.329 23.0964 79.1484 26.1542 77.7678 28.5458L58.1051 62.6025L49.4448 57.6025L57.9264 42.9119L68.2147 25.0922Z" fill="#FFBC53"/>
<path d="M75.9377 21.7156C73.5463 20.3348 70.4883 21.1542 69.1075 23.5458L66.7861 27.5666L75.4464 32.5666L77.7678 28.5458C79.1485 26.1544 78.3291 23.0964 75.9377 21.7156Z" fill="#FE6663"/>
<path d="M58.1049 62.6025L48.0605 70L49.4446 57.6025L58.1049 62.6025Z" fill="#9AD8FF"/>
<path d="M64.6885 62.2388C63.8257 62.2388 63.126 62.9383 63.126 63.8013V75.3125C63.126 76.1741 62.425 76.875 61.5635 76.875H4.68848C3.82691 76.875 3.12598 76.1741 3.12598 75.3125V4.6875C3.12598 3.82594 3.82691 3.125 4.68848 3.125H61.5635C62.425 3.125 63.126 3.82594 63.126 4.6875V21.6797C63.126 22.5427 63.8257 23.2422 64.6885 23.2422C65.5513 23.2422 66.251 22.5427 66.251 21.6797V4.6875C66.251 2.10281 64.1482 0 61.5635 0H4.68848C2.10379 0 0.000976562 2.10281 0.000976562 4.6875V75.3125C0.000976562 77.8972 2.10379 80 4.68848 80H61.5635C64.1482 80 66.251 77.8972 66.251 75.3125V63.8013C66.251 62.9383 65.5513 62.2388 64.6885 62.2388Z" fill="#3D3D3D"/>
<path d="M47.501 22.8125C47.501 14.8861 41.0524 8.4375 33.126 8.4375C25.1996 8.4375 18.751 14.8861 18.751 22.8125C18.751 26.9245 20.4869 30.6383 23.2638 33.2608C23.3158 33.3164 23.3711 33.3691 23.4316 33.417C25.9896 35.7575 29.3938 37.1873 33.1258 37.1873C36.8579 37.1873 40.2621 35.7573 42.82 33.417C42.8805 33.3691 42.9358 33.3162 42.9878 33.2608C45.765 30.6383 47.501 26.9245 47.501 22.8125ZM33.126 11.5625C39.3293 11.5625 44.376 16.6092 44.376 22.8125C44.376 25.3073 43.5586 27.6141 42.1791 29.4817C41.0268 27.7727 39.4297 26.4434 37.5755 25.6228C38.3114 24.6717 38.751 23.4803 38.751 22.1875V21.1719C38.751 18.0702 36.2277 15.5469 33.126 15.5469C30.0243 15.5469 27.501 18.0702 27.501 21.1719V22.1875C27.501 23.4803 27.9405 24.6717 28.6764 25.6228C26.8222 26.4434 25.2252 27.7727 24.0729 29.4817C22.6933 27.6141 21.876 25.3073 21.876 22.8125C21.876 16.6092 26.9227 11.5625 33.126 11.5625ZM30.626 22.1875V21.1719C30.626 19.7934 31.7475 18.6719 33.126 18.6719C34.5044 18.6719 35.626 19.7934 35.626 21.1719V22.1875C35.626 23.5659 34.5044 24.6875 33.126 24.6875C31.7475 24.6875 30.626 23.5659 30.626 22.1875ZM26.3305 31.7706C27.7038 29.3355 30.2664 27.8125 33.126 27.8125C35.9855 27.8125 38.5482 29.3355 39.9214 31.7706C38.0319 33.2075 35.6774 34.0625 33.126 34.0625C30.5746 34.0625 28.2199 33.2075 26.3305 31.7706Z" fill="#3D3D3D"/>
<path d="M41.5635 68.4375H33.126C32.2632 68.4375 31.5635 69.137 31.5635 70C31.5635 70.863 32.2632 71.5625 33.126 71.5625H41.5635C42.4263 71.5625 43.126 70.863 43.126 70C43.126 69.137 42.4263 68.4375 41.5635 68.4375Z" fill="#3D3D3D"/>
<path d="M41.5635 59.6875H19.376C18.5132 59.6875 17.8135 60.387 17.8135 61.25C17.8135 62.113 18.5132 62.8125 19.376 62.8125H41.5635C42.4263 62.8125 43.126 62.113 43.126 61.25C43.126 60.387 42.4263 59.6875 41.5635 59.6875Z" fill="#3D3D3D"/>
<path d="M41.5635 50.9375H19.376C18.5132 50.9375 17.8135 51.637 17.8135 52.5C17.8135 53.363 18.5132 54.0625 19.376 54.0625H41.5635C42.4263 54.0625 43.126 53.363 43.126 52.5C43.126 51.637 42.4263 50.9375 41.5635 50.9375Z" fill="#3D3D3D"/>
<path d="M13.8073 42.6453C13.5168 42.3547 13.1137 42.1875 12.7012 42.1875C12.2901 42.1875 11.887 42.3547 11.5965 42.6453C11.3059 42.9359 11.1387 43.3391 11.1387 43.75C11.1387 44.1609 11.3057 44.5641 11.5965 44.8547C11.8887 45.1453 12.2901 45.3125 12.7012 45.3125C13.1137 45.3125 13.5152 45.1453 13.8073 44.8547C14.0979 44.5641 14.2652 44.1609 14.2652 43.75C14.2652 43.3391 14.098 42.9359 13.8073 42.6453Z" fill="#3D3D3D"/>
<path d="M13.8073 51.3953C13.5152 51.1047 13.1137 50.9375 12.7012 50.9375C12.2901 50.9375 11.8887 51.1047 11.5965 51.3953C11.3059 51.6859 11.1387 52.0891 11.1387 52.5C11.1387 52.9109 11.3057 53.3141 11.5965 53.6047C11.8887 53.8953 12.2901 54.0625 12.7012 54.0625C13.1137 54.0625 13.5152 53.8953 13.8073 53.6047C14.0979 53.3141 14.2652 52.9109 14.2652 52.5C14.2652 52.0891 14.098 51.6859 13.8073 51.3953Z" fill="#3D3D3D"/>
<path d="M12.7012 59.6875C12.2901 59.6875 11.8887 59.8547 11.5965 60.1453C11.3059 60.4359 11.1387 60.8391 11.1387 61.25C11.1387 61.6609 11.3057 62.0641 11.5965 62.3547C11.887 62.6453 12.2901 62.8125 12.7012 62.8125C13.1137 62.8125 13.5168 62.6453 13.8073 62.3547C14.0979 62.0641 14.2652 61.6609 14.2652 61.25C14.2652 60.8391 14.098 60.4359 13.8073 60.1453C13.5152 59.8547 13.1137 59.6875 12.7012 59.6875Z" fill="#3D3D3D"/>
<path d="M41.5635 42.1875H19.376C18.5132 42.1875 17.8135 42.887 17.8135 43.75C17.8135 44.613 18.5132 45.3125 19.376 45.3125H41.5635C42.4263 45.3125 43.126 44.613 43.126 43.75C43.126 42.887 42.4263 42.1875 41.5635 42.1875Z" fill="#3D3D3D"/>
<path d="M76.7193 20.3625C75.2013 19.4861 73.4329 19.2533 71.7394 19.7069C70.0463 20.1607 68.631 21.2466 67.7547 22.7646L48.0919 56.8213C47.9843 57.008 47.9162 57.215 47.8922 57.4292L46.5082 69.8267C46.4394 70.4436 46.7422 71.0428 47.2797 71.3533C47.5224 71.4933 47.7919 71.5627 48.0608 71.5627C48.3877 71.5627 48.7133 71.4603 48.9876 71.2583L59.0319 63.8608C59.2055 63.733 59.3508 63.5707 59.4585 63.3839L79.1212 29.3272C80.9305 26.1935 79.853 22.1719 76.7193 20.3625ZM50.7329 60.1503L55.2551 62.7613L50.0101 66.6241L50.7329 60.1503ZM57.5335 60.4682L51.5796 57.0307L67.3585 29.701L73.3124 33.1385L57.5335 60.4682ZM76.4149 27.7646L74.8747 30.4322L68.9208 26.9947L70.461 24.3271C70.9201 23.5319 71.6613 22.9632 72.5482 22.7255C73.4354 22.4877 74.3616 22.6099 75.1566 23.0689C75.9518 23.528 76.5205 24.2692 76.7582 25.1561C76.9958 26.043 76.874 26.9694 76.4149 27.7646Z" fill="#3D3D3D"/>
</g>
<defs>
<clipPath id="clip0_82_17103">
<rect width="80" height="80" fill="white"/>
</clipPath>
</defs>
</svg>
