<svg width="20" height="20" viewBox="0 0 20 20" fill="none" xmlns="http://www.w3.org/2000/svg">
<g clip-path="url(#clip0_1209_57308)">
<path d="M19.2666 16.4345L19.2355 16.3878C18.543 15.5786 17.6871 14.9951 16.8546 14.4193C16.5201 14.1859 15.9132 13.8124 15.493 13.509C16.4812 12.1163 17.0025 10.4513 17.0025 8.74734C16.9947 4.19574 13.3067 0.5 8.74734 0.5C4.18796 0.5 0.5 4.19574 0.5 8.74734C0.5 13.2989 4.19574 16.9947 8.74734 16.9947C10.4513 16.9947 12.1085 16.4734 13.5012 15.4853C13.8047 15.9132 14.1781 16.5045 14.4115 16.8468C14.9795 17.6716 15.5708 18.5274 16.38 19.2277L16.4267 19.2588C16.6835 19.4144 16.9791 19.5 17.2826 19.4922C17.7338 19.4922 18.1773 19.321 18.5119 19.0176L19.0098 18.5197L19.0254 18.5041C19.5545 17.9206 19.6556 17.0491 19.2666 16.4189V16.4345ZM8.75512 14.8473C5.38616 14.8473 2.6552 12.1163 2.6552 8.74734C2.6552 5.37838 5.38616 2.64742 8.75512 2.64742C12.1241 2.64742 14.855 5.37838 14.855 8.74734C14.855 10.3657 14.2093 11.914 13.0655 13.0577C11.9218 14.2015 10.3735 14.8473 8.75512 14.8473Z" fill="#307DC1"/>
<path d="M8.74786 9.50989C10.0842 9.50989 11.1676 8.42653 11.1676 7.09015C11.1676 5.75376 10.0842 4.67041 8.74786 4.67041C7.41148 4.67041 6.32812 5.75376 6.32812 7.09015C6.32812 8.42653 7.41148 9.50989 8.74786 9.50989Z" fill="#307DC1"/>
<path d="M12.7386 11.5093C12.6997 11.167 12.5518 10.8558 12.3106 10.6146C12.0694 10.3734 11.7504 10.2177 11.4081 10.1788C10.9101 10.1244 9.66526 10.0933 8.88721 10.0933C8.10916 10.0933 6.59196 10.1244 6.08623 10.1788C5.74389 10.2177 5.42489 10.3734 5.18369 10.6146C4.9425 10.8558 4.78689 11.1748 4.75576 11.5093C4.7402 11.6338 4.7402 11.7349 4.73242 11.8205C4.87247 11.9995 5.0203 12.1707 5.17591 12.3263C7.15216 14.3025 10.3499 14.3025 12.3262 12.3263C12.4818 12.1707 12.6296 11.9995 12.7619 11.8283C12.7619 11.7427 12.7463 11.6416 12.7386 11.5171V11.5093Z" fill="#307DC1"/>
</g>
<defs>
<clipPath id="clip0_1209_57308">
<rect width="19" height="19" fill="white" transform="translate(0.5 0.5)"/>
</clipPath>
</defs>
</svg>
