<svg width="80" height="81" viewBox="0 0 80 81" fill="none" xmlns="http://www.w3.org/2000/svg">
<path d="M32.5003 52.1666H47.5003C48.867 52.1666 50.0003 51.0333 50.0003 49.6666C50.0003 48.3 48.867 47.1666 47.5003 47.1666H32.5003C31.1337 47.1666 30.0003 48.3 30.0003 49.6666C30.0003 51.0333 31.1337 52.1666 32.5003 52.1666Z" fill="#307DC1"/>
<path d="M51.667 37.1666C54.4284 37.1666 56.667 34.9281 56.667 32.1666C56.667 29.4052 54.4284 27.1666 51.667 27.1666C48.9056 27.1666 46.667 29.4052 46.667 32.1666C46.667 34.9281 48.9056 37.1666 51.667 37.1666Z" fill="#307DC1"/>
<path d="M28.3337 37.1666C31.0951 37.1666 33.3337 34.9281 33.3337 32.1666C33.3337 29.4052 31.0951 27.1666 28.3337 27.1666C25.5722 27.1666 23.3337 29.4052 23.3337 32.1666C23.3337 34.9281 25.5722 37.1666 28.3337 37.1666Z" fill="#307DC1"/>
<path d="M39.967 7.16663C21.567 7.16663 6.66699 22.1 6.66699 40.5C6.66699 58.9 21.567 73.8333 39.967 73.8333C58.4003 73.8333 73.3337 58.9 73.3337 40.5C73.3337 22.1 58.4003 7.16663 39.967 7.16663ZM40.0003 67.1666C25.267 67.1666 13.3337 55.2333 13.3337 40.5C13.3337 25.7666 25.267 13.8333 40.0003 13.8333C54.7337 13.8333 66.667 25.7666 66.667 40.5C66.667 55.2333 54.7337 67.1666 40.0003 67.1666Z" fill="#307DC1"/>
</svg>
