<svg width="38" height="33" viewBox="0 0 38 33" fill="none" xmlns="http://www.w3.org/2000/svg">
<path d="M20.6934 25.6775L20.519 25.4315L15.4846 26.5387L16.6938 28.2721C17.4379 29.3346 18.9377 29.6254 20.0423 28.9096C21.1468 28.1939 21.4491 26.7512 20.705 25.6887L20.6934 25.6775ZM32.7503 22.848C33.2735 23.5973 33.0642 24.6039 32.2852 25.1071C31.5062 25.6104 30.4598 25.4091 29.9366 24.6598L29.1576 23.5414L23.9023 24.6933C24.7162 26.3933 24.5767 28.3616 23.5419 29.9385C22.5071 31.5154 20.705 32.4772 18.7633 32.4996C16.8217 32.522 15.0079 31.5937 13.9266 30.0392L12.0082 27.288L7.12498 28.3504C7.49704 29.0774 7.25288 29.9609 6.55528 30.4082C5.77629 30.9115 4.72988 30.7102 4.20668 29.9609L0.276851 24.3243C-0.199844 23.6197 -0.0254434 22.6803 0.660533 22.1658C1.34651 21.6514 2.33478 21.7297 2.93937 22.3448L15.9264 4.5626L15.1474 3.44423C14.7637 2.89622 14.7637 2.18046 15.1474 1.63246C15.5311 1.08446 16.2171 0.804862 16.8798 0.939067C17.3216 1.01735 17.7053 1.27458 17.9611 1.63246L32.7619 22.848H32.7503ZM36.0755 11.6084L31.0295 12.6485C30.1924 12.8609 29.6808 13.6662 29.8668 14.4826C30.0529 15.2878 30.8667 15.8246 31.7155 15.6904L36.7615 14.628C36.9591 14.5832 37.1451 14.505 37.3195 14.3931C37.9358 13.9681 38.1567 13.1853 37.866 12.5142C37.5637 11.8432 36.8196 11.463 36.0755 11.6084ZM29.7157 0.82723C29.3669 0.570004 28.9134 0.458166 28.4832 0.514085C28.0414 0.581187 27.6578 0.816046 27.402 1.16274L24.472 5.25599C23.9953 5.92702 24.1349 6.84409 24.7976 7.34735C25.344 7.76115 26.1114 7.7947 26.7044 7.42564C26.8788 7.3138 27.0299 7.1796 27.1462 7.01184L30.0645 2.91859C30.5412 2.24757 30.4017 1.3305 29.7389 0.82723H29.7157ZM28.2623 8.47691L32.4596 5.78163C33.1921 5.42375 34.0989 5.64743 34.5524 6.30727C35.0175 6.96711 34.8896 7.85062 34.2617 8.36508L30.0761 11.0604C29.332 11.5413 28.3205 11.3511 27.8089 10.6354C27.309 9.91962 27.5066 8.94663 28.2507 8.45455L28.2623 8.47691Z" fill="#307DC1"/>
</svg>
