<svg width="78" height="80" viewBox="0 0 78 80" fill="none" xmlns="http://www.w3.org/2000/svg">
<g clip-path="url(#clip0_193_16458)">
<path fill-rule="evenodd" clip-rule="evenodd" d="M64.3815 61.4394H66.0061C68.7947 61.4394 71.078 59.1929 71.078 56.4492C71.078 53.7056 68.7947 51.459 66.0061 51.459H67.6308C70.4193 51.459 72.7027 49.2125 72.7027 46.4689C72.7027 43.7252 70.4193 41.4787 67.6308 41.4787H69.2554C72.0439 41.4787 74.3273 39.2321 74.3273 36.4885C74.3273 33.7449 72.0439 31.4983 69.2554 31.4983H50.9561C51.243 25.7844 54.561 20.7664 51.9462 13.3268C49.5659 6.55128 41.4387 5.47372 40.6991 12.285C39.5877 22.4881 40.594 35.0451 25.7622 35.0451H8.2793V66.863H20.8116C23.8224 66.863 26.4048 67.4197 29.1408 68.6603C33.2428 70.5212 37.7328 71.4397 42.6066 71.4238H64.3855C67.1741 71.4238 69.4575 69.1772 69.4575 66.4336C69.4575 63.69 67.1741 61.4434 64.3855 61.4434L64.3815 61.4394Z" fill="#F1D0A5"/>
<path fill-rule="evenodd" clip-rule="evenodd" d="M71.0731 56.5867C70.5914 54.2737 68.5433 52.5186 66.1067 52.5145H59.2745C58.1573 52.5145 57.2507 53.4267 57.2507 54.5506C57.2507 55.6745 58.1573 56.5867 59.2745 56.5867H71.0731ZM72.7002 46.3656C72.2185 44.0485 70.1664 42.2934 67.7257 42.2934H60.3066C59.1895 42.2934 58.2828 43.2056 58.2828 44.3295C58.2828 45.4534 59.1895 46.3656 60.3066 46.3656H72.7002ZM74.3273 36.1444C73.8456 33.8314 71.7976 32.0763 69.361 32.0723H51.0255C51.3129 26.2205 54.6359 21.0815 52.0172 13.4624C49.9691 7.50893 43.6873 5.85156 41.4774 9.90744C53.4662 10.7707 47.7227 27.092 47.3827 34.0106C47.3301 35.1549 48.257 36.1403 49.3984 36.1403H74.3273V36.1444ZM39.2593 25.2147C37.871 31.1275 34.6572 35.7087 25.789 35.7087H8.2793V41.3853H24.1619C35.827 41.3853 38.3243 33.5912 39.2593 25.2147ZM69.4459 66.816C68.9643 64.4989 66.9122 62.7438 64.4715 62.7438H59.6185C58.5014 62.7438 57.5947 63.656 57.5947 64.7799C57.5947 65.9038 58.5014 66.816 59.6185 66.816H69.4459Z" fill="#E8C290"/>
<path d="M3.67188 31.488H17.4959V71.424H3.67188V31.488Z" fill="#57A4FF"/>
<path d="M3.67188 67.584H17.4959V71.424H3.67188V67.584Z" fill="#268BFF"/>
<path d="M3.67188 31.488H17.4959V40.704H3.67188V31.488Z" fill="#268BFF"/>
<path fill-rule="evenodd" clip-rule="evenodd" d="M4.73442 33.1114H14.8482V69.5306H4.73442V33.1114ZM25.6442 36.9523C40.8975 36.9523 41.865 25.0355 42.6382 15.4619C42.7457 14.1282 42.8491 12.8725 42.9814 11.6291C43.1138 10.4022 43.6017 8.90434 45.1729 8.72789C46.9302 8.53092 49.3863 10.0123 50.482 13.1557C52.0822 17.7476 51.2552 21.3013 50.3786 25.0642C49.9279 27.0052 49.4607 29.0119 49.3573 31.1375C49.3284 31.6997 49.5351 32.2455 49.9238 32.6518C50.3125 33.058 50.8541 33.2878 51.4206 33.2878H70.143C71.8672 33.2878 73.2648 34.6789 73.2648 36.3901C73.2648 38.1013 71.8672 39.4883 70.143 39.4883H62.5639C61.4227 39.4883 60.4965 40.4075 60.4965 41.5401C60.4965 42.6727 61.4227 43.5919 62.5639 43.5919H68.4808C70.205 43.5919 71.6067 44.983 71.6067 46.6901C71.6067 48.3972 70.205 49.7883 68.4808 49.7883H61.5137C60.3683 49.7883 59.4463 50.7075 59.4463 51.8401C59.4463 52.9727 60.3683 53.8919 61.5137 53.8919H66.8228C68.5429 53.8919 69.9445 55.283 69.9445 56.9942C69.9445 58.7054 68.5429 60.0924 66.8228 60.0924H61.861C60.7198 60.0924 59.7936 61.0116 59.7936 62.1442C59.7936 63.2768 60.7198 64.1919 61.861 64.1919H65.1606C66.8806 64.1919 68.2824 65.5789 68.2824 67.2901C68.2824 69.0013 66.8806 70.3883 65.1606 70.3883H42.8657C38.2099 70.4293 33.8683 69.5101 29.965 67.7292C26.8763 66.3134 23.9778 65.6856 20.579 65.6856H18.983V36.9482H25.6442V36.9523ZM16.9156 73.6342C18.0568 73.6342 18.983 72.715 18.983 71.5824V69.7933H20.579C23.3535 69.7933 25.7145 70.3062 28.2326 71.4593C32.6444 73.4742 37.5193 74.496 42.7168 74.496H65.1606C69.1631 74.496 72.4172 71.2664 72.4172 67.2942C72.4172 65.6528 71.8548 64.1426 70.9204 62.9321C72.8265 61.6312 74.0794 59.4564 74.0794 56.9942C74.0794 55.3528 73.517 53.8427 72.5826 52.628C74.4887 51.3272 75.7416 49.1523 75.7416 46.6901C75.7416 45.0487 75.1792 43.5386 74.2448 42.328C76.1468 41.0272 77.3996 38.8523 77.3996 36.3901C77.3996 32.4179 74.1455 29.1842 70.143 29.1842H53.7319C53.9097 28.1378 54.1537 27.0832 54.4101 25.9875C55.3321 22.0194 56.3782 17.5219 54.3894 11.8138C52.5742 6.59813 48.1417 4.2632 44.7057 4.64893C41.5053 5.01005 39.2684 7.51733 38.8714 11.1941C38.7308 12.4868 38.6233 13.8327 38.5158 15.1336C37.6269 26.1558 36.312 32.8487 25.6442 32.8487H18.983V31.0596C18.983 29.927 18.0568 29.0078 16.9156 29.0078H2.66702C1.52581 29.0078 0.599609 29.927 0.599609 31.0596V71.5824C0.599609 72.715 1.52581 73.6342 2.66702 73.6342H16.9156Z" fill="#3D3D3D"/>
</g>
<defs>
<clipPath id="clip0_193_16458">
<rect width="76.8" height="80" fill="white" transform="translate(0.599609)"/>
</clipPath>
</defs>
</svg>
