<svg width="80" height="81" viewBox="0 0 80 81" fill="none" xmlns="http://www.w3.org/2000/svg">
<path d="M43.1637 9.67292L24.697 28.1396C23.4637 29.3729 22.7637 31.0729 22.7637 32.8396L22.7637 66.1396C22.7637 69.8063 25.7637 72.8063 29.4303 72.8063H59.4303C62.097 72.8063 64.497 71.2063 65.5637 68.7729L76.4304 43.4063C79.2303 36.8063 74.397 29.4729 67.2303 29.4729H48.397L51.5637 14.2063C51.897 12.5396 51.397 10.8396 50.197 9.63959C48.2303 7.70625 45.097 7.70625 43.1637 9.67292ZM9.43034 72.8063C13.097 72.8063 16.097 69.8063 16.097 66.1396L16.097 39.4729C16.097 35.8063 13.097 32.8063 9.43034 32.8063C5.76367 32.8063 2.76367 35.8063 2.76367 39.4729L2.76367 66.1396C2.76367 69.8063 5.76367 72.8063 9.43034 72.8063Z" fill="#307DC1"/>
</svg>
