<svg width="18" height="18" viewBox="0 0 18 18" fill="none" xmlns="http://www.w3.org/2000/svg">
<g clip-path="url(#clip0_1209_57294)">
<path d="M9 0.5C4.30955 0.5 0.5 4.30955 0.5 9C0.5 13.6905 4.30955 17.5 9 17.5C13.6905 17.5 17.5 13.6905 17.5 9C17.5 4.30955 13.6905 0.5 9 0.5ZM13.0414 13.3968C12.9023 13.5359 12.7245 13.6055 12.5391 13.6055C12.3536 13.6055 12.1759 13.5359 12.0368 13.3968L8.49773 9.85773C8.36636 9.72636 8.28909 9.54864 8.28909 9.35545V4.75C8.28909 4.35591 8.60591 4.03909 9 4.03909C9.39409 4.03909 9.71091 4.35591 9.71091 4.75V9.06182L13.0414 12.3923C13.3195 12.6705 13.3195 13.1186 13.0414 13.3968Z" fill="#307DC1"/>
</g>
<defs>
<clipPath id="clip0_1209_57294">
<rect width="17" height="17" fill="white" transform="translate(0.5 0.5)"/>
</clipPath>
</defs>
</svg>
