<svg width="80" height="80" viewBox="0 0 80 80" fill="none" xmlns="http://www.w3.org/2000/svg">
<path d="M14.9 68.3458H65.1C70.2333 68.3458 73.4333 62.7792 70.8667 58.3458L45.7667 14.9792C43.2 10.5458 36.8 10.5458 34.2333 14.9792L9.13333 58.3458C6.56666 62.7792 9.76666 68.3458 14.9 68.3458ZM40 45.0125C38.1667 45.0125 36.6667 43.5125 36.6667 41.6792V35.0125C36.6667 33.1792 38.1667 31.6792 40 31.6792C41.8333 31.6792 43.3333 33.1792 43.3333 35.0125V41.6792C43.3333 43.5125 41.8333 45.0125 40 45.0125ZM43.3333 58.3458H36.6667V51.6792H43.3333V58.3458Z" fill="#EB4E4D"/>
</svg>
