<svg xmlns="http://www.w3.org/2000/svg" viewBox="0 0 22 22" fill="none">
<path d="M16.4987 11.0046C16.4987 11.5088 16.9112 11.9213 17.4154 11.9213H19.2487C19.7529 11.9213 20.1654 11.5088 20.1654 11.0046C20.1654 10.5005 19.7529 10.088 19.2487 10.088H17.4154C16.9112 10.088 16.4987 10.5005 16.4987 11.0046Z" fill="currentColor"/>
<path d="M15.2062 15.423C14.9037 15.8263 14.9862 16.3855 15.3895 16.6788C15.8754 17.0363 16.3887 17.4213 16.8745 17.788C17.2779 18.0905 17.8462 18.008 18.1395 17.6046C18.1395 17.5955 18.1487 17.5955 18.1487 17.5863C18.4512 17.183 18.3687 16.6146 17.9654 16.3213C17.4795 15.9546 16.9662 15.5696 16.4895 15.2121C16.0862 14.9096 15.5179 15.0013 15.2154 15.4046C15.2154 15.4138 15.2062 15.423 15.2062 15.423Z" fill="currentColor"/>
<path d="M18.1579 4.41381C18.1579 4.40464 18.1487 4.40464 18.1487 4.39547C17.8462 3.99214 17.2779 3.90964 16.8837 4.21214C16.3979 4.57881 15.8754 4.96381 15.3987 5.33047C14.9954 5.63297 14.922 6.20131 15.2245 6.59547C15.2245 6.60464 15.2337 6.60464 15.2337 6.61381C15.5362 7.01714 16.0954 7.09964 16.4987 6.79714C16.9845 6.43964 17.4979 6.04547 17.9837 5.67881C18.3779 5.38547 18.4512 4.81714 18.1579 4.41381Z" fill="currentColor"/>
<path d="M7.33203 8.25464H3.66536C2.65703 8.25464 1.83203 9.07964 1.83203 10.088V11.9213C1.83203 12.9296 2.65703 13.7546 3.66536 13.7546H4.58203V16.5046C4.58203 17.0088 4.99453 17.4213 5.4987 17.4213C6.00286 17.4213 6.41536 17.0088 6.41536 16.5046V13.7546H7.33203L11.9154 16.5046V5.50464L7.33203 8.25464Z" fill="currentColor"/>
<path d="M14.207 11.0046C14.207 9.78547 13.6754 8.68547 12.832 7.93381V14.0663C13.6754 13.3238 14.207 12.2238 14.207 11.0046Z" fill="currentColor"/>
</svg>