<svg xmlns="http://www.w3.org/2000/svg" viewBox="0 0 15 15" fill="none">
  <path d="M6.3813 6.83496C6.41047 6.64246 6.47464 6.47329 6.5563 6.32746C6.63797 6.18163 6.75464 6.05913 6.90047 5.96579C7.04047 5.87829 7.21547 5.83746 7.4313 5.83163C7.56547 5.83746 7.68797 5.86079 7.7988 5.90746C7.91547 5.95996 8.02047 6.02996 8.10214 6.11746C8.1838 6.20496 8.24797 6.30996 8.30047 6.42663C8.35297 6.54329 8.3763 6.67163 8.38214 6.79996H9.4263C9.41464 6.52579 9.36214 6.27496 9.26297 6.04746C9.1638 5.81996 9.02963 5.62163 8.85463 5.45829C8.67964 5.29496 8.46964 5.16663 8.22464 5.07329C7.97964 4.97996 7.7113 4.93913 7.4138 4.93913C7.03464 4.93913 6.70214 5.00329 6.42213 5.13746C6.14214 5.27163 5.9088 5.44663 5.72214 5.67413C5.53547 5.90163 5.39547 6.16413 5.30797 6.46746C5.22047 6.77079 5.16797 7.08579 5.16797 7.42413V7.58163C5.16797 7.91996 5.21464 8.23496 5.30213 8.53829C5.38964 8.84163 5.52963 9.10413 5.7163 9.32579C5.90297 9.54746 6.1363 9.72829 6.4163 9.85663C6.6963 9.98496 7.0288 10.055 7.40797 10.055C7.68214 10.055 7.9388 10.0083 8.17797 9.92079C8.41714 9.83329 8.62714 9.71079 8.80797 9.55329C8.9888 9.39579 9.13463 9.21496 9.23963 9.00496C9.34464 8.79496 9.4088 8.57329 9.41464 8.33413H8.37047C8.36463 8.45663 8.33547 8.56746 8.28297 8.67246C8.23047 8.77746 8.16047 8.86496 8.07297 8.94079C7.98547 9.01663 7.8863 9.07496 7.76964 9.11579C7.6588 9.15663 7.54214 9.16829 7.41963 9.17413C7.20964 9.16829 7.03464 9.12746 6.90047 9.03996C6.75464 8.94663 6.63797 8.82413 6.5563 8.67829C6.47464 8.53246 6.41047 8.35746 6.3813 8.16496C6.35214 7.97246 6.33464 7.77413 6.33464 7.58163V7.42413C6.33464 7.21996 6.35214 7.02746 6.3813 6.83496ZM7.5013 1.66663C4.2813 1.66663 1.66797 4.27996 1.66797 7.49996C1.66797 10.72 4.2813 13.3333 7.5013 13.3333C10.7213 13.3333 13.3346 10.72 13.3346 7.49996C13.3346 4.27996 10.7213 1.66663 7.5013 1.66663ZM7.5013 12.1666C4.9288 12.1666 2.83464 10.0725 2.83464 7.49996C2.83464 4.92746 4.9288 2.83329 7.5013 2.83329C10.0738 2.83329 12.168 4.92746 12.168 7.49996C12.168 10.0725 10.0738 12.1666 7.5013 12.1666Z" fill="currentColor"/>
</svg>