<svg width="203" height="27" viewBox="0 0 203 27" fill="none" xmlns="http://www.w3.org/2000/svg">
  <path fillRule="evenodd" clipRule="evenodd" d="M140.59 24.98C143.7 18.9 145.29 10.83 145.93 3.82L141.81 3.15C141.22 9.9 139.58 16.83 136.52 22.58L140.59 24.98ZM152.9 24.42L157.24 23.07H157.25C156.26 16.19 154.22 9.12 151.52 2.92L147.79 4.78C150.22 11.04 151.82 17.68 152.9 24.42ZM156.04 6.58C155.51 4.61 155.01 3.08 154.09 1.27L154.1 1.26L152.43 2.21C153.34 4.18 153.73 5.45 154.26 7.58L156.04 6.58ZM158.83 5.29C158.26 3.32 157.8 1.78 156.86 0L155.17 0.95C156.09 2.87 156.55 4.22 157.05 6.32L158.83 5.29ZM22.88 21.22C24.89 18.95 25.8 15.88 26.03 12.67L29.71 13.13C29.44 17.2 28.41 21.44 25.95 24.46L22.88 21.22ZM42.14 10.6H35.15V25.09H31.03V10.61H23.83V6.18998H31.03V2.26998H35.15V6.17998H39.01C38.48 5.49998 38.21 4.66999 38.21 3.74999C38.21 1.74999 39.6 0.109985 41.29 0.109985C42.98 0.109985 44.38 1.74999 44.38 3.74999C44.38 5.41999 43.49 6.76999 42.14 7.25999V10.6ZM36.38 13.11L39.99 12.51C40.56 16.53 41.09 18.34 43.22 21.6L40 24.49C37.53 21.15 36.86 17.4 36.38 13.11ZM39.78 3.74999C39.78 4.74999 40.47 5.52998 41.29 5.52998C42.11 5.52998 42.8 4.74999 42.8 3.74999C42.8 2.74999 42.14 1.96999 41.29 1.96999C40.44 1.96999 39.78 2.77999 39.78 3.74999ZM20.37 21.68L16.99 25.57C15.05 22.95 13.01 20.42 10.81 18.1C8.3 21.15 5.6 23.72 2.24 25.36L0 21.42C5.39 18.77 9.64 14.21 11.79 7.73001H1.39V3.26001H17.09C16.52 7.29001 15.27 11.21 13.26 14.55C16.1 17.06 17.83 18.73 20.37 21.67V21.68ZM48.4224 25.32L48.43 25.33V25.32H48.4224ZM48.4215 25.3189L48.4224 25.32H48.42L48.4215 25.3189ZM48.4215 25.3189C52.9706 21.9389 55.5501 17.0793 56.39 10.93H60.6V12.09C60.6 13.65 60.44 17.46 60.19 18.94C59.97 20.26 59.62 20.45 58.32 20.45C57.38 20.45 56.44 20.29 55.53 20.13L55.76 24.85C56.86 25.04 57.93 25.12 59.03 25.12C59.81 25.12 60.66 25.06 61.41 24.79C62.39 24.44 63.21 23.36 63.6 22.23C64.47 19.67 64.58 13.63 64.58 10.74V6.48H56.83C56.92 5.03 56.99 3.6 57.03 2.14L52.89 2.12C52.89 3.58 52.85 5.04 52.78 6.5H46.77V10.95H52.35C52.03 12.98 51.6 14.65 50.64 16.43C49.38 18.75 47.71 20.4 45.68 21.72L48.4215 25.3189ZM75.11 9.09C75.11 14.62 74.71 21.45 71.12 25.52L68.08 21.85C70.84 18.23 71.09 14.16 71.09 9.52V3.18H75.11V9.09ZM81.36 18.99C84.17 17.34 85.13 14.02 85.61 10.57L89.43 12.51C88.84 15.45 87.88 18.31 86.17 20.63C84 23.6 80.59 24.84 77.37 24.95V2.5H81.36V18.98V18.99ZM103.79 5.37001V0.890015H99.49V5.40001C99.5 8.15001 98.79 11.98 97.74 14.41C96.16 18.08 93.49 20.51 90.38 22.21L92.9 26.55C96.99 23.74 100.17 19.86 101.63 14.46C103.3 19.94 106.02 23.66 110.3 26.54L112.81 22.06C110.07 20.39 107.53 18.29 105.88 15.05C104.53 12.41 103.79 8.12001 103.79 5.37001ZM113.64 9.22002V5.07002H116.98V0.78002H120.59V5.07002H122.95V9.22002H120.6V10.62C121.58 12.4 122.66 13.61 124.08 14.88L121.75 18.39C121.29 17.8 120.99 17.37 120.61 16.69V26.46H117V17.18C116.29 19.07 115.56 20.5 114.37 22.01L113.18 16.53C115.03 14.37 116.06 12.13 116.88 9.22002H113.64ZM123.7 9.24002V5.06002H129V0.77002H132.82V5.06002H135.27V9.24002H132.83V23.89C132.83 25.21 132.15 26.45 130.94 26.45H125.68L125.13 22.08H128.19C128.78 22.08 129.01 22 129.01 21.24V16.28C127.59 18.79 125.74 21.41 123.78 23.33L121.33 19.72C124.19 17.42 127.22 12.78 128.96 9.25002H123.7V9.24002ZM170.09 6.99002L167.97 11.31C165.61 9.45001 163.49 8.27002 160.81 7.16002L162.59 3.14001C165.38 4.14001 167.58 5.21002 170.09 6.99002ZM161.25 19.89C164.86 19.48 168.95 18.45 171.76 15.54C174.34 12.84 176.01 8.12002 176.83 4.26002L180.35 7.09002C179.21 11.62 177.38 16.27 174.32 19.42C170.94 22.9 166.5 24.26 162.18 24.99L161.24 19.89H161.25ZM185.94 25.51C190.23 24.53 194.19 22.59 197.18 18.7H197.17C200.57 14.27 201.8 8.76995 202.12 2.94995H188.7C187.45 6.21995 185.76 8.61995 183.13 10.46L185.69 13.94C188.09 12.18 189.76 10.11 191.29 7.31995H197.51C196.35 15.71 191.08 19.84 184.31 21.1399L185.94 25.51Z" fill="#FDFDFD"/>
</svg>