<svg width="88" height="80" viewBox="0 0 88 80" fill="none" xmlns="http://www.w3.org/2000/svg">
<path d="M71.9932 2.81801C71.9932 7.34469 75.6618 11.0133 80.1885 11.0133C75.6618 11.0133 71.9932 14.682 71.9932 19.2087C71.9932 14.682 68.3245 11.0133 63.7978 11.0133C68.3245 11.0133 71.9932 7.34469 71.9932 2.81801V1.22266V2.81638V2.81801Z" fill="#FEEF8F"/>
<path d="M69.0576 9.09961C67.6335 10.292 65.8 11.0114 63.7969 11.0114C68.3236 11.0114 71.9922 14.6801 71.9922 19.2068C71.9922 17.2036 72.7116 15.3701 73.904 13.946C73.0754 11.7063 71.2973 9.92665 69.0576 9.09961Z" fill="#FDE31D"/>
<path d="M71.9926 22.0266C71.3173 22.0266 70.7692 21.4785 70.7692 20.8032V19.2095C70.7692 15.3663 67.6421 12.2375 63.7973 12.2375H62.2019C61.5266 12.2375 60.9785 11.6894 60.9785 11.0141C60.9785 10.3388 61.5266 9.79069 62.2019 9.79069H63.7973C67.6405 9.79069 70.7692 6.66361 70.7692 2.82041V1.22343C70.7692 0.548096 71.3173 0 71.9926 0C72.668 0 73.2161 0.548096 73.2161 1.22343V2.81715C73.2161 6.66034 76.3431 9.78743 80.188 9.78743H81.7817C82.457 9.78743 83.0051 10.3355 83.0051 11.0109C83.0051 11.6862 82.457 12.2343 81.7817 12.2343H80.188C76.3448 12.2343 73.2161 15.3614 73.2161 19.2062V20.7999C73.2161 21.4752 72.668 22.0233 71.9926 22.0233V22.0266ZM68.4365 11.0141C69.9177 11.8558 71.1509 13.0874 71.9926 14.5702C72.8344 13.0891 74.0659 11.8558 75.5487 11.0141C74.0676 10.1724 72.8344 8.94081 71.9926 7.45802C71.1509 8.93918 69.9193 10.1724 68.4365 11.0141Z" fill="#3D3D3D"/>
<path d="M9.52763 14.5036C9.52763 18.0334 12.3891 20.8948 15.9188 20.8948C12.3891 20.8948 9.52763 23.7562 9.52763 27.286C9.52763 23.7562 6.66621 20.8948 3.13643 20.8948C6.66621 20.8948 9.52763 18.0334 9.52763 14.5036Z" fill="#FDE31D"/>
<path d="M9.52736 30.1758C8.80679 30.1758 8.22197 29.591 8.22197 28.8704V27.4449C8.22197 24.6409 5.94014 22.3591 3.13616 22.3591H1.71067C0.99009 22.3591 0.405273 21.7743 0.405273 21.0537C0.405273 20.3331 0.99009 19.7483 1.71067 19.7483H3.13616C5.94014 19.7483 8.22197 17.4665 8.22197 14.6625V13.237C8.22197 12.5165 8.80679 11.9316 9.52736 11.9316C10.2479 11.9316 10.8328 12.5165 10.8328 13.237V14.6625C10.8328 17.4665 13.1146 19.7483 15.9186 19.7483H17.3441C18.0646 19.7483 18.6495 20.3331 18.6495 21.0537C18.6495 21.7743 18.0646 22.3591 17.3441 22.3591H15.9186C13.1146 22.3591 10.8328 24.6409 10.8328 27.4449V28.8704C10.8328 29.591 10.2479 30.1758 9.52736 30.1758ZM7.42133 21.0537C8.25156 21.6124 8.96865 22.3295 9.52736 23.1598C10.0861 22.3295 10.8032 21.6124 11.6334 21.0537C10.8032 20.495 10.0861 19.7779 9.52736 18.9477C8.96865 19.7779 8.25156 20.495 7.42133 21.0537Z" fill="#3D3D3D"/>
<path d="M71.3822 30.3243C71.3822 29.6041 71.6728 28.951 72.1447 28.4791C72.6212 28.0042 73.2805 27.7104 74.0086 27.7151C75.4538 27.7261 76.599 28.9479 76.599 30.3915V46.9152C76.599 47.5246 77.3021 47.8636 77.7786 47.4855L81.9267 44.1811C82.4204 43.7874 83.0173 43.5905 83.6141 43.5905C84.1765 43.5905 84.7374 43.7639 85.214 44.1154C86.2889 44.9013 86.6295 46.3512 86.0217 47.5355L85.2155 49.1041C83.6906 52.0711 81.8986 54.8834 79.8659 57.5097C77.8317 60.1345 75.5553 62.5734 73.0665 64.7904V77.0926C73.0665 78.0019 72.329 78.7378 71.4213 78.7378H59.3284C58.4191 78.7378 57.6833 78.0004 57.6833 77.0926V63.1749L57.1755 61.8875C56.2224 59.4721 55.7334 56.8989 55.7334 54.3022V28.5416C55.7334 27.8214 56.024 27.1699 56.4974 26.6965C56.9692 26.2231 57.6223 25.9325 58.341 25.9325C59.3066 25.9325 60.1518 26.459 60.6018 27.2402H64.2703C65.3639 27.5495 66.167 28.5541 66.167 29.7478V27.1089C66.167 25.6684 67.3075 24.4498 68.748 24.4357C69.4792 24.4279 70.1417 24.7216 70.6182 25.1997C71.09 25.6715 71.3822 26.3231 71.3822 27.0433V30.3228V30.3243Z" fill="#FFCFBF"/>
<path d="M60.9867 62.4257L60.4789 61.1383C59.5259 58.7229 59.0369 56.1497 59.0369 53.553V27.7924C59.0369 27.2081 59.2306 26.6691 59.5571 26.2332C59.1931 26.041 58.7806 25.9316 58.34 25.9316C57.6213 25.9316 56.9683 26.2222 56.4964 26.6956C56.023 27.169 55.7324 27.8206 55.7324 28.5408V54.3014C55.7324 56.898 56.2214 59.4713 57.1745 61.8867L57.6823 63.1741V77.0918C57.6823 78.0011 58.4197 78.737 59.3275 78.737H60.9851V62.4242L60.9867 62.4257Z" fill="#FFB09E"/>
<path d="M63.1238 27.2418H60.6006C60.8209 27.6261 60.949 28.0683 60.949 28.5433V41.7001C62.3426 41.7001 63.4722 40.5705 63.4722 39.1768V28.5417C63.4722 28.0667 63.3457 27.6246 63.1238 27.2402V27.2418Z" fill="#FFB09E"/>
<path d="M68.7732 27.281C68.7732 26.2326 69.3935 25.3311 70.2841 24.9155C69.831 24.5921 69.2685 24.4109 68.6623 24.4359C67.2546 24.4937 66.1641 25.6998 66.1641 27.1091V41.6971C67.6046 41.6971 68.7732 40.53 68.7732 39.0879V27.2794V27.281Z" fill="#FFB09E"/>
<path d="M46.759 8.01041C46.759 7.16516 47.1027 6.39803 47.6558 5.84495C48.2104 5.29031 48.976 4.94814 49.8212 4.94814C51.5133 4.94814 52.885 6.31835 52.885 8.01197V27.4996C52.885 28.2136 53.7115 28.6135 54.2709 28.1667L59.1424 24.2857C59.7205 23.8248 60.422 23.5936 61.1235 23.5936C61.7828 23.5936 62.4437 23.7967 63.0046 24.2092C64.2654 25.1325 64.667 26.8371 63.9514 28.2276L63.0046 30.0697C61.2141 33.5522 59.1096 36.8567 56.7191 39.9408C54.3318 43.0249 51.6601 45.8872 48.7354 48.4933V56.8989H28.376V11.7851C28.376 10.9399 28.7197 10.1727 29.2728 9.61966C29.8274 9.06502 30.593 8.72286 31.4382 8.72286C33.1319 8.72286 34.5021 10.0931 34.5021 11.7867V7.33702C34.5021 5.64497 35.8738 4.2732 37.5675 4.2732C38.4127 4.2732 39.1783 4.61692 39.7329 5.17C40.2876 5.72308 40.6297 6.49021 40.6297 7.33546V4.15758C40.6297 2.46552 41.9999 1.09375 43.6936 1.09375C44.5388 1.09375 45.3044 1.43747 45.859 1.99056C46.4137 2.54364 46.7558 3.31077 46.7558 4.15602V8.00885L46.759 8.01041Z" fill="#F7DBC6"/>
<path d="M31.8015 56.1936V11.0815C31.8015 10.2612 32.1249 9.51752 32.6499 8.96912C32.2796 8.80976 31.8718 8.7207 31.4421 8.7207C30.5969 8.7207 29.8313 9.06443 29.2767 9.61751C28.722 10.1706 28.3799 10.9377 28.3799 11.783V56.8952H48.7393V56.1921H31.8015V56.1936Z" fill="#E8BC9C"/>
<path d="M60.8021 26.4322C61.402 25.9635 62.1317 25.7276 62.8613 25.7276C63.3222 25.7276 63.7831 25.8229 64.2128 26.0119C64.0393 25.3089 63.6284 24.6636 63.0066 24.2074C62.4457 23.7949 61.7848 23.5918 61.1255 23.5918C60.424 23.5918 59.7225 23.823 59.1444 24.2839L54.6963 27.8259C55.515 29.0133 57.1648 29.2679 58.3023 28.3805L60.8021 26.4306V26.4322Z" fill="#E8BC9C"/>
<path d="M48.5395 52.9453H33.4531V59.962L35.1921 62.7524H50.0753L51.7361 59.962V56.1419C51.7361 54.3765 50.305 52.9453 48.5395 52.9453Z" fill="#C8EFFE"/>
<path d="M51.7361 59.9629V76.7819C51.7361 77.8631 50.8596 78.7396 49.7784 78.7396H33.4531V59.9629H51.7361Z" fill="#99E6FC"/>
<path d="M33.4512 36.6857C33.4512 35.2905 34.5839 34.1593 35.9776 34.1593C36.6759 34.1593 37.3071 34.4421 37.7649 34.8983C38.2211 35.3561 38.5039 35.9873 38.5039 36.6857V56.7982C38.5039 59.3121 38.0305 61.8056 37.1087 64.1429L36.615 65.3913V76.2951H21.8052L21.7146 66.9584C19.3023 64.8101 17.0993 62.4478 15.1307 59.9042C13.1605 57.3606 11.4247 54.6374 9.94828 51.7642L9.16709 50.244C8.57808 49.0972 8.9093 47.6926 9.94828 46.9302C10.4123 46.5912 10.956 46.4224 11.4997 46.4224C12.0778 46.4224 12.6559 46.613 13.134 46.9942L17.1509 50.194C17.6133 50.5627 18.2945 50.2331 18.2945 49.644V33.5734C18.2945 32.1782 19.4257 31.047 20.8209 31.047C21.5193 31.047 22.1505 31.3283 22.6083 31.786C23.0645 32.2438 23.3473 32.8766 23.3473 33.5734V30.3971C23.3473 29.7003 23.6301 29.0675 24.0863 28.6097C24.5441 28.1519 25.1753 27.8691 25.8736 27.8691C27.2688 27.8691 28.4 29.0019 28.4 30.3971V33.0156C28.4 32.3188 28.6828 31.6876 29.139 31.2298C29.5968 30.772 30.228 30.4893 30.9264 30.4893C32.3216 30.4893 33.4527 31.622 33.4527 33.0156V36.6857H33.4512Z" fill="#FFE5C2"/>
<path d="M24.56 75.4665L24.4835 66.9969C24.4741 65.9657 24.0491 64.9814 23.3007 64.2736C21.3415 62.4191 19.5307 60.4192 17.8855 58.2928C15.9154 55.7493 14.1796 53.0261 12.7031 50.1528L11.9219 48.6326C11.561 47.9311 11.5469 47.1328 11.8266 46.4453C11.7188 46.4312 11.6094 46.4219 11.5001 46.4219C10.9548 46.4219 10.4111 46.5906 9.94863 46.9296C8.90809 47.6921 8.57842 49.0967 9.16744 50.2435L9.94863 51.7637C11.4251 54.6353 13.1609 57.3601 15.131 59.9037C17.0996 62.4472 19.3026 64.8095 21.7149 66.9578L21.8055 76.2946H36.6154V75.4665H24.5616H24.56Z" fill="#FED2A4"/>
<path d="M26.0205 33.5753V30.399C26.0205 29.7022 26.3033 29.0694 26.7595 28.6117C26.8939 28.4773 27.0439 28.3539 27.2063 28.2523C26.8189 28.0086 26.3627 27.8711 25.8721 27.8711C25.1737 27.8711 24.5425 28.1539 24.0847 28.6117C23.6285 29.0694 23.3457 29.7022 23.3457 30.399V45.3073C24.8237 45.3073 26.0205 44.1089 26.0205 42.6325V33.5753Z" fill="#FED2A4"/>
<path d="M31.673 31.2324C31.8277 31.0777 31.9995 30.9418 32.1901 30.8308C31.8167 30.6137 31.3871 30.4902 30.9246 30.4902C30.2262 30.4902 29.595 30.773 29.1372 31.2308C28.681 31.6886 28.3982 32.3198 28.3982 33.0166L28.3779 45.3063C29.7794 45.3063 30.9168 44.172 30.9184 42.7706L30.934 33.0182C30.934 32.3213 31.2168 31.6901 31.673 31.2324Z" fill="#FED2A4"/>
<path d="M35.9785 36.9958C35.9785 35.9552 36.6066 35.06 37.5034 34.6725C37.03 34.3132 36.43 34.1179 35.7785 34.1679C34.4536 34.271 33.4521 35.4194 33.4521 36.7489V46.6341C34.8474 46.6341 35.9785 45.503 35.9785 44.1078V36.9958Z" fill="#FED2A4"/>
<path d="M22.2515 31.4903C21.8234 31.195 21.3062 31.0309 20.7422 31.0481C19.3657 31.0887 18.2939 32.2699 18.2939 33.6479V48.978C19.8782 48.978 21.164 47.6937 21.164 46.1079V33.5729C21.164 32.7105 21.5921 31.9465 22.2515 31.4903Z" fill="#FED2A4"/>
<path d="M73.9904 30.3236C73.9904 29.6034 74.281 28.9503 74.7529 28.4785C74.9138 28.3175 75.0903 28.1863 75.2888 28.0707C74.9044 27.8488 74.4654 27.7129 73.9904 27.7129C73.2702 27.7129 72.6187 28.0051 72.1453 28.4769C71.6734 28.9487 71.3828 29.6018 71.3828 30.3221V42.4368C72.8233 42.4368 73.992 41.2697 73.992 39.8276V30.3221L73.9904 30.3236Z" fill="#FFB09E"/>
<path d="M85.5509 44.4038C85.4478 44.2992 85.3369 44.2023 85.2166 44.1148C84.7385 43.7633 84.1776 43.5898 83.6167 43.5898C83.0199 43.5898 82.423 43.7867 81.9293 44.1804L77.7812 47.4849C77.625 47.6083 77.4453 47.6552 77.2734 47.6411C78.2702 49.066 80.3107 49.2488 81.5466 48.0239L84.7151 44.8819C84.9541 44.6444 85.2447 44.4835 85.5525 44.4038H85.5509Z" fill="#FFB09E"/>
<path d="M36.6729 70.6309H21.6631C20.2944 70.6309 19.1836 71.7402 19.1836 73.1104V77.7725C19.1836 78.3068 19.6164 78.7396 20.1507 78.7396H38.1837C38.718 78.7396 39.1508 78.3068 39.1508 77.7725V73.1104C39.1508 71.7417 38.04 70.6309 36.6713 70.6309H36.6729Z" fill="#91DEB6"/>
<path d="M23.3817 78.2193V72.9947C23.3817 71.9948 23.8551 71.1199 24.5629 70.6309H21.6631C20.2944 70.6309 19.1836 71.7402 19.1836 73.1104V77.7725C19.1836 78.3068 19.6164 78.7396 20.1507 78.7396H23.5005C23.4239 78.5849 23.3817 78.4084 23.3817 78.2193Z" fill="#6ED5A1"/>
<path d="M49.8216 8.01109C49.8216 7.16585 50.1654 6.39872 50.7184 5.84563C50.9059 5.65659 51.1215 5.49254 51.3528 5.35817C50.9012 5.09725 50.3794 4.94727 49.8201 4.94727C48.9748 4.94727 48.2093 5.29099 47.6546 5.84407C47.1 6.39716 46.7578 7.16428 46.7578 8.00953V22.2366C48.4499 22.2366 49.8216 20.8648 49.8216 19.1727V8.01109Z" fill="#E8BC9C"/>
<path d="M43.6957 4.15685C43.6957 3.02412 44.3144 2.03513 45.2299 1.50548C44.6987 1.1977 44.0659 1.04302 43.3926 1.10864C41.813 1.26332 40.6318 2.63977 40.6318 4.22715V21.3712C42.3239 21.3712 43.6957 19.9994 43.6957 18.3073V4.15685Z" fill="#E8BC9C"/>
<path d="M37.9911 7.33471C37.9911 6.29104 38.5114 5.36611 39.3082 4.81303C38.7739 4.44274 38.1208 4.23963 37.4146 4.27557C35.7694 4.35681 34.5039 5.76764 34.5039 7.41439V21.3711C36.4303 21.3711 37.9911 19.8103 37.9911 17.8839V7.33471Z" fill="#E8BC9C"/>
<path d="M28.4614 20.125C29.1098 20.125 29.6363 19.5985 29.6363 18.9501V11.8663C29.6363 10.8242 30.4832 9.97737 31.5253 9.97737C32.5674 9.97737 33.4142 10.8242 33.4142 11.8663V21.4531C33.4142 22.1014 33.9407 22.628 34.5891 22.628C35.2375 22.628 35.764 22.1014 35.764 21.4531V7.41662C35.764 6.37452 36.6108 5.5277 37.6529 5.5277C38.695 5.5277 39.5418 6.37452 39.5418 7.41662V21.4531C39.5418 22.1014 40.0684 22.628 40.7168 22.628C41.3651 22.628 41.8917 22.1014 41.8917 21.4531V4.2403C41.8917 3.19819 42.7385 2.35138 43.7806 2.35138C44.8227 2.35138 45.6695 3.19819 45.6695 4.2403V22.3186C45.6695 22.967 46.196 23.4935 46.8444 23.4935C47.4928 23.4935 48.0193 22.967 48.0193 22.3186V8.09157C48.0193 7.04946 48.8661 6.20265 49.9082 6.20265C50.9503 6.20265 51.7972 7.04946 51.7972 8.09157V12.9037C51.7972 13.5521 52.3237 14.0786 52.9721 14.0786C53.6205 14.0786 54.147 13.5521 54.147 12.9037V8.09157C54.147 5.75425 52.2456 3.85283 49.9082 3.85283C49.2302 3.85283 48.588 4.01376 48.0193 4.29811V4.23874C48.0193 1.90142 46.1179 0 43.7806 0C41.6448 0 39.8746 1.58738 39.5856 3.64504C39.0059 3.34662 38.3497 3.17788 37.6545 3.17788C35.3172 3.17788 33.4157 5.0793 33.4157 7.41662V8.07439C32.847 7.79003 32.2049 7.62911 31.5268 7.62911C29.1895 7.62911 27.2881 9.53053 27.2881 11.8678V18.9517C27.2881 19.6001 27.8146 20.1266 28.463 20.1266L28.4614 20.125Z" fill="#3D3D3D"/>
<path d="M76.1581 60.259C74.9472 61.5777 73.6723 62.8354 72.3693 63.9962C72.1193 64.2197 71.9756 64.5384 71.9756 64.8727V78.8201C71.9756 79.4685 72.5021 79.995 73.1505 79.995C73.7989 79.995 74.3254 79.4685 74.3254 78.8201V65.3961C75.5503 64.2822 76.7471 63.0916 77.8892 61.848C78.3282 61.3699 78.297 60.6278 77.8189 60.1887C77.3408 59.7497 76.5987 59.7809 76.1596 60.259H76.1581Z" fill="#3D3D3D"/>
<path d="M85.993 43.2484C84.5837 42.2156 82.6448 42.2531 81.2777 43.3421L77.8561 46.0685V30.404C77.8561 28.3183 76.1594 26.6215 74.0736 26.6215C73.5642 26.6215 73.0768 26.7231 72.6331 26.9074C72.5206 24.9232 70.8691 23.3421 68.8568 23.3421C67.3069 23.3421 65.9726 24.2779 65.3899 25.6153C65.1274 24.731 64.5821 23.9264 63.7853 23.3421C62.2042 22.1828 60.0293 22.2265 58.4966 23.4483L54.1454 26.9152V17.9112C54.1454 17.2628 53.6189 16.7363 52.9705 16.7363C52.3221 16.7363 51.7956 17.2628 51.7956 17.9112V27.5808C51.7956 28.3667 52.2362 29.0666 52.9439 29.4088C53.6517 29.7494 54.4735 29.6572 55.0891 29.1682L59.9606 25.2872C60.6668 24.7248 61.6683 24.7045 62.3964 25.2388C63.1963 25.8247 63.4478 26.8902 62.9947 27.773L62.0479 29.6166C58.5185 36.4817 53.8064 42.5672 48.0428 47.7012C47.7928 47.9246 47.649 48.2433 47.649 48.5777V51.8571H39.7653V36.7723C39.7653 34.7318 38.1045 33.071 36.064 33.071C35.5875 33.071 35.1312 33.1632 34.7125 33.3273V33.1023C34.7125 31.0618 33.0517 29.401 31.0112 29.401C30.5253 29.401 30.0613 29.4963 29.6348 29.6666C29.6363 29.64 29.6395 29.615 29.6395 29.5885V23.9577C29.6395 23.3093 29.1129 22.7827 28.4646 22.7827C27.8162 22.7827 27.2896 23.3093 27.2896 23.9577V27.0293C26.8756 26.8699 26.4272 26.7809 25.9585 26.7809C24.0071 26.7809 22.4041 28.2995 22.2682 30.2181C21.8463 30.0509 21.387 29.9572 20.9058 29.9572C18.8653 29.9572 17.2045 31.618 17.2045 33.6585V48.7526L13.95 46.1607C12.6126 45.0951 10.7175 45.0576 9.33945 46.0685C7.82551 47.1793 7.34898 49.1964 8.20829 50.8665L8.98948 52.3867C11.9408 58.1269 15.853 63.2312 20.6261 67.5668V69.7182C19.159 70.1932 18.095 71.5712 18.095 73.1945V78.8254C18.095 79.4737 18.6216 80.0003 19.2699 80.0003C19.9183 80.0003 20.4449 79.4737 20.4449 78.8254V73.1945C20.4449 72.4758 21.0308 71.8899 21.7494 71.8899H36.7592C37.4779 71.8899 38.0638 72.4743 38.0638 73.1945V78.8254C38.0638 79.4737 38.5904 80.0003 39.2387 80.0003C39.8871 80.0003 40.4137 79.4737 40.4137 78.8254V73.1945C40.4137 71.5697 39.3465 70.1885 37.8763 69.7167V65.7014L38.2872 64.6608C38.7294 63.539 39.0731 62.3907 39.3169 61.222H50.6457V78.8254C50.6457 79.4737 51.1722 80.0003 51.8206 80.0003C52.469 80.0003 52.9955 79.4737 52.9955 78.8254V56.2286C52.9955 54.2991 51.7378 52.6586 49.9989 52.0805V49.1026C51.6315 47.6246 53.1799 46.0685 54.6438 44.4452V54.3881C54.6438 57.1442 55.1563 59.8393 56.1671 62.4032L56.5937 63.4843V78.8254C56.5937 79.4737 57.1202 80.0003 57.7686 80.0003C58.417 80.0003 58.9435 79.4737 58.9435 78.8254V63.2609C58.9435 63.1141 58.9154 62.9672 58.8622 62.8297L58.3545 61.5407C57.4514 59.2534 56.9952 56.8473 56.9952 54.3881V41.6938C57.9998 40.447 58.9544 39.1596 59.8622 37.841V41.786C59.8622 42.4344 60.3887 42.9609 61.0371 42.9609C61.6855 42.9609 62.212 42.4344 62.212 41.786V34.1709C62.8869 33.0335 63.5322 31.8742 64.14 30.6915L64.918 29.1776C65.0212 29.376 65.079 29.601 65.079 29.8338V41.7844C65.079 42.4328 65.6055 42.9593 66.2539 42.9593C66.9023 42.9593 67.4288 42.4328 67.4288 41.7844V27.1277C67.4288 26.3372 68.0725 25.6935 68.863 25.6935C69.6536 25.6935 70.2973 26.3372 70.2973 27.1277V42.5203C70.2973 43.1687 70.8238 43.6952 71.4722 43.6952C72.1206 43.6952 72.6471 43.1687 72.6471 42.5203V30.4072C72.6471 29.6166 73.2908 28.9729 74.0814 28.9729C74.872 28.9729 75.5157 29.6166 75.5157 30.4072V46.9996C75.5157 47.7371 75.9281 48.3933 76.5921 48.7136C77.2561 49.0339 78.0264 48.9464 78.6029 48.4886L82.7511 45.1842C83.2916 44.7545 84.0572 44.7389 84.6134 45.1467C85.2243 45.5951 85.4165 46.4091 85.0696 47.084L84.2634 48.6526C82.8557 51.3915 81.1887 54.0335 79.3091 56.5052C78.917 57.0208 79.017 57.7582 79.5325 58.1519C79.745 58.3129 79.995 58.391 80.2434 58.391C80.5981 58.391 80.9481 58.2316 81.1793 57.9269C83.1416 55.3459 84.8837 52.5867 86.3539 49.726L87.1601 48.1574C88.0382 46.4497 87.5507 44.3873 86.0039 43.2515L85.993 43.2484ZM11.0753 51.3087L10.2941 49.7885C9.96753 49.151 10.1488 48.3824 10.7253 47.959C11.2502 47.573 11.9736 47.5887 12.4845 47.9933L16.5014 51.1931C17.0701 51.6462 17.8326 51.7321 18.4872 51.4165C19.1434 51.1009 19.5512 50.4525 19.5512 49.7244V33.6538C19.5512 32.9085 20.1574 32.3023 20.9026 32.3023C21.6479 32.3023 22.2541 32.9085 22.2541 33.6538V45.3857C22.2541 46.0341 22.7806 46.5606 23.429 46.5606C24.0774 46.5606 24.6039 46.0341 24.6039 45.3857V30.4775C24.6039 29.7322 25.2101 29.126 25.9554 29.126C26.7006 29.126 27.3068 29.7322 27.3068 30.4775V44.6733C27.3068 45.3217 27.8334 45.8482 28.4817 45.8482C29.1301 45.8482 29.6567 45.3217 29.6567 44.6733V33.0976C29.6567 32.3523 30.2629 31.7461 31.0081 31.7461C31.7534 31.7461 32.3596 32.3523 32.3596 33.0976V44.6733C32.3596 45.3217 32.8861 45.8482 33.5345 45.8482C34.1829 45.8482 34.7094 45.3217 34.7094 44.6733V36.7676C34.7094 36.0224 35.3156 35.4162 36.0609 35.4162C36.8061 35.4162 37.4123 36.0224 37.4123 36.7676V56.8801C37.4123 59.2565 36.9702 61.5829 36.0984 63.7937L35.6062 65.042C35.5515 65.1795 35.525 65.3248 35.525 65.4732V69.537H22.9744V67.0387C22.9744 66.7028 22.8306 66.3841 22.5806 66.1622C17.8466 61.9454 13.975 56.9489 11.0768 51.3087H11.0753ZM50.6426 56.2239V58.8691H39.67C39.7309 58.2097 39.7621 57.5473 39.7621 56.8801V54.2022H48.6208C49.7364 54.2022 50.6426 55.11 50.6426 56.2239Z" fill="#3D3D3D"/>
</svg>
