<svg width="90" height="80" viewBox="0 0 90 80" fill="none" xmlns="http://www.w3.org/2000/svg">
<path d="M75.0157 68.4519L57.9043 51.3835C57.7747 51.1552 57.6107 50.9091 57.4618 50.6698C49.0026 37.0602 22.1858 6.56659 19.3091 3.6978C15.7529 0.148259 9.98564 0.148259 6.428 3.6978C2.87035 7.24735 2.87035 13.0014 6.428 16.551C9.35571 19.472 40.9624 47.1381 54.2226 55.0582L71.3298 72.1307C72.1941 70.5904 73.4691 69.3183 75.0129 68.456L75.0171 68.4519H75.0157Z" fill="#F9C485"/>
<path d="M9.03041 6.29429C12.2614 3.08031 17.3766 2.74337 21.0018 5.50627C20.2092 4.63435 19.6206 4.00311 19.3091 3.6978C15.7529 0.148259 9.98564 0.148259 6.428 3.6978C2.87035 7.24735 2.87035 13.0014 6.428 16.551C6.734 16.8563 7.36669 17.4421 8.24059 18.2398C5.47139 14.6215 5.80772 9.51927 9.03041 6.29567V6.29429Z" fill="#FFDDB0"/>
<path d="M74.7802 68.2644C73.2364 69.1267 71.9614 70.3988 71.0972 71.9391C70.317 73.3501 70.164 74.6773 70.8366 75.3553C71.8525 76.3702 74.324 75.5478 76.3557 73.5193C78.3889 71.4908 79.2187 69.0263 78.1959 68.0128C77.5191 67.3348 76.189 67.4929 74.7789 68.2658L74.7802 68.2644Z" fill="#E88064"/>
<path d="M53.7734 54.9932L57.8397 51.0985L74.8367 68.138L72.153 71.8704L53.7734 54.9932Z" fill="#B39060"/>
<path d="M78.7903 67.4372C77.8709 66.6547 76.5683 66.4718 75.467 66.9696L75.4325 66.9834C75.3801 66.9999 75.3209 67.0274 75.2574 67.0549C75.2023 67.0796 75.1472 67.103 75.092 67.125L74.8825 67.2062L58.3445 50.7058L58.3225 50.67C50.1913 37.2186 22.633 5.89298 19.6694 2.93755C15.7438 -0.979184 9.35626 -0.979184 5.43059 2.93755C1.50491 6.85429 1.50491 13.2272 5.43059 17.144C8.39276 20.1008 39.7871 47.5936 53.272 55.709L53.3078 55.731L53.3382 55.7612L69.8514 72.2369L69.7659 72.4486C69.7466 72.4954 69.7259 72.5435 69.7039 72.5903C69.6736 72.6591 69.6432 72.7251 69.6239 72.7828L69.6102 72.8158C69.107 73.9188 69.2945 75.2225 70.0843 76.1398C70.5792 76.6143 71.2532 76.8715 71.9396 76.8495C72.451 76.8426 72.95 76.7546 73.4297 76.5882C76.0886 75.5609 78.2141 73.4402 79.2479 70.7736L79.2562 70.7557C79.7579 69.6555 79.5732 68.3572 78.7875 67.4386L78.7903 67.4372ZM53.374 53.294L53.1893 53.4109L53.0046 53.2927C39.0828 44.436 9.46378 18.4656 6.78693 15.7893C3.62488 12.6194 3.62488 7.46078 6.78693 4.29081C9.96689 1.13184 15.14 1.13184 18.3186 4.29081C21.1071 7.07296 46.8638 36.2573 55.9034 50.4019L56.0205 50.5862L55.9034 50.7704C55.261 51.7799 54.3871 52.6532 53.374 53.2954V53.294ZM70.8411 70.5233L54.8792 54.595L55.1838 54.3557C55.5147 54.0944 55.8344 53.8125 56.1322 53.5182C56.4258 53.2239 56.707 52.9062 56.9675 52.5748L57.2073 52.2708L73.1705 68.2005L72.8645 68.4398C72.2002 68.9582 71.6006 69.5565 71.0809 70.2194L70.8411 70.5247V70.5233ZM77.4284 70.2042C76.5862 72.2616 74.9197 73.9229 72.8577 74.7646L72.8356 74.7728C72.5489 74.8677 72.2277 74.9379 71.9548 74.9379C71.7246 74.9379 71.5303 74.8884 71.4227 74.7618C71.329 74.6518 71.1443 74.2984 71.4489 73.3852L71.4572 73.3632C72.2994 71.3058 73.9659 69.6445 76.028 68.8028C76.3161 68.6983 76.6055 68.6419 76.9005 68.6323C77.0618 68.6185 77.2203 68.6502 77.3636 68.7231L77.4395 68.7616L77.4877 68.8303C77.5732 68.9527 77.6283 69.2127 77.5732 69.6019L77.6862 69.573L77.4284 70.2029V70.2042Z" fill="#3D3D3D"/>
<path d="M79.1406 46.4596C71.9812 55.4345 58.8961 56.9061 49.9007 49.763C40.9052 42.6199 39.4304 29.5645 46.5898 20.5896C53.7492 11.6146 66.8343 10.1431 75.8297 17.2862C79.7182 20.3764 82.3592 24.7374 83.2979 29.6058C84.464 35.5579 82.9353 41.7246 79.142 46.4596H79.1406Z" fill="#D16B3F"/>
<path d="M62.8785 55.0609C50.9057 55.0747 41.1867 45.4039 41.1729 33.4583C41.1591 21.5128 50.852 11.8159 62.8247 11.8021C74.7975 11.7884 84.5166 21.4592 84.5304 33.4047C84.5441 45.0683 75.2923 54.6332 63.6159 55.0472L62.8785 55.0609ZM62.9047 13.5941L61.9398 13.6202C51.027 14.1951 42.634 23.4781 43.2101 34.3674C43.7863 45.2567 53.0905 53.6293 64.0046 53.0544C74.9188 52.4796 83.3105 43.1966 82.7343 32.3073C82.1843 21.7934 73.4563 13.5542 62.9061 13.5941H62.9047Z" fill="#3D3D3D"/>
<path d="M79.1758 46.4578C84.6236 39.6466 86.4911 32.0957 83.3469 29.5924C80.2028 27.089 73.2377 30.5813 67.7899 37.3925C62.3421 44.2038 60.4746 51.7547 63.6187 54.258C66.7629 56.7613 73.728 53.2691 79.1758 46.4578Z" fill="#E88064"/>
<path d="M63.5876 55.0484C63.1989 55.0621 62.8639 54.7802 62.7964 54.4061C60.5441 42.7288 68.1997 31.4393 79.9037 29.1784C81.016 28.9638 82.1422 28.8442 83.2684 28.8043C83.6571 28.7782 84.0196 29.0587 84.0857 29.4465C86.338 41.1239 78.6824 52.4134 66.9784 54.6743C65.8661 54.8888 64.7399 55.0085 63.6138 55.0484H63.5876ZM82.626 30.4354C71.6195 31.1973 63.3064 40.7223 64.0714 51.7037C64.1114 52.2786 64.1789 52.8411 64.2589 53.4159C75.2654 52.654 83.5785 43.129 82.8135 32.1476C82.7735 31.5727 82.7197 30.9978 82.626 30.4354Z" fill="#3D3D3D"/>
<path d="M57.7044 29.3907C63.0828 22.6662 64.9694 15.2454 61.918 12.816C58.8667 10.3866 52.0331 13.8685 46.6546 20.593C41.2761 27.3176 39.3896 34.7384 42.4409 37.1678C45.4922 39.5972 52.3259 36.1153 57.7044 29.3907Z" fill="#E88064"/>
<path d="M42.4331 37.9651C42.0444 37.9651 41.7094 37.6846 41.6419 37.2967C39.5633 25.5795 47.394 14.3959 59.1379 12.3234C60.0366 12.1625 60.9477 12.069 61.8589 12.0154C62.2614 11.9892 62.6225 12.2698 62.69 12.6714C64.7948 24.3762 56.9917 35.5584 45.2616 37.6584C44.3367 37.8193 43.4118 37.9266 42.4731 37.9665H42.4331V37.9651ZM61.2289 13.6602C50.2348 14.5692 42.0706 24.2002 42.9817 35.1555C43.0079 35.5433 43.0617 35.9174 43.1154 36.3052C48.5849 35.85 53.6271 33.1613 57.0593 28.8815C60.4915 24.6017 61.9926 19.0897 61.2289 13.6588V13.6602Z" fill="#3D3D3D"/>
<path d="M79.1412 47.2633C78.9538 47.2633 78.7787 47.1959 78.6312 47.09L46.1465 21.22C45.7978 20.9518 45.744 20.4581 46.0128 20.1101L46.0266 20.0964C46.2954 19.7484 46.804 19.6948 47.1528 19.963L79.6374 45.833C79.9862 46.1012 80.0399 46.6086 79.7712 46.9566C79.6237 47.1436 79.3824 47.2646 79.1412 47.2646V47.2633Z" fill="#3D3D3D"/>
<path d="M49.9269 50.5393C49.7532 50.5393 49.5644 50.4719 49.4307 50.366C49.082 50.0855 49.0282 49.5766 49.297 49.2287L75.226 16.8179C75.5072 16.47 76.0172 16.4164 76.3522 16.6969C76.7009 16.9775 76.7547 17.4863 76.4859 17.8205L50.5568 50.2312C50.4094 50.4183 50.1681 50.5393 49.9269 50.5393Z" fill="#3D3D3D"/>
<path d="M37.7812 51.1038C37.7682 51.2295 37.7682 51.3565 37.7565 51.4952C37.6812 52.5916 37.4915 53.6764 37.2135 54.7469C36.1276 58.7801 33.6881 62.3233 30.29 64.7689L30.1004 64.8946C29.2028 65.5245 28.2429 66.0792 27.2323 66.5328C26.8153 66.722 26.3854 66.8982 25.9567 67.0499C25.528 67.2015 24.8955 67.4024 24.3525 67.554C23.2029 67.856 22.0156 68.0335 20.8271 68.1087L20.3595 68.1333H19.5632C15.9495 68.0957 12.4371 66.9864 9.46896 64.9192L8.93768 64.5278L8.49604 64.2129C5.74223 62.0201 3.70806 59.082 2.60783 55.7422C2.34285 54.9478 2.14021 54.1287 1.98823 53.2967C0.472338 44.826 5.18498 36.468 13.2204 33.3421C15.0402 32.6487 16.9471 32.2456 18.8929 32.1445C23.2769 31.9177 27.5856 33.3174 31.0097 36.065C33.4608 38.0064 35.369 40.553 36.5186 43.4522C36.5563 43.5274 36.5822 43.6038 36.6069 43.679C36.9862 44.6743 37.2772 45.6956 37.4785 46.7298C37.7565 48.1671 37.8578 49.6419 37.7812 51.1038Z" fill="#DBDBDB"/>
<path d="M19.7758 68.903H19.5485C15.7841 68.8654 12.1197 67.6925 9.03725 65.5502L8.4813 65.1472C8.34231 65.0461 8.17864 64.9333 8.02666 64.8063C5.15855 62.5254 3.02305 59.4616 1.88646 55.9818V55.9572C-1.19598 46.4899 3.65565 36.267 12.9536 32.6369C17.5273 30.8717 22.6192 30.9482 27.1292 32.8637C31.7405 34.8297 35.3672 38.5363 37.2365 43.1747L37.3248 43.4145C37.7288 44.4357 38.0327 45.4945 38.2341 46.578C38.525 48.0775 38.6263 49.6158 38.5497 51.1412C38.5367 51.2799 38.5367 51.4186 38.525 51.5443C38.4367 52.6913 38.247 53.8136 37.9561 54.923V54.9476C36.8195 59.1454 34.28 62.826 30.7416 65.3727C30.678 65.4232 30.6156 65.4738 30.539 65.5114C29.6037 66.1671 28.6061 66.7335 27.5579 67.213C27.1162 67.4152 26.6733 67.6044 26.2316 67.7547C25.79 67.9051 25.1327 68.1332 24.5638 68.2848C23.3635 68.5868 22.1256 68.7889 20.8877 68.8641L20.3954 68.8887L19.7758 68.9017V68.903ZM3.3387 55.5412C4.38696 58.7306 6.3458 61.5287 8.9736 63.6218L9.39057 63.9367C9.55424 64.0624 9.71921 64.1894 9.89587 64.3022C12.738 66.2812 16.1114 67.353 19.5731 67.3906H20.3317L20.7864 67.3659C21.923 67.3024 23.0609 67.1132 24.1598 66.8242C24.6781 66.6985 25.1964 66.5339 25.7017 66.3447C26.1186 66.206 26.5226 66.0427 26.9149 65.8535C27.8748 65.4245 28.7971 64.8957 29.6687 64.2905L29.8324 64.1648C33.0915 61.8333 35.4296 58.4546 36.4649 54.5977C36.4649 54.5847 36.4649 54.5731 36.4779 54.5731C36.7428 53.5518 36.9195 52.5059 36.9961 51.4471C37.0091 51.3214 37.0208 51.2073 37.0208 51.0816C37.0962 49.6703 36.9961 48.2706 36.7299 46.8839C36.5402 45.8885 36.2622 44.9178 35.8959 43.9717V43.9471L35.8206 43.7579C34.7087 40.9715 32.8888 38.5272 30.539 36.661C23.0726 30.724 12.1807 31.9461 6.23019 39.4085C3.13476 43.2784 1.85918 48.2952 2.73078 53.1734C2.86977 53.9678 3.07241 54.7493 3.32441 55.5178L3.3374 55.5425L3.3387 55.5412Z" fill="#3D3D3D"/>
<path d="M26.8273 33.559L25.4375 35.551L18.2997 35.9916L13.2207 33.3439C15.0406 32.6505 16.9474 32.2474 18.8933 32.1464C21.6094 32.0206 24.3255 32.4989 26.8273 33.5577V33.559Z" fill="#231F20"/>
<path d="M18.297 36.7465C18.171 36.7465 18.0567 36.7089 17.9437 36.6584L12.8647 34.0236C12.5997 33.8849 12.4477 33.6076 12.4607 33.3056C12.4737 33.0036 12.6634 32.7509 12.9413 32.6369C17.515 30.8717 22.6069 30.9482 27.1169 32.8637C27.3313 32.9518 27.4962 33.1281 27.5586 33.3549C27.6222 33.5687 27.5833 33.8085 27.4443 33.9977L26.0544 35.9767C25.9284 36.1659 25.7128 36.2916 25.4854 36.3046L18.3346 36.7452H18.297V36.7465ZM15.1639 33.5065L18.4619 35.2211L25.0191 34.818L25.6504 33.9108C22.277 32.6887 18.6126 32.55 15.1639 33.5078V33.5065Z" fill="#3D3D3D"/>
<path d="M15.8856 42.3185L21.3568 48.1298L17.4911 54.9364L9.25305 53.5626L8.35547 45.8734L15.8856 42.3185Z" fill="#231F20"/>
<path d="M17.4885 55.6922H17.3625L9.13743 54.3055C8.7958 54.2549 8.5438 53.9905 8.50613 53.6497L7.60855 45.9605C7.57088 45.6326 7.74754 45.3306 8.03851 45.1919L15.5686 41.624C15.8713 41.4854 16.2129 41.5605 16.4402 41.8003L21.9114 47.6116C22.1388 47.8513 22.1764 48.2168 22.0128 48.5071L18.147 55.3137C18.021 55.5535 17.7677 55.6922 17.4898 55.6922H17.4885ZM9.94539 52.9058L17.0962 54.1033L20.4189 48.2414L15.7193 43.2376L9.1751 46.3259L9.94539 52.9058Z" fill="#3D3D3D"/>
<path d="M30.8296 41.9788C30.6152 41.9788 30.4126 41.8907 30.2736 41.7391L24.879 36.0665C24.601 35.7645 24.614 35.2979 24.9167 35.0076C25.2076 34.7173 25.687 34.7303 25.9649 35.0206L25.9779 35.0335L31.3725 40.7062C31.6635 41.0081 31.6505 41.4877 31.3478 41.778C31.2089 41.9037 31.0192 41.9801 30.8296 41.9801V41.9788Z" fill="#3D3D3D"/>
<path d="M37.7809 51.1036C37.768 51.2293 37.768 51.3563 37.7563 51.495L32.6396 53.5621L28.5713 47.2596L30.8328 41.2216L36.6067 43.6801C36.986 44.6754 37.2769 45.6967 37.4783 46.7309C37.7563 48.1682 37.8576 49.643 37.7809 51.1049V51.1036Z" fill="#231F20"/>
<path d="M32.6379 54.3178C32.3846 54.3178 32.1456 54.1792 32.0066 53.9653L27.9253 47.6628C27.7993 47.4607 27.7733 47.2092 27.8616 46.9941L30.1231 40.956C30.1868 40.7668 30.3374 40.6035 30.5271 40.527C30.7167 40.4389 30.9311 40.4389 31.1207 40.527L36.9076 42.9856C37.0972 43.0607 37.2362 43.2124 37.3116 43.4016C37.7156 44.4358 38.0195 45.4946 38.2208 46.5781C38.5118 48.0776 38.6131 49.6159 38.5365 51.1413C38.5235 51.28 38.5235 51.4187 38.5118 51.5444C38.4988 51.8347 38.3092 52.0861 38.0442 52.1872L32.9276 54.2543C32.8392 54.2919 32.7379 54.3178 32.6366 54.3178H32.6379ZM29.4165 47.1704L32.9419 52.6162L37.0232 50.9651C37.0985 49.5913 36.9985 48.2175 36.7322 46.8684C36.5686 45.9729 36.3283 45.1032 36.0126 44.2466L31.2623 42.23L29.4178 47.1717L29.4165 47.1704Z" fill="#3D3D3D"/>
<path d="M8.49465 64.2143C5.74084 62.0215 3.70667 59.0835 2.60645 55.7437L7.04111 57.7978L9.16361 64.0498L9.46627 64.9323L8.49335 64.2143H8.49465Z" fill="#231F20"/>
<path d="M9.46807 65.69C9.3044 65.69 9.13944 65.6395 9.01344 65.5384L8.02752 64.8075C5.15941 62.5265 3.02391 59.4627 1.88732 55.9829C1.786 55.6926 1.87433 55.3907 2.10165 55.1885C2.32897 54.9863 2.64462 54.9358 2.9226 55.0628L7.35726 57.117C7.54691 57.2051 7.6859 57.3567 7.74954 57.5576L10.1877 64.6791C10.289 64.9941 10.1747 65.3349 9.90972 65.5358C9.78372 65.6369 9.63174 65.6874 9.46807 65.6874V65.69ZM3.98515 57.2193C4.9204 59.2865 6.24664 61.1527 7.90152 62.7027L6.4233 58.3533L3.98515 57.2193Z" fill="#3D3D3D"/>
<path d="M30.2898 64.7676L30.1001 64.8933C29.2025 65.5232 28.2426 66.0779 27.232 66.5315C26.815 66.7207 26.3851 66.8969 25.9564 67.0486C25.5278 67.2002 24.8952 67.4011 24.3522 67.5527C23.2026 67.8547 22.0154 68.0322 20.8268 68.1074L17.9717 66.3798L21.3581 61.6533L28.5725 60.9729L30.291 64.7676H30.2898Z" fill="#231F20"/>
<path d="M20.8256 68.8641C20.6866 68.8641 20.5476 68.8265 20.4333 68.7501L17.5782 67.0225C17.4015 66.9085 17.2625 66.7322 17.2249 66.5313C17.1872 66.3304 17.2249 66.1153 17.3509 65.939L20.7373 61.2125C20.8633 61.0362 21.0659 60.9222 21.2802 60.8976L28.4947 60.2172C28.8233 60.1796 29.126 60.3558 29.2533 60.6578L30.9848 64.4525C31.1238 64.7804 31.0225 65.1588 30.7315 65.3727C30.6678 65.4232 30.6055 65.4738 30.5289 65.5114C29.5936 66.1671 28.596 66.7335 27.5477 67.213C27.1061 67.4152 26.6631 67.6044 26.2215 67.7547C25.7798 67.9051 25.1226 68.1332 24.5536 68.2848C23.3534 68.5868 22.1155 68.789 20.8776 68.8641H20.8269H20.8256ZM19.0564 66.1542L21.0152 67.3387C22.0765 67.2636 23.1377 67.086 24.1613 66.8087C24.6796 66.6829 25.1979 66.5184 25.7032 66.3291C26.1202 66.1905 26.5241 66.0272 26.9164 65.838C27.7634 65.4595 28.5713 65.0059 29.3416 64.5018L28.1037 61.7659L21.7738 62.3711L19.0577 66.1529L19.0564 66.1542Z" fill="#3D3D3D"/>
<path d="M15.8844 43.0742C15.796 43.0742 15.7077 43.0495 15.6194 43.0236C15.2271 42.872 15.0258 42.4313 15.1777 42.0399L17.5912 35.7116C17.7549 35.3202 18.1978 35.1439 18.5771 35.2955C18.9564 35.4472 19.1461 35.8748 19.0071 36.2533L16.5936 42.5817C16.4923 42.8836 16.2013 43.0729 15.8857 43.0729L15.8844 43.0742Z" fill="#3D3D3D"/>
<path d="M21.3543 48.8878C20.9373 48.9124 20.571 48.5975 20.558 48.1698C20.5333 47.7538 20.849 47.3883 21.2659 47.3754L28.4804 46.5058C28.8973 46.4552 29.2636 46.7585 29.3143 47.1745C29.365 47.5775 29.074 47.956 28.67 48.0065H28.657L21.4426 48.8891H21.3543V48.8878Z" fill="#3D3D3D"/>
<path d="M7.04034 58.5551C6.92603 58.5551 6.80003 58.5305 6.69871 58.4799C6.33241 58.3037 6.16744 57.8617 6.3454 57.4846C6.3454 57.4846 6.3454 57.4716 6.35839 57.4716L8.25357 53.6147C8.43023 53.2493 8.87318 53.0847 9.25118 53.2622C9.25118 53.2622 9.26417 53.2622 9.26417 53.2752C9.64347 53.4514 9.79544 53.905 9.61749 54.2835L7.7223 58.1404C7.5963 58.3931 7.33001 58.5564 7.04034 58.5564V58.5551Z" fill="#3D3D3D"/>
<path d="M8.35447 46.6303C8.24016 46.6303 8.11416 46.6057 8.01284 46.5551L2.75724 43.8581C2.39093 43.6689 2.23895 43.2283 2.4286 42.8628V42.8498C2.60526 42.4844 3.03521 42.3327 3.40152 42.509C3.41451 42.509 3.4262 42.5219 3.43919 42.5219L8.70779 45.2073C9.0741 45.4095 9.22607 45.8501 9.03643 46.2285C8.89744 46.4812 8.63245 46.6316 8.35447 46.6316V46.6303Z" fill="#3D3D3D"/>
<path d="M28.569 61.7312C28.443 61.7312 28.3157 61.6936 28.2027 61.6301C27.8364 61.4279 27.6974 60.9743 27.9 60.6089L31.9684 53.197C32.171 52.8315 32.6386 52.6929 33.0049 52.895C33.3713 53.0972 33.5102 53.5638 33.3076 53.9293L29.2263 61.3282C29.1003 61.5679 28.847 61.7312 28.569 61.7312Z" fill="#3D3D3D"/>
<path d="M21.3541 62.4121C21.0892 62.4121 20.8359 62.2735 20.6969 62.0337L16.8312 55.3152C16.6168 54.9497 16.7428 54.4961 17.1091 54.281C17.4754 54.0672 17.9301 54.1929 18.1457 54.5583L22.0114 61.2768C22.2258 61.6423 22.0998 62.0959 21.7334 62.311C21.6191 62.3745 21.4801 62.4121 21.3541 62.4121Z" fill="#3D3D3D"/>
<path d="M17.9704 67.1398H17.7938L9.75839 65.2735C9.35441 65.1854 9.10111 64.7694 9.18944 64.3663C9.29076 63.9632 9.69474 63.7105 10.0987 63.7987L18.1341 65.6519C18.5381 65.7401 18.7914 66.1315 18.703 66.5345V66.5591C18.6277 66.9 18.3238 67.1385 17.9704 67.1385V67.1398Z" fill="#3D3D3D"/>
<path d="M70.4052 57.9511C70.4052 61.0138 67.4954 64.9195 62.8709 67.8763C60.9397 69.1072 58.8763 70.0836 56.7039 70.8056C53.8879 71.7559 50.9257 72.2496 47.9497 72.2496C44.3163 72.2359 40.7104 71.4877 37.3719 70.0423C35.1734 69.1058 33.0947 67.8887 31.205 66.4309C27.6514 63.635 25.4805 60.3853 25.4805 57.9497C25.4805 57.4147 25.5604 56.8797 25.7217 56.3585C25.8154 55.9968 25.9491 55.6489 26.0966 55.3023C26.1766 55.1414 26.2579 54.9681 26.3378 54.7811C27.2903 52.9355 28.9788 50.995 31.205 49.2828C33.0947 47.8388 35.1734 46.6478 37.3719 45.7511C40.7242 44.3731 44.3163 43.6649 47.9497 43.6511C50.712 43.6511 53.4606 44.0788 56.1016 44.9081L56.7053 45.1089C58.8777 45.8584 60.9425 46.8472 62.8723 48.0781C67.4982 51.061 70.4066 54.9805 70.4066 57.9497L70.4052 57.9511Z" fill="#93766C"/>
<path d="M47.949 73.0534C44.2081 73.0396 40.4947 72.2777 37.0625 70.7924C34.7964 69.8298 32.6516 68.5714 30.7081 67.06C26.9946 64.1444 24.6748 60.6526 24.6748 57.9503C24.6748 57.3355 24.7685 56.7332 24.9436 56.1445C25.0511 55.743 25.1848 55.3551 25.3599 54.9811L25.6287 54.4186C26.6473 52.4258 28.4034 50.4193 30.7232 48.6398C32.6668 47.1545 34.8129 45.9374 37.0776 45.0146C40.5236 43.5829 44.2232 42.8472 47.9504 42.8472C50.7927 42.8472 53.6349 43.2886 56.3435 44.144H56.3835L56.9596 44.3311C59.1982 45.093 61.3305 46.1107 63.314 47.3938C68.1136 50.484 71.2109 54.6304 71.2109 57.9338C71.2109 61.2371 68.1136 65.4647 63.3003 68.5411C61.3154 69.7981 59.1844 70.8144 56.9583 71.5502C54.0622 72.5404 51.0187 73.0479 47.949 73.0479V73.0534ZM47.949 44.4548C44.4231 44.4548 40.9371 45.1507 37.68 46.5012C35.5476 47.3704 33.5379 48.5077 31.7005 49.9119C29.6095 51.5306 27.9595 53.3899 27.0622 55.1557C26.9822 55.3029 26.9009 55.4762 26.8348 55.6233C26.701 55.9438 26.5798 56.2656 26.486 56.586C26.3523 57.0275 26.2848 57.4827 26.2848 57.9503C26.2848 60.1438 28.4172 63.2203 31.7005 65.8016C33.5379 67.2195 35.5476 68.3967 37.6938 69.3058C40.9247 70.7099 44.4245 71.4333 47.9504 71.4457C53.085 71.4319 58.1134 69.9604 62.4429 67.2058C66.7325 64.4635 69.6023 60.7448 69.6023 57.9489C69.6023 55.153 66.7201 51.5154 62.4291 48.7457C60.5655 47.5423 58.5544 46.5782 56.4496 45.87L55.8597 45.683L55.8059 45.6568C53.2586 44.8674 50.6176 44.4535 47.949 44.4535V44.4548Z" fill="#3D3D3D"/>
<path d="M37.372 45.7515V70.0427C35.1735 69.1061 33.0949 67.889 31.2051 66.4312V49.2831C33.0949 47.8391 35.1735 46.6481 37.372 45.7515Z" fill="#CCBBAE"/>
<path d="M37.3704 70.8456C37.2629 70.8456 37.1553 70.8318 37.0616 70.7919C34.7955 69.8293 32.6507 68.5709 30.7072 67.0595C30.5197 66.9123 30.3984 66.6717 30.3984 66.431V49.2829C30.3984 49.0285 30.5197 48.7878 30.7196 48.6406C32.6631 47.1554 34.7955 45.9259 37.074 45.0155C37.3152 44.9082 37.5964 44.9357 37.8252 45.0828C38.0403 45.2438 38.174 45.4844 38.174 45.7512V70.0424C38.174 70.3106 38.0403 70.5774 37.8115 70.7246C37.6778 70.8043 37.5303 70.8456 37.369 70.8456H37.3704ZM32.007 66.0294C33.4282 67.0994 34.9568 68.0359 36.5654 68.7978V46.9807C34.9568 47.7165 33.4282 48.6255 32.007 49.6693V66.028V66.0294Z" fill="#3D3D3D"/>
<path d="M56.7041 45.109C58.8765 45.8585 60.9413 46.8473 62.8711 48.0782V67.875C60.9399 69.1059 58.8765 70.0823 56.7041 70.8043V45.109Z" fill="#CCBBAE"/>
<path d="M56.704 71.6083C56.5303 71.622 56.369 71.5684 56.2353 71.4611C56.0203 71.314 55.9004 71.0596 55.9004 70.8051V45.1098C55.9004 44.6683 56.2629 44.3066 56.7054 44.3066C56.7853 44.3066 56.8791 44.3204 56.9604 44.3465C59.1989 45.096 61.3175 46.1261 63.3024 47.4092C63.5298 47.5564 63.6773 47.8108 63.6773 48.0776V67.8745C63.6773 68.155 63.5298 68.4094 63.3024 68.5566C61.3175 69.8136 59.1865 70.8299 56.9604 71.5657C56.8804 71.5918 56.7867 71.6055 56.7054 71.6055L56.704 71.6083ZM57.509 46.2595V69.6678C59.0914 69.0654 60.62 68.3173 62.0673 67.4344V48.5204C60.62 47.6238 59.0914 46.8756 57.509 46.2595Z" fill="#3D3D3D"/>
<path d="M40.4551 57.1628H53.3927V58.7678H40.4551V57.1628Z" fill="#3D3D3D"/>
<path d="M41.6484 55.6251H43.257V60.2267H41.6484V55.6251Z" fill="#3D3D3D"/>
<path d="M44.7031 55.6251H46.3117V60.2267H44.7031V55.6251Z" fill="#3D3D3D"/>
<path d="M47.7471 55.6251H49.3557V60.2267H47.7471V55.6251Z" fill="#3D3D3D"/>
<path d="M50.4434 55.6251H52.0519V60.2267H50.4434V55.6251Z" fill="#3D3D3D"/>
<path d="M35.9201 16.6779C35.9201 21.2576 32.1912 24.9768 27.6022 24.9768C23.0133 24.9768 19.2832 21.2564 19.2832 16.6779C19.2832 12.0994 23.0121 8.37903 27.601 8.37903C29.7602 8.37903 31.8248 9.21533 33.3824 10.71C35.0103 12.2761 35.9189 14.4304 35.9189 16.6779H35.9201Z" fill="white"/>
<path d="M27.6017 25.6936C25.4898 25.6936 23.4373 24.9517 21.8082 23.5986C17.9738 20.4083 17.4546 14.7224 20.64 10.8967C23.8255 7.07102 29.5365 6.55302 33.3709 9.73122C35.4355 11.4498 36.6267 13.9926 36.6267 16.677C36.6267 21.6561 32.5921 25.6827 27.6005 25.6936H27.6017ZM27.6017 9.08372C23.4009 9.08372 19.991 12.4858 19.991 16.677C19.991 20.8682 23.4009 24.2703 27.6017 24.2703C31.8024 24.2703 35.2123 20.8682 35.2123 16.677C35.2123 14.6171 34.3741 12.6516 32.8881 11.215C31.4725 9.84983 29.5729 9.08493 27.6029 9.08493L27.6017 9.08372Z" fill="#3D3D3D"/>
<path d="M25.2534 16.6748C25.2534 19.1353 24.1556 21.4772 22.2681 23.0554C18.7406 20.1362 18.2566 14.909 21.1824 11.3895C21.5124 11.001 21.8666 10.6367 22.2681 10.3063C24.1556 11.8833 25.2534 14.2143 25.2534 16.6748Z" fill="#EFDADA"/>
<path d="M22.2676 23.7615C22.1026 23.7615 21.9376 23.7022 21.8078 23.5969C17.9855 20.4066 17.4664 14.7328 20.6518 10.9192C21.006 10.5077 21.3833 10.1192 21.8078 9.76583C22.0674 9.54192 22.4568 9.54192 22.7164 9.76583C24.7689 11.4723 25.9613 14.0042 25.9613 16.6753C25.9613 19.3464 24.781 21.8904 22.7164 23.5969C22.5866 23.7034 22.4338 23.7615 22.2676 23.7615ZM22.2676 11.2605C19.2701 14.1918 19.2119 18.9833 22.1499 21.9848L22.2676 22.1022C23.7305 20.6777 24.5445 18.7122 24.5445 16.6753C24.5445 14.6384 23.7305 12.685 22.2676 11.2605Z" fill="#3D3D3D"/>
<path d="M29.9482 16.6748C29.9482 19.1353 31.0339 21.4772 32.9335 23.0554C36.4611 20.112 36.9329 14.8739 33.9719 11.3423C33.6529 10.9659 33.3108 10.6125 32.9335 10.3063C31.0339 11.8833 29.9482 14.2143 29.9482 16.6748Z" fill="#EFDADA"/>
<path d="M32.9345 23.7615C32.7695 23.7615 32.6046 23.7022 32.4748 23.5969C28.6525 20.3945 28.1442 14.6977 31.3661 10.872C31.7081 10.4714 32.0745 10.095 32.4748 9.76583C32.7344 9.54192 33.1237 9.54192 33.3833 9.76583C37.2056 12.9561 37.7248 18.6299 34.5394 22.4435C34.1852 22.855 33.8079 23.2435 33.3833 23.5969C33.2535 23.7034 33.1007 23.7615 32.9345 23.7615ZM32.9345 11.2605C29.9371 14.2039 29.891 19.0184 32.852 22.0199C32.8751 22.055 32.9115 22.0792 32.9345 22.1022C35.9319 19.1588 35.978 14.3443 33.017 11.3428C32.994 11.3198 32.9697 11.2835 32.9345 11.2605Z" fill="#3D3D3D"/>
<path d="M29.5488 11.9709L30.3446 10.803L32.9405 12.5627L32.1447 13.7306L29.5488 11.9709Z" fill="#3D3D3D"/>
<path d="M28.5127 15.2081L28.8354 13.832L31.8922 14.5461L31.5696 15.9222L28.5127 15.2081Z" fill="#3D3D3D"/>
<path d="M28.4609 17.487L31.5178 16.7729L31.8405 18.149L28.7836 18.8631L28.4609 17.487Z" fill="#3D3D3D"/>
<path d="M29.5332 21.0671L32.1291 19.3074L32.9249 20.4753L30.329 22.235L29.5332 21.0671Z" fill="#3D3D3D"/>
<path d="M22.5898 12.6014L25.1858 10.8417L25.9815 12.0096L23.3856 13.7693L22.5898 12.6014Z" fill="#3D3D3D"/>
<path d="M23.6094 14.6431L26.6662 13.9291L26.9889 15.3052L23.932 16.0192L23.6094 14.6431Z" fill="#3D3D3D"/>
<path d="M23.6631 18.0532L23.9858 16.6771L27.0426 17.3912L26.72 18.7673L23.6631 18.0532Z" fill="#3D3D3D"/>
<path d="M22.625 20.4304L23.4208 19.2625L26.0167 21.0222L25.2209 22.1901L22.625 20.4304Z" fill="#3D3D3D"/>
<path d="M37.4509 70.9824C37.4631 75.573 33.7342 79.3055 29.1331 79.3055C24.532 79.3055 20.791 75.5972 20.791 71.0066C20.791 68.534 21.8888 66.1921 23.7884 64.603C24.2009 64.2617 24.6376 63.9555 25.1094 63.6965C25.7936 65.38 24.8972 68.8293 24.7322 70.4184C24.5078 72.4432 26.5372 74.0916 28.7558 74.0916H29.4752C31.7048 74.0916 33.7584 72.4432 33.5098 70.4184C33.3096 68.8172 32.2591 65.3328 33.0852 63.6614C33.7463 64.0269 34.3589 64.4735 34.9023 64.9915C36.5302 66.5685 37.4509 68.7228 37.4509 70.9836V70.9824Z" fill="#F2CE36"/>
<path d="M29.1211 79.9986C24.1416 79.9986 20.0949 75.9732 20.084 71.005C20.084 68.3327 21.2752 65.7899 23.3398 64.0713C23.7765 63.6949 24.2605 63.3645 24.7675 63.0946C24.9446 62.9881 25.1569 62.9772 25.3462 63.0474C25.5354 63.1067 25.6882 63.2471 25.7586 63.4359C26.3603 64.9076 25.9587 67.2495 25.6409 69.1339C25.5463 69.6749 25.476 70.1457 25.4286 70.5112C25.3692 71.1466 25.5936 71.782 26.0424 72.2419C26.6793 72.9596 27.7298 73.3953 28.756 73.3953H29.4754C30.5259 73.3953 31.5873 72.9475 32.2241 72.2298C32.5431 71.8643 32.8961 71.2761 32.8027 70.5233C32.7554 70.1578 32.6608 69.687 32.5553 69.146C32.1889 67.2277 31.7171 64.8495 32.4485 63.3657C32.531 63.189 32.6851 63.0595 32.8731 63.0002C33.0502 62.9409 33.2503 62.9651 33.4153 63.0595C34.1346 63.448 34.8079 63.9309 35.3974 64.4961C38.9844 67.9575 39.0899 73.6664 35.6218 77.2452C33.9224 79.011 31.5751 79.9998 29.1211 79.9998V79.9986ZM24.6377 64.8483L24.2484 65.1545C21.0156 67.8389 20.5789 72.6292 23.2694 75.8437C23.5642 76.1971 23.8954 76.5263 24.2484 76.8204C27.2337 79.3039 31.6224 79.1514 34.4185 76.4549C37.4511 73.5357 37.5215 68.7212 34.6077 65.7076L34.4185 65.5188C34.1359 65.2477 33.829 64.9887 33.5099 64.766C33.3801 65.9436 33.7101 67.6622 33.9466 68.8749C34.0643 69.4401 34.1589 69.9339 34.2062 70.3466C34.336 71.3475 34.0061 72.3472 33.2855 73.1605C32.3648 74.1965 30.9492 74.8089 29.4741 74.8089H28.7548C27.3149 74.8089 25.8993 74.2086 24.9907 73.1956C24.2593 72.3714 23.9172 71.3705 24.0227 70.3587C24.07 69.9472 24.1525 69.4643 24.2471 68.8991C24.4473 67.7106 24.7311 66.038 24.6365 64.8495L24.6377 64.8483Z" fill="#3D3D3D"/>
<path d="M29.4749 74.0986H28.7555C26.5369 74.0986 24.5075 72.4502 24.7319 70.4254C24.8968 68.8363 25.7933 65.387 25.1091 63.7035C27.5874 62.3492 30.5957 62.3383 33.0849 63.6684C32.2588 65.3398 33.3093 68.8242 33.5094 70.4254C33.7569 72.4502 31.7044 74.0986 29.4749 74.0986Z" fill="#F2CE36"/>
<path d="M29.4751 74.8069H28.7557C27.3158 74.8069 25.9002 74.2066 24.9916 73.1936C24.2602 72.3694 23.9181 71.3685 24.0236 70.3567C24.0709 69.9452 24.1534 69.4623 24.2481 68.8971C24.5076 67.3673 24.897 65.0593 24.4482 63.9761C24.3184 63.6469 24.4482 63.2693 24.7672 63.0938C27.4578 61.61 30.7136 61.5991 33.415 63.0587C33.7571 63.2354 33.899 63.6469 33.7219 63.9882C33.2027 65.0363 33.6516 67.3431 33.9463 68.8729C34.064 69.4381 34.1586 69.9319 34.2059 70.3446C34.3357 71.3455 34.0058 72.3452 33.2852 73.1585C32.3645 74.1945 30.9489 74.8069 29.4738 74.8069H29.4751ZM25.9475 64.0705C26.2544 65.518 25.9245 67.4956 25.6406 69.1319C25.546 69.6729 25.4757 70.1437 25.4283 70.5092C25.3689 71.1446 25.5933 71.78 26.0421 72.2399C26.679 72.9576 27.7295 73.3933 28.7557 73.3933H29.4751C30.5255 73.3933 31.587 72.9455 32.2238 72.2278C32.5428 71.8623 32.8958 71.2741 32.8024 70.5213C32.7551 70.1558 32.6605 69.685 32.555 69.144C32.2359 67.4956 31.8465 65.495 32.2129 64.0354C30.2186 63.164 27.9418 63.1761 25.9475 64.0705Z" fill="#3D3D3D"/>
</svg>
