<svg width="78" height="80" viewBox="0 0 78 80" fill="none" xmlns="http://www.w3.org/2000/svg">
<path fill-rule="evenodd" clip-rule="evenodd" d="M31.6088 47.4347L23.1985 51.8379L32.0513 68.8556C33.2598 71.1755 36.1386 72.083 38.4533 70.873C40.7656 69.663 41.6701 66.7723 40.4641 64.4499L31.6113 47.4323L31.6088 47.4347Z" fill="#7789A4"/>
<path fill-rule="evenodd" clip-rule="evenodd" d="M25.9946 50.3768L23.1985 51.8405L32.0513 68.8582C33.002 70.6829 34.9861 71.6343 36.9142 71.3684L25.9946 50.3768Z" fill="#6A7D99"/>
<path fill-rule="evenodd" clip-rule="evenodd" d="M26.3398 28.8584L36.1263 47.6715L20.4119 55.8998C15.2549 58.6003 8.83345 56.5755 6.14185 51.4014C3.45025 46.2273 5.46834 39.7847 10.6254 37.0843L26.3398 28.856V28.8584Z" fill="#7E9DCC"/>
<path fill-rule="evenodd" clip-rule="evenodd" d="M29.7682 47.3055L19.9404 52.4528C14.7833 55.1533 8.36188 53.1285 5.67028 47.9569C5.37607 47.3909 5.13779 46.8103 4.953 46.22C5.05999 42.4974 7.11455 38.9284 10.6231 37.0915L21.4916 31.4003L29.7658 47.308L29.7682 47.3055Z" fill="#8AABDB"/>
<path fill-rule="evenodd" clip-rule="evenodd" d="M40.5103 25.9895L50.5715 20.7203C53.7664 19.0468 57.7467 20.3007 59.4147 23.5062C61.0826 26.7116 59.8329 30.705 56.638 32.3785L46.5767 37.6477L40.5127 25.9895H40.5103Z" fill="#FFBF29"/>
<path fill-rule="evenodd" clip-rule="evenodd" d="M40.5103 25.9896L50.5715 20.7204C52.4559 19.7348 54.6126 19.7641 56.407 20.613C56.8811 21.0814 57.292 21.6303 57.6178 22.2523C59.2858 25.4578 58.036 29.4512 54.8411 31.1247L45.6795 35.9231L40.5127 25.9896H40.5103Z" fill="#FFD064"/>
<path fill-rule="evenodd" clip-rule="evenodd" d="M41.9253 6.52515L63.3 47.6178C55.4246 49.3791 43.9798 43.561 32.7101 49.462L22.9236 30.6489C34.1957 24.7479 35.9828 11.9993 41.9253 6.52515Z" fill="#FC8835"/>
<path fill-rule="evenodd" clip-rule="evenodd" d="M41.9253 6.52508L61.615 44.3757C53.8053 45.371 42.944 40.4043 32.2384 46.0101L31.1978 46.5541L22.9236 30.6464C34.1957 24.7454 35.9828 11.9968 41.9253 6.52264V6.52508Z" fill="#FF954A"/>
<path fill-rule="evenodd" clip-rule="evenodd" d="M70.1079 17.3256C70.7036 17.0157 71.4379 17.2457 71.7491 17.8389C71.9582 18.2383 71.9217 18.6959 71.6956 19.0494C71.5862 19.2213 71.4306 19.3689 71.2336 19.4706L64.9385 22.7438C64.3404 23.0513 63.6085 22.8237 63.2973 22.2306C62.9885 21.6374 63.2171 20.9039 63.8128 20.5964L70.1079 17.3232V17.3256ZM56.9098 14.8368C56.3433 14.4785 56.1755 13.728 56.5353 13.1663L60.2555 7.33895C60.6154 6.77485 61.3691 6.6078 61.9357 6.96611C62.5022 7.32442 62.67 8.07251 62.3101 8.6366L58.5899 14.464C58.2277 15.0305 57.4763 15.1951 56.9122 14.8368H56.9098ZM67.0029 30.5201L73.9326 30.8155C74.6037 30.8421 75.124 31.4086 75.0948 32.0768C75.0827 32.2971 75.017 32.5005 74.9076 32.6724C74.6815 33.0258 74.2779 33.251 73.828 33.2341L66.8983 32.9387C66.2272 32.9096 65.7093 32.3455 65.7361 31.6773C65.7628 31.0091 66.3318 30.491 67.0029 30.5201ZM33.2248 48.4259C40.1934 45.2326 47.0672 46.0533 53.1653 46.782C56.156 47.1403 59.0057 47.4792 61.4688 47.2589L41.6328 9.41617C40.0402 11.2997 38.6907 13.8248 37.2756 16.471C34.3894 21.8698 31.1337 27.9514 24.5176 31.8178L33.2223 48.4283L33.2248 48.4259ZM39.3837 65.4044C39.8165 66.2324 39.8992 67.1838 39.6171 68.082C39.3326 68.9802 38.7199 69.7162 37.8883 70.1471C37.0568 70.5781 36.1036 70.6604 35.1991 70.3796C34.297 70.0963 33.5603 69.4862 33.1299 68.6582L25.9279 54.9142L32.1817 51.6652L39.3861 65.4068L39.3837 65.4044ZM7.16174 51.4037C6.00922 49.203 5.79038 46.6779 6.54414 44.2908C6.79701 43.4894 7.14715 42.7365 7.58481 42.0489C8.45285 40.6883 9.66859 39.5723 11.1372 38.8096L22.3755 32.9702L31.051 49.5226L19.8103 55.3645C15.227 57.7467 9.55188 55.9697 7.1593 51.4061L7.16174 51.4037ZM58.3614 24.7968C59.7109 27.3728 58.7285 30.5516 56.1755 31.9364L51.2299 22.5017C53.8291 21.2089 57.0095 22.2233 58.3614 24.7968ZM64.355 48.8471C64.3817 48.8035 64.4085 48.7575 64.4328 48.7091C64.5933 48.3678 64.5835 47.9731 64.4085 47.6366L57.3037 34.079C58.5146 33.4326 59.4872 32.5077 60.1801 31.4231C61.6244 29.1619 61.853 26.2131 60.5205 23.6735C58.5486 19.9161 53.8972 18.4393 50.1065 20.3494L43.0017 6.79422C42.8267 6.46012 42.5057 6.2277 42.1337 6.16233C41.7617 6.09697 41.3799 6.20833 41.1027 6.46254C38.6907 8.66566 36.9619 11.9025 35.1286 15.3307C32.257 20.7029 29.0037 26.7893 22.3293 30.2586L10.0139 36.6574C7.22739 38.1075 5.17035 40.5576 4.22451 43.5596C3.27623 46.5617 3.55585 49.7453 5.00745 52.5174C8.02005 58.2648 15.1686 60.4994 20.9385 57.5022L23.7687 56.0303L30.9708 69.7743C31.7051 71.1737 32.9476 72.2074 34.4697 72.6819C35.9918 73.1589 37.6039 73.0185 39.0117 72.2897C39.9478 71.8031 40.721 71.0938 41.273 70.227C41.5526 69.7888 41.7714 69.3119 41.9343 68.8059C42.4109 67.2928 42.2699 65.6852 41.538 64.2835L34.353 50.5733C40.6797 47.7262 47.1377 48.4985 52.8735 49.1861C56.7445 49.6485 60.4014 50.0867 63.5939 49.3797C63.91 49.3071 64.1824 49.1158 64.355 48.8447V48.8471Z" fill="#3D3D3D"/>
</svg>
