<svg width="80" height="80" viewBox="0 0 80 80" fill="none" xmlns="http://www.w3.org/2000/svg">
<path d="M40.0003 6.66663C21.6003 6.66663 6.66699 21.6 6.66699 40C6.66699 58.4 21.6003 73.3333 40.0003 73.3333C58.4003 73.3333 73.3337 58.4 73.3337 40C73.3337 21.6 58.4003 6.66663 40.0003 6.66663ZM40.0003 66.6666C25.3003 66.6666 13.3337 54.7 13.3337 40C13.3337 25.3 25.3003 13.3333 40.0003 13.3333C54.7003 13.3333 66.667 25.3 66.667 40C66.667 54.7 54.7003 66.6666 40.0003 66.6666ZM52.9337 27.6333L33.3337 47.2333L27.067 40.9666C25.767 39.6666 23.667 39.6666 22.367 40.9666C21.067 42.2666 21.067 44.3666 22.367 45.6666L31.0003 54.3C32.3003 55.6 34.4003 55.6 35.7003 54.3L57.667 32.3333C58.967 31.0333 58.967 28.9333 57.667 27.6333C56.367 26.3333 54.2337 26.3333 52.9337 27.6333Z" fill="#307DC1"/>
</svg>
