<svg width="65" height="64" viewBox="0 0 65 64" fill="none" xmlns="http://www.w3.org/2000/svg">
<path d="M8.7406 61.57C8.5106 61.34 8.1906 61.21 7.8606 61.21C7.5306 61.21 7.21059 61.34 6.98059 61.57C6.75059 61.8 6.62061 62.12 6.62061 62.45C6.62061 62.78 6.75059 63.1 6.98059 63.33C7.21059 63.56 7.5306 63.69 7.8606 63.69C8.1906 63.69 8.5106 63.56 8.7406 63.33C8.9706 63.1 9.10062 62.78 9.10062 62.45C9.10062 62.12 8.9706 61.8 8.7406 61.57Z" fill="#005B91"/>
<path d="M47.3505 52.78C47.1205 52.55 46.8005 52.42 46.4705 52.42C46.1405 52.42 45.8205 52.55 45.5905 52.78C45.3605 53.01 45.2305 53.33 45.2305 53.66C45.2305 53.99 45.3605 54.31 45.5905 54.54C45.8205 54.77 46.1405 54.9 46.4705 54.9C46.8005 54.9 47.1205 54.77 47.3505 54.54C47.5805 54.31 47.7105 53.99 47.7105 53.66C47.7105 53.33 47.5805 53.01 47.3505 52.78Z" fill="#005B91"/>
<path d="M60.6204 20.11C61.5604 19.16 62.1404 17.86 62.1404 16.43V15.43C62.1404 12.55 59.8004 10.21 56.9204 10.21C54.0404 10.21 51.7004 12.55 51.7004 15.43V16.43C51.7004 17.87 52.2804 19.17 53.2204 20.11C51.1804 21.23 49.7004 23.25 49.3104 25.63H43.6104C41.5504 25.63 39.8804 27.3 39.8804 29.36C39.8804 29.8 39.9604 30.21 40.0904 30.6H25.4804C25.6204 30.21 25.6904 29.79 25.6904 29.36C25.6904 27.3 24.0204 25.63 21.9604 25.63H16.2604C15.8704 23.25 14.3904 21.23 12.3504 20.11C13.2904 19.16 13.8704 17.86 13.8704 16.43V15.43C13.8704 12.55 11.5304 10.21 8.65042 10.21C5.77042 10.21 3.43042 12.55 3.43042 15.43V16.43C3.43042 17.87 4.01041 19.17 4.95041 20.11C2.56041 21.42 0.94043 23.96 0.94043 26.87V40.82C0.94043 44.72 4.11041 47.89 8.01041 47.89H17.8604V59.77C17.8604 60.27 17.9604 60.76 18.1304 61.2H13.2104C12.5204 61.2 11.9704 61.76 11.9704 62.44C11.9704 63.12 12.5304 63.68 13.2104 63.68H57.7004C58.3904 63.68 58.9404 63.12 58.9404 62.44C58.9404 61.76 58.3804 61.2 57.7004 61.2H47.4404C47.6104 60.76 47.7104 60.27 47.7104 59.77V58.34C47.7104 57.65 47.1504 57.1 46.4704 57.1C45.7904 57.1 45.2304 57.66 45.2304 58.34V59.77C45.2304 60.56 44.5904 61.2 43.8004 61.2C43.0104 61.2 42.3704 60.56 42.3704 59.77V44.07C42.3704 42.13 43.9504 40.56 45.8804 40.56H62.1404V40.83C62.1404 43.36 60.0804 45.41 57.5604 45.41H46.4704C45.7804 45.41 45.2304 45.97 45.2304 46.65V48.64C45.2304 49.33 45.7904 49.88 46.4704 49.88C47.1504 49.88 47.7104 49.32 47.7104 48.64V47.89H57.5604C61.4604 47.89 64.6304 44.72 64.6304 40.82V26.87C64.6304 23.96 63.0104 21.42 60.6204 20.11ZM54.1804 15.43C54.1804 13.92 55.4104 12.69 56.9204 12.69C58.4304 12.69 59.6604 13.92 59.6604 15.43V16.43C59.6604 17.94 58.4304 19.17 56.9204 19.17C55.4104 19.17 54.1804 17.94 54.1804 16.43V15.43ZM5.92041 15.43C5.92041 13.92 7.15043 12.69 8.66043 12.69C10.1704 12.69 11.4004 13.92 11.4004 15.43V16.43C11.4004 17.94 10.1704 19.17 8.66043 19.17C7.15043 19.17 5.92041 17.94 5.92041 16.43V15.43ZM3.43042 26.87C3.43042 23.99 5.77042 21.65 8.65042 21.65C11.5304 21.65 13.8704 23.99 13.8704 26.87C13.8704 27.56 14.4304 28.11 15.1104 28.11H21.9504C22.6404 28.11 23.1904 28.67 23.1904 29.35C23.1904 30.03 22.6304 30.59 21.9504 30.59H14.7104C12.7304 30.59 10.9204 29.51 9.99042 27.76C9.67042 27.15 8.91042 26.93 8.31042 27.25C7.70042 27.57 7.48041 28.33 7.80042 28.93C9.05042 31.25 11.3504 32.78 13.9404 33.03C13.8904 33.16 13.8704 33.3 13.8704 33.44V38.04H3.42041V26.84L3.43042 26.87ZM18.7804 38.07H16.3704V33.47C16.3704 33.34 16.3504 33.21 16.3104 33.1H18.7804C18.3604 33.83 18.1104 34.68 18.1104 35.59C18.1104 36.5 18.3504 37.35 18.7804 38.08V38.07ZM23.2104 59.78C23.2104 60.57 22.5704 61.21 21.7804 61.21C20.9904 61.21 20.3504 60.57 20.3504 59.78V46.66C20.3504 45.97 19.7904 45.42 19.1104 45.42H8.02042C5.49042 45.42 3.44043 43.36 3.44043 40.84V40.57H19.7004C21.6404 40.57 23.2104 42.15 23.2104 44.08V59.78ZM29.0604 61.21H25.4304C25.6004 60.77 25.7004 60.28 25.7004 59.78V44.08C25.7004 42.77 25.2804 41.55 24.5604 40.57H29.0604V61.22V61.21ZM34.0404 61.21H31.5504V40.56H34.0404V61.21ZM40.1604 61.21H36.5304V40.56H41.0304C40.3104 41.55 39.8904 42.76 39.8904 44.07V59.77C39.8904 60.27 39.9904 60.76 40.1604 61.2V61.21ZM42.5004 38.07H23.1004C21.7304 38.07 20.6104 36.95 20.6104 35.58C20.6104 34.21 21.7304 33.09 23.1004 33.09H42.5004C43.8704 33.09 44.9904 34.21 44.9904 35.58C44.9904 36.95 43.8704 38.07 42.5004 38.07ZM49.2204 33.47V38.07H46.8104C47.2304 37.34 47.4804 36.49 47.4804 35.58C47.4804 34.67 47.2404 33.82 46.8104 33.09H49.2804C49.2404 33.21 49.2204 33.33 49.2204 33.46V33.47ZM62.1604 38.07H51.7104V33.47C51.7104 33.33 51.6904 33.19 51.6404 33.06C54.2304 32.81 56.5404 31.28 57.7804 28.96C58.1004 28.35 57.8804 27.6 57.2704 27.28C56.6604 26.96 55.9104 27.18 55.5904 27.79C54.6604 29.53 52.8504 30.62 50.8704 30.62H43.6304C42.9404 30.62 42.3904 30.06 42.3904 29.38C42.3904 28.7 42.9504 28.14 43.6304 28.14H50.4704C51.1604 28.14 51.7104 27.58 51.7104 26.9C51.7104 24.02 54.0504 21.68 56.9304 21.68C59.8104 21.68 62.1504 24.02 62.1504 26.9V38.1L62.1604 38.07Z" fill="#005B91"/>
<path d="M41.7406 0H23.8306C21.7706 0 20.1006 1.67 20.1006 3.73V15.92C20.1006 17.98 21.7706 19.65 23.8306 19.65H28.1706L31.9106 23.39C32.1506 23.63 32.4706 23.75 32.7906 23.75C33.1106 23.75 33.4306 23.63 33.6706 23.39L37.4106 19.65H41.7506C43.8106 19.65 45.4806 17.98 45.4806 15.92V3.73C45.4806 1.67 43.8106 0 41.7506 0H41.7406ZM42.9806 15.92C42.9806 16.61 42.4206 17.16 41.7406 17.16H36.8906C36.5606 17.16 36.2406 17.29 36.0106 17.52L32.7806 20.75L29.5506 17.52C29.3206 17.29 29.0006 17.16 28.6706 17.16H23.8206C23.1306 17.16 22.5806 16.6 22.5806 15.92V3.73C22.5806 3.04 23.1406 2.49 23.8206 2.49H41.7306C42.4206 2.49 42.9706 3.05 42.9706 3.73V15.92H42.9806Z" fill="#005B91"/>
<path d="M27.8202 8.46999C27.5902 8.23999 27.2702 8.10999 26.9402 8.10999C26.6102 8.10999 26.2902 8.23999 26.0602 8.46999C25.8302 8.69999 25.7002 9.01999 25.7002 9.34999C25.7002 9.67999 25.8302 9.99998 26.0602 10.23C26.2902 10.46 26.6102 10.59 26.9402 10.59C27.2702 10.59 27.5902 10.46 27.8202 10.23C28.0502 9.99998 28.1802 9.67999 28.1802 9.34999C28.1802 9.01999 28.0502 8.69999 27.8202 8.46999Z" fill="#005B91"/>
<path d="M33.6606 8.46999C33.4306 8.23999 33.1105 8.10999 32.7805 8.10999C32.4505 8.10999 32.1305 8.23999 31.9005 8.46999C31.6705 8.69999 31.5405 9.01999 31.5405 9.34999C31.5405 9.67999 31.6705 9.99998 31.9005 10.23C32.1305 10.46 32.4505 10.59 32.7805 10.59C33.1105 10.59 33.4306 10.46 33.6606 10.23C33.8906 9.99998 34.0205 9.67999 34.0205 9.34999C34.0205 9.01999 33.8906 8.69999 33.6606 8.46999Z" fill="#005B91"/>
<path d="M39.5106 8.46999C39.2806 8.23999 38.9606 8.10999 38.6306 8.10999C38.3006 8.10999 37.9806 8.23999 37.7506 8.46999C37.5206 8.69999 37.3906 9.01999 37.3906 9.34999C37.3906 9.67999 37.5206 9.99998 37.7506 10.23C37.9806 10.46 38.3006 10.59 38.6306 10.59C38.9606 10.59 39.2806 10.46 39.5106 10.23C39.7406 9.99998 39.8706 9.67999 39.8706 9.34999C39.8706 9.01999 39.7406 8.69999 39.5106 8.46999Z" fill="#005B91"/>
</svg>
