<svg width="62" height="61" viewBox="0 0 62 61" fill="none" xmlns="http://www.w3.org/2000/svg">
<path d="M20.5504 51.84H2.13043C1.47043 51.84 0.94043 51.31 0.94043 50.65V46.16C0.94043 42.52 3.90043 39.55 7.55043 39.55H15.1304C18.7704 39.55 21.7404 42.51 21.7404 46.16V50.65C21.7404 51.31 21.2104 51.84 20.5504 51.84ZM3.32043 49.46H19.3504V46.16C19.3504 43.83 17.4504 41.93 15.1204 41.93H7.54044C5.21044 41.93 3.31044 43.83 3.31044 46.16V49.46H3.32043Z" fill="#005B91"/>
<path d="M11.3406 41.93C8.58058 41.93 6.33057 39.68 6.33057 36.92V35.46C6.33057 32.7 8.58058 30.45 11.3406 30.45C14.1006 30.45 16.3506 32.7 16.3506 35.46V36.92C16.3506 39.68 14.1006 41.93 11.3406 41.93ZM11.3406 32.82C9.89058 32.82 8.71057 34 8.71057 35.45V36.91C8.71057 38.36 9.89058 39.54 11.3406 39.54C12.7906 39.54 13.9706 38.36 13.9706 36.91V35.45C13.9706 34 12.7906 32.82 11.3406 32.82Z" fill="#005B91"/>
<path d="M31.1706 17.59C28.1306 17.59 25.6606 15.12 25.6606 12.08V10.43C25.6606 7.39004 28.1306 4.92004 31.1706 4.92004C34.2106 4.92004 36.6806 7.39004 36.6806 10.43V12.08C36.6806 15.12 34.2106 17.59 31.1706 17.59ZM31.1706 7.30004C29.4506 7.30004 28.0506 8.70004 28.0506 10.43V12.08C28.0506 13.8 29.4506 15.21 31.1706 15.21C32.8906 15.21 34.2906 13.81 34.2906 12.08V10.43C34.2906 8.71004 32.8906 7.30004 31.1706 7.30004Z" fill="#005B91"/>
<path d="M51.5203 41.93C48.7603 41.93 46.5103 39.68 46.5103 36.92V35.46C46.5103 32.7 48.7603 30.45 51.5203 30.45C54.2803 30.45 56.5303 32.7 56.5303 35.46V36.92C56.5303 39.68 54.2803 41.93 51.5203 41.93ZM51.5203 32.82C50.0703 32.82 48.8903 34 48.8903 35.45V36.91C48.8903 38.36 50.0703 39.54 51.5203 39.54C52.9703 39.54 54.1503 38.36 54.1503 36.91V35.45C54.1503 34 52.9703 32.82 51.5203 32.82Z" fill="#005B91"/>
<path d="M6.79059 51.84C6.13059 51.84 5.60059 51.31 5.60059 50.65V46.45C5.60059 45.79 6.13059 45.26 6.79059 45.26C7.45059 45.26 7.98059 45.79 7.98059 46.45V50.65C7.98059 51.31 7.45059 51.84 6.79059 51.84Z" fill="#005B91"/>
<path d="M15.9703 51.84C15.3103 51.84 14.7803 51.31 14.7803 50.65V46.45C14.7803 45.79 15.3103 45.26 15.9703 45.26C16.6303 45.26 17.1603 45.79 17.1603 46.45V50.65C17.1603 51.31 16.6303 51.84 15.9703 51.84Z" fill="#005B91"/>
<path d="M31.2406 31.28C26.9206 31.28 22.8906 29.55 19.9106 26.42C19.7006 26.2 19.5806 25.9 19.5806 25.6V22.52C19.5806 18.49 22.8606 15.21 26.8906 15.21H35.4506C39.4806 15.21 42.7606 18.49 42.7606 22.52V25.75C42.7606 26.06 42.6406 26.36 42.4206 26.58C39.4506 29.61 35.4806 31.28 31.2506 31.28H31.2406ZM21.9706 25.11C24.4606 27.56 27.7406 28.9 31.2406 28.9C34.6706 28.9 37.9006 27.61 40.3706 25.25V22.52C40.3706 19.8 38.1606 17.59 35.4406 17.59H26.8806C24.1606 17.59 21.9506 19.8 21.9506 22.52V25.11H21.9706Z" fill="#005B91"/>
<path d="M26.0406 30.31C25.3806 30.31 24.8506 29.78 24.8506 29.12V23.2C24.8506 22.54 25.3806 22.01 26.0406 22.01C26.7006 22.01 27.2306 22.54 27.2306 23.2V29.12C27.2306 29.78 26.7006 30.31 26.0406 30.31Z" fill="#005B91"/>
<path d="M36.4005 30.31C35.7405 30.31 35.2104 29.78 35.2104 29.12V23.2C35.2104 22.54 35.7405 22.01 36.4005 22.01C37.0605 22.01 37.5905 22.54 37.5905 23.2V29.12C37.5905 29.78 37.0605 30.31 36.4005 30.31Z" fill="#005B91"/>
<path d="M60.7306 51.84H42.3106C41.6506 51.84 41.1206 51.31 41.1206 50.65V46.16C41.1206 42.52 44.0806 39.55 47.7306 39.55H55.3106C58.9506 39.55 61.9206 42.51 61.9206 46.16V50.65C61.9206 51.31 61.3906 51.84 60.7306 51.84ZM43.5006 49.46H59.5306V46.16C59.5306 43.83 57.6306 41.93 55.3006 41.93H47.7206C45.3906 41.93 43.4906 43.83 43.4906 46.16V49.46H43.5006Z" fill="#005B91"/>
<path d="M46.9805 51.84C46.3205 51.84 45.7905 51.31 45.7905 50.65V46.45C45.7905 45.79 46.3205 45.26 46.9805 45.26C47.6405 45.26 48.1705 45.79 48.1705 46.45V50.65C48.1705 51.31 47.6405 51.84 46.9805 51.84Z" fill="#005B91"/>
<path d="M56.2706 51.84C55.6106 51.84 55.0806 51.31 55.0806 50.65V46.45C55.0806 45.79 55.6106 45.26 56.2706 45.26C56.9306 45.26 57.4606 45.79 57.4606 46.45V50.65C57.4606 51.31 56.9306 51.84 56.2706 51.84Z" fill="#005B91"/>
<path d="M31.2406 31.28C23.8806 31.28 17.6106 26.27 15.9906 19.11C15.7306 17.98 15.6006 16.81 15.6006 15.64C15.6006 11.46 17.2306 7.54 20.1806 4.58C23.1306 1.63 27.0606 0 31.2406 0C33.7206 0 36.1906 0.589999 38.3806 1.72C38.9606 2.02 39.2006 2.74 38.8906 3.32C38.5906 3.9 37.8706 4.14 37.2906 3.83C35.4106 2.86 33.3706 2.37 31.2406 2.37C27.7006 2.37 24.3706 3.75 21.8706 6.25C19.3706 8.75 17.9906 12.08 17.9906 15.62C17.9906 16.61 18.1006 17.6 18.3206 18.56C19.6706 24.54 25.1106 28.88 31.2506 28.88C37.3006 28.88 42.5806 24.79 44.0906 18.94C44.3706 17.86 44.5106 16.75 44.5106 15.62C44.5106 13.97 44.2106 12.36 43.6206 10.83C43.3806 10.22 43.6906 9.53 44.3006 9.29C44.9106 9.05 45.6006 9.36 45.8406 9.97C46.5406 11.77 46.8906 13.67 46.8906 15.62C46.8906 16.95 46.7206 18.27 46.3906 19.54C44.6106 26.44 38.3806 31.26 31.2506 31.26L31.2406 31.28Z" fill="#005B91"/>
<path d="M33.6307 37.2699H28.8707C28.2107 37.2699 27.6807 36.7399 27.6807 36.0799V29.8899C27.6807 29.5399 27.8307 29.2099 28.1007 28.9799C28.3707 28.7599 28.7207 28.6499 29.0707 28.7099C30.5007 28.9499 32.0107 28.9499 33.4407 28.7099C33.7807 28.6499 34.1407 28.7499 34.4107 28.9799C34.6807 29.2099 34.8307 29.5399 34.8307 29.8899V36.0799C34.8307 36.7399 34.3007 37.2699 33.6407 37.2699H33.6307ZM30.0607 34.8899H32.4407V31.2299C31.6507 31.2899 30.8507 31.2899 30.0607 31.2299V34.8899Z" fill="#005B91"/>
<path d="M31.2406 60.99C28.1406 60.99 25.6206 58.47 25.6206 55.37V36.09C25.6206 35.43 26.1506 34.9 26.8106 34.9H35.6806C36.3406 34.9 36.8706 35.43 36.8706 36.09V55.37C36.8706 58.47 34.3506 60.99 31.2506 60.99H31.2406ZM28.0006 37.28V55.37C28.0006 57.16 29.4506 58.61 31.2406 58.61C33.0306 58.61 34.4806 57.16 34.4806 55.37V37.28H28.0006Z" fill="#005B91"/>
<path d="M41.9503 7.13998C41.8703 7.13998 41.7903 7.13998 41.7203 7.11998C41.6503 7.09998 41.5703 7.07998 41.5003 7.04998C41.4303 7.01998 41.3603 6.97998 41.3003 6.92998C41.2403 6.88998 41.1703 6.83998 41.1203 6.77998C41.0603 6.72998 41.0103 6.65998 40.9603 6.60998C40.9203 6.53998 40.8803 6.46998 40.8503 6.39998C40.8203 6.32998 40.8003 6.24998 40.7803 6.18998C40.7803 6.10998 40.7603 6.03998 40.7603 5.95998C40.7603 5.87998 40.7603 5.79998 40.7803 5.72998C40.8003 5.64998 40.8203 5.56998 40.8503 5.50998C40.8803 5.42998 40.9203 5.35998 40.9603 5.30998C41.0103 5.23998 41.0603 5.17998 41.1203 5.12998C41.5603 4.67998 42.3603 4.67998 42.8003 5.12998C42.8603 5.18998 42.9103 5.24998 42.9503 5.30998C43.0003 5.36998 43.0403 5.43998 43.0703 5.50998C43.1003 5.57998 43.1203 5.65998 43.1403 5.72998C43.1403 5.80998 43.1603 5.88998 43.1603 5.95998C43.1603 6.02998 43.1603 6.10998 43.1403 6.18998C43.1203 6.25998 43.1003 6.33998 43.0703 6.39998C43.0403 6.47998 43.0003 6.54998 42.9503 6.60998C42.9103 6.66998 42.8603 6.73998 42.8003 6.77998C42.7403 6.83998 42.6803 6.88998 42.6203 6.92998C42.5603 6.97998 42.4903 7.01998 42.4203 7.04998C42.3503 7.07998 42.2703 7.09998 42.2003 7.11998C42.1203 7.12998 42.0403 7.13998 41.9703 7.13998H41.9503Z" fill="#005B91"/>
</svg>
