<svg width="52" height="67" viewBox="0 0 52 67" fill="none" xmlns="http://www.w3.org/2000/svg">
<path d="M24.2523 33.3177C24.7327 33.3177 25.1505 32.9939 25.2654 32.5239L25.819 30.2888C26.7485 30.2888 27.5736 29.6203 27.7408 28.6699L27.9601 27.4166C28.0541 26.8943 27.9392 26.3826 27.6363 25.9439C27.4797 25.7141 27.2708 25.5261 27.0305 25.3904L27.8556 22.1108C27.9287 21.7975 27.8556 21.4737 27.6676 21.2126C27.4692 20.9619 27.1663 20.8157 26.8426 20.8157H25.1192C24.8476 19.9279 24.5239 19.0715 24.1061 18.2882C23.2392 16.6379 21.5368 15.6144 19.6672 15.6144H17.5784C17.1815 15.6144 17.0039 15.4891 16.889 15.3742C16.5966 15.0713 16.4295 14.4446 16.3877 13.63C17.735 12.69 18.6228 11.1337 18.6228 9.36863V5.20132C18.6228 2.3291 16.2832 0 13.4214 0C10.5597 0 8.22015 2.33955 8.22015 5.20132V9.36863C8.22015 11.1337 9.10794 12.69 10.4553 13.63C10.4135 14.4446 10.2463 15.0713 9.9539 15.3742C9.83901 15.4891 9.66148 15.6144 9.26459 15.6144H7.17571C5.30616 15.6144 3.60372 16.6379 2.73684 18.2882C1.91173 19.8444 0.94043 22.4555 0.94043 26.0275V29.7666C0.94043 30.2052 1.04485 30.6439 1.24329 31.0408C1.84907 32.2523 3.09192 32.9939 4.40792 32.9939C4.63769 32.9939 4.86751 32.973 5.09728 32.9208L5.91191 32.7537L6.15218 34.4039L5.11819 61.1625L3.95882 63.4811C3.62459 64.16 3.65596 64.9433 4.05284 65.5909C4.44973 66.2384 5.13907 66.6144 5.89107 66.6144H7.77105C8.34549 66.6144 8.88857 66.3847 9.30635 65.9773L10.8 64.4838C11.1342 64.1496 11.343 63.7318 11.4057 63.2722L13.4424 49.684L15.479 63.2722C15.5521 63.7318 15.761 64.1496 16.0848 64.4838L17.5784 65.9773C17.9857 66.3847 18.5288 66.6144 19.1137 66.6144H20.9936C21.7456 66.6144 22.435 66.228 22.8319 65.5909C23.2288 64.9433 23.2601 64.16 22.9259 63.4811L21.7561 61.1207L20.7325 34.3934L20.8892 33.2968H24.2732L24.2523 33.3177ZM9.29596 21.8079L9.7346 19.5937C10.6746 20.3561 11.9801 20.8261 13.4214 20.8261C14.8628 20.8261 16.1684 20.3561 17.1084 19.5937L17.5992 22.069C17.6305 22.2361 17.7141 22.3719 17.8081 22.4973L17.3904 24.1475L9.19147 25.641C9.54658 24.6384 9.72416 23.3328 9.27505 21.8079H9.29596ZM24.9939 27.1659C25.0461 27.1241 25.1506 27.0719 25.2863 27.0719C25.3177 27.0719 25.349 27.0719 25.3803 27.0719L25.8921 27.1659L25.7145 28.1895L25.2028 28.0955C24.9208 28.0432 24.7327 27.7717 24.785 27.4897C24.8163 27.3017 24.9312 27.1972 25.0043 27.1555L24.9939 27.1659ZM24.9939 25.0248C24.5761 25.077 24.1687 25.2128 23.8032 25.4635C23.2288 25.8604 22.8528 26.4557 22.7275 27.145C22.5395 28.179 22.999 29.1712 23.8136 29.7352L23.4377 31.2497H17.7768L19.8552 22.9255H25.5161L24.9834 25.0352L24.9939 25.0248ZM22.2783 19.2699C22.5395 19.7608 22.7588 20.2935 22.9572 20.8366H19.4896L18.863 17.7137H19.6881C20.7848 17.7137 21.777 18.309 22.2888 19.2699H22.2783ZM13.4319 2.09933C15.1343 2.09933 16.513 3.46754 16.5444 5.16998C14.0377 4.90887 13.3379 3.74954 13.317 3.71821C13.1708 3.41532 12.8784 3.20643 12.5546 3.15421C12.2308 3.10199 11.8861 3.20643 11.6563 3.44666C11.343 3.75999 10.8939 4.08376 10.4344 4.38665C10.7999 3.07065 12.001 2.09933 13.4319 2.09933ZM10.309 6.89331C10.8208 6.61131 11.5833 6.1622 12.2726 5.65043C13.0037 6.30842 14.3301 7.08131 16.5548 7.26931V9.38952C16.5548 11.1128 15.1552 12.5124 13.4319 12.5124C11.7086 12.5124 10.309 11.1128 10.309 9.38952V6.89331ZM13.4319 14.5908C13.7661 14.5908 14.0899 14.5491 14.4032 14.4968C14.5494 15.4995 14.8837 16.2933 15.4268 16.8468C15.6879 17.1079 15.9908 17.3064 16.325 17.4526C15.855 18.2046 14.727 18.7582 13.4424 18.7582C12.1577 18.7582 11.0297 18.215 10.5597 17.4526C10.8939 17.3064 11.1968 17.1079 11.4579 16.8468C12.001 16.2933 12.3248 15.4995 12.4815 14.4968C12.7948 14.5595 13.1186 14.5908 13.4528 14.5908H13.4319ZM4.67948 30.8946C4.04237 31.0199 3.39481 30.7066 3.10237 30.1217C3.05014 30.0172 3.01886 29.9023 3.01886 29.777V26.0379C3.01886 22.8941 3.86484 20.6277 4.57506 19.2699C5.0764 18.309 6.07905 17.7137 7.17571 17.7137H8.0008L7.20708 21.6721C7.17574 21.8497 7.18615 22.0377 7.23838 22.2048C8.05304 24.6488 6.50726 26.2781 6.44459 26.3408C6.12081 26.6646 6.04771 27.1555 6.2566 27.5628C6.43415 27.9075 6.79971 28.1163 7.17571 28.1163C7.23838 28.1163 7.30104 28.1163 7.3637 28.0955L16.8472 26.3721L16.3041 28.555L4.67948 30.8841V30.8946ZM9.30635 63.0424L7.7606 64.5569H5.88061L5.8075 64.442L6.96681 62.1129C7.10259 61.8309 7.17573 61.5385 7.19662 61.2251L7.61436 50.3525L11.155 50.8538L9.3168 63.0424H9.30635ZM13.4214 43.2816C12.7634 43.2816 12.2099 43.7516 12.1159 44.4096L11.4579 48.7963L7.68748 48.2636L8.22015 34.4143C8.22015 34.3517 8.22015 34.289 8.22015 34.2263L7.95904 32.3672L15.761 30.811L15.4477 32.0434C15.3746 32.3568 15.4477 32.6805 15.6357 32.9417C15.8237 33.2028 16.137 33.3386 16.4608 33.3386H10.3195C9.74505 33.3386 9.27505 33.8085 9.27505 34.383C9.27505 34.9574 9.74505 35.4274 10.3195 35.4274H18.6855L19.1763 48.2845L15.4059 48.8172L14.7479 44.4305C14.6539 43.7725 14.1004 43.3025 13.4424 43.3025L13.4214 43.2816ZM21.0459 64.442L20.9728 64.5569L19.0301 64.536L17.5157 63.0007L15.6983 50.8643L19.239 50.3629L19.6568 61.2356C19.6672 61.5489 19.7403 61.8413 19.8865 62.1233L21.0459 64.442Z" fill="#005B91"/>
<path d="M44.0028 32.252L45.7157 40.806C45.8202 42.4353 47.1674 43.72 48.8177 43.72C50.4679 43.72 51.9405 42.3204 51.9405 40.5971C51.9405 39.5736 51.4392 38.6753 50.6768 38.1009L48.2432 22.6641C48.097 21.7032 47.627 20.8258 46.9481 20.1261C46.687 18.7265 45.4754 17.6925 44.0341 17.6925C43.1672 17.6925 42.363 18.079 41.8094 18.6952C41.7468 18.5385 41.6841 18.267 41.6215 17.8596C42.8226 17.0136 43.6059 15.6245 43.6059 14.037V10.3919C43.6059 9.431 43.3135 8.53278 42.8121 7.78078C43.3135 7.21678 43.6059 6.48568 43.6059 5.70235C43.6059 3.97902 42.2064 2.57947 40.483 2.57947C38.7597 2.57947 37.3602 3.97902 37.3602 5.70235C37.3602 5.79635 37.3915 5.89035 37.4019 5.9739C35.5637 6.61101 34.2372 8.33434 34.2372 10.3814V14.0265C34.2372 15.6036 35.031 16.9928 36.2217 17.8492C36.159 18.2774 36.0859 18.5594 36.0233 18.7161H34.2372C31.9395 18.7161 30.0073 20.3663 29.6417 22.6432L27.2082 38.0487C26.4249 38.6127 25.9131 39.5318 25.9131 40.5658C25.9131 42.2891 27.3126 43.6887 29.036 43.6887C30.7593 43.6887 32.0335 42.3936 32.138 40.7747L33.9448 31.7298L34.2372 34.32L31.1875 60.8906L29.3493 62.7288C28.8688 63.2093 28.6913 63.909 28.8689 64.5566C29.0464 65.2041 29.5686 65.7055 30.2162 65.8726L32.4618 66.4366C32.6184 66.4679 32.7751 66.4888 32.9213 66.4888C33.4435 66.4888 33.9448 66.2904 34.3208 65.9039L36.4828 63.7419C37.0259 63.1988 37.3706 62.4781 37.4437 61.7366L38.5717 52.6395L39.3655 61.7157C39.4386 62.4782 39.7832 63.1988 40.3264 63.7419L42.4884 65.9039C42.9792 66.3948 43.6686 66.5932 44.3683 66.4261L46.593 65.8621C47.2406 65.695 47.7628 65.1937 47.9404 64.5461C48.1179 63.8986 47.9403 63.1988 47.4599 62.7184L45.653 60.9533L43.6059 34.3305L43.8461 32.2103C43.8461 32.2103 43.9506 32.2103 43.9924 32.2103L44.0028 32.252ZM48.8177 41.6416C48.2432 41.6416 47.7732 41.1716 47.7732 40.5971C47.7732 40.0227 48.2432 39.5527 48.8177 39.5527C49.3921 39.5527 49.8621 40.0227 49.8621 40.5971C49.8621 41.1716 49.3921 41.6416 48.8177 41.6416ZM48.4834 37.516C48.0448 37.5682 47.627 37.704 47.2615 37.9129L45.9455 31.312C46.3215 30.8107 46.4781 30.1736 46.3633 29.5574C46.2379 28.8263 46.1753 27.8758 46.687 26.3509C46.687 26.3301 46.6974 26.2987 46.7079 26.2778L48.4834 37.516ZM43.1777 20.4394C43.2822 20.053 43.6372 19.7919 44.0446 19.7919C44.4937 19.7919 44.8802 20.1365 44.9324 20.5856C45.1622 22.4447 45.2875 24.001 44.713 25.7138C44.055 27.6878 44.1595 29.0038 44.3161 29.9229C44.3161 29.9856 44.3162 30.0378 44.2744 30.09C44.2535 30.1214 44.1908 30.1736 44.0968 30.184C43.4283 30.2363 41.8199 30.2676 41.423 29.4843C41.4021 29.4425 41.2873 29.1709 41.329 28.4085C41.3604 27.834 40.9217 27.3432 40.3473 27.3118C39.7728 27.2805 39.2819 27.7192 39.2506 28.2936C39.2088 29.2023 39.3028 29.8916 39.5639 30.4034C39.8877 31.0405 40.5248 31.7403 41.7886 32.0745L41.6528 33.3174H36.2322L35.334 25.2334C35.6577 24.5963 35.971 23.3221 35.5637 20.9407C36.1068 22.0896 37.4123 22.9043 38.9372 22.9043C39.4595 22.9043 39.9504 22.8103 40.3995 22.6432C40.2115 23.3325 40.0235 24.0427 39.8563 24.7529C39.7206 25.3169 40.0653 25.8705 40.6293 26.0063C41.1933 26.1421 41.7468 25.7974 41.8826 25.2334C42.175 24.001 42.5406 22.7267 42.8539 21.6092L43.1777 20.4394ZM36.3366 14.0579V12.9194C37.2139 12.7837 38.4673 12.439 39.4282 11.593C39.919 12.1048 40.6188 12.6374 41.5379 12.8777V14.0474C41.5379 15.4783 40.3681 16.6481 38.9372 16.6481C37.5063 16.6481 36.3366 15.4783 36.3366 14.0474V14.0579ZM40.5039 4.68924C41.0783 4.68924 41.5483 5.15924 41.5483 5.73368C41.5483 5.98435 41.4543 6.20368 41.2977 6.39168C40.7441 6.0679 40.1384 5.85901 39.4699 5.7859C39.4699 5.76501 39.4699 5.75457 39.4699 5.73368C39.4699 5.15924 39.9399 4.68924 40.5143 4.68924H40.5039ZM38.9477 7.81212C40.3786 7.81212 41.5483 8.98189 41.5483 10.4128V10.6321C40.8068 10.1934 40.3995 9.431 40.3995 9.431C40.0444 8.72078 38.8851 8.72078 38.5404 9.431C38.1226 10.2666 37.1304 10.6321 36.347 10.7992V10.4232C36.347 8.99234 37.5168 7.82256 38.9477 7.82256V7.81212ZM38.9477 18.737C39.1984 18.737 39.4386 18.7056 39.6788 18.6639C39.825 19.3532 40.0444 19.8754 40.3368 20.2305C40.0757 20.5752 39.543 20.8154 38.9477 20.8154C38.3524 20.8154 37.8197 20.5647 37.5586 20.2305C37.8511 19.8754 38.0704 19.3532 38.2166 18.6639C38.4569 18.7056 38.697 18.737 38.9477 18.737ZM29.0569 41.6416C28.4824 41.6416 28.0124 41.1716 28.0124 40.5971C28.0124 40.0227 28.4824 39.5527 29.0569 39.5527C29.6313 39.5527 30.1013 40.0227 30.1013 40.5971C30.1013 41.1716 29.6313 41.6416 29.0569 41.6416ZM30.6131 37.9129C30.258 37.704 29.8506 37.5682 29.4224 37.516L31.7097 22.9983C31.8664 22.0165 32.5453 21.2541 33.4435 20.9616C33.9449 23.5205 33.4435 24.3247 33.4435 24.3352C33.4853 24.283 33.5062 24.2621 33.5062 24.2621H33.5166C33.3704 24.4187 33.2555 24.5858 33.2137 24.7947L30.5922 37.9234L30.6131 37.9129ZM35.3862 61.5486C35.3548 61.8306 35.2295 62.1022 35.0206 62.311L32.8899 64.4417L31.0831 63.9821L32.6602 62.405C32.984 62.0813 33.1824 61.653 33.2242 61.2039L34.4775 50.3835L36.7126 50.7491L35.3653 61.5486H35.3862ZM37.381 45.5269L36.9946 48.6811L34.7386 48.3051L36.2322 35.3958H41.6319L42.6137 48.2111L40.3264 48.5975L40.0548 45.5687C39.9921 44.8793 39.449 44.3571 38.7597 44.3362C38.0808 44.2944 37.4855 44.8062 37.381 45.5164V45.5269ZM45.7575 63.9821L43.9506 64.4417L41.8199 62.311C41.611 62.1022 41.4857 61.8306 41.4544 61.559L40.5039 50.676L42.7704 50.3L43.6059 61.1726C43.6477 61.6322 43.8566 62.0708 44.1803 62.3946L45.7575 63.9717V63.9821Z" fill="#005B91"/>
</svg>
