<svg width="88" height="81" viewBox="0 0 88 81" fill="none" xmlns="http://www.w3.org/2000/svg">
<path d="M71.9939 3.31837C71.9939 7.84506 75.6625 11.5137 80.1892 11.5137C75.6625 11.5137 71.9939 15.1824 71.9939 19.709C71.9939 15.1824 68.3252 11.5137 63.7986 11.5137C68.3252 11.5137 71.9939 7.84506 71.9939 3.31837V1.72302V3.31674V3.31837Z" fill="#FEEF8F"/>
<path d="M69.0576 9.60046C67.6335 10.7929 65.8 11.5123 63.7969 11.5123C68.3236 11.5123 71.9922 15.1809 71.9922 19.7076C71.9922 17.7045 72.7116 15.8709 73.904 14.4469C73.0754 12.2072 71.2973 10.4275 69.0576 9.60046Z" fill="#FDE31D"/>
<path d="M71.9929 22.5266C71.3175 22.5266 70.7695 21.9785 70.7695 21.3032V19.7095C70.7695 15.8663 67.6424 12.7375 63.7975 12.7375H62.2022C61.5269 12.7375 60.9788 12.1894 60.9788 11.5141C60.9788 10.8388 61.5269 10.2907 62.2022 10.2907H63.7975C67.6407 10.2907 70.7695 7.16361 70.7695 3.32041V1.72343C70.7695 1.0481 71.3175 0.5 71.9929 0.5C72.6682 0.5 73.2163 1.0481 73.2163 1.72343V3.31715C73.2163 7.16034 76.3434 10.2874 80.1882 10.2874H81.7819C82.4573 10.2874 83.0054 10.8355 83.0054 11.5109C83.0054 12.1862 82.4573 12.7343 81.7819 12.7343H80.1882C76.345 12.7343 73.2163 15.8614 73.2163 19.7062V21.2999C73.2163 21.9752 72.6682 22.5233 71.9929 22.5233V22.5266ZM68.4368 11.5141C69.9179 12.3558 71.1512 13.5874 71.9929 15.0702C72.8346 13.5891 74.0662 12.3558 75.549 11.5141C74.0678 10.6724 72.8346 9.44081 71.9929 7.95802C71.1512 9.43918 69.9196 10.6724 68.4368 11.5141Z" fill="#3D3D3D"/>
<path d="M9.52837 15.0032C9.52837 18.533 12.3898 21.3945 15.9196 21.3945C12.3898 21.3945 9.52837 24.2559 9.52837 27.7857C9.52837 24.2559 6.66694 21.3945 3.13716 21.3945C6.66694 21.3945 9.52837 18.533 9.52837 15.0032Z" fill="#FDE31D"/>
<path d="M9.52761 30.6753C8.80703 30.6753 8.22221 30.0905 8.22221 29.3699V27.9444C8.22221 25.1404 5.94039 22.8586 3.1364 22.8586H1.71091C0.990334 22.8586 0.405518 22.2738 0.405518 21.5532C0.405518 20.8326 0.990334 20.2478 1.71091 20.2478H3.1364C5.94039 20.2478 8.22221 17.966 8.22221 15.162V13.7365C8.22221 13.0159 8.80703 12.4311 9.52761 12.4311C10.2482 12.4311 10.833 13.0159 10.833 13.7365V15.162C10.833 17.966 13.1148 20.2478 15.9188 20.2478H17.3443C18.0649 20.2478 18.6497 20.8326 18.6497 21.5532C18.6497 22.2738 18.0649 22.8586 17.3443 22.8586H15.9188C13.1148 22.8586 10.833 25.1404 10.833 27.9444V29.3699C10.833 30.0905 10.2482 30.6753 9.52761 30.6753ZM7.42157 21.5532C8.2518 22.1119 8.9689 22.829 9.52761 23.6592C10.0863 22.829 10.8034 22.1119 11.6336 21.5532C10.8034 20.9945 10.0863 20.2774 9.52761 19.4471C8.9689 20.2774 8.2518 20.9945 7.42157 21.5532Z" fill="#3D3D3D"/>
<path d="M71.3822 30.8239C71.3822 30.1036 71.6728 29.4506 72.1447 28.9787C72.6212 28.5037 73.2805 28.21 74.0086 28.2147C75.4538 28.2256 76.599 29.4474 76.599 30.8911V47.4148C76.599 48.0241 77.3021 48.3632 77.7786 47.9851L81.9267 44.6806C82.4204 44.2869 83.0173 44.0901 83.6141 44.0901C84.1765 44.0901 84.7374 44.2635 85.214 44.615C86.2889 45.4009 86.6295 46.8508 86.0217 48.0351L85.2155 49.6037C83.6906 52.5707 81.8986 55.383 79.8659 58.0093C77.8317 60.6341 75.5553 63.073 73.0665 65.29V77.5922C73.0665 78.5015 72.329 79.2374 71.4213 79.2374H59.3284C58.4191 79.2374 57.6833 78.4999 57.6833 77.5922V63.6745L57.1755 62.3871C56.2224 59.9717 55.7334 57.3984 55.7334 54.8018V29.0412C55.7334 28.321 56.024 27.6694 56.4974 27.196C56.9692 26.7226 57.6223 26.432 58.341 26.432C59.3066 26.432 60.1518 26.9586 60.6018 27.7397H64.2703C65.3639 28.0491 66.167 29.0537 66.167 30.2474V27.6085C66.167 26.168 67.3075 24.9493 68.748 24.9353C69.4792 24.9275 70.1417 25.2212 70.6182 25.6993C71.09 26.1711 71.3822 26.8226 71.3822 27.5429V30.8223V30.8239Z" fill="#FFCFBF"/>
<path d="M60.9867 62.9261L60.4789 61.6387C59.5259 59.2233 59.0369 56.65 59.0369 54.0533V28.2928C59.0369 27.7085 59.2306 27.1694 59.5571 26.7335C59.1931 26.5414 58.7806 26.432 58.34 26.432C57.6213 26.432 56.9683 26.7226 56.4964 27.196C56.023 27.6694 55.7324 28.3209 55.7324 29.0412V54.8017C55.7324 57.3984 56.2214 59.9716 57.1745 62.3871L57.6823 63.6745V77.5922C57.6823 78.5015 58.4197 79.2374 59.3275 79.2374H60.9851V62.9245L60.9867 62.9261Z" fill="#FFB09E"/>
<path d="M63.1236 27.7417H60.6003C60.8206 28.1261 60.9488 28.5682 60.9488 29.0432V42.2C62.3424 42.2 63.472 41.0704 63.472 39.6768V29.0416C63.472 28.5667 63.3454 28.1245 63.1236 27.7402V27.7417Z" fill="#FFB09E"/>
<path d="M68.7732 27.7819C68.7732 26.7335 69.3935 25.832 70.2841 25.4164C69.831 25.093 69.2685 24.9118 68.6623 24.9368C67.2546 24.9946 66.1641 26.2008 66.1641 27.61V42.198C67.6046 42.198 68.7732 41.0309 68.7732 39.5888V27.7803V27.7819Z" fill="#FFB09E"/>
<path d="M46.7594 8.51011C46.7594 7.66486 47.1032 6.89773 47.6562 6.34465C48.2109 5.79 48.9765 5.44784 49.8217 5.44784C51.5138 5.44784 52.8855 6.81805 52.8855 8.51167V27.9992C52.8855 28.7133 53.712 29.1132 54.2714 28.6664L59.1429 24.7854C59.721 24.3245 60.4225 24.0933 61.124 24.0933C61.7833 24.0933 62.4442 24.2964 63.0051 24.7089C64.2659 25.6322 64.6675 27.3368 63.9519 28.7273L63.0051 30.5694C61.2146 34.0519 59.1101 37.3563 56.7196 40.4405C54.3323 43.5246 51.6606 46.3869 48.7359 48.993V57.3986H28.3765V12.2848C28.3765 11.4396 28.7202 10.6724 29.2733 10.1194C29.8279 9.56471 30.5935 9.22255 31.4387 9.22255C33.1324 9.22255 34.5026 10.5928 34.5026 12.2864V7.83672C34.5026 6.14466 35.8743 4.77289 37.568 4.77289C38.4132 4.77289 39.1788 5.11661 39.7334 5.6697C40.2881 6.22278 40.6302 6.98991 40.6302 7.83516V4.65727C40.6302 2.96522 42.0004 1.59344 43.694 1.59344C44.5393 1.59344 45.3049 1.93717 45.8595 2.49025C46.4142 3.04333 46.7563 3.81046 46.7563 4.65571V8.50854L46.7594 8.51011Z" fill="#F7DBC6"/>
<path d="M31.8015 56.6943V11.5821C31.8015 10.7619 32.1249 10.0182 32.6499 9.46979C32.2796 9.31043 31.8718 9.22137 31.4421 9.22137C30.5969 9.22137 29.8313 9.5651 29.2767 10.1182C28.722 10.6713 28.3799 11.4384 28.3799 12.2836V57.3958H48.7393V56.6928H31.8015V56.6943Z" fill="#E8BC9C"/>
<path d="M60.8021 26.9324C61.402 26.4637 62.1317 26.2278 62.8613 26.2278C63.3222 26.2278 63.7831 26.3231 64.2128 26.5121C64.0393 25.809 63.6284 25.1638 63.0066 24.7076C62.4457 24.2951 61.7848 24.092 61.1255 24.092C60.424 24.092 59.7225 24.3232 59.1444 24.7841L54.6963 28.326C55.515 29.5134 57.1648 29.7681 58.3023 28.8807L60.8021 26.9308V26.9324Z" fill="#E8BC9C"/>
<path d="M48.5395 53.4456H33.4531V60.4623L35.1921 63.2527H50.0753L51.7361 60.4623V56.6422C51.7361 54.8768 50.305 53.4456 48.5395 53.4456Z" fill="#C8EFFE"/>
<path d="M51.7361 60.462V77.2811C51.7361 78.3622 50.8596 79.2387 49.7784 79.2387H33.4531V60.462H51.7361Z" fill="#99E6FC"/>
<path d="M33.4512 37.1857C33.4512 35.7905 34.5839 34.6593 35.9776 34.6593C36.6759 34.6593 37.3071 34.9421 37.7649 35.3983C38.2211 35.8561 38.5039 36.4873 38.5039 37.1857V57.2982C38.5039 59.8121 38.0305 62.3056 37.1087 64.6429L36.615 65.8913V76.7951H21.8052L21.7146 67.4584C19.3023 65.3101 17.0993 62.9478 15.1307 60.4042C13.1605 57.8606 11.4247 55.1374 9.94828 52.2642L9.16709 50.744C8.57808 49.5972 8.9093 48.1926 9.94828 47.4302C10.4123 47.0912 10.956 46.9224 11.4997 46.9224C12.0778 46.9224 12.6559 47.113 13.134 47.4942L17.1509 50.694C17.6133 51.0627 18.2945 50.7331 18.2945 50.144V34.0734C18.2945 32.6782 19.4257 31.547 20.8209 31.547C21.5193 31.547 22.1505 31.8283 22.6083 32.286C23.0645 32.7438 23.3473 33.3766 23.3473 34.0734V30.8971C23.3473 30.2003 23.6301 29.5675 24.0863 29.1097C24.5441 28.6519 25.1753 28.3691 25.8736 28.3691C27.2688 28.3691 28.4 29.5019 28.4 30.8971V33.5156C28.4 32.8188 28.6828 32.1876 29.139 31.7298C29.5968 31.272 30.228 30.9893 30.9264 30.9893C32.3216 30.9893 33.4527 32.122 33.4527 33.5156V37.1857H33.4512Z" fill="#FFE5C2"/>
<path d="M24.56 75.9671L24.4835 67.4974C24.4741 66.4662 24.0491 65.4819 23.3007 64.7742C21.3415 62.9196 19.5307 60.9198 17.8855 58.7934C15.9154 56.2498 14.1796 53.5266 12.7031 50.6534L11.9219 49.1332C11.561 48.4317 11.5469 47.6333 11.8266 46.9459C11.7188 46.9318 11.6094 46.9224 11.5001 46.9224C10.9548 46.9224 10.4111 47.0912 9.94863 47.4302C8.90809 48.1926 8.57842 49.5972 9.16744 50.744L9.94863 52.2642C11.4251 55.1359 13.1609 57.8607 15.131 60.4042C17.0996 62.9478 19.3026 65.3101 21.7149 67.4584L21.8055 76.7951H36.6154V75.9671H24.5616H24.56Z" fill="#FED2A4"/>
<path d="M26.0207 34.0748V30.8985C26.0207 30.2017 26.3035 29.5689 26.7598 29.1111C26.8941 28.9767 27.0441 28.8533 27.2066 28.7518C26.8191 28.508 26.3629 28.3705 25.8723 28.3705C25.1739 28.3705 24.5427 28.6533 24.085 29.1111C23.6287 29.5689 23.3459 30.2017 23.3459 30.8985V45.8067C24.824 45.8067 26.0207 44.6084 26.0207 43.1319V34.0748Z" fill="#FED2A4"/>
<path d="M31.6735 31.7316C31.8282 31.5769 32 31.441 32.1906 31.33C31.8172 31.1129 31.3876 30.9894 30.9251 30.9894C30.2267 30.9894 29.5955 31.2722 29.1377 31.73C28.6815 32.1878 28.3987 32.819 28.3987 33.5158L28.3784 45.8055C29.7799 45.8055 30.9173 44.6712 30.9189 43.2698L30.9345 33.5174C30.9345 32.8206 31.2173 32.1893 31.6735 31.7316Z" fill="#FED2A4"/>
<path d="M35.979 37.4963C35.979 36.4558 36.6071 35.5606 37.5039 35.1731C37.0305 34.8137 36.4305 34.6184 35.779 34.6684C34.4541 34.7716 33.4526 35.9199 33.4526 37.2495V47.1347C34.8478 47.1347 35.979 46.0035 35.979 44.6083V37.4963Z" fill="#FED2A4"/>
<path d="M22.2517 31.9907C21.8236 31.6955 21.3065 31.5314 20.7424 31.5486C19.366 31.5892 18.2942 32.7704 18.2942 34.1484V49.4785C19.8784 49.4785 21.1643 48.1942 21.1643 46.6084V34.0734C21.1643 33.211 21.5924 32.447 22.2517 31.9907Z" fill="#FED2A4"/>
<path d="M73.9909 30.8242C73.9909 30.104 74.2815 29.4509 74.7534 28.9791C74.9143 28.8181 75.0908 28.6869 75.2893 28.5713C74.9049 28.3494 74.4659 28.2135 73.9909 28.2135C73.2707 28.2135 72.6191 28.5057 72.1457 28.9775C71.6739 29.4493 71.3833 30.1024 71.3833 30.8227V42.9374C72.8238 42.9374 73.9925 41.7703 73.9925 40.3282V30.8227L73.9909 30.8242Z" fill="#FFB09E"/>
<path d="M85.5509 44.9044C85.4478 44.7997 85.3369 44.7028 85.2166 44.6154C84.7385 44.2638 84.1776 44.0904 83.6167 44.0904C83.0199 44.0904 82.423 44.2873 81.9293 44.681L77.7812 47.9854C77.625 48.1088 77.4453 48.1557 77.2734 48.1416C78.2702 49.5665 80.3107 49.7493 81.5466 48.5244L84.7151 45.3825C84.9541 45.145 85.2447 44.9841 85.5525 44.9044H85.5509Z" fill="#FFB09E"/>
<path d="M36.6736 71.1302H21.6638C20.2952 71.1302 19.1843 72.2395 19.1843 73.6098V78.2719C19.1843 78.8062 19.6171 79.239 20.1514 79.239H38.1844C38.7188 79.239 39.1516 78.8062 39.1516 78.2719V73.6098C39.1516 72.2411 38.0407 71.1302 36.6721 71.1302H36.6736Z" fill="#91DEB6"/>
<path d="M23.3824 78.7187V73.4941C23.3824 72.4942 23.8558 71.6193 24.5636 71.1302H21.6638C20.2952 71.1302 19.1843 72.2395 19.1843 73.6098V78.2719C19.1843 78.8062 19.6171 79.239 20.1514 79.239H23.5012C23.4246 79.0843 23.3824 78.9078 23.3824 78.7187Z" fill="#6ED5A1"/>
<path d="M49.8224 8.51024C49.8224 7.66499 50.1661 6.89786 50.7192 6.34478C50.9067 6.15573 51.1223 5.99168 51.3535 5.85732C50.902 5.5964 50.3801 5.44641 49.8208 5.44641C48.9756 5.44641 48.21 5.79014 47.6554 6.34322C47.1007 6.8963 46.7585 7.66343 46.7585 8.50868V22.7357C48.4506 22.7357 49.8224 21.3639 49.8224 19.6719V8.51024Z" fill="#E8BC9C"/>
<path d="M43.6954 4.65715C43.6954 3.52442 44.3141 2.53544 45.2297 2.00579C44.6985 1.698 44.0657 1.54332 43.3923 1.60894C41.8128 1.76362 40.6316 3.14008 40.6316 4.72746V21.8715C42.3237 21.8715 43.6954 20.4997 43.6954 18.8076V4.65715Z" fill="#E8BC9C"/>
<path d="M37.9909 7.83508C37.9909 6.7914 38.5112 5.86648 39.308 5.31339C38.7737 4.94311 38.1206 4.74 37.4144 4.77593C35.7692 4.85718 34.5037 6.26801 34.5037 7.91476V21.8715C36.4301 21.8715 37.9909 20.3107 37.9909 18.3843V7.83508Z" fill="#E8BC9C"/>
<path d="M28.4617 20.625C29.1101 20.625 29.6366 20.0985 29.6366 19.4501V12.3663C29.6366 11.3242 30.4834 10.4774 31.5255 10.4774C32.5676 10.4774 33.4144 11.3242 33.4144 12.3663V21.9531C33.4144 22.6014 33.9409 23.128 34.5893 23.128C35.2377 23.128 35.7642 22.6014 35.7642 21.9531V7.91662C35.7642 6.87452 36.6111 6.0277 37.6532 6.0277C38.6953 6.0277 39.5421 6.87452 39.5421 7.91662V21.9531C39.5421 22.6014 40.0686 23.128 40.717 23.128C41.3654 23.128 41.8919 22.6014 41.8919 21.9531V4.7403C41.8919 3.69819 42.7387 2.85138 43.7808 2.85138C44.8229 2.85138 45.6697 3.69819 45.6697 4.7403V22.8186C45.6697 23.467 46.1963 23.9935 46.8447 23.9935C47.493 23.9935 48.0196 23.467 48.0196 22.8186V8.59157C48.0196 7.54946 48.8664 6.70265 49.9085 6.70265C50.9506 6.70265 51.7974 7.54946 51.7974 8.59157V13.4037C51.7974 14.0521 52.3239 14.5786 52.9723 14.5786C53.6207 14.5786 54.1472 14.0521 54.1472 13.4037V8.59157C54.1472 6.25425 52.2458 4.35283 49.9085 4.35283C49.2304 4.35283 48.5883 4.51376 48.0196 4.79811V4.73874C48.0196 2.40142 46.1181 0.5 43.7808 0.5C41.645 0.5 39.8749 2.08738 39.5858 4.14504C39.0062 3.84662 38.35 3.67788 37.6547 3.67788C35.3174 3.67788 33.416 5.5793 33.416 7.91662V8.57439C32.8473 8.29003 32.2051 8.12911 31.5271 8.12911C29.1897 8.12911 27.2883 10.0305 27.2883 12.3678V19.4517C27.2883 20.1001 27.8149 20.6266 28.4632 20.6266L28.4617 20.625Z" fill="#3D3D3D"/>
<path d="M76.1583 60.7592C74.9475 62.0778 73.6726 63.3355 72.3695 64.4964C72.1196 64.7198 71.9758 65.0385 71.9758 65.3729V79.3202C71.9758 79.9686 72.5024 80.4952 73.1507 80.4952C73.7991 80.4952 74.3257 79.9686 74.3257 79.3202V65.8963C75.5506 64.7823 76.7473 63.5918 77.8894 62.3481C78.3285 61.87 78.2972 61.1279 77.8191 60.6888C77.341 60.2498 76.5989 60.2811 76.1599 60.7592H76.1583Z" fill="#3D3D3D"/>
<path d="M85.9932 43.7481C84.584 42.7154 82.6451 42.7529 81.278 43.8419L77.8564 46.5682V30.9038C77.8564 28.818 76.1596 27.1213 74.0738 27.1213C73.5645 27.1213 73.077 27.2228 72.6333 27.4072C72.5208 25.423 70.8694 23.8418 68.857 23.8418C67.3072 23.8418 65.9729 24.7777 65.3901 26.1151C65.1276 25.2308 64.5824 24.4262 63.7855 23.8418C62.2044 22.6825 60.0296 22.7263 58.4969 23.9481L54.1457 27.415V18.411C54.1457 17.7626 53.6191 17.2361 52.9707 17.2361C52.3224 17.2361 51.7958 17.7626 51.7958 18.411V28.0806C51.7958 28.8664 52.2364 29.5664 52.9442 29.9086C53.652 30.2492 54.4738 30.157 55.0893 29.6679L59.9608 25.787C60.667 25.2245 61.6685 25.2042 62.3966 25.7386C63.1965 26.3245 63.4481 27.39 62.995 28.2727L62.0482 30.1164C58.5188 36.9815 53.8066 43.0669 48.043 48.2009C47.793 48.4243 47.6493 48.7431 47.6493 49.0774V52.3568H39.7655V37.2721C39.7655 35.2316 38.1047 33.5708 36.0642 33.5708C35.5877 33.5708 35.1315 33.663 34.7128 33.827V33.602C34.7128 31.5616 33.052 29.9007 31.0115 29.9007C30.5256 29.9007 30.0616 29.996 29.635 30.1663C29.6366 30.1398 29.6397 30.1148 29.6397 30.0882V24.4574C29.6397 23.809 29.1132 23.2825 28.4648 23.2825C27.8164 23.2825 27.2899 23.809 27.2899 24.4574V27.5291C26.8759 27.3697 26.4275 27.2806 25.9587 27.2806C24.0073 27.2806 22.4043 28.7993 22.2684 30.7179C21.8466 30.5507 21.3872 30.457 20.906 30.457C18.8655 30.457 17.2047 32.1178 17.2047 34.1582V49.2524L13.9503 46.6604C12.6129 45.5949 10.7177 45.5574 9.3397 46.5682C7.82575 47.6791 7.34922 49.6961 8.20853 51.3663L8.98972 52.8865C11.9411 58.6267 15.8533 63.731 20.6263 68.0666V70.218C19.1593 70.6929 18.0953 72.071 18.0953 73.6943V79.3251C18.0953 79.9735 18.6218 80.5 19.2702 80.5C19.9186 80.5 20.4451 79.9735 20.4451 79.3251V73.6943C20.4451 72.9756 21.031 72.3897 21.7497 72.3897H36.7595C37.4782 72.3897 38.0641 72.974 38.0641 73.6943V79.3251C38.0641 79.9735 38.5906 80.5 39.239 80.5C39.8874 80.5 40.4139 79.9735 40.4139 79.3251V73.6943C40.4139 72.0694 39.3468 70.6883 37.8766 70.2164V66.2011L38.2875 65.1606C38.7296 64.0388 39.0734 62.8904 39.3171 61.7218H50.6459V79.3251C50.6459 79.9735 51.1725 80.5 51.8208 80.5C52.4692 80.5 52.9957 79.9735 52.9957 79.3251V56.7284C52.9957 54.7988 51.738 53.1583 49.9991 52.5803V49.6024C51.6318 48.1244 53.1801 46.5682 54.6441 44.9449V54.8879C54.6441 57.6439 55.1565 60.339 56.1674 62.9029L56.5939 63.9841V79.3251C56.5939 79.9735 57.1204 80.5 57.7688 80.5C58.4172 80.5 58.9437 79.9735 58.9437 79.3251V63.7607C58.9437 63.6138 58.9156 63.4669 58.8625 63.3294L58.3547 62.0405C57.4517 59.7532 56.9954 57.3471 56.9954 54.8879V42.1936C58.0001 40.9468 58.9547 39.6594 59.8624 38.3407V42.2857C59.8624 42.9341 60.3889 43.4606 61.0373 43.4606C61.6857 43.4606 62.2122 42.9341 62.2122 42.2857V34.6707C62.8872 33.5333 63.5324 32.374 64.1402 31.1913L64.9183 29.6773C65.0214 29.8757 65.0792 30.1007 65.0792 30.3335V42.2842C65.0792 42.9326 65.6057 43.4591 66.2541 43.4591C66.9025 43.4591 67.429 42.9326 67.429 42.2842V27.6275C67.429 26.8369 68.0727 26.1932 68.8633 26.1932C69.6539 26.1932 70.2976 26.8369 70.2976 27.6275V43.0201C70.2976 43.6684 70.8241 44.195 71.4725 44.195C72.1209 44.195 72.6474 43.6684 72.6474 43.0201V30.9069C72.6474 30.1164 73.2911 29.4727 74.0816 29.4727C74.8722 29.4727 75.5159 30.1164 75.5159 30.9069V47.4994C75.5159 48.2368 75.9284 48.893 76.5924 49.2133C77.2564 49.5336 78.0267 49.4461 78.6032 48.9884L82.7513 45.6839C83.2919 45.2543 84.0574 45.2386 84.6137 45.6464C85.2245 46.0948 85.4167 46.9088 85.0699 47.5838L84.2637 49.1524C82.856 51.8913 81.1889 54.5332 79.3094 57.0049C78.9172 57.5205 79.0172 58.258 79.5328 58.6517C79.7453 58.8126 79.9953 58.8907 80.2437 58.8907C80.5983 58.8907 80.9483 58.7314 81.1795 58.4267C83.1419 55.8456 84.8839 53.0865 86.3541 50.2258L87.1603 48.6571C88.0384 46.9494 87.5509 44.8871 86.0042 43.7513L85.9932 43.7481ZM11.0755 51.8085L10.2943 50.2883C9.96777 49.6508 10.149 48.8821 10.7255 48.4587C11.2505 48.0728 11.9739 48.0884 12.4848 48.4931L16.5017 51.6928C17.0704 52.1459 17.8328 52.2319 18.4874 51.9163C19.1436 51.6007 19.5514 50.9523 19.5514 50.2242V34.1535C19.5514 33.4083 20.1576 32.8021 20.9029 32.8021C21.6481 32.8021 22.2543 33.4083 22.2543 34.1535V45.8855C22.2543 46.5339 22.7809 47.0604 23.4293 47.0604C24.0776 47.0604 24.6042 46.5339 24.6042 45.8855V30.9772C24.6042 30.232 25.2104 29.6258 25.9556 29.6258C26.7009 29.6258 27.3071 30.232 27.3071 30.9772V45.173C27.3071 45.8214 27.8336 46.3479 28.482 46.3479C29.1304 46.3479 29.6569 45.8214 29.6569 45.173V33.5973C29.6569 32.8521 30.2631 32.2459 31.0084 32.2459C31.7536 32.2459 32.3598 32.8521 32.3598 33.5973V45.173C32.3598 45.8214 32.8863 46.3479 33.5347 46.3479C34.1831 46.3479 34.7096 45.8214 34.7096 45.173V37.2674C34.7096 36.5221 35.3158 35.9159 36.0611 35.9159C36.8064 35.9159 37.4126 36.5221 37.4126 37.2674V57.3799C37.4126 59.7563 36.9704 62.0827 36.0986 64.2934L35.6064 65.5418C35.5518 65.6793 35.5252 65.8246 35.5252 65.973V70.0368H22.9746V67.5385C22.9746 67.2026 22.8309 66.8839 22.5809 66.662C17.8469 62.4451 13.9753 57.4487 11.0771 51.8085H11.0755ZM50.6428 56.7237V59.3688H39.6702C39.7311 58.7095 39.7624 58.047 39.7624 57.3799V54.702H48.6211C49.7366 54.702 50.6428 55.6097 50.6428 56.7237Z" fill="#3D3D3D"/>
</svg>
