<svg width="78" height="80" viewBox="0 0 78 80" fill="none" xmlns="http://www.w3.org/2000/svg">
<g clip-path="url(#clip0_73_26113)">
<path fill-rule="evenodd" clip-rule="evenodd" d="M64.3815 61.4391H66.0061C68.7947 61.4391 71.078 59.1926 71.078 56.4489C71.078 53.7053 68.7947 51.4587 66.0061 51.4587H67.6308C70.4193 51.4587 72.7027 49.2122 72.7027 46.4686C72.7027 43.7249 70.4193 41.4784 67.6308 41.4784H69.2554C72.0439 41.4784 74.3273 39.2318 74.3273 36.4882C74.3273 33.7445 72.0439 31.498 69.2554 31.498H50.9561C51.243 25.7841 54.561 20.7661 51.9462 13.3265C49.5659 6.55098 41.4387 5.47341 40.6991 12.2847C39.5877 22.4878 40.594 35.0448 25.7622 35.0448H8.2793V66.8627H20.8116C23.8224 66.8627 26.4048 67.4194 29.1408 68.66C33.2428 70.5209 37.7328 71.4394 42.6066 71.4235H64.3855C67.1741 71.4235 69.4575 69.1769 69.4575 66.4333C69.4575 63.6897 67.1741 61.4431 64.3855 61.4431L64.3815 61.4391Z" fill="#F1D0A5"/>
<path fill-rule="evenodd" clip-rule="evenodd" d="M71.0731 56.5864C70.5914 54.2734 68.5433 52.5183 66.1067 52.5142H59.2745C58.1573 52.5142 57.2507 53.4264 57.2507 54.5503C57.2507 55.6742 58.1573 56.5864 59.2745 56.5864H71.0731ZM72.7002 46.3653C72.2185 44.0482 70.1664 42.2931 67.7257 42.2931H60.3066C59.1895 42.2931 58.2828 43.2053 58.2828 44.3292C58.2828 45.4531 59.1895 46.3653 60.3066 46.3653H72.7002ZM74.3273 36.1441C73.8456 33.8311 71.7976 32.076 69.361 32.0719H51.0255C51.3129 26.2202 54.6359 21.0812 52.0172 13.4621C49.9691 7.50863 43.6873 5.85125 41.4774 9.90713C53.4662 10.7704 47.7227 27.0917 47.3827 34.0103C47.3301 35.1546 48.257 36.14 49.3984 36.14H74.3273V36.1441ZM39.2593 25.2144C37.871 31.1272 34.6572 35.7084 25.789 35.7084H8.2793V41.385H24.1619C35.827 41.385 38.3243 33.5909 39.2593 25.2144ZM69.4459 66.8157C68.9643 64.4986 66.9122 62.7435 64.4715 62.7435H59.6185C58.5014 62.7435 57.5947 63.6557 57.5947 64.7796C57.5947 65.9035 58.5014 66.8157 59.6185 66.8157H69.4459Z" fill="#E8C290"/>
<path d="M3.67188 31.4883H17.4959V71.4243H3.67188V31.4883Z" fill="#57A4FF"/>
<path d="M3.67188 67.584H17.4959V71.424H3.67188V67.584Z" fill="#268BFF"/>
<path d="M3.67188 31.4883H17.4959V40.7043H3.67188V31.4883Z" fill="#268BFF"/>
<path fill-rule="evenodd" clip-rule="evenodd" d="M4.73442 33.1108H14.8482V69.5301H4.73442V33.1108ZM25.6442 36.9518C40.8975 36.9518 41.865 25.035 42.6382 15.4613C42.7457 14.1277 42.8491 12.872 42.9814 11.6286C43.1138 10.4016 43.6017 8.90379 45.1729 8.72734C46.9302 8.53037 49.3863 10.0118 50.482 13.1551C52.0822 17.747 51.2552 21.3007 50.3786 25.0637C49.9279 27.0047 49.4607 29.0113 49.3573 31.137C49.3284 31.6992 49.5351 32.245 49.9238 32.6512C50.3125 33.0575 50.8541 33.2873 51.4206 33.2873H70.143C71.8672 33.2873 73.2648 34.6784 73.2648 36.3896C73.2648 38.1008 71.8672 39.4878 70.143 39.4878H62.5639C61.4227 39.4878 60.4965 40.407 60.4965 41.5396C60.4965 42.6722 61.4227 43.5914 62.5639 43.5914H68.4808C70.205 43.5914 71.6067 44.9825 71.6067 46.6896C71.6067 48.3967 70.205 49.7878 68.4808 49.7878H61.5137C60.3683 49.7878 59.4463 50.707 59.4463 51.8396C59.4463 52.9721 60.3683 53.8913 61.5137 53.8913H66.8228C68.5429 53.8913 69.9445 55.2825 69.9445 56.9937C69.9445 58.7048 68.5429 60.0919 66.8228 60.0919H61.861C60.7198 60.0919 59.7936 61.0111 59.7936 62.1436C59.7936 63.2762 60.7198 64.1913 61.861 64.1913H65.1606C66.8806 64.1913 68.2824 65.5783 68.2824 67.2895C68.2824 69.0007 66.8806 70.3877 65.1606 70.3877H42.8657C38.2099 70.4288 33.8683 69.5096 29.965 67.7286C26.8763 66.3129 23.9778 65.685 20.579 65.685H18.983V36.9477H25.6442V36.9518ZM16.9156 73.6337C18.0568 73.6337 18.983 72.7145 18.983 71.5819V69.7927H20.579C23.3535 69.7927 25.7145 70.3057 28.2326 71.4588C32.6444 73.4736 37.5193 74.4954 42.7168 74.4954H65.1606C69.1631 74.4954 72.4172 71.2659 72.4172 67.2936C72.4172 65.6522 71.8548 64.1421 70.9204 62.9315C72.8265 61.6307 74.0794 59.4558 74.0794 56.9937C74.0794 55.3522 73.517 53.8421 72.5826 52.6274C74.4887 51.3266 75.7416 49.1517 75.7416 46.6896C75.7416 45.0481 75.1792 43.538 74.2448 42.3275C76.1468 41.0266 77.3996 38.8517 77.3996 36.3896C77.3996 32.4173 74.1455 29.1837 70.143 29.1837H53.7319C53.9097 28.1373 54.1537 27.0827 54.4101 25.987C55.3321 22.0188 56.3782 17.5213 54.3894 11.8132C52.5742 6.59758 48.1417 4.26265 44.7057 4.64838C41.5053 5.0095 39.2684 7.51679 38.8714 11.1936C38.7308 12.4862 38.6233 13.8322 38.5158 15.133C37.6269 26.1552 36.312 32.8482 25.6442 32.8482H18.983V31.059C18.983 29.9264 18.0568 29.0072 16.9156 29.0072H2.66702C1.52581 29.0072 0.599609 29.9264 0.599609 31.059V71.5819C0.599609 72.7145 1.52581 73.6337 2.66702 73.6337H16.9156Z" fill="#3D3D3D"/>
</g>
<defs>
<clipPath id="clip0_73_26113">
<rect width="76.8" height="80" fill="white" transform="translate(0.599609)"/>
</clipPath>
</defs>
</svg>
