<svg width="16" height="22" viewBox="0 0 16 22" fill="none" xmlns="http://www.w3.org/2000/svg">
<g clip-path="url(#clip0_1209_57292)">
<path d="M8.00376 0C3.86505 0 0.5 3.43056 0.5 7.64984C0.5 12.9488 8.01127 22 8.01127 22C8.01127 22 15.5075 12.6885 15.5075 7.64984C15.5 3.43056 12.135 0 8.00376 0ZM10.2646 9.88583C9.64121 10.5214 8.82248 10.843 8.00376 10.843C7.18503 10.843 6.3663 10.5214 5.74286 9.88583C4.49599 8.61469 4.49599 6.54716 5.74286 5.26836C6.34377 4.65576 7.14747 4.31117 8.00376 4.31117C8.86004 4.31117 9.66375 4.6481 10.2646 5.26836C11.5115 6.53951 11.5115 8.60703 10.2646 9.88583Z" fill="#307DC1"/>
</g>
<defs>
<clipPath id="clip0_1209_57292">
<rect width="15" height="22" fill="white" transform="translate(0.5)"/>
</clipPath>
</defs>
</svg>
