<svg width="16" height="20" viewBox="0 0 16 20" fill="none" xmlns="http://www.w3.org/2000/svg">
  <path fillRule="evenodd" clipRule="evenodd" d="M14.7614 0H6.29498V4.88687C6.29498 5.42594 5.85615 5.86512 5.3174 5.86512H0.441345V19.2023C0.441345 19.6421 0.799197 20 1.23865 20H14.7614C15.2008 20 15.5587 19.6421 15.5587 19.2023V0.797031C15.5587 0.3575 15.2009 0 14.7614 0ZM12.1532 14.8738C11.3983 14.771 10.4808 13.9864 9.70373 13.3017C9.68084 13.2939 9.6606 13.2893 9.6456 13.2893C9.53466 13.2893 8.4353 13.6022 7.44673 13.8835L7.44665 13.8836L7.05181 13.9959C5.49502 16.7797 3.94408 17.5745 3.21595 16.6534C2.8333 16.1685 2.98088 15.0244 4.82369 14.167C5.19392 13.9959 5.70916 13.7931 6.30994 13.6099C6.82322 12.6777 7.34107 11.3897 7.63103 10.6273C7.15822 9.72285 6.77427 8.77008 6.73115 8.31723C6.64498 7.41637 7.03092 6.60172 7.80275 6.60172C8.78619 6.60172 9.51627 7.54469 8.36369 10.861C8.72283 11.4504 9.20869 12.1651 9.769 12.7323C10.7374 12.5478 11.7052 12.4907 12.1075 12.5148C13.4945 12.5984 13.7825 13.2459 13.8249 13.7389C13.8681 14.2319 13.2464 15.0243 12.1532 14.8738ZM5.38404 0.241211V4.33855C5.38404 4.78133 5.21166 4.95371 4.76885 4.95371H0.671814L5.38404 0.241211ZM8.07892 9.03603C7.97588 9.56184 7.91037 9.8961 7.84525 9.94582C7.7597 10.0098 7.67416 9.79531 7.67416 9.79531C7.5024 9.45219 7.22423 8.85203 7.18177 8.31656C7.13869 7.78043 7.24513 7.26621 7.69572 7.20254C8.14498 7.13754 8.35986 7.6518 8.1881 8.48766C8.14726 8.68732 8.11126 8.87103 8.07895 9.0359L8.07893 9.03597L8.07892 9.03603ZM5.74445 14.2746C5.73 14.2799 5.70745 14.2876 5.678 14.2976C5.41061 14.3885 4.57364 14.6729 4.05249 15.1744C3.47324 15.7321 3.5157 16.2244 3.77367 16.3959C4.03031 16.567 4.75906 16.053 5.20964 15.5176C5.65956 14.9812 5.95933 14.4456 5.95933 14.3601C5.95933 14.2746 5.91687 14.2099 5.74445 14.2746ZM9.32367 12.8384C9.32367 12.8384 7.78062 13.1819 7.35352 13.353C7.58797 12.9668 8.18809 11.4031 8.18809 11.4031C8.31734 11.6392 9.32367 12.8384 9.32367 12.8384ZM10.2882 13.1805C10.1387 13.1165 11.4859 12.9333 12.0031 12.9667C12.6678 13.0097 12.9036 13.2883 12.9036 13.5671C12.9036 13.8456 12.6678 14.1238 12.0233 14.0383C11.3814 13.9534 10.2882 13.1805 10.2882 13.1805Z" fill="#DF5656"/>
</svg>