<svg width="63" height="64" viewBox="0 0 63 64" fill="none" xmlns="http://www.w3.org/2000/svg">
            <path fillRule="evenodd" clipRule="evenodd" d="M48.6053 21.2621C48.6053 21.9599 48.0356 22.5154 47.352 22.5154C46.6542 22.5154 46.0988 21.9457 46.0988 21.2621V3.74544C46.0988 3.04762 45.5291 2.49221 44.8456 2.49221H3.7312C3.03338 2.49221 2.47797 3.06186 2.47797 3.74544V60.2546C2.47797 60.9524 3.04762 61.5078 3.7312 61.5078H44.8456C45.5434 61.5078 46.0988 60.9381 46.0988 60.2546V53.8175C46.0988 53.1197 46.6542 52.5643 47.352 52.5643C48.0498 52.5643 48.6053 53.134 48.6053 53.8175V60.2546C48.6053 62.3195 46.9248 64 44.8598 64H3.74544C1.68046 64 0 62.3195 0 60.2546V3.74544C0 1.68046 1.68046 0 3.74544 0H44.8598C46.9248 0 48.6053 1.68046 48.6053 3.74544V21.2621ZM13.3574 18.2432C13.3574 11.8916 18.527 6.73633 24.8643 6.73633C31.2159 6.73633 36.3712 11.9059 36.3712 18.2432C36.3712 21.5329 34.9756 24.5094 32.754 26.6028C32.735 26.6313 32.7033 26.6598 32.6717 26.6883C32.6558 26.7025 32.64 26.7167 32.6258 26.731C30.575 28.6108 27.855 29.7501 24.8643 29.7501C21.8737 29.7501 19.1536 28.5966 17.1029 26.731L16.9747 26.6028C14.7531 24.5094 13.3574 21.5329 13.3574 18.2432ZM19.4242 25.4066C20.9338 26.5601 22.8278 27.2437 24.8643 27.2437C26.9151 27.2437 28.7949 26.5601 30.3045 25.4066C29.2079 23.4698 27.1572 22.245 24.8643 22.245C22.5715 22.245 20.5208 23.4555 19.4242 25.4066ZM22.8706 16.933V17.7448C22.8706 18.8414 23.7677 19.7386 24.8643 19.7386C25.9609 19.7386 26.8581 18.8414 26.8581 17.7448V16.933C26.8581 15.8365 25.9609 14.9393 24.8643 14.9393C23.7677 14.9393 22.8706 15.8365 22.8706 16.933ZM28.4246 20.4933C29.92 21.1484 31.1874 22.2165 32.1131 23.5837C33.2097 22.0884 33.8648 20.237 33.8648 18.2432C33.8648 13.2873 29.8203 9.24278 24.8643 9.24278C19.9084 9.24278 15.8639 13.273 15.8639 18.2432C15.8639 20.237 16.5047 22.0884 17.6155 23.5837C18.5412 22.2165 19.8229 21.1484 21.304 20.4933C20.7201 19.7386 20.3641 18.7844 20.3641 17.7448V16.933C20.3641 14.4551 22.3864 12.4328 24.8643 12.4328C27.3423 12.4328 29.3645 14.4551 29.3645 16.933V17.7448C29.3645 18.7844 29.0085 19.7386 28.4246 20.4933ZM31.6168 54.7422H24.8665C24.1829 54.7422 23.6133 55.2976 23.6133 55.9954C23.6133 56.6932 24.1687 57.2486 24.8665 57.2486H31.6168C32.3004 57.2486 32.8701 56.6932 32.8701 55.9954C32.8701 55.2976 32.3147 54.7422 31.6168 54.7422ZM15.0228 47.75H31.6138C32.3116 47.75 32.867 48.3054 32.867 49.0032C32.867 49.701 32.2973 50.2565 31.6138 50.2565H15.0228C14.3249 50.2565 13.7695 49.701 13.7695 49.0032C13.7695 48.3054 14.3392 47.75 15.0228 47.75ZM31.6138 40.744H15.0228C14.3392 40.744 13.7695 41.2994 13.7695 41.9972C13.7695 42.6951 14.3249 43.2505 15.0228 43.2505H31.6138C32.2973 43.2505 32.867 42.6951 32.867 41.9972C32.867 41.2994 32.3116 40.744 31.6138 40.744ZM9.68096 33.7363C10.0085 33.7363 10.3361 33.8787 10.5639 34.1066C10.806 34.3345 10.9342 34.662 10.9342 34.9896C10.9342 35.3171 10.7918 35.6446 10.5639 35.8725C10.3361 36.1146 10.0085 36.2428 9.68096 36.2428C9.35341 36.2428 9.02586 36.1004 8.798 35.8725C8.5559 35.6446 8.42773 35.3171 8.42773 34.9896C8.42773 34.662 8.57014 34.3345 8.798 34.1066C9.02586 33.8645 9.35341 33.7363 9.68096 33.7363ZM10.5639 41.1143C10.3361 40.8864 10.0085 40.744 9.68096 40.744C9.35341 40.744 9.02586 40.8722 8.798 41.1143C8.57014 41.3422 8.42773 41.6697 8.42773 41.9972C8.42773 42.3248 8.5559 42.6523 8.798 42.8802C9.02586 43.1081 9.35341 43.2505 9.68096 43.2505C10.0085 43.2505 10.3361 43.1223 10.5639 42.8802C10.7918 42.6523 10.9342 42.3248 10.9342 41.9972C10.9342 41.6697 10.806 41.3422 10.5639 41.1143ZM9.68096 47.7365C10.0085 47.7365 10.3361 47.8789 10.5639 48.1067C10.806 48.3346 10.9342 48.6621 10.9342 48.9897C10.9342 49.3172 10.7918 49.6448 10.5639 49.8726C10.3361 50.1147 10.0085 50.2429 9.68096 50.2429C9.35341 50.2429 9.02586 50.1005 8.798 49.8726C8.5559 49.6448 8.42773 49.3172 8.42773 48.9897C8.42773 48.6621 8.57014 48.3346 8.798 48.1067C9.02586 47.8646 9.35341 47.7365 9.68096 47.7365ZM34.1629 33.7363H15.0228C14.3392 33.7363 13.7695 34.2917 13.7695 34.9896C13.7695 35.6874 14.3249 36.2428 15.0228 36.2428H34.1629C34.8465 36.2428 35.4162 35.6874 35.4162 34.9896C35.4162 34.2917 34.8608 33.7363 34.1629 33.7363ZM55.7511 15.7509C57.104 15.3949 58.5281 15.58 59.7386 16.2778H59.7244C62.2309 17.7304 63.0996 20.949 61.647 23.4554L45.9104 50.6989C45.825 50.8555 45.711 50.9837 45.5686 51.0834L37.5366 57.0077C37.323 57.1644 37.0524 57.2498 36.7961 57.2498C36.5824 57.2498 36.3688 57.1928 36.1694 57.0789C35.7422 56.8226 35.5001 56.3526 35.5571 55.8542L36.6679 45.928C36.6821 45.7572 36.7391 45.5863 36.8245 45.4438L52.5611 18.2004C53.2589 16.9899 54.3982 16.1069 55.7511 15.7509ZM38.9465 48.107L38.3626 53.2908L42.5637 50.2004L38.9465 48.107ZM39.6158 45.6147L44.3866 48.3633L57.0186 26.503L52.2478 23.7545L39.6158 45.6147ZM58.2576 24.3384L59.4965 22.2022C59.8668 21.5613 59.9523 20.8208 59.7671 20.1087C59.582 19.3967 59.1263 18.8128 58.4854 18.4425C57.8446 18.0865 57.104 17.9868 56.392 18.1719C55.6799 18.3571 55.096 18.8128 54.7257 19.4536L53.4868 21.5898L58.2576 24.3384Z" fill="#307DC1" />
        </svg>