<svg width="34" height="36" viewBox="0 0 34 36" fill="none" xmlns="http://www.w3.org/2000/svg">
<g clip-path="url(#clip0_3129_4901)">
<path d="M34.1339 33.8192C33.5281 34.4251 32.5409 34.4251 31.9351 33.8192C31.4171 33.3012 27.5179 29.4117 27.1172 29.0013C27.4397 28.7765 27.7426 28.5224 28.026 28.2585C28.0944 28.1999 28.1531 28.1412 28.2215 28.0728C28.3973 27.9066 28.5733 27.721 28.7296 27.5354C28.9348 27.3008 29.1401 27.0565 29.316 26.7926L34.1339 31.6105C34.7398 32.2164 34.7398 33.2035 34.1339 33.8094V33.8192Z" fill="#425B72"/>
<path d="M15.9264 18.5046C17.3141 21.1921 20.1482 26.6844 21.5359 29.3817C14.5484 29.2449 11.5483 21.1042 15.9264 16.2765V18.5046Z" fill="#9FDBF3"/>
<path d="M24.2254 34.5718H1.42578L9.713 18.5055V13.3259H15.9284V14.8603C10.1821 19.864 12.7328 30.0079 21.45 30.4184C21.6552 30.4379 21.8702 30.4379 22.0755 30.4184C22.1439 30.565 24.0789 34.2981 24.2254 34.5718Z" fill="#F7F9F9"/>
<path d="M24.2235 34.572C24.0769 34.2886 22.1517 30.5555 22.0736 30.4186C21.8683 30.4284 21.6533 30.4284 21.4481 30.4186C16.552 30.1841 13.6006 26.881 12.9752 23.1381H7.31677L1.41406 34.572H24.2138H24.2235Z" fill="#FFA92C"/>
<path d="M21.7515 30.3888C21.5463 30.4084 21.3313 30.4084 21.126 30.3888C12.4088 30.0859 9.7311 19.9712 15.4188 14.8992L15.6729 16.1403C11.3632 21.0266 14.2168 29.3041 21.2042 29.3628L21.7515 30.3888Z" fill="#DBDDDD"/>
<path d="M21.1273 30.398C21.3324 30.4077 21.5475 30.398 21.7527 30.398L21.2055 29.3719C17.1205 29.3426 14.4623 26.489 13.8076 23.1565H12.5566C13.2016 26.9189 16.192 30.2416 21.1273 30.4077V30.398Z" fill="#FF962E"/>
<path d="M29.4057 21.6236C29.4545 25.8747 25.8093 29.5005 21.5484 29.393C11.3067 28.9435 11.4239 14.1769 21.6363 13.8544C25.907 13.8251 29.4447 17.4214 29.4057 21.6236Z" fill="#E6E6E6"/>
<path d="M30.0486 27.5456C29.433 28.3859 28.6903 29.1285 27.85 29.7441L27.1172 29.0113C27.9672 28.4055 28.7099 27.6629 29.3157 26.8127L30.0583 27.5553L30.0486 27.5456Z" fill="#31485E"/>
<path d="M29.6098 26.363C28.8574 27.555 27.8509 28.5615 26.6588 29.3139L25.7012 28.2488C26.8835 27.5159 27.8509 26.4899 28.4959 25.2686L29.6098 26.363Z" fill="#5D6972"/>
<path d="M21.6331 27.3209C18.4862 27.3209 15.9355 24.7702 15.9355 21.6234C16.2483 14.0593 27.0276 14.0593 27.3403 21.6234C27.3403 24.7702 24.7897 27.3209 21.6428 27.3209H21.6331Z" fill="#9FDBF3"/>
<path d="M24.1459 17.644C22.5531 16.403 20.3448 16.1391 18.4883 16.8426C20.4718 15.5822 23.1687 15.6409 25.0741 17.0479L24.1459 17.6538V17.644Z" fill="#8FD7F3"/>
<path d="M27.3308 21.6219C27.3308 23.9966 25.8649 26.1173 23.6465 26.9577C25.2981 25.912 26.2949 24.0943 26.2949 22.1398C26.2265 20.5566 25.7086 19.3058 24.9169 18.3872L25.8747 17.7715C26.7053 18.6999 27.2721 19.9801 27.3405 21.6219H27.3308Z" fill="#8FD7F3"/>
<path d="M29.9217 13.3262C29.8142 13.3262 29.7068 13.2871 29.6187 13.2284L23.9221 9.08539C23.3749 8.6848 23.9807 7.84448 24.5279 8.2451L30.2246 12.3881C30.635 12.6617 30.4005 13.3457 29.9217 13.3262Z" fill="#B5E08C"/>
<path d="M25.2583 8.14634C25.1704 10.8823 21.1934 10.8823 21.1152 8.14634C21.2032 5.41037 25.1801 5.41037 25.2583 8.14634Z" fill="#84B749"/>
<path d="M12.3003 7.36452C12.2613 9.07452 9.75 9.07452 9.71094 7.36452C9.75 5.65454 12.2613 5.65454 12.3003 7.36452Z" fill="#FFA92C"/>
<path d="M15.927 5.55736C15.9075 6.91557 13.875 6.91557 13.8555 5.55736C13.875 4.19914 15.9075 4.19914 15.927 5.55736Z" fill="#FFA92C"/>
<path d="M13.6008 2.43981C13.5813 3.79802 11.5489 3.79802 11.5293 2.43981C11.5489 1.08159 13.5813 1.08159 13.6008 2.43981Z" fill="#FFA92C"/>
<path d="M7.63865 14.8793H4.01348C3.33926 14.8793 3.33926 13.8436 4.01348 13.8436H7.63865C8.31286 13.8436 8.31286 14.8793 7.63865 14.8793Z" fill="#425B72"/>
<path d="M7.6376 16.951H2.45879C1.78457 16.951 1.78457 15.9153 2.45879 15.9153H7.6376C8.31183 15.9153 8.31183 16.951 7.6376 16.951Z" fill="#425B72"/>
<path d="M7.63774 19.0224H5.56622C4.89199 19.0224 4.89199 17.9868 5.56622 17.9868H7.63774C8.31196 17.9868 8.31196 19.0224 7.63774 19.0224Z" fill="#425B72"/>
<path d="M9.71094 12.2905H15.9255V13.3262H9.71094V12.2905Z" fill="#DBDDDD"/>
<path d="M8.67578 10.2181H16.9631V12.2899H8.67578V10.2181Z" fill="#DBDDDD"/>
<path d="M25.876 17.773L24.9184 18.3886C24.6839 18.115 24.4299 17.8707 24.1465 17.6558L25.0747 17.0499C25.3582 17.2649 25.6318 17.5092 25.876 17.773Z" fill="#AAD182"/>
<path d="M24.9174 18.3866C24.81 18.4258 22.201 20.2236 22.1522 20.0673C21.6636 20.0868 21.4388 19.3736 21.8688 19.1097L24.1455 17.644C24.4288 17.859 24.6829 18.113 24.9174 18.3769V18.3866Z" fill="#B5E08C"/>
<path d="M29.6872 15.3196L27.6059 16.6583C27.3811 16.3847 27.1369 16.1306 26.8828 15.8961L29.1302 14.4499C29.6969 14.0884 30.2637 14.9484 29.6872 15.3196Z" fill="#B5E08C"/>
<path d="M22.6704 20.5873C22.5825 23.3233 18.6056 23.3233 18.5273 20.5873C18.6153 17.8513 22.5922 17.8513 22.6704 20.5873Z" fill="#84B749"/>
<path d="M33.0298 13.8433C32.9418 16.5793 28.9649 16.5793 28.8867 13.8433C28.9746 11.1074 32.9516 11.1074 33.0298 13.8433Z" fill="#84B749"/>
<path d="M34.4958 31.2496L29.9807 26.7347C30.1664 26.5196 30.1958 26.1874 29.9807 25.9821L29.1208 25.1417C29.6485 24.0374 29.9221 22.8158 29.9221 21.5942C29.8341 19.3953 29.1305 17.6656 28.0946 16.3658L29.1501 15.6916C30.6942 17.1477 33.4599 16.3365 33.5478 13.8543V13.825C33.4599 11.4795 30.9971 10.6195 29.3944 11.7825L25.5929 9.03633C25.7003 8.7529 25.7589 8.45969 25.7687 8.15674V8.12751C25.6319 4.71685 20.7065 4.71676 20.5892 8.15674C20.6772 10.6781 23.5308 11.4698 25.0553 9.92562L28.7103 12.574C28.4953 12.9649 28.378 13.4146 28.3683 13.864C28.378 14.1963 28.4464 14.5286 28.5735 14.8413L27.3715 15.6035C24.3223 12.789 19.7097 12.6326 16.4456 15.1247V12.8085H16.9636C17.247 12.8085 17.4815 12.5741 17.4815 12.2906V10.2188C17.4815 9.93543 17.247 9.70089 16.9636 9.70089H8.67632C8.39291 9.70089 8.15837 9.93543 8.15837 10.2188V12.2906C8.15837 12.5741 8.39291 12.8085 8.67632 12.8085H9.19425V18.3889L0.955902 34.3476C0.828854 34.6016 0.92658 34.9143 1.18068 35.0414C1.25885 35.0804 1.33703 35.1001 1.41522 35.1001H24.7328C25.114 35.1099 25.3876 34.6505 25.1824 34.3182L22.5926 29.8522C23.6383 29.7349 24.6546 29.4124 25.5831 28.9042L26.2574 29.6566C26.4626 29.8911 26.8046 29.8619 27.0295 29.6762L31.5444 34.1912C32.3556 35.0023 33.6651 35.0023 34.4762 34.1912C35.2873 33.3801 35.2873 32.0705 34.4762 31.2594L34.4958 31.2496ZM23.179 9.67155C22.4265 9.67155 21.6544 9.19266 21.6251 8.14695C21.6837 6.07514 24.6644 6.06547 24.7328 8.12751C24.6938 9.19275 23.9217 9.66174 23.179 9.66174V9.67155ZM32.5021 13.8347C32.4532 15.4667 30.5378 15.8381 29.6973 14.7728C29.6973 14.7435 29.6778 14.7143 29.6485 14.6947C29.4823 14.4407 29.3944 14.1474 29.3944 13.8445C29.4139 13.3656 29.5801 13.0041 29.8244 12.75C29.8244 12.75 29.8439 12.7402 29.8439 12.7207C30.7626 11.8606 32.4532 12.2808 32.5021 13.8152V13.8347ZM9.18453 10.727H16.4358V11.7629H9.18453V10.727ZM21.6251 14.3917C23.3158 14.3917 25.0847 14.9683 26.4626 16.1704L25.544 16.7567C21.7326 13.8836 15.6931 15.6915 15.4097 21.6039C15.7517 29.8619 27.5181 29.8521 27.8504 21.5844C27.7819 19.8351 27.1858 18.4767 26.3258 17.4897L27.2053 16.9327C28.163 18.0761 28.808 19.6299 28.896 21.6039C28.4953 31.2301 14.794 31.2203 14.3836 21.6236C14.5888 16.6493 18.2926 14.382 21.6447 14.382L21.6251 14.3917ZM21.8792 19.6984C21.8792 19.6984 21.8792 19.7179 21.889 19.7179C22.0453 19.972 22.1333 20.2652 22.1431 20.5681C22.0649 22.6301 19.1135 22.6204 19.0354 20.5877C19.0744 18.9165 21.068 18.5354 21.8792 19.6984ZM20.5892 17.9979C19.3383 17.9979 18.0484 18.8775 17.9995 20.5877C18.1265 23.9886 23.0519 23.9886 23.179 20.5877V20.5583C23.1692 20.2358 23.1008 19.9232 22.9835 19.6202L25.4267 18.0565C26.2085 18.8969 26.746 20.0696 26.8046 21.6039C26.5212 28.4742 16.7388 28.4742 16.4358 21.6236C16.6802 16.8251 21.3906 15.2713 24.596 17.3529L22.4265 18.7406C21.9379 18.2618 21.2733 17.9881 20.5892 17.9881V17.9979ZM2.26544 34.0445L10.1716 18.7309C10.2106 18.6527 10.2301 18.5745 10.2301 18.4963V12.7988H15.4097V16.0825C14.2369 17.4116 13.4356 19.239 13.3378 21.6039C13.3378 26.1092 16.9538 29.774 21.4297 29.8815L23.8435 34.0349H2.27521L2.26544 34.0445ZM28.593 26.0799L28.9351 26.4219C28.9351 26.4219 28.896 26.4708 28.8764 26.5001C28.3096 27.3015 27.606 28.0051 26.8046 28.5816C26.7851 28.6012 26.7558 28.6111 26.7362 28.6306L26.4626 28.3276C27.3031 27.7217 28.0262 26.9595 28.5833 26.0897L28.593 26.0799ZM33.7628 33.4485C33.3621 33.8492 32.6976 33.8492 32.2969 33.4485L27.8992 29.0507C28.4367 28.611 28.9253 28.1224 29.365 27.5848L33.7725 31.9923C34.1732 32.393 34.1732 33.0575 33.7725 33.4582L33.7628 33.4485Z" fill="black"/>
<path d="M11.0128 9.16276C11.8922 9.16276 12.8009 8.54719 12.8303 7.37463V7.34529C12.7521 4.96108 9.27348 4.96111 9.20508 7.37463C9.23442 8.54719 10.1431 9.16276 11.0225 9.16276H11.0128ZM11.0128 6.60266C11.3645 6.60266 11.7652 6.80789 11.7946 7.36485C11.7749 8.39084 10.2604 8.38108 10.2409 7.37463C10.2506 6.79812 10.6708 6.60266 11.0225 6.60266H11.0128Z" fill="black"/>
<path d="M13.3359 5.5553C13.3555 6.56175 14.1274 7.08935 14.8895 7.08935C16.961 7.05027 16.9513 4.04067 14.8895 4.01135C14.1274 4.01135 13.3555 4.53909 13.3359 5.5553ZM14.8895 5.04717C14.9774 5.04717 15.3977 5.0765 15.4075 5.5553C15.4075 6.22952 14.3619 6.22952 14.3717 5.5553C14.3717 5.06674 14.8016 5.04717 14.8895 5.04717Z" fill="black"/>
<path d="M12.5653 3.97318C13.3275 3.97318 14.119 3.43568 14.119 2.42924C14.0701 0.387028 11.0508 0.387048 11.0117 2.4488C11.0312 3.45525 11.8032 3.98296 12.5653 3.98296V3.97318ZM12.5653 1.93089C12.6532 1.93089 13.0734 1.95044 13.0832 2.42924C13.0832 3.10346 12.0376 3.10346 12.0474 2.42924C12.0474 1.94067 12.4774 1.92111 12.5653 1.92111V1.93089Z" fill="black"/>
<path d="M4.01593 14.8697H7.6411C8.3251 14.8502 8.3251 13.8535 7.6411 13.834H4.01593C3.73257 13.834 3.49805 14.0685 3.49805 14.3518C3.49805 14.6353 3.73257 14.8697 4.01593 14.8697Z" fill="black"/>
<path d="M2.46026 16.9413H7.63907C8.32307 16.9217 8.32307 15.9252 7.63907 15.9056H2.46026C1.77627 15.9252 1.77627 16.9217 2.46026 16.9413Z" fill="black"/>
<path d="M7.63921 17.9877H5.56769C4.88369 18.0072 4.88369 19.0039 5.56769 19.0234H7.63921C8.32321 19.0039 8.32321 18.0072 7.63921 17.9877Z" fill="black"/>
</g>
<defs>
<clipPath id="clip0_3129_4901">
<rect width="36" height="36" fill="white"/>
</clipPath>
</defs>
</svg>
