<svg width="36" height="36" viewBox="0 0 36 36" fill="none" xmlns="http://www.w3.org/2000/svg">
<g clip-path="url(#clip0_3129_5196)">
<path d="M19.2251 30.4314L20.2943 25.2865L16.4197 25.2335C15.8163 25.2335 15.2658 25.5617 15.0011 26.1122L11.7723 32.771L13.6143 35.3859H6.32031L11.0736 20.2791V17.4737H19.9767V20.2791L24.4547 21.8247C25.1217 22.047 25.4923 22.7669 25.27 23.4338C25.27 23.4338 25.27 23.455 25.27 23.4656L23.8514 27.5731L25.958 30.4526H19.2463L19.2251 30.4314ZM30.1502 30.4209V10.0209C30.1502 9.68217 29.875 9.40686 29.5362 9.40686C29.1975 9.40686 28.9222 9.68217 28.9222 10.0209V30.4209C28.9222 30.7596 29.1975 31.0348 29.5362 31.0348C29.875 31.0348 30.1502 30.7596 30.1502 30.4209Z" fill="#007AF6"/>
<path d="M29.0693 17.1141H25.9146V12.9643H29.0693C30.2126 12.9643 31.1443 13.8959 31.1443 15.0391C31.1443 16.1825 30.2126 17.1141 29.0693 17.1141ZM21.7117 5.75493V4.11404C21.7117 2.11321 20.0921 0.493497 18.0912 0.48291C16.0904 0.48291 14.4707 2.10262 14.4707 4.10345V5.74434C14.4813 7.74516 16.1116 9.35428 18.1124 9.34366C20.1026 9.34366 21.7224 7.73458 21.733 5.74434H21.7117V5.75493Z" fill="#F9D3C8"/>
<path d="M19.9668 20.2684L20.8879 15.7057L22.4123 16.6267C22.9311 16.9443 23.5239 17.1137 24.1379 17.1137H27.9278V12.9638H24.4026C24.1485 12.9638 23.9049 12.8791 23.6933 12.7203L20.1786 10.0314H13.8691V20.2684H19.9774H19.9668Z" fill="#C4C4C4"/>
<path d="M20.432 9.05841C20.432 7.62926 19.2781 6.47534 17.8489 6.47534H10.1738C8.74466 6.47534 7.59074 7.63984 7.59074 9.06903C7.59074 10.1276 8.23651 11.0698 9.22106 11.4615C8.52234 12.012 8.03537 12.7849 7.83423 13.6529L6.64855 18.4168C6.24627 20.0259 7.23081 21.6562 8.85052 22.0585C9.08345 22.122 9.3269 22.1432 9.58097 22.1432H13.4344C15.0117 22.1432 16.3669 21.0528 16.7162 19.5178L17.9018 14.3411C18.1242 13.3882 17.8701 12.3826 17.2243 11.6415H17.8913C19.3099 11.6204 20.4426 10.477 20.4426 9.05841H20.432Z" fill="#95CC81"/>
<path d="M14.831 10.582H11.7716C9.91892 10.582 8.30979 11.8523 7.87575 13.6414L6.73242 18.2253H17.033L17.901 14.3296C18.2822 12.6781 17.2553 11.0372 15.6144 10.656C15.3603 10.5926 15.1062 10.5713 14.8416 10.582H14.831ZM23.8718 3.99723H21.7439C21.638 1.9964 19.923 0.471963 17.9328 0.577828C16.0378 0.683691 14.5452 2.22931 14.5134 4.12427V5.22524H23.8823C24.2211 5.22524 24.4964 4.95 24.4964 4.61124C24.4964 4.27248 24.2211 3.99723 23.8823 3.99723H23.8718Z" fill="#AEDB81"/>
<path d="M4.21362 35.9894H14.9588C15.1917 35.9894 15.4034 35.8518 15.5093 35.6506L17.7535 31.0456H31.5582C31.897 31.0456 32.1723 30.7704 32.1723 30.4316C32.1723 30.0928 31.897 29.8175 31.5582 29.8175H30.1396V17.5056C31.4947 16.9022 32.0981 15.3142 31.4947 13.9592C31.2301 13.3557 30.7431 12.8687 30.1396 12.6041V10.0317C30.1396 9.69282 29.8644 9.4176 29.5256 9.4176C29.1869 9.4176 28.9117 9.69282 28.9117 10.0317V12.3501H24.3807C24.2642 12.3501 24.1478 12.3183 24.0525 12.2441L20.9507 9.86229C21.0248 9.5976 21.0672 9.33291 21.0672 9.05769V8.83537C21.9141 8.04139 22.401 6.92982 22.401 5.7759V5.24659H23.9149C24.2536 5.24659 24.5288 4.97134 24.5288 4.63258C24.5288 4.29381 24.2536 4.01856 23.9149 4.01856H22.348C22.2316 1.67898 20.2414 -0.120704 17.9018 0.00633259C15.6787 0.122782 13.9213 1.93306 13.879 4.15619V5.89235H10.2055C8.43759 5.89235 7.00842 7.30034 6.99784 9.06831C6.99784 10.074 7.45305 11.0162 8.25761 11.6195C7.78123 12.1701 7.44247 12.8158 7.26249 13.5146L6.08741 18.2784C5.61102 20.2157 6.7861 22.1848 8.734 22.6612C9.01986 22.7353 9.31623 22.767 9.60207 22.767H9.66561L5.85451 34.7719H4.21362C3.87486 34.7719 3.59961 35.0473 3.59961 35.386C3.59961 35.7248 3.87486 36 4.21362 36V35.9894ZM18.7275 29.8175H17.3831C17.1502 29.8175 16.9384 29.9551 16.8326 30.1563L14.5882 34.7614H13.9107L12.4604 32.7076L15.5198 26.3452C15.6892 26.0276 16.0174 25.8159 16.3774 25.8159L19.5215 25.8583L18.7169 29.807L18.7275 29.8175ZM29.081 16.4999H28.5305V13.578H29.081C29.8855 13.5251 30.5843 14.1392 30.6372 14.9437C30.6901 15.7483 30.0762 16.447 29.2716 16.4999C29.208 16.4999 29.1445 16.4999 29.081 16.4999ZM28.9328 17.7279V29.8175H26.2439L24.5077 27.4462L25.8204 23.6351C25.9792 23.1693 25.9474 22.6612 25.7357 22.2271C25.524 21.7614 25.1323 21.4014 24.6453 21.232L20.6754 19.8663L21.3212 16.7117L22.094 17.188C22.708 17.5692 23.4173 17.7702 24.1372 17.7597H28.9328V17.7279ZM23.322 13.2181C23.629 13.451 24.0102 13.578 24.4018 13.578H27.3237V16.4999H24.1478C23.6502 16.4999 23.1633 16.3517 22.7397 16.0976L21.2259 15.1766C21.0565 15.0708 20.8448 15.0602 20.6542 15.1448C20.4742 15.2295 20.3366 15.3883 20.2943 15.5894L19.4686 19.6653H17.2878L18.4417 14.5096C18.6111 13.758 18.537 12.964 18.23 12.2441C19.0769 12.1383 19.8496 11.6937 20.3579 11.0162L23.3009 13.2181H23.322ZM11.7723 11.1961H14.8318C16.1868 11.1644 17.3089 12.2336 17.3513 13.578C17.3513 13.7898 17.3407 14.0015 17.2878 14.2026L16.5256 17.6008H7.48481L8.43758 13.7792C8.81869 12.2441 10.1949 11.1749 11.7829 11.1961H11.7723ZM18.1347 1.10731C19.7438 1.10731 21.0672 2.38827 21.1306 3.99739H15.1388C15.2023 2.38827 16.5256 1.1179 18.1347 1.10731ZM15.1282 5.75473V5.22542H21.1412V5.75473C21.1412 6.35816 20.9612 6.96158 20.6119 7.45914C20.0403 6.47461 18.9922 5.8606 17.8489 5.8606H15.1176C15.1176 5.8606 15.1176 5.79708 15.1176 5.75473H15.1282ZM10.2267 7.08862H17.8595C18.9498 7.08862 19.8285 7.97787 19.8285 9.05769C19.8285 10.148 18.9498 11.0267 17.8595 11.0267H17.4572C16.7585 10.3387 15.8163 9.95751 14.8318 9.96813H11.7723C10.8619 9.96813 9.96198 10.2434 9.21039 10.7621C8.2682 10.2116 7.95061 9.00477 8.5011 8.06256C8.86104 7.44855 9.51738 7.07803 10.216 7.08862H10.2267ZM7.71771 20.5756C7.3366 20.0781 7.1778 19.4429 7.25191 18.8183H16.2397L16.1127 19.3477C15.8374 20.6074 14.7259 21.5073 13.4344 21.4967H9.58092C8.83987 21.4967 8.14116 21.1579 7.68595 20.5862L7.71771 20.5651V20.5756ZM10.9677 22.7353H13.4661C14.8318 22.7353 16.1021 22.0471 16.8326 20.8932H19.892L24.2642 22.3965C24.4336 22.4494 24.5712 22.5765 24.6453 22.7353C24.73 22.8941 24.7406 23.074 24.6771 23.2434L23.2585 27.3615C23.1949 27.5521 23.2267 27.7532 23.3432 27.9226L24.73 29.8282H19.9767L20.8977 25.403C20.9719 25.0749 20.7601 24.7467 20.4319 24.6726C20.3896 24.6726 20.3366 24.662 20.2943 24.662L16.4091 24.6091C15.5728 24.6091 14.8 25.0854 14.4295 25.8371L11.2112 32.5171C11.116 32.7182 11.1371 32.9512 11.2642 33.1311L12.4181 34.7719H7.15663L10.9677 22.7353Z" fill="black"/>
</g>
<defs>
<clipPath id="clip0_3129_5196">
<rect width="36" height="36" fill="white"/>
</clipPath>
</defs>
</svg>
