<svg width="36" height="36" viewBox="0 0 36 36" fill="none" xmlns="http://www.w3.org/2000/svg">
<mask id="mask0_3129_8890" style="mask-type:luminance" maskUnits="userSpaceOnUse" x="0" y="0" width="36" height="36">
<path d="M35.1004 0.900024H0.900391V35.1H35.1004V0.900024Z" fill="white"/>
</mask>
<g mask="url(#mask0_3129_8890)">
<path d="M33.9746 28.5119V17.3609C33.9746 16.4609 33.2456 15.7319 32.3456 15.7319C31.1216 15.7319 30.6536 16.6949 30.6356 17.3609V22.7429C30.6356 22.9589 30.4556 23.1389 30.2396 23.1389C30.0236 23.1389 29.8436 22.9589 29.8436 22.7429V14.1119C29.8436 13.2119 29.1146 12.4829 28.1966 12.4829C26.9456 12.5189 26.4956 13.4729 26.4866 14.1119V22.3289C26.4866 22.5449 26.3066 22.7249 26.0906 22.7249C25.8746 22.7249 25.6946 22.5449 25.6946 22.3289V11.4749C25.6946 10.5749 24.9656 9.84595 24.0566 9.84595C22.7966 9.88195 22.3466 10.8449 22.3466 11.4749V22.2659C22.3466 22.4819 22.1666 22.6619 21.9506 22.6619C21.7346 22.6619 21.5546 22.4819 21.5546 22.2659V14.0849C21.4646 12.8339 20.4476 12.4469 19.8356 12.4829C18.9356 12.4829 18.2066 13.2119 18.2066 14.1119V26.8559C18.2066 26.9639 18.1616 27.0629 18.0896 27.1349C18.0176 27.2069 17.9186 27.2519 17.8106 27.2519C17.7296 27.2519 17.6396 27.2249 17.5766 27.1709L14.5256 24.9119L14.4356 24.8579C13.8416 24.5969 13.0046 24.5609 12.3836 25.2269C12.0236 25.6499 11.8076 26.3699 12.2576 27.1619L19.6916 34.02H26.3966C26.6126 34.02 26.7926 34.1999 26.7926 34.4159V34.875H29.5556V34.4159C29.5556 34.1999 29.7356 34.02 29.9516 34.02H31.0406C34.2086 33.57 34.0016 28.6919 33.9926 28.5029L33.9746 28.5119Z" fill="#FFDFCF"/>
<path d="M33.8676 28.5389V17.7929L33.5616 16.7849L31.6086 29.7179C31.6086 29.7179 31.4106 31.6259 30.0606 31.9859L18.5586 33.1379L19.5756 34.0649H26.2806C26.4966 34.0649 26.6766 34.2449 26.6766 34.4609V34.9199H29.4396V34.4609C29.4396 34.2449 29.6196 34.0649 29.8356 34.0649H30.9156C34.0836 33.6149 33.8766 28.7369 33.8676 28.5479V28.5389Z" fill="#F7A28B"/>
<path d="M32.3462 16.002C33.0662 16.002 33.6512 16.587 33.6512 17.307V28.458C33.6512 28.647 33.8582 33.246 30.9692 33.651H29.9252C29.5292 33.651 29.2052 33.975 29.2052 34.371C29.2052 34.767 29.5292 35.091 29.9252 35.091H31.0862C33.1292 34.902 33.9662 33.318 33.9662 33.3C35.1632 31.572 35.0822 28.98 35.0822 28.953V17.307C35.0822 15.795 33.8492 14.562 32.3372 14.562C32.0042 14.562 31.6892 14.607 31.3742 14.706L31.2122 14.751L31.1942 14.58C30.9782 12.384 30.3032 10.305 29.1872 8.39703C29.1692 8.37003 27.9902 6.06603 25.1642 3.89703C20.2682 0.270026 13.6892 -0.0989739 8.42418 2.97903C4.92318 5.02203 2.43018 8.30703 1.40418 12.24C0.378187 16.173 0.936183 20.25 2.97918 23.742C5.49918 28.053 9.98123 30.852 14.9672 31.212H15.0122L15.0482 31.248L19.0352 34.911C19.1702 35.037 19.3412 35.1 19.5212 35.1H26.3792C26.7752 35.1 27.0992 34.776 27.0992 34.38C27.0992 33.984 26.7752 33.66 26.3792 33.66H19.8002L12.5192 26.964C12.0422 26.136 12.5192 25.515 12.6182 25.398C13.2392 24.723 14.0582 25.011 14.2922 25.11L17.3702 27.387C17.5232 27.504 17.7122 27.549 17.9012 27.522C18.0902 27.495 18.2612 27.396 18.3692 27.243C18.4592 27.117 18.5132 26.964 18.5132 26.811V14.067C18.5132 13.347 19.0982 12.762 19.8182 12.762C19.8182 12.762 21.1232 12.699 21.2132 14.058V22.221C21.2132 22.617 21.5372 22.941 21.9332 22.941C22.3292 22.941 22.6532 22.617 22.6532 22.221V11.43C22.6532 11.43 22.6532 10.161 24.0482 10.125C24.7772 10.125 25.3622 10.71 25.3622 11.43V22.284C25.3622 22.68 25.6862 23.004 26.0822 23.004C26.4782 23.004 26.8022 22.68 26.8022 22.284V14.067C26.8022 14.067 26.8202 12.798 28.1972 12.762C28.9262 12.762 29.5112 13.347 29.5112 14.067V22.698C29.5112 23.094 29.8352 23.418 30.2312 23.418C30.6272 23.418 30.9512 23.094 30.9512 22.698V17.316C30.9512 17.316 31.0052 16.011 32.3462 16.011V16.002Z" fill="black"/>
<path d="M15.0575 20.3758C13.8065 22.2118 11.5115 24.4618 7.60547 25.3078L7.65947 25.4158C7.92047 25.9108 8.21747 26.3878 8.54147 26.8558L9.37847 28.0708C10.3955 28.6378 11.4845 29.0788 12.6185 29.3758L13.1495 29.5108L11.4395 27.9358C10.7555 27.1438 10.8995 25.8568 10.8995 25.8478C11.0525 24.8578 11.7365 24.0208 12.6725 23.6788C13.4825 23.4358 14.3735 23.5258 15.0935 23.9218L17.0645 25.3798V15.8308L16.7945 16.7038C16.3895 17.9998 15.8045 19.2328 15.0395 20.3668L15.0575 20.3758Z" fill="#FFD55D"/>
<path d="M6.9396 23.8501L6.9936 23.9941C8.8386 23.6521 10.4496 22.9321 11.7816 21.8521L11.9436 21.7171L11.7546 21.6181C10.7286 21.0961 9.73855 20.4751 8.8296 19.7821C7.7316 18.9451 6.7326 18.0091 5.8326 17.0011C5.6886 19.3321 6.0666 21.6901 6.9396 23.8501Z" fill="#FFD55D"/>
<path d="M6.05783 15.0481C8.74883 18.4591 11.8358 20.0881 12.9518 20.5921L13.0418 20.6371L13.1048 20.5561C13.3748 20.2411 13.6358 19.9081 13.8698 19.5661C14.6708 18.3781 15.2558 17.0821 15.6068 15.6961L15.6338 15.5881L15.5348 15.5341C12.6188 14.0761 10.4138 11.6191 9.1448 8.42403C9.1448 8.40603 9.1358 8.38803 9.1268 8.37903C7.73183 10.1521 6.71483 12.2311 6.19283 14.4271L6.04883 15.0481H6.05783Z" fill="#FFD55D"/>
<path d="M23.0488 5.36392C21.5368 5.53492 19.9978 5.89492 18.2968 6.47092C18.0718 6.54292 17.8828 6.54292 17.7208 6.47092C17.4688 6.34492 17.3698 6.06592 17.3698 6.05692C17.3068 5.87692 17.3068 5.67892 17.3878 5.50792C17.4688 5.33692 17.6128 5.20192 17.7928 5.12992C19.1968 4.60792 20.6638 4.23892 22.1488 4.02292L22.5898 3.95992L22.1938 3.76192C21.0418 3.19492 19.8268 2.81692 18.5938 2.59192L17.1178 3.00592C14.6698 3.69892 12.4108 4.99492 10.5838 6.75892L10.2148 7.10992C10.3048 7.38892 10.4038 7.66792 10.5118 7.94692C10.6648 8.31592 10.8268 8.67592 10.9888 9.00894L11.0698 9.17094L11.2048 9.05394C12.2128 8.16292 13.3018 7.37092 14.4718 6.69592C14.6338 6.60592 14.8318 6.57892 15.0208 6.62392C15.2098 6.67792 15.3628 6.79492 15.4528 6.95692C15.6508 7.29892 15.5338 7.73992 15.1918 7.93792C14.0128 8.62192 12.9058 9.43194 11.9158 10.3499L11.8258 10.4309L11.8888 10.5299C12.9868 12.1319 14.4898 13.4189 16.2448 14.2739L16.3258 14.3099L16.3978 14.2469C16.6228 14.0489 16.8478 13.8599 17.0818 13.6889L17.1268 13.6529V13.5989C17.3608 12.2759 18.5038 11.3129 19.8448 11.3129H19.8718C20.5918 11.3129 21.0328 11.5469 21.0418 11.5469L21.2488 11.6549V11.4209C21.2488 9.90894 22.4818 8.67592 23.9938 8.67592C24.3628 8.68492 24.6778 8.73892 24.9568 8.82892C24.5338 7.74892 23.9938 6.72292 23.3458 5.75992L23.0668 5.35492L23.0488 5.36392Z" fill="#FFD55D"/>
<path d="M2.78236 12.636L2.70136 12.987C1.90036 16.416 2.44036 19.98 4.22236 23.013C4.44736 23.4 4.69936 23.787 4.96936 24.156L5.01436 24.219H5.08636C5.74336 24.183 6.38236 24.111 6.99436 23.994L6.94036 23.85C6.06736 21.69 5.68936 19.323 5.83336 17.001C4.73536 15.777 3.76336 14.427 2.96236 12.96L2.79136 12.645L2.78236 12.636Z" fill="#F7DFA4"/>
<path d="M7.66867 25.4161L7.61467 25.3081C7.22767 25.3891 6.84067 25.4791 6.41767 25.5331L6.13867 25.5691L6.33667 25.7671C7.24567 26.6761 8.27167 27.4501 9.37866 28.0711L8.54167 26.8561C8.22667 26.3971 7.92967 25.9111 7.65967 25.4161H7.66867Z" fill="#F7DFA4"/>
<path d="M8.18245 4.83313L8.00245 4.96813C6.00445 6.41713 4.43845 8.37913 3.46645 10.6471L3.43945 10.7011L3.46645 10.7551C4.21345 12.4291 5.10445 13.8511 6.05845 15.0571L6.20245 14.4361C6.72445 12.2401 7.74145 10.1611 9.13644 8.38813C8.72245 7.31713 8.40745 6.20113 8.22745 5.06713L8.19145 4.85113L8.18245 4.83313Z" fill="#F7DFA4"/>
<path d="M17.1081 3.0148L18.5841 2.6008C15.5601 2.0428 12.3921 2.4928 9.62006 3.9688L9.53906 4.0138V4.1038C9.66506 5.1298 9.89006 6.1468 10.2141 7.1278L10.5831 6.7768C12.4101 5.0128 14.6691 3.7168 17.1171 3.0238L17.1081 3.0148Z" fill="#F7DFA4"/>
<path opacity="0.2" d="M29.3769 11.1511C29.0979 10.4221 28.7559 9.71106 28.3689 9.04506C27.4779 7.51503 26.3169 6.19203 24.9309 5.10303L24.7959 5.00403H24.6249C24.3009 5.02203 23.9769 5.04003 23.6619 5.06703L22.8789 5.13003L23.0409 5.37303C23.5359 5.31903 24.0219 5.28303 24.5079 5.26503H24.5619L24.5979 5.29203C26.5509 6.83103 28.0539 8.88303 28.9449 11.2051L29.0349 11.4481L28.7829 11.3941C28.1889 11.2591 27.5589 11.3221 27.0009 11.5651L26.8029 11.6551V11.4391C26.8029 11.3491 26.7849 9.41406 24.9309 8.84703C24.9579 8.91903 24.9939 9.00006 25.0209 9.07206L25.0839 9.25206L25.2549 9.33306C26.5869 9.92706 26.5959 11.4391 26.5959 11.5021V12.2131L27.2439 11.9251C27.7389 11.7091 28.2969 11.6461 28.8279 11.7721L29.6649 11.9611L29.3589 11.1601L29.3769 11.1511Z" fill="#160204"/>
<path d="M26.8108 11.4298V11.6458L27.0088 11.5558C27.5668 11.3128 28.1968 11.2498 28.7908 11.3848L29.0428 11.4388L28.9528 11.1958C28.0708 8.86486 26.5678 6.82186 24.6058 5.28286L24.5698 5.25586H24.5158C24.0298 5.27386 23.5438 5.30986 23.0488 5.36386L23.3278 5.76886C23.9758 6.72286 24.5158 7.75786 24.9388 8.83786C26.7927 9.40482 26.8108 11.3308 26.8108 11.4298Z" fill="#FF8D5C"/>
<path d="M26.8108 11.4298V11.6458L27.0088 11.5558C27.5668 11.3128 28.1968 11.2498 28.7908 11.3848L29.0428 11.4388L28.9528 11.1958C28.0708 8.86486 26.5678 6.82186 24.6058 5.28286L24.5698 5.25586H24.5158C24.0298 5.27386 23.5438 5.30986 23.0488 5.36386L23.3278 5.76886C23.9758 6.72286 24.5158 7.75786 24.9388 8.83786C26.7927 9.40482 26.8108 11.3308 26.8108 11.4298Z" fill="#FFC239"/>
</g>
</svg>
