<svg width="36" height="36" viewBox="0 0 36 36" fill="none" xmlns="http://www.w3.org/2000/svg">
<mask id="mask0_3129_10805" style="mask-type:luminance" maskUnits="userSpaceOnUse" x="1" y="0" width="35" height="36">
<path d="M35.1008 0H1.80078V36H35.1008V0Z" fill="white"/>
</mask>
<g mask="url(#mask0_3129_10805)">
<path d="M21.0983 17.5712C21.2479 16.4176 21.3376 15.2491 21.3376 14.0807V11.3445H17.0592L15.668 14.0807C15.668 15.2491 15.7428 16.4176 15.9074 17.5712L16.7002 23.3987C16.775 23.9608 16.6852 24.5227 16.4309 25.0257L15.6829 26.5047L18.5253 27.0668L21.3676 26.5047L20.6196 25.0257C20.3652 24.5227 20.2755 23.9608 20.3503 23.3987L21.1432 17.5712H21.0983Z" fill="#FFE413"/>
<path d="M15.6543 26.5047L18.4966 27.0668V14.7167C18.4966 14.0955 19.0053 13.5926 19.6336 13.5926H21.339V11.3445H15.6692V14.0807C15.6692 15.2491 15.744 16.4176 15.9086 17.5712L16.7014 23.3987C16.7762 23.9608 16.6865 24.5227 16.4322 25.0257L15.6842 26.5047H15.6543Z" fill="#F4B653"/>
<path d="M21.8907 26.5048H15.0842C14.77 26.5048 14.5156 26.7562 14.5156 27.0668V33.7965H22.4592V27.0668C22.4592 26.7562 22.2049 26.5048 21.8907 26.5048Z" fill="#D19A6E"/>
<path d="M16.221 30.3947V26.5048H15.0842C14.77 26.5048 14.5156 26.7562 14.5156 27.0668V33.7965H22.4592V31.5188H17.358C16.7296 31.5188 16.221 31.0158 16.221 30.3947Z" fill="#C38C66"/>
<path d="M21.8928 33.2341H15.0862C14.0839 33.2341 13.2462 33.8701 12.932 34.7575C12.8124 35.1125 13.0966 35.4822 13.4705 35.4822H23.4935C23.8674 35.4822 24.1667 35.1125 24.032 34.7575C23.7328 33.8701 22.8801 33.2341 21.8778 33.2341H21.8928Z" fill="#FFE09F"/>
<path d="M24.4643 10.5755L23.866 7.58773C23.7014 6.80384 23.1329 6.15306 22.355 5.90162L18.4954 4.62964L14.6358 5.90162C13.858 6.15306 13.2895 6.80384 13.1249 7.58773L12.5266 10.5755C12.392 11.2705 12.9305 11.9213 13.6336 11.9213H23.3423C24.0604 11.9213 24.5989 11.2705 24.4493 10.5755H24.4643Z" fill="#FFE413"/>
<path d="M18.4964 0.69519C17.5539 0.69519 16.791 1.44951 16.791 2.3813V2.94334C16.791 3.87514 17.5539 4.62946 18.4964 4.62946C19.4388 4.62946 20.2018 3.87514 20.2018 2.94334V2.3813C20.2018 1.44951 19.4388 0.69519 18.4964 0.69519Z" fill="#FFE413"/>
<path d="M19.6333 3.50561C18.6909 3.50561 17.9279 2.75129 17.9279 1.81949V0.79895C17.2697 1.0356 16.791 1.642 16.791 2.38153V2.94356C16.791 3.87537 17.5539 4.62968 18.4964 4.62968C19.2594 4.62968 19.9026 4.1268 20.112 3.43165C19.9624 3.47602 19.7979 3.50561 19.6184 3.50561H19.6333Z" fill="#F4B653"/>
<path d="M16.2231 33.2341H15.0861C14.0838 33.2341 13.2461 33.8701 12.932 34.7575C12.8123 35.1125 13.0965 35.4822 13.4855 35.4822H16.2231V33.2341Z" fill="#F6D190"/>
<path d="M21.8927 32.7167H15.0861H15.0562V27.0668C15.0562 27.0668 15.0711 27.0372 15.0861 27.0372H21.8927C21.8927 27.0372 21.9227 27.052 21.9227 27.0668V31.0011C21.9227 31.2969 22.162 31.5187 22.4462 31.5187C22.7304 31.5187 22.9698 31.282 22.9698 31.0011V27.0668C22.9698 26.4751 22.4762 25.9871 21.8777 25.9871H21.6384L21.04 24.8038C20.8306 24.3898 20.7558 23.9312 20.8157 23.4875L21.6085 17.66C21.7731 16.4916 21.8479 15.2935 21.8479 14.1103V12.4538H23.3438C23.8375 12.4538 24.3162 12.2319 24.6303 11.8474C24.9445 11.4629 25.0791 10.96 24.9744 10.4866L24.376 7.49899C24.1816 6.52283 23.4635 5.72414 22.521 5.41354L20.0078 4.58527C20.4566 4.18593 20.7258 3.59431 20.7258 2.95832V2.39628C20.7258 1.18347 19.7236 0.192505 18.4969 0.192505C17.2702 0.192505 16.268 1.18347 16.268 2.39628V2.95832C16.268 3.59431 16.5522 4.18593 16.986 4.58527L14.4727 5.41354C13.5154 5.72414 12.8122 6.52283 12.6178 7.49899L12.0194 10.4866C11.9147 10.9747 12.0493 11.4776 12.3635 11.8474C12.6776 12.2172 13.1563 12.4538 13.65 12.4538H20.8157V14.1103C20.8157 15.2492 20.7409 16.4029 20.5912 17.5269L19.7984 23.3544C19.7087 24.0199 19.8283 24.6855 20.1275 25.2772L20.4865 25.9871H19.0355V14.7315C19.0355 14.4358 18.7961 14.2139 18.5118 14.2139C18.2276 14.2139 17.9883 14.4505 17.9883 14.7315V25.9871H16.5371L16.8962 25.2772C17.1954 24.6855 17.3151 24.0052 17.2253 23.3544L16.4325 17.5269C16.2829 16.4029 16.2081 15.2492 16.2081 14.1103C16.2081 13.8145 15.9687 13.5926 15.6845 13.5926C15.4003 13.5926 15.1609 13.8293 15.1609 14.1103C15.1609 15.2935 15.2357 16.4916 15.4003 17.66L16.1931 23.4875C16.2529 23.946 16.1781 24.4045 15.9687 24.8038L15.3704 25.9871H15.131C14.5326 25.9871 14.0389 26.4751 14.0389 27.0668V32.9386C13.0367 33.3675 12.3335 34.3437 12.3335 35.4825C12.3335 35.7784 12.5729 36.0002 12.8571 36.0002H24.2114C24.5106 36.0002 24.7351 35.7636 24.7351 35.4825C24.7351 33.9592 23.4784 32.7167 21.9376 32.7167H21.8927ZM17.3151 2.3815C17.3151 1.7455 17.8386 1.22784 18.482 1.22784C19.1252 1.22784 19.6488 1.7455 19.6488 2.3815V2.94353C19.6488 3.57952 19.1252 4.09718 18.482 4.09718C17.8386 4.09718 17.3151 3.57952 17.3151 2.94353V2.3815ZM13.1563 11.1818C13.0367 11.0487 12.9918 10.8565 13.0367 10.679L13.635 7.69127C13.7547 7.08486 14.2035 6.59678 14.7869 6.40451L18.482 5.19168L22.1769 6.40451C22.7604 6.59678 23.2091 7.09966 23.3288 7.69127L23.9272 10.679C23.9571 10.8565 23.9272 11.0339 23.8075 11.1818C23.6878 11.3149 23.5233 11.4037 23.3438 11.4037H19.0205V10.2057H21.8927C22.0722 10.2057 22.2518 10.1169 22.3415 9.9542C22.4312 9.79148 22.4462 9.59924 22.3714 9.43652L21.803 8.31247C21.6683 8.04624 21.3541 7.94271 21.0849 8.07582C20.8157 8.20894 20.7109 8.51954 20.8455 8.78577L21.0251 9.15554H15.9388L16.1183 8.78577C16.2529 8.51954 16.1483 8.20894 15.879 8.07582C15.6097 7.94271 15.2955 8.04624 15.1609 8.31247L14.5924 9.43652C14.5176 9.59924 14.5176 9.79148 14.6224 9.9542C14.7271 10.1169 14.8917 10.2057 15.0711 10.2057H17.9434V11.4037H13.6201C13.4405 11.4037 13.2611 11.3298 13.1563 11.1818ZM13.4256 34.9649C13.65 34.2698 14.3082 33.7669 15.0861 33.7669H21.8927C22.6706 33.7669 23.3288 34.2698 23.5532 34.9649H13.4256Z" fill="black"/>
<path d="M20.202 28.2205H16.7912C16.492 28.2205 16.2676 28.4571 16.2676 28.738C16.2676 29.0191 16.507 29.2557 16.7912 29.2557H20.202C20.5012 29.2557 20.7255 29.0191 20.7255 28.738C20.7255 28.4571 20.4862 28.2205 20.202 28.2205Z" fill="black"/>
<path d="M20.202 30.4686H16.7912C16.492 30.4686 16.2676 30.7052 16.2676 30.9863C16.2676 31.2673 16.507 31.504 16.7912 31.504H20.202C20.5012 31.504 20.7255 31.2673 20.7255 30.9863C20.7255 30.7052 20.4862 30.4686 20.202 30.4686Z" fill="black"/>
<path d="M7.6802 4.42256C7.12669 4.80711 6.64799 5.26561 6.274 5.81286C6.15432 5.99035 5.94489 6.09388 5.7205 6.09388C5.4961 6.09388 5.28667 5.99035 5.167 5.81286C4.77804 5.26561 4.3143 4.79232 3.76079 4.42256C3.58128 4.30423 3.47656 4.09717 3.47656 3.87531C3.47656 3.65345 3.58128 3.44639 3.76079 3.32807C4.3143 2.94351 4.793 2.48501 5.167 1.93775C5.28667 1.76027 5.4961 1.65674 5.7205 1.65674C5.94489 1.65674 6.15432 1.76027 6.274 1.93775C6.66295 2.48501 7.12669 2.9583 7.6802 3.32807C7.85971 3.44639 7.96443 3.65345 7.96443 3.87531C7.96443 4.09717 7.85971 4.30423 7.6802 4.42256Z" fill="#FFE413"/>
<path d="M9.13161 3.37223C8.03959 3.37223 6.21452 1.56779 6.21452 0.488085C6.21452 0.221857 5.99013 0 5.72086 0C5.45158 0 5.22719 0.221857 5.22719 0.488085C5.22719 1.56779 3.40213 3.37223 2.31007 3.37223C2.0408 3.37223 1.81641 3.59409 1.81641 3.86032C1.81641 4.12654 2.0408 4.34839 2.31007 4.34839C3.40213 4.34839 5.22719 6.15283 5.22719 7.23253C5.22719 7.49876 5.45158 7.72062 5.72086 7.72062C5.99013 7.72062 6.21452 7.49876 6.21452 7.23253C6.21452 6.15283 8.03959 4.34839 9.13161 4.34839C9.40089 4.34839 9.62535 4.12654 9.62535 3.86032C9.62535 3.59409 9.40089 3.37223 9.13161 3.37223ZM7.38137 4.02301C6.79794 4.42235 6.28932 4.92522 5.87045 5.51685L5.72086 5.73871L5.57126 5.51685C5.16735 4.94002 4.65872 4.43714 4.06034 4.02301L3.83595 3.8751L4.06034 3.7272C4.65872 3.32786 5.15239 2.82498 5.57126 2.23336L5.72086 2.0115L5.87045 2.23336C6.27436 2.81019 6.78298 3.31306 7.38137 3.7272L7.60576 3.8751L7.38137 4.02301Z" fill="black"/>
<path d="M11.4204 19.8342C10.8669 20.2188 10.3882 20.6773 10.0143 21.2246C9.89457 21.402 9.68514 21.5055 9.46077 21.5055C9.23631 21.5055 9.02688 21.402 8.90723 21.2246C8.51828 20.6773 8.05453 20.204 7.50103 19.8342C7.32151 19.7159 7.2168 19.5088 7.2168 19.2869C7.2168 19.0651 7.32151 18.858 7.50103 18.7397C8.05453 18.3552 8.53325 17.8966 8.90723 17.3494C9.02688 17.1719 9.23631 17.0684 9.46077 17.0684C9.68514 17.0684 9.89457 17.1719 10.0143 17.3494C10.4032 17.8966 10.8669 18.3699 11.4204 18.7397C11.6 18.858 11.7046 19.0651 11.7046 19.2869C11.7046 19.5088 11.6 19.7159 11.4204 19.8342Z" fill="#FFE413"/>
<path d="M12.8562 18.7987C11.7642 18.7987 9.93916 16.9943 9.93916 15.9146C9.93916 15.6484 9.7147 15.4265 9.44542 15.4265C9.17623 15.4265 8.9518 15.6484 8.9518 15.9146C8.9518 16.9943 7.12673 18.7987 6.03468 18.7987C5.76541 18.7987 5.54102 19.0207 5.54102 19.2869C5.54102 19.5531 5.76541 19.775 6.03468 19.775C7.12673 19.775 8.9518 21.5794 8.9518 22.6591C8.9518 22.9253 9.17623 23.1472 9.44542 23.1472C9.7147 23.1472 9.93916 22.9253 9.93916 22.6591C9.93916 21.5794 11.7642 19.775 12.8562 19.775C13.1255 19.775 13.3499 19.5531 13.3499 19.2869C13.3499 19.0207 13.1255 18.7987 12.8562 18.7987ZM11.106 19.4495C10.5225 19.8488 10.014 20.3518 9.59509 20.9434L9.44542 21.1653L9.29584 20.9434C8.89196 20.3665 8.38333 19.8637 7.78495 19.4495L7.56056 19.3016L7.78495 19.1538C8.38333 18.7544 8.877 18.2515 9.29584 17.6599L9.44542 17.438L9.59509 17.6599C9.99901 18.2368 10.5076 18.7396 11.106 19.1538L11.3304 19.3016L11.106 19.4495Z" fill="black"/>
<path d="M33.1568 9.36248C32.6033 9.74705 32.1245 10.2056 31.7505 10.7528C31.6309 10.9303 31.4215 11.0338 31.197 11.0338C30.9726 11.0338 30.7632 10.9303 30.6435 10.7528C30.2546 10.2056 29.7908 9.73229 29.2373 9.36248C29.0578 9.24413 28.9531 9.03713 28.9531 8.81525C28.9531 8.59339 29.0578 8.38633 29.2373 8.26801C29.7908 7.88345 30.2696 7.42495 30.6435 6.8777C30.7632 6.70022 30.9726 6.59668 31.197 6.59668C31.4215 6.59668 31.6309 6.70022 31.7505 6.8777C32.1395 7.42495 32.6033 7.89824 33.1568 8.26801C33.3362 8.38633 33.441 8.59339 33.441 8.81525C33.441 9.03713 33.3362 9.24413 33.1568 9.36248Z" fill="#FFE413"/>
<path d="M34.6083 8.31217C33.5162 8.31217 31.6911 6.50773 31.6911 5.42803C31.6911 5.1618 31.4667 4.93994 31.1974 4.93994C30.9282 4.93994 30.7038 5.1618 30.7038 5.42803C30.7038 6.50773 28.8787 8.31217 27.7867 8.31217C27.5174 8.31217 27.293 8.53403 27.293 8.80026C27.293 9.06647 27.5174 9.28832 27.7867 9.28832C28.8787 9.28832 30.7038 11.0928 30.7038 12.1725C30.7038 12.4387 30.9282 12.6605 31.1974 12.6605C31.4667 12.6605 31.6911 12.4387 31.6911 12.1725C31.6911 11.0928 33.5162 9.28832 34.6083 9.28832C34.8775 9.28832 35.1019 9.06647 35.1019 8.80026C35.1019 8.53403 34.8775 8.31217 34.6083 8.31217ZM32.8579 8.96295C32.2746 9.3623 31.7659 9.86513 31.347 10.4568L31.1974 10.6786L31.0479 10.4568C30.6439 9.87998 30.1354 9.37706 29.5369 8.96295L29.3126 8.81505L29.5369 8.66714C30.1354 8.2678 30.629 7.76492 31.0479 7.1733L31.1974 6.95144L31.347 7.1733C31.7509 7.75013 32.2596 8.253 32.8579 8.66714L33.0824 8.81505L32.8579 8.96295Z" fill="black"/>
</g>
</svg>
