<svg width="36" height="36" viewBox="0 0 36 36" fill="none" xmlns="http://www.w3.org/2000/svg">
<g clip-path="url(#clip0_3129_7216)">
<path d="M18.0057 11.4429L11.3976 14.7423C10.181 15.3506 9.62801 16.7791 10.1165 18.0509L14.7247 30.0319L20.19 35.497H26.789C27.3697 35.497 27.849 35.027 27.849 34.4372V33.3773C27.849 32.1332 26.8351 31.1193 25.5909 31.1193C24.3467 31.1193 23.2591 30.2715 22.955 29.0642L22.3743 26.7417L24.5586 17.9956L23.1578 16.5855C22.6785 16.1063 21.9688 15.9404 21.3237 16.1524L20.5587 16.4104C19.7108 16.6961 18.7892 16.309 18.3928 15.5165C18.144 15.0096 18.144 14.4197 18.3928 13.9129C18.8076 13.0834 18.6417 12.0881 17.9873 11.4337" fill="#5289D2"/>
<path d="M11.7935 15.6358L18.5123 12.2443C18.411 11.9494 18.2358 11.6729 18.0054 11.4425L11.4434 14.7235C11.6092 15.1474 11.6738 15.3317 11.7935 15.6358Z" fill="#0573C8"/>
<path fill-rule="evenodd" clip-rule="evenodd" d="M4.37695 35.4968C4.37695 35.2189 4.60223 34.9937 4.88013 34.9937H20.1886C20.4666 34.9937 20.6918 35.2189 20.6918 35.4968C20.6918 35.7745 20.4666 35.9998 20.1886 35.9998H4.88013C4.60223 35.9998 4.37695 35.7745 4.37695 35.4968Z" fill="black"/>
<path fill-rule="evenodd" clip-rule="evenodd" d="M0 35.4968C0 35.2189 0.225283 34.9937 0.503183 34.9937H2.69727C2.97517 34.9937 3.20045 35.2189 3.20045 35.4968C3.20045 35.7745 2.97517 35.9998 2.69727 35.9998H0.503183C0.225283 35.9998 0 35.7745 0 35.4968Z" fill="black"/>
<path d="M18.4015 13.9213C18.1526 14.4283 18.1526 15.0181 18.4015 15.525C18.7978 16.3176 19.7194 16.7047 20.5673 16.4189L21.3322 16.1609C21.9775 15.9489 22.6871 16.1148 23.1664 16.5941L24.5672 17.9949L25.5995 15.8107L35.5071 5.96785L27.8391 0.502686L21.1756 10.023C20.5304 10.9446 19.6088 11.6265 18.5397 11.986L18.4291 12.0781C18.6871 12.6495 18.6871 13.3316 18.3922 13.9122" fill="#F8CC9E"/>
<path d="M20.5115 15.5158C20.2626 15.0089 20.2626 14.419 20.5115 13.9122C20.8064 13.3223 20.8064 12.6495 20.5484 12.069L20.6589 11.9768C21.728 11.6173 22.6497 10.9353 23.2948 10.0137L29.2487 1.50724L27.8386 0.502686L21.1751 10.023C20.5299 10.9446 19.6082 11.6265 18.5391 11.986L18.4285 12.0781C18.6866 12.6495 18.6866 13.3316 18.3917 13.9122C18.1429 14.419 18.1429 15.0089 18.3917 15.5158C18.788 16.3083 19.7097 16.6954 20.5576 16.4097L21.1382 16.2162C20.8801 16.0503 20.6589 15.8107 20.5023 15.5158" fill="#F0A36C"/>
<path d="M23.4419 16.1619L22.8613 16.3555C22.9627 16.4199 23.0641 16.5029 23.1563 16.595L24.5571 17.9959L25.2299 16.5581C24.7506 16.0973 24.0594 15.9499 23.4327 16.1527" fill="#F0A36C"/>
<path d="M10.1165 18.0505L14.7247 30.0315L20.19 35.4967H26.789C27.3697 35.4967 27.849 35.0266 27.849 34.4368V33.3769C27.849 33.3769 27.849 33.3308 27.849 33.3124H21.2868L16.909 28.9348L11.4437 14.7235L11.3976 14.742C10.181 15.3502 9.62801 16.7787 10.1165 18.0505Z" fill="#E4F0FF"/>
<path d="M11.5266 18.0505C11.204 17.2211 11.3331 16.3271 11.7939 15.6358L11.4437 14.7235L11.3976 14.742C10.181 15.3502 9.62801 16.7787 10.1165 18.0505L14.7247 30.0315L20.19 35.4967H21.6002L16.1348 30.0315L11.5266 18.0505Z" fill="#D2E6F8"/>
<path fill-rule="evenodd" clip-rule="evenodd" d="M17.7625 10.9927C17.9562 10.896 18.1901 10.934 18.3432 11.087C19.1485 11.8923 19.3548 13.1191 18.845 14.1429C18.758 14.3244 18.7118 14.5254 18.7118 14.7237C18.7118 14.9344 18.754 15.1287 18.8397 15.294L18.843 15.3006C19.128 15.8705 19.7899 16.1476 20.3979 15.9428L21.1666 15.6835C21.9898 15.413 22.898 15.6239 23.513 16.2383C23.5128 16.238 23.5132 16.2385 23.513 16.2383L24.9226 17.6386C25.0483 17.7635 25.0991 17.9453 25.0561 18.1172L22.9023 26.7415L23.4533 28.9455C23.5729 29.4391 23.8574 29.8588 24.2323 30.1512C24.607 30.4434 25.0792 30.6161 25.5909 30.6161C27.1132 30.6161 28.3521 31.8553 28.3521 33.3772V34.437C28.3521 35.3074 27.6449 35.9999 26.7891 35.9999H20.1901C20.0566 35.9999 19.9287 35.9468 19.8343 35.8525L14.3689 30.3874C14.3192 30.3376 14.2804 30.278 14.2552 30.2124L11.6285 23.3925C11.5286 23.1332 11.6579 22.8421 11.9173 22.7423C12.1766 22.6425 12.4678 22.7717 12.5677 23.0309L15.1561 29.7514L20.3986 34.9938H26.7891C27.0946 34.9938 27.3458 34.7463 27.3458 34.437V33.3772C27.3458 32.4107 26.5572 31.6223 25.5909 31.6223C24.8492 31.6223 24.1602 31.371 23.6133 30.9444C23.067 30.5183 22.6512 29.9064 22.4757 29.1842C22.4755 29.1837 22.4754 29.1831 22.4752 29.1824L21.8954 26.8635C21.8755 26.7834 21.8755 26.6997 21.8954 26.6197L24.0105 18.1508L22.8031 16.9514L22.8019 16.9502C22.4588 16.6071 21.9489 16.4862 21.4826 16.6387L20.7197 16.8961C19.633 17.2622 18.453 16.7667 17.9444 15.7536C17.7733 15.4222 17.7054 15.0649 17.7054 14.7237C17.7054 14.37 17.7877 14.0191 17.9395 13.7037L17.9428 13.697C18.2066 13.1694 18.1639 12.5536 17.8529 12.0722L11.6043 15.192C10.6203 15.6842 10.172 16.8394 10.5678 17.8701C10.5677 17.87 10.5678 17.8702 10.5678 17.8701L11.7289 20.8835C11.8288 21.1428 11.6996 21.4339 11.4402 21.5338C11.1809 21.6337 10.8897 21.5045 10.7898 21.2452L9.62852 18.2315C9.04757 16.7188 9.70511 15.0166 11.1541 14.2922L17.7625 10.9927Z" fill="black"/>
<path fill-rule="evenodd" clip-rule="evenodd" d="M24.377 33.3136C24.377 33.0357 24.6023 32.8105 24.8801 32.8105H27.8394C28.1174 32.8105 28.3426 33.0357 28.3426 33.3136C28.3426 33.5914 28.1174 33.8166 27.8394 33.8166H24.8801C24.6023 33.8166 24.377 33.5914 24.377 33.3136Z" fill="black"/>
<path fill-rule="evenodd" clip-rule="evenodd" d="M11.2622 14.2535C11.5216 14.1538 11.8127 14.2832 11.9124 14.5425L17.3394 28.6541L21.4944 32.8089H22.5854C22.8634 32.8089 23.0886 33.0342 23.0886 33.312C23.0886 33.5897 22.8634 33.815 22.5854 33.815H21.2859C21.1525 33.815 21.0244 33.762 20.9301 33.6676L16.5523 29.29C16.5025 29.2401 16.4637 29.1805 16.4384 29.1148L10.9731 14.9036C10.8734 14.6442 11.0028 14.3532 11.2622 14.2535Z" fill="black"/>
<path fill-rule="evenodd" clip-rule="evenodd" d="M28.1286 0.0907343C28.3564 0.249862 28.412 0.563472 28.2528 0.791202L21.5986 10.3115C20.8906 11.3228 19.8798 12.0701 18.7106 12.4632C18.4471 12.5518 18.1618 12.41 18.0733 12.1468C17.9846 11.8834 18.1264 11.5981 18.3898 11.5096C19.3588 11.1839 20.1913 10.5669 20.7736 9.73521C20.7736 9.7353 20.7737 9.73512 20.7736 9.73521L27.4279 0.214952C27.5871 -0.0127787 27.9007 -0.068393 28.1286 0.0907343Z" fill="black"/>
<path fill-rule="evenodd" clip-rule="evenodd" d="M35.8538 5.6232C36.0497 5.82026 36.0487 6.13876 35.8515 6.3346L31.6489 10.5095C31.4517 10.7053 31.1331 10.7044 30.9373 10.5073C30.7414 10.3102 30.7424 9.99165 30.9395 9.79581L35.1423 5.62094C35.3394 5.42512 35.658 5.42613 35.8538 5.6232Z" fill="black"/>
<path fill-rule="evenodd" clip-rule="evenodd" d="M30.0307 11.4205C30.2265 11.6176 30.2255 11.9361 30.0283 12.1319L26.0173 16.1156L25.0227 18.22C24.904 18.4712 24.6041 18.5786 24.3528 18.4599C24.1015 18.3413 23.9941 18.0414 24.1128 17.7902L25.145 15.606C25.17 15.5533 25.204 15.5052 25.2454 15.4641L29.319 11.4181C29.5162 11.2224 29.8348 11.2234 30.0307 11.4205Z" fill="black"/>
<path fill-rule="evenodd" clip-rule="evenodd" d="M21.8711 20.1879C21.8711 19.9101 22.0963 19.6849 22.3741 19.6849H24.0145C24.2924 19.6849 24.5176 19.9101 24.5176 20.1879C24.5176 20.4658 24.2924 20.691 24.0145 20.691H22.3741C22.0963 20.691 21.8711 20.4658 21.8711 20.1879Z" fill="black"/>
<path fill-rule="evenodd" clip-rule="evenodd" d="M21.3281 22.3737C21.3281 22.0959 21.5533 21.8707 21.8311 21.8707H23.4716C23.7494 21.8707 23.9747 22.0959 23.9747 22.3737C23.9747 22.6516 23.7494 22.8767 23.4716 22.8767H21.8311C21.5533 22.8767 21.3281 22.6516 21.3281 22.3737Z" fill="black"/>
<path fill-rule="evenodd" clip-rule="evenodd" d="M20.7812 24.5657C20.7812 24.2879 21.0065 24.0626 21.2843 24.0626H22.9248C23.2026 24.0626 23.4278 24.2879 23.4278 24.5657C23.4278 24.8435 23.2026 25.0687 22.9248 25.0687H21.2843C21.0065 25.0687 20.7812 24.8435 20.7812 24.5657Z" fill="black"/>
<path fill-rule="evenodd" clip-rule="evenodd" d="M20.2305 26.7498C20.2305 26.472 20.4557 26.2468 20.7335 26.2468H22.374C22.6518 26.2468 22.877 26.472 22.877 26.7498C22.877 27.0277 22.6518 27.2528 22.374 27.2528H20.7335C20.4557 27.2528 20.2305 27.0277 20.2305 26.7498Z" fill="black"/>
<path fill-rule="evenodd" clip-rule="evenodd" d="M21.8711 31.1189C21.8711 30.841 22.0964 30.6158 22.3743 30.6158H25.5824C25.8603 30.6158 26.0856 30.841 26.0856 31.1189C26.0856 31.3967 25.8603 31.6219 25.5824 31.6219H22.3743C22.0964 31.6219 21.8711 31.3967 21.8711 31.1189Z" fill="black"/>
<path fill-rule="evenodd" clip-rule="evenodd" d="M8.74805 30.0317C8.74805 29.7539 8.97333 29.5287 9.25121 29.5287H12.5331C12.8111 29.5287 13.0363 29.7539 13.0363 30.0317C13.0363 30.3095 12.8111 30.5347 12.5331 30.5347H9.25121C8.97333 30.5347 8.74805 30.3095 8.74805 30.0317Z" fill="black"/>
<path fill-rule="evenodd" clip-rule="evenodd" d="M4.37695 30.0317C4.37695 29.7539 4.60223 29.5287 4.88013 29.5287H7.06501C7.3429 29.5287 7.56819 29.7539 7.56819 30.0317C7.56819 30.3095 7.3429 30.5347 7.06501 30.5347H4.88013C4.60223 30.5347 4.37695 30.3095 4.37695 30.0317Z" fill="black"/>
<path fill-rule="evenodd" clip-rule="evenodd" d="M4.36914 24.5657C4.36914 24.2879 4.59443 24.0626 4.87232 24.0626H9.25012C9.52804 24.0626 9.75331 24.2879 9.75331 24.5657C9.75331 24.8435 9.52804 25.0687 9.25012 25.0687H4.87232C4.59443 25.0687 4.36914 24.8435 4.36914 24.5657Z" fill="black"/>
<path fill-rule="evenodd" clip-rule="evenodd" d="M0 24.5657C0 24.2879 0.225283 24.0626 0.503183 24.0626H2.69727C2.97517 24.0626 3.20045 24.2879 3.20045 24.5657C3.20045 24.8435 2.97517 25.0687 2.69727 25.0687H0.503183C0.225283 25.0687 0 24.8435 0 24.5657Z" fill="black"/>
<path fill-rule="evenodd" clip-rule="evenodd" d="M14.7895 12.4841C15.0484 12.3833 15.34 12.5116 15.4407 12.7705L15.5707 13.1048C16.7674 16.2317 16.4975 19.7268 14.8171 22.6241C14.6777 22.8645 14.3699 22.9463 14.1296 22.8069C13.8893 22.6675 13.8075 22.3597 13.9468 22.1194C15.4734 19.4873 15.7199 16.3106 14.6316 13.4657L14.503 13.1352C14.4023 12.8763 14.5306 12.5847 14.7895 12.4841Z" fill="black"/>
</g>
<defs>
<clipPath id="clip0_3129_7216">
<rect width="36" height="36" fill="white"/>
</clipPath>
</defs>
</svg>
