<svg width="36" height="36" viewBox="0 0 36 36" fill="none" xmlns="http://www.w3.org/2000/svg">
<path d="M3.59758 7.74133L5.65983 5.26079C6.77849 4.08376 8.57809 3.88921 9.92051 4.79387L10.047 4.88142C10.7279 5.33862 11.3601 5.85418 11.9535 6.41837L15.0566 9.3658L21.8271 7.24522L28.0722 5.93199L29.1519 8.8989L23.4516 11.8755L16.759 16.4767L15.5527 24.103L16.4185 31.924L12.8874 32.0408L10.8738 23.928L10.047 15.4261L5.32908 10.6012L3.57812 7.75105L3.59758 7.74133Z" fill="#F9F9F9"/>
<path d="M30.3564 8.24736L33.1092 7.6637L32.2338 4.92053L29.549 5.52364L28.0801 5.94192L29.1988 8.88937L30.3564 8.24736Z" fill="#FFCEBF"/>
<path d="M12.9057 32.5175C12.6819 32.5175 12.4873 32.3618 12.429 32.1479L10.4154 24.0351L9.58852 15.6402L4.98741 10.9418C4.98741 10.9418 4.93877 10.8834 4.91931 10.8542L3.16836 8.00403C3.06135 7.82893 3.07108 7.59547 3.20726 7.43984L5.2695 4.95931C6.573 3.57799 8.62551 3.35426 10.1819 4.40484L10.3083 4.49238C10.999 4.95931 11.6702 5.49433 12.2733 6.07798L15.1721 8.83088L21.6702 6.79781L27.9639 5.47487C28.1974 5.42623 28.4406 5.55269 28.5184 5.78615L29.5981 8.75305C29.6857 8.98651 29.5787 9.23945 29.3647 9.34646L23.6643 12.323L17.1955 16.7686L16.0282 24.1226L16.8842 31.8754C16.9036 32.0116 16.855 32.1479 16.7675 32.2451C16.6799 32.3424 16.5534 32.4105 16.4173 32.4105L12.8862 32.5272H12.8668L12.9057 32.5175ZM5.73643 10.29L10.4154 15.0759C10.4932 15.1538 10.5418 15.2608 10.5516 15.3678L11.3784 23.8697L13.285 31.535L15.892 31.4475L15.0846 24.1518C15.0846 24.1518 15.0846 24.0643 15.0846 24.0253L16.2908 16.399C16.3103 16.2627 16.3881 16.146 16.4951 16.0779L23.1877 11.4768L28.5573 8.66551L27.7693 6.49626L21.9328 7.72193L15.2111 9.83282C15.0457 9.88142 14.8609 9.84254 14.7345 9.71609L11.6313 6.76864C11.0574 6.22389 10.4349 5.72778 9.7831 5.29004L9.65665 5.2025C8.50878 4.42429 6.98156 4.58966 6.01853 5.60133L4.19948 7.79003L5.73643 10.2997V10.29Z" fill="black"/>
<path d="M29.2086 9.37564C29.1502 9.37564 29.0918 9.37564 29.0432 9.34648C28.9071 9.29788 28.8098 9.19087 28.7514 9.06442L27.6327 6.11693C27.5841 5.99047 27.5938 5.84455 27.6522 5.72782C27.7105 5.61109 27.8272 5.51382 27.9537 5.4749L29.4226 5.05662L32.1366 4.45351C32.3798 4.40487 32.6327 4.54106 32.7007 4.78425L33.5763 7.52741C33.6151 7.65387 33.6054 7.79979 33.5374 7.91652C33.4692 8.03325 33.3525 8.1208 33.2163 8.14998L30.5316 8.72391L29.442 9.32704C29.3643 9.36592 29.2864 9.38536 29.2086 9.38536V9.37564ZM28.7319 6.26283L29.4615 8.1889L30.123 7.81925C30.123 7.81925 30.2105 7.78033 30.2591 7.7706L32.4868 7.29395L31.9129 5.49436L29.6658 6.0002L28.7319 6.26283Z" fill="black"/>
<path d="M15.4532 9.87206L13.6341 10.8448L12.9629 8.86038L15.3948 7.55688L15.4629 9.87206H15.4532Z" fill="#FFCEBF"/>
<path d="M8.04139 6.67099C7.24374 6.04843 7.09783 4.90058 7.72039 4.10292C7.87603 3.89864 8.07058 3.73327 8.30404 3.61654C8.9947 3.24689 9.96744 3.49981 10.6192 3.6749L15.3176 5.2605L15.3857 7.57566L12.9538 8.87915L12.2826 6.89473L8.04139 6.68072V6.67099Z" fill="#F9F9F9"/>
<path d="M11.4845 9.06411L9.63625 8.14001L9.02344 10.1439L9.7141 13.1789L11.4942 9.06411H11.4845Z" fill="#FFCEBF"/>
<path d="M6.92221 8.05316C6.64983 7.0804 5.63817 6.5162 4.66541 6.78858C4.42222 6.85667 4.18876 6.9734 3.99421 7.13877C3.3911 7.6446 3.16737 8.47144 3.45919 9.21075L7.10703 14.9987L8.35215 15.2807L9.714 13.1893L9.02334 10.1543H8.14787L6.92221 8.05316Z" fill="#F9F9F9"/>
<path d="M16.7857 35.514H11.9609L13.2741 33.4031L12.9045 32.0315L16.4356 31.9148L16.7955 35.5043L16.7857 35.514Z" fill="#FFCEBF"/>
<path d="M5.20064 2.44979L7.2337 1.97314L7.6228 3.29609C7.95354 4.38558 7.33098 5.54316 6.23177 5.8739C5.14228 6.20464 3.9847 5.58207 3.65396 4.48286L3.56641 4.1813L4.31543 3.80193L5.18119 2.45952L5.20064 2.44979Z" fill="#FFCEBF"/>
<path d="M4.66652 0.581767C5.756 0.251029 6.91358 0.873593 7.23459 1.97281L5.20153 2.45919L4.33578 3.80158L3.58676 4.18096L3.28521 3.15957C2.95447 2.06035 3.58676 0.912503 4.67625 0.591494L4.66652 0.581767Z" fill="#4A4B46"/>
<path d="M13.6257 11.3408C13.5674 11.3408 13.509 11.331 13.4507 11.3018C13.3145 11.2532 13.2172 11.1365 13.1685 11.01L12.4973 9.02561C12.4195 8.80186 12.5168 8.54894 12.7307 8.44193L15.1626 7.13845C15.3086 7.06062 15.4934 7.06062 15.6394 7.13845C15.7853 7.226 15.8728 7.38163 15.8825 7.547L15.9506 9.86216C15.9506 10.047 15.8533 10.2221 15.6977 10.3096L13.8786 11.2824C13.8106 11.3213 13.7327 11.3408 13.6451 11.3408H13.6257ZM13.5479 9.10337L13.9079 10.154L14.9584 9.58982L14.9195 8.36412L13.5479 9.10337Z" fill="black"/>
<path d="M12.9535 9.34704C12.8952 9.34704 12.8368 9.33723 12.7784 9.30807C12.6423 9.25947 12.545 9.14274 12.4963 9.01629L11.9321 7.34312L9.5586 7.22639C9.28626 7.21666 9.08196 6.9832 9.1014 6.72055C9.11112 6.44819 9.33486 6.21473 9.6072 6.26336L12.3115 6.39955C12.506 6.39955 12.6811 6.53573 12.7492 6.73028L13.2356 8.16996L14.899 7.28475L14.8504 5.61162L10.473 4.13303C9.91851 3.98711 9.06252 3.76338 8.5372 4.04547C8.37183 4.13303 8.22592 4.25949 8.10919 4.4054C7.94382 4.6194 7.64227 4.65831 7.42825 4.49295C7.21425 4.32758 7.17534 4.02603 7.34071 3.81201C7.54498 3.54938 7.78817 3.34509 8.08 3.18946C8.93602 2.73226 10.0255 3.01435 10.7356 3.19918L15.4827 4.7945C15.6772 4.86259 15.8037 5.03769 15.8134 5.24197L15.8815 7.55713C15.8815 7.74195 15.7843 7.91705 15.6286 8.00459L13.1967 9.30807C13.1286 9.34704 13.0508 9.36648 12.9632 9.36648L12.9535 9.34704Z" fill="black"/>
<path d="M9.71511 13.6658C9.71511 13.6658 9.68595 13.6658 9.66642 13.6658C9.45249 13.6464 9.28707 13.4908 9.23847 13.2865L8.5478 10.2515C8.52834 10.1737 8.52834 10.0861 8.5478 9.99862L9.16062 7.9947C9.1995 7.85852 9.30651 7.75151 9.43296 7.69314C9.56922 7.63478 9.71511 7.64451 9.84156 7.70287L11.6898 8.62699C11.9233 8.74372 12.0206 9.01609 11.9233 9.25927L10.1432 13.3741C10.0653 13.5491 9.89016 13.6658 9.69567 13.6658H9.71511ZM9.53025 10.1639L9.861 11.6133L10.863 9.28843L9.93885 8.83127L9.53025 10.1639Z" fill="black"/>
<path d="M8.35328 15.7666C8.35328 15.7666 8.28519 15.7666 8.24628 15.7568L7.00115 15.4747C6.87469 15.4455 6.76769 15.3677 6.6996 15.2607L3.05176 9.47277C2.65293 8.46113 2.9253 7.40082 3.69378 6.76854C3.94669 6.55453 4.2288 6.40861 4.5498 6.32107C5.14319 6.1557 5.76576 6.22379 6.3105 6.53507C6.82605 6.82689 7.21516 7.29382 7.39026 7.86774L8.44082 9.66735H9.04395C9.26769 9.66735 9.46218 9.83268 9.51087 10.0467L10.2015 13.0817C10.2307 13.2082 10.2015 13.3444 10.1334 13.4514L8.77157 15.5428C8.68401 15.679 8.52838 15.7666 8.36301 15.7666H8.35328ZM7.4097 14.57L8.12954 14.7354L9.18984 13.0915L8.63538 10.6303H8.149C7.97391 10.6303 7.81827 10.5331 7.73072 10.3872L6.50504 8.29576C6.50504 8.29576 6.46614 8.21794 6.45641 8.17903C6.35913 7.83857 6.13539 7.54674 5.82412 7.37165C5.51284 7.19654 5.15292 7.14791 4.80272 7.25492C4.62762 7.30355 4.45253 7.3911 4.30661 7.51755C3.85915 7.8872 3.7035 8.50004 3.90779 9.0351L7.4097 14.57Z" fill="black"/>
<path d="M16.7866 35.9995H11.9617C11.7865 35.9995 11.6212 35.9023 11.5336 35.7466C11.4461 35.591 11.4559 35.4061 11.5434 35.2505L12.7399 33.3147L12.4189 32.1474C12.38 32.0015 12.4092 31.8459 12.4967 31.7292C12.5842 31.6124 12.7204 31.5346 12.8761 31.5346L16.3974 31.4178C16.6796 31.4178 16.8741 31.6027 16.8936 31.8556L17.2535 35.4548C17.2632 35.591 17.2243 35.7271 17.1271 35.8341C17.0395 35.9314 16.9033 35.9898 16.7671 35.9898L16.7866 35.9995ZM12.8371 35.0268H16.2515L15.9889 32.4198L13.5376 32.4976L13.7515 33.2661C13.7905 33.3925 13.771 33.5384 13.6932 33.6552L12.8469 35.0268H12.8371Z" fill="black"/>
<path d="M5.64913 6.43785C4.54992 6.43785 3.52852 5.71801 3.19778 4.6188L3.11023 4.30751C3.04215 4.08377 3.14915 3.84059 3.36315 3.73358L3.99544 3.41258L4.79311 2.17718C4.8612 2.07018 4.9682 1.99235 5.08493 1.9729L7.11799 1.48652C7.3709 1.41842 7.62382 1.57407 7.69192 1.81726L8.08102 3.14021C8.27557 3.79195 8.20747 4.48261 7.88647 5.08572C7.56546 5.68883 7.02071 6.12657 6.36897 6.32112C6.12578 6.39893 5.88259 6.42812 5.6394 6.42812L5.64913 6.43785ZM4.16081 4.42424C4.44291 5.21218 5.29893 5.64019 6.10632 5.40673C6.51488 5.29 6.84562 5.01762 7.04017 4.63825C7.24444 4.2686 7.28336 3.84059 7.16663 3.43203L6.90398 2.54683L5.50322 2.87756L4.73474 4.0546C4.6861 4.13242 4.61801 4.19078 4.54019 4.22969L4.15108 4.42424H4.16081Z" fill="black"/>
<path d="M3.57578 4.65781C3.50769 4.65781 3.43959 4.64809 3.38123 4.6189C3.24504 4.56053 3.14777 4.45353 3.10885 4.30762L2.8073 3.28622C2.61276 2.63448 2.68084 1.94382 3.01158 1.34071C3.33259 0.737605 3.87734 0.299866 4.52908 0.105314C5.88121 -0.293516 7.30143 0.474962 7.70999 1.82709C7.7489 1.95355 7.72944 2.08974 7.66135 2.20647C7.59326 2.3232 7.48626 2.41075 7.35007 2.43993L5.50184 2.87767L4.73336 4.0547C4.68472 4.13252 4.61662 4.19089 4.53881 4.2298L3.78978 4.60917C3.72169 4.64809 3.64387 4.65781 3.57578 4.65781ZM5.24892 0.980793C5.10301 0.980793 4.94736 1.00025 4.80145 1.04889C4.39289 1.16562 4.06216 1.43799 3.85788 1.80764C3.6536 2.17728 3.61469 2.60529 3.73142 3.01386L3.86761 3.48078L3.98434 3.42241L4.782 2.18701C4.85009 2.08001 4.95709 2.00218 5.07382 1.98274L6.52323 1.64227C6.2314 1.23371 5.74503 0.990522 5.23919 0.990522L5.24892 0.980793Z" fill="black"/>
<path d="M10.0638 15.9131C9.95682 15.9131 9.84981 15.8838 9.76224 15.8061C9.54822 15.6406 9.50934 15.3391 9.67467 15.1251L13.2447 10.5531C13.4101 10.3391 13.7116 10.3002 13.9256 10.4656C14.1397 10.631 14.1785 10.9326 14.0132 11.1465L10.4432 15.7185C10.3459 15.8449 10.2 15.9033 10.0638 15.9033V15.9131Z" fill="black"/>
<path d="M13.4405 18.4906C13.2168 18.4906 13.0125 18.335 12.9639 18.1016L11.8743 12.7416C11.8355 12.5374 11.923 12.3331 12.0981 12.2261C12.2732 12.1191 12.497 12.1385 12.6526 12.265L15.3179 14.3954C15.5319 14.5607 15.5611 14.872 15.3958 15.0763C15.2304 15.2805 14.9191 15.3195 14.7148 15.1541L13.1001 13.8603L13.9269 17.907C13.9853 18.1696 13.8102 18.4225 13.5475 18.4809C13.5184 18.4809 13.4794 18.4809 13.4502 18.4809L13.4405 18.4906Z" fill="black"/>
</svg>
