<svg width="36" height="36" viewBox="0 0 36 36" fill="none" xmlns="http://www.w3.org/2000/svg">
<path d="M30.8956 21.2302C32.382 19.7523 33.4264 18.0047 34.0089 16.1972L34.1194 15.8277C35.1237 12.3126 34.4106 8.60772 31.8698 6.08123C31.5785 5.79163 31.2672 5.53199 30.9458 5.29233C30.8454 5.21243 30.7349 5.15251 30.6345 5.07263C30.4035 4.91285 30.1725 4.76305 29.9415 4.63324C29.821 4.56333 29.6904 4.49343 29.5699 4.43351C29.3289 4.31368 29.0879 4.20383 28.8368 4.10398C28.7162 4.05404 28.5957 4.00411 28.4652 3.96417C28.1538 3.85432 27.8325 3.76444 27.5011 3.68456C27.4408 3.67457 27.3806 3.6546 27.3203 3.63463C26.9387 3.55473 26.547 3.49482 26.1453 3.45488C26.0248 3.44489 25.8942 3.44489 25.7737 3.4349C25.4925 3.41493 25.2213 3.40495 24.9401 3.41493C24.7895 3.41493 24.6388 3.42492 24.4882 3.4349C24.3676 3.4349 24.2471 3.4349 24.1266 3.45488V3.47485C23.4538 3.53476 22.7608 3.64461 22.0779 3.84433L21.7063 3.95418C19.8885 4.53337 18.1411 5.57194 16.6446 7.04988C16.1224 7.56916 15.6604 8.1184 15.2487 8.69759C15.2487 8.69759 15.1884 8.78747 15.1583 8.8374C14.9976 9.06711 14.857 9.29679 14.7164 9.52647C14.6763 9.58633 14.636 9.64627 14.6059 9.70621C14.4351 9.99583 14.2846 10.2953 14.1439 10.595C14.1038 10.6749 14.0736 10.7547 14.0335 10.8346C13.923 11.0743 13.8326 11.304 13.7422 11.5436C13.7121 11.6336 13.6719 11.7234 13.6418 11.8133C13.5314 12.1228 13.4309 12.4324 13.3506 12.752C13.3204 12.8618 13.2602 13.1714 13.1798 13.6108C12.8484 15.3684 12.1354 19.3528 11.6332 22.1489C11.2917 24.0762 10.3578 25.8537 8.96177 27.2418L8.93164 27.2718L10.5687 28.8995L10.5988 28.8695C11.9947 27.4815 13.7824 26.5528 15.7207 26.2133C18.5328 25.714 22.57 25.0049 24.3275 24.6754C24.7593 24.5955 25.0606 24.5356 25.1712 24.5056C25.4825 24.4258 25.8039 24.3259 26.1152 24.216C26.2055 24.1861 26.2959 24.1562 26.3863 24.1162C26.6273 24.0263 26.8684 23.9265 27.0993 23.8266C27.1797 23.7866 27.2601 23.7566 27.3404 23.7168C27.6417 23.5769 27.943 23.4172 28.2342 23.2474C28.2945 23.2075 28.3547 23.1675 28.415 23.1375C28.646 22.9978 28.877 22.8479 29.1079 22.6882C29.1581 22.6582 29.2084 22.6282 29.2485 22.5983C29.821 22.1789 30.3834 21.7195 30.8956 21.2002V21.2302ZM13.6619 24.236L14.3549 20.5211C14.7164 21.1204 15.1583 21.6895 15.6805 22.1988C16.2027 22.7081 16.7953 23.1775 17.4179 23.5469L13.6719 24.236H13.6619ZM28.4953 20.2915C28.2844 20.4613 28.0635 20.631 27.8425 20.7808C27.6015 20.9506 27.3504 21.1104 27.0893 21.2601C27.0792 21.2601 27.0592 21.2701 27.0492 21.2801C26.8181 21.41 26.5771 21.5398 26.3361 21.6497C26.2658 21.6795 26.1955 21.7095 26.1152 21.7395C25.9344 21.8194 25.7536 21.8992 25.5627 21.9692C25.4724 21.9991 25.3719 22.0291 25.2816 22.0591C25.1108 22.119 24.9502 22.1689 24.7795 22.2188C24.679 22.2488 24.5685 22.2688 24.4681 22.2987C24.3074 22.3387 24.1467 22.3786 23.9961 22.4085C23.8856 22.4285 23.7752 22.4485 23.6646 22.4585C23.514 22.4785 23.3634 22.4984 23.2027 22.5184C23.0922 22.5284 22.9817 22.5384 22.8612 22.5384C22.7106 22.5384 22.56 22.5484 22.4193 22.5584C22.3089 22.5584 22.1884 22.5584 22.0779 22.5584C21.9373 22.5584 21.7866 22.5484 21.646 22.5284C21.5355 22.5184 21.4251 22.5084 21.3147 22.4885C21.174 22.4685 21.0334 22.4485 20.8928 22.4185C20.7823 22.3985 20.6719 22.3786 20.5714 22.3487C20.4309 22.3187 20.3003 22.2788 20.1597 22.2388C20.0592 22.2088 19.9488 22.1789 19.8484 22.1389C19.7077 22.089 19.5772 22.0391 19.4466 21.9791C19.3462 21.9392 19.2457 21.8992 19.1554 21.8494C19.0148 21.7894 18.8842 21.7095 18.7537 21.6397C18.6632 21.5897 18.5729 21.5498 18.4925 21.4898C18.3519 21.4 18.2114 21.3001 18.0808 21.2002C18.0105 21.1503 17.9402 21.1104 17.8799 21.0504C17.6791 20.8907 17.4882 20.7209 17.3075 20.5411C17.1267 20.3614 16.956 20.1717 16.7953 19.972C16.7451 19.902 16.6949 19.8321 16.6446 19.7723C16.5442 19.6324 16.4438 19.5026 16.3534 19.3628C16.3032 19.2829 16.253 19.193 16.2027 19.1031C16.1325 18.9733 16.0521 18.8435 15.9919 18.7037C15.9417 18.6039 15.9115 18.514 15.8714 18.4141C15.8111 18.2843 15.7608 18.1545 15.7106 18.0146C15.6705 17.9148 15.6403 17.8049 15.6102 17.705C15.57 17.5653 15.5299 17.4355 15.4998 17.2956C15.4696 17.1858 15.4495 17.0759 15.4295 16.9661C15.3993 16.8263 15.3792 16.6865 15.3592 16.5467C15.3491 16.4369 15.329 16.327 15.3189 16.2172C15.3089 16.0773 15.2989 15.9275 15.2889 15.7878C15.2889 15.6779 15.2889 15.5681 15.2889 15.4482C15.2889 15.2984 15.2889 15.1586 15.309 15.0088C15.309 14.899 15.3189 14.7891 15.329 14.6693C15.339 14.5195 15.3692 14.3697 15.3892 14.21C15.4094 14.1001 15.4194 13.9902 15.4395 13.8804C15.4696 13.7207 15.5097 13.5608 15.55 13.4111C15.5801 13.3112 15.6002 13.2014 15.6303 13.1015C15.6805 12.9317 15.7307 12.772 15.791 12.6021C15.8211 12.5123 15.8512 12.4124 15.8814 12.3226C15.9516 12.1428 16.032 11.9531 16.1124 11.7733C16.1425 11.7034 16.1726 11.6336 16.2027 11.5636C16.3133 11.324 16.4438 11.0943 16.5744 10.8646C16.5744 10.8446 16.5944 10.8346 16.6045 10.8146C16.7551 10.565 16.9158 10.3153 17.0865 10.0657C17.0865 10.0657 17.0865 10.0657 17.0965 10.0557C17.2472 9.83599 17.4079 9.62629 17.5787 9.41658H17.5886C17.7996 9.14694 18.0306 8.89731 18.2716 8.65765C19.3864 7.54918 20.6719 6.7503 22.0076 6.26098C22.0076 6.26098 22.0377 6.25099 22.0578 6.24101C22.3691 6.13115 22.6805 6.04128 22.9918 5.9614C23.0922 5.93143 23.2027 5.91146 23.3031 5.89149C23.5542 5.84156 23.8053 5.80162 24.0463 5.76167C24.1367 5.75169 24.227 5.73172 24.3275 5.72173C24.659 5.69176 24.9803 5.67179 25.3017 5.68178C25.3619 5.68178 25.4322 5.68178 25.4925 5.69176C25.7536 5.70175 26.0248 5.73171 26.2758 5.76167C26.3763 5.77166 26.4666 5.79163 26.567 5.8116C26.8282 5.86153 27.0792 5.92144 27.3303 5.99135C27.3906 6.01133 27.4509 6.02131 27.5112 6.04128C27.8124 6.14114 28.1036 6.26098 28.3849 6.39079C28.4552 6.43074 28.5254 6.47069 28.5957 6.50065C28.8167 6.61049 29.0276 6.74031 29.2284 6.88012C29.3088 6.93005 29.3791 6.97998 29.4595 7.03989C29.7206 7.22963 29.9717 7.43934 30.2026 7.66902C30.4336 7.8987 30.6445 8.14836 30.8353 8.40799C30.8855 8.47789 30.9458 8.55779 30.996 8.63768C31.1366 8.8374 31.2571 9.04714 31.3776 9.26683C31.4179 9.33667 31.458 9.4066 31.4882 9.47652C31.6287 9.75616 31.7493 10.0457 31.8396 10.3453C31.8597 10.4052 31.8698 10.4652 31.8898 10.525C31.9601 10.7747 32.0204 11.0243 32.0706 11.284C32.0907 11.3839 32.1008 11.4737 32.1209 11.5736C32.161 11.8333 32.1811 12.0929 32.1911 12.3526C32.1911 12.4124 32.2011 12.4823 32.2011 12.5423C32.2011 12.8618 32.2011 13.1914 32.161 13.511C32.161 13.6008 32.1409 13.6907 32.1209 13.7905C32.0907 14.0402 32.0506 14.2898 31.9903 14.5295C31.9702 14.6294 31.9501 14.7392 31.92 14.8391C31.8396 15.1486 31.7492 15.4582 31.6387 15.7678C31.6387 15.7878 31.6387 15.7978 31.6287 15.8177C31.1366 17.1459 30.3332 18.434 29.2184 19.5326C28.9774 19.7723 28.7263 19.9919 28.4652 20.2116L28.4953 20.2915Z" fill="#FFD55D"/>
<path d="M17.5676 9.05719C19.936 9.05719 21.8559 7.14812 21.8559 4.79313C21.8559 2.43815 19.936 0.529053 17.5676 0.529053C15.1993 0.529053 13.2793 2.43815 13.2793 4.79313C13.2793 7.14812 15.1993 9.05719 17.5676 9.05719Z" fill="#CCCCCC"/>
<path d="M16.9827 7.63904C18.9018 7.63904 20.4575 6.0921 20.4575 4.18385C20.4575 2.27558 18.9018 0.728638 16.9827 0.728638C15.0636 0.728638 13.5078 2.27558 13.5078 4.18385C13.5078 6.0921 15.0636 7.63904 16.9827 7.63904Z" fill="#F2F2F2"/>
<path d="M10.5713 29.4182C10.4408 29.4182 10.3002 29.3682 10.2098 29.2684C9.99894 29.0687 9.98886 28.7491 10.1897 28.5394L10.2199 28.5095C11.6962 27.0415 13.5642 26.0729 15.6229 25.7033C22.9845 24.4052 24.8022 24.0656 25.0232 24.0057C27.0619 23.4865 28.96 22.3979 30.5167 20.8501C31.8926 19.482 32.927 17.8143 33.4995 16.0368C33.5898 15.7572 33.8911 15.6074 34.1623 15.6972C34.4435 15.7871 34.5941 16.0867 34.5038 16.3563C33.8811 18.2936 32.7562 20.1111 31.2598 21.5991C29.5727 23.2768 27.5038 24.465 25.2843 25.0343C24.9227 25.1242 21.8194 25.6834 15.8038 26.7519C13.9659 27.0814 12.2887 27.9402 10.963 29.2584C10.8526 29.3682 10.712 29.4182 10.5613 29.4182H10.5713ZM9.36624 27.5907L8.92432 27.2811L8.55273 26.9017L8.62303 26.8318C9.95871 25.5136 10.8325 23.8359 11.1538 21.9885C11.7162 18.733 12.6904 13.1907 12.8311 12.6315C13.2227 11.1236 13.8856 9.70558 14.8195 8.39738C14.9902 8.15772 15.3217 8.10779 15.5627 8.27756C15.8038 8.44732 15.854 8.77686 15.6832 9.01654C14.8296 10.2149 14.2069 11.523 13.8554 12.9011C13.755 13.2806 13.1323 16.7458 12.1883 22.1782C11.8267 24.2453 10.8526 26.1128 9.36624 27.5907ZM13.6646 24.7646C13.524 24.7646 13.3935 24.7147 13.293 24.6149C13.1725 24.495 13.1122 24.3153 13.1424 24.1455L13.8354 20.4307C13.8755 20.211 14.0462 20.0512 14.2571 20.0113C14.4681 19.9713 14.689 20.0711 14.8095 20.261C15.161 20.8301 15.5727 21.3694 16.0549 21.8387C16.5369 22.3081 17.0993 22.7475 17.6919 23.1069C17.8827 23.2168 17.9831 23.4365 17.9429 23.6562C17.9027 23.8759 17.732 24.0456 17.5211 24.0856L13.7751 24.7746C13.7751 24.7746 13.7149 24.7746 13.6746 24.7746L13.6646 24.7646ZM14.6488 21.8487L14.3274 23.5763L16.0749 23.2568C15.8038 23.0471 15.5527 22.8174 15.3016 22.5677C15.0706 22.3381 14.8497 22.0984 14.6488 21.8487ZM22.3819 23.0969C20.2628 23.0969 18.3546 22.3481 16.9386 20.94C13.9458 17.9641 14.0563 12.8811 17.1897 9.10636C17.3805 8.87672 17.7119 8.84676 17.9329 9.03652C18.1638 9.22624 18.194 9.55582 18.0032 9.77551C15.2213 13.1308 15.0807 17.6046 17.6818 20.191C19.0276 21.5391 20.9357 22.1782 23.0347 22.0085C25.1638 21.8387 27.2427 20.8401 28.8797 19.2224C32.2341 15.887 32.6759 10.8839 29.8538 8.08782C27.9859 6.2304 25.0533 5.73109 22.2011 6.77963C21.93 6.8795 21.6187 6.73968 21.5182 6.47006C21.4178 6.20044 21.5584 5.89087 21.8295 5.791C25.0734 4.60266 28.4378 5.19184 30.5971 7.33886C33.8308 10.5544 33.3889 16.2165 29.6229 19.9713C27.8152 21.7788 25.4952 22.8773 23.115 23.067C22.864 23.087 22.6129 23.0969 22.3618 23.0969H22.3819ZM34.5238 14.3192C34.5238 14.3192 34.4937 14.3192 34.4736 14.3192C34.1824 14.2892 33.9714 14.0295 33.9916 13.74C34.2627 10.9039 33.379 8.32748 31.5109 6.46008C29.191 4.15328 25.7262 3.36438 22.2312 4.36299C21.95 4.44287 21.6588 4.2831 21.5784 4.00348C21.4981 3.72387 21.6588 3.43428 21.94 3.35439C25.8065 2.25591 29.663 3.14468 32.2541 5.7211C34.323 7.77825 35.3373 10.7441 35.046 13.8498C35.016 14.1194 34.7849 14.3291 34.5238 14.3291V14.3192Z" fill="black"/>
<path d="M21.1372 23.0068C21.0066 23.0068 20.866 22.9569 20.7656 22.857C20.5547 22.6473 20.5547 22.3177 20.7656 22.108L31.7827 11.1532C31.9936 10.9435 32.3251 10.9435 32.536 11.1532C32.7468 11.3629 32.7468 11.6925 32.536 11.9022L21.5188 22.857C21.4184 22.9569 21.2778 23.0068 21.1473 23.0068H21.1372Z" fill="black"/>
<path d="M15.4028 17.2948C15.2723 17.2948 15.1316 17.2449 15.0312 17.145C14.8203 16.9353 14.8203 16.6058 15.0312 16.396L26.0484 5.44122C26.2592 5.23151 26.5907 5.23151 26.8016 5.44122C27.0125 5.65093 27.0125 5.98047 26.8016 6.19018L15.7845 17.145C15.6841 17.2449 15.5434 17.2948 15.4129 17.2948H15.4028Z" fill="black"/>
<path d="M17.311 21.1004C17.1805 21.1004 17.0398 21.0504 16.9395 20.9505C16.7285 20.7408 16.7285 20.4113 16.9395 20.2015L29.8647 7.34942C30.0756 7.13971 30.4071 7.13971 30.6179 7.34942C30.8288 7.55913 30.8288 7.88867 30.6179 8.09838L17.6927 20.9505C17.5922 21.0504 17.4517 21.1004 17.3211 21.1004H17.311Z" fill="black"/>
<path d="M25.8208 22.4086C25.6903 22.4086 25.5496 22.3587 25.4492 22.2588L15.6171 12.4823C15.4063 12.2726 15.4063 11.9431 15.6171 11.7334C15.8281 11.5237 16.1595 11.5237 16.3703 11.7334L26.2025 21.5099C26.4134 21.7196 26.4134 22.0491 26.2025 22.2588C26.102 22.3587 25.9614 22.4086 25.8309 22.4086H25.8208Z" fill="black"/>
<path d="M31.5577 16.7045C31.4271 16.7045 31.2866 16.6545 31.1861 16.5547L21.5449 6.96801C21.334 6.7583 21.334 6.42876 21.5449 6.21905C21.7558 6.00934 22.0872 6.00934 22.2981 6.21905L31.9393 15.8058C32.1503 16.0155 32.1503 16.345 31.9393 16.5547C31.8389 16.6545 31.6983 16.7045 31.5677 16.7045H31.5577Z" fill="black"/>
<path d="M29.2691 20.1305C29.1385 20.1305 28.998 20.0806 28.8975 19.9808L18.5332 9.67504C18.3223 9.46534 18.3223 9.13576 18.5332 8.92608C18.7441 8.71637 19.0755 8.71637 19.2864 8.92608L29.6507 19.2318C29.8616 19.4415 29.8616 19.7711 29.6507 19.9808C29.5503 20.0806 29.4097 20.1305 29.2791 20.1305H29.2691Z" fill="black"/>
<path d="M6.72639 27.9394L7.48965 27.1805C7.86124 26.8109 8.45378 26.8109 8.82536 27.1805L10.6632 29.0079C11.0348 29.3774 11.0348 29.9666 10.6632 30.3361L5.78234 35.1893C5.41076 35.5588 4.81823 35.5588 4.44664 35.1893L2.60877 33.3619C2.23718 32.9924 2.23718 32.4032 2.60877 32.0337L6.72639 27.9394Z" fill="#464356"/>
<path d="M5.11245 35.9985C4.72077 35.9985 4.34918 35.8488 4.06798 35.5691L2.23011 33.7417C1.65767 33.1724 1.65767 32.2337 2.23011 31.6645L7.111 26.8112C7.66335 26.2521 8.63752 26.2521 9.19995 26.8112L11.0377 28.6388C11.6102 29.2079 11.6102 30.1466 11.0377 30.7159L6.15691 35.5691C5.87571 35.8488 5.50412 35.9985 5.11245 35.9985ZM8.15546 27.4404C8.04499 27.4404 7.94456 27.4804 7.86421 27.5602L7.10095 28.3192L2.98333 32.4135C2.82265 32.5733 2.82265 32.8329 2.98333 33.0027L4.8212 34.8301C4.98188 34.9899 5.25304 34.9899 5.40369 34.8301L10.2845 29.9769C10.4453 29.817 10.4453 29.5575 10.2845 29.3877L8.4467 27.5602C8.36636 27.4804 8.26593 27.4404 8.15546 27.4404Z" fill="black"/>
<path d="M17.7383 9.97614C14.9664 9.97614 12.7168 7.73925 12.7168 4.98308C12.7168 4.13426 12.9377 3.29542 13.3495 2.54647C13.4901 2.29681 13.8115 2.19695 14.0726 2.34674C14.3237 2.48655 14.4241 2.8061 14.2734 3.06574C13.9421 3.64494 13.7713 4.31401 13.7713 4.98308C13.7713 7.15008 15.5489 8.91762 17.7283 8.91762C19.9075 8.91762 21.6852 7.15008 21.6852 4.98308C21.6852 2.81609 19.9075 1.04855 17.7283 1.04855C17.0553 1.04855 16.3825 1.21831 15.8 1.54786C15.5489 1.68766 15.2175 1.59778 15.0769 1.34813C14.9363 1.09848 15.0266 0.768933 15.2777 0.629127C16.021 0.219695 16.8645 0 17.7283 0C20.5001 0 22.7497 2.2369 22.7497 4.99306C22.7497 7.74924 20.5001 9.98613 17.7283 9.98613L17.7383 9.97614Z" fill="black"/>
</svg>
