<svg width="36" height="36" viewBox="0 0 36 36" fill="none" xmlns="http://www.w3.org/2000/svg">
<path d="M32.3888 5.26772C32.2191 4.4365 31.5741 3.79187 30.7424 3.62223C30.6661 3.60527 30.5812 3.58831 30.5048 3.57983C24.25 4.36017 17.8339 7.41363 12.6231 12.6215C7.4122 17.8294 4.35696 24.2417 3.57617 30.4929C3.59315 30.5692 3.61012 30.654 3.61861 30.7304C3.78835 31.5616 4.43334 32.2063 5.26504 32.3758C12.5722 33.8687 20.4564 31.7821 26.1256 26.1162C31.7947 20.4503 33.874 12.5706 32.3888 5.26772Z" fill="#CE775F"/>
<path d="M24.0046 26.8111C17.2745 26.8111 11.4865 22.8076 8.88109 17.0569C5.92768 21.2639 4.13697 25.9205 3.56836 30.4838C3.58533 30.5601 3.60231 30.6449 3.61079 30.7212C3.78053 31.5525 4.42553 32.1971 5.25724 32.3668C12.2843 33.8002 19.8461 31.9257 25.4473 26.7432C24.9635 26.7856 24.4798 26.8111 23.9876 26.8111" fill="#C0694E"/>
<path d="M12.827 12.8251C18.2755 7.37973 25.0904 4.3856 31.5828 4.00391C31.3367 3.81731 31.0481 3.68159 30.7341 3.62222C23.427 2.12941 15.5428 4.21596 9.87365 9.88182C4.20445 15.5478 2.12519 23.4274 3.61038 30.7304C3.67826 31.0442 3.80557 31.3326 3.99227 31.5786C4.37418 25.0815 7.37002 18.2704 12.8185 12.8251" fill="#C0694E"/>
<path d="M7.58302 12.5533C3.67909 17.88 2.35516 24.5128 3.61969 30.7216C3.68758 31.0354 3.81488 31.3238 4.00159 31.5698C4.28166 26.7859 5.9875 21.8326 9.03423 17.3796C8.31289 15.8783 7.82065 14.2582 7.58302 12.5533Z" fill="#B25D46"/>
<path d="M5.00195 24.5124L13.1068 32.6126C14.6345 32.409 16.4336 31.968 18.1395 31.3065L6.9624 20.1357C6.18161 21.5693 5.52813 23.0281 5.00195 24.5039" fill="#B5DCFF"/>
<path d="M5.32433 24.827C5.82505 23.3257 6.45308 21.8414 7.22538 20.391L4.68782 17.855C4.05131 19.5089 3.62697 21.1799 3.38086 22.8847L5.32433 24.827Z" fill="#8BCAFF"/>
<path d="M24.523 5.00452C23.0463 5.5304 21.5781 6.1835 20.1523 6.96383L31.3294 18.1345C31.949 16.5144 32.3903 14.8265 32.6364 13.1047L24.5316 5.00452H24.523Z" fill="#DBEDFF"/>
<path d="M22.9018 3.37585C21.5439 3.54549 19.6344 4.0035 17.8691 4.68204L20.4067 7.21813C21.8579 6.45475 23.3431 5.81862 24.8453 5.31819L22.9018 3.37585Z" fill="#B5DCFF"/>
<path d="M9.89859 33.2915C8.32852 33.2915 6.74998 33.1304 5.17993 32.8166C4.16999 32.613 3.3892 31.8241 3.17704 30.8148C1.59849 23.0793 3.98329 15.1317 9.55911 9.55912C15.135 3.98653 23.087 1.59467 30.8185 3.18078C31.8284 3.38434 32.6092 4.17315 32.8214 5.18249C34.3999 12.918 32.0152 20.8655 26.4393 26.4381C21.9922 30.8826 16.043 33.2999 9.89859 33.2999V33.2915ZM26.1083 3.59638C20.1931 3.59638 14.4729 5.9204 10.1956 10.1952C4.83197 15.5558 2.54053 23.1981 4.05117 30.6367C4.18696 31.2898 4.69618 31.7987 5.34966 31.9344C12.7925 33.4527 20.4392 31.1541 25.8028 25.7935C31.1665 20.4329 33.4579 12.7907 31.9472 5.35214C31.8114 4.69904 31.3023 4.1901 30.6488 4.05439C29.1382 3.74904 27.619 3.59638 26.1083 3.59638Z" fill="black"/>
<path d="M4.00026 32.0192C3.86447 32.0192 3.72868 31.9514 3.64381 31.841C3.41467 31.5358 3.25342 31.1879 3.17704 30.8148C1.59849 23.0793 3.98329 15.1317 9.55911 9.55912C15.135 3.98653 23.087 1.59467 30.8185 3.18078C31.192 3.25712 31.5399 3.40978 31.8454 3.64727C31.9982 3.75754 32.0576 3.95263 32.0066 4.13075C31.9558 4.30887 31.7945 4.4361 31.6078 4.45307C25.0051 4.84323 18.2751 8.01546 13.1406 13.147C8.00602 18.2786 4.83196 25.0046 4.44157 31.6035C4.43308 31.7902 4.30578 31.9514 4.11907 32.0022C4.07664 32.0192 4.03421 32.0192 3.99177 32.0192H4.00026ZM26.1083 3.59638C20.1931 3.59638 14.4729 5.9204 10.1956 10.1952C5.17993 15.2081 2.84605 22.2056 3.80506 29.1778C4.73861 23.1471 7.83629 17.1844 12.504 12.5108C17.1802 7.83734 23.1465 4.74992 29.1805 3.80843C28.1536 3.66424 27.1267 3.59638 26.0998 3.59638H26.1083Z" fill="black"/>
<path d="M10.1207 18.1856C10.0019 18.1856 9.89152 18.1432 9.80665 18.0584L8.21961 16.4722C8.04138 16.2941 8.04138 16.0142 8.21961 15.8361C8.39783 15.658 8.67789 15.658 8.85612 15.8361L10.4431 17.4222C10.6213 17.6004 10.6213 17.8803 10.4431 18.0584C10.3583 18.1432 10.2395 18.1856 10.1291 18.1856H10.1207Z" fill="black"/>
<path d="M18.107 10.2131C17.9882 10.2131 17.8778 10.1706 17.793 10.0858L16.2059 8.49971C16.0277 8.32159 16.0277 8.04169 16.2059 7.86357C16.3842 7.68545 16.6642 7.68545 16.8425 7.86357L18.4295 9.44964C18.6077 9.62784 18.6077 9.90774 18.4295 10.0858C18.3446 10.1706 18.2258 10.2131 18.1154 10.2131H18.107Z" fill="black"/>
<path d="M16.6304 11.3909C16.5116 11.3909 16.4013 11.3484 16.3164 11.2636L14.7294 9.67743C14.5512 9.49932 14.5512 9.21942 14.7294 9.04131C14.9076 8.86318 15.1876 8.86318 15.3659 9.04131L16.9529 10.6274C17.1311 10.8055 17.1311 11.0855 16.9529 11.2636C16.868 11.3484 16.7492 11.3909 16.6389 11.3909H16.6304Z" fill="black"/>
<path d="M15.1539 12.579C15.035 12.579 14.9247 12.5366 14.8399 12.4518L13.2528 10.8656C13.0746 10.6875 13.0746 10.4076 13.2528 10.2295C13.431 10.0514 13.7111 10.0514 13.8893 10.2295L15.4763 11.8157C15.6545 11.9938 15.6545 12.2737 15.4763 12.4518C15.3915 12.5366 15.2727 12.579 15.1623 12.579H15.1539Z" fill="black"/>
<path d="M13.7769 13.8597C13.6581 13.8597 13.5477 13.8173 13.4629 13.7325L11.8759 12.1464C11.6976 11.9682 11.6976 11.6883 11.8759 11.5102C12.0541 11.332 12.3342 11.332 12.5124 11.5102L14.0994 13.0964C14.2776 13.2745 14.2776 13.5544 14.0994 13.7325C14.0146 13.8173 13.8958 13.8597 13.7854 13.8597H13.7769Z" fill="black"/>
<path d="M12.4957 15.2422C12.3769 15.2422 12.2665 15.1998 12.1816 15.115L10.5946 13.5289C10.4164 13.3507 10.4164 13.0708 10.5946 12.8927C10.7729 12.7146 11.0529 12.7146 11.2312 12.8927L12.8181 14.4788C12.9964 14.6569 12.9964 14.9368 12.8181 15.115C12.7333 15.1998 12.6145 15.2422 12.5041 15.2422H12.4957Z" fill="black"/>
<path d="M11.3082 16.7186C11.1894 16.7186 11.079 16.6762 10.9941 16.5915L9.40709 15.0053C9.22889 14.8272 9.22889 14.5473 9.40709 14.3692C9.58529 14.1911 9.86537 14.1911 10.0436 14.3692L11.6306 15.9553C11.8088 16.1334 11.8088 16.4133 11.6306 16.5915C11.5458 16.6762 11.427 16.7186 11.3166 16.7186H11.3082Z" fill="black"/>
<path d="M13.1149 33.0625C12.996 33.0625 12.8857 33.0116 12.8009 32.9352L9.35523 29.4916C9.17694 29.3135 9.17694 29.0336 9.35523 28.8554C9.53343 28.6773 9.81351 28.6773 9.99171 28.8554L13.2846 32.1465C14.6679 31.9344 16.0259 31.6036 17.3413 31.1371L4.87418 18.6772C4.41589 19.9919 4.07642 21.3575 3.86424 22.74L8.50652 27.3796C8.68474 27.5577 8.68474 27.8376 8.50652 28.0157C8.32829 28.1939 8.04823 28.1939 7.87 28.0157L3.06649 23.215C2.96465 23.1133 2.92221 22.9775 2.93918 22.8334C3.1853 21.0776 3.6351 19.3558 4.27161 17.7103C4.32253 17.566 4.44983 17.4643 4.5941 17.4304C4.73838 17.3965 4.89964 17.4474 5.00147 17.5492L18.4615 31.0014C18.5719 31.1116 18.6143 31.2644 18.5803 31.4086C18.5464 31.5527 18.4445 31.68 18.3002 31.7308C16.6539 32.367 14.9225 32.8081 13.1743 33.0625C13.1573 33.0625 13.1318 33.0625 13.1149 33.0625Z" fill="black"/>
<path d="M31.3274 18.5842C31.2086 18.5842 31.0983 18.5418 31.0134 18.4569L26.3542 13.8004C26.176 13.6223 26.176 13.3424 26.3542 13.1642C26.5324 12.9861 26.8125 12.9861 26.9907 13.1642L31.1492 17.3289C31.6075 16.0142 31.947 14.6486 32.1592 13.266L22.7473 3.85963C21.364 4.07168 20.0061 4.40248 18.6906 4.86898L25.514 11.6884C25.6923 11.8665 25.6923 12.1464 25.514 12.3245C25.3358 12.5027 25.0557 12.5027 24.8775 12.3245L17.5619 5.00467C17.4516 4.89441 17.4091 4.74175 17.443 4.59755C17.4771 4.45336 17.5788 4.32613 17.7231 4.27524C19.3696 3.6391 21.1009 3.19803 22.8492 2.94358C22.985 2.92661 23.1292 2.96905 23.231 3.07083L32.957 12.7995C33.0588 12.9013 33.1012 13.037 33.0842 13.1812C32.8381 14.9369 32.3883 16.6588 31.7518 18.3043C31.7009 18.4485 31.5736 18.5503 31.4293 18.5842C31.3954 18.5842 31.3699 18.5927 31.336 18.5927L31.3274 18.5842Z" fill="black"/>
</svg>
