<svg width="36" height="36" viewBox="0 0 36 36" fill="none" xmlns="http://www.w3.org/2000/svg">
<path d="M28.4885 6.37417C24.2169 2.52429 18.1717 1.32358 12.7463 3.26758C7.33034 5.20205 3.39238 9.9477 2.51516 15.6368C1.63793 21.3259 3.95494 27.0244 8.55082 30.5026C15.2444 35.5628 24.7413 34.4478 30.0809 27.9869C35.4301 21.5164 34.7245 11.987 28.479 6.37417H28.4885Z" fill="white"/>
<path d="M28.4882 6.37461C25.6182 3.77309 21.8708 2.33414 17.9901 2.34367C17.7231 2.34367 17.4466 2.34367 17.1797 2.36273C23.7589 2.70579 29.4226 7.11791 31.3487 13.4073C33.2843 19.6967 31.0626 26.5293 25.8088 30.4935C23.3202 32.3804 20.3072 33.4667 17.1797 33.6192C17.4466 33.6382 17.7231 33.6573 17.9901 33.6573C24.4739 33.6573 30.2903 29.674 32.6168 23.6229C34.9433 17.5717 33.3034 10.72 28.4882 6.37461Z" fill="#D3D2D1"/>
<path d="M13.7086 18.3807C13.9279 18.1901 13.9565 17.8376 13.7658 17.6184C13.5751 17.3992 13.2223 17.3706 13.0031 17.5612C12.7837 17.7613 12.5358 17.9424 12.2975 18.133C12.2593 17.3897 12.183 16.6464 12.0686 15.9126C12.4786 15.4933 12.8695 15.0645 13.2509 14.6261C13.4226 14.3974 13.3939 14.083 13.1652 13.8924C12.9363 13.7018 12.6216 13.7208 12.4214 13.9305C12.2211 14.1497 12.0209 14.3688 11.8302 14.5881C11.6681 13.8447 11.4678 13.1205 11.2295 12.3963C11.5632 11.9198 11.8779 11.4433 12.1734 10.9478C12.2784 10.7763 12.2784 10.5761 12.1734 10.4046C12.0686 10.2426 11.9065 10.1378 11.7063 10.1283C11.5155 10.1187 11.3344 10.2235 11.2295 10.3855C11.077 10.6333 10.9149 10.881 10.7528 11.1193C10.4667 10.395 10.1425 9.68035 9.77063 8.99426C10.009 8.47014 10.2474 7.94602 10.4476 7.41237C10.5144 7.24084 10.4858 7.0312 10.3618 6.87873C10.2378 6.72626 10.0472 6.65954 9.85649 6.68813C9.65624 6.71672 9.50369 6.85013 9.43691 7.03119C9.33206 7.29802 9.21758 7.56484 9.09365 7.83166C8.72179 7.22179 8.33085 6.60237 7.90178 6.04013C7.78736 5.87813 7.59666 5.81143 7.40596 5.82096C7.20572 5.84002 7.05317 5.97342 6.97689 6.14496C6.90061 6.31649 6.91968 6.52613 7.04363 6.68813C7.42504 7.20272 7.77783 7.73637 8.11155 8.28907C7.8255 8.24142 7.52991 8.18426 7.23433 8.14614C6.93874 8.11755 6.67176 8.31766 6.64315 8.62261C6.60502 8.91802 6.81479 9.18481 7.10084 9.22297C7.66341 9.2992 8.24504 9.39451 8.80761 9.49927C9.14135 10.1283 9.44645 10.7858 9.71348 11.4528C9.42737 11.3575 9.13181 11.2623 8.83621 11.1955C8.64552 11.1384 8.44528 11.1955 8.30226 11.329C8.15923 11.4624 8.11156 11.6721 8.15923 11.8626C8.21643 12.0532 8.36899 12.1961 8.55969 12.2438C9.10319 12.3963 9.63716 12.5583 10.1807 12.7488C10.4 13.4159 10.5906 14.0925 10.7433 14.7881C10.4667 14.6547 10.1807 14.5213 9.9041 14.3974C9.73247 14.3117 9.52277 14.3403 9.36068 14.4546C9.19859 14.569 9.12227 14.7595 9.15089 14.9597C9.17951 15.1503 9.30344 15.3218 9.48461 15.3981C9.98996 15.6077 10.4953 15.8554 10.9911 16.1032C11.1056 16.7988 11.1818 17.4945 11.2009 18.1901C10.9434 18.0186 10.686 17.8376 10.4285 17.6756C10.2664 17.5517 10.0472 17.5421 9.87557 17.6374C9.70394 17.7327 9.58946 17.9137 9.57992 18.1139C9.57038 18.3141 9.6944 18.5046 9.86603 18.5999C10.3332 18.8763 10.7909 19.1812 11.22 19.5147C11.22 20.2199 11.1627 20.9156 11.077 21.6207C10.8481 21.4206 10.6192 21.2014 10.3905 21.0013C10.1616 20.8012 9.82787 20.8298 9.62762 21.0681C9.42737 21.2967 9.45599 21.6398 9.6944 21.8304C10.1043 22.1734 10.4953 22.5355 10.8863 22.9072C10.7622 23.6124 10.6002 24.3081 10.4 24.9941C10.2093 24.7559 10.0186 24.5081 9.82787 24.289C9.63716 24.0698 9.28436 24.0507 9.06503 24.2413C8.84575 24.4414 8.81715 24.775 9.00788 25.0037C9.35114 25.4039 9.67532 25.8137 9.98996 26.2425C9.75155 26.9381 9.45599 27.6147 9.14135 28.2817C8.98878 28.0245 8.85528 27.7481 8.69319 27.5004C8.5883 27.3288 8.41667 27.243 8.21643 27.243C8.0162 27.243 7.84457 27.3574 7.74923 27.5194C7.65387 27.6814 7.66341 27.891 7.75876 28.0626C8.02574 28.5105 8.28318 28.9774 8.52155 29.4348C8.36899 29.7017 8.21643 29.9781 8.0448 30.2448C7.88271 30.4926 7.959 30.8261 8.2069 30.9881C8.45482 31.1501 8.78854 31.0739 8.95064 30.8166C9.14135 30.5117 9.31298 30.2067 9.48461 29.9113C10.0853 29.7779 10.6956 29.635 11.2867 29.4634C11.5728 29.3777 11.7444 29.0823 11.6586 28.7964C11.5728 28.5105 11.2772 28.339 10.9911 28.4247C10.7051 28.5105 10.419 28.5772 10.133 28.6344C10.4571 27.9578 10.7337 27.2717 10.9911 26.5665C11.5537 26.3664 12.1354 26.1377 12.6883 25.8899C12.9554 25.7661 13.0888 25.4515 12.9649 25.1752C12.8409 24.9084 12.5262 24.775 12.2498 24.8988C11.9827 25.0227 11.6872 25.1181 11.4107 25.2324C11.6109 24.5272 11.7826 23.803 11.916 23.0787C12.45 22.7928 12.9649 22.4974 13.4703 22.1734C13.7181 22.0114 13.7944 21.6779 13.6419 21.4301C13.4798 21.1824 13.1461 21.1061 12.8981 21.2586C12.6503 21.4206 12.3737 21.5635 12.1163 21.7161C12.2021 20.9823 12.2498 20.2485 12.2593 19.5147C12.7265 19.1621 13.1841 18.8001 13.6323 18.4093H13.6705L13.7086 18.3807Z" fill="#EE4335"/>
<path d="M28.7359 8.15568C28.4498 8.1938 28.1543 8.25097 27.8587 8.29862C28.1924 7.74592 28.5452 7.21226 28.9266 6.69768C29.041 6.53568 29.0697 6.33557 28.9933 6.1545C28.9171 5.97344 28.755 5.8591 28.5643 5.8305C28.3641 5.81145 28.1829 5.88768 28.0685 6.04968C27.6394 6.61192 27.2484 7.23133 26.8766 7.84121C26.7621 7.57438 26.6478 7.30757 26.5334 7.04074C26.4666 6.86921 26.3045 6.7358 26.1138 6.69768C25.9231 6.6691 25.7324 6.74533 25.6084 6.88826C25.4845 7.04073 25.4463 7.24086 25.5226 7.42192C25.7324 7.95557 25.9517 8.47968 26.1996 9.00383C25.8373 9.6899 25.513 10.4046 25.2175 11.1288C25.0554 10.8906 24.8933 10.6428 24.7407 10.3951C24.6359 10.2236 24.4643 10.1283 24.264 10.1378C24.0638 10.1378 23.8921 10.2521 23.7967 10.4141C23.7014 10.5857 23.7014 10.7858 23.7967 10.9574C24.0924 11.4528 24.407 11.9293 24.7407 12.4058C24.5023 13.1205 24.3021 13.8543 24.14 14.5976C23.9398 14.3784 23.73 14.1688 23.5489 13.9401C23.3486 13.7208 23.0149 13.6828 22.786 13.8734C22.5573 14.0639 22.5286 14.407 22.7193 14.6357C23.1007 15.0836 23.4916 15.5124 23.9017 15.9221C23.7872 16.6559 23.711 17.3992 23.6728 18.1425C23.4439 17.9614 23.1961 17.7708 22.9767 17.5708C22.7574 17.3801 22.4142 17.4088 22.214 17.6279C22.0137 17.8471 22.0424 18.1997 22.2711 18.3903C22.7193 18.7714 23.1865 19.1431 23.6537 19.4957C23.6537 20.2294 23.711 20.9728 23.7967 21.697C23.5393 21.5445 23.2723 21.4016 23.0149 21.2396C22.8528 21.1348 22.643 21.1252 22.4714 21.2205C22.2998 21.3158 22.1949 21.4778 22.1854 21.6779C22.1854 21.8781 22.2807 22.0496 22.4332 22.1544C22.9386 22.4688 23.463 22.7738 23.9874 23.0597C24.121 23.7839 24.2831 24.5081 24.4928 25.2134C24.2163 25.099 23.9303 25.0037 23.6537 24.8798C23.3868 24.7559 23.0626 24.8798 22.9386 25.1561C22.8147 25.4325 22.9386 25.747 23.2152 25.8708C23.7681 26.1186 24.3498 26.3474 24.9124 26.5474C25.1602 27.2526 25.4463 27.9483 25.7705 28.6248C25.4845 28.5486 25.1984 28.4819 24.9124 28.4057C24.6263 28.3199 24.3307 28.4914 24.2449 28.7774C24.1591 29.0632 24.3307 29.3681 24.6168 29.4444C25.2079 29.6159 25.8182 29.7588 26.4189 29.8923C26.581 30.1877 26.7526 30.4926 26.9529 30.7881C27.1054 31.0358 27.4487 31.1121 27.6966 30.9596C27.9445 30.7976 28.0208 30.4641 27.8587 30.2163C27.6966 29.9494 27.5345 29.6731 27.382 29.4063C27.6203 28.9394 27.8778 28.4819 28.1447 28.0341C28.3068 27.7863 28.221 27.4528 27.9731 27.2908C27.7252 27.1288 27.3915 27.2145 27.2293 27.4718C27.0672 27.7196 26.9338 27.9959 26.7812 28.2532C26.4666 27.5957 26.1806 26.9096 25.9326 26.2139C26.2473 25.7851 26.5714 25.3754 26.9147 24.9751C27.1054 24.7559 27.0863 24.4128 26.8575 24.2128C26.6382 24.0126 26.295 24.0412 26.0947 24.2604C25.904 24.4891 25.7133 24.7368 25.5226 24.9656C25.3224 24.2794 25.1603 23.5838 25.0268 22.8786C25.4082 22.507 25.8087 22.1448 26.2186 21.8018C26.3712 21.6779 26.438 21.4873 26.4093 21.2872C26.3712 21.0966 26.2473 20.9346 26.0565 20.8679C25.8658 20.8012 25.6657 20.8393 25.513 20.9728C25.2843 21.1728 25.0554 21.3825 24.8265 21.5921C24.7407 20.8965 24.693 20.1913 24.6835 19.4861C25.1317 19.1717 25.5894 18.8668 26.0375 18.5714C26.2091 18.4761 26.3236 18.295 26.3236 18.0853C26.3236 17.8757 26.2091 17.6946 26.028 17.6088C25.8468 17.5231 25.6275 17.5326 25.4654 17.647C25.2079 17.809 24.941 17.9805 24.693 18.1616C24.7312 17.4659 24.798 16.7608 24.9028 16.0746C25.3986 15.8268 25.8945 15.5791 26.4093 15.3694C26.6764 15.2456 26.8003 14.9311 26.6859 14.6643C26.5619 14.3974 26.2568 14.2641 25.9803 14.3784C25.7037 14.5023 25.4177 14.6357 25.1412 14.7691C25.2938 14.083 25.4845 13.4064 25.7037 12.7298C26.2377 12.5392 26.7812 12.3772 27.3247 12.2248C27.525 12.1771 27.668 12.0246 27.7252 11.8436C27.7824 11.653 27.7252 11.4528 27.5821 11.3099C27.4391 11.167 27.2389 11.1193 27.0483 11.1765C26.7621 11.2528 26.4761 11.3481 26.171 11.4338C26.438 10.7668 26.7335 10.1092 27.0672 9.48029C27.6394 9.3659 28.2115 9.28013 28.774 9.2039C29.0601 9.15629 29.2699 8.89897 29.2317 8.60357C29.1936 8.31768 28.9362 8.0985 28.6405 8.1271L28.6787 8.14616L28.7359 8.15568Z" fill="#EE4335"/>
<path d="M30.9389 12.5399C30.8148 12.2635 30.5002 12.1397 30.2333 12.254C29.9662 12.3684 29.8328 12.6923 29.9472 12.9591C31.3012 16.1801 31.3012 19.8204 29.9472 23.0413C29.89 23.1747 29.89 23.3177 29.9472 23.451C30.0044 23.5844 30.1092 23.6893 30.2333 23.7464C30.3 23.775 30.3763 23.7941 30.443 23.7941C30.6528 23.7941 30.853 23.6607 30.9483 23.4701C32.4263 19.9728 32.4263 16.0371 30.9483 12.5493L30.9389 12.5399Z" fill="#EFEFEF"/>
<path d="M5.76716 12.2536C5.63366 12.1964 5.49064 12.1964 5.35715 12.2536C5.22366 12.3108 5.11878 12.4156 5.06157 12.5395C3.58364 16.0368 3.58364 19.9724 5.06157 23.4602C5.14738 23.6508 5.33809 23.7842 5.56692 23.7842C5.6432 23.7842 5.70995 23.7651 5.77669 23.7366C5.91019 23.6793 6.00553 23.5746 6.06275 23.4411C6.11996 23.3077 6.11996 23.1648 6.06275 23.0313C4.70878 19.8104 4.70878 16.1702 6.06275 12.9493C6.11996 12.8158 6.11996 12.6729 6.06275 12.5395C6.00553 12.406 5.91019 12.3013 5.77669 12.244H5.76716V12.2536Z" fill="#EFEFEF"/>
<path d="M18.0008 34.2001C26.9542 34.2001 34.2008 26.9481 34.2008 18.0096C34.2008 9.07097 26.9542 1.80005 18.0008 1.80005C9.0474 1.80005 1.80078 9.05198 1.80078 17.9905C1.81031 26.9291 9.05694 34.181 18.0008 34.181V34.2001ZM18.0008 2.8864C26.363 2.8864 33.1233 9.65228 33.1233 18C33.1233 26.3478 26.3534 33.1137 18.0008 33.1137C9.64806 33.1137 2.87823 26.3478 2.87823 18C2.88777 9.65228 9.6576 2.89593 18.0008 2.8864Z" fill="black"/>
</svg>
