<svg width="36" height="36" viewBox="0 0 36 36" fill="none" xmlns="http://www.w3.org/2000/svg">
<path d="M19.9708 35.5725H23.4451L22.5745 33.9482H19.7363L19.9708 35.5725Z" fill="#464356"/>
<path d="M13.0293 35.5725H16.5037L16.7382 33.9482H13.9L13.0293 35.5725Z" fill="#464356"/>
<path d="M19.7357 33.9487H22.5739V16.2836H18.2371H13.9004V33.9487H16.7385L18.2371 23.584L19.7357 33.9487Z" fill="#2D283D"/>
<path d="M22.5739 19.2133H13.9004V20.7203H22.5739V19.2133Z" fill="#242235"/>
<path d="M23.4461 35.9908H19.9717C19.7623 35.9908 19.5866 35.8401 19.5531 35.6308L19.3186 34.0066C19.3019 33.8894 19.3354 33.7638 19.4191 33.6717C19.5029 33.5796 19.6117 33.5294 19.7372 33.5294H22.5754C22.7261 33.5294 22.8684 33.6131 22.9437 33.747L23.8145 35.3713C23.8815 35.4968 23.8815 35.6559 23.8061 35.7815C23.7307 35.907 23.5968 35.9825 23.4461 35.9825V35.9908ZM20.34 35.1536H22.7512L22.3326 34.3666H20.2312L20.3484 35.1536H20.34Z" fill="black"/>
<path d="M16.5053 35.9907H13.031C12.8802 35.9907 12.7463 35.9153 12.671 35.7898C12.5955 35.6642 12.5955 35.5051 12.6625 35.3796L13.5332 33.7553C13.6086 33.6214 13.751 33.5377 13.9016 33.5377H16.7398C16.8653 33.5377 16.9741 33.5879 17.0579 33.68C17.1416 33.7721 17.1751 33.8894 17.1584 34.0149L16.9239 35.639C16.8904 35.8484 16.7147 35.999 16.5053 35.999V35.9907ZM13.7342 35.1535H16.1453L16.2626 34.3665H14.1612L13.7426 35.1535H13.7342Z" fill="black"/>
<path d="M22.5737 34.367H19.7356C19.5263 34.367 19.3504 34.2163 19.3169 34.007L18.2285 26.5056L17.1402 34.007C17.1067 34.2163 16.9309 34.367 16.7216 34.367H13.8834C13.6491 34.367 13.4648 34.1828 13.4648 33.9484V16.2833C13.4648 16.0489 13.6491 15.8646 13.8834 15.8646H22.5569C22.7914 15.8646 22.9756 16.0489 22.9756 16.2833V33.9484C22.9756 34.1828 22.7914 34.367 22.5569 34.367H22.5737ZM20.0956 33.5298H22.1551V16.7019H14.3188V33.5298H16.3783L17.8267 23.5252C17.8602 23.3158 18.036 23.1652 18.2453 23.1652C18.4546 23.1652 18.6304 23.3158 18.664 23.5252L20.1123 33.5298H20.0956Z" fill="black"/>
<path d="M25.3547 12.6419L22.1817 6.47164L20.7249 6.37117L18.2886 6.20374L15.8523 6.37117L14.3956 6.47164L11.2227 12.6419L13.5919 16.4763V19.6242H17.5435L18.2886 18.9377L19.0338 19.6242H22.9854V16.4763L25.3547 12.6419Z" fill="#464356"/>
<path d="M13.5916 16.4757L14.5377 9.87012L12.7461 15.1111L13.5916 16.4757Z" fill="#2D283D"/>
<path d="M22.9851 16.4757L22.0391 9.87012L23.8307 15.1111L22.9851 16.4757Z" fill="#2D283D"/>
<path d="M22.9857 20.0431H19.0341C18.9253 20.0431 18.8248 20.0012 18.7495 19.9343L18.289 19.5072L17.8285 19.9343C17.7532 20.0012 17.6528 20.0431 17.5439 20.0431H13.5922C13.3579 20.0431 13.1737 19.8589 13.1737 19.6245V16.6021L10.863 12.8682C10.7876 12.7427 10.7792 12.5835 10.8463 12.458L14.0192 6.27936C14.0863 6.1454 14.2202 6.06168 14.3625 6.05331L18.2555 5.7854L22.1988 6.05331C22.3411 6.06168 22.4751 6.1454 22.542 6.27936L25.7151 12.458C25.782 12.5919 25.7737 12.7427 25.6983 12.8682L23.3876 16.6021V19.6245C23.3876 19.8589 23.2034 20.0431 22.969 20.0431H22.9857ZM19.1932 19.2059H22.5671V16.4849C22.5671 16.4096 22.5922 16.3343 22.6257 16.2672L24.8695 12.6338L21.9141 6.88215L18.2555 6.63099L14.6555 6.88215L11.7002 12.6338L13.9439 16.2672C13.9857 16.3343 14.0025 16.4096 14.0025 16.4849V19.2059H17.3765L18.0043 18.6282C18.1634 18.4775 18.4146 18.4775 18.5737 18.6282L19.1932 19.2059Z" fill="black"/>
<path d="M18.2287 16.9781C17.7431 16.9781 17.3496 16.5846 17.3496 16.0991C17.3496 15.6134 17.7431 15.22 18.2287 15.22C18.7143 15.22 19.1078 15.6134 19.1078 16.0991C19.1078 16.5846 18.7143 16.9781 18.2287 16.9781ZM18.2287 16.0489V16.1409L18.2706 16.0991C18.2706 16.0991 18.2538 16.0572 18.2287 16.0572V16.0489Z" fill="black"/>
<path d="M18.2287 10.0208C17.7431 10.0208 17.3496 9.62719 17.3496 9.14164C17.3496 8.65606 17.7431 8.26257 18.2287 8.26257C18.7143 8.26257 19.1078 8.65606 19.1078 9.14164C19.1078 9.62719 18.7143 10.0208 18.2287 10.0208ZM18.2287 9.09142V9.18349L18.2706 9.14164C18.2706 9.14164 18.2538 9.09979 18.2287 9.09979V9.09142Z" fill="black"/>
<path d="M18.2287 12.341C17.7431 12.341 17.3496 11.9476 17.3496 11.4619C17.3496 10.9764 17.7431 10.5829 18.2287 10.5829C18.7143 10.5829 19.1078 10.9764 19.1078 11.4619C19.1078 11.9476 18.7143 12.341 18.2287 12.341ZM18.2287 11.4117V11.5038L18.2706 11.4619C18.2706 11.4619 18.2538 11.4201 18.2287 11.4201V11.4117Z" fill="black"/>
<path d="M18.2287 14.6595C17.7431 14.6595 17.3496 14.2661 17.3496 13.7805C17.3496 13.295 17.7431 12.9015 18.2287 12.9015C18.7143 12.9015 19.1078 13.295 19.1078 13.7805C19.1078 14.2661 18.7143 14.6595 18.2287 14.6595ZM18.2287 13.7303V13.8224L18.2706 13.7805C18.2706 13.7805 18.2538 13.7387 18.2287 13.7387V13.7303Z" fill="black"/>
<path d="M18.23 16.5514C18.4843 16.5514 18.6904 16.3453 18.6904 16.0909C18.6904 15.8367 18.4843 15.6305 18.23 15.6305C17.9756 15.6305 17.7695 15.8367 17.7695 16.0909C17.7695 16.3453 17.9756 16.5514 18.23 16.5514Z" fill="#F7EC77"/>
<path d="M18.23 9.59405C18.4843 9.59405 18.6904 9.38786 18.6904 9.13352C18.6904 8.87925 18.4843 8.6731 18.23 8.6731C17.9756 8.6731 17.7695 8.87925 17.7695 9.13352C17.7695 9.38786 17.9756 9.59405 18.23 9.59405Z" fill="#F7EC77"/>
<path d="M18.23 11.9143C18.4843 11.9143 18.6904 11.7081 18.6904 11.4538C18.6904 11.1995 18.4843 10.9933 18.23 10.9933C17.9756 10.9933 17.7695 11.1995 17.7695 11.4538C17.7695 11.7081 17.9756 11.9143 18.23 11.9143Z" fill="#F7EC77"/>
<path d="M18.23 14.2329C18.4843 14.2329 18.6904 14.0267 18.6904 13.7723C18.6904 13.5181 18.4843 13.3119 18.23 13.3119C17.9756 13.3119 17.7695 13.5181 17.7695 13.7723C17.7695 14.0267 17.9756 14.2329 18.23 14.2329Z" fill="#F7EC77"/>
<path d="M17.3755 2.80482H20.85C20.85 1.48203 19.6863 0.4104 18.2463 0.4104C16.8063 0.4104 15.6426 1.48203 15.6426 2.80482" fill="#4A4B46"/>
<path d="M15.6348 4.40327C15.6348 5.72606 16.7985 6.79769 18.2385 6.79769C19.6785 6.79769 20.8422 5.72606 20.8422 4.40327V2.8042H15.6348V4.40327Z" fill="#FDC9A6"/>
<path d="M20.8422 2.4447H15.6348V3.51633H20.8422V2.4447Z" fill="white"/>
<path d="M18.2372 7.22512C16.5711 7.22512 15.2148 5.96093 15.2148 4.4121V2.45302C15.2148 2.36093 15.2484 2.27721 15.2986 2.20186C15.6 0.912555 16.8056 0 18.2372 0C19.6689 0 20.8744 0.920934 21.1758 2.21023C21.226 2.27721 21.2595 2.36093 21.2595 2.45302V4.4121C21.2595 5.9693 19.9032 7.22512 18.2372 7.22512ZM16.0521 2.62884V4.4121C16.0521 5.50047 17.0317 6.3879 18.2372 6.3879C19.4428 6.3879 20.4223 5.50047 20.4223 4.4121V2.62047C20.4223 2.62047 20.3972 2.55349 20.3889 2.52C20.2297 1.54047 19.3256 0.83721 18.2372 0.83721C17.1489 0.83721 16.2446 1.56559 16.0856 2.52C16.0856 2.56186 16.0689 2.59535 16.0521 2.62884Z" fill="black"/>
<path d="M13.5905 16.8951C13.5905 16.8951 13.5486 16.8951 13.5319 16.8951C13.3058 16.8615 13.1468 16.6523 13.1802 16.4178L14.1179 9.81226C14.1513 9.58618 14.369 9.42715 14.5951 9.46063C14.8211 9.49411 14.9802 9.70345 14.9468 9.93781L14.009 16.5434C13.9756 16.7527 13.7997 16.9035 13.5988 16.9035L13.5905 16.8951Z" fill="black"/>
<path d="M22.9676 17.0963C22.7666 17.0963 22.5825 16.9457 22.5574 16.7363L21.6197 10.1308C21.5862 9.90471 21.7453 9.68709 21.9713 9.65361C22.1974 9.6285 22.415 9.77916 22.4486 10.0052L23.3862 16.6108C23.4197 16.8369 23.2607 17.0545 23.0346 17.088C23.0178 17.088 22.9927 17.088 22.976 17.088L22.9676 17.0963Z" fill="black"/>
<path d="M23.4713 8.80713L22.0898 10.0797L22.2992 11.7207L24.5178 10.6825L23.4713 8.80713Z" fill="#8D58B7"/>
<path d="M22.2985 12.139C22.2316 12.139 22.1561 12.1223 22.0975 12.0888C21.9804 12.0219 21.905 11.9047 21.8883 11.779L21.679 10.1465C21.6622 10.0126 21.7124 9.87861 21.8129 9.78654L23.1943 8.51396C23.2864 8.43025 23.4204 8.38839 23.5459 8.40513C23.6716 8.42188 23.7804 8.50559 23.8473 8.61443L24.8938 10.4898C24.9524 10.5902 24.9608 10.7158 24.9273 10.8247C24.8938 10.9335 24.8101 11.0256 24.7097 11.0758L22.491 12.1139C22.4324 12.139 22.3738 12.1558 22.3153 12.1558L22.2985 12.139ZM22.5329 10.247L22.6418 11.101L23.931 10.4982L23.3618 9.47676L22.5245 10.247H22.5329Z" fill="black"/>
</svg>
