<svg width="36" height="36" viewBox="0 0 36 36" fill="none" xmlns="http://www.w3.org/2000/svg">
<g clip-path="url(#clip0_3129_8654)">
<path d="M19.5029 31.2173L19.1804 30.4016L17.6439 26.5602C17.4542 26.0766 17.4542 25.5454 17.6628 25.0712L19.1425 21.6093H22.1397L20.3375 26.4085L21.6559 29.567L22.0923 30.6103L19.5029 31.2078V31.2173Z" fill="#F7C3A0"/>
<path d="M23.3445 33.6176L19.1426 35.4196L19.0193 35.0403C18.7159 34.1392 18.8486 33.1528 19.3798 32.3656L19.7497 31.8154L19.1806 30.4021L21.6656 29.577L23.3445 33.6176Z" fill="#4287BF"/>
<path d="M15.5488 13.8132H20.3482V16.2129H15.5488V13.8132Z" fill="#F7C3A0"/>
<path d="M29.8123 14.0026L31.7377 14.1733C32.2784 14.3915 32.544 15.008 32.3258 15.5486C32.2974 15.6151 32.2689 15.6814 32.2215 15.7384C31.9653 16.1367 31.5006 16.1747 30.9505 16.1367L28.75 15.8521L29.8123 13.9932V14.0026Z" fill="#F7C3A0"/>
<path d="M18.2043 9.01318H21.2964C22.463 9.01318 23.402 8.06473 23.402 6.90758C23.402 6.33849 23.1743 5.78836 22.7665 5.39949L22.7191 5.35207C22.1026 4.74504 21.6378 3.98625 21.3912 3.15159C20.9265 1.6435 19.5322 0.619141 17.9577 0.619141C15.9659 0.619141 14.3535 2.23156 14.3535 4.22337V5.17186C14.3535 7.29646 16.0797 9.02272 18.2043 9.02272V9.01318Z" fill="#4793C9"/>
<path d="M20.9435 7.80858L20.4029 9.61067H15.6035V7.37228L16.1441 7.2964L16.6184 7.23001L16.7417 7.21104V6.00647H19.1413V7.21104L19.2456 7.24898L19.7389 7.41022L20.9339 7.80858H20.9435Z" fill="#F7C3A0"/>
<path d="M29.8135 14.0026L28.7606 15.8426V15.8616L25.2703 15.046C25.1849 15.027 25.1185 14.989 25.0521 14.9227L20.9452 10.8157L21.5427 13.8129C20.2623 14.031 18.9629 14.1353 17.6635 14.1353C16.5442 14.1353 15.4345 14.0595 14.3248 13.8983L13.7368 13.8129L14.3343 9.61114L12.3235 10.0095C11.726 10.1328 11.1189 9.87673 10.7775 9.37399L8.47266 5.91205L10.3412 4.5083L12.5417 7.80901L16.1459 7.29683V7.80901C16.1459 8.80492 16.9521 9.61114 17.948 9.61114C18.9439 9.61114 19.7501 8.80492 19.7501 7.80901V7.41066L22.3584 8.28326C22.6145 8.36862 22.8422 8.52037 23.0223 8.72904L26.3515 12.6179L29.8135 14.0026Z" fill="#D0466F"/>
<path d="M5.39844 25.8108H6.60302V27.0154H5.39844V25.8108Z" fill="#EF5648"/>
<path d="M4.20312 27.0149H5.40769V28.2195H4.20312V27.0149Z" fill="#EF5648"/>
<path d="M6.60352 27.0149H7.80809V28.2195H6.60352V27.0149Z" fill="#EF5648"/>
<path d="M5.39844 28.2102H6.60302V29.4148H5.39844V28.2102Z" fill="#EF5648"/>
<path d="M31.1992 1.2168H32.4039V2.42137H31.1992V1.2168Z" fill="#EDA93E"/>
<path d="M29.4043 3.0094H30.6089V4.21397H29.4043V3.0094Z" fill="#EDA93E"/>
<path d="M33 3.0094H34.2046V4.21397H33V3.0094Z" fill="#EDA93E"/>
<path d="M31.1992 4.81201H32.4039V6.01658H31.1992V4.81201Z" fill="#EDA93E"/>
<path d="M17.9486 7.21129C18.9445 7.21129 19.7507 6.40508 19.7507 5.40917V3.60706H16.1465V5.40917C16.1465 6.40508 16.9526 7.21129 17.9486 7.21129Z" fill="#F7C3A0"/>
<path d="M19.2562 7.24898C18.5733 7.96983 17.4351 8.00776 16.7142 7.32486C16.6858 7.2964 16.6573 7.26795 16.6289 7.23001L16.7522 7.21104V6.00647H19.1519V7.21104L19.2562 7.24898Z" fill="#F0B58C"/>
<path d="M8.48185 5.91139L7.46698 4.38434C7.10656 3.85318 7.24883 3.12285 7.77998 2.77191C8.31113 2.41149 9.04148 2.55376 9.39239 3.08492L10.3409 4.49815L8.47237 5.90191L8.48185 5.91139Z" fill="#F7C3A0"/>
<path d="M13.5647 29.4154L13.2991 28.5617L11.6867 23.3356C11.478 22.6432 11.6582 21.8939 12.1704 21.3817L13.7354 19.8168L16.7326 21.0213L14.333 23.421L15.5849 27.8029L15.879 28.8179L13.5552 29.4154H13.5647Z" fill="#F7C3A0"/>
<path d="M16.7424 31.8154L12.5406 33.6175C12.1707 32.5173 12.4647 31.2937 13.2804 30.4781L13.7357 30.0227L13.2899 28.5716L15.5852 27.8033L16.7329 31.8249L16.7424 31.8154Z" fill="#4287BF"/>
<path d="M3.60657 10.8158L3.25564 11.5176C2.71501 12.6084 1.75704 13.4336 0.609375 13.813C1.76652 14.2019 2.71501 15.0271 3.25564 16.1083L3.60657 16.8102L3.95752 16.1083C4.49815 15.0175 5.45612 14.1924 6.60378 13.813C5.44663 13.4241 4.49815 12.599 3.95752 11.5176L3.60657 10.8158Z" fill="#F5AF40"/>
<path d="M32.4015 22.2166L32.0506 22.9184C31.5099 24.0092 30.552 24.8343 29.4043 25.2137C30.5614 25.6026 31.5099 26.4277 32.0506 27.509L32.4015 28.2109L32.7524 27.509C33.293 26.4183 34.251 25.5931 35.3987 25.2137C34.2415 24.8248 33.293 23.9996 32.7524 22.9184L32.4015 22.2166Z" fill="#F78C26"/>
<path d="M9.00315 22.8139C8.77555 22.8139 8.56689 22.6812 8.46255 22.482C8.00728 21.5525 8.00728 20.4712 8.46255 19.5417C8.61431 19.2477 8.97473 19.1338 9.26874 19.2761C9.56277 19.4278 9.67662 19.7788 9.53433 20.0728C9.2403 20.6608 9.2403 21.3533 9.53433 21.9318C9.68607 22.2259 9.56277 22.5863 9.26874 22.738C9.18342 22.776 9.09801 22.8045 9.00315 22.8045V22.8139Z" fill="#BAEFF3"/>
<path d="M6.88795 22.8142C6.66031 22.8142 6.45165 22.6814 6.34731 22.4822C5.89204 21.5527 5.89204 20.4715 6.34731 19.5419C6.49907 19.2479 6.85949 19.1246 7.15352 19.2763C7.44755 19.4281 7.57086 19.7885 7.4191 20.0826C7.12507 20.6706 7.12507 21.363 7.4191 21.9416C7.57086 22.2356 7.44755 22.5961 7.15352 22.7478C7.06815 22.7857 6.9828 22.8142 6.88795 22.8142Z" fill="#BAEFF3"/>
<path d="M28.5038 11.0437C28.1718 11.0437 27.9062 10.7781 27.9062 10.4461C27.9062 10.2943 27.9631 10.1426 28.0675 10.0383C28.5133 9.56398 28.7125 8.90009 28.6082 8.25512C28.5512 7.93263 28.7694 7.61964 29.1014 7.56273C29.4238 7.50581 29.7369 7.72397 29.7937 8.05594C29.9645 9.07078 29.6514 10.1141 28.9496 10.8635C28.8358 10.9868 28.6745 11.0531 28.5133 11.0531L28.5038 11.0437Z" fill="#BAEFF3"/>
<path d="M30.5331 11.6503C30.2011 11.6503 29.9355 11.3847 29.9355 11.0527C29.9355 10.901 29.9924 10.7492 30.0968 10.6449C30.5426 10.1706 30.7418 9.50667 30.6375 8.86172C30.5805 8.53924 30.7892 8.22623 31.1211 8.15984C31.4436 8.10293 31.7566 8.3116 31.823 8.64356C31.823 8.64356 31.823 8.64356 31.823 8.65305C31.9938 9.66795 31.6807 10.7112 30.9789 11.4606C30.8651 11.5839 30.7038 11.6503 30.5426 11.6503H30.5331Z" fill="#BAEFF3"/>
<path d="M17.9486 7.21129C18.9445 7.21129 19.7507 6.40508 19.7507 5.40917V3.60706H16.1465V5.40917C16.1465 6.40508 16.9526 7.21129 17.9486 7.21129Z" fill="#F7C3A0"/>
<path d="M23.9514 22.2167C20.0341 22.6055 16.079 21.8847 12.5601 20.1205L11.9531 19.817L15.5574 16.2128H20.3567L23.9609 22.2167H23.9514Z" fill="#B34137"/>
<path d="M5.39844 25.8108H6.60302V27.0154H5.39844V25.8108Z" fill="black"/>
<path d="M4.20312 27.0159H5.40769V28.2204H4.20312V27.0159Z" fill="black"/>
<path d="M6.60352 27.0159H7.80809V28.2204H6.60352V27.0159Z" fill="black"/>
<path d="M5.39844 28.2102H6.60302V29.4148H5.39844V28.2102Z" fill="black"/>
<path d="M31.1992 1.2168H32.4039V2.42137H31.1992V1.2168Z" fill="black"/>
<path d="M29.4043 3.0094H30.6089V4.21397H29.4043V3.0094Z" fill="black"/>
<path d="M33 3.0094H34.2046V4.21397H33V3.0094Z" fill="black"/>
<path d="M31.1992 4.81201H32.4039V6.01658H31.1992V4.81201Z" fill="black"/>
<path d="M10.2931 9.71532C10.7673 10.4267 11.621 10.7777 12.4556 10.6069L13.6412 10.3698L13.1575 13.7274C13.1101 14.0594 13.3377 14.3629 13.6696 14.4103L14.2577 14.4957C14.4854 14.5242 14.7225 14.5621 14.9596 14.5811V15.9658L11.5356 19.3899C11.2985 19.627 11.2985 20.0064 11.5356 20.234C11.583 20.2814 11.6304 20.3194 11.6874 20.3478L12.1426 20.5754L11.7633 20.9549C11.0898 21.6188 10.8526 22.6052 11.1278 23.5063L13.0721 29.8421L12.873 30.0414C11.8866 31.0278 11.5451 32.4789 11.9814 33.7973C12.0857 34.1104 12.4272 34.281 12.7401 34.1767C12.7591 34.1767 12.7687 34.1672 12.7876 34.1577L16.9894 32.3556C17.2644 32.2323 17.4162 31.9288 17.3308 31.6348L16.1832 27.6132C16.1832 27.6132 16.1832 27.5943 16.1832 27.5847L15.0355 23.5727L16.4203 22.1879C16.9704 22.3302 17.53 22.4629 18.0991 22.5578L17.1317 24.8152C16.8661 25.4317 16.8565 26.1431 17.1031 26.7691L19.0855 31.7296L18.8959 32.0142C18.2604 32.9531 18.1085 34.1388 18.469 35.2105L18.5923 35.59C18.6966 35.903 19.0381 36.0737 19.3511 35.9693C19.3701 35.9693 19.3795 35.9599 19.3985 35.9504L23.6003 34.1483C23.9038 34.0155 24.0461 33.674 23.9133 33.3705L21.0014 26.3897L22.3104 22.8992C22.8794 22.8898 23.4485 22.8518 24.0177 22.7949C24.3496 22.7665 24.5867 22.4725 24.5583 22.1404C24.5583 22.0551 24.5203 21.9697 24.4729 21.8938L20.9541 16.0322V14.4957C21.1911 14.4672 21.4283 14.4293 21.6559 14.3914C21.9784 14.3345 22.2061 14.0309 22.1491 13.699C22.1491 13.699 22.1491 13.6895 22.1491 13.68L21.9405 12.6272L24.6436 15.3399C24.7859 15.4822 24.9566 15.5769 25.1464 15.6244L28.6177 16.4401C28.6177 16.4401 28.6462 16.4401 28.6557 16.4401C28.6557 16.4401 28.6747 16.4401 28.6842 16.4401L30.8847 16.7246C30.8847 16.7246 30.9415 16.7246 30.9795 16.7341C31.1217 16.753 31.2736 16.772 31.4158 16.772C31.8046 16.772 32.2884 16.6583 32.7152 16.0987C32.7152 16.0891 32.7342 16.0797 32.7342 16.0702C33.2464 15.3114 33.0376 14.2776 32.2694 13.7749C32.1745 13.7084 32.0702 13.661 31.9659 13.6136C31.909 13.5947 31.8426 13.5757 31.7857 13.5757L30.0974 13.4618L26.7208 12.1055L23.5529 8.40645C24.065 7.64766 24.1599 6.68021 23.7995 5.84554C23.6572 5.51358 23.4485 5.21006 23.1925 4.95398L23.145 4.90655C22.5949 4.36592 22.1965 3.69249 21.9689 2.95267C21.2765 0.733228 18.9243 -0.499799 16.7143 0.192594C14.9596 0.742713 13.7645 2.36462 13.7645 4.20467V5.15316C13.7645 5.77915 13.8973 6.39567 14.1534 6.97424L12.854 7.16394L9.92322 2.76298C9.39204 1.94728 8.29179 1.71965 7.4761 2.26029C6.6604 2.80092 6.43277 3.89167 6.97341 4.70737C6.97341 4.70737 6.97341 4.71686 6.98288 4.72634L10.312 9.71532H10.2931ZM15.1968 28.5712L16.0314 31.4735L12.9963 32.773C12.9963 32.773 12.9963 32.6875 12.9963 32.6497C12.9963 31.9952 13.2523 31.3692 13.7171 30.9045L14.1724 30.4492C14.3336 30.288 14.3905 30.0603 14.3241 29.8516L14.0491 28.96L15.1968 28.5807V28.5712ZM13.9258 22.9941C13.774 23.1458 13.7171 23.3735 13.774 23.5822L14.8648 27.414L13.6982 27.8029L12.2755 23.1648C12.1236 22.6906 12.2565 22.1689 12.6074 21.818L13.2903 21.1351C13.8878 21.3912 14.4854 21.6283 15.1019 21.8274L13.9258 23.0035V22.9941ZM21.324 30.3259L22.5664 33.3041L19.5218 34.6036C19.3701 33.9491 19.5028 33.2567 19.8823 32.6971L20.2522 32.1469C20.366 31.9857 20.3849 31.777 20.309 31.5874L19.9771 30.7622L21.324 30.3164V30.3259ZM19.7874 26.2094C19.7305 26.3517 19.74 26.513 19.7874 26.6552L20.8592 29.2162L19.5218 29.6619L18.1939 26.3517C18.0612 26.0197 18.0706 25.6498 18.2034 25.3179L19.2942 22.7759C19.8633 22.8424 20.4323 22.8898 21.0109 22.9088L19.7684 26.2094H19.7874ZM22.9363 21.6947C19.4934 21.8749 16.0599 21.173 12.9678 19.6555L15.8037 16.8195H20.015L22.9363 21.6947ZM16.1547 15.6149V14.6854C16.6574 14.7138 17.1696 14.7328 17.6723 14.7328C18.3647 14.7328 19.057 14.7044 19.7494 14.6475V15.6149H16.1452H16.1547ZM30.2586 14.6759L31.5865 14.7613C31.8046 14.8941 31.8711 15.1786 31.7382 15.3967C31.5676 15.6149 31.4822 15.6055 31.1313 15.558C31.0933 15.558 31.0648 15.558 31.0269 15.5485L29.7844 15.3873L30.2586 14.6854V14.6759ZM14.9502 4.21416C14.9502 2.55432 16.297 1.21695 17.9473 1.21695C19.2562 1.21695 20.4229 2.07059 20.8118 3.32258C21.0963 4.25209 21.6085 5.09625 22.2914 5.77915L22.3388 5.82658C22.6328 6.11113 22.7941 6.5 22.7941 6.90785C22.7941 7.19239 22.7087 7.47694 22.557 7.72354C22.557 7.72354 22.5475 7.72354 22.538 7.72354L19.8823 6.84146C20.1857 6.43361 20.347 5.9404 20.347 5.42822V3.6261C20.347 3.29413 20.0814 3.02855 19.7494 3.02855H16.1452C15.8133 3.02855 15.5477 3.29413 15.5477 3.6261V5.42822C15.5477 5.89297 15.6804 6.34824 15.9366 6.73712L15.3864 6.813C15.0924 6.31979 14.9406 5.7507 14.9406 5.17213V4.22365L14.9502 4.21416ZM17.9473 6.61382C17.2834 6.61382 16.7522 6.07318 16.7428 5.40924V4.20467H19.1425V5.40924C19.1425 6.07318 18.6018 6.60433 17.9379 6.61382H17.9473ZM19.1425 7.84685C19.1045 8.51079 18.5354 9.0135 17.8715 8.96605C17.4162 8.9376 17.0084 8.65306 16.8376 8.22623C16.7807 8.09345 16.7522 7.96066 16.7522 7.81839H16.8376C16.9514 7.78993 17.0558 7.74251 17.1411 7.66663C17.6628 7.85633 18.2414 7.85633 18.7726 7.66663C18.8294 7.71406 18.8959 7.752 18.9717 7.78045L19.1614 7.84685H19.1425ZM10.1983 5.38079L12.0478 8.15036C12.1806 8.34006 12.3988 8.44438 12.6358 8.41594L15.5571 7.99861C15.671 9.23166 16.7048 10.1801 17.9473 10.1801C19.095 10.1801 20.0814 9.36441 20.2996 8.23572L22.1586 8.85224C22.3104 8.89966 22.4527 8.99451 22.557 9.11781L25.8862 13.0066C25.9525 13.0825 26.0284 13.1394 26.1232 13.1774L29.0351 14.3439L28.4755 15.1786L25.4498 14.4672L21.3714 10.3888C21.1342 10.1516 20.7548 10.1516 20.5272 10.3888C20.3849 10.5311 20.328 10.7302 20.366 10.9294L20.8402 13.3101C20.66 13.3385 20.4703 13.3575 20.2806 13.3765C19.4175 13.4714 18.5449 13.5283 17.6723 13.5283C16.9798 13.5283 16.2875 13.4998 15.6046 13.4334C15.2157 13.3955 14.8173 13.3481 14.4284 13.3006L14.9406 9.69642C14.9881 9.36441 14.7604 9.06093 14.4284 9.0135C14.3621 9.00396 14.2957 9.0135 14.2293 9.0135L12.2185 9.41184C11.8581 9.48771 11.4977 9.33597 11.289 9.03249L9.29718 6.04473L10.1983 5.36182V5.38079ZM7.90292 3.54074C7.96931 3.37 8.11158 3.23722 8.29179 3.19928C8.33922 3.1898 8.38664 3.18031 8.43406 3.18031C8.62376 3.18031 8.80397 3.27516 8.90831 3.43641L9.53433 4.38488L8.63325 5.06779L7.96931 4.07189C7.86497 3.92013 7.84601 3.72095 7.9124 3.55022L7.90292 3.54074Z" fill="black"/>
<path d="M0.410048 14.3816C1.41544 14.7136 2.24062 15.4344 2.71486 16.3735L3.0658 17.0753C3.21755 17.3693 3.57798 17.4926 3.87201 17.3409C3.98583 17.284 4.08067 17.1891 4.13758 17.0753L4.48852 16.3735C4.96276 15.425 5.78794 14.7041 6.79333 14.3816C7.10633 14.2773 7.27706 13.9358 7.17272 13.6228C7.11581 13.4426 6.97354 13.3003 6.79333 13.2435C5.78794 12.9114 4.96276 12.1906 4.48852 11.2517L4.13758 10.5498C3.98583 10.2557 3.62541 10.1324 3.33138 10.2842C3.21755 10.341 3.1227 10.4359 3.0658 10.5498L2.71486 11.2517C2.24062 12.2001 1.41544 12.9114 0.410048 13.2435C0.0970488 13.3478 -0.0736776 13.6892 0.0306554 14.0022C0.0875644 14.1824 0.229837 14.3247 0.410048 14.3816ZM3.59695 12.1242C4.00479 12.8071 4.55492 13.3857 5.21885 13.8125C4.55492 14.2393 3.99531 14.8179 3.59695 15.5008C3.1891 14.8179 2.63898 14.2393 1.97504 13.8125C2.63898 13.3857 3.19858 12.8071 3.59695 12.1242Z" fill="black"/>
<path d="M35.5883 24.6442C34.5829 24.3122 33.7577 23.5914 33.2834 22.6523L32.9324 21.9505C32.7807 21.6565 32.4203 21.5332 32.1262 21.6849C32.0125 21.7418 31.9176 21.8367 31.8607 21.9505L31.5097 22.6523C31.0355 23.6008 30.2103 24.3216 29.2049 24.6442C28.892 24.7485 28.7213 25.09 28.8256 25.403C28.8824 25.5832 29.0247 25.7255 29.2049 25.7823C30.2103 26.1144 31.0355 26.8352 31.5097 27.7741L31.8607 28.476C32.0125 28.7701 32.3728 28.8934 32.6669 28.7416C32.7807 28.6847 32.8756 28.5899 32.9324 28.476L33.2834 27.7741C33.7577 26.8257 34.5829 26.1048 35.5883 25.7823C35.9012 25.678 36.0719 25.3366 35.9676 25.0236C35.9107 24.8434 35.7684 24.7011 35.5883 24.6442ZM32.4014 26.9016C31.9935 26.2187 31.4434 25.6401 30.7795 25.2133C31.4434 24.7864 32.0029 24.2079 32.4014 23.525C32.8091 24.2079 33.3593 24.7864 34.0232 25.2133C33.3593 25.6401 32.7997 26.2187 32.4014 26.9016Z" fill="black"/>
<path d="M9.26874 19.2764C8.97473 19.1246 8.61431 19.2479 8.46255 19.5419C8.00728 20.4715 8.00728 21.5527 8.46255 22.4822C8.60482 22.7763 8.96524 22.8996 9.26874 22.7573C9.57231 22.615 9.68607 22.2546 9.54378 21.9511C9.24975 21.363 9.24975 20.6706 9.54378 20.0921C9.69561 19.7981 9.57231 19.4376 9.27828 19.2859L9.26874 19.2764Z" fill="black"/>
<path d="M7.15352 19.2764C6.85949 19.1246 6.49907 19.2479 6.34731 19.5419C5.89204 20.4715 5.89204 21.5527 6.34731 22.4822C6.49907 22.7763 6.85949 22.8996 7.15352 22.7478C7.44755 22.5961 7.57086 22.2356 7.4191 21.9416C7.12507 21.3535 7.12507 20.6612 7.4191 20.0826C7.57086 19.7885 7.44755 19.4281 7.15352 19.2764Z" fill="black"/>
<path d="M28.5042 11.0432C28.6654 11.0432 28.8267 10.9768 28.9405 10.8535C29.6519 10.1042 29.9648 9.06091 29.7847 8.04601C29.7278 7.72353 29.4148 7.4959 29.0923 7.5528C28.7698 7.60971 28.5421 7.92271 28.5991 8.2452C28.7128 8.89017 28.5137 9.55411 28.0585 10.0283C27.8308 10.2655 27.8403 10.6448 28.0869 10.8725C28.2007 10.9768 28.3429 11.0337 28.4948 11.0337L28.5042 11.0432Z" fill="black"/>
<path d="M30.0975 10.6451C29.8699 10.8822 29.8793 11.2616 30.1259 11.4893C30.3631 11.7169 30.7424 11.7074 30.9701 11.4608C31.6815 10.7115 31.9944 9.6682 31.8142 8.65331C31.7574 8.33083 31.4538 8.10319 31.1219 8.16011C30.7899 8.21701 30.5717 8.52053 30.6287 8.85249C30.6287 8.85249 30.6287 8.85249 30.6287 8.86198C30.7424 9.50692 30.5433 10.1708 30.088 10.6451H30.0975Z" fill="black"/>
</g>
<defs>
<clipPath id="clip0_3129_8654">
<rect width="36" height="36" fill="white"/>
</clipPath>
</defs>
</svg>
