<svg width="36" height="36" viewBox="0 0 36 36" fill="none" xmlns="http://www.w3.org/2000/svg">
<path d="M6.69386 12.8666C6.69386 12.8666 7.8204 11.2853 11.6052 11.2853C15.39 11.2853 15.6271 12.8666 19.8171 12.8666C24.007 12.8666 26.4973 11.2853 26.4973 11.2853L22.3074 0.701782C22.3074 0.701782 19.8073 2.283 15.6271 2.283C11.4471 2.283 11.2 0.701782 7.41524 0.701782C3.63045 0.701782 2.50391 2.283 2.50391 2.283L6.69386 12.8666Z" fill="#FFE843"/>
<path d="M30.7153 32.3244L28.4228 30.6641L25.5273 24.8536H21.7129L27.4445 34.2217L30.7153 32.3244Z" fill="#005DBB"/>
<path d="M19.5703 24.8533V35.2984H23.3552L22.2088 32.7096L23.1081 24.8533H19.5703Z" fill="#007AF6"/>
<path d="M24.9158 3.51782H18.9471C18.6408 3.51782 18.4233 3.81413 18.5123 4.10071L19.372 7.00594H24.4909L25.3506 4.10071C25.4396 3.80425 25.2221 3.51782 24.9158 3.51782Z" fill="#FF5D5D"/>
<path d="M24.4997 7.00574H19.3809V9.17997C19.3809 10.5931 20.5271 11.7392 21.9403 11.7392C23.3534 11.7392 24.4997 10.5931 24.4997 9.17997V7.00574Z" fill="#FFCDAC"/>
<path d="M21.9407 12.4401C20.1422 12.4401 18.6797 10.9778 18.6797 9.17923V7.00504C18.6797 6.61965 18.9959 6.30347 19.3813 6.30347H24.5002C24.8855 6.30347 25.2018 6.61965 25.2018 7.00504V9.17923C25.2018 10.9778 23.7392 12.4401 21.9407 12.4401ZM20.0829 7.70662V9.17923C20.0829 10.207 20.913 11.0369 21.9407 11.0369C22.9685 11.0369 23.7985 10.207 23.7985 9.17923V7.70662H20.0829Z" fill="black"/>
<path d="M21.4576 15.247L21.932 17.1442L26.3591 14.4465C26.9125 14.1105 27.6339 14.1994 28.0885 14.654C28.7011 15.2666 28.6122 16.2944 27.9106 16.7983L23.108 20.2175C22.6534 20.5435 22.1099 20.7116 21.5565 20.7116C20.3509 20.7116 19.3034 19.9111 18.9773 18.7549L18.1176 15.6422C17.6927 14.1302 18.6117 12.559 20.1335 12.1835L21.9221 11.7386H22.2482C23.9677 11.7386 25.361 13.1318 25.361 14.8513L24.6397 19.1206L26.4777 24.852H18.3251L19.5505 20.7212L21.4379 15.2567L21.4576 15.247Z" fill="#FF5D5D"/>
<path d="M24.4981 7.70731H19.3793C19.0729 7.70731 18.7963 7.50003 18.7074 7.20357L17.8476 4.29833C17.7389 3.94258 17.8081 3.57667 18.0255 3.28021C18.2429 2.98376 18.5887 2.81604 18.9544 2.81604H24.9231C25.2887 2.81604 25.6346 2.98376 25.852 3.28021C26.0694 3.57667 26.1386 3.95246 26.0298 4.29833L25.1702 7.20357C25.0812 7.50003 24.8045 7.70731 24.4981 7.70731ZM19.9031 6.30416H23.9744L24.5871 4.21919H19.2805L19.8932 6.30416H19.9031Z" fill="black"/>
<path d="M26.4965 25.5555H18.3439C18.1265 25.5555 17.9091 25.4467 17.7806 25.2689C17.6522 25.0911 17.6028 24.8638 17.6719 24.6465L18.8973 20.5156C19.006 20.1401 19.4013 19.9227 19.7669 20.0412C20.1424 20.15 20.35 20.5456 20.2412 20.9113L19.2827 24.1427H25.5281L23.9865 19.3301C23.8679 18.9644 24.0754 18.569 24.4411 18.4504C24.8166 18.3319 25.2019 18.5393 25.3206 18.905L27.1586 24.6368C27.2278 24.8542 27.1882 25.0812 27.0598 25.2689C26.9313 25.4566 26.7139 25.5555 26.4965 25.5555Z" fill="black"/>
<path d="M21.5651 21.4229C20.0531 21.4229 18.7191 20.4051 18.314 18.9524L17.4542 15.8393C17.1972 14.9203 17.3258 13.9617 17.8001 13.1415C18.2744 12.3213 19.0551 11.7383 19.9741 11.5111L21.7628 11.0666C22.1382 10.9777 22.5236 11.2045 22.6125 11.5801C22.7015 11.9556 22.4742 12.3413 22.0987 12.4302L20.3101 12.8747C19.7567 13.013 19.2923 13.3591 19.0057 13.8532C18.7191 14.3473 18.64 14.9204 18.7982 15.4639L19.6579 18.5766C19.8951 19.4264 20.6757 20.0193 21.5552 20.0193C21.9703 20.0193 22.3655 19.8912 22.7015 19.654L27.5041 16.2349C27.6722 16.1164 27.7809 15.9285 27.8006 15.721C27.8204 15.5135 27.7512 15.3158 27.5931 15.1676C27.3658 14.9304 27.0002 14.8906 26.7235 15.0585L22.2964 17.7563C22.1086 17.8749 21.8715 17.8949 21.6639 17.806C21.4564 17.717 21.2983 17.5392 21.2489 17.3316L20.7746 15.4344C20.6757 15.0589 20.9129 14.6731 21.2884 14.5842C21.6639 14.4953 22.0493 14.7127 22.1382 15.0981L22.3853 16.0665L26.0021 13.8629C26.8421 13.349 27.9093 13.4876 28.601 14.1794C29.0358 14.6241 29.2632 15.2268 29.2039 15.8494C29.1545 16.472 28.8283 17.0353 28.3244 17.391L23.5217 20.8101C22.9486 21.2153 22.2668 21.4326 21.5651 21.4326V21.4229Z" fill="black"/>
<path d="M25.3788 15.555C24.9934 15.555 24.6773 15.2388 24.6773 14.8534C24.6773 13.5292 23.6002 12.4423 22.2661 12.4423H21.9399C21.5545 12.4423 21.2383 12.1261 21.2383 11.7407C21.2383 11.3552 21.5545 11.0391 21.9399 11.0391H22.2661C24.3709 11.0391 26.0805 12.7485 26.0805 14.8534C26.0805 15.2388 25.7643 15.555 25.3788 15.555Z" fill="black"/>
<path d="M23.3536 35.9992H19.5687C19.1834 35.9992 18.8672 35.6826 18.8672 35.2972V24.8522C18.8672 24.4667 19.1834 24.1505 19.5687 24.1505C19.9542 24.1505 20.2704 24.4667 20.2704 24.8522V34.586H22.2666L21.555 32.9849C21.5056 32.8664 21.4859 32.7477 21.4957 32.6193L22.395 24.7634C22.4345 24.378 22.7903 24.1113 23.1757 24.1409C23.561 24.1804 23.8378 24.5357 23.7884 24.9211L22.9089 32.5797L23.9761 34.9913C24.0749 35.2087 24.0551 35.4554 23.9267 35.663C23.7983 35.8606 23.5709 35.9795 23.3338 35.9795L23.3536 35.9992Z" fill="black"/>
<path d="M22.1984 33.4116H19.9848C19.5994 33.4116 19.2832 33.0954 19.2832 32.7101C19.2832 32.3247 19.5994 32.0084 19.9848 32.0084H22.1984C22.5838 32.0084 22.9 32.3247 22.9 32.7101C22.9 33.0954 22.5838 33.4116 22.1984 33.4116Z" fill="black"/>
<path d="M30.7066 33.025C30.5584 33.025 30.4201 32.9853 30.2916 32.8865L27.999 31.2266C27.91 31.1575 27.8309 31.0683 27.7815 30.9695L24.8861 25.159C24.7083 24.8131 24.8565 24.388 25.2024 24.22C25.5483 24.052 25.9732 24.1907 26.1412 24.5366L28.9674 30.1989L31.1217 31.7603C31.4379 31.9876 31.5071 32.432 31.2797 32.7384C31.1414 32.9261 30.9241 33.025 30.7066 33.025Z" fill="black"/>
<path d="M27.4346 34.9223C27.1975 34.9223 26.9702 34.8038 26.8417 34.5864L22.2763 27.2541C22.0687 26.9279 22.1676 26.4931 22.5035 26.2857C22.8297 26.0781 23.2645 26.177 23.472 26.5129L27.6817 33.2624L30.3696 31.7106C30.7056 31.513 31.1305 31.6318 31.3281 31.9677C31.5258 32.3038 31.4072 32.7383 31.0712 32.926L27.8003 34.8233C27.6916 34.8925 27.5631 34.9223 27.4445 34.9223H27.4346Z" fill="black"/>
<path d="M26.4957 32.4821C26.2486 32.4821 26.0214 32.3533 25.883 32.126C25.6854 31.79 25.8039 31.3554 26.14 31.1677L28.0571 30.0608C28.393 29.8632 28.8179 29.982 29.0156 30.318C29.2132 30.654 29.0947 31.0885 28.7587 31.2762L26.8415 32.3832C26.7329 32.4524 26.6143 32.4821 26.4858 32.4821H26.4957Z" fill="black"/>
<path d="M31.0918 22.1658C30.815 22.1658 30.5582 22.0075 30.4396 21.7406L24.0559 6.66049C23.9076 6.30474 24.0756 5.89001 24.4313 5.74178C24.7871 5.59355 25.2021 5.76143 25.3503 6.11718L31.7341 21.1973C31.8823 21.553 31.7143 21.9678 31.3585 22.116C31.2696 22.1555 31.1807 22.1754 31.0819 22.1754L31.0918 22.1658Z" fill="black"/>
<path d="M23.4718 4.16094C23.1951 4.16094 22.9382 4.00265 22.8196 3.73584L21.6535 0.978728C21.5053 0.622981 21.6732 0.208247 22.029 0.0600178C22.3848 -0.0882116 22.7998 0.079666 22.9481 0.435416L24.1141 3.19252C24.2623 3.54827 24.0943 3.96349 23.7386 4.11172C23.6496 4.15125 23.5607 4.17059 23.4619 4.17059L23.4718 4.16094Z" fill="black"/>
<path d="M6.69238 13.5589C6.69238 13.5589 6.63309 13.5589 6.59357 13.5589C6.34652 13.5194 6.12912 13.3614 6.04018 13.1242L4.74565 9.84355C4.59742 9.47797 4.77528 9.07288 5.14092 8.9345C5.49667 8.78627 5.91171 8.96406 6.05006 9.32965L6.98885 11.6916C7.78929 11.1679 9.22214 10.5847 11.6037 10.5847C13.5702 10.5847 14.6671 10.99 15.7246 11.3852C16.6237 11.7212 17.4637 12.0374 18.9164 12.1264C19.3018 12.156 19.5982 12.4819 19.5685 12.8772C19.5389 13.2626 19.2129 13.5493 18.8176 13.5295C17.1673 13.4208 16.1791 13.0554 15.2305 12.6996C14.2423 12.3339 13.3232 11.9879 11.6037 11.9879C8.30315 11.9879 7.26555 13.2725 7.25567 13.2824C7.11732 13.4604 6.90979 13.5589 6.69238 13.5589Z" fill="black"/>
<path d="M4.56892 8.19246C4.38117 8.19246 4.20328 8.11344 4.06493 7.98497C4.00564 7.9158 3.94635 7.83676 3.9167 7.7577C3.87718 7.66876 3.85742 7.57956 3.85742 7.48074C3.85742 7.39181 3.87718 7.30284 3.9167 7.2139C3.94635 7.13486 4.00564 7.05582 4.06493 6.98664C4.33175 6.72971 4.7962 6.72971 5.06302 6.98664C5.13219 7.05582 5.1816 7.13486 5.21125 7.2139C5.25077 7.30284 5.27054 7.39181 5.27054 7.48074C5.27054 7.57956 5.25077 7.66876 5.21125 7.7577C5.1816 7.83676 5.13219 7.9158 5.06302 7.98497C4.93455 8.11344 4.74679 8.19246 4.56892 8.19246Z" fill="black"/>
<path d="M3.6795 5.96885C3.40281 5.96885 3.13599 5.80065 3.02729 5.52397L1.85134 2.54973C1.76241 2.33232 1.79205 2.07521 1.93039 1.87758C2.06874 1.68982 3.38304 0.00974967 7.41488 0.00974967C9.38139 0.00974967 10.4783 0.414968 11.5356 0.810247C12.6029 1.20552 13.6109 1.58131 15.6268 1.58131C19.5302 1.58131 21.9117 0.12843 21.9314 0.108666C22.2576 -0.0988552 22.6924 0.000176516 22.8999 0.326281C23.1075 0.652386 23.0087 1.08717 22.6825 1.29469C22.5739 1.36387 19.9649 2.98447 15.6268 2.98447C13.3539 2.98447 12.1286 2.52978 11.0415 2.12462C10.0533 1.759 9.13434 1.4134 7.41488 1.4134C5.01357 1.4134 3.80797 2.09482 3.33363 2.46046L4.3416 5.00043C4.48983 5.36606 4.31195 5.77114 3.94632 5.90949C3.85738 5.93914 3.77832 5.95871 3.68939 5.95871L3.6795 5.96885Z" fill="black"/>
<path d="M24.0359 12.9939C23.7296 12.9939 23.4529 12.7962 23.3639 12.48C23.2553 12.1045 23.4726 11.7192 23.8481 11.6105C25.3008 11.1954 26.121 10.6915 26.1309 10.6817C26.4569 10.4742 26.8918 10.5727 27.0994 10.8988C27.3068 11.2249 27.208 11.6596 26.8819 11.8672C26.8424 11.8969 25.9036 12.48 24.2336 12.9543C24.1743 12.9741 24.1051 12.9843 24.0359 12.9843V12.9939Z" fill="black"/>
</svg>
