<svg width="203" height="28" viewBox="0 0 203 28" fill="none" xmlns="http://www.w3.org/2000/svg">
  <path fillRule="evenodd" clipRule="evenodd" d="M140.59 25.53C143.7 19.45 145.29 11.38 145.93 4.37005L141.81 3.70005C141.22 10.45 139.58 17.3801 136.52 23.1301L140.59 25.53ZM152.9 24.9701L157.24 23.62H157.25C156.26 16.74 154.22 9.67005 151.52 3.47005L147.79 5.33005C150.22 11.59 151.82 18.2301 152.9 24.9701ZM156.04 7.13005C155.51 5.16005 155.01 3.63005 154.09 1.82005L154.1 1.81005L152.43 2.76005C153.34 4.73005 153.73 6.00005 154.26 8.13005L156.04 7.13005ZM158.83 5.84005C158.26 3.87005 157.8 2.33005 156.86 0.550049L155.17 1.50005C156.09 3.42005 156.55 4.77005 157.05 6.87005L158.83 5.84005ZM22.88 21.77C24.89 19.5 25.8 16.43 26.03 13.22L29.71 13.68C29.44 17.75 28.41 21.99 25.95 25.01L22.88 21.77ZM42.14 11.15H35.15V25.64H31.03V11.16H23.83V6.74003H31.03V2.82003H35.15V6.73003H39.01C38.48 6.05003 38.21 5.22003 38.21 4.30003C38.21 2.30003 39.6 0.660034 41.29 0.660034C42.98 0.660034 44.38 2.30003 44.38 4.30003C44.38 5.97003 43.49 7.32003 42.14 7.81003V11.15ZM36.38 13.66L39.99 13.06C40.56 17.08 41.09 18.89 43.22 22.15L40 25.04C37.53 21.7 36.86 17.95 36.38 13.66ZM39.78 4.30003C39.78 5.30003 40.47 6.08003 41.29 6.08003C42.11 6.08003 42.8 5.30003 42.8 4.30003C42.8 3.30003 42.14 2.52003 41.29 2.52003C40.44 2.52003 39.78 3.33003 39.78 4.30003ZM20.37 22.2301L16.99 26.1201C15.05 23.5001 13.01 20.9701 10.81 18.6501C8.3 21.7001 5.6 24.2701 2.24 25.9101L0 21.9701C5.39 19.3201 9.64 14.7601 11.79 8.28006H1.39V3.81006H17.09C16.52 7.84006 15.27 11.7601 13.26 15.1001C16.1 17.6101 17.83 19.2801 20.37 22.2201V22.2301ZM48.4224 25.87L48.43 25.88V25.87H48.4224ZM48.4215 25.8689L48.4224 25.87H48.42L48.4215 25.8689ZM48.4215 25.8689C52.9706 22.489 55.5501 17.6294 56.39 11.48H60.6V12.64C60.6 14.2 60.44 18.01 60.19 19.49C59.97 20.81 59.62 21 58.32 21C57.38 21 56.44 20.84 55.53 20.68L55.76 25.4C56.86 25.59 57.93 25.67 59.03 25.67C59.81 25.67 60.66 25.61 61.41 25.34C62.39 24.99 63.21 23.91 63.6 22.78C64.47 20.22 64.58 14.18 64.58 11.29V7.03004H56.83C56.92 5.58004 56.99 4.15004 57.03 2.69004L52.89 2.67004C52.89 4.13004 52.85 5.59004 52.78 7.05005H46.77V11.5H52.35C52.03 13.53 51.6 15.2 50.64 16.98C49.38 19.3 47.71 20.95 45.68 22.27L48.4215 25.8689ZM75.11 9.64005C75.11 15.17 74.71 22 71.12 26.07L68.08 22.4C70.84 18.78 71.09 14.71 71.09 10.07V3.73005H75.11V9.64005ZM81.36 19.54C84.17 17.89 85.13 14.57 85.61 11.12L89.43 13.06C88.84 16 87.88 18.86 86.17 21.18C84 24.15 80.59 25.39 77.37 25.5V3.05005H81.36V19.53V19.54ZM103.79 5.92006V1.44006H99.49V5.95006C99.5 8.70006 98.79 12.5301 97.74 14.9601C96.16 18.6301 93.49 21.0601 90.38 22.7601L92.9 27.1001C96.99 24.2901 100.17 20.4101 101.63 15.0101C103.3 20.4901 106.02 24.2101 110.3 27.0901L112.81 22.6101C110.07 20.9401 107.53 18.8401 105.88 15.6001C104.53 12.9601 103.79 8.67006 103.79 5.92006ZM113.64 9.77007V5.62007H116.98V1.33007H120.59V5.62007H122.95V9.77007H120.6V11.1701C121.58 12.9501 122.66 14.1601 124.08 15.4301L121.75 18.9401C121.29 18.3501 120.99 17.9201 120.61 17.2401V27.0101H117V17.7301C116.29 19.6201 115.56 21.0501 114.37 22.5601L113.18 17.0801C115.03 14.9201 116.06 12.6801 116.88 9.77007H113.64ZM123.7 9.79007V5.61007H129V1.32007H132.82V5.61007H135.27V9.79007H132.83V24.4401C132.83 25.7601 132.15 27.0001 130.94 27.0001H125.68L125.13 22.6301H128.19C128.78 22.6301 129.01 22.5501 129.01 21.7901V16.8301C127.59 19.3401 125.74 21.9601 123.78 23.8801L121.33 20.2701C124.19 17.9701 127.22 13.3301 128.96 9.80007H123.7V9.79007ZM170.09 7.54006L167.97 11.8601C165.61 10.0001 163.49 8.82006 160.81 7.71006L162.59 3.69006C165.38 4.69006 167.58 5.76006 170.09 7.54006ZM161.25 20.4401C164.86 20.0301 168.95 19.0001 171.76 16.0901C174.34 13.3901 176.01 8.67006 176.83 4.81006L180.35 7.64006C179.21 12.1701 177.38 16.8201 174.32 19.9701C170.94 23.4501 166.5 24.8101 162.18 25.5401L161.24 20.4401H161.25ZM185.94 26.06C190.23 25.08 194.19 23.14 197.18 19.25H197.17C200.57 14.82 201.8 9.32 202.12 3.5H188.7C187.45 6.77 185.76 9.17 183.13 11.01L185.69 14.49C188.09 12.73 189.76 10.66 191.29 7.87H197.51C196.35 16.26 191.08 20.39 184.31 21.69L185.94 26.06Z" fill="#307DC1"/>
</svg>