<svg width="107" height="15" viewBox="0 0 107 15" fill="none" xmlns="http://www.w3.org/2000/svg">
  <path fillRule="evenodd" clipRule="evenodd" d="M73.9418 13.238C75.5774 10.0403 76.4137 5.796 76.7503 2.10918L74.5834 1.7568C74.2731 5.30688 73.4106 8.95163 71.8012 11.9758L73.9418 13.238ZM80.416 12.9435L82.6986 12.2335H82.7039C82.1832 8.61503 81.1103 4.89665 79.6903 1.63584L77.7285 2.61408C79.0065 5.90645 79.848 9.39868 80.416 12.9435ZM82.0675 3.56077C81.7887 2.52467 81.5258 1.71999 81.0419 0.768038L81.0472 0.76278L80.1689 1.26242C80.6475 2.29852 80.8526 2.96646 81.1313 4.08671L82.0675 3.56077ZM83.5349 2.88231C83.2351 1.84621 82.9931 1.03627 82.4988 0.100098L81.6099 0.599738C82.0938 1.60954 82.3357 2.31956 82.5987 3.42402L83.5349 2.88231ZM12.0335 11.2607C13.0907 10.0668 13.5693 8.45217 13.6902 6.76391L15.6257 7.00584C15.4837 9.1464 14.942 11.3764 13.6482 12.9647L12.0335 11.2607ZM22.1631 5.67521H18.4868V13.2961H16.3199V5.68047H12.5332V3.35583H16.3199V1.29415H18.4868V3.35057H20.5169C20.2382 2.99293 20.0962 2.55641 20.0962 2.07254C20.0962 1.02067 20.8272 0.158129 21.716 0.158129C22.6049 0.158129 23.3412 1.02067 23.3412 2.07254C23.3412 2.95086 22.8731 3.66087 22.1631 3.91858V5.67521ZM19.1337 6.99532L21.0323 6.67976C21.3321 8.79403 21.6109 9.74597 22.7311 11.4605L21.0376 12.9805C19.7385 11.2239 19.3861 9.25159 19.1337 6.99532ZM20.9219 2.07254C20.9219 2.59848 21.2848 3.00871 21.716 3.00871C22.1473 3.00871 22.5102 2.59848 22.5102 2.07254C22.5102 1.5466 22.1631 1.13637 21.716 1.13637C21.269 1.13637 20.9219 1.56238 20.9219 2.07254ZM10.7134 11.5027L8.93568 13.5485C7.91536 12.1706 6.84245 10.84 5.68539 9.61979C4.36528 11.2239 2.94525 12.5756 1.1781 13.4381L0 11.3659C2.83481 9.97217 5.07004 7.5739 6.20081 4.16582H0.731054V1.81488H8.98828C8.68849 3.93441 8.03107 5.99608 6.97394 7.75271C8.4676 9.07282 9.37747 9.95113 10.7134 11.4974V11.5027ZM25.4672 13.4171L25.4712 13.4223V13.4171H25.4672ZM25.4667 13.4165L25.4672 13.4171H25.4659L25.4667 13.4165ZM25.4667 13.4165C27.8592 11.6388 29.2159 9.08297 29.6576 5.84881H31.8718V6.4589C31.8718 7.27936 31.7877 9.28319 31.6562 10.0616C31.5405 10.7558 31.3564 10.8557 30.6727 10.8557C30.1783 10.8557 29.6839 10.7716 29.2053 10.6874L29.3263 13.1699C29.9048 13.2698 30.4676 13.3119 31.0461 13.3119C31.4563 13.3119 31.9034 13.2803 32.2978 13.1383C32.8133 12.9542 33.2445 12.3862 33.4496 11.7919C33.9072 10.4455 33.9651 7.26884 33.9651 5.74888V3.50839H29.889C29.9364 2.74578 29.9732 1.99369 29.9942 1.22582L27.8169 1.2153C27.8169 1.98317 27.7958 2.75104 27.759 3.51891H24.5981V5.85933H27.5328C27.3645 6.92698 27.1384 7.8053 26.6335 8.74147C25.9708 9.96165 25.0925 10.8294 24.0248 11.5237L25.4667 13.4165ZM39.5033 4.88101C39.5033 7.78945 39.2929 11.3816 37.4048 13.5222L35.8059 11.592C37.2575 9.68808 37.389 7.54751 37.389 5.10716V1.77272H39.5033V4.88101ZM42.7904 10.0878C44.2683 9.22 44.7732 7.47388 45.0256 5.6594L47.0347 6.67972C46.7244 8.22598 46.2195 9.73016 45.3201 10.9503C44.1789 12.5124 42.3854 13.1645 40.6919 13.2224V1.41508H42.7904V10.0825V10.0878ZM54.5872 2.92463V0.568434H52.3257V2.94041C52.331 4.38674 51.9576 6.40108 51.4053 7.67911C50.5743 9.6093 49.1701 10.8873 47.5344 11.7814L48.8598 14.064C51.0109 12.5861 52.6833 10.5455 53.4512 7.70541C54.3295 10.5875 55.7601 12.544 58.0111 14.0587L59.3312 11.7025C57.8901 10.8242 56.5542 9.71975 55.6864 8.01571C54.9764 6.62724 54.5872 4.37096 54.5872 2.92463ZM59.7677 4.94932V2.76668H61.5243V0.510407H63.4229V2.76668H64.6641V4.94932H63.4282V5.68563C63.9436 6.6218 64.5116 7.25819 65.2585 7.92613L64.033 9.77217C63.7911 9.46187 63.6333 9.23571 63.4334 8.87808V14.0165H61.5348V9.13579C61.1614 10.1298 60.7775 10.8819 60.1516 11.6761L59.5257 8.79393C60.4987 7.6579 61.0404 6.4798 61.4717 4.94932H59.7677ZM65.0586 4.95984V2.76142H67.8461V0.505148H69.8551V2.76142H71.1437V4.95984H69.8604V12.6648C69.8604 13.3591 69.5028 14.0112 68.8664 14.0112H66.1L65.8107 11.7129H67.4201C67.7304 11.7129 67.8513 11.6708 67.8513 11.2711V8.66244C67.1045 9.98255 66.1315 11.3605 65.1007 12.3703L63.8121 10.4717C65.3163 9.26201 66.9099 6.82166 67.825 4.9651H65.0586V4.95984ZM89.4569 3.77645L88.3419 6.0485C87.1007 5.07026 85.9857 4.44965 84.5762 3.86586L85.5124 1.75159C86.9798 2.27753 88.1368 2.84028 89.4569 3.77645ZM84.8076 10.561C86.7063 10.3454 88.8573 9.8037 90.3352 8.27322C91.6922 6.85319 92.5705 4.37076 93.0017 2.34064L94.853 3.82905C94.2535 6.21154 93.291 8.65716 91.6816 10.3139C89.904 12.1441 87.5688 12.8594 85.2968 13.2433L84.8024 10.561H84.8076ZM97.793 13.5168C100.049 13.0014 102.132 11.9811 103.705 9.93516H103.699C105.487 7.60526 106.134 4.7126 106.303 1.65164H99.2446C98.5872 3.37146 97.6983 4.63371 96.3151 5.60144L97.6615 7.4317C98.9238 6.50605 99.8021 5.41736 100.607 3.94999H103.878C103.268 8.36261 100.496 10.5347 96.9357 11.2185L97.793 13.5168Z" fill="#FDFDFD"/>
</svg>