<svg width="40" height="40" viewBox="0 0 40 40" fill="none" xmlns="http://www.w3.org/2000/svg">
<g clip-path="url(#clip0_225_10286)">
<path d="M33.6603 32.1503C33.6603 32.1503 33.5683 32.1708 33.5172 32.1811C29.3485 33.1949 25.1799 30.5016 24.3829 26.2722C24.3829 26.2415 24.3727 26.2108 24.3625 26.1801C24.1683 25.156 23.2692 24.4083 22.227 24.4186C20.7455 24.4186 19.264 24.4186 17.7825 24.4186C16.7403 24.4186 15.8412 25.156 15.647 26.1801C15.647 26.2108 15.6368 26.2415 15.6266 26.2722C14.8297 30.4914 10.661 33.1847 6.49229 32.1811C6.4412 32.1708 6.40033 32.1606 6.34924 32.1503C2.47686 31.2082 0.00425637 27.4089 0.72969 23.4765C1.30186 20.3941 2.06816 17.2809 2.98773 14.137C3.89707 11.0341 6.68641 8.87334 9.9151 8.7607C10.5281 8.74021 11.1412 8.71967 11.7542 8.69919C17.2614 8.54558 22.7788 8.54558 28.2962 8.69919C28.9092 8.71967 29.5222 8.72997 30.1353 8.7607C33.364 8.87334 36.1533 11.0341 37.0626 14.137C37.9822 17.2809 38.7485 20.3941 39.3207 23.4765C40.0461 27.4089 37.5735 31.2082 33.7011 32.1503" fill="#F7F9F9"/>
<path d="M13.0211 26.2824C12.4081 29.5185 9.8231 31.8534 6.77832 32.3142C10.7222 32.9082 14.5129 30.2865 15.269 26.2824C15.269 26.2517 15.2792 26.221 15.2894 26.1903C15.4835 25.1662 16.3826 24.4186 17.4248 24.4288C16.6789 24.4288 15.9331 24.4288 15.1872 24.4288C14.145 24.4288 13.2459 25.1662 13.0518 26.1903C13.0518 26.221 13.0416 26.2517 13.0314 26.2824" fill="#DBDDDD"/>
<path d="M30.9118 32.1909C30.6972 32.2421 30.4827 32.2831 30.2579 32.3138C31.1979 32.4571 32.1685 32.4264 33.1494 32.1909C33.2005 32.1806 33.2414 32.1704 33.2925 32.1601C37.1648 31.218 39.6374 27.4187 38.912 23.4863C38.3398 20.4039 37.5735 17.2907 36.654 14.1469C35.7446 11.0439 32.9553 8.88316 29.7266 8.77051C29.6346 8.77051 29.5529 8.77051 29.4609 8.77051C31.8109 9.61024 33.6909 11.7096 34.4061 14.1571C35.3257 17.301 36.092 20.4141 36.6642 23.4966C37.3896 27.429 34.917 31.2282 31.0446 32.1704C30.9935 32.1806 30.9527 32.1909 30.9016 32.2011" fill="#DBDDDD"/>
<path d="M28.267 8.70993C28.267 9.181 28.2363 9.65209 28.1955 10.1334C28.0728 11.4544 27 12.4887 25.6718 12.5399C21.8811 12.6935 18.1007 12.6935 14.3101 12.5399C12.9818 12.4887 11.909 11.4544 11.7864 10.1334C11.7455 9.66233 11.7251 9.19124 11.7148 8.70993C17.222 8.55632 22.7394 8.55632 28.2568 8.70993" fill="#365E7D"/>
<path d="M19.9888 25.0132C19.4166 25.0132 18.8445 25.0132 18.2621 25.0132C17.9351 25.0132 17.6797 24.7468 17.6797 24.4294C17.6797 24.1017 17.9453 23.8457 18.2621 23.8457C19.4064 23.8457 20.561 23.8457 21.7053 23.8457C22.0323 23.8457 22.2877 24.1119 22.2877 24.4294C22.2877 24.7571 22.0323 25.0132 21.7053 25.0132C21.1332 25.0132 20.561 25.0132 19.9786 25.0132H19.9888Z" fill="black"/>
<path d="M27.8164 31.8731C27.7142 31.8731 27.6018 31.8424 27.5098 31.7912C25.589 30.6136 24.2811 28.7395 23.8316 26.5378C23.7703 26.2203 23.9644 25.913 24.2913 25.8414C24.6081 25.7799 24.9146 25.9746 24.9861 26.3023C25.3744 28.1865 26.4983 29.7841 28.1331 30.7877C28.409 30.9618 28.4907 31.3201 28.3272 31.5966C28.2148 31.7809 28.0207 31.8731 27.8266 31.8731H27.8164Z" fill="black"/>
<path d="M8.26024 32.9897C7.61655 32.9897 6.97286 32.9181 6.33938 32.7542V32.1501L6.19634 32.7235C2.01743 31.7097 -0.649301 27.6033 0.137437 23.3739C0.678957 20.4246 1.42483 17.3421 2.40569 13.9729C3.38656 10.6242 6.39047 8.2893 9.87459 8.17665C16.5874 7.94112 23.4024 7.94112 30.1254 8.17665C33.6095 8.29954 36.6134 10.6242 37.5943 13.9729C38.5752 17.3523 39.321 20.4246 39.8626 23.3739C40.6493 27.6033 37.9826 31.7097 33.8037 32.7235L33.5176 32.1911L33.6504 32.7645C32.3732 33.0717 31.0858 33.0717 29.8189 32.7645C29.5021 32.6826 29.308 32.3652 29.3898 32.0579C29.4715 31.7405 29.7882 31.5459 30.0948 31.6278C31.1778 31.894 32.2813 31.894 33.3745 31.6278L33.5176 31.597C37.0937 30.7368 39.3721 27.2243 38.708 23.5991C38.1767 20.6908 37.441 17.6595 36.4602 14.321C35.6224 11.4639 33.0578 9.46701 30.0743 9.3646C23.3819 9.12907 16.5976 9.12907 9.90524 9.3646C6.92177 9.46701 4.35721 11.4537 3.51938 14.321C2.54873 17.6493 1.81309 20.6908 1.27157 23.5991C0.607436 27.2141 2.88591 30.7266 6.46199 31.597L6.60503 31.6278C8.44416 32.0784 10.3344 31.7609 11.9385 30.7471C13.5324 29.7333 14.6257 28.1563 15.0037 26.3129C15.065 25.9955 15.3817 25.7906 15.6985 25.852C16.0152 25.9135 16.2196 26.231 16.1583 26.5485C15.7087 28.7092 14.4418 30.5525 12.572 31.7404C11.2539 32.5802 9.77241 33 8.26024 33V32.9897Z" fill="black"/>
<path d="M18.3655 23.7216C18.3655 22.2265 17.1599 21.0283 15.6784 21.0283C14.1969 21.0283 12.9912 22.2367 12.9912 23.7216C12.9912 25.2065 14.1969 26.4149 15.6784 26.4149C17.1599 26.4149 18.3655 25.2065 18.3655 23.7216Z" fill="#365E7D"/>
<path d="M27.0101 23.7216C27.0101 22.2265 25.8044 21.0283 24.3229 21.0283C22.8414 21.0283 21.6357 22.2367 21.6357 23.7216C21.6357 25.2065 22.8414 26.4149 24.3229 26.4149C25.8044 26.4149 27.0101 25.2065 27.0101 23.7216Z" fill="#365E7D"/>
<path d="M14.6982 26.3432C15.8835 26.0667 16.7724 24.9915 16.7724 23.7216C16.7724 22.4518 15.8835 21.3764 14.6982 21.0999C14.8924 21.0487 15.1069 21.0283 15.3113 21.0283C16.7928 21.0283 17.9984 22.2367 17.9984 23.7216C17.9984 25.2065 16.7928 26.4149 15.3113 26.4149C15.0967 26.4149 14.8924 26.3944 14.6982 26.3432Z" fill="#1B435E"/>
<path d="M23.3408 26.3432C24.526 26.0667 25.4149 24.9915 25.4149 23.7216C25.4149 22.4518 24.526 21.3764 23.3408 21.0999C23.535 21.0487 23.7495 21.0283 23.9539 21.0283C25.4354 21.0283 26.641 22.2367 26.641 23.7216C26.641 25.2065 25.4354 26.4149 23.9539 26.4149C23.7393 26.4149 23.535 26.3944 23.3408 26.3432Z" fill="#1B435E"/>
<path d="M15.6782 26.9992C13.8697 26.9992 12.3984 25.5246 12.3984 23.712C12.3984 21.8994 13.8697 20.4248 15.6782 20.4248C17.4867 20.4248 18.958 21.8994 18.958 23.712C18.958 25.5246 17.4867 26.9992 15.6782 26.9992ZM15.6782 21.6024C14.5134 21.6024 13.5734 22.5446 13.5734 23.712C13.5734 24.8795 14.5134 25.8215 15.6782 25.8215C16.843 25.8215 17.783 24.8795 17.783 23.712C17.783 22.5446 16.843 21.6024 15.6782 21.6024Z" fill="black"/>
<path d="M24.3208 26.9992C22.5123 26.9992 21.041 25.5246 21.041 23.712C21.041 21.8994 22.5123 20.4248 24.3208 20.4248C26.1293 20.4248 27.6006 21.8994 27.6006 23.712C27.6006 25.5246 26.1293 26.9992 24.3208 26.9992ZM24.3208 21.6024C23.156 21.6024 22.216 22.5446 22.216 23.712C22.216 24.8795 23.156 25.8215 24.3208 25.8215C25.4856 25.8215 26.4256 24.8795 26.4256 23.712C26.4256 22.5446 25.4856 21.6024 24.3208 21.6024Z" fill="black"/>
<path d="M11.0207 16.2561C10.7959 16.2561 10.5712 16.2459 10.3566 16.2356C10.3566 16.0103 10.3566 15.785 10.3362 15.57C10.3055 14.6176 9.52899 13.8496 8.57878 13.8496H8.54812C7.5979 13.8496 6.82139 14.6176 6.79074 15.57C6.79074 15.7953 6.78051 16.0206 6.7703 16.2356C6.54552 16.2356 6.32073 16.2357 6.10617 16.2561C5.15595 16.2869 4.38965 17.0651 4.38965 18.0175V18.0483C4.38965 19.0006 5.15595 19.7789 6.10617 19.8096C6.33095 19.8096 6.55573 19.8199 6.7703 19.8301C6.7703 20.0554 6.7703 20.2807 6.79074 20.4958C6.82139 21.4482 7.5979 22.2163 8.54812 22.2163H8.57878C9.52899 22.2163 10.3055 21.4482 10.3362 20.4958C10.3362 20.2705 10.3464 20.0452 10.3566 19.8301C10.5814 19.8301 10.8062 19.8301 11.0207 19.8096C11.9709 19.7789 12.7372 19.0006 12.7372 18.0483V18.0175C12.7372 17.0651 11.9709 16.2869 11.0207 16.2561Z" fill="#365E7D"/>
<path d="M8.57665 22.81C7.25861 22.81 6.23687 21.8064 6.196 20.5161V20.4035H6.08361C4.80644 20.3727 3.79492 19.3384 3.79492 18.0583C3.79492 16.7782 4.79622 15.7132 6.08361 15.6723H6.196V15.5596C6.22665 14.2796 7.25861 13.2656 8.53578 13.2656C9.85382 13.2656 10.8756 14.2693 10.9164 15.5596V15.6723H11.0288C12.306 15.703 13.3175 16.7372 13.3175 18.0173C13.3175 19.2974 12.3162 20.3625 11.0288 20.4035H10.9164V20.5161C10.8858 21.7962 9.85382 22.81 8.57665 22.81ZM8.57665 14.4433C7.9023 14.4433 7.39144 14.9451 7.371 15.5903V16.2559C7.35057 16.5734 7.09513 16.8295 6.77839 16.8295L6.11426 16.8499C5.47057 16.8703 4.96991 17.3824 4.96991 18.0276C4.96991 18.7034 5.47057 19.2155 6.11426 19.236L6.77839 19.2565C7.09513 19.2565 7.35056 19.5125 7.35056 19.8299V20.4956C7.38121 21.1408 7.9023 21.6425 8.53578 21.6425C9.21013 21.6425 9.721 21.1408 9.74143 20.4956L9.76186 19.8299C9.76186 19.5125 10.0173 19.2668 10.334 19.2565L10.9982 19.236C11.6419 19.2155 12.1425 18.7035 12.1425 18.0583C12.1425 17.3824 11.6419 16.8703 10.9982 16.8499L10.334 16.8295C10.0173 16.8295 9.77208 16.5734 9.76186 16.2559L9.74143 15.5903C9.721 14.9451 9.21013 14.4433 8.56643 14.4433H8.57665Z" fill="black"/>
<path d="M34.1197 17.4544C34.7736 16.799 34.7736 15.7339 34.1197 15.0785C33.4657 14.4231 32.4031 14.4231 31.7492 15.0785C31.0953 15.7339 31.0953 16.799 31.7492 17.4544C32.4031 18.1098 33.4657 18.1098 34.1197 17.4544Z" fill="#80B4FB"/>
<path d="M30.5845 20.9982C31.2384 20.3428 31.2384 19.2778 30.5845 18.6224C29.9306 17.967 28.868 17.967 28.2141 18.6224C27.5602 19.2778 27.5602 20.3428 28.2141 20.9982C28.868 21.6536 29.9306 21.6536 30.5845 20.9982Z" fill="#DD636E"/>
<path d="M32.935 18.5285C32.3526 18.5285 31.7805 18.3033 31.3309 17.8629C30.4522 16.9822 30.4522 15.5383 31.3309 14.6576C32.2198 13.7769 33.6502 13.7769 34.5289 14.6576C35.4076 15.5383 35.4076 16.9822 34.5289 17.8629C34.0896 18.3033 33.5072 18.5285 32.935 18.5285ZM32.935 15.1696C32.6591 15.1696 32.3731 15.272 32.1687 15.487C31.7396 15.9171 31.7396 16.6033 32.1687 17.0334C32.5978 17.4635 33.2824 17.4532 33.7115 17.0334C34.1407 16.6033 34.1407 15.9171 33.7115 15.487C33.497 15.272 33.2211 15.1696 32.9452 15.1696H32.935Z" fill="black"/>
<path d="M29.4006 22.0743C28.7978 22.0743 28.2256 21.8387 27.8067 21.4086C27.3776 20.9785 27.1426 20.4152 27.1426 19.811C27.1426 19.2068 27.3776 18.6334 27.8067 18.2135C28.6547 17.3533 30.1465 17.3533 31.0047 18.2135C31.4339 18.6436 31.6689 19.2068 31.6689 19.811C31.6689 20.4152 31.4339 20.9887 31.0047 21.4086C30.5756 21.8387 30.0137 22.0743 29.4108 22.0743H29.4006ZM29.4006 18.7153C29.1043 18.7153 28.8387 18.8279 28.6343 19.0327C28.43 19.2375 28.3176 19.514 28.3176 19.8007C28.3176 20.0875 28.43 20.364 28.6343 20.5688C29.043 20.9784 29.7582 20.9784 30.1771 20.5688C30.3815 20.364 30.4939 20.0875 30.4939 19.8007C30.4939 19.514 30.3815 19.2375 30.1771 19.0327C29.9728 18.8279 29.6969 18.7153 29.4108 18.7153H29.4006Z" fill="black"/>
<path d="M21.8182 18.0382H18.3545C17.7619 18.0382 17.2715 17.557 17.2715 16.9528C17.2715 16.3486 17.7517 15.8672 18.3545 15.8672H21.8182C22.4108 15.8672 22.9013 16.3486 22.9013 16.9528C22.9013 17.557 22.421 18.0382 21.8182 18.0382Z" fill="#365E7D"/>
<path d="M21.8205 18.6226H18.3568C17.4373 18.6226 16.6914 17.8751 16.6914 16.9534C16.6914 16.0318 17.4373 15.2842 18.3568 15.2842H21.8205C22.7401 15.2842 23.486 16.0318 23.486 16.9534C23.486 17.8751 22.7401 18.6226 21.8205 18.6226ZM18.3568 16.4516C18.081 16.4516 17.8664 16.6769 17.8664 16.9432C17.8664 17.2094 18.0912 17.4347 18.3568 17.4347H21.8205C22.0964 17.4347 22.311 17.2094 22.311 16.9432C22.311 16.6769 22.0862 16.4516 21.8205 16.4516H18.3568Z" fill="black"/>
<path d="M13.1851 12.8161C13.0931 12.8161 13.0012 12.7957 12.9092 12.7445C11.9488 12.2325 11.3153 11.2699 11.2131 10.1741C11.1723 9.68255 11.1416 9.19093 11.1416 8.69938C11.1416 8.37168 11.397 8.11571 11.724 8.10547C12.0509 8.10547 12.3064 8.36143 12.3064 8.68913C12.3064 9.14996 12.3268 9.60064 12.3677 10.0615C12.429 10.7578 12.8377 11.3722 13.4507 11.6999C13.7368 11.8536 13.8492 12.2119 13.6959 12.4986C13.5938 12.6932 13.3894 12.8059 13.1749 12.8059L13.1851 12.8161Z" fill="black"/>
<path d="M19.9894 13.2346C18.4772 13.2346 16.965 13.214 15.4631 13.1628C15.1361 13.1628 14.8807 12.8864 14.8909 12.5587C14.8909 12.231 15.1974 11.9749 15.4937 11.9851C18.8553 12.0875 22.2679 12.0774 25.6396 11.9443C26.6613 11.9033 27.5094 11.0942 27.6013 10.0701C27.6422 9.6093 27.6626 9.15875 27.6626 8.69792C27.6626 8.37022 27.9283 8.11426 28.245 8.11426C28.572 8.11426 28.8274 8.38047 28.8274 8.70817C28.8274 9.19972 28.7968 9.69133 28.7559 10.1726C28.6128 11.7907 27.2846 13.0605 25.6702 13.122C23.78 13.1936 21.8694 13.2346 19.9689 13.2346H19.9894Z" fill="black"/>
</g>
<defs>
<clipPath id="clip0_225_10286">
<rect width="40" height="40" fill="white"/>
</clipPath>
</defs>
</svg>
