<svg width="40" height="40" viewBox="0 0 40 40" fill="none" xmlns="http://www.w3.org/2000/svg">
<g clip-path="url(#clip0_225_10289)">
<mask id="mask0_225_10289" style="mask-type:luminance" maskUnits="userSpaceOnUse" x="0" y="0" width="40" height="40">
<path d="M40 0H0V40H40V0Z" fill="white"/>
</mask>
<g mask="url(#mask0_225_10289)">
<mask id="mask1_225_10289" style="mask-type:luminance" maskUnits="userSpaceOnUse" x="0" y="0" width="40" height="40">
<path d="M40 0H0V40H40V0Z" fill="white"/>
</mask>
<g mask="url(#mask1_225_10289)">
<path d="M10.86 38.0203H17.94L17.47 32.9503C17.35 31.5903 16.52 30.4003 15.29 29.8003L11.63 28.0203L8.38 24.5903C8.07 24.2703 7.58 24.1903 7.2 24.4303C6.78 24.6903 6.64 25.2303 6.88 25.6603L7.92 27.2803L7.37 27.0103C6.19 26.4403 5.16 25.6003 4.36 24.5703C3.95 24.0403 3.61 23.4703 3.33 22.8603L2.57 21.1803C2.4 20.8003 1.98 20.5903 1.58 20.6903C1.09 20.8003 0.789999 21.3003 0.929999 21.7803L1.73 24.6703C2.07 25.7403 3.35 28.2403 4.15 29.0303C5.9 30.7503 9.05 32.4703 9.97 33.4603C10.95 34.5203 10.85 38.0203 10.85 38.0203" fill="#FCD7C3"/>
<path d="M17.4697 32.9501C17.3497 31.5901 16.5197 30.4001 15.2897 29.8001L11.6297 28.0201L8.37974 24.5901C8.06974 24.2701 7.57974 24.1901 7.19974 24.4301C6.77974 24.6901 6.63974 25.2301 6.87974 25.6601L7.91974 27.2801L10.3997 29.8001C10.3997 29.8001 12.5197 32.3101 12.6397 33.6601L13.0397 38.0201H17.9297L17.4597 32.9501H17.4697Z" fill="#F9C7AC"/>
<path d="M10.4897 29.8603L7.92969 27.2803" stroke="black" stroke-width="1.17" stroke-linecap="round" stroke-linejoin="round"/>
<path d="M10.7505 35.8799H17.9305C18.3605 35.8799 18.7005 36.2299 18.7005 36.6499V38.6399C18.7005 39.0699 18.3505 39.4099 17.9305 39.4099H10.7505C10.3205 39.4099 9.98047 39.0599 9.98047 38.6399V36.6499C9.98047 36.2199 10.3305 35.8799 10.7505 35.8799Z" fill="#0D6E9A"/>
<path d="M29.1396 38.0203H22.0596L22.5296 32.9503C22.6496 31.5903 23.4796 30.4003 24.7096 29.8003L28.3696 28.0203L31.6196 24.5903C31.9296 24.2703 32.4196 24.1903 32.7996 24.4303C33.2196 24.6903 33.3596 25.2303 33.1196 25.6603L32.0796 27.2803L32.6296 27.0103C33.8096 26.4403 34.8396 25.6003 35.6396 24.5703C36.0496 24.0403 36.3896 23.4703 36.6696 22.8603L37.4296 21.1803C37.5996 20.8003 38.0196 20.5903 38.4196 20.6903C38.9096 20.8003 39.2096 21.3003 39.0696 21.7803L38.2696 24.6703C37.9296 25.7403 36.6496 28.2403 35.8496 29.0303C34.0996 30.7503 30.9496 32.4703 30.0296 33.4603C29.0496 34.5203 29.1496 38.0203 29.1496 38.0203" fill="#FCD7C3"/>
<path d="M38.4104 20.6899L36.2704 25.9799C34.0804 28.9499 26.0204 32.4699 25.1104 33.4599C24.1304 34.5199 24.2304 38.0199 24.2304 38.0199H29.1504C29.1504 38.0199 29.0504 34.5299 30.0304 33.4599C30.9504 32.4699 34.1004 30.7499 35.8504 29.0299C36.6504 28.2399 37.9304 25.7399 38.2704 24.6699L39.0704 21.7799C39.2004 21.2999 38.9104 20.7999 38.4204 20.6899" fill="#F9C7AC"/>
<path d="M29.5098 29.8603L32.0698 27.2803" stroke="black" stroke-width="1.17" stroke-linecap="round" stroke-linejoin="round"/>
<path d="M29.2498 35.8799H22.0698C21.6398 35.8799 21.2998 36.2299 21.2998 36.6499V38.6399C21.2998 39.0699 21.6498 39.4099 22.0698 39.4099H29.2498C29.6798 39.4099 30.0198 39.0599 30.0198 38.6399V36.6499C30.0198 36.2199 29.6698 35.8799 29.2498 35.8799Z" fill="#0D6E9A"/>
<path d="M32.6097 16.4399C31.0097 23.4099 24.0597 27.7499 17.0897 26.1499C10.1197 24.5499 5.77966 17.5999 7.37966 10.6299C8.98966 3.65988 15.9397 -0.690116 22.9097 0.919884C29.8797 2.51988 34.2197 9.46988 32.6197 16.4399" fill="#69E6ED"/>
<path d="M22.9095 0.920103C21.0795 0.500103 19.2495 0.490103 17.5195 0.830103C17.6695 0.860103 17.8095 0.890103 17.9595 0.920103C24.9295 2.5201 29.2695 9.4701 27.6695 16.4401C26.4895 21.5801 22.3995 25.2901 17.5395 26.2401C24.3595 27.5701 31.0495 23.2601 32.6195 16.4401C34.2195 9.4701 29.8795 2.5201 22.9095 0.920103Z" fill="#33D8DD"/>
<path d="M20.8197 17.77C19.3297 17.39 18.3197 12.6 15.0597 13.41C14.0197 13.67 11.1697 11.3 11.4697 10.63C12.1997 8.97996 10.7097 8.40996 11.4797 7.43996C11.8997 6.90996 12.4197 6.32996 13.0997 6.90996C13.7797 7.47996 13.5297 8.66996 14.1297 8.78996C14.7397 8.90996 15.1497 7.49996 15.5097 6.69996C16.8197 3.82996 20.5197 4.75996 21.7197 3.61996C22.6397 2.74996 23.0097 1.69996 22.8597 0.919956C15.9697 -0.660044 9.10969 3.59996 7.42969 10.45C8.58969 12.36 11.2797 13.96 12.1497 14.55C12.4297 14.74 12.5197 15.12 12.3497 15.42C11.8497 16.26 11.1697 17.95 12.6897 19.2C14.7897 20.93 14.7897 21.74 13.9397 23.53C13.7197 23.98 13.5597 24.36 13.4397 24.69C14.3697 25.24 15.3797 25.67 16.4597 25.98C17.2797 24.78 18.7397 23.74 19.4697 23.42C20.7297 22.86 23.2197 23.03 23.8397 20.37C24.1297 19.11 22.3297 18.15 20.8297 17.76" fill="#8FD143"/>
<path d="M17.9498 0.920154C19.5798 1.30015 21.0598 1.96015 22.3598 2.85015C22.7998 2.17015 22.9698 1.47015 22.8598 0.910154C21.0398 0.500154 19.2298 0.490154 17.5098 0.830154C17.6598 0.860154 17.7998 0.890154 17.9498 0.920154Z" fill="#7BB72E"/>
<path d="M32.6097 16.4403C33.9197 10.7703 31.2797 5.12033 26.5097 2.34033C25.7097 4.38033 28.1697 5.22033 27.9097 5.89033C27.7997 6.17033 27.8697 6.52033 27.9797 6.84033C28.1497 7.31033 28.0097 7.83033 27.6297 8.14033C26.9697 8.68033 26.0697 9.56033 25.8897 10.4703C25.4597 12.7103 26.2297 13.6503 27.0597 14.3403C28.3497 15.4003 29.3197 15.0303 29.8497 15.8103C30.9897 17.5003 25.7197 21.9803 27.4897 24.0903C29.9897 22.3203 31.8697 19.6603 32.6097 16.4403Z" fill="#8FD143"/>
<path d="M32.6103 16.4403C33.9203 10.7703 31.2803 5.12033 26.5103 2.34033C25.7103 4.38033 28.1703 5.22033 27.9103 5.89033C27.8003 6.17033 27.8703 6.52033 27.9803 6.84033C28.1503 7.31033 28.0103 7.83033 27.6303 8.14033C27.4403 8.29033 27.2403 8.47033 27.0403 8.67033C27.8203 10.5903 28.1503 12.7203 27.9203 14.8903C28.7903 15.3003 29.4503 15.2203 29.8503 15.8203C30.9903 17.5103 25.7203 21.9903 27.4903 24.1003C29.9903 22.3303 31.8703 19.6703 32.6103 16.4503" fill="#7BB72E"/>
<path d="M11.3396 3.91011C14.3696 1.19011 18.6296 -0.0698861 22.9096 0.920114C29.8796 2.52011 34.2196 9.47011 32.6196 16.4401C31.0196 23.4101 24.0696 27.7501 17.0996 26.1501C10.1296 24.5501 5.77961 17.6001 7.38961 10.6301C7.81961 8.76011 8.62961 7.08011 9.72961 5.66011" stroke="black" stroke-width="1.17" stroke-linecap="round" stroke-linejoin="round"/>
<path d="M16.4497 25.9802C17.2697 24.7802 18.7297 23.7402 19.4597 23.4202C20.7197 22.8602 23.2097 23.0302 23.8297 20.3702C24.1197 19.1102 22.3197 18.1502 20.8197 17.7602C19.3297 17.3802 18.3197 12.5902 15.0597 13.4002C14.0197 13.6602 11.1697 11.2902 11.4697 10.6202C12.1997 8.97016 10.7097 8.40016 11.4797 7.43016C11.8997 6.90016 12.4197 6.32016 13.0997 6.90016C13.7797 7.47016 13.5297 8.66016 14.1297 8.78016C14.7397 8.90016 15.1497 7.49016 15.5097 6.69016C16.8197 3.82016 20.5197 4.75016 21.7197 3.61016C22.6397 2.74016 23.0097 1.69016 22.8597 0.910156" stroke="black" stroke-width="1.17" stroke-linecap="round" stroke-linejoin="round"/>
<path d="M7.42969 10.4502C8.58969 12.3602 11.2797 13.9602 12.1497 14.5502C12.4297 14.7402 12.5197 15.1202 12.3497 15.4202C11.8497 16.2602 11.1697 17.9502 12.6897 19.2002C14.7897 20.9302 14.7897 21.7402 13.9397 23.5302C13.7197 23.9802 13.5597 24.3602 13.4397 24.6902" stroke="black" stroke-width="1.17" stroke-linecap="round" stroke-linejoin="round"/>
<path d="M26.5097 2.34033C25.7097 4.38033 28.1697 5.22033 27.9097 5.89033C27.7997 6.17033 27.8697 6.52033 27.9797 6.84033C28.1497 7.31033 28.0097 7.83033 27.6297 8.14033C26.9697 8.68033 26.0697 9.56033 25.8897 10.4703C25.4597 12.7103 26.2297 13.6503 27.0597 14.3403C28.3497 15.4003 29.3197 15.0303 29.8497 15.8103C30.9897 17.5003 25.7197 21.9803 27.4897 24.0903" stroke="black" stroke-width="1.17" stroke-linecap="round" stroke-linejoin="round"/>
<path d="M17.5298 33.5099L17.4798 32.9499C17.3598 31.5899 16.5298 30.3999 15.2998 29.7999L11.6398 28.0199L8.38978 24.5899C8.07978 24.2699 7.58978 24.1899 7.20978 24.4299C6.78978 24.6899 6.64978 25.2299 6.88978 25.6599L7.92978 27.2799L7.37978 27.0099C6.19978 26.4399 5.16978 25.5999 4.36978 24.5699C3.95978 24.0399 3.61978 23.4699 3.33978 22.8599L2.58978 21.2099C2.41978 20.8299 1.99978 20.5999 1.58978 20.6899C1.09978 20.7999 0.799777 21.2999 0.929777 21.7799L1.72978 24.6699C2.06978 25.7399 3.34978 28.2399 4.14978 29.0299C5.89978 30.7499 9.04978 32.4699 9.96978 33.4599C10.0098 33.4999 10.0498 33.5499 10.0798 33.5999" stroke="black" stroke-width="1.17" stroke-linecap="round" stroke-linejoin="round"/>
<path d="M29.9205 33.6003C29.9205 33.6003 29.9905 33.5103 30.0305 33.4703C30.9505 32.4803 34.1005 30.7603 35.8505 29.0403C36.6505 28.2503 37.9305 25.7503 38.2705 24.6803L39.0705 21.8203C39.2005 21.3703 38.9605 20.8703 38.5105 20.7203C38.0805 20.5703 37.6105 20.7803 37.4305 21.1903L36.6705 22.8703C36.3905 23.4803 36.0505 24.0503 35.6405 24.5803C34.8405 25.6103 33.8105 26.4503 32.6305 27.0203L32.0805 27.2903L33.1205 25.6703C33.3505 25.2403 33.2205 24.7003 32.8005 24.4403C32.4205 24.2003 31.9305 24.2803 31.6205 24.6003L28.3705 28.0303L24.7105 29.8103C23.4805 30.4103 22.6605 31.6003 22.5305 32.9603L22.4805 33.5403" stroke="black" stroke-width="1.17" stroke-linecap="round" stroke-linejoin="round"/>
<path d="M10.7505 35.8799H17.9305C18.3605 35.8799 18.7005 36.2299 18.7005 36.6499V38.6399C18.7005 39.0699 18.3505 39.4099 17.9305 39.4099H10.7505C10.3205 39.4099 9.98047 39.0599 9.98047 38.6399V36.6499C9.98047 36.2199 10.3305 35.8799 10.7505 35.8799Z" stroke="black" stroke-width="1.17" stroke-linecap="round" stroke-linejoin="round"/>
<path d="M29.2498 35.8799H22.0698C21.6398 35.8799 21.2998 36.2299 21.2998 36.6499V38.6399C21.2998 39.0699 21.6498 39.4099 22.0698 39.4099H29.2498C29.6798 39.4099 30.0198 39.0599 30.0198 38.6399V36.6499C30.0198 36.2199 29.6698 35.8799 29.2498 35.8799Z" stroke="black" stroke-width="1.17" stroke-linecap="round" stroke-linejoin="round"/>
</g>
</g>
</g>
<defs>
<clipPath id="clip0_225_10289">
<rect width="40" height="40" fill="white"/>
</clipPath>
</defs>
</svg>
