<svg width="40" height="41" viewBox="0 0 40 41" fill="none" xmlns="http://www.w3.org/2000/svg">
<g clip-path="url(#clip0_225_10357)">
<path d="M23.1228 16.0426L26.6594 19.5792C27.1139 20.0337 27.8456 20.0337 28.3112 19.5792L34.952 13.0714C38.2115 9.8674 38.2004 4.6235 35.0075 1.43059C34.7857 1.20887 34.4864 1.08691 34.176 1.08691C33.533 1.08691 33.0008 1.60798 33.0008 2.25099C33.0008 3.5592 32.5019 4.7898 31.5818 5.72106L23.1117 14.3685C22.6682 14.8231 22.6682 15.5548 23.1117 16.0093L23.1228 16.0426Z" fill="white"/>
<path d="M34.9733 1.44189C34.9733 1.44189 34.9844 1.44189 34.9955 1.45298C38.1884 4.64589 38.2106 9.8787 34.9401 13.0938L28.2993 19.6015C27.8447 20.0561 27.1019 20.045 26.6585 19.6015L24.7294 17.6725L32.3348 10.2113C34.7516 7.83879 35.6164 4.51285 34.9733 1.45298V1.44189Z" fill="#EFEFEF"/>
<path d="M23.9539 16.8966L26.7588 19.7014L6.41511 40.0451L2.78983 36.4199L22.3131 16.8966C22.7677 16.442 23.5105 16.442 23.965 16.8966H23.9539Z" fill="#DC003C"/>
<path d="M19.3755 26.9627L21.0273 25.3108L17.4021 21.6855L15.7502 23.3374L19.3755 26.9627Z" fill="#FF3D62"/>
<path d="M21.2033 15.7989L26.9017 21.4974C27.3563 21.9519 28.0991 21.9519 28.5536 21.4974C29.0082 21.0428 29.0082 20.3001 28.5536 19.8455L22.8552 14.1471C22.4006 13.6925 21.6578 13.6925 21.2033 14.1471C20.7487 14.6016 20.7487 15.3444 21.2033 15.7989Z" fill="#FF3D62"/>
<path d="M2.81164 36.8645C2.96685 36.8645 3.12206 36.8091 3.23293 36.6871L22.6564 17.2636C22.8893 17.0308 22.8893 16.6428 22.6564 16.41C22.4236 16.1771 22.0356 16.1771 21.8028 16.41L2.37927 35.8335C2.14645 36.0663 2.14645 36.4543 2.37927 36.6871C2.50122 36.8091 2.65643 36.8645 2.80056 36.8645H2.81164Z" fill="black"/>
<path d="M6.43764 40.5003C6.59285 40.5003 6.74806 40.4448 6.85893 40.3229L26.2824 20.8994C26.5152 20.6665 26.5152 20.2785 26.2824 20.0457C26.0496 19.8129 25.6616 19.8129 25.4288 20.0457L6.00527 39.4692C5.77245 39.702 5.77245 40.0901 6.00527 40.3229C6.12722 40.4448 6.28243 40.5003 6.42655 40.5003H6.43764Z" fill="black"/>
<path d="M28.3104 20.2007C28.4656 20.2007 28.6098 20.1452 28.7317 20.0233L35.3725 13.5155C37.0577 11.8636 37.9889 9.64634 38 7.28492C38 4.91242 37.102 2.69512 35.4279 1.02106C35.0953 0.688469 34.6519 0.5 34.1752 0.5C33.1996 0.5 32.4013 1.29823 32.4013 2.27384C32.4013 3.42683 31.9579 4.50222 31.1596 5.32262L22.6896 13.9701C22.4568 14.2029 22.4568 14.5909 22.6896 14.8237C22.9224 15.0565 23.3104 15.0565 23.5432 14.8237L32.0133 6.17627C33.0443 5.13415 33.6098 3.74834 33.6098 2.28492C33.6098 1.81929 34.2528 1.55321 34.5743 1.88581C36.0155 3.32705 36.8027 5.24501 36.7916 7.28492C36.7916 9.32483 35.9823 11.2317 34.5299 12.6619L27.8891 19.1696C27.6563 19.4024 27.6452 19.7794 27.8891 20.0233C28.0111 20.1452 28.1663 20.2007 28.3215 20.2007H28.3104Z" fill="black"/>
<path d="M19.3743 27.5619C19.5295 27.5619 19.6847 27.5065 19.7956 27.3845L21.4475 25.7327C21.6803 25.4998 21.6803 25.1118 21.4475 24.879L17.8222 21.2537C17.5894 21.0209 17.2013 21.0209 16.9685 21.2537L15.3166 22.9056C15.0838 23.1384 15.0838 23.5264 15.3166 23.7593L18.9419 27.3845C19.0639 27.5065 19.2191 27.5619 19.3632 27.5619H19.3743ZM20.1725 25.3114L19.3743 26.1096L16.6027 23.338L17.4009 22.5397L20.1725 25.3114Z" fill="black"/>
<path d="M27.7229 22.4403C28.1996 22.4403 28.6431 22.2518 28.9757 21.9192C29.6631 21.2319 29.6631 20.101 28.9757 19.4137L23.2772 13.7152C22.5899 13.0279 21.4591 13.0279 20.7717 13.7152C20.0843 14.4026 20.0843 15.5334 20.7717 16.2208L26.4701 21.9192C26.8027 22.2518 27.2462 22.4403 27.7229 22.4403ZM22.0245 14.4026C22.1686 14.4026 22.3127 14.458 22.4236 14.5689L28.122 20.2673C28.3438 20.4891 28.3438 20.8438 28.122 21.0656C27.9114 21.2762 27.5344 21.2762 27.3238 21.0656L21.6254 15.3671C21.4036 15.1454 21.4036 14.7906 21.6254 14.5689C21.7362 14.458 21.8803 14.4026 22.0245 14.4026Z" fill="black"/>
</g>
<defs>
<clipPath id="clip0_225_10357">
<rect width="40" height="40" fill="white" transform="translate(0 0.5)"/>
</clipPath>
</defs>
</svg>
