<svg width="40" height="41" viewBox="0 0 40 41" fill="none" xmlns="http://www.w3.org/2000/svg">
<g clip-path="url(#clip0_225_10316)">
<path d="M38.1609 5.29855C37.2252 5.0226 32.5896 3.63228 32.5896 3.63228C32.5896 3.63228 32.0473 3.47309 31.2712 3.2396C30.495 3.00611 29.9421 2.84691 29.9421 2.84691C29.9421 2.84691 25.2958 1.47782 24.3602 1.21249C23.4246 0.936552 22.5634 0.681836 22.1912 2.76201C21.8191 4.84218 19.799 14.8397 19.799 14.8397C19.363 17.1216 19.6289 19.3928 21.1599 21.0803C22.6909 22.7784 23.3608 23.6699 22.8292 25.23C22.2976 26.7901 19.5119 33.5401 19.5119 33.5401C19.2142 34.0707 19.0972 35.0259 21.2662 35.6202C21.3832 35.6521 21.4895 35.6839 21.6065 35.7157C21.7128 35.7476 21.8191 35.7794 21.9361 35.8219C24.0838 36.5011 24.5091 35.6521 24.541 35.0365C24.541 35.0365 25.9019 27.862 26.3059 26.2595C26.7099 24.6675 27.7625 24.2748 29.974 23.6911C32.1855 23.1074 33.6422 21.3562 34.5246 19.2017C34.5246 19.2017 38.3097 9.72422 39.1284 7.78202C39.9471 5.83981 39.0859 5.5851 38.1502 5.30916L38.1609 5.29855Z" fill="#EA4747"/>
<path d="M38.1609 5.29831C38.1609 5.29831 38.0758 5.27709 38.0333 5.25586C36.885 8.04711 33.185 17.7263 33.185 17.7263C32.3025 19.8807 30.8352 21.6319 28.6344 22.2156C26.4229 22.7993 25.9019 23.521 25.4979 25.113C25.0938 26.705 23.8286 31.9372 23.8286 31.9372C23.7861 32.5528 23.3608 33.4019 21.2237 32.7226C21.1067 32.6908 21.0004 32.6589 20.8941 32.6165C20.7878 32.5846 20.6708 32.5528 20.5539 32.521C20.3412 32.4573 20.1498 32.4042 19.9797 32.3299C19.6926 33.0622 19.5119 33.5186 19.5119 33.5186C19.2142 34.0493 19.0972 35.0044 21.2662 35.5988C21.3832 35.6306 21.4895 35.6624 21.6065 35.6943C21.7128 35.7261 21.8191 35.758 21.9361 35.8004C24.0838 36.4797 24.5091 35.6306 24.541 35.015C24.541 35.015 25.9019 27.8406 26.3059 26.238C26.7099 24.646 27.7625 24.2533 29.974 23.6696C32.1855 23.0859 33.6422 21.3347 34.5246 19.1803C34.5246 19.1803 38.3097 9.70276 39.1284 7.76056C39.9471 5.81836 39.0859 5.56364 38.1502 5.2877L38.1609 5.29831Z" fill="#C52B21"/>
<path d="M32.2821 21.3012C32.2821 21.3012 32.1864 21.3012 32.1333 21.28L20.6717 17.8838C20.5335 17.8413 20.4272 17.7564 20.3527 17.6291C20.2889 17.5017 20.2677 17.3637 20.3102 17.2258L21.7137 12.4923C21.7562 12.3543 21.8413 12.2482 21.9688 12.1739C22.0964 12.1102 22.2346 12.089 22.3729 12.1315L33.8344 15.5277C34.1109 15.6126 34.281 15.9097 34.1959 16.1857L32.7925 20.9191C32.7287 21.1526 32.516 21.3012 32.2821 21.3012ZM21.4798 17.0135L31.9206 20.1125L33.0264 16.3979L22.5855 13.2989L21.4798 17.0135Z" fill="#0D0F0F"/>
<path d="M29.2128 5.15982L26.4814 4.34961L22.4625 17.8498L25.1939 18.66L29.2128 5.15982Z" fill="#0D0F0F"/>
<path d="M25.1897 19.189C25.1897 19.189 25.0833 19.189 25.0408 19.1677L22.3083 18.3611C22.0319 18.2762 21.8618 17.9791 21.9468 17.7031L25.9658 4.20324C26.0083 4.06527 26.0934 3.95914 26.221 3.88485C26.3486 3.82117 26.4868 3.79995 26.625 3.8424L29.3575 4.649C29.6339 4.7339 29.8041 5.03107 29.719 5.30701L25.7 18.8069C25.6575 18.9449 25.5724 19.051 25.4448 19.1253C25.3704 19.1677 25.2747 19.189 25.1897 19.189ZM23.1164 17.4909L24.8282 18.0003L28.5494 5.50866L26.8377 4.99923L23.1164 17.4909Z" fill="#0D0F0F"/>
<path d="M34.6767 6.77896L31.9453 5.96875L27.9263 19.4689L30.6577 20.2791L34.6767 6.77896Z" fill="#0D0F0F"/>
<path d="M30.6527 20.8101C30.6527 20.8101 30.557 20.8101 30.5038 20.7889L27.7713 19.9823C27.6331 19.9398 27.5268 19.8549 27.4524 19.7276C27.3886 19.6002 27.3673 19.4622 27.4098 19.3243L31.4288 5.82439C31.5139 5.54845 31.8116 5.38925 32.088 5.46354L34.8205 6.27014C34.9587 6.31259 35.065 6.3975 35.1395 6.52485C35.2033 6.65221 35.2245 6.79018 35.182 6.92815L31.163 20.428C31.0992 20.6615 30.8866 20.8101 30.6527 20.8101ZM28.5794 19.112L30.2912 19.6214L34.0125 7.1298L32.3007 6.62037L28.5794 19.112Z" fill="#0D0F0F"/>
<path d="M32.2341 6.0628L28.9014 5.07422L24.8824 18.5744L28.2151 19.5629L32.2341 6.0628Z" fill="#F8D707"/>
<path d="M28.2196 20.0902C28.2196 20.0902 28.1239 20.0901 28.0708 20.0689L24.7323 19.0819C24.594 19.0395 24.4877 18.9545 24.4133 18.8272C24.3495 18.6998 24.3282 18.5619 24.3708 18.4239L28.3898 4.924C28.4748 4.64806 28.7725 4.48886 29.0489 4.56315L32.3875 5.55017C32.5257 5.59262 32.632 5.67753 32.7064 5.80489C32.7702 5.93224 32.7915 6.07021 32.749 6.20818L28.73 19.7081C28.6662 19.9416 28.4535 20.0902 28.2196 20.0902ZM25.5403 18.2116L27.8581 18.9015L31.5794 6.40983L29.2616 5.71998L25.5403 18.2116Z" fill="#0D0F0F"/>
<path d="M23.2978 36.5958C22.8619 36.5958 22.3622 36.5003 21.7774 36.3198C21.6711 36.288 21.5541 36.2562 21.4478 36.2243L21.1182 36.1288C19.9274 35.7998 19.2044 35.3222 18.9386 34.6748C18.7578 34.2397 18.8004 33.7409 19.0555 33.2845C19.0555 33.2845 21.8093 26.5876 22.3409 25.0593C22.7768 23.7964 22.2877 23.1065 20.778 21.4403C19.2788 19.7846 18.7685 17.4603 19.2894 14.7434C19.3107 14.6372 21.3096 4.71397 21.6711 2.66564C21.8518 1.64678 22.1814 1.02061 22.6811 0.712827C23.2872 0.341367 23.9464 0.532403 24.5205 0.712827L38.3212 4.80949C38.8953 4.9793 39.5545 5.18095 39.8522 5.81774C40.1074 6.34839 40.033 7.03825 39.6289 8.00404C38.8209 9.9144 35.0677 19.3176 35.0252 19.4131C33.9726 21.9815 32.2714 23.6478 30.1131 24.2209C27.9441 24.794 27.1467 25.1124 26.8277 26.4072C26.4343 27.9673 25.084 35.0781 25.0734 35.1524C25.0521 35.6194 24.8182 36.0545 24.4248 36.3198C24.1271 36.5215 23.755 36.6276 23.3084 36.6276L23.2978 36.5958ZM23.4679 1.55126C23.3722 1.55126 23.2978 1.56188 23.234 1.60433C23.1064 1.67862 22.8831 1.94395 22.713 2.83545C22.3409 4.88378 20.342 14.8283 20.3208 14.9238C20.0018 16.5794 19.9593 18.9356 21.5541 20.7079C23.0745 22.3954 23.9676 23.5204 23.3297 25.3883C22.7981 26.9379 20.1081 33.4543 20.0018 33.7302C19.8211 34.0486 19.8849 34.1972 19.9061 34.2503C19.9699 34.3989 20.2357 34.7809 21.4053 35.0993L21.6711 35.1736C21.8625 35.2267 21.9581 35.2585 22.0751 35.2904C23.2553 35.6618 23.6806 35.492 23.8188 35.4071C23.8613 35.3753 23.9995 35.2904 24.0208 34.9826C24.0846 34.6218 25.3924 27.7126 25.7964 26.11C26.2748 24.1891 27.6464 23.7433 29.8366 23.1596C32.1438 22.544 33.3984 20.5488 34.0364 18.978C34.0683 18.8931 37.8321 9.46865 38.6401 7.54768C38.991 6.70924 38.9485 6.35901 38.8847 6.23165C38.789 6.01939 38.4062 5.90264 38.0022 5.7859L24.2015 1.69985C23.9251 1.61494 23.6593 1.54065 23.4573 1.54065L23.4679 1.55126Z" fill="#0D0F0F"/>
<path d="M14.7808 5.54988C13.8877 5.95318 9.47535 7.92722 9.47535 7.92722C9.47535 7.92722 8.95437 8.16071 8.21011 8.48972C7.47649 8.82934 6.95551 9.06282 6.95551 9.06282C6.95551 9.06282 2.55375 11.0687 1.66064 11.472C0.778168 11.8753 -0.040516 12.2468 1.03334 14.0616C2.1072 15.8764 7.14689 24.749 7.14689 24.749C8.31644 26.7655 10.007 28.2938 12.2716 28.5804C14.5363 28.8669 15.6421 29.1004 16.2481 30.6287C16.8648 32.157 19.1826 39.0767 19.1826 39.0767C19.3102 39.6817 19.8418 40.467 21.8726 39.5013C21.9895 39.4482 22.0852 39.4057 22.1915 39.3527C22.2979 39.3102 22.4042 39.2678 22.5105 39.2147C24.5838 38.3338 24.3392 37.4105 23.9671 36.9117C23.9671 36.9117 20.2884 30.5968 19.5441 29.1322C18.7998 27.6676 19.3421 26.6806 20.6286 24.7915C21.9151 22.9023 21.8726 20.6311 21.1283 18.4236C21.1283 18.4236 17.7791 8.77627 17.1199 6.781C16.4607 4.78574 15.6421 5.14658 14.7596 5.54988H14.7808Z" fill="#EA4747"/>
<path d="M14.78 5.54903C14.78 5.54903 14.7056 5.58087 14.6631 5.6021C15.6306 8.46764 19.1712 18.1999 19.1712 18.1999C19.9154 20.4074 19.9579 22.6786 18.6714 24.5677C17.3849 26.4569 17.4594 27.3378 18.2036 28.8024C18.9479 30.267 21.4146 35.0641 21.4146 35.0641C21.7867 35.5523 22.0312 36.4757 19.9579 37.3672C19.8516 37.4202 19.7453 37.4627 19.639 37.5051C19.5327 37.5582 19.437 37.6007 19.32 37.6537C19.118 37.7492 18.9373 37.8235 18.7671 37.8872C19.0329 38.6301 19.2031 39.0865 19.2031 39.0865C19.3306 39.6914 19.8623 40.4768 21.893 39.511C22.01 39.458 22.1057 39.4155 22.212 39.3624C22.3183 39.32 22.4246 39.2775 22.531 39.2245C24.6042 38.3436 24.3597 37.4202 23.9876 36.9214C23.9876 36.9214 20.3088 30.6066 19.5646 29.142C18.8203 27.6774 19.3625 26.6904 20.649 24.8012C21.9355 22.9121 21.893 20.6409 21.1488 18.4334C21.1488 18.4334 17.7996 8.78604 17.1404 6.79077C16.4812 4.7955 15.6625 5.15635 14.78 5.55965V5.54903Z" fill="#C52B21"/>
<path d="M9.59139 26.5318C9.5276 26.5318 9.4638 26.5212 9.40001 26.5C9.27242 26.4469 9.1661 26.3514 9.10231 26.224L7.06091 21.7241C6.94396 21.4587 7.06091 21.1403 7.32672 21.0236L18.2141 16.1097C18.3417 16.046 18.4906 16.046 18.6182 16.0991C18.7458 16.1522 18.8521 16.2477 18.9159 16.3751L20.9573 20.875C21.0742 21.1403 20.9573 21.4587 20.6915 21.5755L9.80403 26.4894C9.72961 26.5212 9.65518 26.5318 9.58076 26.5318H9.59139ZM8.26236 21.7665L9.8572 25.3007L19.7771 20.8219L18.1823 17.2878L8.26236 21.7665Z" fill="#0D0F0F"/>
<path d="M7.91453 11.2984L5.31836 12.4707L11.1334 25.3025L13.7296 24.1302L7.91453 11.2984Z" fill="#0D0F0F"/>
<path d="M11.1445 25.8284C11.0807 25.8284 11.0169 25.8178 10.9531 25.7966C10.8255 25.7435 10.7192 25.648 10.6554 25.5206L4.83953 12.6894C4.78637 12.562 4.77573 12.4134 4.8289 12.2861C4.88206 12.1587 4.97775 12.0526 5.10533 11.9889L7.69961 10.8108C7.96541 10.6941 8.28438 10.8108 8.40133 11.0762L14.2172 23.9074C14.3341 24.1727 14.2172 24.4911 13.9514 24.6079L11.3571 25.7859C11.2827 25.8178 11.2082 25.8284 11.1338 25.8284H11.1445ZM6.03034 12.7212L11.4103 24.5867L13.037 23.8544L7.65708 11.9889L6.03034 12.7212Z" fill="#0D0F0F"/>
<path d="M13.1186 8.95857L10.5225 10.1309L16.3375 22.9627L18.9337 21.7904L13.1186 8.95857Z" fill="#0D0F0F"/>
<path d="M16.3329 23.4877C16.2691 23.4877 16.2053 23.4771 16.1416 23.4559C16.014 23.4028 15.9076 23.3073 15.8438 23.1799L10.028 10.3487C9.97484 10.2213 9.96421 10.0727 10.0174 9.94536C10.0705 9.818 10.1662 9.71187 10.2938 9.64819L12.8881 8.48075C13.1539 8.36401 13.4729 8.48075 13.5898 8.74608L19.4057 21.5773C19.5226 21.8427 19.4057 22.1611 19.1398 22.2778L16.5456 23.4559C16.4712 23.4877 16.3967 23.4983 16.3223 23.4983L16.3329 23.4877ZM11.2188 10.3911L16.5987 22.2566L18.2255 21.5243L12.8456 9.65881L11.2188 10.3911Z" fill="#0D0F0F"/>
<path d="M10.8044 9.99345L7.63672 11.4238L13.4518 24.2556L16.6195 22.8253L10.8044 9.99345Z" fill="#F8D707"/>
<path d="M13.4508 24.7902C13.2488 24.7902 13.0574 24.6735 12.9617 24.4824L7.14587 11.6512C7.02892 11.3858 7.14587 11.0674 7.41168 10.9507L10.5801 9.51793C10.7077 9.45425 10.8565 9.45425 10.9841 9.50731C11.1117 9.56038 11.218 9.6559 11.2818 9.78325L17.0977 22.6145C17.1508 22.7419 17.1615 22.8905 17.1083 23.0178C17.0551 23.1452 16.9594 23.2513 16.8319 23.315L13.6634 24.7478C13.589 24.7796 13.5146 24.7902 13.4402 24.7902H13.4508ZM8.33669 11.6936L13.7166 23.5591L15.9175 22.5615L10.5376 10.696L8.33669 11.6936Z" fill="#0D0F0F"/>
<path d="M20.2983 40.4984C20.0006 40.4984 19.7348 40.4347 19.5009 40.3179C19.0756 40.1057 18.7885 39.7024 18.6822 39.193C18.6822 39.193 16.375 32.3263 15.769 30.8298C15.2693 29.5881 14.4506 29.3864 12.2178 29.1105C9.99566 28.8345 8.09249 27.423 6.69966 25.0138C6.6465 24.9183 1.64934 16.1094 0.586118 14.3264C0.0545058 13.4349 -0.104978 12.7557 0.0651382 12.1932C0.277783 11.5139 0.905087 11.238 1.44733 10.9833L14.5675 5.06115C15.1204 4.81705 15.7371 4.5305 16.3857 4.81705C16.9279 5.05054 17.3213 5.62365 17.6509 6.61067C18.2995 8.58471 21.6167 18.1471 21.6592 18.2427C22.5524 20.8747 22.3503 23.2414 21.0957 25.0881C19.8305 26.9454 19.4477 27.6989 20.0431 28.8876C20.7661 30.331 24.413 36.5821 24.4449 36.6458C24.732 37.0173 24.8383 37.4949 24.7213 37.9512C24.5406 38.6305 23.892 39.2036 22.7437 39.7024C22.648 39.7448 22.5311 39.7979 22.4248 39.8404C22.3397 39.8828 22.2228 39.9359 22.1058 39.9889C21.4041 40.3179 20.8087 40.4878 20.3089 40.4878L20.2983 40.4984ZM15.8115 5.77223C15.5989 5.77223 15.3118 5.89959 15.0035 6.03756L1.89389 11.9597C1.51113 12.1295 1.14963 12.2993 1.08584 12.5222C1.04331 12.6602 1.04331 13.0104 1.50049 13.7958C2.56372 15.5894 7.57151 24.4089 7.62467 24.4938C8.47525 25.9584 9.98503 27.7626 12.356 28.0598C14.6101 28.3357 16.0242 28.6011 16.7684 30.4371C17.3851 31.9654 19.6285 38.6411 19.7135 38.917C19.788 39.2779 19.9368 39.3522 19.9793 39.3734C20.1282 39.4477 20.5748 39.5538 21.6699 39.0338C21.7975 38.9807 21.8932 38.9382 21.9888 38.8852C22.1058 38.8321 22.2015 38.7897 22.3078 38.7472C23.4348 38.259 23.6581 37.8557 23.7006 37.6965C23.7113 37.6434 23.7538 37.4842 23.5731 37.2508C23.3817 36.943 19.8411 30.851 19.1075 29.3864C18.2144 27.6247 18.948 26.3829 20.2239 24.5044C21.5636 22.5304 21.2021 20.2061 20.6598 18.6035C20.6279 18.508 17.3 8.93494 16.6515 6.95029C16.3644 6.08001 16.0986 5.85714 15.971 5.79346C15.9285 5.77223 15.8753 5.76162 15.8221 5.76162L15.8115 5.77223Z" fill="#0D0F0F"/>
</g>
<defs>
<clipPath id="clip0_225_10316">
<rect width="40" height="40" fill="white" transform="translate(0 0.5)"/>
</clipPath>
</defs>
</svg>
