<svg width="40" height="41" viewBox="0 0 40 41" fill="none" xmlns="http://www.w3.org/2000/svg">
<g clip-path="url(#clip0_225_10337)">
<mask id="mask0_225_10337" style="mask-type:luminance" maskUnits="userSpaceOnUse" x="2" y="0" width="36" height="41">
<path d="M37.5555 0.5H2V40.5H37.5555V0.5Z" fill="white"/>
</mask>
<g mask="url(#mask0_225_10337)">
<path d="M10.9784 39.7888C10.8229 39.7888 10.6562 39.7665 10.5007 39.711C9.72289 39.4554 9.30066 38.6444 9.56733 37.9111L12.4451 29.8444C12.7118 29.1111 13.5562 28.6999 14.334 28.9555C15.1118 29.211 15.534 30.022 15.2673 30.7553L12.3896 38.822C12.1784 39.4109 11.6007 39.7777 10.9784 39.7777V39.7888Z" fill="#5C6670"/>
<path d="M30.1894 39.7876C29.5783 39.7876 28.9894 39.4208 28.7782 38.8319L25.9005 30.7652C25.6338 30.0319 26.0449 29.2209 26.8338 28.9654C27.6116 28.7098 28.456 29.1099 28.7227 29.8543L31.6005 37.9207C31.8671 38.6541 31.456 39.4653 30.6671 39.7209C30.5116 39.7653 30.3449 39.7987 30.1894 39.7987V39.7876Z" fill="#5C6670"/>
<path d="M20.5898 33.822C29.5564 33.822 36.812 26.8776 36.812 18.2887C36.812 9.69979 29.5453 2.75537 20.5898 2.75537C11.6342 2.75537 4.35645 9.71091 4.35645 18.2887C4.35645 26.8665 11.6231 33.822 20.5898 33.822Z" fill="#E2E2E2"/>
<path d="M20.5894 30.2998C27.5227 30.2998 33.1338 24.922 33.1338 18.2886C33.1338 11.6553 27.5227 6.28857 20.5894 6.28857C13.656 6.28857 8.04492 11.6553 8.04492 18.2886C8.04492 24.922 13.656 30.2998 20.5894 30.2998Z" fill="#0071C8"/>
<path d="M20.5895 26.3331C25.2228 26.3331 28.9895 22.7331 28.9895 18.2887C28.9895 13.8442 25.2339 10.2554 20.5895 10.2554C15.945 10.2554 12.1895 13.8553 12.1895 18.2887C12.1895 22.722 15.9561 26.3331 20.5895 26.3331Z" fill="#FF6361"/>
<path d="M20.5902 22.444C22.9902 22.444 24.9235 20.5885 24.9235 18.2885C24.9235 15.9885 22.9791 14.144 20.5902 14.144C18.2013 14.144 16.2568 15.9996 16.2568 18.2885C16.2568 20.5774 18.2013 22.444 20.5902 22.444Z" fill="#FFC243"/>
<path d="M8.07845 11.198L2.74512 6.10905L7.83401 6.07568L13.1562 11.1758L8.07845 11.198Z" fill="#FFC243"/>
<path d="M13.1895 6.31028L7.86732 1.21045L7.83398 6.07699L13.1562 11.1771L13.1895 6.31028Z" fill="#FFC243"/>
<path d="M37.5562 18.2879C37.5562 9.33233 29.934 2.05471 20.5895 2.05471C17.5895 2.05471 14.6562 2.81022 12.0784 4.23244L8.40066 0.710034C8.18955 0.510034 7.86733 0.454609 7.60066 0.56572C7.32288 0.676831 7.14511 0.921362 7.13399 1.21025L7.10065 5.3658L2.75621 5.39916C2.45621 5.39916 2.18955 5.57683 2.07844 5.8435C1.96732 6.11016 2.02288 6.41011 2.23399 6.62122L5.91176 10.1434C4.41177 12.61 3.62288 15.4212 3.62288 18.2879C3.62288 23.8546 6.55621 28.7546 11.0118 31.688L8.87844 37.6767C8.68955 38.2101 8.73399 38.7878 8.97843 39.31C9.2451 39.8211 9.70066 40.1991 10.2562 40.388C10.4895 40.4658 10.734 40.499 10.9784 40.499C11.934 40.499 12.7784 39.9212 13.0895 39.0545L15.0118 33.6324C16.7562 34.2213 18.634 34.5325 20.5895 34.5325C22.5451 34.5325 24.4229 34.2213 26.1673 33.6324L28.0895 39.0545C28.4007 39.91 29.2451 40.499 30.1895 40.499C30.434 40.499 30.6784 40.4547 30.9118 40.388C31.4784 40.2103 31.9229 39.8211 32.1896 39.31C32.4562 38.7878 32.4895 38.2101 32.2895 37.6767L30.1562 31.688C34.6118 28.7657 37.5451 23.8546 37.5451 18.2879H37.5673H37.5562ZM20.5895 23.1547C23.3895 23.1547 25.6673 20.9657 25.6673 18.2879C25.6673 15.6101 23.3784 13.4325 20.5895 13.4325C19.4562 13.4325 18.4118 13.7879 17.5673 14.399L15.734 12.6434C17.0562 11.5989 18.7451 10.9658 20.6007 10.9658C24.8229 10.9658 28.2562 14.2657 28.2562 18.299C28.2562 22.3323 24.8229 25.6325 20.6007 25.6325C16.3784 25.6325 12.9451 22.3435 12.9451 18.299C12.9451 16.5435 13.6007 14.9102 14.6895 13.6435L16.5229 15.3992C15.8895 16.2103 15.5229 17.2101 15.5229 18.2879C15.5229 20.9768 17.8118 23.1547 20.6007 23.1547H20.5895ZM21.1229 17.7879L18.634 15.4103C19.1895 15.0547 19.8673 14.8547 20.5895 14.8547C22.5673 14.8547 24.1895 16.399 24.1895 18.2879C24.1895 20.1768 22.5673 21.7324 20.5895 21.7324C18.6118 21.7324 16.9895 20.1879 16.9895 18.2879C16.9895 17.599 17.2007 16.9546 17.5673 16.4213L20.0562 18.799C20.2006 18.9434 20.3895 19.0103 20.5895 19.0103C20.7895 19.0103 20.9673 18.9434 21.1229 18.799C21.4118 18.5212 21.4118 18.0657 21.1229 17.7991V17.7879ZM11.4562 18.2768C11.4562 23.1101 15.5562 27.0325 20.6007 27.0325C25.6451 27.0325 29.7451 23.099 29.7451 18.2768C29.7451 13.4545 25.6451 9.53246 20.6007 9.53246C18.3451 9.53246 16.2784 10.3212 14.6895 11.6212L13.9118 10.8769V8.97691C15.9007 7.67691 18.2006 6.98797 20.6118 6.98797C27.1229 6.98797 32.4229 12.0546 32.4229 18.2879C32.4229 24.5212 27.134 29.5878 20.6118 29.5878C14.0895 29.5878 8.81177 24.5323 8.81177 18.2879C8.81177 15.9879 9.53399 13.7879 10.8895 11.899H12.8784L13.6562 12.6325C12.3007 14.1547 11.4784 16.1323 11.4784 18.2879L11.4562 18.2768ZM8.60066 2.89916L12.4562 6.58786L12.434 9.45461L8.57843 5.76564L8.60066 2.89916ZM4.53399 6.78805L7.52288 6.76581L11.3784 10.4545L8.38955 10.4767L4.53399 6.78805ZM11.6895 38.5768C11.5895 38.8546 11.3118 39.0545 10.9895 39.0545C10.9007 39.0545 10.834 39.0547 10.7451 39.0214C10.3562 38.8881 10.1562 38.488 10.2784 38.1213L12.3007 32.4323C12.734 32.6656 13.1784 32.888 13.6451 33.088L11.6895 38.5768ZM30.9118 38.1213C31.0451 38.488 30.834 38.8992 30.4451 39.0214C30.3673 39.0547 30.2895 39.0545 30.2007 39.0545C29.8784 39.0545 29.6006 38.8657 29.5006 38.5768L27.5451 33.088C28.0007 32.888 28.4451 32.6656 28.8896 32.4323L30.9118 38.1213ZM20.6007 33.0991C12.0673 33.0991 5.11177 26.4434 5.11177 18.2656C5.11177 15.7656 5.76732 13.3435 7.00066 11.1658L7.55621 11.688C7.68955 11.8213 7.87844 11.899 8.08955 11.899H9.10066C7.92288 13.8212 7.31177 15.999 7.31177 18.2656C7.31177 25.2879 13.2784 30.9878 20.6007 30.9878C27.9229 30.9878 33.8895 25.2768 33.8895 18.2656C33.8895 11.2545 27.9229 5.5546 20.6007 5.5546C18.234 5.5546 15.9562 6.14353 13.934 7.26575V6.28783C13.934 6.09894 13.8562 5.91011 13.7229 5.78789L13.1784 5.25458C15.4451 4.0768 17.9895 3.4436 20.6007 3.4436C29.134 3.4436 36.0895 10.099 36.0895 18.2656C36.0895 26.4323 29.134 33.0991 20.6007 33.0991Z" fill="black"/>
</g>
</g>
<defs>
<clipPath id="clip0_225_10337">
<rect width="40" height="40" fill="white" transform="translate(0 0.5)"/>
</clipPath>
</defs>
</svg>
