<svg width="40" height="40" viewBox="0 0 40 40" fill="none" xmlns="http://www.w3.org/2000/svg">
<path d="M27.3689 14.9538L22.1564 17.102L16.0068 17.5126V14.7222L21.8721 14.8171L27.7374 12.5635L27.3794 14.9538H27.3689Z" fill="#F7C8A9"/>
<path d="M24.4307 16.1659L27.3686 14.9548L27.7266 12.5645L25.8522 13.2804L24.4307 16.1659Z" fill="#EF937E"/>
<path d="M18.5764 14.7546L16.0176 14.7124V17.5028L19.7979 17.2501C19.661 16.2918 19.2187 15.418 18.5764 14.744V14.7546Z" fill="#EF937E"/>
<path d="M13.1738 11.5114L18.8285 9.32129V12.7014H15.8695V14.7126H13.1738V11.5114Z" fill="#EF937E"/>
<path d="M15.5649 5.40332H16.4284C17.7447 5.40332 18.8187 6.47741 18.8187 7.79368V9.32076L13.1641 11.5108V7.80422C13.1641 6.48796 14.2381 5.40332 15.5649 5.40332Z" fill="#323D2C"/>
<path d="M8.52999 30.4961L8.55106 30.5172C9.44612 31.3912 10.8677 31.4017 11.7733 30.5277L11.8365 30.475C12.7315 29.6221 14.1426 29.6221 15.0376 30.475L15.1113 30.5488C16.0064 31.4017 17.4174 31.4017 18.3125 30.5488L18.3862 30.475C19.2813 29.6221 20.6923 29.6221 21.5874 30.475L21.6611 30.5488C22.5561 31.4017 23.9672 31.4017 24.8622 30.5488L24.9254 30.4961C25.831 29.6326 27.2526 29.6432 28.1476 30.5066C29.0427 31.3806 30.4643 31.3912 31.3699 30.5172L31.4541 30.4329C32.3386 29.5904 33.7286 29.5799 34.6237 30.4118L35.0765 30.8331L39.5834 25.031H22.3139C21.6611 25.031 21.1451 24.5044 21.1451 23.8621C21.1451 23.2197 20.6186 22.6934 19.9762 22.6934H9.97263C9.31976 22.6934 8.80378 23.2197 8.80378 23.8621C8.80378 24.5044 8.27727 25.031 7.63493 25.031H0.369141L4.87604 30.8331L5.31831 30.4329C6.2239 29.601 7.63493 29.6221 8.51946 30.475L8.52999 30.4961Z" fill="#F8D707"/>
<path d="M5.33991 30.4433C6.24551 29.6114 7.65654 29.6325 8.54108 30.4855L8.56213 30.5065C9.45719 31.3806 10.8788 31.3911 11.7844 30.5171L11.8475 30.4644C12.7426 29.6114 14.1536 29.6114 15.0487 30.4644L15.1224 30.5382C16.0175 31.3911 17.4285 31.3911 18.3236 30.5382L18.3973 30.4644C19.2923 29.6114 20.7034 29.6114 21.5984 30.4644L21.6721 30.5382C22.5672 31.3911 23.9783 31.3911 24.8733 30.5382L24.9365 30.4855C25.8421 29.622 27.2637 29.6325 28.1587 30.496C29.0538 31.37 30.4753 31.3806 31.3809 30.5065L31.4652 30.4222C32.3497 29.5798 33.7397 29.5693 34.6348 30.4011L35.0875 30.8225L39.5944 25.0204C33.2132 26.6631 26.6424 27.4948 20.0505 27.4948H19.8926C13.3007 27.4948 6.74042 26.6315 0.348633 24.9888L4.85553 30.8014L5.29779 30.4222L5.33991 30.4433Z" fill="#EDA900"/>
<path d="M20.008 22.6731H10.0044C9.86747 22.6731 9.73058 22.7151 9.60422 22.7572L12.858 26.4533L8.57227 30.5286C9.46733 31.392 10.8784 31.392 11.7734 30.5286L11.8366 30.4759C12.6053 29.7493 13.732 29.6439 14.6166 30.1599L21.1031 23.4418C20.9346 22.9996 20.5134 22.6626 20.008 22.6626V22.6731Z" fill="#EDA900"/>
<path d="M36.3413 31.5917C35.6673 31.5917 34.9934 31.339 34.4774 30.8441L34.4037 30.7703C33.6561 30.0543 32.4872 30.0543 31.7396 30.7703L31.6764 30.823C30.6129 31.8339 28.9596 31.8234 27.9066 30.8019C27.159 30.0754 25.9796 30.0648 25.2215 30.7914L25.1583 30.8441C24.1158 31.8445 22.4625 31.8445 21.4095 30.8441L21.3358 30.7703C20.5882 30.0543 19.4193 30.0543 18.6717 30.7703L18.598 30.8441C17.5555 31.8445 15.9023 31.8445 14.8493 30.8441L14.7756 30.7703C14.0279 30.0543 12.8591 30.0543 12.1114 30.7703L12.0483 30.823C10.9847 31.8339 9.33147 31.8234 8.27846 30.8019C7.53082 30.0754 6.35144 30.0648 5.59327 30.7914L5.53009 30.8441C4.48761 31.8445 2.83438 31.8445 1.78137 30.8441L1.70766 30.7703C1.34963 30.4228 0.875776 30.2438 0.380859 30.2438V29.4646C1.08638 29.4646 1.74977 29.7278 2.24469 30.2122L2.3184 30.286C3.06604 31.002 4.23489 31.002 4.98253 30.286L5.04571 30.2333C6.10925 29.2224 7.76249 29.2329 8.8155 30.2543C9.56314 30.9809 10.7425 30.9915 11.5007 30.2649L11.5639 30.2122C12.6063 29.2118 14.2596 29.2118 15.3126 30.2122L15.3863 30.286C16.1339 31.002 17.3028 31.002 18.0504 30.286L18.1241 30.2122C19.1666 29.2118 20.8198 29.2118 21.8729 30.2122L21.9466 30.286C22.6942 31.002 23.8631 31.002 24.6107 30.286L24.6739 30.2333C25.7374 29.2224 27.3907 29.2329 28.4437 30.2543C29.1913 30.9809 30.3707 30.9915 31.1289 30.2649L31.192 30.2122C32.2345 29.2118 33.8877 29.2118 34.9408 30.2122L35.0145 30.286C35.7621 31.002 36.931 31.002 37.6786 30.286L37.7523 30.2122C38.2578 29.7278 38.9212 29.4646 39.6161 29.4646V30.2438C39.1107 30.2438 38.6474 30.4333 38.2893 30.7703L38.2156 30.8441C37.6891 31.3495 37.0152 31.5917 36.3413 31.5917Z" fill="#68A1D6"/>
<path d="M15.449 11.8268L17.9762 12.7114H18.8397V7.8042H16.7021L15.4385 9.06776V11.8373L15.449 11.8268Z" fill="#F7C8A9"/>
<path d="M18.84 22.715H11.1846V16.397C11.1846 14.7016 12.564 13.3325 14.2488 13.3325C16.7866 13.3325 18.84 15.386 18.84 17.9238V22.7045V22.715Z" fill="#DB3328"/>
<path d="M11.1738 16.397H14.6172V22.7151H11.1738V16.397Z" fill="#B5100B"/>
<path d="M10.5729 28.4752L7.25586 31.7921L10.5729 35.1092L13.8898 31.7921C14.806 30.8759 14.806 29.3913 13.8898 28.4752C12.9737 27.5591 11.489 27.5591 10.5729 28.4752Z" fill="#B23998"/>
<path d="M33.6447 5.40332L30.3277 8.72047C29.4116 9.63659 29.4116 11.1212 30.3277 12.0374C31.2438 12.9535 32.7286 12.9535 33.6447 12.0374L36.9617 8.72047L33.6447 5.40332Z" fill="#B23998"/>
<path d="M32.781 10.6782L12.5105 30.9487C12.2051 31.2541 11.7102 31.2541 11.4048 30.9487C11.0994 30.6434 11.0994 30.1487 11.4048 29.8433L31.6753 9.57278C31.9807 9.26741 32.4756 9.26741 32.781 9.57278C33.0864 9.87815 33.0864 10.3729 32.781 10.6782Z" fill="#323D2C"/>
<path d="M11.1738 19.5034H18.8292V21.0619H11.1738V19.5034Z" fill="#EBEADF"/>
<path d="M11.1738 19.5034H14.6172V21.0619H11.1738V19.5034Z" fill="#C4C1AB"/>
<path d="M16.5127 25.3678V26.231C16.5127 26.6944 16.3231 27.1368 16.0072 27.4632L15.1648 28.2949L14.4066 25.6416L9.86816 21.7874L11.1739 18.2178V16.438C11.1739 15.4797 11.9426 14.7217 12.8903 14.7217C14.1434 14.7217 14.9753 16.017 14.4488 17.1647L12.7113 20.9554L15.9756 24.125C16.3126 24.462 16.5021 24.9042 16.5021 25.3886L16.5127 25.3678Z" fill="#F7C8A9"/>
<path d="M30.1073 14.2385L29.2755 15.0704C29.0754 15.2705 28.77 15.3125 28.5278 15.1756L27.001 14.2912C26.6851 14.1017 26.6219 13.6698 26.8851 13.4066L27.7065 12.5852C28.1593 12.1324 28.8964 12.1324 29.3492 12.5852L30.1179 13.3539C30.3601 13.6066 30.3601 13.9963 30.1179 14.2385H30.1073Z" fill="#F7C8A9"/>
<path d="M18.8399 13.101H17.9764C17.9764 13.101 17.8922 13.101 17.8501 13.0799L15.3228 12.1956C15.1649 12.1429 15.0596 11.9954 15.0596 11.8269V9.0576C15.0596 8.9523 15.1017 8.85752 15.1754 8.78381L16.439 7.51998C16.5127 7.44627 16.6075 7.4043 16.7128 7.4043H18.8504C19.0715 7.4043 19.24 7.57265 19.24 7.79378V12.701C19.24 12.9116 19.0715 13.0905 18.8504 13.0905L18.8399 13.101ZM18.0396 12.3218H18.4503V8.19406H16.8602L15.8283 9.22599V11.5531L18.0396 12.3218Z" fill="#060D1A"/>
<path d="M13.1748 11.8999C13.1011 11.8999 13.0168 11.8788 12.9536 11.8261C12.8483 11.7524 12.7852 11.626 12.7852 11.5102V7.79303C12.7852 6.25563 14.0382 5.01318 15.5651 5.01318H16.4286C17.966 5.01318 19.2191 6.25563 19.2191 7.79303H18.4398C18.4398 6.68736 17.5448 5.7924 16.4391 5.7924H15.5756C14.47 5.7924 13.5749 6.68736 13.5749 7.79303V10.931L15.3124 10.2572L15.5967 10.9837L13.3327 11.8578C13.2801 11.8683 13.2274 11.8894 13.1853 11.8894L13.1748 11.8999Z" fill="#060D1A"/>
<path d="M12.7852 11.5103H13.5644V13.5217H12.7852V11.5103Z" fill="#060D1A"/>
<path d="M16.2704 13.6268H15.4912V12.7003C15.4912 12.4792 15.6597 12.3105 15.8808 12.3105H18.8398V13.0898H16.2704V13.6163V13.6268Z" fill="#060D1A"/>
<path d="M18.8393 21.4505H12.8477V20.6712H18.4497V19.892H13.3952V19.1128H18.8393C19.0604 19.1128 19.2289 19.2814 19.2289 19.5025V21.061C19.2289 21.2716 19.0604 21.4505 18.8393 21.4505Z" fill="#060D1A"/>
<path d="M19.2286 22.4203H18.4493V17.9239C18.4493 15.6073 16.5645 13.7224 14.2478 13.7224C12.7736 13.7224 11.5732 14.9229 11.5732 16.3971V18.2188H10.7939V16.3865C10.7939 14.4806 12.3419 12.9326 14.2478 12.9326C16.9962 12.9326 19.2391 15.165 19.2391 17.9239V22.4308L19.2286 22.4203Z" fill="#060D1A"/>
<path d="M15.1647 28.6851C15.1647 28.6851 15.1015 28.685 15.0594 28.6745C14.9225 28.6429 14.8172 28.5376 14.7751 28.4007L14.0485 25.8525L9.6048 22.0721C9.47844 21.9668 9.43631 21.7879 9.48897 21.6405L10.7736 18.1338V16.4176C10.7736 15.2487 11.7214 14.3115 12.8797 14.3115C13.5957 14.3115 14.2591 14.6695 14.6487 15.2802C15.0383 15.891 15.091 16.6385 14.7856 17.3019L13.164 20.8402L16.2282 23.82C16.6389 24.2202 16.8811 24.7785 16.8811 25.3471V26.2104C16.8811 26.779 16.66 27.3162 16.2598 27.7164L15.428 28.548C15.3543 28.6323 15.2595 28.6745 15.1542 28.6745L15.1647 28.6851ZM10.3314 21.6615L14.6487 25.3471C14.7119 25.3892 14.754 25.4628 14.7751 25.5366L15.3543 27.5583L15.7228 27.1899C15.9755 26.9371 16.1229 26.6 16.1229 26.2315V25.3682C16.1229 25.0101 15.9755 24.6519 15.7123 24.3992L12.4479 21.2296C12.3321 21.1138 12.3005 20.9454 12.3637 20.7875L14.1012 16.9965C14.2907 16.5858 14.2591 16.1015 14.0064 15.7224C13.7642 15.3433 13.343 15.1118 12.8902 15.1118C12.1531 15.1118 11.5634 15.7013 11.5634 16.4384V18.2076C11.5634 18.2076 11.5634 18.3023 11.5423 18.3444L10.3314 21.6615Z" fill="#060D1A"/>
<path d="M14.5332 22.3252H18.5452V23.1044H14.5332V22.3252Z" fill="#060D1A"/>
<path d="M4.59275 31.0856L0.0858506 25.2835C-0.00892061 25.1677 -0.0194517 24.9991 0.0437291 24.8727C0.10691 24.7358 0.243804 24.6516 0.391225 24.6516H7.65701C8.08875 24.6516 8.43625 24.3041 8.43625 23.8724C8.43625 23.0089 9.14176 22.314 9.9947 22.314H10.9529V23.0932H9.9947C9.56297 23.0932 9.21548 23.4407 9.21548 23.8724C9.21548 24.7359 8.50995 25.4308 7.65701 25.4308H1.18099L5.2035 30.6013L4.58221 31.0856H4.59275Z" fill="#060D1A"/>
<path d="M30.3915 13.6375L29.8334 13.0794L32.5081 10.4047C32.5818 10.331 32.6239 10.2362 32.6239 10.1309C32.6239 10.0256 32.5818 9.93082 32.5081 9.85711C32.3607 9.69916 32.108 9.70969 31.95 9.85711L29.2017 12.6056L28.6436 12.0475L31.3919 9.29924C31.6131 9.0781 31.9079 8.95166 32.2238 8.95166C32.5397 8.95166 32.8346 9.0781 33.0557 9.29924C33.2768 9.52037 33.4032 9.815 33.4032 10.1309C33.4032 10.4468 33.2768 10.7417 33.0557 10.9628L30.3915 13.6375Z" fill="#060D1A"/>
<path d="M16.7016 25.1046L16.1436 24.5465L26.5578 14.132C26.5578 14.132 26.5684 14.1215 26.5894 14.1109L26.7369 13.9847C26.8632 13.8794 27.0422 13.8688 27.1791 13.9425L28.706 14.8272C28.8008 14.8798 28.9061 14.8692 28.9903 14.785L29.8222 13.9531C29.8222 13.9531 29.8959 13.8479 29.8959 13.7847C29.8959 13.7215 29.8748 13.6687 29.8222 13.616L29.0535 12.8474C28.9061 12.6999 28.7165 12.6157 28.5059 12.6157C28.2953 12.6157 28.1058 12.6894 27.9584 12.8474L27.137 13.6793L26.5789 13.1212L27.4003 12.2998C28.0005 11.6996 28.9903 11.6996 29.6011 12.2998L30.3698 13.0685C30.5593 13.258 30.6646 13.5109 30.6646 13.7847C30.6646 14.0585 30.5593 14.3111 30.3698 14.5007L29.5379 15.3326C29.222 15.6485 28.706 15.7221 28.3164 15.4904L27.0317 14.7428L16.6911 25.0835L16.7016 25.1046Z" fill="#060D1A"/>
<path d="M10.5735 35.4876C10.4682 35.4876 10.3734 35.4456 10.2997 35.3719L6.98272 32.0548C6.82477 31.8968 6.82477 31.6546 6.98272 31.4967L10.2997 28.1798C11.1211 27.3584 12.3742 27.1478 13.4061 27.6533L13.0691 28.3587C12.3215 28.0007 11.4264 28.1587 10.8368 28.7379L7.80407 31.781L10.5735 34.5506L13.6167 31.5072C14.2064 30.9175 14.3538 30.0331 13.9958 29.275L14.7013 28.9379C15.2068 29.9804 14.9856 31.2334 14.1748 32.0443L10.8578 35.3614C10.7736 35.4351 10.6683 35.4771 10.5735 35.4771V35.4876Z" fill="#060D1A"/>
<path d="M31.9916 13.1004C31.5915 13.1004 31.1914 13.0161 30.8228 12.8371L31.1598 12.1317C31.9074 12.4897 32.8025 12.3317 33.3922 11.7525L36.4354 8.7094L33.6554 5.93985L30.6122 8.9832C30.4121 9.18327 30.2752 9.39375 30.1699 9.64647L29.4434 9.36214C29.5803 9.01464 29.7909 8.69886 30.0541 8.43561L33.3711 5.11846C33.529 4.96051 33.7712 4.96051 33.9292 5.11846L37.2462 8.43561C37.4041 8.59356 37.4041 8.83579 37.2462 8.99374L33.9292 12.3106C33.4027 12.8371 32.6972 13.1109 31.9916 13.1109V13.1004Z" fill="#060D1A"/>
<path d="M36.3411 31.592C35.6671 31.592 34.9932 31.3393 34.4772 30.8444L34.4035 30.7706C33.6559 30.0546 32.4871 30.0546 31.7394 30.7706L31.6762 30.8233C30.6127 31.8342 28.9594 31.8236 27.9064 30.8022C27.1588 30.0756 25.9794 30.0651 25.2213 30.7917L25.1581 30.8444C24.1156 31.8447 22.4624 31.8447 21.4093 30.8444L21.3356 30.7706C20.588 30.0546 19.4192 30.0546 18.6715 30.7706L18.5978 30.8444C17.5553 31.8447 15.9021 31.8447 14.8491 30.8444L14.7754 30.7706C14.6595 30.6653 14.5226 30.56 14.3857 30.4863L14.7648 29.8019C14.9649 29.9072 15.1439 30.044 15.3124 30.2019L15.3861 30.2757C16.1337 30.9918 17.3026 30.9918 18.0502 30.2757L18.1239 30.2019C19.1664 29.2016 20.8197 29.2016 21.8727 30.2019L21.9464 30.2757C22.694 30.9918 23.8629 30.9918 24.6105 30.2757L24.6737 30.223C25.7372 29.2121 27.3905 29.2227 28.4435 30.2441C29.1911 30.9707 30.3705 30.9812 31.1287 30.2546L31.1918 30.2019C32.2343 29.2016 33.8876 29.2016 34.9406 30.2019L35.0143 30.2757C35.7619 30.9918 36.9308 30.9918 37.6784 30.2757L37.7521 30.2019C38.2576 29.7175 38.921 29.4543 39.6159 29.4543V30.2336C39.1105 30.2336 38.6472 30.4231 38.2891 30.7601L38.2154 30.8338C37.6889 31.3393 37.015 31.592 36.3411 31.592Z" fill="#060D1A"/>
<path d="M3.67645 31.591C3.00252 31.591 2.3286 31.3383 1.81262 30.8434L1.73891 30.7696C1.38088 30.4221 0.907026 30.2431 0.412109 30.2431V29.4639C1.11763 29.4639 1.78102 29.7271 2.27594 30.2115L2.34966 30.2852C3.0973 31.0013 4.26614 31.0013 5.01378 30.2852L5.07696 30.2325C6.1405 29.2217 7.79374 29.2322 8.84675 30.2536L8.29918 30.8118C7.55154 30.0852 6.37217 30.0746 5.614 30.8012L5.55081 30.8539C5.02431 31.3488 4.35038 31.6015 3.67645 31.6015V31.591Z" fill="#060D1A"/>
<path d="M18.8183 17.7123L18.7656 16.9331L22.0616 16.7118L25.3996 15.3325L25.6945 16.0485L22.2932 17.4491C22.2932 17.4491 22.2195 17.4702 22.1669 17.4807L18.8183 17.7123Z" fill="#060D1A"/>
<path d="M21.872 15.1956L17.5547 15.1218V14.3426L21.8089 14.4163L27.6004 12.1841L27.8847 12.9106L22.0195 15.1639C22.0195 15.1639 21.9247 15.1956 21.8826 15.1956H21.872Z" fill="#060D1A"/>
<path d="M13.9328 27.6853C9.34163 27.3378 4.75049 26.5795 0.296245 25.4317C0.0856422 25.379 -0.0407158 25.1685 0.0119349 24.9579C0.0645855 24.7473 0.275185 24.6209 0.485788 24.6736C4.89791 25.8108 9.44693 26.5586 13.996 26.9061L13.9328 27.6853Z" fill="#060D1A"/>
<path d="M20.0929 27.9057H19.935C18.6398 27.9057 17.3235 27.874 16.0283 27.8108L16.0704 27.0316C17.3551 27.0948 18.6503 27.1265 19.935 27.1265H20.0929C26.6427 27.1265 33.1819 26.2945 39.5316 24.6729L39.7317 25.431C33.3188 27.0842 26.7164 27.9057 20.0929 27.9057Z" fill="#060D1A"/>
<path d="M11.9635 31.5703C11.6686 31.5703 11.3633 31.4544 11.1316 31.2227C10.6788 30.77 10.6788 30.0225 11.1316 29.5697L14.3959 26.3053L14.954 26.8634L11.6897 30.1276C11.5423 30.275 11.5423 30.5277 11.6897 30.6857C11.8371 30.8437 12.0898 30.8437 12.2478 30.6857L20.3244 22.5986C20.4508 22.4723 20.6403 22.4511 20.7982 22.5354C21.2721 22.8197 21.567 23.3357 21.567 23.8833C21.567 24.315 21.9144 24.6625 22.3462 24.6625H39.6156C39.763 24.6625 39.8999 24.7467 39.9631 24.8836C40.0263 25.0205 40.0052 25.1786 39.921 25.2944L35.4141 31.0965L34.7928 30.6227L38.8153 25.4523H22.3357C21.4722 25.4523 20.7772 24.7468 20.7772 23.8938C20.7772 23.7148 20.714 23.5464 20.6087 23.4095L12.7743 31.2333C12.5426 31.465 12.2478 31.5809 11.9424 31.5809L11.9635 31.5703Z" fill="#060D1A"/>
<path d="M28.0949 14.8062L28.6425 15.3537L22.0085 21.9875L21.4609 21.4399L28.0949 14.8062Z" fill="#060D1A"/>
</svg>
