<svg width="40" height="40" viewBox="0 0 40 40" fill="none" xmlns="http://www.w3.org/2000/svg">
<g clip-path="url(#clip0_225_10362)">
<path d="M15.275 18.0435L4.07265 19.2882L3.44531 20.5329L4.07265 21.1602H16.5197L15.275 18.0435Z" fill="#FFCEBF"/>
<path d="M33.6765 13.612L27.3335 13.0942L26.3975 15.5538H33.5969C34.1346 15.5538 34.5628 15.1156 34.5628 14.5779C34.5628 14.0701 34.1744 13.6519 33.6666 13.612H33.6765Z" fill="#FFCEBF"/>
<path d="M37.7689 3.54493C37.3507 3.26611 36.803 3.30594 36.4346 3.63455L31.2666 8.06572L31.1172 10.5651C31.7346 10.5651 32.332 10.3361 32.7901 9.91784L37.8884 5.27757C38.4162 4.7996 38.3465 3.95319 37.759 3.55489L37.7689 3.54493Z" fill="#FFCEBF"/>
<path d="M23.9873 3.70459H26.4767V9.32072H23.9873V3.70459Z" fill="#FFCEBF"/>
<path d="M22.1256 5.56657C22.813 5.56657 23.3703 5.00929 23.3703 4.32186C23.3703 3.63442 22.813 3.07715 22.1256 3.07715C21.4381 3.07715 20.8809 3.63442 20.8809 4.32186C20.8809 5.00929 21.4381 5.56657 22.1256 5.56657Z" fill="#FFD48A"/>
<path d="M20.8809 25.5317V36.754H22.7529L23.9976 25.5317H20.8809Z" fill="#FFCEBF"/>
<path d="M25.2326 5.57639C26.6075 5.57639 27.722 4.45738 27.722 3.07701C27.722 1.69665 26.6075 0.577637 25.2326 0.577637C23.8577 0.577637 22.7432 1.69665 22.7432 3.07701C22.7432 4.45738 23.8577 5.57639 25.2326 5.57639Z" fill="#FFCEBF"/>
<path d="M22.7432 3.07701C22.7432 3.74418 23.012 4.3516 23.4402 4.79969C23.5697 4.78974 23.6991 4.73995 23.7987 4.65033L26.9453 1.78252C27.0449 1.6929 27.0947 1.58336 27.1245 1.45391C26.6665 0.926156 25.9993 0.577637 25.2525 0.577637C23.8783 0.577637 22.7631 1.6929 22.7631 3.07701H22.7432Z" fill="#FFE0AB"/>
<path d="M32.153 10.3263L31.2668 8.06592H25.2324C24.1968 8.06592 23.3604 8.90236 23.3604 9.93796V10.5653L24.3362 15.7433L25.9095 18.1232C25.9095 18.1232 28.2297 15.6636 28.3591 10.5553H31.1174C31.4759 10.5553 31.8244 10.4657 32.143 10.3263H32.153Z" fill="#FAF5DC"/>
<path d="M25.043 16.7193C25.043 16.7193 26.7756 13.951 26.5964 10.5654H23.3701V14.6481L25.043 16.7292V16.7193Z" fill="#F5EBCD"/>
<path d="M20.8809 36.7539H22.7529L24.6249 39.2533H20.8908V36.7539H20.8809Z" fill="#FAF5DC"/>
<path d="M23.3706 14.6182C21.7474 14.6182 20.5525 15.5243 19.8953 16.1815C19.4572 16.6197 18.8697 16.8686 18.2523 16.8985L13.8012 17.0777C13.3033 17.0976 13.0146 17.6553 13.2834 18.0735C13.4527 18.3423 13.6319 18.6012 13.6817 18.88C13.8012 19.4875 13.383 20.2542 13.622 20.8118C13.861 21.3794 14.6974 21.6284 15.036 22.1362C15.3745 22.6441 15.2849 23.5104 15.7231 23.9485C16.1512 24.3767 17.0176 24.2871 17.5354 24.6356C18.0432 24.9742 18.2921 25.8106 18.8597 26.0496C19.4174 26.2786 20.1841 25.8703 20.7915 25.9898C21.379 26.1093 21.9267 26.7864 22.554 26.7864C23.1814 26.7864 23.729 26.1093 24.3165 25.9898C24.685 25.9201 25.1032 26.0396 25.5015 26.0994C25.8898 26.1591 26.2384 25.8305 26.2184 25.4322L25.9297 18.0137L23.3905 14.6381L23.3706 14.6182Z" fill="#FFB3B7"/>
<path d="M3.12645 19.0591C2.33979 18.8599 1.58301 19.4574 1.58301 20.2739V21.1701H4.07243V19.298L3.12645 19.0591Z" fill="#FAF5DC"/>
<path d="M19.9055 16.1613C19.4574 16.5994 18.8699 16.8683 18.2425 16.8882L13.7915 17.0675C13.2936 17.0874 13.0048 17.645 13.2737 18.0632C13.3035 18.113 13.3434 18.6408 13.3732 18.7005L23.3807 18.2723C24.0678 18.2425 24.725 17.5653 25.3125 17.2168L23.3608 14.6079C21.7576 14.6079 20.5627 15.5041 19.9055 16.1613Z" fill="#FFA1A7"/>
<path d="M38.8345 4.33159C38.7947 3.81379 38.5258 3.34578 38.0976 3.05701C37.4603 2.62883 36.6239 2.68857 36.0563 3.19642L31.2467 7.47822H27.0745V5.54643C27.8313 4.9888 28.3192 4.08265 28.3192 3.07692C28.3192 1.38412 26.945 0 25.2423 0C23.7486 0 22.4939 1.07543 22.2251 2.49938C22.1952 2.49938 22.1653 2.49938 22.1255 2.49938C21.1198 2.49938 20.2933 3.31591 20.2933 4.33159C20.2933 5.34727 21.1098 6.1638 22.1255 6.1638C22.6234 6.1638 23.0814 5.96465 23.41 5.63605V8.31466C23.0217 8.7528 22.7827 9.32039 22.7827 9.94772V12.0488C22.7827 12.3674 23.0416 12.6363 23.3603 12.6363C23.6789 12.6363 23.9378 12.3774 23.9378 12.0488V9.94772C23.9378 9.24073 24.5154 8.66318 25.2223 8.66318H30.8584L31.3662 9.96764C31.2766 9.9776 31.197 9.98755 31.1073 9.98755H26.4173C26.0986 9.98755 25.8397 10.2465 25.8397 10.5751C25.8397 10.9037 26.0986 11.1626 26.4173 11.1626H27.8014C27.7914 13.2835 26.8355 15.4244 25.8895 17.0276L23.8183 14.2793C23.7088 14.1299 23.5395 14.0503 23.3503 14.0503C21.5679 14.0503 20.2535 14.9963 19.4668 15.7829C19.1382 16.1115 18.6901 16.3107 18.2121 16.3206L12.8449 16.5397C12.5363 16.5497 12.2873 16.8086 12.2873 17.1272C12.2873 17.3264 12.3271 17.5056 12.3869 17.6749L4.09215 18.7105L3.2557 18.5014C2.70803 18.362 2.13048 18.4815 1.69235 18.83C1.25421 19.1785 0.985352 19.7062 0.985352 20.2738V21.17C0.985352 21.4887 1.24425 21.7575 1.5629 21.7575H13.6316C13.7611 21.8671 13.8905 21.9567 14.02 22.0463C14.2291 22.1857 14.4382 22.3351 14.5278 22.4745C14.6174 22.6139 14.6772 22.8628 14.727 23.1118C14.8166 23.54 14.9261 24.0179 15.2846 24.3764C15.6431 24.7349 16.121 24.8345 16.5392 24.934C16.7882 24.9838 17.0371 25.0436 17.1765 25.1332C17.3159 25.2228 17.4554 25.4319 17.6047 25.641C17.8537 25.9995 18.1325 26.4078 18.6005 26.597C19.0685 26.7862 19.5465 26.7065 19.9647 26.6268C20.2136 26.577 20.4725 26.5372 20.6418 26.5671C20.8011 26.597 21.0102 26.7364 21.2194 26.8658C21.5878 27.1048 22.006 27.3737 22.5238 27.3737C22.7728 27.3737 23.0018 27.3139 23.2109 27.2143L22.2151 36.1763H21.4484V28.9171C21.4484 28.5985 21.1895 28.3296 20.8708 28.3296C20.5522 28.3296 20.2933 28.5885 20.2933 28.9171V39.2631C20.2933 39.5818 20.5522 39.8506 20.8708 39.8506H24.605C24.824 39.8506 25.0232 39.7212 25.1228 39.532C25.2223 39.3328 25.2024 39.0939 25.063 38.9246L23.3304 36.6144L24.4456 26.5671C24.6149 26.5472 24.844 26.597 25.063 26.6368C25.4912 26.7165 25.9692 26.7961 26.4272 26.6069C26.6563 26.5173 26.7957 26.2883 26.7857 26.0493L26.477 18.2923C26.8654 17.6749 27.2836 16.9579 27.662 16.1613H33.5768C34.4332 16.1613 35.1302 15.4643 35.1302 14.6079C35.1302 13.8013 34.5029 13.1242 33.6963 13.0545L28.8071 12.6761C28.8967 12.1782 28.9465 11.6704 28.9465 11.1725H31.0874C31.8542 11.1725 32.591 10.8837 33.1586 10.3759L38.2569 5.73562C38.6453 5.3871 38.8445 4.88922 38.8046 4.37142L38.8345 4.33159ZM3.48473 20.5825H2.16036V20.2738C2.16036 20.0647 2.24998 19.8755 2.41926 19.7461C2.57858 19.6166 2.78769 19.5768 2.98685 19.6266L3.48473 19.756V20.5925V20.5825ZM4.64978 19.8058L13.0142 18.7603C13.0541 18.8399 13.0939 18.9196 13.1038 18.9893C13.1337 19.1586 13.0939 19.4175 13.0441 19.6664C12.9943 19.9552 12.9346 20.2639 12.9644 20.5825H4.64978V19.8058ZM21.4583 38.6657V37.3413H22.4541L23.4499 38.6657H21.4583ZM25.292 25.4618C24.9535 25.402 24.5651 25.3323 24.1867 25.412C23.8183 25.4817 23.4897 25.6908 23.2109 25.88C22.962 26.0393 22.713 26.1987 22.5437 26.1987C22.3744 26.1987 22.1155 26.0393 21.8766 25.88C21.5878 25.7008 21.2691 25.4917 20.9007 25.412C20.7812 25.3921 20.6617 25.3821 20.5422 25.3821C20.2833 25.3821 20.0244 25.4319 19.7954 25.4717C19.5166 25.5215 19.2278 25.5713 19.0785 25.5116C18.9191 25.4518 18.7499 25.2029 18.5905 24.9639C18.4013 24.6851 18.1723 24.3664 17.8537 24.1474C17.535 23.9283 17.1566 23.8486 16.8181 23.7789C16.5392 23.7192 16.2505 23.6594 16.131 23.54C16.0115 23.4205 15.9517 23.1317 15.892 22.8529C15.8223 22.5143 15.7327 22.1359 15.5236 21.8173C15.3145 21.4986 14.9958 21.2796 14.717 21.0804C14.478 20.9211 14.239 20.7518 14.1693 20.5925C14.1096 20.4431 14.1693 20.1543 14.2092 19.8755C14.2689 19.537 14.3386 19.1486 14.2589 18.7702C14.1892 18.4018 13.9801 18.0732 13.7909 17.7944C13.7611 17.7545 13.7411 17.7147 13.7113 17.6749L18.2719 17.4956C19.0486 17.4658 19.7655 17.1471 20.3033 16.6094C20.8908 16.0219 21.8367 15.3249 23.0814 15.2253L25.3319 18.2126L25.6207 25.5315C25.5111 25.5215 25.4016 25.5016 25.2821 25.4817L25.292 25.4618ZM33.6366 14.1897C33.8357 14.2096 33.9951 14.3789 33.9951 14.578C33.9951 14.7872 33.8258 14.9664 33.6067 14.9664H28.1897C28.3391 14.588 28.4685 14.1997 28.5781 13.8013L33.6366 14.1897ZM25.2423 4.9888C24.8539 4.9888 24.4954 4.86931 24.1967 4.68011L26.9251 2.19069C27.0645 2.45955 27.1442 2.75828 27.1442 3.08688C27.1442 4.14239 26.2878 4.99876 25.2323 4.99876L25.2423 4.9888ZM25.2423 1.16505C25.5509 1.16505 25.8397 1.23475 26.0887 1.3642L23.4598 3.764C23.3802 3.54493 23.3304 3.31591 23.3304 3.07692C23.3304 2.02141 24.1867 1.16505 25.2423 1.16505ZM22.1255 4.9888C21.7571 4.9888 21.4583 4.69007 21.4583 4.32163C21.4583 3.9532 21.7571 3.65447 22.1255 3.65447C22.1554 3.65447 22.1952 3.65447 22.2251 3.65447C22.3047 4.04282 22.4442 4.40129 22.6533 4.71994C22.5338 4.87926 22.3346 4.97884 22.1255 4.97884V4.9888ZM24.5751 7.57779V6.08414C24.7842 6.13393 25.0132 6.15385 25.2423 6.15385C25.4713 6.15385 25.6904 6.12397 25.9094 6.08414V7.48818H25.2423C25.0132 7.48818 24.7942 7.51805 24.5751 7.57779ZM37.5101 4.83943L32.4417 9.4598L32.0135 8.36445L36.823 4.08265C36.9923 3.92333 37.2512 3.91337 37.4504 4.04282C37.5798 4.13244 37.6694 4.27184 37.6794 4.43117C37.6894 4.59049 37.6296 4.73986 37.5101 4.84939V4.83943Z" fill="black"/>
</g>
<defs>
<clipPath id="clip0_225_10362">
<rect width="40" height="40" fill="white"/>
</clipPath>
</defs>
</svg>
