<svg width="40" height="40" viewBox="0 0 40 40" fill="none" xmlns="http://www.w3.org/2000/svg">
<path d="M24.3027 21.5811L27.8668 22.7228L23.0663 37.0495C22.7452 38.0078 21.6806 38.535 20.7004 38.2211C19.7203 37.9071 19.1812 36.8661 19.5023 35.9077L24.3027 21.5811Z" fill="#5C6670"/>
<path d="M21.3805 38.9901C21.1201 38.9901 20.8492 38.9494 20.5888 38.868C19.2553 38.4401 18.5156 37.0241 18.9532 35.7202L23.9642 20.7666L28.8085 22.3252L23.7975 37.2788C23.4433 38.328 22.4432 39.0003 21.3701 39.0003L21.3805 38.9901ZM24.8289 22.4371L20.245 36.1279C20.1408 36.4233 20.172 36.7389 20.3179 37.0241C20.4637 37.2992 20.7138 37.5132 21.0159 37.6048C21.641 37.7984 22.3181 37.4724 22.5265 36.8612L27.1104 23.1705L24.8393 22.4473L24.8289 22.4371Z" fill="black"/>
<path d="M28.0081 26.8186C33.7042 26.8186 38.3218 22.3037 38.3218 16.7342C38.3218 11.1646 33.7042 6.64941 28.0081 6.64941C22.312 6.64941 17.6943 11.1646 17.6943 16.7342C17.6943 22.3037 22.312 26.8186 28.0081 26.8186Z" fill="#E2E2E2"/>
<path d="M28.0179 27.4904C26.8615 27.4904 25.7156 27.307 24.58 26.9504C21.788 26.054 19.5169 24.1492 18.1938 21.5924C16.8707 19.0356 16.6416 16.1222 17.5583 13.3922C18.4751 10.6622 20.4233 8.44147 23.0382 7.14779C25.6531 5.85411 28.6326 5.63014 31.4246 6.52655C34.2166 7.42296 36.4877 9.32784 37.8108 11.8846C39.1339 14.4414 39.3631 17.3548 38.4463 20.0848C37.5295 22.8148 35.5814 25.0353 32.9665 26.329C31.4038 27.1031 29.7161 27.4904 28.0075 27.4904H28.0179ZM27.9971 7.30073C26.5073 7.30073 25.0176 7.64707 23.6528 8.31938C21.3505 9.46026 19.6523 11.4057 18.8502 13.7894C18.048 16.1832 18.2459 18.74 19.4127 20.9811C20.5795 23.2323 22.5694 24.8928 25.0072 25.6771C27.4554 26.4615 30.0703 26.2679 32.3622 25.127C34.6542 23.9861 36.3627 22.0404 37.1649 19.6568C37.9671 17.263 37.7691 14.7064 36.6023 12.4653C35.4355 10.2141 33.4457 8.55363 31.0079 7.76927C30.0182 7.45349 29.0076 7.30073 27.9971 7.30073Z" fill="black"/>
<path d="M32.73 13.0404L22.0439 18.3369L23.1603 20.4904L33.8464 15.1938L32.73 13.0404Z" fill="#0071C8"/>
<path d="M32.73 13.0404L22.0439 18.3369L23.1603 20.4904L33.8464 15.1938L32.73 13.0404Z" fill="#0071C8"/>
<path d="M26.438 10.9454L24.2354 12.0361L29.6483 22.4867L31.8509 21.396L26.438 10.9454Z" fill="#0071C8"/>
<path d="M26.438 10.9454L24.2354 12.0361L29.6483 22.4867L31.8509 21.396L26.438 10.9454Z" fill="#0071C8"/>
<path d="M10.9443 17.749L14.6407 17.1286L17.2492 31.9871C17.4237 32.981 16.7348 33.9338 15.7183 34.1044C14.7018 34.2751 13.7273 33.6014 13.5528 32.6075L10.9443 17.749Z" fill="#5C6670"/>
<path d="M15.6006 34.7434C14.3817 34.7434 13.2982 33.8877 13.0898 32.6755L10.3604 17.1717L15.3922 16.3262L18.1113 31.8299C18.3509 33.1847 17.4133 34.4785 16.0277 34.7128C15.8819 34.7331 15.736 34.7536 15.5902 34.7536L15.6006 34.7434ZM11.923 18.2414L14.4129 32.4412C14.465 32.7468 14.6421 33.0218 14.9026 33.195C15.163 33.3784 15.486 33.4496 15.7985 33.3885C16.1111 33.3375 16.3923 33.1644 16.5694 32.9097C16.757 32.6551 16.8299 32.3394 16.7674 32.0339L14.2775 17.8337L11.9126 18.2312L11.923 18.2414Z" fill="black"/>
<path d="M11.9944 21.8362C17.6905 21.8362 22.3082 17.321 22.3082 11.7515C22.3082 6.18192 17.6905 1.66699 11.9944 1.66699C6.29829 1.66699 1.68066 6.18192 1.68066 11.7515C1.68066 17.321 6.29829 21.8362 11.9944 21.8362Z" fill="#E2E2E2"/>
<path d="M11.9749 22.5082C9.72458 22.5082 7.52639 21.8258 5.65117 20.5321C3.25504 18.8717 1.6611 16.4065 1.16104 13.5747C0.129664 7.72767 4.16141 2.16592 10.1309 1.15747C16.1108 0.149008 21.799 4.09103 22.8303 9.92786C23.3304 12.7597 22.6637 15.612 20.976 17.9549C19.2882 20.2978 16.7567 21.8564 13.8605 22.3453C13.2354 22.4472 12.5999 22.5082 11.9749 22.5082ZM12.0061 2.32881C11.4644 2.32881 10.9226 2.36968 10.3705 2.46136C5.13028 3.3374 1.59859 8.22684 2.50495 13.3506C2.94251 15.8361 4.33851 17.9956 6.44293 19.4523C8.54735 20.909 11.0998 21.4693 13.6417 21.0414C16.1837 20.6136 18.3923 19.2486 19.8821 17.1909C21.3718 15.1333 21.9448 12.6377 21.5073 10.1522C20.7051 5.56828 16.6108 2.31861 12.0061 2.31861V2.32881Z" fill="black"/>
<path d="M11.9856 18.2604C10.6208 18.2604 9.29776 17.8528 8.15178 17.0684C6.70369 16.06 5.73482 14.5627 5.4327 12.8514C5.13058 11.14 5.52647 9.40832 6.55784 7.9924C7.58922 6.57649 9.12065 5.62928 10.8709 5.33388C14.4755 4.72269 17.9446 7.10629 18.5593 10.6512C19.1844 14.1859 16.7362 17.5677 13.1211 18.1687C12.7357 18.2298 12.3606 18.2604 11.9752 18.2604H11.9856ZM12.0064 7.64597C11.7668 7.64597 11.5376 7.66641 11.298 7.70715C10.1937 7.89051 9.23525 8.48146 8.58934 9.37787C7.94342 10.2743 7.69339 11.354 7.88092 12.4338C8.06844 13.5136 8.67269 14.4506 9.58946 15.0821C10.5062 15.7137 11.6105 15.9583 12.7148 15.775C14.986 15.3879 16.5278 13.269 16.1319 11.0483C15.7777 9.05179 14.0067 7.64597 12.0064 7.64597Z" fill="#FF4343"/>
</svg>
