<svg width="40" height="40" viewBox="0 0 40 40" fill="none" xmlns="http://www.w3.org/2000/svg">
<mask id="mask0_225_10373" style="mask-type:luminance" maskUnits="userSpaceOnUse" x="2" y="2" width="36" height="36">
<path d="M38 2H2V38H38V2Z" fill="white"/>
</mask>
<g mask="url(#mask0_225_10373)">
<path d="M20.0045 37.3719C29.6045 37.3719 37.3821 29.5943 37.3821 19.9943C37.3821 10.3943 29.6045 2.6167 20.0045 2.6167C10.4045 2.6167 2.62695 10.3943 2.62695 19.9943C2.62695 29.5943 10.4045 37.3719 20.0045 37.3719Z" fill="white"/>
<path d="M35.5201 20.0048C35.5201 28.5791 28.5691 35.5201 19.9948 35.5201C15.8819 35.5201 11.9384 33.8869 9.02051 30.9791C10.0462 31.9152 11.4106 32.3832 12.7948 32.3035C16.6886 32.3035 21.6379 29.7741 25.701 25.711C28.7682 22.6538 30.9491 19.1284 31.8554 15.7923C32.2935 14.1293 32.7915 11.1118 31.1483 9.21973C33.9566 12.1077 35.5201 15.9716 35.5101 20.0048H35.5201Z" fill="#BBE8E9"/>
<path d="M26.2091 18.1424L23.7294 25.5814H16.2904L13.8008 18.1424L20.0049 13.7905L26.219 18.1424H26.2091Z" fill="#25809F"/>
<path d="M33.0101 31.5271C31.1578 33.6283 28.8275 35.2416 26.2084 36.2375L23.1113 33.6582L26.8358 29.3063L31.8051 28.0615L33.02 31.5171L33.0101 31.5271Z" fill="#25809F"/>
<path d="M6.99922 31.5271C8.8515 33.6283 11.1818 35.2416 13.8009 36.2375L16.898 33.6582L13.1735 29.3063L8.20419 28.0615L6.98926 31.5171L6.99922 31.5271Z" fill="#25809F"/>
<path d="M8.82134 11.311V16.2803L5.71428 21.8671L2.61719 20.1741V20.0048C2.61719 16.9476 3.40391 13.96 4.93752 11.321H8.81138L8.82134 11.311Z" fill="#25809F"/>
<path d="M31.1787 11.311V16.2803L34.2858 21.8671L37.3829 20.1741V20.0048C37.3829 16.9476 36.5862 13.96 35.0625 11.321H31.1887L31.1787 11.311Z" fill="#25809F"/>
<path d="M26.2093 6.96945L20.0051 9.44911L13.791 6.96945L14.3587 3.56364C18.0234 2.30887 21.9869 2.30887 25.6516 3.56364L26.2192 6.96945H26.2093Z" fill="#25809F"/>
<path d="M23.1119 33.658L24.536 34.853C26.9659 34.1161 29.1766 32.7717 30.9692 30.9792C31.5268 30.4115 31.9053 29.7144 32.0845 28.9476L31.7758 28.0713L26.8065 29.3161L23.082 33.668H23.092L23.1119 33.658Z" fill="#055473"/>
<path d="M16.8975 33.6578L15.4734 34.8529C13.0336 34.1159 10.8228 32.7715 9.03027 30.979C10.056 31.9151 11.4203 32.3832 12.8045 32.3035C13.7008 32.3035 14.5871 32.184 15.4436 31.9649L16.9075 33.6578H16.8975Z" fill="#055473"/>
<path d="M35.5201 20.0048C35.5201 20.4131 35.5002 20.8114 35.4703 21.2197L34.2753 21.8671L31.5068 16.8878C31.6363 16.5193 31.7558 16.1509 31.8554 15.7824C32.2836 14.3384 32.3931 12.8048 32.1442 11.311H32.8413C34.5741 13.8704 35.5002 16.9077 35.5002 19.9949H35.5102L35.5201 20.0048Z" fill="#055473"/>
<path d="M33.4585 31.9249C40.061 24.5058 39.3838 13.1432 31.9548 6.54069C30.1523 4.94733 28.061 3.72243 25.7805 2.95563C19.3772 0.774715 12.2967 2.37804 7.4469 7.08841C7.19794 7.32741 7.19794 7.71579 7.43694 7.96476C7.67594 8.21372 8.06433 8.21372 8.31329 7.97472C9.82698 6.50086 11.5996 5.32575 13.5614 4.50916L13.2129 6.64028L8.58217 10.6834H4.93736C4.70831 10.6834 4.5191 10.793 4.3996 10.9921C0.525735 17.6942 1.38217 26.139 6.53072 31.9249C6.55063 31.9448 6.56059 31.9648 6.58051 31.9847C8.48258 34.1158 10.8627 35.749 13.5116 36.7847C13.5216 36.7847 13.5415 36.7946 13.5515 36.8046C17.6942 38.398 22.2751 38.398 26.4179 36.8046C26.4278 36.8046 26.4477 36.8046 26.4577 36.7847C29.1067 35.7589 31.4967 34.1158 33.3888 31.9847C33.4087 31.9648 33.4286 31.9448 33.4386 31.9249H33.4585ZM27.0552 28.6087L24.4262 25.4519L26.7067 18.6104L30.8892 17.037L33.5979 21.8967L31.3473 27.5332L27.0652 28.5988H27.0552V28.6087ZM12.954 28.6087L8.68175 27.5432L6.43113 21.9067L9.13985 17.0469L13.3224 18.6204L15.6029 25.4619L12.9739 28.6187H12.9639L12.954 28.6087ZM3.30416 21.2394L5.24607 22.305L7.55644 28.0909L6.78964 30.2818C4.7581 27.6826 3.54316 24.5357 3.30416 21.2295V21.2394ZM13.9199 7.68592L19.3772 9.87679V13.4718L13.7008 17.4353L9.44856 15.8419V11.5897L13.9199 7.68592ZM26.0892 7.68592L30.7697 11.7789C30.8793 11.8784 31.0286 11.9282 31.178 11.9282H34.6834C36.0079 14.3382 36.7249 17.037 36.7548 19.7955L34.5241 21.0204L31.7954 16.1108V15.0353C31.7954 14.6967 31.5166 14.4179 31.178 14.4179C30.8394 14.4179 30.5606 14.6967 30.5606 15.0353V15.8519L26.3083 17.4453L20.632 13.4818V9.88675L26.0892 7.69588V7.68592ZM16.7183 24.9639L14.5174 18.3814L19.9847 14.5473L25.4519 18.3814L23.261 24.9639H16.7083H16.7183ZM32.4527 28.0809L34.7631 22.295L36.705 21.2295C36.466 24.5158 35.251 27.6627 33.2195 30.2619L32.4527 28.071V28.0809ZM33.9266 10.6934H31.4071L26.7764 6.65023L26.4278 4.52907C29.4851 5.80376 32.0842 7.9548 33.9266 10.6934ZM20.0046 3.24443C21.7274 3.24443 23.4502 3.5133 25.0934 4.0411L25.5116 6.58052L20.0046 8.78135L14.4975 6.58052L14.9158 4.03115C16.5589 3.50335 18.2818 3.25438 20.0046 3.25438V3.24443ZM5.31578 11.9282H8.2137V16.1108L5.48507 21.0204L3.25437 19.7955C3.28424 17.037 3.9913 14.3482 5.31578 11.9282ZM7.70582 31.3672L8.60208 28.798L12.8245 29.8536L16.0112 33.578L13.6909 35.5199C11.4203 34.5938 9.36889 33.1797 7.70582 31.3772V31.3672ZM15.0353 35.9979L17.1166 34.2552H19.3772C19.7158 34.2552 19.9946 33.9764 19.9946 33.6378C19.9946 33.2992 19.7158 33.0204 19.3772 33.0204H17.1764L13.9797 29.2859L16.5589 26.1888H23.4303L26.0096 29.2859L22.6237 33.2295C22.3946 33.4884 22.4245 33.8768 22.6934 34.1058L24.944 35.988C21.7174 36.9838 18.2618 36.9838 15.0253 35.988H15.0353V35.9979ZM26.3083 35.5L23.988 33.5581L27.1747 29.8336L31.3971 28.778L32.2934 31.3473C30.6303 33.1498 28.5788 34.5639 26.3083 35.4901V35.5Z" fill="black"/>
</g>
</svg>
