<svg width="40" height="41" viewBox="0 0 40 41" fill="none" xmlns="http://www.w3.org/2000/svg">
<g clip-path="url(#clip0_225_10309)">
<path d="M24.2681 3.50925C23.7567 3.93093 23.2452 4.44393 22.7671 5.08215C21.6441 6.54094 21.0103 8.19341 20.3654 9.85734C20.143 10.4386 19.9206 11.0198 19.676 11.5897C18.9422 13.3106 18.2083 15.0315 17.4745 16.7524C17.4078 16.912 17.3299 17.0829 17.2632 17.2424L17.2187 17.2082C16.7406 16.8207 16.029 16.9121 15.651 17.4021L15.0172 18.2341C14.6391 18.7241 14.7281 19.4534 15.2062 19.8409L16.7851 21.1061C17.2632 21.4936 17.9748 21.4022 18.3529 20.9122L18.9867 20.0802C19.3647 19.5902 19.2757 18.8609 18.7976 18.4734L18.6864 18.3821C20.2764 17.1285 21.8776 15.8862 23.4676 14.6325C23.9568 14.245 24.4572 13.8918 24.9464 13.5271C26.3696 12.49 27.7817 11.453 28.8936 9.99423C29.9165 8.66081 30.4169 7.35001 30.6504 6.11916C31.1619 3.40672 28.4377 1.24133 25.9916 2.40379C25.9693 2.40379 25.9582 2.41521 25.936 2.42661" fill="#F7EC77"/>
<path d="M24.2681 3.50925C23.7567 3.93093 23.2452 4.44393 22.7671 5.08215C21.6441 6.54094 21.0103 8.19341 20.3654 9.85734C20.143 10.4386 19.9206 11.0198 19.676 11.5897C18.9422 13.3106 18.2083 15.0315 17.4745 16.7524C17.4078 16.912 17.3299 17.0829 17.2632 17.2424L17.2187 17.2082C16.7406 16.8207 16.029 16.9121 15.651 17.4021L15.0172 18.2341C14.6391 18.7241 14.7281 19.4534 15.2062 19.8409L16.7851 21.1061C17.2632 21.4936 17.9748 21.4022 18.3529 20.9122L18.9867 20.0802C19.3647 19.5902 19.2757 18.8609 18.7976 18.4734L18.6864 18.3821C20.2764 17.1285 21.8776 15.8862 23.4676 14.6325C23.9568 14.245 24.4572 13.8918 24.9464 13.5271C26.3696 12.49 27.7817 11.453 28.8936 9.99423C29.9165 8.66081 30.4169 7.35001 30.6504 6.11916C31.1619 3.40672 28.4377 1.24133 25.9916 2.40379C25.9693 2.40379 25.9582 2.41521 25.936 2.42661" fill="#F7EC77"/>
<path d="M26.2039 2.32405C27.6049 2.8825 28.6056 4.39809 28.2832 6.1304C28.0497 7.36125 27.5493 8.66065 26.5264 10.0055C25.4034 11.4643 24.0024 12.4898 22.5792 13.5383C22.0899 13.903 21.5896 14.2563 21.1003 14.6438C19.5437 15.8632 17.987 17.0826 16.4304 18.3021C16.3748 18.3477 16.3748 18.439 16.4304 18.4846C16.9085 18.8721 16.9975 19.59 16.6194 20.0915L16.208 20.6385L16.8084 21.1173C17.2865 21.5048 17.9982 21.4135 18.3762 20.9234L19.01 20.0915C19.388 19.6014 19.2991 18.8721 18.821 18.4846L18.7098 18.3934C20.2998 17.1397 21.9009 15.8974 23.4909 14.6438C23.9801 14.2563 24.4805 13.903 24.9697 13.5383C26.3929 12.5012 27.805 11.4643 28.9169 10.0055C29.9399 8.67205 30.4402 7.36125 30.6737 6.1304C31.1741 3.49775 28.6056 1.37812 26.2262 2.32405H26.2039Z" fill="#F7E05D"/>
<path d="M21.2114 7.77197C20.9001 8.45578 20.6332 9.15107 20.3663 9.85767C20.1551 10.4161 19.9327 10.9745 19.6992 11.5444L23.513 14.61C23.9911 14.2453 24.4692 13.8921 24.9473 13.5388C25.5478 13.0943 26.1482 12.6613 26.7264 12.1941L21.2225 7.77197H21.2114Z" fill="#F5F7F3"/>
<path d="M25.4704 11.1792C24.5808 12.0568 23.5801 12.7976 22.5683 13.527C22.5016 13.5726 22.4349 13.6297 22.3682 13.6753L23.5134 14.5982C23.9693 14.2335 24.4363 13.8917 24.9033 13.5612C24.9144 13.5612 24.9255 13.5384 24.9366 13.5384C25.0812 13.4358 25.2146 13.3332 25.3592 13.2307C25.3703 13.2307 25.3814 13.2079 25.3925 13.2079C25.5371 13.1053 25.6816 12.9913 25.8261 12.8887C25.8261 12.8887 25.8373 12.889 25.8484 12.8776C26.1375 12.661 26.4377 12.433 26.7157 12.2051L25.4592 11.202L25.4704 11.1792Z" fill="#EDE9E6"/>
<path d="M14.2066 29.357C14.0175 28.7073 13.7396 28.0349 13.3615 27.3397C12.4609 25.7214 11.2156 24.5018 9.95913 23.2596C9.5255 22.8265 9.08074 22.3935 8.65822 21.949C7.37955 20.6042 6.10087 19.2593 4.82219 17.9031L4.45526 17.5155L4.51086 17.4813C5.04457 17.1736 5.2336 16.4671 4.92227 15.9201L4.4108 15.0083C4.11059 14.4613 3.42121 14.2677 2.8875 14.5868L1.14183 15.601C0.608124 15.9087 0.4191 16.6151 0.730429 17.1622L1.2419 18.074C1.54211 18.621 2.23149 18.8149 2.76519 18.4958L2.8875 18.4273L4.46639 24.3878C4.62205 24.9919 4.7666 25.6074 4.90002 26.2114C5.3003 27.9551 5.70059 29.6874 6.5901 31.2943C7.4129 32.7645 8.40248 33.7447 9.42542 34.4285C11.6826 35.9328 14.6735 34.1662 14.5401 31.4081C14.5401 31.3854 14.5401 31.3742 14.5401 31.3514" fill="#F7EC77"/>
<path d="M14.2066 29.357C14.0175 28.7073 13.7396 28.0349 13.3615 27.3397C12.4609 25.7214 11.2156 24.5018 9.95913 23.2596C9.5255 22.8265 9.08074 22.3935 8.65822 21.949C7.37955 20.6042 6.10087 19.2593 4.82219 17.9031L4.45526 17.5155L4.51086 17.4813C5.04457 17.1736 5.2336 16.4671 4.92227 15.9201L4.4108 15.0083C4.11059 14.4613 3.42121 14.2677 2.8875 14.5868L1.14183 15.601C0.608124 15.9087 0.4191 16.6151 0.730429 17.1622L1.2419 18.074C1.54211 18.621 2.23149 18.8149 2.76519 18.4958L2.8875 18.4273L4.46639 24.3878C4.62205 24.9919 4.7666 25.6074 4.90002 26.2114C5.3003 27.9551 5.70059 29.6874 6.5901 31.2943C7.4129 32.7645 8.40248 33.7447 9.42542 34.4285C11.6826 35.9328 14.6735 34.1662 14.5401 31.4081C14.5401 31.3854 14.5401 31.3742 14.5401 31.3514" fill="#5E8EE1"/>
<path d="M14.5403 31.4082C14.5403 31.4082 14.5403 31.3742 14.5403 31.3514L14.2067 29.357C14.0177 28.7073 13.7397 28.0349 13.3617 27.3397C12.4611 25.7214 11.2157 24.5018 9.9593 23.2596C9.52567 22.8265 9.08091 22.3935 8.65839 21.949C7.37972 20.6042 6.10104 19.2593 4.82236 17.9031L4.45544 17.5155L4.51103 17.4813C5.04474 17.1736 5.23377 16.4671 4.92244 15.9201L4.41097 15.0083C4.11076 14.4613 3.42138 14.2677 2.88767 14.5868L1.62012 15.3274C1.85361 15.4186 2.05376 15.5895 2.18718 15.8288L2.69865 16.7406C2.99886 17.2877 2.80984 17.9827 2.28725 18.3018L2.23165 18.3361C2.3206 18.4272 2.40956 18.5298 2.49851 18.621C2.58746 18.5982 2.67641 18.5642 2.75424 18.5072L2.87655 18.4387C2.94327 18.7123 3.0211 18.9858 3.08781 19.2593C4.19971 20.4331 5.30048 21.5957 6.41237 22.7696C6.84601 23.2254 7.27964 23.6584 7.71328 24.0801C8.98083 25.3223 10.2262 26.5533 11.1157 28.1602C11.5048 28.8554 11.7828 29.5279 11.9718 30.1775L12.3054 32.1719C12.3054 32.1719 12.3054 32.2062 12.3054 32.229C12.361 33.3686 11.8718 34.3487 11.1268 34.9869C12.928 35.0211 14.6181 33.5052 14.5181 31.4196L14.5403 31.4082Z" fill="#467BFF"/>
<path d="M11.5162 24.8437C11.0158 24.2966 10.4821 23.7722 9.94842 23.248C9.5259 22.8263 9.10339 22.4162 8.68087 21.9717L4.4668 24.4333C4.62246 25.0259 4.75589 25.6072 4.88931 26.1998C5.0561 26.9406 5.22289 27.6699 5.43415 28.3879L11.5051 24.8437H11.5162Z" fill="#F5F7F3"/>
<path d="M24.5694 35.1919C25.2032 35.021 25.8703 34.7589 26.5597 34.3714C28.1608 33.4938 29.3839 32.2516 30.6403 30.998C31.074 30.5649 31.5076 30.1203 31.9635 29.6986C33.3089 28.4221 34.6654 27.1573 36.0108 25.8808C36.1442 25.7555 36.2665 25.6414 36.3999 25.516L36.4333 25.5731C36.7224 26.1315 37.4006 26.3366 37.9455 26.0403L38.8461 25.5503C39.3909 25.254 39.591 24.5586 39.302 24.0002L38.3569 22.1883C38.0678 21.6298 37.3895 21.4245 36.8447 21.7208L35.944 22.2111C35.3992 22.5074 35.1991 23.2025 35.4882 23.7609L35.5549 23.8864C33.6091 24.365 31.6521 24.8551 29.7063 25.3338C29.1059 25.482 28.5166 25.6072 27.9162 25.7325C26.2039 26.0972 24.5138 26.4507 22.9127 27.3282C21.4561 28.126 20.4776 29.1175 19.7771 30.1432C18.2427 32.4112 19.8883 35.5224 22.5791 35.4768C22.6013 35.4768 22.6125 35.4768 22.6347 35.4768" fill="#F86654"/>
<path d="M39.2907 24.0088L38.6014 22.6982C38.6903 23.1769 38.479 23.6899 38.0343 23.9292L37.1336 24.4192C36.5888 24.7155 35.9106 24.499 35.6215 23.952L35.5881 23.895C35.4547 24.0203 35.3324 24.1344 35.199 24.2597C33.8536 25.5362 32.4971 26.8011 31.1517 28.0775C30.6958 28.4992 30.2622 28.9438 29.8285 29.3769C28.5832 30.6419 27.349 31.8841 25.7479 32.7503C25.0585 33.1264 24.3914 33.3885 23.7576 33.5708L21.8007 33.8557C21.8007 33.8557 21.7673 33.8557 21.7451 33.8557C20.6999 33.8785 19.8215 33.4227 19.21 32.7275C19.5102 34.2432 20.8 35.5196 22.5345 35.4854C22.5568 35.4854 22.5679 35.4854 22.5901 35.4854L24.547 35.2005C25.1808 35.0295 25.8479 34.7674 26.5373 34.3799C28.1384 33.5024 29.3615 32.2602 30.618 31.0065C31.0516 30.5735 31.4852 30.1288 31.9411 29.7072C33.2865 28.4307 34.643 27.1658 35.9884 25.8894C36.1218 25.764 36.2441 25.65 36.3776 25.5246L36.4109 25.5817C36.7 26.1401 37.3783 26.3451 37.9231 26.0488L38.8237 25.5588C39.3686 25.2625 39.5687 24.5672 39.2796 24.0088H39.2907Z" fill="#EA543C"/>
<path d="M29.0383 32.5592C29.5831 32.0577 30.1168 31.5336 30.6394 30.998C31.0619 30.5763 31.4844 30.1545 31.9181 29.7328L29.6387 25.3452C29.0605 25.482 28.4823 25.6072 27.9041 25.7325C27.1814 25.8807 26.4587 26.0405 25.7471 26.2342L29.0383 32.5592Z" fill="#F5F7F3"/>
<path d="M18.8197 21.2877L19.4535 20.4558C19.9094 19.8632 19.9316 19.0654 19.5647 18.4614L23.8232 15.1222C24.3013 14.7461 24.8017 14.3812 25.2798 14.0393C26.703 12.9908 28.1818 11.9195 29.3493 10.3809C30.3278 9.10451 30.9393 7.74843 31.2284 6.25546C31.5064 4.78527 30.9616 3.28071 29.7941 2.35757C28.6266 1.42303 27.0699 1.24076 25.7357 1.86758L25.6801 1.8904C25.3799 2.03856 25.2576 2.39181 25.4021 2.69953C25.5466 3.00724 25.8913 3.1326 26.1916 2.98445L26.236 2.96163C27.1811 2.51715 28.2374 2.64258 29.0602 3.30359C29.883 3.9646 30.25 4.97906 30.0609 6.01617C29.8163 7.3154 29.2826 8.50058 28.4153 9.62886C27.9039 10.3013 27.3257 10.8826 26.703 11.4068L21.9441 7.58879C22.2999 6.848 22.7113 6.13015 23.2228 5.45774C23.6564 4.89929 24.1234 4.39779 24.6238 3.98751C24.8795 3.78236 24.924 3.39487 24.7127 3.13275C24.5126 2.87062 24.1346 2.82495 23.8788 3.04148C23.3006 3.50875 22.7669 4.07856 22.2777 4.71678C21.0991 6.25534 20.432 7.97634 19.7871 9.64027C19.5647 10.2101 19.3423 10.7914 19.1088 11.3612L16.9517 16.4327C16.3068 16.2618 15.5952 16.4783 15.1616 17.0482L14.5278 17.8801C14.2498 18.2448 14.1275 18.7006 14.172 19.1678C14.2165 19.6351 14.45 20.0454 14.8169 20.3417L16.3958 21.6069C16.696 21.8462 17.0629 21.9831 17.441 21.9831C17.5077 21.9831 17.5855 21.9831 17.6522 21.9717C18.1081 21.9147 18.5084 21.6867 18.7975 21.3106L18.8197 21.2877ZM21.3659 8.94494C21.3993 8.87656 21.4215 8.80826 21.4549 8.73988L25.7468 12.1931C25.7468 12.1931 25.6467 12.273 25.5911 12.3072C25.2687 12.5579 24.9351 12.7972 24.5904 13.0479C24.2346 13.31 23.8788 13.5721 23.523 13.8456L20.4208 11.3612C20.5876 10.9395 20.7544 10.5177 20.9101 10.1074C21.0546 9.70855 21.2103 9.33244 21.3548 8.95635L21.3659 8.94494ZM18.5084 19.7151L17.8746 20.5471C17.7857 20.661 17.6634 20.7293 17.5299 20.7407C17.3854 20.7635 17.2519 20.7178 17.1519 20.6266L15.573 19.3618C15.4618 19.2706 15.3951 19.1452 15.384 19.0084C15.3728 18.8716 15.4062 18.7234 15.4952 18.6208L16.1289 17.7889C16.3068 17.5609 16.6293 17.5155 16.8628 17.6979L16.9073 17.7318C17.0518 17.8458 17.2408 17.8915 17.4187 17.8459C17.5966 17.8003 17.7412 17.6749 17.819 17.5039L19.9427 12.5123L22.5446 14.6091L18.3305 17.9143C18.1859 18.0283 18.097 18.2106 18.097 18.3929C18.097 18.5867 18.1748 18.7575 18.3194 18.8715L18.4306 18.9628C18.6529 19.1451 18.6974 19.4758 18.5195 19.7151H18.5084Z" fill="black"/>
<path d="M15.1292 31.3177C15.107 30.9872 14.829 30.7251 14.5065 30.7365C14.1841 30.7593 13.9284 31.0443 13.9395 31.3748V31.4315C13.9951 32.4914 13.4725 33.4487 12.5718 33.9844C11.6712 34.5086 10.6149 34.4861 9.74764 33.9048C8.65799 33.1754 7.80183 32.218 7.11245 30.9758C6.70105 30.235 6.40085 29.46 6.15623 28.6736L11.4044 25.6079C11.9381 26.2233 12.4384 26.8844 12.8498 27.6252C13.1945 28.2406 13.4614 28.8787 13.6504 29.5169C13.7393 29.8361 14.0729 30.0185 14.3842 29.9273C14.6956 29.8362 14.8735 29.4941 14.7845 29.175C14.5732 28.457 14.273 27.7277 13.8839 27.0325C12.9388 25.3344 11.6379 24.058 10.3703 22.8044C9.94778 22.3827 9.50303 21.9494 9.09163 21.505L5.33343 17.5389C5.46686 17.368 5.55581 17.1628 5.62252 16.9463C5.74483 16.4904 5.68923 16.0232 5.45574 15.6129L4.94427 14.7011C4.72189 14.2908 4.35497 14.006 3.91021 13.8806C3.46545 13.7552 3.00958 13.8121 2.6093 14.0514L0.863628 15.0659C0.463347 15.2938 0.185373 15.6699 0.0630646 16.1257C-0.0592434 16.5816 -0.00364715 17.0488 0.22985 17.4591L0.741319 18.3709C0.963698 18.7811 1.33062 19.066 1.77538 19.1914C2.01999 19.2598 2.26461 19.2712 2.49811 19.237L3.89909 24.5481C4.05475 25.1407 4.1993 25.756 4.33272 26.3372C4.73301 28.0923 5.14441 29.9045 6.08952 31.5912C6.87896 33.0044 7.86854 34.0984 9.11386 34.9304C9.75876 35.3635 10.4926 35.5801 11.2376 35.5801C11.9047 35.5801 12.5718 35.3978 13.1834 35.0445C14.4732 34.2923 15.2293 32.8905 15.1626 31.3748V31.3177H15.1292ZM9.52526 23.6819C9.83659 24.001 10.159 24.3086 10.4592 24.6163C10.4926 24.6505 10.5148 24.6733 10.5482 24.7075L5.81154 27.4769C5.81154 27.4769 5.80043 27.4315 5.78931 27.3973C5.67812 26.9528 5.57805 26.5081 5.47798 26.0523C5.37791 25.6078 5.27783 25.1748 5.16664 24.7303L8.58016 22.7359C8.58016 22.7359 8.68023 22.8384 8.73582 22.8953C8.75806 22.9181 8.76917 22.9296 8.79141 22.9524C9.03603 23.2031 9.29176 23.454 9.53638 23.6933L9.52526 23.6819ZM3.45434 18.2685C3.40986 18.0861 3.27643 17.9378 3.10965 17.8695C2.94286 17.8011 2.74272 17.8125 2.58705 17.9037L2.46475 17.9721C2.34245 18.0405 2.20901 18.0631 2.07559 18.0175C1.94216 17.9833 1.83097 17.8922 1.76426 17.7668L1.25279 16.8553C1.18607 16.7299 1.16384 16.593 1.20831 16.4563C1.24167 16.3195 1.33062 16.2055 1.45293 16.1371L3.1986 15.1229C3.32091 15.0546 3.45433 15.0317 3.58776 15.0773C3.72119 15.1115 3.83237 15.2026 3.89909 15.328L4.41056 16.2398C4.47728 16.3652 4.49951 16.5018 4.45503 16.6385C4.42168 16.7753 4.33273 16.8893 4.21042 16.9577L4.15483 16.9919C3.99916 17.0831 3.88797 17.2542 3.86573 17.4365C3.84349 17.6189 3.89909 17.8126 4.03252 17.9493L7.73512 21.8469L4.85531 23.5222L3.46545 18.2685H3.45434Z" fill="black"/>
<path d="M39.8141 23.713L38.869 21.9011C38.6577 21.4908 38.2908 21.1831 37.8572 21.0463C37.4235 20.9096 36.9566 20.955 36.5563 21.1715L35.6556 21.6618C35.0107 22.0151 34.6772 22.7329 34.7661 23.4395L29.5514 24.7275C28.9732 24.8756 28.3727 25.0011 27.7946 25.1151C26.0822 25.4798 24.3032 25.8558 22.6243 26.779C21.2233 27.5425 20.1336 28.5339 19.2775 29.7876C18.4435 31.0184 18.3546 32.6142 19.0551 33.9476C19.7445 35.2582 21.0565 36.0672 22.5019 36.0672C22.5242 36.0672 22.5576 36.0672 22.5798 36.0672H22.6354C22.969 36.0672 23.2247 35.7822 23.2136 35.4403C23.2136 35.0984 22.9356 34.8363 22.602 34.8477H22.5464C21.5013 34.8705 20.5895 34.3123 20.0891 33.3663C19.5999 32.4204 19.6555 31.3491 20.2448 30.4715C20.9787 29.3774 21.9349 28.5226 23.1691 27.8502C23.9029 27.4513 24.659 27.1549 25.4374 26.927L28.2838 32.3861C27.6611 32.9217 27.0051 33.4004 26.2713 33.8107C25.6597 34.1526 25.0259 34.4032 24.4033 34.5742C24.0808 34.6654 23.9029 34.996 23.9808 35.3151C24.0697 35.6456 24.3922 35.8279 24.7035 35.7481C25.4151 35.5543 26.1267 35.258 26.8272 34.8819C28.5062 33.9588 29.796 32.6595 31.0413 31.4058H31.0524C31.4749 30.9728 31.9086 30.5398 32.3422 30.1181L36.3117 26.3685C36.8342 26.7902 37.5681 26.893 38.1907 26.5511L39.0914 26.0608C39.4917 25.8443 39.7919 25.4683 39.9253 25.0238C40.0587 24.5793 40.0143 24.1008 39.803 23.6905L39.8141 23.713ZM30.2296 30.5511H30.2185C29.8849 30.9044 29.5513 31.235 29.2178 31.5655C29.2178 31.5655 29.2067 31.5656 29.1955 31.577L26.6271 26.6421C26.716 26.6193 26.7939 26.6078 26.8828 26.585C27.2608 26.5052 27.6278 26.4255 28.0169 26.3343H28.028C28.4506 26.2432 28.8842 26.152 29.3178 26.0494L31.1747 29.6053C30.8523 29.9244 30.5409 30.232 30.2296 30.5511ZM38.8023 24.6933C38.7578 24.83 38.6689 24.944 38.5466 25.0124L37.6459 25.5024C37.3902 25.6391 37.0789 25.548 36.9454 25.2859L36.9121 25.2289C36.8231 25.0579 36.6674 24.9439 36.4895 24.9211C36.3116 24.8869 36.1226 24.9441 35.9892 25.0694L32.0753 28.7506L30.5187 25.7531L35.6779 24.4768C35.8558 24.4312 36.0003 24.3058 36.0782 24.1348C36.156 23.9639 36.1449 23.7702 36.0559 23.5992L35.9892 23.4737C35.8558 23.2116 35.9447 22.8926 36.2005 22.7559L37.1011 22.2659C37.2234 22.1975 37.3679 22.1861 37.5014 22.2317C37.6348 22.2772 37.746 22.3684 37.8127 22.4938L38.7578 24.3057C38.8245 24.431 38.8356 24.5793 38.7912 24.7161L38.8023 24.6933Z" fill="black"/>
<path d="M9.4477 9.20811H9.69232V9.45909C9.69232 9.80099 9.95917 10.0629 10.2816 10.0629C10.6041 10.0629 10.8709 9.7896 10.8709 9.45909V9.20811H11.1155C11.4491 9.20811 11.716 8.93484 11.716 8.60433C11.716 8.27382 11.4491 8.00027 11.1155 8.00027H10.8709V7.74957C10.8709 7.40767 10.6041 7.14551 10.2816 7.14551C9.95917 7.14551 9.69232 7.41906 9.69232 7.74957V8.00027H9.4477C9.11413 8.00027 8.8584 8.27382 8.8584 8.60433C8.8584 8.93484 9.12525 9.20811 9.4477 9.20811Z" fill="black"/>
<path d="M27.3607 20.547C27.6943 20.547 27.95 20.2735 27.95 19.943V19.6923H28.1946C28.5282 19.6923 28.7839 19.4187 28.7839 19.0882C28.7839 18.7577 28.5171 18.4842 28.1946 18.4842H27.95V18.2335C27.95 17.8916 27.6832 17.6294 27.3607 17.6294C27.0383 17.6294 26.7714 17.903 26.7714 18.2335V18.4842H26.5268C26.1932 18.4842 25.9375 18.7577 25.9375 19.0882C25.9375 19.4187 26.2044 19.6923 26.5268 19.6923H26.7714V19.943C26.7714 20.2849 27.0383 20.547 27.3607 20.547Z" fill="black"/>
<path d="M9.81476 37.4368H9.57015V37.1861C9.57015 36.8442 9.30329 36.582 8.98084 36.582C8.65839 36.582 8.39154 36.8556 8.39154 37.1861V37.4368H8.14692C7.81335 37.4368 7.55762 37.7103 7.55762 38.0409C7.55762 38.3714 7.82447 38.6449 8.14692 38.6449H8.39154V38.8956C8.39154 39.2375 8.65839 39.4997 8.98084 39.4997C9.30329 39.4997 9.57015 39.2261 9.57015 38.8956V38.6449H9.81476C10.1483 38.6449 10.4152 38.3714 10.4152 38.0409C10.4152 37.7103 10.1483 37.4368 9.81476 37.4368Z" fill="black"/>
</g>
<defs>
<clipPath id="clip0_225_10309">
<rect width="40" height="40" fill="white" transform="translate(0 0.5)"/>
</clipPath>
</defs>
</svg>
