<svg width="40" height="40" viewBox="0 0 40 40" fill="none" xmlns="http://www.w3.org/2000/svg">
<g clip-path="url(#clip0_225_10375)">
<path d="M38.6181 23.1064C37.9185 23.5427 36.9969 23.319 36.5639 22.6142C36.5417 22.5806 36.5195 22.5359 36.4973 22.5024L31.9669 13.0937C31.8004 12.758 31.4007 12.6238 31.0786 12.7804C30.9343 12.8475 30.8233 12.9706 30.7566 13.1273L29.3576 16.517L28.8468 17.7587L27.9918 19.8173L21.3185 17.1323V9.73742C21.3185 8.99905 20.7189 8.39484 19.986 8.39484H12.6465V5.70996H20.8632C21.5072 5.70996 22.1402 5.79946 22.7509 5.98965L30.3791 8.2494C32.1557 8.77521 33.6325 10.0283 34.4653 11.6952L39.1177 21.0815C39.4953 21.7863 39.2732 22.6701 38.6181 23.1288V23.1064Z" fill="#0182C3"/>
<path d="M16.4775 22.5028L21.3077 17.1216L27.981 19.8066C28.303 22.0553 26.7485 24.1473 24.5166 24.4717C24.3279 24.4941 24.128 24.5165 23.9392 24.5165H23.8282L16.4886 22.5028H16.4775Z" fill="#D43939"/>
<path d="M17.8432 32.5493L15.0117 29.6964L23.0286 21.6191C23.8059 20.836 25.0828 20.836 25.86 21.6191C26.6373 22.4022 26.6373 23.6887 25.86 24.4718L17.8432 32.5493Z" fill="#EA4747"/>
<path d="M12.1811 32.5487L9.34961 29.6958L18.7878 20.1865C19.565 19.4033 20.842 19.4033 21.6192 20.1865C22.3965 20.9696 22.3965 22.2562 21.6192 23.0393L12.1811 32.5487Z" fill="#EA4747"/>
<path d="M3.20892 38.7246C2.43166 37.9415 2.43166 36.6549 3.20892 35.8718L9.33817 29.6963L12.1696 32.5491L6.04037 38.7246C5.26311 39.5078 3.98618 39.5078 3.20892 38.7246Z" fill="#FFC200"/>
<path d="M18.088 12.7462C17.5661 13.272 16.7222 13.272 16.2003 12.7462L11.4812 7.99149C10.9594 7.46567 10.9594 6.61548 11.4812 6.08967C12.0031 5.56386 12.847 5.56386 13.3689 6.08967L18.088 10.8443C18.6098 11.3702 18.6098 12.2203 18.088 12.7462Z" fill="#0B9CE6"/>
<path d="M27.3153 9.73767C25.8385 9.73767 24.6504 8.5294 24.6504 7.05266V3.69642C24.6504 2.57767 25.5498 1.68262 26.6491 1.68262H27.9815C29.0919 1.68262 29.9802 2.58886 29.9802 3.69642V7.05266C29.9802 8.54059 28.781 9.73767 27.3153 9.73767Z" fill="#FEC093"/>
<path d="M29.9802 4.35592V3.6847C29.9802 2.56595 29.0808 1.6709 27.9815 1.6709H26.6491C25.5387 1.6709 24.6504 2.57714 24.6504 3.6847V4.35592H29.9913H29.9802Z" fill="#D43939"/>
<path d="M29.9802 4.35641V5.6206C29.9802 6.37016 29.3917 6.99668 28.6477 7.04143C28.6255 7.04143 28.5922 7.04143 28.57 7.04143C28.2147 7.04143 27.8705 6.90722 27.6151 6.6611C27.5929 6.64991 27.5818 6.63868 27.5707 6.6163L27.3153 6.35901L27.0599 6.6163C26.7934 6.8848 26.4381 7.03023 26.0606 7.03023C26.0384 7.03023 26.005 7.03023 25.9828 7.03023C25.6386 7.00786 25.3055 6.86243 25.0612 6.6163L25.0168 6.57151C24.7836 6.30301 24.6504 5.9674 24.6504 5.6094V4.34521H29.9913L29.9802 4.35641Z" fill="#0B9CE6"/>
<path d="M12.1703 32.5493L9.33887 29.6965L10.2827 28.7455C11.0599 27.9624 12.3369 27.9624 13.1141 28.7455C13.8914 29.5287 13.8914 30.8151 13.1141 31.5983L12.1703 32.5493Z" fill="#949391"/>
<path d="M17.8324 32.5483L15.001 29.6954L15.967 28.7221C16.7443 27.939 18.0212 27.939 18.7984 28.7221C19.5757 29.5052 19.5757 30.7918 18.7984 31.575L17.8324 32.5483Z" fill="#949391"/>
<path d="M8.87201 38.7246C8.09475 37.9415 8.09475 36.6549 8.87201 35.8718L15.0013 29.6963L17.8327 32.5491L11.7035 38.7246C10.9262 39.5078 9.64927 39.5078 8.87201 38.7246Z" fill="#FFC200"/>
<path d="M39.7069 20.7683L35.0433 11.382C34.1328 9.55844 32.5228 8.19357 30.5796 7.60063C30.6129 7.42163 30.6352 7.23145 30.6352 7.04126V3.68502C30.6352 2.19709 29.436 1 27.9703 1H26.6378C25.161 1 23.9729 2.20827 23.9729 3.68502V5.64283L22.9292 5.32954C22.2518 5.12817 21.5523 5.02746 20.8528 5.02746H12.4362C11.3258 5.02746 10.4375 5.92251 10.4264 7.04126C10.4264 7.57826 10.6374 8.09291 11.0149 8.47329L14.8235 12.3105L2.36509 24.8741L1.42127 23.9231L0.47746 24.8741L1.42127 25.8251L0 27.2571L0.943814 28.208L2.36509 26.776L3.3089 27.7269L4.25272 26.776L3.3089 25.8251L15.7784 13.2616C16.5667 14.0223 17.8104 14.0111 18.5765 13.2392C19.3538 12.456 19.3538 11.1694 18.5765 10.3863L17.2774 9.07745H19.9867C20.3531 9.07745 20.6529 9.37949 20.6529 9.74867V16.8975L18.0546 19.9963L2.76482 35.4127C1.73218 36.4755 1.75439 38.176 2.80924 39.2164C3.84189 40.2345 5.50744 40.2345 6.54009 39.2164L7.75039 37.997C8.12792 39.429 9.5714 40.2904 10.9927 39.91C11.4479 39.787 11.8699 39.552 12.203 39.2052L26.3602 24.9412C26.5823 24.7175 26.7489 24.4602 26.8821 24.1805C28.0369 23.2743 28.7031 21.887 28.7142 20.4214C28.7142 20.2648 28.692 20.1083 28.6809 19.9404L31.3902 13.3958L35.9316 22.8156V22.838L23.2401 35.6253L22.2963 34.6742L21.3524 35.6253L22.2963 36.5762L20.875 38.0082L21.8188 38.9591L23.2401 37.5271L24.1839 38.478L25.1277 37.5271L24.1839 36.5762L36.8977 23.7777C37.1975 23.9343 37.5306 24.0239 37.8637 24.0239C38.2634 24.0239 38.652 23.912 38.9963 23.6994C39.9512 23.0617 40.2732 21.8087 39.7513 20.7795L39.7069 20.7683ZM26.6378 2.34258H27.9703C28.7031 2.34258 29.3027 2.94665 29.3027 3.68502H25.2943C25.2943 2.94665 25.8939 2.34258 26.6267 2.34258H26.6378ZM25.3054 5.02746H29.3138V5.62043C29.3138 6.03436 28.9807 6.37004 28.5699 6.37004C28.37 6.37004 28.1812 6.29164 28.0369 6.14621L27.7815 5.88892C27.5261 5.63161 27.0931 5.63161 26.8377 5.88892L26.5823 6.14621C26.438 6.29164 26.2492 6.37004 26.0493 6.37004C25.6385 6.37004 25.3054 6.03436 25.3054 5.62043V5.02746ZM29.225 7.60063C28.9252 8.66344 27.8259 9.28993 26.7711 8.98787C26.1048 8.79768 25.583 8.27188 25.3942 7.60063C26.0382 7.83557 26.76 7.72367 27.3151 7.29855C27.8592 7.72367 28.581 7.83557 29.2361 7.60063H29.225ZM17.6105 11.326C17.8659 11.5833 17.8659 12.0197 17.6105 12.2771C17.344 12.5344 16.9332 12.5344 16.6667 12.2771L11.9476 7.52238C11.6922 7.26507 11.6922 6.82865 11.9476 6.57134C12.203 6.31402 12.636 6.31402 12.8914 6.57134L17.6105 11.326ZM19.2427 20.6677C19.7646 20.1418 20.6085 20.1418 21.1304 20.6677C21.6523 21.1935 21.6523 22.0437 21.1304 22.5695L15.4897 28.2526L15.3009 28.4429L14.2683 29.4834C14.0351 28.5436 13.3134 27.8164 12.3806 27.5814L19.2427 20.6677ZM10.7484 29.226C11.2703 28.7001 12.1142 28.7001 12.636 29.226C13.1579 29.7518 13.1579 30.6021 12.636 31.1279L12.1697 31.5977L10.282 29.6959L10.7484 29.226ZM5.55186 38.2543C5.01888 38.7577 4.1972 38.7577 3.66422 38.2543C3.14235 37.7285 3.14235 36.8782 3.66422 36.3524L9.32712 30.6468L11.2148 32.5487L5.55186 38.2543ZM11.2148 38.2543C10.6818 38.7577 9.8601 38.7577 9.32712 38.2543C8.80524 37.7285 8.80524 36.8782 9.32712 36.3524L14.99 30.6468L16.8777 32.5487L11.2148 38.2543ZM18.31 31.1055L17.8215 31.5977L15.9338 29.6959L16.4224 29.2037C16.9443 28.6779 17.7881 28.6779 18.31 29.2037C18.8319 29.7295 18.8319 30.5797 18.31 31.1055ZM25.372 23.9903L19.9423 29.461C19.7091 28.5212 18.9874 27.794 18.0546 27.559L23.4844 22.0883C24.0173 21.5849 24.839 21.5849 25.372 22.0883C25.8939 22.6142 25.8939 23.4645 25.372 23.9903ZM26.9154 22.0549C26.3935 20.6788 24.8612 19.9964 23.4955 20.5222C23.229 20.6229 22.9847 20.7683 22.7626 20.9473C22.5183 19.9069 21.6745 19.1237 20.6307 18.9559L21.4968 17.9266L27.3374 20.276V20.3992C27.3374 20.9809 27.193 21.5403 26.9154 22.0437V22.0549ZM21.9632 16.6736V14.7718L28.2368 17.4121L27.6038 18.9447L21.9632 16.6736ZM38.2523 22.5359C37.9192 22.7484 37.4973 22.6813 37.2197 22.4016C37.1642 22.3457 37.1086 22.2787 37.0753 22.2115L32.545 12.8028C32.3118 12.3218 31.8233 12.0308 31.3014 12.042C30.7795 12.0532 30.3131 12.3776 30.1133 12.8699L28.7475 16.1703L21.9521 13.3174V9.73748C21.9521 8.61873 21.0527 7.72368 19.9534 7.72368H15.9116L14.5792 6.38124H20.8417C21.4191 6.38124 21.9854 6.4707 22.5406 6.62733L23.9618 7.05246C23.9618 8.90958 25.4386 10.4087 27.2818 10.4199C28.4255 10.4199 29.4915 9.83813 30.1022 8.86482L30.1688 8.88722C31.7677 9.36828 33.1002 10.487 33.8441 11.9862L38.5077 21.3725C38.7298 21.7752 38.6187 22.2786 38.2523 22.5471V22.5359Z" fill="black"/>
<path d="M26.3818 13.339L26.9037 12.1084L28.2362 12.6902L27.7143 13.9208L26.3818 13.339Z" fill="black"/>
</g>
<defs>
<clipPath id="clip0_225_10375">
<rect width="40" height="40" fill="white"/>
</clipPath>
</defs>
</svg>
