<svg width="40" height="40" viewBox="0 0 40 40" fill="none" xmlns="http://www.w3.org/2000/svg">
<path d="M36.158 29.6063C36.9098 30.4319 37.3333 31.4905 37.3545 32.602C37.3333 33.6711 36.9309 34.6978 36.2215 35.4917C35.025 36.709 33.3945 37.3969 31.6898 37.3969H3.75799C3.09093 37.3969 2.56152 36.8571 2.56152 36.2008V35.5975C2.56152 34.9306 3.10152 34.4014 3.75799 34.4014H4.95447C5.94976 34.4014 6.75446 33.597 6.75446 32.602V29.6063H10.3545V32.602C10.3545 33.597 11.1592 34.4014 12.1545 34.4014H21.758C22.7533 34.4014 23.558 33.597 23.558 32.602V30.8024H27.158V32.602C27.158 33.597 27.9627 34.4014 28.958 34.4014H31.6262C32.8015 34.4014 33.7651 33.4487 33.7651 32.2738C33.7651 31.2894 33.098 30.4426 32.1451 30.1991L34.358 29.5957H36.158V29.6063Z" fill="#B5CEDD"/>
<path d="M36.1578 27.2037V29.6065L25.866 31.152C23.4731 31.4802 21.0378 31.0778 18.8778 29.9982L16.326 28.7174C14.8437 27.9764 13.2237 27.553 11.5613 27.4683V29.0032C11.5613 29.6701 11.0213 30.1993 10.3649 30.1993H6.63779C6.02367 30.1993 5.51544 29.7442 5.44132 29.1302L4.96484 24.801L5.56837 23.5942L36.1684 27.1932L36.1578 27.2037Z" fill="#708693"/>
<path d="M4.36117 20.609C4.27646 18.3755 4.65764 16.1527 5.49411 14.078C6.06587 12.6596 6.75411 11.5482 6.75411 9.28293V5.60993C6.75411 5.04892 7.16705 4.56194 7.72823 4.48784L17.6918 2.69902C18.0623 2.6461 18.4435 2.61426 18.8247 2.61426C19.4706 2.63543 19.9788 3.16469 19.9576 3.81038V8.53143C20.0741 15.7187 25.6118 21.657 32.78 22.2815C34.6965 22.3344 36.2212 23.9328 36.1682 25.8487C36.1682 25.9016 36.1682 25.9545 36.1682 25.9969V27.193L26.6388 28.495C24.2459 28.8231 21.8106 28.4208 19.6506 27.3411L17.0988 26.0709C15.4365 25.2347 13.5941 24.8008 11.7306 24.8008H4.9647C4.56234 23.4353 4.36117 22.0168 4.36117 20.5984V20.609Z" fill="#C4DDF0"/>
<path d="M36.7612 27.2031V26.0071C36.7612 23.5514 35.2153 21.8577 32.8224 21.6883C31.4882 21.593 30.1859 21.2861 28.9576 20.778C28.9576 20.778 28.9471 20.778 28.9365 20.7674C27.92 20.3546 26.9565 19.8147 26.0671 19.1584C26.0565 19.1584 26.0459 19.1374 26.0353 19.1268C26.0247 19.1162 26.0141 19.1268 25.9929 19.1056C25.1459 18.4705 24.3729 17.7294 23.6953 16.9144C23.6847 16.8932 23.6741 16.8721 23.6529 16.851C23.6529 16.851 23.6318 16.8509 23.6318 16.8298C21.6729 14.501 20.5929 11.5584 20.5718 8.52047V3.79942C20.5929 2.82559 19.8094 2.02117 18.8353 2C18.4223 2 18.0094 2.03171 17.5965 2.08463L7.6647 3.87359C6.80706 4.00061 6.18236 4.73098 6.17177 5.58837V9.26138C6.17177 10.5845 5.8647 11.8971 5.27176 13.0826C5.16588 13.326 5.06 13.5801 4.95412 13.8447C4.08588 15.9829 3.68353 18.2904 3.77882 20.598C3.77882 22.0587 3.98 23.5196 4.39294 24.9274L4.86941 29.2037C4.97529 30.114 5.73765 30.8021 6.65883 30.8021H9.78235V32.6016C9.78235 33.9248 10.8518 35.0045 12.1859 35.0045H21.7894C23.1129 35.0045 24.1929 33.9353 24.1929 32.6016V31.85H24.2671C24.8388 31.85 25.4106 31.8077 25.9823 31.7336L26.5859 31.6489V32.6016C26.5859 33.9248 27.6553 35.0045 28.9894 35.0045H31.6576C33.1718 35.0045 34.3894 33.7765 34.3894 32.2734C34.3894 31.6595 34.1776 31.0562 33.7965 30.5798L35.9565 30.2516C36.4753 30.9291 36.7718 31.7548 36.7929 32.6122C36.7824 33.5225 36.4329 34.4011 35.8294 35.0891C34.7494 36.1899 33.2671 36.8145 31.7318 36.8145H3.8C3.47176 36.8145 3.19647 36.5498 3.19647 36.211V35.6078C3.19647 35.2796 3.46117 35.0045 3.8 35.0045H4.99647C6.32 35.0045 7.4 33.9353 7.4 32.6016C7.4 32.2735 7.13529 31.9982 6.79647 31.9982C6.45765 31.9982 6.19294 32.2629 6.19294 32.6016C6.19294 33.2685 5.65294 33.7977 4.99647 33.7977H3.8C2.8047 33.7977 2 34.6022 2 35.5972V36.2005C2 37.1955 2.8047 38 3.8 38H31.7318C33.6059 38 35.4059 37.2273 36.7188 35.883C37.5341 34.9832 37.9894 33.8083 38 32.6016C37.9788 31.4267 37.5553 30.2834 36.8035 29.3731V27.2031H36.7612ZM22.9647 32.6016C22.9647 33.2685 22.4247 33.7977 21.7682 33.7977H12.1647C11.4976 33.7977 10.9682 33.2579 10.9682 32.6016V30.6962C11.6882 30.4422 12.1647 29.7648 12.1647 29.0026V28.1135C13.52 28.2511 14.8435 28.6427 16.0612 29.2461L18.6129 30.5268C19.9788 31.2043 21.4506 31.6383 22.9647 31.7865V32.6016ZM31.6259 33.7977H28.9576C28.2906 33.7977 27.7612 33.2579 27.7612 32.6016V31.4689L32.1023 30.8233C32.7376 31.0244 33.1612 31.6066 33.1612 32.2734C33.1612 33.1202 32.4729 33.8083 31.6259 33.8083V33.7977ZM35.5647 29.0873L25.7918 30.548C23.5153 30.855 21.2071 30.474 19.1529 29.4473L16.6012 28.1664C15.0447 27.3831 13.34 26.9385 11.5929 26.8538C11.2647 26.8433 10.9788 27.0973 10.9682 27.4255C10.9682 27.4255 10.9682 27.4467 10.9682 27.4573V28.9921C10.9682 29.3202 10.7035 29.5953 10.3647 29.5953H6.63764C6.33059 29.5953 6.07647 29.3625 6.04471 29.0661L5.64236 25.4037H11.7412C13.5094 25.4037 15.2565 25.8165 16.8447 26.6104L19.3965 27.8806C21.1435 28.7591 23.0706 29.2143 25.0188 29.2143C25.5906 29.2143 26.1624 29.172 26.7341 29.0979L35.5753 27.8912V29.0873H35.5647ZM35.5647 26.6844L26.5541 27.9123C24.2777 28.2299 21.9694 27.8382 19.9153 26.8115L17.3635 25.5413C15.6165 24.6733 13.6894 24.2181 11.7306 24.2076H5.42C5.12353 23.0326 4.9647 21.8153 4.9647 20.6086C4.88 18.4492 5.25059 16.3005 6.0553 14.2999C6.15059 14.0459 6.25647 13.813 6.36235 13.5696C7.01882 12.2359 7.36823 10.7645 7.35764 9.27197V5.59897C7.35764 5.32375 7.56941 5.10147 7.83412 5.06971L17.7765 3.28076C18.1259 3.22783 18.4753 3.20672 18.8247 3.20672C19.1424 3.22789 19.3753 3.49246 19.3647 3.81001V5.02733H18.1682C17.84 5.02733 17.5647 5.29203 17.5647 5.63075C17.5647 5.96948 17.8294 6.23405 18.1682 6.23405H19.3647V8.03347H18.1682C17.84 8.03347 17.5647 8.29817 17.5647 8.63689C17.5647 8.97561 17.8294 9.24018 18.1682 9.24018H19.3859C19.4176 9.88588 19.5023 10.5316 19.6294 11.1667L18.6553 11.463C18.3376 11.5583 18.1576 11.8971 18.2635 12.2147C18.3376 12.4687 18.5706 12.6381 18.8353 12.6381C18.8988 12.6381 18.9518 12.6381 19.0153 12.6063L19.9153 12.3311C20.1059 12.9979 20.3494 13.6542 20.6353 14.2893L19.6506 14.9456C19.3753 15.1255 19.3012 15.5066 19.4812 15.7818C19.6612 16.0571 20.0424 16.1312 20.3177 15.9512L21.1753 15.369C21.5459 16.0359 21.9588 16.671 22.4247 17.2638L21.8212 17.8565C21.5882 18.0894 21.5882 18.4705 21.8212 18.7033C22.0541 18.9362 22.4353 18.9362 22.6682 18.7033L23.1977 18.1741C23.7165 18.7457 24.2882 19.2749 24.8918 19.7619L24.5847 20.2169C24.4047 20.4922 24.4788 20.8627 24.7541 21.0532C25.0294 21.2437 25.4 21.159 25.5906 20.8838L25.8659 20.471C26.5435 20.9261 27.2635 21.3284 28.0047 21.6671L27.8141 22.207C27.7082 22.5245 27.8671 22.8632 28.1847 22.9691C28.2482 22.9902 28.3118 23.0008 28.3859 23.0008C28.64 23.0008 28.8624 22.8421 28.9471 22.5986L29.1165 22.1117C30.2918 22.5245 31.5094 22.7891 32.7588 22.8738C34.3577 22.9056 35.6282 24.2393 35.5859 25.8271C35.5859 25.88 35.5859 25.933 35.5859 25.9965V26.6738L35.5647 26.6844Z" fill="black"/>
</svg>
