<svg width="40" height="40" viewBox="0 0 40 40" fill="none" xmlns="http://www.w3.org/2000/svg">
<mask id="mask0_225_10376" style="mask-type:luminance" maskUnits="userSpaceOnUse" x="2" y="2" width="36" height="36">
<path d="M38 2H2V38H38V2Z" fill="white"/>
</mask>
<g mask="url(#mask0_225_10376)">
<path d="M31.6463 7.08241C26.9028 2.80477 20.1898 1.47064 14.1651 3.63064C8.15099 5.78005 3.77806 11.053 2.80394 17.3741C1.82982 23.6953 4.40276 30.0271 9.50629 33.8918C16.9392 39.5141 27.4851 38.2753 33.4145 31.0965C39.3545 23.907 38.571 13.3189 31.6357 7.08241H31.6463Z" fill="#D2E51A"/>
<path d="M31.6465 7.08237C28.4594 4.19178 24.2983 2.59298 19.9889 2.60357C19.6924 2.60357 19.3853 2.60346 19.0889 2.62464C26.3948 3.00581 32.6841 7.90826 34.823 14.8965C36.9724 21.8847 34.5053 29.4764 28.6712 33.8811C25.9077 35.9776 22.5618 37.1847 19.0889 37.3541C19.3853 37.3753 19.6924 37.3965 19.9889 37.3965C27.1889 37.3965 33.6477 32.9706 36.2312 26.247C38.8147 19.5235 36.9936 11.9106 31.6465 7.08237Z" fill="#93CC09"/>
<path d="M15.2347 20.4339C15.4782 20.2221 15.5099 19.8303 15.2982 19.5868C15.0864 19.3432 14.6947 19.3115 14.4511 19.5233C14.2076 19.7457 13.9323 19.9468 13.6676 20.1586C13.6252 19.3327 13.5405 18.5069 13.4135 17.6916C13.8688 17.2257 14.3029 16.7491 14.7264 16.262C14.917 16.0079 14.8852 15.6586 14.6311 15.4469C14.377 15.2351 14.0276 15.2562 13.8052 15.4891C13.5829 15.7327 13.3605 15.9763 13.1488 16.2198C12.9688 15.3939 12.7464 14.5891 12.4817 13.7844C12.8523 13.255 13.2017 12.7256 13.5299 12.175C13.6464 11.9844 13.6464 11.7621 13.5299 11.5715C13.4135 11.3915 13.2335 11.275 13.0111 11.2644C12.7994 11.2538 12.5982 11.3703 12.4817 11.5503C12.3123 11.8256 12.1323 12.1009 11.9523 12.3656C11.6347 11.5609 11.2747 10.7668 10.8617 10.0045C11.1264 9.42214 11.3911 8.83975 11.6135 8.24681C11.6876 8.05622 11.6558 7.82322 11.5182 7.6538C11.3805 7.48439 11.1688 7.41033 10.957 7.44209C10.7347 7.47386 10.5652 7.62208 10.4911 7.82325C10.3746 8.11972 10.2476 8.41616 10.1099 8.71263C9.697 8.03498 9.26288 7.34687 8.78641 6.72216C8.65935 6.54216 8.44759 6.46794 8.23583 6.47853C8.01348 6.4997 7.84407 6.64803 7.75936 6.83862C7.67466 7.02921 7.69583 7.26209 7.83348 7.44209C8.25701 8.01386 8.64877 8.60685 9.01936 9.22097C8.70171 9.16803 8.37348 9.10448 8.04524 9.06212C7.717 9.03036 7.42053 9.25271 7.38877 9.59153C7.34641 9.91977 7.57936 10.2162 7.89701 10.2586C8.52171 10.3433 9.16759 10.4491 9.7923 10.5656C10.1629 11.2644 10.5017 11.995 10.7982 12.7362C10.4805 12.6303 10.1523 12.5244 9.82406 12.4503C9.6123 12.3868 9.38995 12.4503 9.23113 12.5986C9.0723 12.7468 9.01936 12.9798 9.0723 13.1916C9.13583 13.4033 9.30524 13.562 9.517 13.615C10.1205 13.7844 10.7135 13.9644 11.317 14.1762C11.5605 14.9174 11.7723 15.6692 11.9417 16.4421C11.6347 16.2939 11.317 16.1456 11.0099 16.0079C10.8194 15.9126 10.5864 15.9445 10.4064 16.0715C10.2264 16.1986 10.1417 16.4104 10.1735 16.6327C10.2052 16.8445 10.3429 17.035 10.5441 17.1198C11.1052 17.3527 11.6664 17.628 12.217 17.9033C12.3441 18.6762 12.4288 19.4492 12.45 20.2222C12.1641 20.0316 11.8782 19.8304 11.5923 19.6504C11.4123 19.5127 11.1688 19.5021 10.9782 19.608C10.7876 19.7138 10.6605 19.915 10.6499 20.1374C10.6394 20.3597 10.777 20.5715 10.9676 20.6774C11.4864 20.9844 11.9947 21.3232 12.4711 21.6938C12.4711 22.4773 12.4076 23.2504 12.3123 24.0339C12.0582 23.8115 11.8041 23.568 11.5499 23.3456C11.2958 23.1233 10.9252 23.155 10.7029 23.4197C10.4805 23.6738 10.5123 24.055 10.777 24.2668C11.2323 24.648 11.6664 25.0503 12.1005 25.4633C11.9629 26.2468 11.7829 27.0197 11.5605 27.782C11.3488 27.5173 11.137 27.2421 10.9252 26.9985C10.7135 26.755 10.3217 26.7339 10.0782 26.9457C9.83465 27.168 9.80289 27.5385 10.0147 27.7926C10.3958 28.2374 10.7558 28.6927 11.1052 29.1692C10.8405 29.9421 10.5123 30.6939 10.1629 31.4351C9.99348 31.1492 9.84524 30.8421 9.66524 30.5668C9.54877 30.3762 9.35818 30.281 9.13583 30.281C8.91347 30.281 8.72289 30.408 8.61701 30.588C8.51112 30.768 8.52171 31.001 8.6276 31.1916C8.92407 31.6892 9.20994 32.208 9.47465 32.7162C9.30524 33.0127 9.13583 33.3197 8.94524 33.6162C8.76524 33.8915 8.84995 34.2621 9.12524 34.4421C9.40054 34.6221 9.77113 34.5375 9.95113 34.2516C10.1629 33.9128 10.3535 33.5739 10.5441 33.2456C11.2111 33.0974 11.8888 32.9386 12.5452 32.748C12.8629 32.6527 13.0535 32.3244 12.9582 32.0067C12.8629 31.6891 12.5347 31.4986 12.217 31.5939C11.8994 31.6892 11.5817 31.7633 11.2641 31.8268C11.6241 31.0751 11.9311 30.3127 12.217 29.5291C12.8417 29.3068 13.4876 29.0527 14.1017 28.7774C14.3982 28.6398 14.5464 28.2904 14.4088 27.9833C14.2711 27.6868 13.9217 27.5385 13.6147 27.6762C13.3182 27.8138 12.9899 27.9197 12.6829 28.0468C12.9052 27.2632 13.0958 26.4585 13.2441 25.6538C13.837 25.3362 14.4088 25.008 14.9699 24.648C15.2452 24.468 15.3299 24.0974 15.1605 23.8221C14.9805 23.5468 14.61 23.4621 14.3347 23.6315C14.0594 23.8115 13.7523 23.9703 13.4664 24.1398C13.5617 23.3245 13.6147 22.5091 13.6252 21.6938C14.1441 21.3021 14.6523 20.8998 15.1499 20.4657H15.1923L15.2347 20.4339Z" fill="#EE4335"/>
<path d="M31.9213 9.06237C31.6037 9.10472 31.2754 9.16827 30.9472 9.22122C31.3178 8.6071 31.7096 8.0141 32.1331 7.44234C32.2601 7.26234 32.2919 7.04004 32.2072 6.83886C32.1225 6.63769 31.9425 6.51053 31.7307 6.47877C31.5084 6.45759 31.3072 6.54241 31.1801 6.72241C30.7037 7.34711 30.2696 8.03523 29.8566 8.71287C29.7296 8.4164 29.6025 8.11997 29.4754 7.8235C29.4013 7.63291 29.2213 7.48469 29.0096 7.44234C28.7978 7.41057 28.586 7.49523 28.4484 7.65405C28.3107 7.82346 28.2684 8.04588 28.3531 8.24705C28.586 8.83999 28.8296 9.42238 29.1048 10.0047C28.7025 10.7671 28.3425 11.5612 28.0143 12.3659C27.8343 12.1012 27.6543 11.8259 27.4848 11.5506C27.3684 11.36 27.1778 11.2541 26.9554 11.2647C26.7331 11.2647 26.5425 11.3918 26.4366 11.5718C26.3307 11.7624 26.3307 11.9847 26.4366 12.1752C26.7648 12.7258 27.1143 13.2553 27.4848 13.7847C27.2201 14.5788 26.9978 15.3941 26.8178 16.22C26.5954 15.9765 26.3625 15.7435 26.1613 15.4894C25.939 15.2458 25.5684 15.2035 25.3143 15.4153C25.0601 15.6271 25.0284 16.0082 25.2401 16.2623C25.6637 16.7599 26.0978 17.2365 26.5531 17.6918C26.426 18.5071 26.3413 19.3329 26.299 20.1588C26.0449 19.9576 25.7695 19.7459 25.526 19.5235C25.2825 19.3118 24.9013 19.3435 24.679 19.587C24.4566 19.8305 24.4884 20.2224 24.7425 20.4341C25.2401 20.8577 25.759 21.2706 26.2778 21.6624C26.2778 22.4777 26.3413 23.3035 26.4366 24.1082C26.1507 23.9388 25.8543 23.78 25.5684 23.6C25.3884 23.4835 25.1554 23.4729 24.9648 23.5788C24.7743 23.6847 24.6578 23.8647 24.6472 24.087C24.6472 24.3094 24.7531 24.5 24.9225 24.6164C25.4837 24.9658 26.066 25.3047 26.6484 25.6224C26.7966 26.4271 26.9766 27.2318 27.2096 28.0153C26.9025 27.8883 26.5848 27.7823 26.2778 27.6446C25.9813 27.507 25.6213 27.6447 25.4837 27.9517C25.346 28.2588 25.4837 28.6082 25.7907 28.7459C26.4048 29.0212 27.0507 29.2752 27.6754 29.4976C27.9507 30.2811 28.2684 31.0541 28.6284 31.8059C28.3107 31.7212 27.9931 31.6471 27.6754 31.5624C27.3578 31.4671 27.0295 31.6577 26.9343 31.9753C26.839 32.293 27.0295 32.6317 27.3472 32.7165C28.0037 32.907 28.6813 33.0658 29.3484 33.2141C29.5284 33.5423 29.719 33.8812 29.9413 34.2094C30.1107 34.4847 30.4919 34.5694 30.7672 34.3999C31.0425 34.2199 31.1272 33.8495 30.9472 33.5742C30.7672 33.2777 30.5872 32.9705 30.4178 32.6741C30.6825 32.1552 30.9684 31.6471 31.2649 31.1494C31.4449 30.8741 31.3496 30.5035 31.0743 30.3235C30.799 30.1435 30.4284 30.2389 30.2484 30.5247C30.0684 30.8 29.9201 31.107 29.7507 31.3929C29.4013 30.6623 29.0837 29.9 28.8084 29.127C29.1578 28.6506 29.5178 28.1953 29.899 27.7506C30.1107 27.5071 30.0896 27.1259 29.8354 26.9035C29.5919 26.6812 29.2107 26.713 28.9884 26.9565C28.7766 27.2106 28.5649 27.4859 28.3531 27.74C28.1307 26.9777 27.9507 26.2047 27.8025 25.4211C28.226 25.0082 28.6707 24.6058 29.126 24.2247C29.2954 24.087 29.3696 23.8753 29.3378 23.653C29.2954 23.4412 29.1578 23.2612 28.946 23.187C28.7343 23.1129 28.5119 23.1553 28.3425 23.3035C28.0884 23.5258 27.8343 23.7588 27.5801 23.9918C27.4848 23.2188 27.4319 22.4353 27.4213 21.6518C27.919 21.3024 28.4272 20.9635 28.9248 20.6352C29.1154 20.5294 29.2425 20.3282 29.2425 20.0952C29.2425 19.8623 29.1154 19.6611 28.9143 19.5658C28.7131 19.4705 28.4695 19.4811 28.2895 19.6082C28.0037 19.7882 27.7072 19.9788 27.4319 20.18C27.4743 19.4071 27.5484 18.6235 27.6648 17.8611C28.2154 17.5858 28.766 17.3105 29.3378 17.0776C29.6343 16.94 29.7719 16.5906 29.6448 16.2941C29.5072 15.9976 29.1684 15.8495 28.8613 15.9765C28.5543 16.1142 28.2366 16.2623 27.9295 16.4105C28.099 15.6482 28.3107 14.8964 28.5543 14.1446C29.1472 13.9329 29.7507 13.753 30.3543 13.5836C30.5766 13.5306 30.7354 13.3612 30.799 13.16C30.8625 12.9482 30.799 12.7258 30.6401 12.567C30.4813 12.4082 30.259 12.3552 30.0472 12.4188C29.7295 12.5035 29.4119 12.6094 29.0731 12.7047C29.3696 11.9635 29.6978 11.233 30.0684 10.5341C30.7037 10.4071 31.339 10.3118 31.9637 10.227C32.2813 10.1741 32.5143 9.88822 32.4719 9.55998C32.4296 9.24234 32.1437 8.99881 31.8154 9.03057L31.8578 9.05177L31.9213 9.06237Z" fill="#EE4335"/>
<path d="M34.3666 13.9332C34.2289 13.6261 33.8795 13.4884 33.5831 13.6155C33.2866 13.7426 33.1384 14.1027 33.2654 14.3992C34.769 17.978 34.769 22.0226 33.2654 25.6015C33.2019 25.7497 33.2019 25.9084 33.2654 26.0567C33.3289 26.2049 33.4454 26.3214 33.5831 26.385C33.6572 26.4167 33.7419 26.438 33.816 26.438C34.0489 26.438 34.2713 26.2896 34.3772 26.0779C36.0183 22.192 36.0183 17.8191 34.3772 13.9438L34.3666 13.9332Z" fill="#EFEFEF"/>
<path d="M6.4148 13.615C6.26657 13.5515 6.10774 13.5515 5.95951 13.615C5.81127 13.6786 5.6948 13.7951 5.63127 13.9327C3.9901 17.8186 3.9901 22.1915 5.63127 26.0668C5.72657 26.2786 5.93833 26.4269 6.19245 26.4269C6.27715 26.4269 6.35127 26.4057 6.42539 26.3739C6.57363 26.3104 6.67951 26.194 6.74304 26.0457C6.80657 25.8975 6.80657 25.7386 6.74304 25.5904C5.23951 22.0116 5.23951 17.9669 6.74304 14.3881C6.80657 14.2398 6.80657 14.081 6.74304 13.9327C6.67951 13.7845 6.57363 13.6681 6.42539 13.6046H6.4148V13.615Z" fill="#EFEFEF"/>
<path d="M19.9992 38C29.9415 38 37.9886 29.9424 37.9886 20.0106C37.9886 10.0788 29.9415 2 19.9992 2C10.0568 2 2.00977 10.0576 2.00977 19.9894C2.02035 29.9212 10.0674 37.9788 19.9992 37.9788V38ZM19.9992 3.20707C29.2851 3.20707 36.7921 10.7247 36.7921 20C36.7921 29.2753 29.2745 36.7929 19.9992 36.7929C10.7239 36.7929 3.20623 29.2753 3.20623 20C3.21682 10.7247 10.7345 3.21766 19.9992 3.20707Z" fill="black"/>
</g>
</svg>
