<svg width="40" height="40" viewBox="0 0 40 40" fill="none" xmlns="http://www.w3.org/2000/svg">
<path d="M34.3292 23.5891C35.9807 21.947 37.1412 20.0052 37.7884 17.9969L37.9112 17.5864C39.0271 13.6807 38.2348 9.56416 35.4116 6.75695C35.088 6.43517 34.7421 6.14668 34.385 5.88039C34.2734 5.79162 34.1506 5.72504 34.0391 5.63628C33.7824 5.45875 33.5258 5.29231 33.2691 5.14807C33.1352 5.0704 32.9901 4.99273 32.8562 4.92615C32.5884 4.79301 32.3206 4.67095 32.0416 4.56C31.9077 4.50452 31.7738 4.44904 31.6288 4.40466C31.2828 4.2826 30.9257 4.18274 30.5575 4.09398C30.4905 4.08288 30.4236 4.06069 30.3566 4.0385C29.9326 3.94973 29.4974 3.88316 29.0511 3.83878C28.9172 3.82768 28.7721 3.82768 28.6382 3.81658C28.3257 3.79439 28.0244 3.7833 27.712 3.79439C27.5446 3.79439 27.3772 3.80549 27.2099 3.81658C27.0759 3.81658 26.942 3.81658 26.8081 3.83878V3.86097C26.0605 3.92754 25.2905 4.04959 24.5317 4.27151L24.1189 4.39356C22.0991 5.03711 20.1575 6.19107 18.4948 7.83323C17.9145 8.41021 17.4012 9.02047 16.9437 9.66402C16.9437 9.66402 16.8768 9.76388 16.8433 9.81936C16.6647 10.0746 16.5085 10.3298 16.3523 10.585C16.3077 10.6515 16.263 10.7181 16.2295 10.7847C16.0398 11.1065 15.8725 11.4393 15.7162 11.7722C15.6716 11.861 15.6381 11.9497 15.5935 12.0385C15.4707 12.3048 15.3703 12.56 15.2699 12.8263C15.2364 12.9262 15.1918 13.026 15.1583 13.1259C15.0356 13.4698 14.924 13.8138 14.8347 14.1689C14.8012 14.2909 14.7343 14.6349 14.645 15.1231C14.2768 17.076 13.4845 21.5031 12.9265 24.6099C12.5471 26.7514 11.5094 28.7264 9.95828 30.2687L9.9248 30.302L11.7437 32.1106L11.7772 32.0773C13.3282 30.535 15.3145 29.5031 17.4682 29.1259C20.5927 28.5711 25.0785 27.7833 27.0313 27.4171C27.5111 27.3284 27.8459 27.2618 27.9687 27.2285C28.3146 27.1398 28.6717 27.0288 29.0176 26.9067C29.118 26.8735 29.2184 26.8402 29.3189 26.7958C29.5867 26.6959 29.8545 26.585 30.1111 26.474C30.2004 26.4296 30.2897 26.3963 30.379 26.352C30.7137 26.1966 31.0485 26.0191 31.3721 25.8305C31.4391 25.7861 31.506 25.7417 31.573 25.7084C31.8296 25.5531 32.0863 25.3866 32.3429 25.2091C32.3987 25.1758 32.4545 25.1425 32.4991 25.1092C33.1352 24.6432 33.7601 24.1328 34.3292 23.5558V23.5891ZM15.1806 26.9289L15.9506 22.8013C16.3523 23.4671 16.8433 24.0995 17.4235 24.6654C18.0038 25.2313 18.6622 25.7528 19.354 26.1633L15.1918 26.9289H15.1806ZM31.6622 22.5461C31.4279 22.7348 31.1824 22.9234 30.9369 23.0898C30.6691 23.2785 30.3901 23.456 30.1 23.6224C30.0888 23.6224 30.0665 23.6335 30.0554 23.6446C29.7987 23.7889 29.5309 23.9331 29.2631 24.0552C29.185 24.0884 29.1069 24.1217 29.0176 24.155C28.8167 24.2438 28.6159 24.3325 28.4038 24.4102C28.3034 24.4435 28.1918 24.4768 28.0914 24.5101C27.9017 24.5767 27.7232 24.6321 27.5335 24.6876C27.4219 24.7209 27.2991 24.7431 27.1875 24.7764C27.009 24.8208 26.8304 24.8651 26.6631 24.8984C26.5403 24.9206 26.4176 24.9428 26.2948 24.9539C26.1274 24.9761 25.9601 24.9983 25.7815 25.0205C25.6588 25.0316 25.536 25.0427 25.4021 25.0427C25.2347 25.0427 25.0674 25.0538 24.9111 25.0649C24.7884 25.0649 24.6545 25.0649 24.5317 25.0649C24.3755 25.0649 24.2081 25.0538 24.0519 25.0316C23.9291 25.0205 23.8064 25.0094 23.6837 24.9872C23.5274 24.965 23.3712 24.9428 23.215 24.9095C23.0922 24.8873 22.9695 24.8651 22.8579 24.8319C22.7017 24.7986 22.5566 24.7542 22.4004 24.7098C22.2888 24.6765 22.1661 24.6432 22.0545 24.5988C21.8982 24.5434 21.7532 24.4879 21.6081 24.4213C21.4965 24.3769 21.3849 24.3325 21.2845 24.2771C21.1283 24.2105 20.9832 24.1217 20.8382 24.0441C20.7377 23.9886 20.6373 23.9442 20.548 23.8776C20.3918 23.7778 20.2356 23.6668 20.0905 23.5558C20.0124 23.5004 19.9343 23.456 19.8673 23.3894C19.6442 23.2119 19.4321 23.0233 19.2313 22.8235C19.0304 22.6238 18.8407 22.413 18.6622 22.1911C18.6064 22.1134 18.5506 22.0357 18.4948 21.9692C18.3832 21.8138 18.2716 21.6696 18.1712 21.5142C18.1154 21.4255 18.0596 21.3256 18.0038 21.2257C17.9257 21.0815 17.8364 20.9373 17.7695 20.7819C17.7137 20.671 17.6802 20.5711 17.6356 20.4601C17.5686 20.3159 17.5128 20.1717 17.457 20.0163C17.4124 19.9054 17.3789 19.7833 17.3454 19.6723C17.3008 19.517 17.2562 19.3728 17.2227 19.2174C17.1892 19.0954 17.1669 18.9733 17.1446 18.8513C17.1111 18.6959 17.0888 18.5406 17.0665 18.3852C17.0553 18.2632 17.033 18.1411 17.0218 18.0191C17.0107 17.8637 16.9995 17.6973 16.9884 17.542C16.9884 17.4199 16.9884 17.2979 16.9884 17.1647C16.9884 16.9983 16.9884 16.8429 17.0107 16.6765C17.0107 16.5545 17.0218 16.4324 17.033 16.2993C17.0441 16.1328 17.0776 15.9664 17.0999 15.7889C17.1223 15.6668 17.1334 15.5447 17.1557 15.4227C17.1892 15.2452 17.2338 15.0676 17.2785 14.9012C17.312 14.7902 17.3343 14.6682 17.3678 14.5572C17.4235 14.3686 17.4793 14.1911 17.5463 14.0024C17.5798 13.9026 17.6132 13.7916 17.6467 13.6918C17.7248 13.492 17.8141 13.2812 17.9034 13.0815C17.9369 13.0038 17.9703 12.9262 18.0038 12.8485C18.1266 12.5822 18.2716 12.327 18.4167 12.0718C18.4167 12.0496 18.439 12.0385 18.4502 12.0163C18.6175 11.7389 18.7961 11.4615 18.9858 11.1841C18.9858 11.1841 18.9858 11.1841 18.9969 11.173C19.1643 10.9289 19.3429 10.6959 19.5326 10.4629H19.5437C19.7781 10.1633 20.0347 9.88593 20.3025 9.61964C21.5412 8.38801 22.9695 7.50036 24.4536 6.95667C24.4536 6.95667 24.4871 6.94557 24.5094 6.93448C24.8553 6.81242 25.2013 6.71256 25.5472 6.6238C25.6588 6.59051 25.7815 6.56832 25.8931 6.54613C26.1721 6.49065 26.4511 6.44627 26.7189 6.40188C26.8193 6.39079 26.9197 6.3686 27.0313 6.3575C27.3996 6.32421 27.7566 6.30202 28.1137 6.31312C28.1807 6.31312 28.2588 6.31312 28.3257 6.32421C28.6159 6.33531 28.9172 6.3686 29.1961 6.40188C29.3077 6.41298 29.4081 6.43517 29.5197 6.45736C29.8099 6.51284 30.0888 6.57941 30.3678 6.65708C30.4348 6.67928 30.5017 6.69037 30.5687 6.71256C30.9034 6.82352 31.227 6.95667 31.5395 7.10091C31.6176 7.14529 31.6957 7.18968 31.7738 7.22297C32.0193 7.34502 32.2536 7.48926 32.4768 7.6446C32.5661 7.70008 32.6442 7.75556 32.7335 7.82213C33.0236 8.03295 33.3026 8.26596 33.5592 8.52116C33.8159 8.77636 34.0502 9.05376 34.2622 9.34224C34.318 9.41991 34.385 9.50868 34.4408 9.59745C34.597 9.81936 34.7309 10.0524 34.8648 10.2965C34.9095 10.3741 34.9541 10.4518 34.9876 10.5295C35.1438 10.8402 35.2777 11.1619 35.3781 11.4948C35.4004 11.5614 35.4116 11.628 35.4339 11.6945C35.512 11.9719 35.579 12.2493 35.6348 12.5378C35.6571 12.6488 35.6683 12.7486 35.6906 12.8596C35.7352 13.1481 35.7575 13.4366 35.7687 13.7251C35.7687 13.7916 35.7798 13.8693 35.7798 13.9359C35.7798 14.2909 35.7798 14.6571 35.7352 15.0122C35.7352 15.112 35.7129 15.2119 35.6906 15.3228C35.6571 15.6002 35.6125 15.8776 35.5455 16.1439C35.5232 16.2549 35.5009 16.3769 35.4674 16.4879C35.3781 16.8318 35.2777 17.1758 35.1549 17.5198C35.1549 17.542 35.1549 17.5531 35.1438 17.5753C34.597 19.051 33.7043 20.4823 32.4657 21.7029C32.1979 21.9692 31.9189 22.2133 31.6288 22.4574L31.6622 22.5461Z" fill="#FFD55D"/>
<path d="M19.5197 10.0636C22.1512 10.0636 24.2845 7.94241 24.2845 5.32576C24.2845 2.70911 22.1512 0.587891 19.5197 0.587891C16.8882 0.587891 14.7549 2.70911 14.7549 5.32576C14.7549 7.94241 16.8882 10.0636 19.5197 10.0636Z" fill="#CCCCCC"/>
<path d="M18.8688 8.4878C21.0011 8.4878 22.7297 6.76897 22.7297 4.64869C22.7297 2.5284 21.0011 0.80957 18.8688 0.80957C16.7364 0.80957 15.0078 2.5284 15.0078 4.64869C15.0078 6.76897 16.7364 8.4878 18.8688 8.4878Z" fill="#F2F2F2"/>
<path d="M11.7468 32.6869C11.6018 32.6869 11.4455 32.6314 11.3451 32.5205C11.1108 32.2986 11.0996 31.9435 11.3228 31.7105L11.3563 31.6772C12.9966 30.0461 15.0722 28.9699 17.3597 28.5593C25.5392 27.1169 27.5589 26.7396 27.8044 26.673C30.0697 26.0961 32.1787 24.8866 33.9083 23.1668C35.4371 21.6467 36.5864 19.7937 37.2225 17.8187C37.3229 17.508 37.6577 17.3416 37.959 17.4414C38.2714 17.5413 38.4388 17.8741 38.3384 18.1737C37.6465 20.3263 36.3967 22.3457 34.734 23.999C32.8594 25.8631 30.5606 27.1834 28.0945 27.8159C27.6928 27.9158 24.2447 28.5371 17.5606 29.7244C15.5185 30.0905 13.655 31.0447 12.182 32.5094C12.0593 32.6314 11.9031 32.6869 11.7357 32.6869H11.7468ZM10.4078 30.6564L9.91678 30.3124L9.50391 29.8908L9.58202 29.8131C11.0661 28.3485 12.037 26.4844 12.394 24.4317C13.0189 20.8145 14.1013 14.6564 14.2576 14.035C14.6928 12.3596 15.4293 10.784 16.467 9.33045C16.6567 9.06416 17.025 9.00868 17.2928 9.19731C17.5606 9.38593 17.6164 9.75209 17.4267 10.0184C16.4782 11.3499 15.7863 12.8034 15.3958 14.3346C15.2842 14.7563 14.5923 18.6065 13.5434 24.6425C13.1417 26.9393 12.0593 29.0142 10.4078 30.6564ZM15.1838 27.5163C15.0275 27.5163 14.8825 27.4608 14.7709 27.3499C14.637 27.2167 14.57 27.017 14.6035 26.8284L15.3735 22.7008C15.4181 22.4567 15.6078 22.2791 15.8421 22.2348C16.0765 22.1904 16.322 22.3013 16.4559 22.5122C16.8464 23.1446 17.3039 23.7438 17.8396 24.2653C18.3752 24.7868 19.0001 25.275 19.6585 25.6744C19.8705 25.7965 19.9821 26.0406 19.9374 26.2847C19.8928 26.5288 19.7031 26.7174 19.4688 26.7618L15.3065 27.5274C15.3065 27.5274 15.2396 27.5274 15.1949 27.5274L15.1838 27.5163ZM16.2773 24.2764L15.9202 26.1959L17.8619 25.8409C17.5606 25.6079 17.2816 25.3527 17.0026 25.0753C16.746 24.8201 16.5005 24.5538 16.2773 24.2764ZM24.8696 25.6633C22.5151 25.6633 20.3949 24.8312 18.8215 23.2667C15.4962 19.9601 15.619 14.3124 19.1005 10.1182C19.3125 9.86305 19.6808 9.82976 19.9263 10.0406C20.1829 10.2514 20.2164 10.6176 20.0044 10.8617C16.9134 14.5898 16.7572 19.5607 19.6473 22.4345C21.1426 23.9324 23.2628 24.6425 25.595 24.4539C27.9606 24.2653 30.2705 23.1557 32.0894 21.3582C35.8165 17.6522 36.3074 12.0933 33.1718 8.98649C31.0963 6.92269 27.8379 6.3679 24.6688 7.53295C24.3675 7.64391 24.0216 7.48856 23.91 7.18898C23.7984 6.8894 23.9546 6.54543 24.2559 6.43447C27.8602 5.11409 31.5984 5.76873 33.9976 8.15431C37.5907 11.7271 37.0997 18.0184 32.9152 22.1904C30.9066 24.1987 28.3289 25.4192 25.6842 25.63C25.4053 25.6522 25.1263 25.6633 24.8473 25.6633H24.8696ZM38.3607 15.9102C38.3607 15.9102 38.3272 15.9102 38.3049 15.9102C37.9813 15.8769 37.7469 15.5884 37.7693 15.2667C38.0705 12.1155 37.0886 9.25278 35.013 7.17789C32.4353 4.61478 28.5855 3.73822 24.7022 4.84779C24.3898 4.93655 24.0662 4.75902 23.9769 4.44834C23.8877 4.13766 24.0662 3.81589 24.3786 3.72712C28.6748 2.50659 32.9598 3.49411 35.8388 6.3568C38.1375 8.64252 39.2645 11.9379 38.9409 15.3887C38.9075 15.6883 38.6508 15.9213 38.3607 15.9213V15.9102Z" fill="black"/>
<path d="M23.4851 25.5631C23.34 25.5631 23.1838 25.5077 23.0722 25.3967C22.8379 25.1637 22.8379 24.7975 23.0722 24.5645L35.3135 12.3925C35.5478 12.1595 35.9161 12.1595 36.1504 12.3925C36.3847 12.6255 36.3847 12.9917 36.1504 13.2247L23.9091 25.3967C23.7976 25.5077 23.6413 25.5631 23.4963 25.5631H23.4851Z" fill="black"/>
<path d="M17.114 19.2165C16.969 19.2165 16.8127 19.161 16.7011 19.05C16.4668 18.817 16.4668 18.4509 16.7011 18.2178L28.9424 6.04585C29.1767 5.81284 29.545 5.81284 29.7793 6.04585C30.0136 6.27886 30.0136 6.64502 29.7793 6.87803L17.5381 19.05C17.4265 19.161 17.2702 19.2165 17.1252 19.2165H17.114Z" fill="black"/>
<path d="M19.2341 23.4448C19.0891 23.4448 18.9328 23.3893 18.8213 23.2783C18.5869 23.0453 18.5869 22.6792 18.8213 22.4461L33.1827 8.16597C33.417 7.93296 33.7853 7.93296 34.0196 8.16597C34.2539 8.39898 34.2539 8.76514 34.0196 8.99815L19.6582 23.2783C19.5466 23.3893 19.3904 23.4448 19.2453 23.4448H19.2341Z" fill="black"/>
<path d="M28.6889 24.8984C28.5439 24.8984 28.3876 24.8429 28.276 24.7319L17.3515 13.8692C17.1172 13.6362 17.1172 13.2701 17.3515 13.0371C17.5859 12.8041 17.9541 12.8041 18.1884 13.0371L29.113 23.8998C29.3473 24.1328 29.3473 24.4989 29.113 24.7319C29.0014 24.8429 28.8451 24.8984 28.7001 24.8984H28.6889Z" fill="black"/>
<path d="M35.0648 18.5606C34.9197 18.5606 34.7635 18.5051 34.6519 18.3942L23.9394 7.74229C23.7051 7.50928 23.7051 7.14312 23.9394 6.91011C24.1738 6.6771 24.542 6.6771 24.7763 6.91011L35.4888 17.562C35.7232 17.795 35.7232 18.1612 35.4888 18.3942C35.3772 18.5051 35.221 18.5606 35.0759 18.5606H35.0648Z" fill="black"/>
<path d="M32.5206 22.3673C32.3755 22.3673 32.2193 22.3118 32.1077 22.2009L20.5918 10.7501C20.3574 10.5171 20.3574 10.1509 20.5918 9.91792C20.8261 9.68491 21.1943 9.68491 21.4287 9.91792L32.9446 21.3687C33.1789 21.6017 33.1789 21.9679 32.9446 22.2009C32.833 22.3118 32.6768 22.3673 32.5317 22.3673H32.5206Z" fill="black"/>
<path d="M7.47463 31.0438L8.3227 30.2005C8.73558 29.7899 9.39395 29.7899 9.80682 30.2005L11.8489 32.231C12.2618 32.6415 12.2618 33.2962 11.8489 33.7067L6.42569 39.0992C6.01282 39.5098 5.35445 39.5098 4.94157 39.0992L2.8995 37.0687C2.48662 36.6582 2.48662 36.0035 2.8995 35.593L7.47463 31.0438Z" fill="#464356"/>
<path d="M5.67963 39.9983C5.24443 39.9983 4.83156 39.8319 4.51911 39.5212L2.47704 37.4907C1.84099 36.8582 1.84099 35.8152 2.47704 35.1827L7.90024 29.7902C8.51397 29.1689 9.59638 29.1689 10.2213 29.7902L12.2633 31.8208C12.8994 32.4532 12.8994 33.4962 12.2633 34.1287L6.84015 39.5212C6.5277 39.8319 6.11482 39.9983 5.67963 39.9983ZM9.06076 30.4893C8.93801 30.4893 8.82642 30.5337 8.73715 30.6224L7.88908 31.4657L3.31395 36.0149C3.13541 36.1925 3.13541 36.4809 3.31395 36.6696L5.35602 38.7001C5.53456 38.8776 5.83585 38.8776 6.00323 38.7001L11.4264 33.3076C11.605 33.13 11.605 32.8416 11.4264 32.6529L9.38436 30.6224C9.29509 30.5337 9.1835 30.4893 9.06076 30.4893Z" fill="black"/>
<path d="M19.7083 11.0846C16.6285 11.0846 14.1289 8.59917 14.1289 5.53676C14.1289 4.59362 14.3744 3.66158 14.8319 2.82941C14.9881 2.55201 15.3452 2.44106 15.6353 2.60749C15.9143 2.76283 16.0259 3.11789 15.8585 3.40638C15.4903 4.04993 15.3006 4.79335 15.3006 5.53676C15.3006 7.94453 17.2757 9.90847 19.6972 9.90847C22.1186 9.90847 24.0938 7.94453 24.0938 5.53676C24.0938 3.12899 22.1186 1.16505 19.6972 1.16505C18.9495 1.16505 18.2019 1.35368 17.5547 1.71984C17.2757 1.87518 16.9075 1.77531 16.7512 1.49792C16.595 1.22053 16.6954 0.85437 16.9744 0.69903C17.8002 0.244106 18.7375 0 19.6972 0C22.777 0 25.2766 2.48544 25.2766 5.54785C25.2766 8.61027 22.777 11.0957 19.6972 11.0957L19.7083 11.0846Z" fill="black"/>
</svg>
