<svg width="40" height="40" viewBox="0 0 40 40" fill="none" xmlns="http://www.w3.org/2000/svg">
<g clip-path="url(#clip0_225_10317)">
<path d="M21.6703 34.6859L21.312 33.7796L19.6048 29.5114C19.394 28.974 19.394 28.3838 19.6258 27.8569L21.2699 24.0103H24.6001L22.5977 29.3428L24.0626 32.8522L24.5474 34.0115L21.6703 34.6754V34.6859Z" fill="#F7C3A0"/>
<path d="M25.9385 37.3528L21.2698 39.3551L21.1328 38.9336C20.7956 37.9324 20.9431 36.8364 21.5333 35.9617L21.9443 35.3504L21.312 33.7801L24.0731 32.8633L25.9385 37.3528Z" fill="#4287BF"/>
<path d="M17.2754 15.3481H22.608V18.0144H17.2754V15.3481Z" fill="#F7C3A0"/>
<path d="M33.1256 15.5584L35.265 15.7481C35.8657 15.9905 36.1608 16.6755 35.9184 17.2762C35.8868 17.35 35.8552 17.4237 35.8025 17.487C35.5179 17.9296 35.0015 17.9718 34.3903 17.9296L31.9453 17.6134L33.1256 15.5479V15.5584Z" fill="#F7C3A0"/>
<path d="M20.226 10.0147H23.6616C24.9578 10.0147 26.0012 8.96086 26.0012 7.67514C26.0012 7.04282 25.7482 6.43157 25.2951 5.99949L25.2424 5.9468C24.5574 5.27232 24.041 4.42922 23.767 3.50182C23.2506 1.82617 21.7014 0.687988 19.952 0.687988C17.7388 0.687988 15.9473 2.47957 15.9473 4.69269V5.74656C15.9473 8.10723 17.8653 10.0253 20.226 10.0253V10.0147Z" fill="#4793C9"/>
<path d="M23.2712 8.67618L22.6705 10.6785H17.3379V8.1914L17.9386 8.10709L18.4655 8.03332L18.6025 8.01224V6.67383H21.2688V8.01224L21.3847 8.0544L21.9328 8.23355L23.2606 8.67618H23.2712Z" fill="#F7C3A0"/>
<path d="M33.1251 15.5585L31.9553 17.603V17.6241L28.0771 16.7178C27.9823 16.6967 27.9085 16.6545 27.8347 16.5808L23.2715 12.0175L23.9354 15.3477C22.5127 15.5901 21.0689 15.706 19.6251 15.706C18.3815 15.706 17.1485 15.6217 15.9155 15.4426L15.2621 15.3477L15.926 10.6791L13.6918 11.1217C13.0279 11.2587 12.3534 10.9742 11.974 10.4156L9.41309 6.569L11.4892 5.00928L13.9342 8.67674L17.9389 8.10765V8.67674C17.9389 9.7833 18.8347 10.6791 19.9412 10.6791C21.0478 10.6791 21.9436 9.7833 21.9436 8.67674V8.23412L24.8417 9.20368C25.1263 9.29852 25.3792 9.46714 25.5794 9.69899L29.2785 14.0199L33.1251 15.5585Z" fill="#D0466F"/>
<path d="M5.99902 28.6787H7.33744V30.0171H5.99902V28.6787Z" fill="#EF5648"/>
<path d="M4.6709 30.0166H6.00931V31.355H4.6709V30.0166Z" fill="#EF5648"/>
<path d="M7.33691 30.0166H8.67533V31.355H7.33691V30.0166Z" fill="#EF5648"/>
<path d="M5.99902 31.3447H7.33744V32.6831H5.99902V31.3447Z" fill="#EF5648"/>
<path d="M34.665 1.35205H36.0035V2.69046H34.665V1.35205Z" fill="#EDA93E"/>
<path d="M32.6719 3.34375H34.0103V4.68216H32.6719V3.34375Z" fill="#EDA93E"/>
<path d="M36.667 3.34375H38.0054V4.68216H36.667V3.34375Z" fill="#EDA93E"/>
<path d="M34.665 5.34668H36.0035V6.68509H34.665V5.34668Z" fill="#EDA93E"/>
<path d="M19.9418 8.01251C21.0484 8.01251 21.9442 7.11673 21.9442 6.01016V4.00781H17.9395V6.01016C17.9395 7.11673 18.8352 8.01251 19.9418 8.01251Z" fill="#F7C3A0"/>
<path d="M21.3958 8.0544C20.637 8.85534 19.3724 8.89749 18.5714 8.13871C18.5398 8.10709 18.5082 8.07547 18.4766 8.03332L18.6136 8.01224V6.67383H21.2799V8.01224L21.3958 8.0544Z" fill="#F0B58C"/>
<path d="M9.42439 6.56827L8.29676 4.87154C7.89629 4.28137 8.05437 3.46989 8.64453 3.07996C9.2347 2.67949 10.0462 2.83757 10.4361 3.42774L11.49 4.998L9.41386 6.55773L9.42439 6.56827Z" fill="#F7C3A0"/>
<path d="M15.0719 32.6837L14.7768 31.7352L12.9852 25.9284C12.7533 25.1591 12.9536 24.3265 13.5227 23.7574L15.2615 22.0186L18.5918 23.357L15.9255 26.0233L17.3166 30.8921L17.6433 32.0198L15.0613 32.6837H15.0719Z" fill="#F7C3A0"/>
<path d="M18.6028 35.3504L13.9341 37.3528C13.5231 36.1303 13.8498 34.7708 14.7561 33.8645L15.262 33.3586L14.7667 31.7462L17.317 30.8926L18.5922 35.361L18.6028 35.3504Z" fill="#4287BF"/>
<path d="M4.00698 12.0176L3.61705 12.7974C3.01635 14.0094 1.95194 14.9263 0.676758 15.3478C1.96248 15.7799 3.01635 16.6968 3.61705 17.8982L4.00698 18.678L4.39692 17.8982C4.99762 16.6862 6.06203 15.7694 7.33721 15.3478C6.05149 14.9157 4.99762 13.9989 4.39692 12.7974L4.00698 12.0176Z" fill="#F5AF40"/>
<path d="M36.0021 24.6851L35.6122 25.4649C35.0115 26.6769 33.9471 27.5937 32.6719 28.0153C33.9576 28.4474 35.0115 29.3642 35.6122 30.5656L36.0021 31.3455L36.392 30.5656C36.9927 29.3537 38.0571 28.4368 39.3323 28.0153C38.0466 27.5832 36.9927 26.6663 36.392 25.4649L36.0021 24.6851Z" fill="#F78C26"/>
<path d="M10.0035 25.3488C9.75061 25.3488 9.51876 25.2013 9.40283 24.98C8.89697 23.9472 8.89697 22.7458 9.40283 21.713C9.57145 21.3863 9.97192 21.2598 10.2986 21.4179C10.6253 21.5865 10.7518 21.9764 10.5937 22.3031C10.267 22.9565 10.267 23.7259 10.5937 24.3687C10.7623 24.6954 10.6253 25.0959 10.2986 25.2645C10.2038 25.3067 10.1089 25.3383 10.0035 25.3383V25.3488Z" fill="#BAEFF3"/>
<path d="M7.65295 25.3491C7.40002 25.3491 7.16817 25.2015 7.05224 24.9802C6.54639 23.9474 6.54639 22.746 7.05224 21.7132C7.22086 21.3865 7.62133 21.2495 7.94803 21.4181C8.27473 21.5867 8.41174 21.9872 8.24312 22.3139C7.91642 22.9673 7.91642 23.7366 8.24312 24.3795C8.41174 24.7062 8.27473 25.1067 7.94803 25.2753C7.85318 25.3174 7.75834 25.3491 7.65295 25.3491Z" fill="#BAEFF3"/>
<path d="M31.6717 12.2708C31.3029 12.2708 31.0078 11.9757 31.0078 11.6068C31.0078 11.4382 31.071 11.2696 31.187 11.1537C31.6823 10.6267 31.9036 9.88904 31.7877 9.17241C31.7244 8.81409 31.9668 8.46632 32.3357 8.40309C32.694 8.33985 33.0418 8.58224 33.105 8.9511C33.2947 10.0787 32.9469 11.238 32.1671 12.0706C32.0406 12.2076 31.8614 12.2813 31.6823 12.2813L31.6717 12.2708Z" fill="#BAEFF3"/>
<path d="M33.9266 12.9448C33.5578 12.9448 33.2627 12.6497 33.2627 12.2808C33.2627 12.1122 33.3259 11.9436 33.4419 11.8277C33.9372 11.3007 34.1585 10.563 34.0426 9.84638C33.9793 9.48807 34.2112 9.14029 34.58 9.06652C34.9383 9.00329 35.2861 9.23514 35.3599 9.60399C35.3599 9.60399 35.3599 9.60399 35.3599 9.61453C35.5496 10.7422 35.2018 11.9014 34.422 12.734C34.2955 12.871 34.1163 12.9448 33.9372 12.9448H33.9266Z" fill="#BAEFF3"/>
<path d="M19.9418 8.01251C21.0484 8.01251 21.9442 7.11673 21.9442 6.01016V4.00781H17.9395V6.01016C17.9395 7.11673 18.8352 8.01251 19.9418 8.01251Z" fill="#F7C3A0"/>
<path d="M26.6117 24.6852C22.2592 25.1172 17.8646 24.3163 13.9547 22.3561L13.2803 22.0189L17.285 18.0142H22.6176L26.6223 24.6852H26.6117Z" fill="#B34137"/>
<path d="M5.99902 28.6787H7.33744V30.0171H5.99902V28.6787Z" fill="black"/>
<path d="M4.6709 30.0176H6.00931V31.356H4.6709V30.0176Z" fill="black"/>
<path d="M7.33691 30.0176H8.67533V31.356H7.33691V30.0176Z" fill="black"/>
<path d="M5.99902 31.3447H7.33744V32.6831H5.99902V31.3447Z" fill="black"/>
<path d="M34.665 1.35205H36.0035V2.69046H34.665V1.35205Z" fill="black"/>
<path d="M32.6719 3.34375H34.0103V4.68216H32.6719V3.34375Z" fill="black"/>
<path d="M36.667 3.34375H38.0054V4.68216H36.667V3.34375Z" fill="black"/>
<path d="M34.665 5.34668H36.0035V6.68509H34.665V5.34668Z" fill="black"/>
<path d="M11.4368 10.7948C11.9637 11.5852 12.9122 11.9752 13.8396 11.7855L15.1569 11.522L14.6195 15.2527C14.5668 15.6216 14.8197 15.9588 15.1885 16.0115L15.8419 16.1063C16.0949 16.138 16.3583 16.1801 16.6218 16.2012V17.7398L12.8173 21.5443C12.5539 21.8078 12.5539 22.2293 12.8173 22.4822C12.87 22.5349 12.9227 22.5771 12.986 22.6087L13.4918 22.8616L13.0703 23.2832C12.322 24.0209 12.0585 25.1169 12.3642 26.1181L14.5246 33.1579L14.3033 33.3793C13.2073 34.4753 12.8279 36.0877 13.3127 37.5526C13.4286 37.9004 13.808 38.09 14.1557 37.9741C14.1768 37.9741 14.1874 37.9636 14.2084 37.953L18.8771 35.9507C19.1827 35.8137 19.3513 35.4765 19.2565 35.1498L17.9813 30.6813C17.9813 30.6813 17.9813 30.6603 17.9813 30.6497L16.7061 26.1919L18.2448 24.6532C18.856 24.8113 19.4778 24.9588 20.1101 25.0642L19.0352 27.5724C18.7401 28.2574 18.7295 29.0479 19.0035 29.7434L21.2061 35.2551L20.9954 35.5713C20.2893 36.6146 20.1206 37.932 20.5211 39.1228L20.6581 39.5444C20.774 39.8922 21.1534 40.0819 21.5012 39.9659C21.5223 39.9659 21.5328 39.9554 21.5539 39.9449L26.2226 37.9425C26.5598 37.795 26.7179 37.4156 26.5703 37.0783L23.3349 29.3219L24.7893 25.4436C25.4216 25.4331 26.0539 25.3909 26.6863 25.3277C27.0551 25.2961 27.3186 24.9694 27.287 24.6005C27.287 24.5057 27.2448 24.4108 27.1921 24.3265L23.2823 17.8136V16.1063C23.5457 16.0747 23.8092 16.0326 24.0621 15.9904C24.4204 15.9272 24.6734 15.5899 24.6101 15.2211C24.6101 15.2211 24.6101 15.2106 24.6101 15.2L24.3783 14.0302L27.3818 17.0443C27.5399 17.2024 27.7296 17.3077 27.9404 17.3604L31.7975 18.2668C31.7975 18.2668 31.8291 18.2668 31.8397 18.2668C31.8397 18.2668 31.8608 18.2668 31.8713 18.2668L34.3163 18.5829C34.3163 18.5829 34.3795 18.5829 34.4217 18.5935C34.5797 18.6145 34.7484 18.6356 34.9064 18.6356C35.3385 18.6356 35.876 18.5092 36.3502 17.8874C36.3502 17.8768 36.3713 17.8663 36.3713 17.8558C36.9404 17.0127 36.7085 15.864 35.8549 15.3054C35.7495 15.2316 35.6336 15.1789 35.5177 15.1262C35.4544 15.1052 35.3807 15.0841 35.3174 15.0841L33.4416 14.9576L29.6898 13.4506L26.1699 9.3405C26.7389 8.4974 26.8443 7.42246 26.4439 6.49505C26.2858 6.1262 26.0539 5.78896 25.7694 5.50442L25.7167 5.45172C25.1054 4.85102 24.6628 4.10277 24.4099 3.28075C23.6406 0.814698 21.027 -0.555332 18.5715 0.213993C16.6218 0.825237 15.2939 2.62735 15.2939 4.67186V5.72573C15.2939 6.42128 15.4415 7.1063 15.726 7.74916L14.2822 7.95993L11.0258 3.06998C10.4356 2.16365 9.2131 1.91072 8.30678 2.51143C7.40045 3.11213 7.14752 4.32408 7.74823 5.23041C7.74823 5.23041 7.74823 5.24095 7.75876 5.25149L11.4578 10.7948H11.4368ZM16.8853 31.7458L17.8127 34.9706L14.4403 36.4144C14.4403 36.4144 14.4403 36.3195 14.4403 36.2774C14.4403 35.5502 14.7248 34.8547 15.2412 34.3383L15.7471 33.8324C15.9262 33.6533 15.9895 33.4003 15.9157 33.1685L15.6101 32.1778L16.8853 31.7563V31.7458ZM15.4731 25.549C15.3045 25.7176 15.2412 25.9706 15.3045 26.2024L16.5164 30.46L15.2202 30.8921L13.6394 25.7387C13.4707 25.2118 13.6183 24.6321 14.0082 24.2422L14.767 23.4834C15.4309 23.768 16.0949 24.0314 16.7799 24.2527L15.4731 25.5595V25.549ZM23.6933 33.6954L25.0738 37.0046L21.6909 38.4484C21.5223 37.7212 21.6698 36.9519 22.0914 36.3301L22.5024 35.7188C22.6289 35.5397 22.6499 35.3078 22.5656 35.0971L22.1968 34.1802L23.6933 33.6849V33.6954ZM21.986 29.1216C21.9228 29.2797 21.9333 29.4589 21.986 29.6169L23.1769 32.4624L21.6909 32.9577L20.2155 29.2797C20.068 28.9108 20.0785 28.4998 20.226 28.131L21.438 25.3066C22.0703 25.3804 22.7026 25.4331 23.3455 25.4542L21.9649 29.1216H21.986ZM25.4848 24.1052C21.6593 24.3054 17.8443 23.5256 14.4087 21.8394L17.5597 18.6883H22.2389L25.4848 24.1052ZM17.9497 17.3499V16.3171C18.5082 16.3487 19.0773 16.3698 19.6359 16.3698C20.4052 16.3698 21.1745 16.3382 21.9438 16.275V17.3499H17.9391H17.9497ZM33.6207 16.3066L35.0961 16.4014C35.3385 16.549 35.4123 16.8651 35.2647 17.1075C35.0751 17.3499 34.9802 17.3394 34.5903 17.2867C34.5481 17.2867 34.5165 17.2867 34.4743 17.2761L33.0938 17.097L33.6207 16.3171V16.3066ZM16.6113 4.6824C16.6113 2.83813 18.1078 1.35217 19.9415 1.35217C21.3958 1.35217 22.6921 2.30065 23.1242 3.69176C23.4403 4.72455 24.0094 5.6625 24.7682 6.42128L24.8209 6.47398C25.1476 6.79014 25.3268 7.22222 25.3268 7.67539C25.3268 7.99155 25.2319 8.30771 25.0633 8.58171C25.0633 8.58171 25.0528 8.58171 25.0422 8.58171L22.0914 7.60162C22.4286 7.14845 22.6078 6.60044 22.6078 6.03135V4.029C22.6078 3.66014 22.3127 3.36506 21.9438 3.36506H17.9391C17.5703 3.36506 17.2752 3.66014 17.2752 4.029V6.03135C17.2752 6.54775 17.4227 7.0536 17.7073 7.48569L17.096 7.57C16.7693 7.02199 16.6007 6.38967 16.6007 5.74681V4.69294L16.6113 4.6824ZM19.9415 7.34869C19.2038 7.34869 18.6136 6.74798 18.6031 6.01027V4.67186H21.2694V6.01027C21.2694 6.74798 20.6687 7.33815 19.931 7.34869H19.9415ZM21.2694 8.71872C21.2272 9.45643 20.5949 10.015 19.8572 9.96228C19.3513 9.93067 18.8982 9.61451 18.7085 9.14026C18.6452 8.99272 18.6136 8.84518 18.6136 8.6871H18.7085C18.8349 8.65548 18.9509 8.60279 19.0457 8.51848C19.6253 8.72926 20.2682 8.72926 20.8584 8.51848C20.9216 8.57118 20.9954 8.61333 21.0797 8.64495L21.2904 8.71872H21.2694ZM11.3314 5.97866L13.3864 9.05596C13.534 9.26673 13.7764 9.38265 14.0398 9.35104L17.2857 8.88734C17.4122 10.2574 18.5609 11.3112 19.9415 11.3112C21.2167 11.3112 22.3127 10.4049 22.5551 9.1508L24.6207 9.83582C24.7893 9.88851 24.9474 9.9939 25.0633 10.1309L28.7624 14.4518C28.8361 14.5361 28.9205 14.5993 29.0258 14.6415L32.2612 15.9377L31.6394 16.8651L28.2776 16.0747L23.746 11.5431C23.4825 11.2796 23.0609 11.2796 22.808 11.5431C22.6499 11.7012 22.5867 11.9225 22.6289 12.1438L23.1558 14.789C22.9556 14.8206 22.7448 14.8417 22.534 14.8628C21.575 14.9682 20.6054 15.0314 19.6359 15.0314C18.8665 15.0314 18.0972 14.9998 17.3384 14.926C16.9063 14.8839 16.4637 14.8312 16.0316 14.7785L16.6007 10.7738C16.6534 10.4049 16.4005 10.0677 16.0316 10.015C15.9579 10.0044 15.8841 10.015 15.8103 10.015L13.5761 10.4576C13.1757 10.5419 12.7752 10.3733 12.5433 10.0361L10.3302 6.71637L11.3314 5.95758V5.97866ZM8.78102 3.93415C8.85479 3.74445 9.01287 3.59691 9.2131 3.55476C9.2658 3.54422 9.31849 3.53368 9.37118 3.53368C9.58196 3.53368 9.78219 3.63907 9.89812 3.81823L10.5937 4.87209L9.5925 5.63088L8.85479 4.52432C8.73886 4.3557 8.71779 4.13439 8.79156 3.94469L8.78102 3.93415Z" fill="black"/>
<path d="M0.455609 15.9796C1.57271 16.3485 2.48958 17.1494 3.01651 18.1928L3.40644 18.9726C3.57506 19.2993 3.97553 19.4363 4.30223 19.2677C4.4287 19.2045 4.53408 19.0991 4.59731 18.9726L4.98725 18.1928C5.51418 17.1389 6.43105 16.3379 7.54815 15.9796C7.89592 15.8637 8.08562 15.4843 7.96969 15.1365C7.90646 14.9363 7.74838 14.7782 7.54815 14.715C6.43105 14.3461 5.51418 13.5452 4.98725 12.5019L4.59731 11.722C4.4287 11.3953 4.02823 11.2583 3.70153 11.4269C3.57506 11.4901 3.46967 11.5955 3.40644 11.722L3.01651 12.5019C2.48958 13.5557 1.57271 14.3461 0.455609 14.715C0.107832 14.8309 -0.081864 15.2103 0.0340616 15.5581C0.0972938 15.7583 0.255374 15.9164 0.455609 15.9796ZM3.99661 13.4714C4.44977 14.2302 5.06102 14.8731 5.79872 15.3473C5.06102 15.8215 4.43923 16.4644 3.99661 17.2232C3.54345 16.4644 2.9322 15.8215 2.19449 15.3473C2.9322 14.8731 3.55398 14.2302 3.99661 13.4714Z" fill="black"/>
<path d="M39.5433 27.3825C38.4262 27.0136 37.5093 26.2127 36.9824 25.1693L36.5924 24.3895C36.4238 24.0628 36.0233 23.9258 35.6966 24.0944C35.5702 24.1576 35.4648 24.263 35.4016 24.3895L35.0116 25.1693C34.4847 26.2232 33.5678 27.0241 32.4507 27.3825C32.103 27.4984 31.9133 27.8778 32.0292 28.2256C32.0924 28.4258 32.2505 28.5839 32.4507 28.6471C33.5678 29.016 34.4847 29.8169 35.0116 30.8602L35.4016 31.6401C35.5702 31.9668 35.9706 32.1038 36.2973 31.9352C36.4238 31.8719 36.5292 31.7666 36.5924 31.6401L36.9824 30.8602C37.5093 29.8064 38.4262 29.0054 39.5433 28.6471C39.891 28.5312 40.0807 28.1518 39.9648 27.804C39.9016 27.6038 39.7435 27.4457 39.5433 27.3825ZM36.0023 29.8907C35.5491 29.1319 34.9379 28.489 34.2002 28.0148C34.9379 27.5405 35.5596 26.8977 36.0023 26.1389C36.4554 26.8977 37.0667 27.5405 37.8044 28.0148C37.0667 28.489 36.4449 29.1319 36.0023 29.8907Z" fill="black"/>
<path d="M10.2986 21.4181C9.97192 21.2495 9.57145 21.3865 9.40283 21.7132C8.89697 22.746 8.89697 23.9474 9.40283 24.9802C9.56091 25.3069 9.96138 25.4439 10.2986 25.2858C10.6359 25.1277 10.7623 24.7273 10.6042 24.39C10.2775 23.7366 10.2775 22.9673 10.6042 22.3245C10.7729 21.9978 10.6359 21.5973 10.3092 21.4287L10.2986 21.4181Z" fill="black"/>
<path d="M7.94803 21.4181C7.62133 21.2495 7.22086 21.3865 7.05224 21.7132C6.54639 22.746 6.54639 23.9474 7.05224 24.9802C7.22086 25.3069 7.62133 25.4439 7.94803 25.2753C8.27473 25.1067 8.41174 24.7062 8.24312 24.3795C7.91642 23.7261 7.91642 22.9568 8.24312 22.3139C8.41174 21.9872 8.27473 21.5867 7.94803 21.4181Z" fill="black"/>
<path d="M31.6706 12.2703C31.8497 12.2703 32.0289 12.1965 32.1554 12.0595C32.9458 11.2269 33.2935 10.0677 33.0933 8.94004C33.0301 8.58173 32.6823 8.3288 32.324 8.39203C31.9657 8.45526 31.7127 8.80304 31.776 9.16136C31.9024 9.87799 31.6811 10.6157 31.1753 11.1426C30.9223 11.4061 30.9329 11.8276 31.2069 12.0806C31.3334 12.1965 31.4914 12.2597 31.6601 12.2597L31.6706 12.2703Z" fill="black"/>
<path d="M33.4409 11.828C33.188 12.0914 33.1985 12.513 33.4725 12.7659C33.736 13.0188 34.1575 13.0083 34.4105 12.7343C35.2009 11.9017 35.5486 10.7425 35.3484 9.61485C35.2852 9.25653 34.9479 9.0036 34.5791 9.06684C34.2102 9.13007 33.9678 9.46731 34.0311 9.83616C34.0311 9.83616 34.0311 9.83616 34.0311 9.8467C34.1575 10.5633 33.9362 11.301 33.4304 11.828H33.4409Z" fill="black"/>
</g>
<defs>
<clipPath id="clip0_225_10317">
<rect width="40" height="40" fill="white"/>
</clipPath>
</defs>
</svg>
