<svg width="40" height="40" viewBox="0 0 40 40" fill="none" xmlns="http://www.w3.org/2000/svg">
<path d="M14.0938 16.9746V29.0432C14.0938 30.2332 15.0626 31.2021 16.2526 31.2021H19.2119L22.982 35.1197L26.3836 31.2021H34.0291C35.2192 31.2021 36.188 30.2332 36.188 29.0432V20.3656" fill="#8CBCFF"/>
<path d="M17.126 8.43371V5.82201C17.126 4.632 18.0948 3.66309 19.2849 3.66309H37.0614C38.2514 3.66309 39.2202 4.632 39.2202 5.82201V17.8906C39.2202 19.0806 38.2514 20.0496 37.0614 20.0496H34.1021L30.332 23.9671L26.9304 20.0496H22.9707" fill="#F8CF6A"/>
<path d="M0.803711 18.2801V22.7031C0.803711 23.8931 1.77257 24.8621 2.96259 24.8621H5.92183L9.69197 28.7796L13.0935 24.8621H20.7391C21.9291 24.8621 22.898 23.8931 22.898 22.7031V10.6345C22.898 9.4445 21.9291 8.47559 20.7391 8.47559H2.96259C1.77257 8.47559 0.803711 9.4445 0.803711 10.6345V12.0351" fill="#70B48F"/>
<path d="M37.0717 3.01054H19.2952C17.6628 3.01054 16.3464 4.33751 16.3464 5.9593V7.81266H2.96141C1.32908 7.81266 0.0126953 9.13963 0.0126953 10.7614V12.162C0.0126953 12.5938 0.370753 12.9518 0.802528 12.9518C1.2343 12.9518 1.59236 12.5938 1.59236 12.162V10.7614C1.59236 10.0032 2.20317 9.39233 2.96141 9.39233H20.7379C21.4962 9.39233 22.107 10.0032 22.107 10.7614V22.83C22.107 23.5883 21.4962 24.1991 20.7379 24.1991H13.0923C12.8606 24.1991 12.65 24.2939 12.4921 24.4729L9.65919 27.7376L6.48933 24.4413C6.34189 24.2834 6.13127 24.1991 5.92065 24.1991H2.96141C2.20317 24.1991 1.59236 23.5883 1.59236 22.83V18.407C1.59236 17.9752 1.2343 17.6172 0.802528 17.6172C0.370753 17.6172 0.0126953 17.9752 0.0126953 18.407V22.83C0.0126953 24.4624 1.33961 25.7788 2.96141 25.7788H5.58365L9.1221 29.4541C9.26954 29.6121 9.48016 29.6963 9.69078 29.6963C9.69078 29.6963 9.70131 29.6963 9.71185 29.6963C9.933 29.6963 10.1436 29.591 10.2911 29.4225L13.303 25.9473V29.1698C13.303 30.8021 14.6299 32.1185 16.2517 32.1185H18.8739L22.4124 35.7939C22.5598 35.9519 22.7704 36.0361 22.981 36.0361H23.0021C23.2233 36.0361 23.4339 35.9308 23.5813 35.7623L26.7406 32.1185H34.0282C35.6605 32.1185 36.9769 30.7916 36.9769 29.1698V20.9661H37.0506C38.6829 20.9661 39.9993 19.6392 39.9993 18.0174V5.94876C39.9993 4.31644 38.6724 3 37.0506 3L37.0717 3.01054ZM35.4078 29.1803C35.4078 29.9386 34.7969 30.5494 34.0387 30.5494H26.3931C26.1614 30.5494 25.9508 30.6442 25.7928 30.8232L22.96 34.0879L19.7901 30.7916C19.6427 30.6336 19.4321 30.5494 19.2214 30.5494H16.2622C15.504 30.5494 14.8932 29.9386 14.8932 29.1803V25.7893H20.7484C22.3808 25.7893 23.6972 24.4624 23.6972 22.8406V20.9871H26.5721L29.7315 24.6309C29.8789 24.7994 30.0895 24.8942 30.3107 24.9048C30.3107 24.9048 30.3212 24.9048 30.3318 24.9048C30.5424 24.9048 30.753 24.8204 30.9004 24.6624L34.4389 20.9871H35.4078V29.1909V29.1803ZM38.4407 18.0279C38.4407 18.7862 37.8299 19.3969 37.0717 19.3969H34.1124C33.9018 19.3969 33.6912 19.4812 33.5437 19.6392L30.3739 22.9354L27.541 19.6707C27.3936 19.5022 27.1724 19.3969 26.9407 19.3969H23.6972V10.7614C23.6972 9.1291 22.3702 7.81266 20.7484 7.81266H17.9261V5.9593C17.9261 5.20106 18.5369 4.59021 19.2952 4.59021H37.0717C37.8299 4.59021 38.4407 5.20106 38.4407 5.9593V18.0279Z" fill="black"/>
<path d="M0.560741 16.0485H0.581793C0.655478 16.0801 0.739688 16.0907 0.813372 16.0907C1.15021 16.0907 1.466 15.8696 1.57127 15.5328C1.69758 15.1117 1.466 14.6695 1.04495 14.5432H1.0239C0.602846 14.4169 0.160741 14.6485 0.0344251 15.0695C-0.0918907 15.4906 0.139688 15.9328 0.560741 16.0591V16.0485Z" fill="black"/>
<path d="M25.973 13.2663H25.994C26.0677 13.2979 26.1414 13.3085 26.2256 13.3085C26.5624 13.3085 26.8782 13.0874 26.9835 12.7505C27.1098 12.3295 26.8677 11.8873 26.4572 11.761H26.4361C26.0151 11.6347 25.573 11.8663 25.4467 12.2873C25.3203 12.7084 25.5624 13.1505 25.973 13.2663Z" fill="black"/>
<path d="M35.2722 8.21191H26.2049C25.7731 8.21191 25.415 8.56997 25.415 9.00175C25.415 9.43352 25.7731 9.79158 26.2049 9.79158H35.2722C35.7039 9.79158 36.062 9.43352 36.062 9.00175C36.062 8.56997 35.7039 8.21191 35.2722 8.21191Z" fill="black"/>
<path d="M35.2717 11.6455H29.3953C28.9635 11.6455 28.6055 12.0036 28.6055 12.4353C28.6055 12.8671 28.9635 13.2252 29.3953 13.2252H35.2717C35.7034 13.2252 36.0615 12.8671 36.0615 12.4353C36.0615 12.0036 35.7034 11.6455 35.2717 11.6455Z" fill="black"/>
<path d="M35.2722 15.0684H26.2049C25.7731 15.0684 25.415 15.4264 25.415 15.8582C25.415 16.29 25.7731 16.648 26.2049 16.648H35.2722C35.7039 16.648 36.062 16.29 36.062 15.8582C36.062 15.4264 35.7039 15.0684 35.2722 15.0684Z" fill="black"/>
</svg>
