<svg width="40" height="40" viewBox="0 0 40 40" fill="none" xmlns="http://www.w3.org/2000/svg">
<path d="M37.5898 19.8046C37.5898 19.6507 37.5898 19.5071 37.5898 19.3533C37.5898 19.1072 37.559 18.8611 37.5385 18.6047C37.5385 18.5124 37.5385 18.42 37.5283 18.3277C37.5283 18.297 37.518 18.2662 37.518 18.2354C37.4668 17.7124 37.3847 17.1996 37.2822 16.6765C37.2515 16.4919 37.2105 16.3176 37.1695 16.133C37.0874 15.7535 36.9849 15.3843 36.8722 15.0151C36.8107 14.81 36.7492 14.5946 36.6774 14.3895C36.5339 13.9792 36.3801 13.5793 36.2161 13.1793C36.1238 12.9639 36.0315 12.7486 35.929 12.5434C35.7752 12.2152 35.6112 11.8973 35.4369 11.5896C35.3652 11.4563 35.3139 11.323 35.2319 11.1999C35.0371 10.8512 34.8116 10.5025 34.5861 10.1641C34.299 9.74358 33.9915 9.34361 33.6839 8.95388C33.6532 8.91286 33.6224 8.86158 33.5814 8.82055C33.5506 8.77953 33.5096 8.74878 33.4789 8.70775C33.1201 8.28726 32.751 7.877 32.3615 7.49754C32.3 7.436 32.2282 7.37447 32.1667 7.31294C31.7874 6.95398 31.3978 6.61555 30.998 6.29762C30.9467 6.2566 30.8955 6.21558 30.8442 6.17455C30.4137 5.83611 29.9626 5.52842 29.5013 5.231C29.409 5.16947 29.3167 5.11817 29.2245 5.05664C28.7529 4.76947 28.2711 4.50283 27.7688 4.26695C27.738 4.25669 27.7175 4.23617 27.6867 4.22591C27.6457 4.2054 27.615 4.19517 27.574 4.18491C27.0204 3.91826 26.4463 3.68235 25.862 3.48749C25.8209 3.47724 25.7902 3.467 25.7492 3.44649C24.56 3.04651 23.3298 2.76958 22.0689 2.626C22.0176 2.626 21.9561 2.61576 21.9048 2.6055C21.3308 2.54397 20.7464 2.52344 20.1518 2.52344C20.0493 2.52344 19.9468 2.52344 19.8443 2.52344C19.7213 2.52344 19.6085 2.52344 19.4855 2.52344C19.0241 2.54395 18.5731 2.57473 18.122 2.63627C18.0195 2.64652 17.917 2.66704 17.8145 2.6773C17.3121 2.74909 16.8201 2.83112 16.328 2.94393C16.205 2.9747 16.0819 2.99523 15.9692 3.026C15.4463 3.15932 14.9338 3.31314 14.4212 3.48749C14.2469 3.54903 14.0726 3.61056 13.8983 3.68235C13.4473 3.8567 13.0065 4.04133 12.5759 4.24645C12.4939 4.28747 12.4119 4.30799 12.3299 4.34901C11.6635 4.68745 11.0279 5.06691 10.4026 5.4874C10.3718 5.50791 10.341 5.52842 10.3103 5.54893C10.3 5.54893 10.2898 5.56943 10.2795 5.56943C9.88997 5.83608 9.52091 6.113 9.16211 6.41042C9.1006 6.4617 9.03909 6.50273 8.97758 6.54375C8.95708 6.55401 8.94683 6.5745 8.92632 6.59502C8.53676 6.9232 8.1677 7.26165 7.8089 7.6206C7.7884 7.64111 7.76789 7.66165 7.74739 7.68217C7.72689 7.70268 7.70638 7.72319 7.68588 7.7437C7.57311 7.85651 7.4706 7.97958 7.35783 8.09239C7.20406 8.25649 7.04003 8.42057 6.89651 8.59492C6.86575 8.62569 6.835 8.65645 6.81449 8.68722C6.72223 8.80004 6.64022 8.91287 6.54795 9.02568C6.43519 9.16926 6.32242 9.31283 6.20965 9.45641C6.15839 9.5282 6.09688 9.59998 6.04562 9.67177C6.02512 9.70254 5.99437 9.73334 5.97386 9.76411C5.75858 10.0615 5.5638 10.3692 5.36902 10.6769C5.33826 10.7281 5.29726 10.7794 5.2665 10.8307C5.25625 10.8512 5.23575 10.8717 5.2255 10.8922C4.93845 11.3743 4.66166 11.8666 4.42587 12.3588C4.41562 12.3793 4.40537 12.4101 4.39512 12.4409C4.39512 12.4409 4.39512 12.4511 4.38487 12.4614C4.35411 12.5127 4.34386 12.5742 4.3131 12.6255C4.05682 13.169 3.83128 13.7126 3.6365 14.2767C3.60575 14.369 3.58524 14.4715 3.55449 14.5638C3.38021 15.0869 3.22644 15.6202 3.10342 16.1535C3.07266 16.2868 3.05216 16.4304 3.03166 16.5637C2.92914 17.056 2.84713 17.5483 2.78562 18.0508C2.76512 18.2457 2.75486 18.4303 2.74461 18.6252C2.71386 18.9636 2.67285 19.2918 2.67285 19.6302C2.67285 19.6302 2.69335 19.6302 2.70361 19.6302C2.70361 19.6302 2.69335 19.6302 2.6831 19.6302C2.6831 19.7533 2.6831 19.8764 2.6831 19.9994C2.6831 20.0302 2.6831 20.061 2.6831 20.102C2.6831 20.1533 2.6831 20.2046 2.6831 20.2558C2.6831 20.8507 2.72411 21.4455 2.79587 22.0404C2.79587 22.0814 2.79587 22.1121 2.80612 22.1532C2.87788 22.7583 2.99065 23.3429 3.12392 23.9274C3.14442 24.0095 3.15467 24.0813 3.17518 24.1633C3.3187 24.7376 3.48273 25.3017 3.67751 25.8453C3.70826 25.9273 3.73902 26.0196 3.76977 26.1017C3.9748 26.6555 4.21059 27.1991 4.46688 27.7221C4.48738 27.7529 4.48738 27.7836 4.50788 27.8144C4.54889 27.8862 4.5899 27.958 4.62065 28.0298C4.76417 28.317 4.91795 28.5938 5.08197 28.8708C5.14348 28.9631 5.19474 29.0656 5.25625 29.1579C6.64022 31.4142 8.54701 33.3731 10.8639 34.8192C10.9049 34.8499 10.9561 34.8704 10.9971 34.9012C11.0074 34.9012 11.0176 34.9217 11.0279 34.9217C11.0587 34.9422 11.0894 34.9525 11.1202 34.973C11.52 35.2191 11.9403 35.4448 12.3504 35.6499C12.3914 35.6704 12.4426 35.7012 12.4836 35.7217C12.5246 35.7422 12.5554 35.7524 12.5964 35.773C13.1192 36.0294 13.6523 36.255 14.2059 36.4498C14.2366 36.4601 14.2777 36.4704 14.3084 36.4806C14.8005 36.655 15.2926 36.7985 15.7949 36.9319C15.9384 36.9626 16.0717 37.0037 16.2152 37.0344C16.7278 37.1575 17.2506 37.2498 17.7734 37.3216C17.9067 37.3421 18.04 37.3523 18.1733 37.3626C18.5936 37.4139 19.0241 37.4447 19.4445 37.4549C19.547 37.4549 19.6597 37.4754 19.7623 37.4754C19.7623 37.4754 19.7623 37.4754 19.7623 37.4652C19.8853 37.4652 20.0083 37.4652 20.1313 37.4652C20.6336 37.4652 21.1257 37.4344 21.628 37.3934C21.6793 37.3934 21.7408 37.3934 21.8023 37.3934C21.8536 37.3934 21.9048 37.3729 21.9561 37.3729C22.4994 37.3113 23.0428 37.2396 23.5759 37.1267C23.6681 37.1062 23.7604 37.0857 23.8526 37.0652C24.3447 36.9626 24.8368 36.8293 25.3186 36.6857C25.3904 36.6652 25.4724 36.6447 25.5442 36.6242C26.067 36.4601 26.5693 36.255 27.0716 36.0396C27.1742 35.9986 27.2664 35.9576 27.3689 35.9063C27.8815 35.6704 28.3736 35.4243 28.8554 35.1371C28.8759 35.1268 28.9067 35.1166 28.9272 35.1063C29.9216 34.532 30.8647 33.8449 31.7259 33.0859C31.9924 32.85 32.2487 32.6039 32.505 32.3475C32.5255 32.327 32.5357 32.3167 32.5562 32.2962C32.792 32.0604 33.0278 31.8142 33.2431 31.5578C33.2739 31.527 33.2944 31.4963 33.3251 31.4655C33.5301 31.2296 33.7352 30.9835 33.93 30.7271C33.971 30.6758 34.0017 30.6348 34.0427 30.5835C34.217 30.3476 34.3913 30.1117 34.5656 29.8656C34.6066 29.7938 34.6578 29.7323 34.6988 29.6605C34.7808 29.5374 34.8731 29.4041 34.9551 29.281C35.0166 29.1785 35.0781 29.0759 35.1397 28.9733C35.2012 28.8708 35.2627 28.7682 35.3139 28.6657C35.4472 28.4298 35.5805 28.1939 35.7035 27.958C35.7445 27.8759 35.7855 27.7836 35.8265 27.7016C35.9495 27.4452 36.0828 27.1785 36.1956 26.9221C36.2161 26.8709 36.2366 26.8299 36.2571 26.7786C36.6569 25.8248 36.9747 24.8402 37.2002 23.8249C37.2002 23.8044 37.2105 23.7839 37.2105 23.7634C37.2617 23.5172 37.3027 23.2813 37.3437 23.0352C37.3642 22.8916 37.395 22.748 37.4155 22.6044C37.4463 22.3993 37.4668 22.1942 37.4873 21.9788C37.5078 21.7942 37.5283 21.6096 37.5488 21.4147C37.559 21.2301 37.5693 21.0455 37.5795 20.8712C37.5898 20.6558 37.6 20.4302 37.6 20.2046C37.6 20.1328 37.6 20.061 37.6 19.9892C37.6 19.9174 37.6 19.8559 37.6 19.7943L37.5898 19.8046ZM19.5265 2.54397C19.5265 2.54397 19.4957 2.53369 19.4752 2.52344C19.4957 2.52344 19.506 2.53371 19.5265 2.54397ZM37.5693 19.4046C37.5693 19.3944 37.5693 19.3738 37.5795 19.3636C37.5795 19.3841 37.5795 19.3943 37.5693 19.4148V19.4046Z" fill="#0573C8"/>
<path d="M37.5792 19.8674C37.5792 19.7135 37.5792 19.5699 37.5792 19.4161C37.5792 19.17 37.5484 18.9238 37.5279 18.6674C37.5279 18.5751 37.5279 18.4828 37.5177 18.3905C37.5177 18.3597 37.5074 18.329 37.5074 18.2982C37.4562 17.7752 37.3741 17.2624 37.2716 16.7393C37.2409 16.5547 37.1999 16.3804 37.1589 16.1958C37.0769 15.8163 36.9743 15.4471 36.8616 15.0779C36.8001 14.8728 36.7386 14.6574 36.6668 14.4523C36.5233 14.042 36.3695 13.6421 36.2055 13.2421C36.1132 13.0267 36.0209 12.8113 35.9184 12.6062C35.7646 12.278 35.6006 11.9601 35.4263 11.6524C35.3546 11.5191 35.3033 11.3858 35.2213 11.2627C35.0265 10.914 34.801 10.5653 34.5755 10.2268C34.2884 9.80636 33.9809 9.40639 33.6733 9.01666C33.6426 8.97564 33.6118 8.92435 33.5708 8.88333C33.5401 8.84231 33.499 8.81156 33.4683 8.77053C33.4683 8.77053 33.458 8.76026 33.4478 8.75C33.4478 8.75 33.4478 8.76028 33.4478 8.77053C33.6221 9.18077 33.7861 9.59099 33.9194 10.0115C33.9911 10.2269 34.0526 10.432 34.1141 10.6473C34.2269 11.0268 34.3294 11.4063 34.4114 11.796C34.4524 11.9806 34.4935 12.1652 34.5345 12.3498C34.637 12.8729 34.719 13.4062 34.7702 13.9497C34.7702 13.9805 34.7805 14.0113 34.7805 14.042C34.7805 14.1343 34.7805 14.2266 34.7907 14.3189C34.8113 14.5753 34.8318 14.8317 34.842 15.0881C34.842 15.242 34.842 15.3958 34.842 15.5496C34.842 15.6214 34.842 15.683 34.842 15.7548C34.842 15.8266 34.842 15.8983 34.842 15.9701C34.842 16.1958 34.8318 16.4214 34.8215 16.647C34.8215 16.8316 34.801 17.0265 34.7907 17.2111C34.7702 17.4059 34.7497 17.6008 34.7292 17.7854C34.7087 18.0008 34.678 18.2162 34.6472 18.4213C34.6267 18.5649 34.596 18.7187 34.5652 18.8623C34.5242 19.1084 34.4832 19.3648 34.4217 19.611C34.4217 19.6315 34.4114 19.652 34.4012 19.6725C34.1654 20.7083 33.8374 21.7237 33.4273 22.7082C33.4068 22.7595 33.3863 22.8108 33.3658 22.8518C33.253 23.1185 33.1197 23.3954 32.9865 23.6518C32.9455 23.7441 32.9045 23.8261 32.8532 23.9184C32.7302 24.1646 32.5969 24.4004 32.4534 24.6466C32.3919 24.7491 32.3304 24.862 32.2689 24.9645C32.2073 25.0671 32.1458 25.1799 32.0843 25.2824C32.0023 25.4158 31.9101 25.5491 31.8178 25.6722C31.7768 25.744 31.7255 25.8055 31.6743 25.8773C31.5 26.1337 31.3257 26.3798 31.1412 26.6157C31.1002 26.667 31.0694 26.7183 31.0284 26.7696C30.8234 27.026 30.6183 27.2823 30.4133 27.5285C30.3826 27.5592 30.3621 27.59 30.3313 27.6208C30.1058 27.8772 29.87 28.1336 29.6239 28.3797C29.6034 28.4002 29.5932 28.4105 29.5727 28.431C29.3164 28.6874 29.0499 28.9438 28.7731 29.1899C27.8812 29.9796 26.9175 30.6771 25.8924 31.2719C25.8719 31.2822 25.8411 31.2924 25.8206 31.3129C25.3285 31.6001 24.8159 31.8565 24.2931 32.1026C24.1906 32.1436 24.0881 32.1949 23.9856 32.2359C23.473 32.4615 22.9502 32.6667 22.4171 32.8308C22.3453 32.8513 22.2633 32.8718 22.1813 32.9026C21.6892 33.0564 21.1869 33.1897 20.6743 33.2923C20.582 33.3128 20.4795 33.3333 20.3873 33.3538C19.8439 33.4666 19.2801 33.5384 18.7265 33.6C18.6752 33.6 18.624 33.6205 18.5625 33.6205C18.501 33.6205 18.4497 33.6205 18.3882 33.6205C17.8756 33.6615 17.3733 33.6923 16.8505 33.6923C16.7172 33.6923 16.5942 33.6923 16.4712 33.6923C16.4712 33.6923 16.4712 33.6923 16.4712 33.7025C16.3584 33.7025 16.2559 33.682 16.1431 33.682C15.7023 33.6615 15.2717 33.6307 14.8309 33.5897C14.6976 33.5692 14.5541 33.5692 14.4208 33.5487C13.8775 33.4769 13.3444 33.3743 12.8216 33.2513C12.6781 33.2205 12.5345 33.1795 12.391 33.1487C11.8784 33.0154 11.3659 32.8718 10.8635 32.6872C10.8328 32.6769 10.7918 32.6667 10.761 32.6564C10.1972 32.4513 9.65384 32.2154 9.11051 31.959C9.0695 31.9385 9.03874 31.9283 8.99774 31.9078C8.94648 31.8872 8.90547 31.8565 8.86447 31.836C8.4339 31.6206 8.01359 31.395 7.59327 31.1386C7.56252 31.1181 7.53176 31.1078 7.49076 31.0873C7.4805 31.0873 7.47025 31.0668 7.44975 31.0668C7.39849 31.036 7.35749 31.0155 7.30623 30.9847C6.66038 30.5745 6.04528 30.1232 5.46094 29.6515C6.81415 31.7129 8.59793 33.5179 10.761 34.8717C10.802 34.9025 10.8533 34.923 10.8943 34.9537C10.9045 34.9537 10.9148 34.9742 10.925 34.9742C10.9558 34.9948 10.9865 35.005 11.0173 35.0255C11.4171 35.2717 11.8374 35.4973 12.2475 35.7024C12.2885 35.7229 12.3398 35.7537 12.3808 35.7742C12.4218 35.7947 12.4525 35.805 12.4935 35.8255C13.0164 36.0819 13.5494 36.3075 14.103 36.5024C14.1338 36.5126 14.1748 36.5229 14.2055 36.5331C14.6976 36.7075 15.1897 36.8511 15.692 36.9844C15.8356 37.0152 15.9688 37.0562 16.1123 37.087C16.6249 37.21 17.1478 37.3023 17.6706 37.3741C17.8039 37.3946 17.9371 37.4049 18.0704 37.4151C18.4907 37.4664 18.9213 37.4972 19.3416 37.5074C19.4441 37.5074 19.5569 37.5279 19.6594 37.5279C19.6594 37.5279 19.6594 37.528 19.6594 37.5177C19.7824 37.5177 19.9054 37.5177 20.0285 37.5177C20.5308 37.5177 21.0229 37.4869 21.5252 37.4459C21.5764 37.4459 21.638 37.4459 21.6995 37.4459C21.7507 37.4459 21.802 37.4254 21.8532 37.4254C22.3966 37.3639 22.9399 37.2921 23.473 37.1793C23.5653 37.1587 23.6575 37.1382 23.7498 37.1177C24.2419 37.0152 24.7339 36.8818 25.2158 36.7383C25.2875 36.7177 25.3695 36.6972 25.4413 36.6767C25.9641 36.5126 26.4665 36.3075 26.9688 36.0921C27.0713 36.0511 27.1636 36.0101 27.2661 35.9588C27.7787 35.7229 28.2707 35.4768 28.7526 35.1896C28.7731 35.1794 28.8038 35.1691 28.8243 35.1588C29.8187 34.5845 30.7619 33.8974 31.623 33.1384C31.8895 32.9026 32.1458 32.6564 32.4021 32.4C32.4226 32.3795 32.4329 32.3693 32.4534 32.3487C32.6892 32.1129 32.925 31.8667 33.1402 31.6103C33.171 31.5796 33.1915 31.5488 33.2223 31.518C33.4273 31.2821 33.6323 31.036 33.8271 30.7796C33.8681 30.7283 33.8989 30.6873 33.9399 30.636C34.1141 30.4001 34.2884 30.1643 34.4627 29.9181C34.5037 29.8463 34.555 29.7848 34.596 29.713C34.678 29.5899 34.7702 29.4566 34.8523 29.3335C34.9138 29.231 34.9753 29.1284 35.0368 29.0259C35.0983 28.9233 35.1598 28.8207 35.2111 28.7182C35.3443 28.4823 35.4776 28.2464 35.6006 28.0105C35.6416 27.9285 35.6826 27.8362 35.7236 27.7541C35.8467 27.4977 35.9799 27.2311 36.0927 26.9747C36.1132 26.9234 36.1337 26.8824 36.1542 26.8311C36.554 25.8773 36.8718 24.8927 37.0974 23.8774C37.0974 23.8569 37.1076 23.8364 37.1076 23.8159C37.1589 23.5697 37.1999 23.3338 37.2409 23.0877C37.2614 22.9441 37.2921 22.8005 37.3126 22.6569C37.3434 22.4518 37.3639 22.2467 37.3844 22.0314C37.4049 21.8467 37.4254 21.6621 37.4459 21.4673C37.4562 21.2827 37.4664 21.0981 37.4767 20.9237C37.4869 20.7083 37.4972 20.4827 37.4972 20.2571C37.4972 20.1853 37.4972 20.1135 37.4972 20.0417C37.4972 19.9699 37.4972 19.9084 37.4972 19.8469L37.5792 19.8674ZM37.5587 19.4674C37.5587 19.4571 37.5587 19.4366 37.5689 19.4264C37.5689 19.4469 37.5689 19.4571 37.5587 19.4777V19.4674Z" fill="#005AA0"/>
<path d="M4.36482 27.8138C5.8308 30.7572 8.0964 33.2186 10.8951 34.9313C11.3769 35.2185 11.869 35.4954 12.3611 35.7313C11.4589 32.7571 11.0284 29.6598 11.0694 26.5523C11.2539 22.1423 13.4682 17.9169 14.7394 15.8349C14.1038 15.4247 13.458 15.0555 12.7814 14.717C11.6845 14.1837 10.5465 13.7427 9.3676 13.4043C7.38904 15.6298 5.04143 18.9527 4.38532 22.7371C4.12903 24.4191 4.11878 26.1216 4.36482 27.8035V27.8138Z" fill="#FFDD17"/>
<path d="M11.0591 26.5541C11.2436 22.144 13.458 17.9186 14.7291 15.8367C14.0935 15.4264 13.4477 15.0572 12.7711 14.7188C12.6481 14.6572 12.5251 14.6162 12.402 14.5547C10.5567 17.6109 9.42907 21.0467 9.12153 24.6055C9.08052 27.713 9.52134 30.8102 10.4132 33.7844C9.92115 33.5383 9.42908 33.2716 8.94725 32.9845C8.16813 32.5024 7.41976 31.9589 6.72266 31.3641C7.91184 32.7691 9.32656 33.969 10.8951 34.9331C11.3769 35.2202 11.869 35.4972 12.361 35.733C11.4589 32.7588 11.0283 29.6616 11.0693 26.5541H11.0591Z" fill="#F4B503"/>
<path d="M8.84473 6.54375C11.9202 6.95398 14.9239 7.83598 17.7329 9.15898C22.4691 11.5383 25.7599 16.4919 26.621 17.897C27.2463 17.6303 27.8512 17.3329 28.4458 16.9945C29.4197 16.4304 30.3526 15.7945 31.2342 15.0869C30.2603 12.3486 28.0255 7.40526 23.9761 4.63617C22.5511 3.70289 21.0031 2.99521 19.3629 2.52344C16.0823 2.64651 12.9044 3.69261 10.1877 5.53866C9.72636 5.84634 9.27529 6.18479 8.84473 6.54375Z" fill="#FFDD17"/>
<path d="M28.4463 15.0469C27.8619 15.3853 27.2468 15.6827 26.6215 15.9494C25.7603 14.5546 22.4696 9.59072 17.7333 7.21136C15.6113 6.18578 13.3662 5.44735 11.0493 4.99609C10.752 5.17044 10.465 5.35506 10.1779 5.54992C9.7166 5.85759 9.26553 6.19605 8.83496 6.555C11.9104 6.96524 14.9142 7.84723 17.7231 9.17024C22.4593 11.5496 25.7501 16.5032 26.6112 17.9082C27.2366 17.6416 27.8414 17.3442 28.436 17.0057C29.4099 16.4417 30.3428 15.8058 31.2244 15.0981C31.0707 14.6571 30.8656 14.1341 30.6299 13.5905C29.9327 14.1238 29.1946 14.6161 28.436 15.0571L28.4463 15.0469Z" fill="#F4B503"/>
<path d="M4.36485 28.3287C4.17007 28.3287 3.9958 28.2262 3.90353 28.0416C1.4124 23.0367 1.36114 17.2729 3.78051 12.2271C3.87278 12.0322 4.05731 11.9194 4.28284 11.9399C6.04612 12.0937 7.80939 12.4116 9.5009 12.9142C9.66493 12.9655 9.7982 13.0988 9.84946 13.2629C9.90071 13.427 9.84946 13.6116 9.73669 13.7449C7.88115 15.8371 5.52328 19.1087 4.87743 22.8316C4.63139 24.452 4.62114 26.1032 4.85693 27.7442C4.89793 27.9903 4.74416 28.2364 4.50837 28.3082C4.45712 28.3287 4.40586 28.3287 4.3546 28.3287H4.36485ZM4.55963 12.9962C2.87837 16.7089 2.58107 20.8112 3.68825 24.6572C3.719 23.9905 3.78051 23.3239 3.88303 22.6675C4.51863 19.0575 6.60995 15.8781 8.45524 13.6834C7.18404 13.3552 5.87184 13.1296 4.56988 12.9962H4.55963Z" fill="black"/>
<path d="M19.178 27.2014C18.8602 27.2014 18.5834 27.2014 18.3476 27.1911C18.2041 27.1911 18.0708 27.1193 17.9683 27.0065C17.876 26.8937 17.835 26.7501 17.8453 26.6065C18.1016 24.6272 18.5526 22.5862 18.8602 21.2427C18.973 20.7197 19.096 20.1864 19.1267 19.9813C19.1267 19.9813 19.1267 19.971 19.1267 19.9607C19.0857 19.6838 19.2805 19.4172 19.5573 19.3762C22.5815 18.9147 25.493 17.9608 28.1994 16.5353C30.6803 15.0687 32.8844 13.1611 34.7092 10.8843C34.8117 10.751 34.9757 10.6895 35.15 10.6895C35.314 10.6997 35.4678 10.792 35.5498 10.9458C36.8517 13.1714 37.6719 15.7148 37.9077 18.2788C37.9179 18.4224 37.8769 18.566 37.7846 18.6685C35.6728 21.0274 33.2329 23.0375 30.506 24.6579C26.5489 26.8629 21.7204 27.1911 19.1677 27.1911L19.178 27.2014ZM18.9422 26.1758C21.3308 26.2168 26.1286 25.9296 29.9934 23.7759C32.5461 22.258 34.8629 20.371 36.862 18.166C36.6365 16.0635 36.0009 13.9918 35.0167 12.115C33.2124 14.2277 31.0903 16.0123 28.6915 17.4276C25.9748 18.8531 23.0941 19.8274 20.1006 20.3197C20.0494 20.5761 19.9674 20.9351 19.8546 21.4581C19.5881 22.658 19.1882 24.4118 18.932 26.1655L18.9422 26.1758Z" fill="black"/>
<path d="M24.4571 33.4776C22.1608 33.4776 19.9875 33.1186 18.2344 32.6981C18.0294 32.6469 17.8756 32.4725 17.8449 32.2674C17.6911 31.1085 17.6296 29.9291 17.6706 28.7599C17.6911 28.042 17.7526 27.3138 17.8551 26.5959C17.8961 26.3395 18.1012 26.1754 18.378 26.1549C20.4693 26.2164 25.7899 26.1139 30.0033 23.7755C32.6174 22.2166 34.9855 20.268 37.0256 17.9912C37.1589 17.8374 37.3742 17.7861 37.5689 17.8476C37.7637 17.9092 37.897 18.0836 37.9175 18.2887C37.9687 18.8322 37.9995 19.4066 37.9995 20.0117C37.9995 23.3961 37.0564 26.6985 35.2623 29.5701C35.2316 29.6111 35.2008 29.6522 35.1598 29.6932C33.8168 30.8213 32.3099 31.7238 30.6901 32.4007C28.6705 33.2007 26.528 33.4878 24.4674 33.4878L24.4571 33.4776ZM18.8188 31.7854C21.5047 32.3802 26.2512 33.0366 30.3006 31.4469C31.787 30.8316 33.1813 29.9906 34.4319 28.9548C36.103 26.2677 36.9743 23.1807 36.9743 20.0117C36.9743 19.8578 36.9743 19.7142 36.9743 19.5707C35.0573 21.55 32.8942 23.2627 30.5261 24.6781C26.3639 26.9856 21.2381 27.242 18.829 27.2113C18.7675 27.7446 18.7265 28.2779 18.706 28.8112C18.6752 29.806 18.7163 30.8111 18.829 31.7956L18.8188 31.7854Z" fill="black"/>
<path d="M20.019 37.9994C19.8755 37.9994 19.7422 37.9994 19.609 37.9994C19.4039 37.9994 19.2194 37.8558 19.1476 37.661C18.5325 35.9175 18.0917 34.1124 17.8457 32.2766C17.8252 32.1126 17.8867 31.9382 18.0097 31.8254C18.1327 31.7126 18.307 31.6716 18.471 31.7023C21.0749 32.3177 26.0675 33.1074 30.3014 31.4459C31.8186 30.8101 33.2333 29.9588 34.4943 28.9025C34.689 28.7384 34.9658 28.7486 35.1606 28.9025C35.3554 29.0666 35.3964 29.3435 35.2631 29.5588C31.9519 34.8406 26.2622 37.9994 20.0293 37.9994H20.019ZM20.0088 36.9738H20.019C24.8373 36.9738 29.307 34.9739 32.485 31.5177C31.9006 31.8459 31.306 32.1331 30.6909 32.3895C26.7236 33.9484 22.2539 33.5586 18.9836 32.8612C19.2091 34.256 19.5577 35.6303 20.0088 36.9738Z" fill="black"/>
<path d="M19.6284 38.0007C17.045 37.9494 14.4616 37.3237 12.1344 36.1853C12.0114 36.1238 11.9089 36.011 11.8679 35.8777C10.9555 32.8522 10.5147 29.7139 10.5454 26.5448C10.7402 22.022 12.9751 17.7248 14.2873 15.5608C14.4308 15.3249 14.7794 15.2429 15.0151 15.3967C16.7989 16.5761 18.4699 17.9504 19.9667 19.4786C19.9872 19.4888 20.0077 19.5093 20.0179 19.5298C20.2435 19.776 20.223 19.8683 19.8641 21.4887C19.4541 23.3245 18.757 26.391 18.6955 28.7909C18.6545 31.7035 19.126 34.5752 20.1204 37.3135C20.1819 37.4673 20.1512 37.6519 20.0589 37.7853C19.9667 37.9186 19.8026 38.0007 19.6386 38.0007H19.6284ZM12.7803 35.3649C14.6871 36.2674 16.7887 36.811 18.9005 36.9443C18.0394 34.2983 17.619 31.56 17.6601 28.7704C17.7318 26.2679 18.4392 23.1399 18.8595 21.2733C18.962 20.8118 19.0645 20.3503 19.1158 20.0939C17.8241 18.7914 16.3991 17.612 14.8921 16.5659C13.6107 18.7504 11.7449 22.5963 11.5809 26.5859C11.5399 29.5498 11.9499 32.5138 12.7905 35.3752L12.7803 35.3649Z" fill="black"/>
<path d="M12.3608 36.2362C12.2891 36.2362 12.207 36.2157 12.1353 36.1849C11.6535 35.949 11.1614 35.6824 10.6283 35.3644C7.73735 33.6004 5.41024 31.0672 3.90326 28.0417C3.88275 27.9905 3.86225 27.9392 3.852 27.8879C3.59571 26.1547 3.60596 24.3907 3.8725 22.6677C4.56961 18.6987 7.02999 15.2527 8.97779 13.0682C9.11106 12.9246 9.3161 12.8631 9.50063 12.9143C10.7001 13.263 11.8687 13.7143 12.9964 14.2579C13.6833 14.5963 14.3599 14.986 15.0057 15.4065C15.2415 15.5604 15.3133 15.868 15.1595 16.1039C13.8986 18.1756 11.7457 22.2882 11.5612 26.5752C11.5202 29.6211 11.9508 32.6569 12.8324 35.5798C12.8939 35.7747 12.8324 35.99 12.6786 36.1234C12.5864 36.2054 12.4633 36.2464 12.3506 36.2464L12.3608 36.2362ZM4.85665 27.652C6.28162 30.4724 8.45496 32.8415 11.1614 34.4824C11.2947 34.5645 11.4177 34.6363 11.5407 34.708C10.8436 32.0415 10.5155 29.3032 10.5463 26.5444C10.7308 22.2882 12.6991 18.2577 14.0318 16.0014C13.55 15.7039 13.0477 15.4271 12.5453 15.1809C11.5817 14.7091 10.5668 14.3092 9.53138 13.9912C7.7066 16.0834 5.51276 19.2525 4.88741 22.8318C4.64137 24.4214 4.63112 26.0521 4.85665 27.6623V27.652Z" fill="black"/>
<path d="M19.6396 20.3922C19.5064 20.3922 19.3628 20.3409 19.2706 20.2384C17.3023 18.1974 15.0469 16.495 12.5353 15.172C9.92112 13.9412 7.10193 13.1926 4.20073 12.9669C4.0367 12.9567 3.88293 12.8541 3.80091 12.7106C3.7189 12.567 3.70865 12.3824 3.78041 12.2285C4.88758 9.90044 6.52784 7.79798 8.51665 6.15704C8.62942 6.06474 8.77294 6.02373 8.90621 6.04424C12.0432 6.46473 15.0879 7.35699 17.9481 8.7005C22.7971 11.1414 26.1391 16.1565 27.0515 17.6334C27.1335 17.7564 27.1438 17.9205 27.1028 18.0641C27.0618 18.2077 26.949 18.3205 26.8157 18.382C24.5501 19.3358 22.1513 20.0127 19.7114 20.4024C19.6806 20.4024 19.6601 20.4024 19.6294 20.4024L19.6396 20.3922ZM5.04136 12.0029C7.79903 12.3106 10.4747 13.0593 12.9966 14.2489C15.539 15.5924 17.8251 17.2949 19.8242 19.3358C21.895 18.9871 23.9248 18.423 25.8623 17.6539C24.6629 15.8181 21.6489 11.7055 17.5073 9.62353C14.8214 8.36206 11.9509 7.51082 9.00873 7.09033C7.39923 8.45436 6.03576 10.1466 5.04136 12.0131V12.0029Z" fill="black"/>
<path d="M31.2236 15.6011C31.2236 15.6011 31.1313 15.6012 31.0903 15.5806C30.9365 15.5396 30.8032 15.4166 30.7417 15.2627C30.7212 15.2012 28.2506 8.61693 23.6476 5.04789C22.3149 4.12486 20.8182 3.43772 19.2189 3.02748C18.9729 2.96595 18.8089 2.73005 18.8396 2.47366C18.8704 2.21726 19.0754 2.02239 19.3317 2.01213C25.5647 1.7865 31.3773 4.7197 34.8731 9.88866C35.1089 10.2374 35.3344 10.5963 35.5497 10.9552C35.6522 11.1398 35.6317 11.3655 35.4985 11.5296C34.3298 12.9757 32.9971 14.3089 31.5414 15.4781C31.4491 15.5499 31.3363 15.5909 31.2236 15.5909V15.6011ZM22.6122 3.22235C23.1761 3.51977 23.7296 3.84795 24.2627 4.21717C28.2814 7.33495 30.6802 12.4219 31.4491 14.2474C32.546 13.3141 33.5712 12.2783 34.4938 11.1706C34.3503 10.9348 34.2068 10.6988 34.0427 10.4732C31.3568 6.5042 27.2254 3.93 22.6122 3.22235Z" fill="black"/>
<path d="M26.6213 18.4011C26.447 18.4011 26.283 18.3088 26.1805 18.1549C25.3091 16.7294 22.0901 11.9194 17.4974 9.61179C14.7397 8.31955 11.8078 7.4478 8.7733 7.04782C8.56827 7.01705 8.40424 6.87349 8.34273 6.67862C8.28122 6.48376 8.34273 6.2684 8.50676 6.14533C8.94758 5.77612 9.41915 5.42741 9.89072 5.10948C12.6792 3.20189 15.9494 2.12502 19.3324 2.00195C19.3837 2.00195 19.435 2.00194 19.4965 2.02245C21.1777 2.50448 22.777 3.23264 24.243 4.19669C28.4461 7.06833 30.722 12.1347 31.7061 14.9038C31.7779 15.1089 31.7061 15.3346 31.5421 15.4781C30.6502 16.2063 29.6865 16.8525 28.6921 17.4268C28.077 17.7755 27.4517 18.0831 26.8161 18.36C26.7546 18.3908 26.6828 18.4011 26.6111 18.4011H26.6213ZM10.106 6.2171C12.8227 6.68887 15.4573 7.5196 17.9485 8.68876C22.4387 10.9451 25.6474 15.4166 26.8161 17.2421C27.2774 17.0268 27.7387 16.8012 28.1796 16.5448C29.0202 16.0627 29.8403 15.5089 30.6092 14.9141C29.6045 12.2065 27.4517 7.65291 23.6689 5.05818C22.3157 4.17618 20.8394 3.49929 19.2812 3.03777C16.1237 3.1711 13.0687 4.18645 10.4648 5.97097C10.3418 6.05301 10.2188 6.13505 10.106 6.2171Z" fill="black"/>
</svg>
