<svg width="40" height="40" viewBox="0 0 40 40" fill="none" xmlns="http://www.w3.org/2000/svg">
<mask id="mask0_225_10360" style="mask-type:luminance" maskUnits="userSpaceOnUse" x="1" y="1" width="38" height="38">
<path d="M39 1H1V39H39V1Z" fill="white"/>
</mask>
<g mask="url(#mask0_225_10360)">
<path d="M37.7498 31.6799V19.2899C37.7498 18.2899 36.9398 17.4799 35.9398 17.4799C34.5798 17.4799 34.0598 18.5499 34.0398 19.2899V25.2699C34.0398 25.5099 33.8398 25.7099 33.5998 25.7099C33.3598 25.7099 33.1598 25.5099 33.1598 25.2699V15.6799C33.1598 14.6799 32.3498 13.8699 31.3298 13.8699C29.9398 13.9099 29.4398 14.9699 29.4298 15.6799V24.8099C29.4298 25.0499 29.2298 25.2499 28.9898 25.2499C28.7498 25.2499 28.5498 25.0499 28.5498 24.8099V12.7499C28.5498 11.7499 27.7398 10.9399 26.7298 10.9399C25.3298 10.9799 24.8298 12.0499 24.8298 12.7499V24.7399C24.8298 24.9799 24.6298 25.1799 24.3898 25.1799C24.1498 25.1799 23.9498 24.9799 23.9498 24.7399V15.6499C23.8498 14.2599 22.7198 13.8299 22.0398 13.8699C21.0398 13.8699 20.2298 14.6799 20.2298 15.6799V29.8399C20.2298 29.9599 20.1798 30.0699 20.0998 30.1499C20.0198 30.2299 19.9098 30.2799 19.7898 30.2799C19.6998 30.2799 19.5998 30.2499 19.5298 30.1899L16.1398 27.6799L16.0398 27.6199C15.3798 27.3299 14.4498 27.2899 13.7598 28.0299C13.3598 28.4999 13.1198 29.2999 13.6198 30.1799L21.8798 37.7999H29.3298C29.5698 37.7999 29.7698 37.9999 29.7698 38.2399V38.7499H32.8398V38.2399C32.8398 37.9999 33.0398 37.7999 33.2798 37.7999H34.4898C38.0098 37.2999 37.7798 31.8799 37.7698 31.6699L37.7498 31.6799Z" fill="#FFDFCF"/>
<path d="M37.6301 31.7099V19.7699L37.2901 18.6499L35.1201 33.0199C35.1201 33.0199 34.9001 35.1399 33.4001 35.5399L20.6201 36.8199L21.7501 37.8499H29.2001C29.4401 37.8499 29.6401 38.0499 29.6401 38.2899V38.7999H32.7101V38.2899C32.7101 38.0499 32.9101 37.8499 33.1501 37.8499H34.3501C37.8701 37.3499 37.6401 31.9299 37.6301 31.7199V31.7099Z" fill="#F7A28B"/>
<path d="M35.9396 17.7799C36.7396 17.7799 37.3896 18.4299 37.3896 19.2299V31.6199C37.3896 31.8299 37.6196 36.9399 34.4096 37.3899H33.2496C32.8096 37.3899 32.4496 37.7499 32.4496 38.1899C32.4496 38.6299 32.8096 38.9899 33.2496 38.9899H34.5396C36.8096 38.7799 37.7396 37.0199 37.7396 36.9999C39.0696 35.0799 38.9796 32.1999 38.9796 32.1699V19.2299C38.9796 17.5499 37.6096 16.1799 35.9296 16.1799C35.5596 16.1799 35.2096 16.2299 34.8596 16.3399L34.6796 16.3899L34.6596 16.1999C34.4196 13.7599 33.6696 11.4499 32.4296 9.32995C32.4096 9.29995 31.0996 6.73995 27.9596 4.32995C22.5196 0.299947 15.2096 -0.110052 9.35955 3.30995C5.46955 5.57995 2.69955 9.22995 1.55955 13.5999C0.419557 17.9699 1.03955 22.4999 3.30955 26.3799C6.10955 31.1699 11.0896 34.2799 16.6296 34.6799H16.6796L16.7196 34.7199L21.1496 38.7899C21.2996 38.9299 21.4896 38.9999 21.6896 38.9999H29.3096C29.7496 38.9999 30.1096 38.6399 30.1096 38.1999C30.1096 37.7599 29.7496 37.3999 29.3096 37.3999H21.9996L13.9096 29.9599C13.3796 29.0399 13.9096 28.3499 14.0196 28.2199C14.7096 27.4699 15.6196 27.7899 15.8796 27.8999L19.2996 30.4299C19.4696 30.5599 19.6796 30.6099 19.8896 30.5799C20.0996 30.5499 20.2896 30.4399 20.4096 30.2699C20.5096 30.1299 20.5696 29.9599 20.5696 29.7899V15.6299C20.5696 14.8299 21.2196 14.1799 22.0196 14.1799C22.0196 14.1799 23.4696 14.1099 23.5696 15.6199V24.6899C23.5696 25.1299 23.9296 25.4899 24.3696 25.4899C24.8096 25.4899 25.1696 25.1299 25.1696 24.6899V12.6999C25.1696 12.6999 25.1696 11.2899 26.7196 11.2499C27.5296 11.2499 28.1796 11.8999 28.1796 12.6999V24.7599C28.1796 25.1999 28.5396 25.5599 28.9796 25.5599C29.4196 25.5599 29.7796 25.1999 29.7796 24.7599V15.6299C29.7796 15.6299 29.7996 14.2199 31.3296 14.1799C32.1396 14.1799 32.7896 14.8299 32.7896 15.6299V25.2199C32.7896 25.6599 33.1496 26.0199 33.5896 26.0199C34.0296 26.0199 34.3896 25.6599 34.3896 25.2199V19.2399C34.3896 19.2399 34.4496 17.7899 35.9396 17.7899V17.7799Z" fill="black"/>
<path d="M16.7302 22.6398C15.3402 24.6798 12.7902 27.1798 8.4502 28.1198L8.5102 28.2398C8.8002 28.7898 9.1302 29.3198 9.4902 29.8398L10.4202 31.1898C11.5502 31.8198 12.7602 32.3098 14.0202 32.6398L14.6102 32.7898L12.7102 31.0398C11.9502 30.1598 12.1102 28.7298 12.1102 28.7198C12.2802 27.6198 13.0402 26.6898 14.0802 26.3098C14.9802 26.0398 15.9702 26.1398 16.7702 26.5798L18.9602 28.1998V17.5898L18.6602 18.5598C18.2102 19.9998 17.5602 21.3698 16.7102 22.6298L16.7302 22.6398Z" fill="#FFD55D"/>
<path d="M7.71046 26.5001L7.77046 26.6601C9.82046 26.2801 11.6104 25.4801 13.0904 24.2801L13.2704 24.1301L13.0604 24.0201C11.9204 23.4401 10.8204 22.7501 9.81046 21.9801C8.59046 21.0501 7.48046 20.0101 6.48046 18.8901C6.32046 21.4801 6.74046 24.1001 7.71046 26.5001Z" fill="#FFD55D"/>
<path d="M6.72973 16.7201C9.71973 20.5101 13.1497 22.3201 14.3897 22.8801L14.4897 22.9301L14.5597 22.8401C14.8597 22.4901 15.1497 22.1201 15.4097 21.7401C16.2997 20.4201 16.9497 18.9801 17.3397 17.4401L17.3697 17.3201L17.2597 17.2601C14.0197 15.6401 11.5697 12.9101 10.1597 9.36006C10.1597 9.34006 10.1497 9.32006 10.1397 9.31006C8.58973 11.2801 7.45973 13.5901 6.87973 16.0301L6.71973 16.7201H6.72973Z" fill="#FFD55D"/>
<path d="M25.6096 5.95988C23.9296 6.14988 22.2196 6.54988 20.3296 7.18988C20.0796 7.26988 19.8696 7.26988 19.6896 7.18988C19.4096 7.04988 19.2996 6.73988 19.2996 6.72988C19.2296 6.52988 19.2296 6.30988 19.3196 6.11988C19.4096 5.92988 19.5696 5.77988 19.7696 5.69988C21.3296 5.11988 22.9596 4.70988 24.6096 4.46988L25.0996 4.39988L24.6596 4.17988C23.3796 3.54988 22.0296 3.12988 20.6596 2.87988L19.0196 3.33988C16.2996 4.10988 13.7896 5.54988 11.7596 7.50988L11.3496 7.89988C11.4496 8.20988 11.5596 8.51988 11.6796 8.82988C11.8496 9.23988 12.0296 9.63988 12.2096 10.0099L12.2996 10.1899L12.4496 10.0599C13.5696 9.06988 14.7796 8.18988 16.0796 7.43988C16.2596 7.33988 16.4796 7.30988 16.6896 7.35988C16.8996 7.41988 17.0696 7.54988 17.1696 7.72988C17.3896 8.10988 17.2596 8.59988 16.8796 8.81988C15.5696 9.57988 14.3396 10.4799 13.2396 11.4999L13.1396 11.5899L13.2096 11.6999C14.4296 13.4799 16.0996 14.9099 18.0496 15.8599L18.1396 15.8999L18.2196 15.8299C18.4696 15.6099 18.7196 15.3999 18.9796 15.2099L19.0296 15.1699V15.1099C19.2896 13.6399 20.5596 12.5699 22.0496 12.5699H22.0796C22.8796 12.5699 23.3696 12.8299 23.3796 12.8299L23.6096 12.9499V12.6899C23.6096 11.0099 24.9796 9.63988 26.6596 9.63988C27.0696 9.64988 27.4196 9.70988 27.7296 9.80988C27.2596 8.60988 26.6596 7.46988 25.9396 6.39988L25.6296 5.94988L25.6096 5.95988Z" fill="#FFD55D"/>
<path d="M3.09032 14.04L3.00032 14.43C2.11032 18.24 2.71032 22.2 4.69032 25.57C4.94032 26 5.22032 26.43 5.52032 26.84L5.57032 26.91H5.65032C6.38032 26.87 7.09032 26.79 7.77032 26.66L7.71032 26.5C6.74032 24.1 6.32032 21.47 6.48032 18.89C5.26032 17.53 4.18032 16.03 3.29032 14.4L3.10032 14.05L3.09032 14.04Z" fill="#F7DFA4"/>
<path d="M8.52031 28.2401L8.46031 28.1201C8.03031 28.2101 7.60031 28.3101 7.13031 28.3701L6.82031 28.4101L7.04031 28.6301C8.05031 29.6401 9.19031 30.5001 10.4203 31.1901L9.49031 29.8401C9.14031 29.3301 8.81031 28.7901 8.51031 28.2401H8.52031Z" fill="#F7DFA4"/>
<path d="M9.09031 5.37012L8.89031 5.52012C6.67031 7.13012 4.93031 9.31012 3.85031 11.8301L3.82031 11.8901L3.85031 11.9501C4.68031 13.8101 5.67031 15.3901 6.73031 16.7301L6.89031 16.0401C7.47031 13.6001 8.60031 11.2901 10.1503 9.32012C9.69031 8.13012 9.34031 6.89012 9.14031 5.63012L9.10031 5.39012L9.09031 5.37012Z" fill="#F7DFA4"/>
<path d="M19.0096 3.3498L20.6496 2.8898C17.2896 2.2698 13.7696 2.7698 10.6896 4.4098L10.5996 4.4598V4.5598C10.7396 5.6998 10.9896 6.8298 11.3496 7.9198L11.7596 7.5298C13.7896 5.5698 16.2996 4.1298 19.0196 3.3598L19.0096 3.3498Z" fill="#F7DFA4"/>
<path opacity="0.2" d="M32.6399 12.3901C32.3299 11.5801 31.9499 10.7901 31.5199 10.0501C30.5299 8.35006 29.2399 6.88006 27.6999 5.67006L27.5499 5.56006H27.3599C26.9999 5.58006 26.6399 5.60006 26.2899 5.63006L25.4199 5.70006L25.5999 5.97006C26.1499 5.91006 26.6899 5.87006 27.2299 5.85006H27.2899L27.3299 5.88006C29.4999 7.59006 31.1699 9.87006 32.1599 12.4501L32.2599 12.7201L31.9799 12.6601C31.3199 12.5101 30.6199 12.5801 29.9999 12.8501L29.7799 12.9501V12.7101C29.7799 12.6101 29.7599 10.4601 27.6999 9.83006C27.7299 9.91006 27.7699 10.0001 27.7999 10.0801L27.8699 10.2801L28.0599 10.3701C29.5399 11.0301 29.5499 12.7101 29.5499 12.7801V13.5701L30.2699 13.2501C30.8199 13.0101 31.4399 12.9401 32.0299 13.0801L32.9599 13.2901L32.6199 12.4001L32.6399 12.3901Z" fill="#160204"/>
<path d="M29.7904 12.6998V12.9398L30.0104 12.8398C30.6304 12.5698 31.3304 12.4998 31.9904 12.6498L32.2704 12.7098L32.1704 12.4398C31.1904 9.84984 29.5204 7.57984 27.3404 5.86984L27.3004 5.83984H27.2404C26.7004 5.85984 26.1604 5.89984 25.6104 5.95984L25.9204 6.40984C26.6404 7.46984 27.2404 8.61984 27.7104 9.81984C29.7703 10.4498 29.7904 12.5898 29.7904 12.6998Z" fill="#FF8D5C"/>
<path d="M29.7904 12.6998V12.9398L30.0104 12.8398C30.6304 12.5698 31.3304 12.4998 31.9904 12.6498L32.2704 12.7098L32.1704 12.4398C31.1904 9.84984 29.5204 7.57984 27.3404 5.86984L27.3004 5.83984H27.2404C26.7004 5.85984 26.1604 5.89984 25.6104 5.95984L25.9204 6.40984C26.6404 7.46984 27.2404 8.61984 27.7104 9.81984C29.7703 10.4498 29.7904 12.5898 29.7904 12.6998Z" fill="#FFC239"/>
</g>
</svg>
