<svg width="40" height="40" viewBox="0 0 40 40" fill="none" xmlns="http://www.w3.org/2000/svg">
<path d="M16.7764 28.096L34.668 18.042L37.4735 19.2601L36.9943 22.4849L18.264 29.5737L16.7864 28.096H16.7764Z" fill="#B1E4F9"/>
<path d="M15.1887 26.509L31.2731 13.3799L34.6578 14.4382V18.0325L16.7662 28.0865L15.1787 26.4991L15.1887 26.509Z" fill="#D3EFFB"/>
<path d="M11.9054 23.224L21.9594 5.3324L20.7413 2.52686L17.5165 3.00611L10.4277 21.7363L11.9054 23.214V23.224Z" fill="#B1E4F9"/>
<path d="M13.4916 24.8109L26.6207 8.7264L25.5624 5.3418H21.9681L11.9141 23.2334L13.5015 24.8208L13.4916 24.8109Z" fill="#D3EFFB"/>
<path d="M14.0206 35.5042C11.3948 38.13 7.12157 38.13 4.49574 35.5042C1.86991 32.8784 1.86991 28.6052 4.49574 25.9793L7.88036 22.5947L17.4052 32.1196L14.0206 35.5042Z" fill="#F4FBFF"/>
<path d="M15.8679 30.5811L12.4833 33.9657C10.1171 36.3319 6.42292 36.5715 3.78711 34.6746C3.99678 34.9641 4.22642 35.2436 4.49599 35.5032C7.12182 38.1291 11.395 38.1291 14.0209 35.5032L17.4055 32.1186L15.8679 30.5811Z" fill="#D3EFFB"/>
<path d="M14.021 35.5044L4.49609 25.9795L6.19339 24.2822L15.7183 33.8071L14.021 35.5044Z" fill="#E490B7"/>
<path d="M12.4834 33.9668L14.0209 35.5044L15.7183 33.8071L14.1807 32.2695L12.4834 33.9668Z" fill="#DF75A5"/>
<path d="M14.3408 25.6597L13.4922 24.811L26.6213 8.72656L30.5351 9.46541L31.2739 13.3792L15.1895 26.5083L14.3408 25.6597Z" fill="#F4FBFF"/>
<path d="M18.2543 30.1031C18.1145 30.1031 17.9848 30.0532 17.8849 29.9534L16.4073 28.4757C16.1976 28.266 16.1976 27.9366 16.4073 27.7269C16.6169 27.5172 16.9464 27.5172 17.1561 27.7269L18.3941 28.9649L36.5253 22.1058L36.8947 19.5798L34.4586 18.5215C34.189 18.4017 34.0692 18.0922 34.189 17.8326C34.3088 17.563 34.6083 17.4432 34.8779 17.563L37.6834 18.7811C37.9031 18.871 38.0329 19.1106 37.993 19.3402L37.5137 22.5651C37.4838 22.7548 37.354 22.9145 37.1743 22.9844L18.444 30.0732C18.3841 30.0931 18.3242 30.1031 18.2543 30.1031Z" fill="black"/>
<path d="M16.7772 28.6148C16.6374 28.6148 16.5077 28.5649 16.4078 28.465L14.8203 26.8775C14.6107 26.6678 14.6107 26.3384 14.8203 26.1287C15.03 25.919 15.3595 25.919 15.5691 26.1287L16.8771 27.4367L23.7561 23.5728C24.0157 23.433 24.3352 23.5229 24.475 23.7725C24.6148 24.0221 24.5249 24.3515 24.2753 24.4913L17.0468 28.5549C16.9669 28.6048 16.8771 28.6247 16.7872 28.6247L16.7772 28.6148Z" fill="black"/>
<path d="M26.1414 23.3536C25.9617 23.3536 25.782 23.2538 25.6821 23.0841C25.5424 22.8345 25.6322 22.505 25.8818 22.3652L34.1287 17.7326V14.8272L31.1135 13.8887C30.834 13.7988 30.6842 13.5093 30.7641 13.2297C30.8539 12.9502 31.1435 12.8004 31.423 12.8803L34.8076 13.9386C35.0273 14.0085 35.1771 14.2082 35.1771 14.4378V18.0321C35.1771 18.2218 35.0772 18.4015 34.9075 18.4914L26.391 23.2738C26.3111 23.3237 26.2213 23.3437 26.1314 23.3437L26.1414 23.3536Z" fill="black"/>
<path d="M14.4993 29.7331C14.3595 29.7331 14.2297 29.6832 14.1299 29.5834C13.9202 29.3737 13.9202 29.0442 14.1299 28.8345L15.8272 27.1372C16.0369 26.9276 16.3664 26.9276 16.576 27.1372C16.7857 27.3469 16.7857 27.6764 16.576 27.886L14.8787 29.5834C14.7789 29.6832 14.6391 29.7331 14.5093 29.7331H14.4993Z" fill="black"/>
<path d="M16.5569 31.8C16.4172 31.8 16.2874 31.7501 16.1875 31.6502C15.9779 31.4406 15.9779 31.1111 16.1875 30.9014L17.8848 29.2041C18.0945 28.9945 18.424 28.9945 18.6336 29.2041C18.8433 29.4138 18.8433 29.7433 18.6336 29.9529L16.9363 31.6502C16.8365 31.7501 16.6967 31.8 16.5669 31.8H16.5569Z" fill="black"/>
<path d="M11.9045 23.753C11.7648 23.753 11.635 23.703 11.5351 23.6032L10.0575 22.1256C9.9077 21.9758 9.86776 21.7561 9.93765 21.5665L14.4305 9.69529C14.5304 9.42572 14.8399 9.28595 15.1094 9.38579C15.379 9.48563 15.5188 9.79513 15.4189 10.0647L11.0459 21.6164L12.2839 22.8544C12.4936 23.064 12.4936 23.3935 12.2839 23.6032C12.1841 23.703 12.0443 23.753 11.9145 23.753H11.9045Z" fill="black"/>
<path d="M15.7883 8.09748C15.7284 8.09748 15.6585 8.0875 15.5986 8.06753C15.329 7.96769 15.1893 7.65819 15.2891 7.38862L17.0164 2.82586C17.0862 2.64615 17.246 2.51636 17.4357 2.4864L20.6606 2.00718C20.9002 1.96725 21.1298 2.09704 21.2197 2.31669L22.4378 5.12223C22.5576 5.3918 22.4378 5.70131 22.1682 5.81114C21.8986 5.93095 21.5891 5.81112 21.4793 5.54155L20.421 3.10541L17.895 3.47485L16.2775 7.74806C16.1977 7.95773 15.998 8.08752 15.7883 8.08752V8.09748Z" fill="black"/>
<path d="M13.4913 25.3409C13.3516 25.3409 13.2218 25.2909 13.1219 25.1911L11.5345 23.6036C11.3647 23.4339 11.3348 23.1743 11.4446 22.9746L21.4986 5.08304C21.5885 4.91331 21.7682 4.81348 21.9579 4.81348H25.5522C25.7818 4.81348 25.9915 4.96323 26.0514 5.18288L27.1097 8.56749C27.1996 8.84705 27.0398 9.13659 26.7603 9.22645C26.4807 9.31631 26.1912 9.15655 26.1013 8.877L25.1628 5.8618H22.2574L12.5528 23.1343L13.8608 24.4423C14.0704 24.652 14.0704 24.9814 13.8608 25.1911C13.7609 25.2909 13.6211 25.3409 13.4913 25.3409Z" fill="black"/>
<path d="M10.7952 26.0295C10.6554 26.0295 10.5256 25.9796 10.4258 25.8797C10.2161 25.67 10.2161 25.3406 10.4258 25.1309L12.1231 23.4336C12.3328 23.224 12.6623 23.224 12.8719 23.4336C13.0816 23.6433 13.0816 23.9728 12.8719 24.1824L11.1746 25.8797C11.0748 25.9796 10.935 26.0295 10.8052 26.0295H10.7952Z" fill="black"/>
<path d="M8.72979 23.9621C8.59001 23.9621 8.46022 23.9122 8.36038 23.8124C8.15071 23.6027 8.15071 23.2732 8.36038 23.0636L10.0577 21.3662C10.2674 21.1566 10.5968 21.1566 10.8065 21.3662C11.0162 21.5759 11.0162 21.9054 10.8065 22.115L9.10919 23.8124C9.00934 23.9122 8.86957 23.9621 8.73978 23.9621H8.72979Z" fill="black"/>
<path d="M15.7185 34.3356C15.5787 34.3356 15.449 34.2857 15.3491 34.1858L5.82424 24.6609C5.61458 24.4513 5.61458 24.1218 5.82424 23.9121C6.03391 23.7025 6.36339 23.7025 6.57305 23.9121L16.0979 33.437C16.3076 33.6467 16.3076 33.9762 16.0979 34.1858C15.9981 34.2857 15.8583 34.3356 15.7285 34.3356H15.7185Z" fill="black"/>
<path d="M9.84788 31.8497C9.70811 31.8497 9.57832 31.7998 9.47848 31.7L4.12698 26.3484C3.91731 26.1388 3.91731 25.8093 4.12698 25.5996C4.33664 25.39 4.66612 25.39 4.87579 25.5996L10.2273 30.9511C10.437 31.1608 10.437 31.4903 10.2273 31.7C10.1274 31.7998 9.98766 31.8497 9.85787 31.8497H9.84788Z" fill="black"/>
<path d="M14.0214 36.0335C13.8816 36.0335 13.7518 35.9835 13.652 35.8837L11.2158 33.4476C11.0062 33.2379 11.0062 32.9084 11.2158 32.6988C11.4255 32.4891 11.755 32.4891 11.9647 32.6988L14.4008 35.1349C14.6105 35.3446 14.6105 35.674 14.4008 35.8837C14.3009 35.9835 14.1612 36.0335 14.0314 36.0335H14.0214Z" fill="black"/>
<path d="M15.1892 27.0273C15.0494 27.0273 14.9196 26.9774 14.8198 26.8776L13.9711 26.0289L13.1225 25.1803C12.9328 24.9906 12.9128 24.6811 13.0825 24.4714L26.2117 8.38694C26.3315 8.23718 26.5312 8.16729 26.7209 8.19724L30.6347 8.93605C30.8443 8.97599 31.0141 9.14573 31.054 9.3554L31.7928 13.2692C31.8328 13.4589 31.7529 13.6486 31.6031 13.7784L15.5187 26.9075C15.4188 26.9874 15.299 27.0273 15.1892 27.0273ZM14.7199 25.2801L15.2291 25.7893L30.7046 13.1594L30.0855 9.90452L26.8307 9.28551L14.2008 24.7609L14.71 25.2701L14.7199 25.2801Z" fill="black"/>
<path d="M12.6429 27.8771C12.5031 27.8771 12.3733 27.8272 12.2735 27.7274C12.0638 27.5177 12.0638 27.1882 12.2735 26.9786L13.9708 25.2813C14.1804 25.0716 14.5099 25.0716 14.7196 25.2813C14.9292 25.4909 14.9292 25.8204 14.7196 26.0301L13.0223 27.7274C12.9224 27.8272 12.7827 27.8771 12.6529 27.8771H12.6429Z" fill="black"/>
<path d="M9.25847 38.0003C7.40142 38.0003 5.53439 37.2914 4.12662 35.8737C1.29113 33.0382 1.29113 28.4355 4.12662 25.6L7.51124 22.2154C7.72091 22.0057 8.05039 22.0057 8.26005 22.2154L17.7849 31.7402C17.9946 31.9499 17.9946 32.2794 17.7849 32.489L14.4003 35.8737C12.9826 37.2914 11.1255 38.0003 9.26845 38.0003H9.25847ZM7.88066 23.3336L4.86545 26.3488C2.44928 28.7649 2.44928 32.7087 4.86545 35.1248C7.28161 37.541 11.2253 37.551 13.6415 35.1248L16.6567 32.1096L7.88066 23.3336Z" fill="black"/>
</svg>
