<svg width="40" height="40" viewBox="0 0 40 40" fill="none" xmlns="http://www.w3.org/2000/svg">
<path d="M31.3777 28.7166C34.3734 25.6761 35.9636 21.572 35.7687 17.3574C33.2038 17.4377 29.0795 18.391 24.7295 22.6457L30.9365 28.7166H31.3879H31.3777Z" fill="#D75C2F"/>
<path d="M30.9271 28.7164L24.7201 22.6455C22.8939 24.3715 21.4268 26.4386 20.4111 28.7164H30.9271Z" fill="#E77132"/>
<path d="M19.3135 33.4529C22.5247 33.5933 25.6949 32.7705 28.4137 31.0947H19.6418C19.4571 31.8674 19.3545 32.6601 19.3237 33.4529H19.3135Z" fill="#D75C2F"/>
<path d="M20.41 28.7162C21.4257 26.4383 22.8928 24.3712 24.719 22.6452L19.9996 18.0293L9.07324 28.7162H20.41Z" fill="#D75C2F"/>
<path d="M11.6182 31.0947C13.9266 32.5196 16.5838 33.3324 19.3128 33.4529C19.3436 32.6601 19.4564 31.8674 19.6308 31.0947H11.6182Z" fill="#C34F32"/>
<path d="M19.9988 18.029L15.2795 13.4131C10.9294 17.6678 6.80511 18.621 4.24023 18.7013C4.40439 22.4543 5.97409 26.0166 8.64156 28.7159H9.08272L20.0091 18.029H19.9988Z" fill="#E77132"/>
<path d="M35.173 28.7168H4.81511C4.14825 28.7168 3.60449 29.2486 3.60449 29.9009C3.60449 30.5531 4.14825 31.085 4.81511 31.085H35.173C35.8399 31.085 36.3836 30.5531 36.3836 29.9009C36.3836 29.2486 35.8399 28.7168 35.173 28.7168Z" fill="#ADADAD"/>
<path d="M31.1521 7.12207C33.9529 9.85148 35.5944 13.5041 35.7586 17.3674C33.1937 17.4477 29.0694 18.401 24.7194 22.6556L20 18.0397L31.1623 7.12207H31.1521Z" fill="#E77132"/>
<path d="M20.688 2.61621C24.6379 2.77676 28.3724 4.39234 31.163 7.12175L20.0006 18.0394L15.2812 13.4235C19.6313 9.16881 20.6059 5.1349 20.688 2.62625V2.61621Z" fill="#D75C2F"/>
<path d="M8.83789 7.12166C11.9568 4.05107 16.2658 2.41543 20.6876 2.61613C20.6055 5.12478 19.6309 9.15869 15.2809 13.4134L8.84815 7.12166H8.83789Z" fill="#E77132"/>
<path d="M8.83727 7.12207L15.27 13.4138C10.92 17.6684 6.79563 18.6217 4.23075 18.702C4.02556 14.3771 5.69786 10.1726 8.83727 7.12207Z" fill="#D75C2F"/>
<path d="M28.6484 26.4992L30.926 28.7268H31.3775C33.9116 26.158 35.4505 22.7964 35.7275 19.2441C34.1578 22.2947 31.6955 24.8234 28.6484 26.5092V26.4992Z" fill="#C34F32"/>
<path d="M20.4111 28.7059L30.9271 28.716L28.6495 26.4883C26.1359 27.8831 23.3043 28.6457 20.4111 28.7059Z" fill="#D75C2F"/>
<path d="M9.07324 28.716H19.9996C16.9628 28.716 13.9875 27.9533 11.3509 26.4883L9.07324 28.716Z" fill="#C34F32"/>
<path d="M4.2832 19.2529C4.57047 22.8052 6.09914 26.1467 8.63323 28.7156H9.07439L11.352 26.4879C8.31519 24.8121 5.86317 22.2934 4.29346 19.2529H4.2832Z" fill="#D75C2F"/>
<path d="M6.99159 13.0624C6.86847 13.3634 7.02237 13.7147 7.34041 13.8351C7.6482 13.9555 8.00728 13.805 8.13039 13.4939C8.77674 11.8884 9.75139 10.4333 10.9928 9.20912L10.131 8.36621C8.76648 9.70081 7.69949 11.2963 6.99159 13.0524V13.0624Z" fill="#E97F4D"/>
<path d="M15.712 5.64701C15.5889 5.34598 15.2401 5.18542 14.922 5.30584C13.1266 5.99822 11.4954 7.04182 10.1309 8.37643L10.9927 9.21933C12.2341 7.99511 13.7319 7.04182 15.3735 6.41968C15.6915 6.29926 15.8454 5.95809 15.7223 5.65705L15.712 5.64701Z" fill="#EEA480"/>
<path d="M17.5682 5.56592C17.9025 5.56592 18.1735 5.30085 18.1735 4.97388C18.1735 4.6469 17.9025 4.38184 17.5682 4.38184C17.2339 4.38184 16.9629 4.6469 16.9629 4.97388C16.9629 5.30085 17.2339 5.56592 17.5682 5.56592Z" fill="#EEA480"/>
<path d="M37 29.9106C37 28.9272 36.1895 28.1244 35.1738 28.1244H32.7218C35.2661 25.094 36.5588 21.2507 36.3742 17.3372C35.9946 9.02857 29.2028 2.38566 20.7079 2.01438C11.659 1.6431 4.01569 8.50677 3.62583 17.3473C3.60531 17.8089 3.60531 18.2604 3.62583 18.722C3.77972 22.1639 5.06216 25.4653 7.27821 28.1244H4.81593C3.82076 28.1244 3 28.9172 3 29.9006C3 30.6531 3.4822 31.3255 4.21062 31.5763V32.2788C4.21062 33.0615 4.74412 33.7538 5.51358 33.9746L6.64212 39.5137C6.70368 39.7947 6.94991 39.9853 7.23718 39.9853C7.27821 39.9853 7.31925 39.9853 7.36029 39.9753C7.68859 39.9051 7.90404 39.594 7.83223 39.2729L7.08328 35.6203C7.99638 36.5134 9.207 37.4165 10.4792 37.577L11.5462 39.6542C11.7001 39.9452 12.0591 40.0656 12.3567 39.9251C12.6542 39.7746 12.7773 39.4234 12.6337 39.1324L11.7924 37.4867C13.2492 37.0552 14.4086 35.6905 15.0754 34.7272C15.8346 36.0217 17.0658 36.985 18.5226 37.4265L16.5836 38.9417C16.3168 39.1424 16.2758 39.5237 16.4912 39.7746C16.6964 40.0355 17.0863 40.0756 17.3428 39.8649L20 37.7878L22.6572 39.8649C22.924 40.0656 23.3036 40.0255 23.5088 39.7746C23.7139 39.5137 23.6729 39.1424 23.4164 38.9417L21.4774 37.4265C22.9342 36.985 24.1654 36.0217 24.9246 34.7272C25.5812 35.6905 26.7405 37.0552 28.2076 37.4867L27.3663 39.1424C27.2124 39.4334 27.3355 39.7947 27.6433 39.9352C27.9409 40.0857 28.3102 39.9653 28.4538 39.6642L29.5208 37.5871C30.8033 37.4265 32.0139 36.5234 32.9167 35.6303L32.1678 39.2729C32.096 39.594 32.3114 39.9051 32.6397 39.9753C32.6807 39.9753 32.7218 39.9853 32.7628 39.9853C33.0501 39.9853 33.2963 39.7846 33.3579 39.5137L34.4864 33.9746C35.2559 33.7538 35.7894 33.0615 35.7894 32.2687V31.5663C36.5178 31.3154 37 30.6431 37 29.8905V29.9106ZM31.111 28.1244H21.3543C22.2366 26.4286 23.3754 24.8632 24.7296 23.4985L28.064 26.7597C28.3102 26.9905 28.6898 26.9805 28.9258 26.7497C29.1515 26.5189 29.1515 26.1576 28.9258 25.9268L25.5914 22.6656C29.2746 19.2338 32.732 18.2002 35.1738 17.9995C35.2046 21.7625 33.7477 25.395 31.111 28.1345V28.1244ZM21.2517 3.25867C24.6168 3.52961 27.7972 4.89431 30.28 7.14206L20 17.1967L16.1219 13.4037C19.8974 9.5303 21.026 5.86767 21.2517 3.25867ZM31.1316 7.97494C33.4297 10.4033 34.825 13.504 35.102 16.8054C32.4448 17.0262 28.6898 18.13 24.7296 21.8227L20.8515 18.0296L31.1316 7.97494ZM20.041 3.19846C19.8358 5.5867 18.7689 8.95833 15.2704 12.5708L9.70972 7.13203C12.5208 4.59327 16.2142 3.18843 20.041 3.19846ZM8.84792 7.9649L14.4086 13.3936C10.7254 16.8255 7.26795 17.859 4.82619 18.0597C4.82619 14.3168 6.25226 10.7144 8.84792 7.95487V7.9649ZM4.88775 19.2538C7.54496 19.0431 11.2999 17.9293 15.2601 14.2365L19.1382 18.0296L11.064 25.9268C10.8177 26.1576 10.8177 26.5289 11.0537 26.7698C11.2897 27.0106 11.6693 27.0106 11.9155 26.7798C11.9155 26.7798 11.9155 26.7798 11.9258 26.7698L20 18.8725L23.8781 22.6656C22.2879 24.2611 20.9849 26.1075 20.0308 28.1345H8.88896C6.57031 25.7061 5.16476 22.5753 4.88775 19.2639V19.2538ZM5.42124 31.6867H6.63186V32.2788C6.63186 32.6099 6.36512 32.8708 6.02655 32.8708C5.68799 32.8708 5.42124 32.6099 5.42124 32.2788V31.6867ZM10.8896 36.4331C9.48401 36.4331 7.89378 34.8476 7.02173 33.7739C7.54496 33.4428 7.85275 32.8808 7.86301 32.2788V31.6867H13.3313V32.2788C13.3313 32.9109 13.6801 33.503 14.2547 33.8141C13.5776 34.8777 12.2849 36.4331 10.9101 36.4331H10.8896ZM15.7423 31.6867V32.2788C15.7423 32.6099 15.4756 32.8708 15.137 32.8708C14.7984 32.8708 14.5317 32.6099 14.5317 32.2788V31.6867H15.7423ZM19.9897 36.4331C18.2559 36.3929 16.6964 35.3895 15.968 33.8542C16.5733 33.5532 16.9529 32.941 16.9529 32.2788V31.6867H18.892C18.8202 32.068 18.7791 32.4393 18.7483 32.8106C18.5739 32.8006 18.4098 32.7905 18.2354 32.7705C17.8968 32.7403 17.6095 32.9812 17.5788 33.3123C17.548 33.6234 17.7737 33.9044 18.102 33.9545C18.4919 33.9947 18.892 34.0248 19.2818 34.0448H19.3126C19.5486 34.0549 19.7743 34.0649 20.0103 34.0649C20.6361 34.0649 21.2619 34.0348 21.8877 33.9646C22.2161 33.9244 22.4623 33.6334 22.4212 33.3023C22.3802 32.9812 22.0827 32.7403 21.7441 32.7805C21.1491 32.8407 20.5643 32.8708 19.9692 32.8708C20 32.4794 20.0616 32.0881 20.1334 31.6967H23.0266V32.2888C23.0266 32.9511 23.4062 33.5632 24.0115 33.8642C23.283 35.4096 21.7236 36.413 19.9897 36.4431V36.4331ZM25.4581 31.6867V32.2788C25.4581 32.6099 25.1913 32.8708 24.8527 32.8708C24.5142 32.8708 24.2474 32.6099 24.2474 32.2788V31.6867H25.4581ZM29.1002 36.4331C27.7254 36.4331 26.4327 34.8777 25.7556 33.8141C26.3199 33.503 26.6687 32.9109 26.6789 32.2788V31.6867H32.1473V32.2788C32.1473 32.8808 32.4653 33.4428 32.9885 33.7739C32.1062 34.8576 30.516 36.4331 29.1207 36.4331H29.1002ZM33.9529 32.8708C33.6144 32.8708 33.3476 32.6099 33.3476 32.2788V31.6867H34.5582V32.2788C34.5582 32.6099 34.2915 32.8708 33.9529 32.8708ZM35.1636 30.4926H4.81593C4.47737 30.4926 4.21062 30.2317 4.21062 29.9006C4.21062 29.5694 4.47737 29.3085 4.81593 29.3085H35.1738C35.5124 29.3085 35.7791 29.5694 35.7791 29.9006C35.7791 30.2317 35.5124 30.4926 35.1738 30.4926H35.1636Z" fill="#0D0D0D"/>
</svg>
