<svg width="40" height="40" viewBox="0 0 40 40" fill="none" xmlns="http://www.w3.org/2000/svg">
<g clip-path="url(#clip0_225_10356)">
<path d="M5.29276 24.5694L4.90234 21.9897L34.7076 17.0513L35.098 19.6309L5.29276 24.5694Z" fill="#F1F1F4"/>
<path d="M27.8982 20.8254L27.5078 18.2457L29.9551 17.8442L30.3455 20.4239L27.8982 20.8254Z" fill="#FE5694"/>
<path d="M9.64433 23.8556L9.25391 21.276L11.7012 20.8745L12.0916 23.4541L9.64433 23.8556Z" fill="#FE5694"/>
<path d="M15.6717 22.8529L15.2812 20.2732L23.9372 18.8379L24.3276 21.4175L15.6717 22.8529Z" fill="#FE5694"/>
<path d="M5.76858 24.6014C5.81619 24.9427 5.63527 25.2739 5.33055 25.3944L2.73092 26.4082C1.92152 26.7193 1.03593 26.1773 0.902613 25.284L0.521714 22.7746C0.3884 21.8712 1.06449 21.0682 1.93104 21.1084L4.70207 21.2288C5.02583 21.2389 5.30198 21.4998 5.3496 21.8411L5.76858 24.6215V24.6014Z" fill="#FEE903"/>
<path d="M2.73092 26.3965L5.33055 25.3827C5.63527 25.2623 5.82572 24.9311 5.76858 24.5898L5.61622 23.586L4.31165 24.0879C3.50224 24.3991 2.61665 23.8571 2.48334 22.9637L2.19766 21.0867H1.93104C1.06449 21.0365 0.3884 21.8395 0.521714 22.7429L0.902613 25.2523C1.03593 26.1556 1.92152 26.6977 2.73092 26.3865V26.3965Z" fill="#FED402"/>
<path d="M34.2214 17.0319C34.1738 16.6906 34.3547 16.3594 34.6595 16.2389L37.2591 15.2251C38.0685 14.914 38.9541 15.456 39.0874 16.3493L39.4683 18.8587C39.6016 19.7621 38.9255 20.5651 38.059 20.5249L35.2879 20.4045C34.9642 20.3945 34.688 20.1335 34.6404 19.7922L34.2214 17.0118V17.0319Z" fill="#FEE903"/>
<path d="M34.6412 19.8111C34.6889 20.1523 34.965 20.4033 35.2888 20.4233L38.0598 20.5438C38.9264 20.5839 39.6024 19.7709 39.4691 18.8776L39.3739 18.2352L36.879 18.1248C36.5553 18.1147 36.2791 17.8538 36.2315 17.5125L35.9649 15.7358L34.6698 16.2377C34.3651 16.3582 34.1746 16.6894 34.2318 17.0307L34.6508 19.8111H34.6412Z" fill="#FED402"/>
<path d="M0.407355 25.3539C0.588282 26.5785 1.88333 27.3313 2.91176 26.8997L5.51139 25.8859C5.95894 25.7052 6.197 25.2937 6.26366 24.9524L17.0145 23.1757C17.7382 22.975 17.4049 22.0415 16.8621 22.1218L16.1003 22.2523L15.8718 20.7166L23.5279 19.4518L23.7564 20.9876L19.2713 21.7303C18.5857 21.9211 18.8523 22.8746 19.4237 22.7843L34.2787 20.3251C34.4787 20.6965 34.85 20.9474 35.269 20.9675L38.0401 21.0879C39.2304 21.1682 40.1731 19.9236 39.9731 18.7994L39.5922 16.29C39.4113 15.0655 38.1162 14.3126 37.0878 14.7443C36.8307 14.8446 36.6879 15.1558 36.7926 15.4268C36.8878 15.6978 37.183 15.8484 37.4401 15.738C37.9925 15.5272 38.5257 15.9789 38.5924 16.4506L38.9733 18.96C39.0685 19.5723 38.5448 20.034 38.0877 20.0139L35.3166 19.8935C35.2309 19.8935 35.1548 19.8232 35.1452 19.7329L34.7263 16.9525C34.7167 16.8622 34.7643 16.7718 34.8405 16.7417C35.0976 16.6413 35.2405 16.3302 35.1357 16.0592C35.0405 15.7882 34.7453 15.6376 34.4882 15.748C34.0882 15.8986 33.8121 16.2599 33.7359 16.6815L5.72088 21.3188C5.52091 20.9474 5.14953 20.6965 4.73054 20.6764L1.95951 20.556C0.788252 20.4857 -0.173514 21.7002 0.0264577 22.8445L0.407355 25.3539ZM6.17796 23.8884L5.94942 22.3527L8.84424 21.8709L9.07278 23.4066L6.17796 23.8884ZM10.0726 23.246L9.8441 21.7103L11.301 21.4694L11.5296 23.0051L10.0726 23.246ZM28.3272 20.2247L28.0986 18.689L29.5556 18.4481L29.7841 19.9838L28.3272 20.2247ZM34.0502 19.2812L30.7744 19.8232L30.5459 18.2875L33.8216 17.7455L34.0502 19.2812ZM24.5182 19.2812L27.0988 18.8496L27.3273 20.3853L24.7467 20.8169L24.5182 19.2812ZM15.091 22.4129L12.5104 22.8445L12.2818 21.3088L14.8624 20.8772L15.091 22.4129ZM1.39769 25.1832L1.01679 22.6739C0.940612 22.0415 1.43578 21.5999 1.90238 21.6199L4.67341 21.7404C4.75911 21.7404 4.83529 21.8106 4.84481 21.901L5.2638 24.6814C5.27333 24.7717 5.22571 24.862 5.14953 24.8922L2.54991 25.9059C2.30232 25.9963 2.03569 25.9762 1.81668 25.8357C1.59766 25.6952 1.43578 25.4643 1.39769 25.1933V25.1832Z" fill="black"/>
<path d="M12.5402 33.4751L10.5596 31.8992L28.7474 6.52441L30.7281 8.1003L12.5402 33.4751Z" fill="#F1F1F4"/>
<path d="M15.425 29.4376L13.4443 27.8617L14.9394 25.7739L16.92 27.3498L15.425 29.4376Z" fill="#FE5694"/>
<path d="M26.5666 13.8898L24.5859 12.3139L26.081 10.2261L28.0616 11.802L26.5666 13.8898Z" fill="#FE5694"/>
<path d="M19.1105 24.3101L17.1299 22.7342L22.4148 15.3667L24.3955 16.9426L19.1105 24.3101Z" fill="#FE5694"/>
<path d="M30.5092 8.55139L28.3762 6.85505C28.1191 6.64426 28.0334 6.27288 28.1762 5.96172L29.3761 3.33189C29.757 2.50882 30.7473 2.25788 31.4329 2.80994L33.3564 4.34568C34.0421 4.89774 34.0897 5.97175 33.4421 6.574L31.3758 8.51124C31.1282 8.7421 30.7663 8.75214 30.5092 8.55139Z" fill="#FEE903"/>
<path d="M33.3661 4.34568L31.4426 2.80994C30.757 2.25788 29.7571 2.50882 29.3858 3.33189L29.2715 3.59287L30.7094 4.73714C31.395 5.2892 31.4426 6.36322 30.7951 6.96546L29.7571 7.9391L30.5284 8.55139C30.7856 8.76217 31.1569 8.7421 31.395 8.51124L33.4614 6.574C34.1089 5.97175 34.0708 4.8877 33.3757 4.34568H33.3661Z" fill="#FED402"/>
<path d="M10.7692 31.4368L12.9022 33.1331C13.1593 33.3439 13.245 33.7153 13.1022 34.0264L11.9023 36.6563C11.5214 37.4793 10.5311 37.7303 9.84549 37.1782L7.92196 35.6425C7.23634 35.0904 7.18873 34.0164 7.83626 33.4141L9.90263 31.4769C10.1502 31.246 10.5121 31.236 10.7692 31.4368Z" fill="#FEE903"/>
<path d="M12.902 33.1332L10.769 31.4368C10.5119 31.2261 10.1405 31.2461 9.90245 31.477L8.87402 32.4406L10.2357 33.5246C10.4928 33.7354 10.5785 34.1068 10.4357 34.418L9.35015 36.7868L9.83579 37.1783C10.5214 37.7303 11.5213 37.4794 11.8926 36.6563L13.0925 34.0265C13.2353 33.7153 13.1496 33.344 12.8925 33.1332H12.902Z" fill="#FED402"/>
<path d="M33.67 3.92463L31.7465 2.38889C30.8895 1.66619 29.423 1.97735 28.9278 3.10155L27.728 5.73137C27.5471 6.13287 27.5852 6.5946 27.8042 6.95595L10.7114 30.8151C10.321 30.6946 9.89247 30.7849 9.57823 31.076C9.36873 31.2667 9.34969 31.608 9.54014 31.8288C9.72106 32.0497 10.0448 32.0697 10.2543 31.869C10.321 31.8088 10.4162 31.8088 10.4829 31.869L12.6159 33.5653C12.6825 33.6155 12.7111 33.7159 12.673 33.7962L11.4732 36.426C11.2827 36.8576 10.6447 37.1286 10.1686 36.7572L8.24508 35.2215C7.87371 34.9304 7.74992 34.2278 8.19747 33.8163C8.40697 33.6256 8.42601 33.2843 8.23556 33.0635C8.05464 32.8426 7.73087 32.8226 7.52138 33.0233C6.67388 33.7761 6.69293 35.3319 7.63565 36.0747L9.55918 37.6104C10.3972 38.3231 11.8827 38.042 12.3778 36.8978L13.5777 34.268C13.7586 33.8665 13.7205 33.4047 13.5015 33.0434L24.0333 18.3385C24.3761 17.8466 23.7095 17.144 23.2239 17.6961L19.015 23.568L17.8437 22.6345L22.5192 16.1101L23.6905 17.0436L23.2239 17.6961C22.8906 18.1678 23.5191 18.9206 24.0333 18.3385L30.5943 9.18427C30.9085 9.28464 31.3656 9.25453 31.7274 8.92329L33.7938 6.98606C34.6413 6.23325 34.6223 4.67744 33.6795 3.93466L33.67 3.92463ZM27.9661 11.0613L26.7948 10.1278L28.5565 7.66861L29.7277 8.60209L27.9661 11.0613ZM26.471 13.1491L25.2998 12.2156L26.1854 10.981L27.3566 11.9145L26.471 13.1491ZM15.3298 28.6971L14.1585 27.7637L15.0441 26.529L16.2154 27.4625L15.3298 28.6971ZM11.5494 31.3972L13.5491 28.6068L14.7203 29.5403L12.7206 32.3307L11.5494 31.3972ZM18.396 24.4111L16.8248 26.6093L15.6535 25.6759L17.2248 23.4777L18.396 24.4111ZM23.1191 15.257L24.6903 13.0587L25.8616 13.9922L24.2904 16.1904L23.1191 15.257ZM33.4129 5.4704C33.4224 5.74141 33.3177 6.00239 33.1272 6.1931L31.0609 8.13033C30.9942 8.19056 30.899 8.19056 30.8323 8.13033L28.6993 6.434C28.6326 6.38381 28.6041 6.28344 28.6422 6.20314L29.842 3.57331C30.0515 3.12163 30.6514 2.87069 31.1466 3.24208L33.0701 4.77781C33.2796 4.94845 33.4034 5.19939 33.4129 5.4704Z" fill="black"/>
</g>
<defs>
<clipPath id="clip0_225_10356">
<rect width="40" height="40" fill="white"/>
</clipPath>
</defs>
</svg>
