<svg width="40" height="40" viewBox="0 0 40 40" fill="none" xmlns="http://www.w3.org/2000/svg">
<path d="M37.4196 20.0101C37.3996 25.4901 34.8196 30.6401 30.4496 33.9501C22.7496 39.7201 11.8396 38.1601 6.05962 30.4701C0.289622 22.7701 1.84963 11.8601 9.53963 6.08008C12.5596 3.82008 16.2196 2.6001 19.9896 2.6001C29.7696 2.7201 37.5196 10.4801 37.4096 20.0201L37.4196 20.0101Z" fill="#FFC239"/>
<path d="M19.9997 2.59006C14.9197 2.53006 10.0797 4.74009 6.79973 8.62009C4.03973 17.8401 9.27972 27.56 18.4997 30.32C20.1197 30.8 21.7897 31.0501 23.4797 31.0501C28.5497 31.0601 33.3597 28.8501 36.6597 25.0101C37.1397 23.3901 37.3997 21.7101 37.4097 20.0201C37.5197 10.4801 29.7697 2.72007 19.9897 2.60007L19.9997 2.59006Z" fill="#FFD55D"/>
<path d="M37.4197 20.0101C37.4797 14.5101 34.8897 9.33008 30.4497 6.08008C31.8797 13.0501 30.6297 20.3001 26.9697 26.4001L28.0197 30.4501L33.0697 31.5302C35.8497 28.3402 37.3997 24.2501 37.4297 20.0201L37.4197 20.0101Z" fill="#FFC239"/>
<path d="M25.5195 3.51001V29.91H29.6195C31.1595 29.33 32.6195 28.54 33.9395 27.55C34.9395 26.8 35.8495 25.94 36.6695 24.99C37.1495 23.37 37.4095 21.69 37.4195 20C37.4795 12.49 32.6595 5.82 25.5195 3.5V3.51001Z" fill="#FFD55D"/>
<path d="M30.4301 6.06009C27.4001 3.84009 23.7501 2.62 20.0001 2.59C10.4201 2.55 2.62008 10.28 2.58008 19.86C2.58008 19.91 2.58008 19.96 2.58008 20.01L3.60007 18.9101C8.55007 13.5901 15.6501 10.81 22.9001 11.37C22.9001 11.37 27.4401 8.43005 30.5001 6.39005L30.4401 6.06998L30.4301 6.06009Z" fill="#CCCCCC"/>
<path d="M24.5905 3.23007C23.0905 2.82007 21.5505 2.60006 20.0005 2.59006C14.9205 2.53006 10.0805 4.74009 6.80048 8.62009C5.88048 11.7001 5.83047 14.96 6.64047 18.07H24.5905V3.24008V3.23007Z" fill="#F2F2F2"/>
<path d="M35.07 28.72C29.85 28.46 24.98 26 21.67 21.95L20 20.01L14.46 19.8101L11.29 22.92C15 28.48 20.83 32.28 27.41 33.42L30.45 33.95C32.33 32.54 33.9 30.76 35.07 28.72Z" fill="#CCCCCC"/>
<path d="M21.67 21.95L20 20.01L14.46 19.8101L11.29 22.92C13.4 26.09 16.23 28.72 19.54 30.6C20.83 30.9 22.15 31.05 23.48 31.05C26.73 31.05 29.91 30.1501 32.66 28.4301C28.34 27.6601 24.43 25.36 21.66 21.96L21.67 21.95Z" fill="#F2F2F2"/>
<path d="M22.8998 11.3601C16.9298 10.9201 11.0098 12.7201 6.2998 16.4101C6.7498 19.2001 7.8798 21.8401 9.5798 24.1001C11.2698 22.7701 13.1798 21.7501 15.2198 21.0901L20.0098 20.0101L21.4898 16.8701C22.3698 15.1601 22.8498 13.2801 22.9098 11.3601H22.8998Z" fill="#173E67"/>
<path d="M7.09003 15.8198C6.82003 16.0098 6.55004 16.2099 6.29004 16.4199C6.55004 16.2099 6.82003 16.0198 7.09003 15.8198Z" fill="#FFC239"/>
<path d="M3.60007 18.9001L2.58008 20.0101C2.58008 23.0701 3.38007 26.0701 4.92007 28.7101C6.28007 26.9901 7.85008 25.4401 9.58008 24.1001C7.88008 21.8401 6.75008 19.2002 6.30008 16.4102C5.34008 17.1702 4.44008 18.0001 3.61008 18.9001H3.60007Z" fill="#112F4D"/>
<path d="M10 23.7903C10.12 23.7003 10.24 23.6203 10.36 23.5303C10.24 23.6103 10.12 23.7003 10 23.7903Z" fill="#FFC239"/>
<path d="M10.3594 23.5302C10.7094 23.2802 11.0694 23.0501 11.4294 22.8301C11.0694 23.0501 10.7094 23.2902 10.3594 23.5302Z" fill="#FFC239"/>
<path d="M10.0001 23.79C9.86008 23.89 9.72008 24 9.58008 24.1C9.72008 23.99 9.86008 23.89 10.0001 23.79Z" fill="#FFC239"/>
<path d="M26.9798 26.3901C30.6398 20.2901 31.8898 13.0401 30.4598 6.08008C27.5898 3.97008 24.1598 2.76012 20.5998 2.62012L21.1298 3.6001C23.3798 8.0401 23.5098 13.0001 21.4898 16.8801L20.0098 20.0201L21.6698 21.9601C23.1398 23.7701 24.9398 25.2801 26.9798 26.4001V26.3901Z" fill="#1F5389"/>
<path d="M20 2C10.06 2 2 10.06 2 20C2 29.94 10.06 38 20 38C29.94 38 38 29.94 38 20C37.99 10.06 29.94 2.01 20 2ZM26.76 25.58C24.98 24.53 23.4 23.1601 22.1 21.5601L20.68 19.9L21.99 17.12C24.1 13.08 23.96 7.91004 21.63 3.29004L21.6 3.22998C24.61 3.50998 27.49 4.61002 29.93 6.40002C31.23 12.96 30.11 19.7699 26.77 25.5699L26.76 25.58ZM19.59 19.49L15.03 20.52C10.66 21.87 7.25 25.02 5.01 27.66C3.82 25.35 3.19 22.8 3.16 20.21L4.02 19.28C8.72 14.26 15.4 11.56 22.27 11.9C22.15 13.54 21.7 15.14 20.95 16.61L19.59 19.49ZM20 3.15002C20.08 3.15002 20.16 3.15002 20.24 3.15002L20.6 3.81995C21.7 5.95995 22.29 8.31998 22.32 10.73C15.14 10.38 8.17 13.19 3.24 18.41C4.06 9.76003 11.32 3.15001 20 3.14001V3.15002ZM5.62 28.75C7.2 26.8 9.05 25.0901 11.13 23.6801C14.95 29.1201 20.76 32.82 27.31 33.97L28.94 34.25C21.08 39.19 10.7 36.82 5.76 28.96C5.72 28.89 5.67 28.82 5.63 28.75H5.62ZM30.28 33.3101L27.5 32.83C21.28 31.73 15.75 28.2299 12.11 23.0699C13.13 22.4799 14.21 22 15.33 21.65L19.78 20.64L21.21 22.3C24.42 26.21 29.05 28.69 34.08 29.2C33.05 30.77 31.76 32.1601 30.28 33.3101ZM34.75 28.09C32.32 27.91 29.95 27.24 27.77 26.14C31.01 20.51 32.25 13.94 31.29 7.52002C37.08 12.75 38.51 21.26 34.75 28.1V28.09Z" fill="black"/>
</svg>
