<svg width="40" height="40" viewBox="0 0 40 40" fill="none" xmlns="http://www.w3.org/2000/svg">
<g clip-path="url(#clip0_225_10327)">
<mask id="mask0_225_10327" style="mask-type:luminance" maskUnits="userSpaceOnUse" x="0" y="0" width="40" height="40">
<path d="M40 0H0V40H40V0Z" fill="white"/>
</mask>
<g mask="url(#mask0_225_10327)">
<path d="M16.0662 5.44434L0.857422 29.611V30.611C0.857422 31.6777 1.71456 32.5443 2.76951 32.5443H2.80248L19.8574 5.44434H16.0552H16.0662Z" fill="#B9D0FC"/>
<path d="M31.5823 5.44434L14.5273 32.5443H15.89L32.9449 5.44434H31.5823Z" fill="#B9D0FC"/>
<path d="M39.1431 7.3889C39.1431 6.32223 38.2859 5.45557 37.231 5.45557H35.22L18.165 32.5556H25.8024L39.1321 11.3667V7.3889H39.1431Z" fill="#B9D0FC"/>
<path d="M29.5061 32.5441H37.2204C38.2753 32.5441 39.1325 31.6775 39.1325 30.6108V17.2441L29.4951 32.5441H29.5061Z" fill="#B9D0FC"/>
<path d="M2.76951 5.44434C1.71456 5.44434 0.857422 6.311 0.857422 7.37767V23.7221L12.3629 5.44434H2.76951Z" fill="#B9D0FC"/>
<path d="M12.3629 5.44434L0.857422 23.7221V29.611L16.0662 5.44434H12.3629Z" fill="#C2D6FF"/>
<path d="M39.1431 11.3555L25.8135 32.5444H29.5058L39.1431 17.2444V11.3555Z" fill="#C2D6FF"/>
<path d="M32.9456 5.44434L15.8906 32.5443H18.1654L35.2203 5.44434H32.9456Z" fill="#C2D6FF"/>
<path d="M19.8577 5.44434L2.80273 32.5443H14.528L31.583 5.44434H19.8577Z" fill="#C2D6FF"/>
<path d="M11.0664 39.0001C13.5279 39.0001 15.5279 36.9779 15.5279 34.489V32.5557H24.462V34.489C24.462 36.9779 26.462 39.0001 28.9235 39.0001H11.0664Z" fill="#DFEAEF"/>
<path d="M2.76951 32.5442C1.71456 32.5442 0.857422 31.6776 0.857422 30.6109V27.3887H39.1431V30.6109C39.1431 31.6776 38.286 32.5442 37.231 32.5442H2.76951Z" fill="#F4FBFF"/>
<path d="M24.758 32.7227H15.1426V35.456H24.758V32.7227Z" fill="#D3E1E5"/>
<path d="M37.2307 4.7998H2.76918C1.36258 4.7998 0.219727 5.95536 0.219727 7.38869V30.6109C0.219727 32.0331 1.36258 33.1887 2.76918 33.1887H14.8901V34.4776C14.8901 36.6109 13.1758 38.3442 11.0659 38.3442C10.7142 38.3442 10.4285 38.6331 10.4285 38.9887C10.4285 39.3442 10.7142 39.6331 11.0659 39.6331H28.934C29.2857 39.6331 29.5714 39.3442 29.5714 38.9887C29.5714 38.6331 29.2857 38.3442 28.934 38.3442C26.8241 38.3442 25.1098 36.6109 25.1098 34.4776V33.1887H37.2307C38.6373 33.1887 39.7802 32.0331 39.7802 30.6109V7.38869C39.7802 5.96647 38.6373 4.81092 37.2307 4.81092V4.7998ZM1.49445 7.38869C1.49445 6.67758 2.06588 6.0998 2.76918 6.0998H37.2197C37.923 6.0998 38.4944 6.67758 38.4944 7.38869V26.7442H1.49445V7.38869ZM25.5604 38.3554H14.4395C15.5384 37.3776 16.1758 35.9665 16.1758 34.4887V33.1998H23.8351V34.4887C23.8351 35.9665 24.4615 37.3776 25.5714 38.3554H25.5604ZM38.5054 30.6109C38.5054 31.322 37.934 31.8998 37.2307 31.8998H2.76918C2.06588 31.8998 1.49445 31.322 1.49445 30.6109V28.0331H38.5054V30.6109Z" fill="#232328"/>
<path d="M28.9341 39.8666H11.0659C10.5934 39.8666 10.2088 39.4778 10.2088 39C10.2088 38.5222 10.5934 38.1333 11.0659 38.1333C13.0549 38.1333 14.6703 36.4889 14.6703 34.4889V33.4222H2.76923C1.24176 33.4222 0 32.1666 0 30.6222V7.38887C0 5.84442 1.24176 4.58887 2.76923 4.58887H37.2308C38.7582 4.58887 40 5.84442 40 7.38887V30.6111C40 32.1555 38.7582 33.4111 37.2308 33.4111H25.3297V34.4778C25.3297 36.4889 26.9451 38.1222 28.9341 38.1222C29.4066 38.1222 29.7912 38.5111 29.7912 38.9889C29.7912 39.4666 29.4066 39.8555 28.9341 39.8555V39.8666ZM2.76923 5.0222C1.48352 5.0222 0.43956 6.07776 0.43956 7.37776V30.6C0.43956 31.9 1.48352 32.9555 2.76923 32.9555H15.1099V34.4666C15.1099 36.7222 13.2967 38.5555 11.0659 38.5555C10.8352 38.5555 10.6484 38.7444 10.6484 38.9778C10.6484 39.2111 10.8352 39.4 11.0659 39.4H28.9341C29.1648 39.4 29.3516 39.2111 29.3516 38.9778C29.3516 38.7444 29.1648 38.5555 28.9341 38.5555C26.7033 38.5555 24.8901 36.7222 24.8901 34.4666V32.9555H37.2308C38.5165 32.9555 39.5604 31.9 39.5604 30.6V7.38887C39.5604 6.08887 38.5165 5.03331 37.2308 5.03331H2.76923V5.0222ZM26.1429 38.5666H13.8571L14.2967 38.1778C15.3516 37.2444 15.956 35.8889 15.956 34.4778V32.9666H24.0549V34.4778C24.0549 35.9 24.6593 37.2444 25.7143 38.1778L26.1538 38.5666H26.1429ZM14.978 38.1222H25.022C24.1209 37.1333 23.6044 35.8333 23.6044 34.4778V33.4111H16.3846V34.4778C16.3846 35.8333 15.8791 37.1333 14.978 38.1222ZM37.2308 32.1111H2.76923C1.94505 32.1111 1.27473 31.4333 1.27473 30.6V27.8H38.7253V30.6C38.7253 31.4333 38.0549 32.1111 37.2308 32.1111ZM1.71429 28.2555V30.6111C1.71429 31.2 2.18681 31.6778 2.76923 31.6778H37.2308C37.8132 31.6778 38.2857 31.2 38.2857 30.6111V28.2555H1.71429ZM38.7253 26.9666H1.27473V7.38887C1.27473 6.55553 1.94505 5.87776 2.76923 5.87776H37.2308C38.0549 5.87776 38.7253 6.55553 38.7253 7.38887V26.9666ZM1.71429 26.5222H38.2857V7.38887C38.2857 6.79998 37.8132 6.3222 37.2308 6.3222H2.76923C2.18681 6.3222 1.71429 6.79998 1.71429 7.38887V26.5222Z" fill="#232328"/>
<path d="M18.0876 30.6112H21.9117C22.2634 30.6112 22.5491 30.3223 22.5491 29.9667C22.5491 29.6112 22.2634 29.3223 21.9117 29.3223H18.0876C17.7359 29.3223 17.4502 29.6112 17.4502 29.9667C17.4502 30.3223 17.7359 30.6112 18.0876 30.6112Z" fill="#232328"/>
<path d="M21.9118 30.8334H18.0876C17.6151 30.8334 17.2305 30.4445 17.2305 29.9668C17.2305 29.489 17.6151 29.1001 18.0876 29.1001H21.9118C22.3843 29.1001 22.7689 29.489 22.7689 29.9668C22.7689 30.4445 22.3843 30.8334 21.9118 30.8334ZM18.0876 29.5445C17.8568 29.5445 17.67 29.7334 17.67 29.9668C17.67 30.2001 17.8568 30.389 18.0876 30.389H21.9118C22.1426 30.389 22.3294 30.2001 22.3294 29.9668C22.3294 29.7334 22.1426 29.5445 21.9118 29.5445H18.0876Z" fill="#232328"/>
</g>
</g>
<defs>
<clipPath id="clip0_225_10327">
<rect width="40" height="40" fill="white"/>
</clipPath>
</defs>
</svg>
