<svg width="40" height="41" viewBox="0 0 40 41" fill="none" xmlns="http://www.w3.org/2000/svg">
<path d="M19.598 8.6632L19.2052 10.5209C19.0778 11.1153 18.7276 11.6247 18.218 11.9537C18.0588 12.0599 17.8783 12.1342 17.6979 12.1979C17.0928 11.6565 16.8062 10.8391 16.9761 10.043L17.3688 8.18532C17.5387 7.38918 18.1331 6.76306 18.908 6.5083C19.046 6.63568 19.1734 6.77359 19.2795 6.94343C19.6086 7.45295 19.7254 8.06876 19.598 8.6632Z" fill="white"/>
<path d="M14.7364 9.57694L14.8107 9.20557L15.9253 9.43907L15.851 9.81044C15.6705 10.6384 15.8191 11.477 16.2119 12.1882C15.1504 11.8167 14.4923 10.7021 14.7364 9.56632V9.57694Z" fill="#BBBAB6"/>
<path d="M17.359 5.9043C17.4227 5.9043 17.4864 5.91493 17.5395 5.92555C16.8813 6.41384 16.4143 7.12496 16.2338 7.95294L16.1595 8.32458L15.0449 8.09108L15.1192 7.71944C15.3421 6.64731 16.2975 5.9043 17.3484 5.9043H17.359Z" fill="#BBBAB6"/>
<path d="M6.45577 10.2247C6.08424 9.89563 6.00993 9.36473 6.27531 9.01443L8.74864 5.80864C8.83356 5.69187 8.97156 5.66013 9.05648 5.64951C9.24755 5.62828 9.45985 5.69189 9.61908 5.82989C9.94815 6.09527 9.9163 6.48813 9.74646 6.73228L8.03743 9.27981L12.0181 12.4431L14.4065 12.3265C14.8736 12.8572 15.4999 13.25 16.2429 13.4092C16.4765 13.4623 16.7206 13.4834 16.9541 13.4834C17.6123 13.4834 18.2492 13.2925 18.8118 12.9316C18.9285 12.8573 19.0241 12.7721 19.1196 12.6872L20.6482 13.3986L22.3891 18.1754L25.563 17.8994C25.8708 17.8676 26.2105 18.0374 26.2848 18.4514C26.3273 18.6531 26.2848 18.8761 26.1681 19.0247C26.115 19.099 26.0195 19.1945 25.8709 19.2157L21.8689 19.8314C21.3063 19.9164 21.0197 19.3323 20.9242 19.0669L19.5442 15.2244L16.9754 21.3706L14.311 24.3322L11.0627 21.1158L11.6041 14.7786L6.44516 10.2247H6.45577Z" fill="white"/>
<path d="M5.20392 28.993L7.8577 28.6426L6.04251 32.4854L4.29102 32.496L5.20392 28.993Z" fill="white"/>
<path d="M5.84093 34.1926C5.84093 34.4792 5.77724 34.8721 5.1828 34.8721H2.17871C2.23179 34.1928 2.81562 33.6406 3.53745 33.6406H5.83032V34.1926H5.84093Z" fill="#BBBAB6"/>
<path d="M8.64431 27.379L6.09668 27.7294L10.5338 22.1777L13.3893 25.0013L8.64431 27.379Z" fill="#BBBAB6"/>
<path d="M15.458 24.7776L17.6978 22.3042L20.5957 22.8987C21.636 23.111 21.9332 23.1852 22.4003 24.6501L19.9588 25.6375L15.4792 24.7882L15.458 24.7776Z" fill="#BBBAB6"/>
<path d="M20.7344 26.5403L22.7088 25.7441L24.3117 31.349L22.592 31.3383L20.7344 26.5403Z" fill="white"/>
<path d="M23.4189 33.7257C22.835 33.7257 22.7607 33.3436 22.7607 33.0464V32.4731H25.5313C26.2531 32.4944 26.8476 33.0357 26.89 33.715H23.4083L23.4189 33.7257Z" fill="#BBBAB6"/>
<path d="M25.4891 31.3489L23.6208 24.8101C22.9627 22.5172 22.4319 22.1031 20.7972 21.7634L18.239 21.2433L19.4703 18.3666L19.8525 19.4387C20.2346 20.5002 21.0838 21.0946 22.0392 20.946L26.0411 20.3305C26.4551 20.2668 26.8372 20.0332 27.092 19.6722C27.2937 19.3962 27.3998 19.0673 27.4211 18.7276L40 14.0993L39.6072 13.0272L27.1663 17.6023C26.816 17.0291 26.1579 16.6894 25.4573 16.7425L23.1538 16.9441L21.5509 12.5495L19.8843 11.7746C20.0648 11.4668 20.2134 11.1272 20.2877 10.7663L20.6805 8.90861C20.8715 8.01694 20.7017 7.10385 20.2028 6.32894C19.7039 5.56465 18.9396 5.034 18.0479 4.84293C16.2009 4.45017 14.3751 5.63905 13.9823 7.48609L13.5895 9.34373C13.4516 9.99126 13.5152 10.6388 13.7275 11.212L12.3794 11.2758L9.55579 9.03585L10.681 7.35884C11.2118 6.57332 11.0525 5.53301 10.3201 4.93856C9.91671 4.60949 9.39657 4.45011 8.89766 4.5138C8.45183 4.56687 8.06968 4.77924 7.81491 5.10831L5.34159 8.3141C4.70469 9.14208 4.85329 10.3523 5.67066 11.0741L10.3944 15.2458L9.89549 21.0948L4.26946 28.1112L3.05934 32.5273C1.89167 32.7396 1 33.748 1 34.9476V35.9984H5.1399C6.03157 35.9984 6.93386 35.4356 6.93386 34.183V33.1747L9.2055 28.3553L14.3857 25.7441L19.534 26.7208L21.5827 32.0178V33.058C21.5827 34.3106 22.485 34.8732 23.3767 34.8732H27.9943V33.8223C27.9943 32.4636 26.8691 31.3595 25.4891 31.3489ZM19.5871 8.66448L19.1943 10.5221C19.067 11.1166 18.7167 11.6259 18.2071 11.955C18.0479 12.0612 17.8674 12.1355 17.687 12.1991C17.0819 11.6578 16.7953 10.8404 16.9652 10.0442L17.3579 8.18659C17.5278 7.39046 18.1222 6.76434 18.8971 6.50958C19.0351 6.63696 19.1625 6.77486 19.2686 6.9447C19.5977 7.45423 19.7145 8.07003 19.5871 8.66448ZM14.7254 9.57724L14.7997 9.20586L15.9143 9.43936L15.84 9.81074C15.6595 10.6387 15.8081 11.4773 16.2009 12.1885C15.1394 11.817 14.4812 10.7024 14.7254 9.56661V9.57724ZM17.3579 5.90444C17.4216 5.90444 17.4853 5.91508 17.5384 5.92569C16.8802 6.41399 16.4132 7.12511 16.2327 7.95309L16.1584 8.32472L15.0438 8.09122L15.1181 7.71959C15.341 6.64746 16.2964 5.90444 17.3473 5.90444H17.3579ZM6.45618 10.2249C6.08465 9.8958 6.01034 9.3649 6.27572 9.0146L8.74905 5.80881C8.83397 5.69205 8.97197 5.6603 9.05689 5.64969C9.24796 5.62846 9.46026 5.69207 9.61949 5.83006C9.94856 6.09544 9.91671 6.48831 9.74687 6.73245L8.03784 9.27998L12.0185 12.4433L14.4069 12.3266C14.874 12.8574 15.5003 13.2502 16.2433 13.4094C16.4769 13.4625 16.721 13.4835 16.9545 13.4835C17.6127 13.4835 18.2496 13.2927 18.8122 12.9318C18.929 12.8575 19.0245 12.7723 19.12 12.6874L20.6486 13.3988L22.3895 18.1756L25.5634 17.8996C25.8713 17.8677 26.2109 18.0376 26.2853 18.4516C26.3277 18.6533 26.2853 18.8762 26.1685 19.0249C26.1154 19.0992 26.0199 19.1946 25.8713 19.2159L21.8694 19.8316C21.3068 19.9165 21.0201 19.3325 20.9246 19.0671L19.5446 15.2246L16.9758 21.3708L14.3114 24.3324L11.0631 21.116L11.6045 14.7788L6.44557 10.2249H6.45618ZM5.20359 28.9924L7.84676 28.6313L6.04219 32.4741H4.28008L5.20359 28.9924ZM5.8405 34.183C5.8405 34.4696 5.77681 34.8626 5.18236 34.8626H2.17828C2.23136 34.1832 2.81519 33.6313 3.53702 33.6313H5.82989V34.183H5.8405ZM8.6429 27.3682L6.08465 27.708L10.5218 22.1563L13.3772 24.9798L8.63228 27.3682H8.6429ZM15.4578 24.7676L17.6976 22.2941L20.5955 22.8887C21.6358 23.101 21.933 23.1752 22.4001 24.64L19.9586 25.6274L15.479 24.7782L15.4578 24.7676ZM20.7335 26.5296L22.7079 25.7334L24.3108 31.3383H22.5912L20.7335 26.5296ZM23.4298 33.716C22.8459 33.716 22.7716 33.334 22.7716 33.0368V32.4635H25.5422C26.264 32.4848 26.8585 33.026 26.9009 33.7054H23.4192L23.4298 33.716Z" fill="black"/>
<path d="M16.2929 17.1356L15.8496 18.1929L16.9069 18.6362L17.3503 17.579L16.2929 17.1356Z" fill="black"/>
<path d="M17.1797 15.0321L16.7363 16.0894L17.7936 16.5327L18.237 15.4755L17.1797 15.0321Z" fill="black"/>
</svg>
