<svg width="40" height="40" viewBox="0 0 40 40" fill="none" xmlns="http://www.w3.org/2000/svg">
<path d="M20.355 12.5615V19.1098L21.8114 25.6577L19.6324 24.9352L15.9971 19.8434L17.4534 14.7519L20.3662 12.5727L20.355 12.5615Z" fill="#EAE9E4"/>
<path d="M4.83517 29.2939L2.88965 30.7504V35.1194H5.06864L5.79126 32.9404L7.24762 31.9734L4.82405 29.3051L4.83517 29.2939Z" fill="#BBBAB6"/>
<path d="M7.26011 31.962L10.1728 30.0165L11.6292 27.1036L9.45021 25.6472L7.27123 23.4683L5.81486 28.5601L4.84766 29.2826L7.27123 31.9509L7.26011 31.962Z" fill="#005DBB"/>
<path d="M12.7178 31.4717L10.8945 35.1071L12.3509 38.0199H16.72L15.2636 35.841L16.8979 33.662L12.7178 31.4828V31.4717Z" fill="#BBBAB6"/>
<path d="M16.8979 33.6639L18.3877 31.685C19.1881 30.6067 19.6328 29.3058 19.6328 27.9606C19.6328 26.482 19.0992 25.048 18.1431 23.9252L15.2748 20.5789L20.3665 13.297C21.5561 11.7183 21.2337 9.46151 19.6439 8.27196C19.6328 8.27196 19.6105 8.24969 19.5994 8.23858L15.575 5.05891C14.0964 3.8916 12.0174 3.80274 10.4499 4.85888L6.70338 7.62707L9.44934 11.8294L12.3621 10.373L7.27035 18.3777L6.75896 19.1447C6.15863 20.0452 5.96964 21.1569 6.22533 22.2131C6.42545 23.0358 6.89237 23.7582 7.55941 24.2808L13.8184 29.2947L12.7289 31.4736L16.909 33.6528L16.8979 33.6639Z" fill="#007AF6"/>
<path d="M17.9769 3.73803L17.0429 4.85546C16.2712 5.77882 16.394 7.15297 17.3174 7.92475L17.3259 7.93188C18.2493 8.70366 19.6234 8.58074 20.3952 7.65738L21.3292 6.53995C22.1009 5.61659 21.9781 4.24245 21.0547 3.47067L21.0462 3.46354C20.1228 2.69176 18.7487 2.81467 17.9769 3.73803Z" fill="#BBBAB6"/>
<path d="M13.8083 16.9194L29.6059 33.5842C30.084 34.0956 30.751 34.3847 31.4514 34.3847H33.8194C34.8199 34.3847 35.6426 35.1961 35.6426 36.2078C35.6426 37.2194 34.8311 38.0312 33.8194 38.0312H31.318C29.895 38.0312 28.5387 37.442 27.5715 36.3969L11.6182 19.1206L13.7972 16.9417L13.8083 16.9194Z" fill="#FD7422"/>
<path d="M7.9826 13.2848L9.43897 11.8283L6.693 7.62598L2.8353 10.8168C1.95703 11.595 1.55681 12.7735 1.77916 13.9185C1.77916 13.963 1.80139 14.0185 1.81251 14.0629C2.03485 14.9634 2.61295 15.7304 3.41339 16.1974L9.17215 19.5548L11.6958 15.3413L7.9826 13.2848Z" fill="#EAE9E4"/>
<path d="M14.5304 16.9197L11.6955 15.3408L9.17188 19.5543L10.8951 20.5662V22.0223H13.8078L15.2642 19.8434L14.5415 16.9308L14.5304 16.9197Z" fill="#005DBB"/>
<path d="M34.9085 35.1196H37.8213C38.6217 35.1196 39.2776 35.7756 39.2776 36.5761C39.2776 37.3765 38.6217 38.0325 37.8213 38.0325H34.9085C34.1081 38.0325 33.4521 37.3765 33.4521 36.5761C33.4521 35.7756 34.1081 35.1196 34.9085 35.1196Z" fill="#DC651E"/>
<path d="M19.6215 22.7455C20.0217 22.3453 20.6776 22.3453 21.0778 22.7455L22.5342 24.2019C22.9344 24.6021 22.9344 25.2578 22.5342 25.6581C22.134 26.0583 21.478 26.0583 21.0778 25.6581L19.6215 24.2019C19.2212 23.8017 19.2212 23.1457 19.6215 22.7455Z" fill="#005DBB"/>
<path d="M18.9661 32.1173C19.5553 31.328 19.9667 30.4276 20.189 29.4604L27.0373 36.8867C28.1379 38.0762 29.6943 38.7543 31.3174 38.7543H33.8188C34.0078 38.7543 34.1968 38.732 34.3858 38.6875C34.5525 38.732 34.7304 38.7543 34.9083 38.7543H37.821C39.0217 38.7543 40 37.776 40 36.5753C40 35.3747 39.0217 34.3964 37.821 34.3964H35.5976C35.1195 33.9295 34.4858 33.6625 33.8188 33.6736H31.4508C30.9505 33.6736 30.4725 33.4626 30.1279 33.1069L23.2907 25.8915C23.7354 25.1911 23.6354 24.2907 23.0573 23.7014L21.8566 22.501L21.0895 19.0434V13.5292C22.1679 11.9061 22.0122 9.76051 20.7226 8.29303C20.8783 8.17074 21.0117 8.03721 21.134 7.89269L22.0678 6.78096C23.1017 5.54694 22.935 3.71265 21.701 2.67875C20.4669 1.64484 18.6326 1.81168 17.5987 3.0457L16.6648 4.15743C16.5203 4.33531 16.398 4.52431 16.2979 4.72442L16.02 4.50186C14.2857 3.13444 11.8733 3.03442 10.0389 4.26844C10.0389 4.26844 10.0167 4.27958 10.0056 4.2907L2.36799 10.2719C2.36799 10.2719 2.34575 10.2831 2.34575 10.2942C1.27849 11.2503 0.800452 12.6843 1.06727 14.0851C1.07838 14.1407 1.08949 14.1962 1.11173 14.2629C1.38966 15.3524 2.07894 16.2752 3.04614 16.8422L6.19233 18.6764L6.13675 18.7543C5.04725 20.3885 5.12507 22.5342 6.32574 24.0907L5.16954 28.1484L2.45693 30.1829C2.27905 30.3163 2.16788 30.5387 2.16788 30.761H1.44525V30.0385C1.44525 29.6383 1.12285 29.3157 0.722625 29.3157C0.322403 29.3157 0 29.6383 0 30.0385V34.8299C0 35.6859 0.333525 36.4975 0.944976 37.0978C1.23403 37.3869 1.68984 37.3869 1.97888 37.0978C2.26793 36.8088 2.26793 36.353 1.97888 36.064C1.72319 35.8083 1.55642 35.4747 1.48972 35.1189H2.19011C2.19011 35.5191 2.51251 35.8417 2.91273 35.8417H5.09172C5.403 35.8417 5.68094 35.6414 5.781 35.3412L6.4258 33.3957L10.5837 30.6275C10.6837 30.5608 10.7727 30.4607 10.8282 30.3496L11.7287 28.5598L12.9072 29.5046L12.0734 31.1614L10.2501 34.7965C10.1501 34.9966 10.1501 35.2413 10.2501 35.4525L11.184 37.309H10.9061C10.5058 37.309 10.1834 37.6316 10.1834 38.0318C10.1834 38.432 10.5058 38.7543 10.9061 38.7543H16.9428C17.9767 38.7543 18.9327 38.1763 19.3886 37.2425L19.5664 36.8978C19.7443 36.542 19.6109 36.0972 19.244 35.9193C18.8883 35.7415 18.4436 35.8749 18.2657 36.2418L18.0878 36.5865C17.8988 36.9645 17.532 37.2311 17.1095 37.2867L16.1645 35.864L18.9772 32.1062L18.9661 32.1173ZM34.9083 35.8417H37.821C38.2212 35.8417 38.5436 36.164 38.5436 36.5642C38.5436 36.9644 38.2212 37.2867 37.821 37.2867H34.9083C34.5081 37.2867 34.1857 36.9644 34.1857 36.5642C34.1857 36.164 34.5081 35.8417 34.9083 35.8417ZM2.16788 33.6628H1.44525V32.2063H2.16788V33.6628ZM29.0828 34.0962C29.7054 34.7521 30.5614 35.1189 31.4619 35.1189H33.2963C32.7626 35.7081 32.5959 36.553 32.8627 37.2979H31.3285C30.1056 37.2979 28.9494 36.7865 28.1156 35.8971L14.9416 21.6338L15.8644 20.2441C15.8644 20.2441 15.8866 20.2107 15.8977 20.1885L18.6437 23.0902C18.5103 23.6794 18.6882 24.2908 19.1106 24.7133L20.567 26.1694C20.9005 26.503 21.3452 26.6811 21.8121 26.6811C21.89 26.6811 21.9678 26.6811 22.0345 26.6699L29.0717 34.0962H29.0828ZM19.6554 19.2657L20.2001 21.7225C19.9778 21.7448 19.7554 21.8117 19.5442 21.9117L17.0539 19.2768L19.6331 15.586V19.099C19.6331 19.099 19.6331 19.2101 19.6554 19.2545V19.2657ZM21.2118 4.39085C21.2563 4.51314 21.2785 4.63552 21.3007 4.75781C21.3341 5.08021 21.2451 5.40243 21.0784 5.68036L20.567 5.16901L21.2229 4.39085H21.2118ZM20.5781 23.2569L22.0345 24.7133C22.1456 24.8356 22.1456 25.0244 22.0345 25.1356C21.9122 25.2468 21.7343 25.2468 21.612 25.1356L20.1557 23.6792C20.0445 23.5569 20.0445 23.368 20.1557 23.2569C20.2779 23.1457 20.4558 23.1457 20.5781 23.2569ZM19.7109 3.43465C19.7109 3.43465 19.7999 3.43465 19.8444 3.43465C19.9222 3.43465 20.0111 3.43467 20.0889 3.4569L19.522 4.13518L19.055 3.66806C19.2551 3.53466 19.4775 3.45689 19.7109 3.44577V3.43465ZM19.622 6.28074L20.1334 6.79209L20.0222 6.92563C19.6887 7.32585 19.1662 7.51479 18.6548 7.42585L19.6109 6.28074H19.622ZM17.7988 5.05773L18.0767 4.72442L18.5881 5.23578L17.5431 6.48077C17.3652 5.99161 17.4541 5.44682 17.7877 5.0466L17.7988 5.05773ZM10.8727 5.43581C12.1846 4.56866 13.8966 4.64639 15.1306 5.61359L16.02 6.31412C16.1979 7.90389 17.632 9.06016 19.2218 8.88228C19.244 8.88228 19.2551 8.88228 19.2774 8.88228C20.4892 9.83837 20.7226 11.5947 19.7888 12.8398C19.7888 12.8398 19.7888 12.851 19.7777 12.8621L16.0422 18.1984L15.4753 17.5981L15.264 16.742C15.2196 16.5419 15.0862 16.3752 14.9083 16.2863L10.8949 14.0517L12.985 10.761C13.1962 10.4275 13.0962 9.97182 12.7627 9.76059C12.5514 9.62718 12.2735 9.60491 12.0511 9.7272L9.71652 10.8943L7.70428 7.80393L10.8838 5.44694L10.8727 5.43581ZM11.2729 19.9217L10.1834 19.2879L11.9622 16.3197L13.9077 17.398L14.4858 19.6883L13.4297 21.2779H11.6398V20.5554C11.6398 20.2997 11.5064 20.0551 11.2841 19.9217H11.2729ZM10.3391 12.1841L9.60534 13.3292L9.194 13.0958L9.88327 12.4064L10.3391 12.1841ZM3.791 15.5527C3.16843 15.1858 2.71263 14.5854 2.53475 13.8739C2.53475 13.8406 2.51251 13.796 2.51251 13.7626C2.34575 12.8733 2.65704 11.9617 3.32408 11.3503L6.54808 8.6931L6.82601 9.12683L8.52697 11.7281L7.49306 12.7622C7.20401 13.0513 7.20401 13.507 7.49306 13.796C7.53753 13.8405 7.59311 13.8851 7.6487 13.9184L10.706 15.6191L8.9383 18.5654L3.80212 15.5638L3.791 15.5527ZM5.41412 32.3062C5.28072 32.3951 5.18066 32.5287 5.12507 32.6843L4.5581 34.3741H3.62424V31.0946L4.74709 30.2497L6.15898 31.806L5.403 32.3062H5.41412ZM9.61646 29.5046L7.393 30.9944L5.92552 29.3825L6.25904 29.1379C6.38133 29.0379 6.48138 28.9044 6.52585 28.7599L7.54864 25.1913L10.5837 27.6147L9.6387 29.5158L9.61646 29.5046ZM14.6637 36.2306L15.3641 37.2867H12.8071L11.7176 35.1078L13.0406 32.462L15.8088 33.9073L14.6859 35.408C14.497 35.6526 14.4969 35.9861 14.6637 36.2529V36.2306ZM13.6965 31.1502L14.4636 29.6048C14.6192 29.2935 14.5303 28.9266 14.2635 28.7153L8.00445 23.7014C6.73708 22.6898 6.45915 20.8776 7.35965 19.5325L7.45971 19.3769L10.1723 20.9555V21.9896C10.1723 22.3898 10.4947 22.7121 10.8949 22.7121H13.8077C13.8633 22.7121 13.9188 22.7121 13.9744 22.6899L18.8994 28.0262C18.8772 29.1713 18.4881 30.2829 17.8099 31.2056L16.6982 32.6954L13.6965 31.128V31.1502Z" fill="black"/>
</svg>
