<svg width="40" height="40" viewBox="0 0 40 40" fill="none" xmlns="http://www.w3.org/2000/svg">
<path fill-rule="evenodd" clip-rule="evenodd" d="M12.9021 10.733L14.3161 9.59766C14.6054 9.36199 14.8625 8.99771 14.6161 8.46209L12.5915 4.18787C12.4308 3.85579 12.0987 3.64138 11.7452 3.75922L9.80624 4.38062C9.45273 4.49846 9.30276 4.86271 9.36704 5.21622L10.1812 9.86547C10.2776 10.4439 10.7061 10.5939 11.081 10.6153L12.8914 10.7223L12.9021 10.733Z" fill="#FFC144"/>
<path fill-rule="evenodd" clip-rule="evenodd" d="M14.0596 14.3526C13.9096 14.3955 13.7703 14.4704 13.6311 14.5668L10.8994 16.5701C11.7778 17.0843 12.367 18.0376 12.367 19.1303C12.367 19.141 12.367 19.1517 12.367 19.1624L14.9808 17.2449L15.3772 16.9556C16.0306 16.4736 16.1806 15.5524 15.6985 14.8882C15.3129 14.3633 14.6487 14.1705 14.0596 14.3526Z" fill="#FFDCD5"/>
<path fill-rule="evenodd" clip-rule="evenodd" d="M12.3653 19.1324C12.3653 18.0397 11.7762 17.0864 10.8978 16.5722C10.4585 16.3151 9.94435 16.165 9.39802 16.165C7.75903 16.165 6.44141 17.4934 6.44141 19.1217C6.44141 19.668 6.59138 20.1821 6.84848 20.6213C7.36267 21.4997 8.31607 22.089 9.40873 22.089C10.2657 22.089 11.0263 21.7247 11.5726 21.1569C12.0654 20.632 12.3653 19.9358 12.3761 19.1646C12.3761 19.1538 12.3761 19.1431 12.3761 19.1324" fill="#FFDCD5"/>
<path fill-rule="evenodd" clip-rule="evenodd" d="M11.5629 21.1562C11.0273 21.7347 10.256 22.0883 9.39898 22.0883C8.30632 22.0883 7.35292 21.499 6.83873 20.6206C5.62823 22.3667 4.58913 25.7949 4.88908 28.3015H10.3095V24.5093L11.52 25.4948L13.4375 23.1274L11.5522 21.1458L11.5629 21.1562Z" fill="#FF5D7D"/>
<path fill-rule="evenodd" clip-rule="evenodd" d="M13.4488 23.139L11.5312 25.5064L11.949 25.8493C12.399 26.1814 13.0524 26.3743 13.7059 26.1707L17.4445 24.9708C18.2158 24.7244 18.6442 23.8996 18.3979 23.1176C18.1515 22.3463 17.3266 21.9072 16.5446 22.1536L13.4488 23.139Z" fill="#FFDCD5"/>
<path fill-rule="evenodd" clip-rule="evenodd" d="M28.7459 10.733L30.1599 9.59766C30.4491 9.36199 30.7062 8.99771 30.4599 8.46209L28.4352 4.18787C28.2745 3.85579 27.9424 3.64138 27.5889 3.75922L25.65 4.38062C25.2965 4.49846 25.1465 4.86271 25.2108 5.21622L26.0249 9.86547C26.1213 10.4439 26.5498 10.5939 26.9248 10.6153L28.7352 10.7223L28.7459 10.733Z" fill="#FFC144"/>
<path fill-rule="evenodd" clip-rule="evenodd" d="M29.9014 14.3526C29.7514 14.3955 29.6121 14.4704 29.4729 14.5668L26.7412 16.5701C27.6196 17.0843 28.2088 18.0376 28.2088 19.1303C28.2088 19.141 28.2088 19.1517 28.2088 19.1624L30.8226 17.2449L31.219 16.9556C31.8724 16.4736 32.0224 15.5524 31.5403 14.8882C31.1547 14.3633 30.4905 14.1705 29.9014 14.3526Z" fill="#FFDCD5"/>
<path fill-rule="evenodd" clip-rule="evenodd" d="M28.2091 19.1324C28.2091 18.0397 27.6199 17.0864 26.7415 16.5722C26.3023 16.3151 25.7881 16.165 25.2418 16.165C23.6028 16.165 22.2852 17.4934 22.2852 19.1217C22.2852 19.668 22.4351 20.1821 22.6922 20.6213C23.2064 21.4997 24.1598 22.089 25.2525 22.089C26.1095 22.089 26.8701 21.7247 27.4164 21.1569C27.9092 20.632 28.2091 19.9358 28.2198 19.1646C28.2198 19.1538 28.2198 19.1431 28.2198 19.1324" fill="#FFDCD5"/>
<path fill-rule="evenodd" clip-rule="evenodd" d="M27.4076 21.1562C26.872 21.7347 26.1007 22.0883 25.2437 22.0883C24.151 22.0883 23.1976 21.499 22.6834 20.6206C21.4729 22.3667 20.4339 25.7949 20.7338 28.3015H26.1543V24.5093L27.3648 25.4948L29.2823 23.1274L27.3969 21.1458L27.4076 21.1562Z" fill="#FF5D7D"/>
<path fill-rule="evenodd" clip-rule="evenodd" d="M29.2906 23.139L27.373 25.5064L27.7908 25.8493C28.2407 26.1814 28.8942 26.3743 29.5477 26.1707L33.2863 24.9708C34.0576 24.7244 34.4861 23.8996 34.2397 23.1176C33.9933 22.3463 33.1684 21.9072 32.3864 22.1536L29.2906 23.139Z" fill="#FFDCD5"/>
<path fill-rule="evenodd" clip-rule="evenodd" d="M18.5047 28.3125H9.15285C8.45655 28.3125 7.79238 28.1946 7.20321 27.9803C6.57118 27.7554 5.982 27.4126 5.46781 26.9842C5.2857 26.8342 5.09287 26.7163 4.87863 26.6306C4.01093 26.2771 2.97183 26.5128 2.3398 27.2734C1.5578 28.2161 1.68635 29.6193 2.63975 30.4013C3.08967 30.7763 3.58244 31.1083 4.09663 31.4082C4.31088 31.3332 4.55726 31.2798 4.87863 31.2798C6.34622 31.2798 6.44263 32.3939 7.91022 32.3939C9.37782 32.3939 9.47423 31.2798 10.9418 31.2798C12.4094 31.2798 12.5058 32.3939 13.9734 32.3939C15.441 32.3939 15.5374 31.2798 17.005 31.2798C18.4726 31.2798 18.569 32.3939 20.0366 32.3939C21.5042 32.3939 21.6006 31.2798 23.0682 31.2798C24.5358 31.2798 24.6322 32.3939 26.0998 32.3939C27.5674 32.3939 27.6638 31.2798 29.1314 31.2798C30.599 31.2798 30.6954 32.3939 32.163 32.3939C33.6306 32.3939 33.727 31.2798 35.1946 31.2798C35.5053 31.2798 35.7516 31.3332 35.9659 31.4082C36.4801 31.119 36.9728 30.7763 37.4228 30.4013C38.3655 29.6193 38.494 28.2268 37.7227 27.2734C36.9407 26.3307 35.5481 26.2021 34.5947 26.9734C34.4126 27.1234 34.2198 27.2625 34.027 27.3911C33.6627 27.6268 33.2664 27.8303 32.8593 27.9696C32.2594 28.1839 31.606 28.3018 30.9097 28.3018H18.4833L18.5047 28.3125Z" fill="#FFC144"/>
<path d="M38.2468 33.1233C37.2827 33.1233 36.7364 32.7375 36.2972 32.4269C35.9437 32.1698 35.708 32.0092 35.2045 32.0092C34.7011 32.0092 34.4761 32.1805 34.1119 32.4269C33.6727 32.7375 33.1371 33.1233 32.1622 33.1233C31.1874 33.1233 30.6518 32.7375 30.2126 32.4269C29.8591 32.1698 29.6234 32.0092 29.1199 32.0092C28.6165 32.0092 28.3915 32.1805 28.0273 32.4269C27.5881 32.7375 27.0525 33.1233 26.0776 33.1233C25.1028 33.1233 24.5672 32.7375 24.128 32.4269C23.7745 32.1698 23.5388 32.0092 23.0353 32.0092C22.5318 32.0092 22.3069 32.1805 21.9427 32.4269C21.5035 32.7375 20.9678 33.1233 19.993 33.1233C19.0182 33.1233 18.4826 32.7375 18.0434 32.4269C17.6899 32.1698 17.4542 32.0092 16.9507 32.0092C16.4472 32.0092 16.2223 32.1805 15.858 32.4269C15.4188 32.7375 14.8832 33.1233 13.9084 33.1233C12.9336 33.1233 12.3979 32.7375 11.9587 32.4269C11.6052 32.1698 11.3696 32.0092 10.8661 32.0092C10.3626 32.0092 10.1376 32.1805 9.77341 32.4269C9.33421 32.7375 8.79859 33.1233 7.82377 33.1233C6.84894 33.1233 6.31332 32.7375 5.87412 32.4269C5.52061 32.1698 5.28494 32.0092 4.78146 32.0092C4.27798 32.0092 4.05302 32.1805 3.6888 32.4269C3.24959 32.7375 2.71397 33.1233 1.73915 33.1233C1.33208 33.1233 1 32.7913 1 32.3842C1 31.9772 1.33208 31.6449 1.73915 31.6449C2.23192 31.6449 2.46759 31.4736 2.83181 31.2272C3.27102 30.9166 3.80664 30.5308 4.78146 30.5308C5.75628 30.5308 6.2919 30.9166 6.73111 31.2272C7.08462 31.4843 7.32028 31.6449 7.82377 31.6449C8.32725 31.6449 8.55221 31.4736 8.91643 31.2272C9.35564 30.9166 9.89125 30.5308 10.8661 30.5308C11.8409 30.5308 12.3765 30.9166 12.8157 31.2272C13.1692 31.4843 13.4049 31.6449 13.9084 31.6449C14.4119 31.6449 14.6368 31.4736 15.001 31.2272C15.4403 30.9166 15.9759 30.5308 16.9507 30.5308C17.9255 30.5308 18.4611 30.9166 18.9003 31.2272C19.2538 31.4843 19.4895 31.6449 19.993 31.6449C20.4965 31.6449 20.7214 31.4736 21.0857 31.2272C21.5249 30.9166 22.0605 30.5308 23.0353 30.5308C24.0101 30.5308 24.5458 30.9166 24.985 31.2272C25.3385 31.4843 25.5741 31.6449 26.0776 31.6449C26.5811 31.6449 26.8061 31.4736 27.1703 31.2272C27.6095 30.9166 28.1451 30.5308 29.1199 30.5308C30.0948 30.5308 30.6304 30.9166 31.0696 31.2272C31.4231 31.4843 31.6588 31.6449 32.1622 31.6449C32.6657 31.6449 32.8907 31.4736 33.2549 31.2272C33.6941 30.9166 34.2297 30.5308 35.2045 30.5308C36.1794 30.5308 36.715 30.9166 37.1542 31.2272C37.5077 31.4843 37.7434 31.6449 38.2468 31.6449C38.6539 31.6449 38.986 31.9772 38.986 32.3842C38.986 32.7913 38.6539 33.1233 38.2468 33.1233Z" fill="black"/>
<path d="M32.1296 37.5664C31.1655 37.5664 30.6192 37.1809 30.1907 36.8702C29.8372 36.6131 29.6015 36.4523 29.1087 36.4523C28.616 36.4523 28.3803 36.6238 28.0268 36.8702C27.5983 37.1809 27.052 37.5664 26.0879 37.5664C25.1238 37.5664 24.5774 37.1809 24.1489 36.8702C23.8811 36.6774 23.6776 36.538 23.3776 36.4737C23.0777 36.5273 22.8742 36.6774 22.6064 36.8702C22.1671 37.1809 21.6315 37.5664 20.6674 37.5664C19.7033 37.5664 19.157 37.1809 18.7285 36.8702C18.375 36.6131 18.1393 36.4523 17.6465 36.4523C17.1538 36.4523 16.9181 36.6238 16.5646 36.8702C16.1361 37.1809 15.5898 37.5664 14.6256 37.5664C13.6615 37.5664 13.1152 37.1809 12.6867 36.8702C12.3332 36.6131 12.0975 36.4523 11.6048 36.4523C11.112 36.4523 10.8763 36.6238 10.5228 36.8702C10.0943 37.1809 9.54799 37.5664 8.58387 37.5664C8.1768 37.5664 7.84473 37.2344 7.84473 36.8273C7.84473 36.4203 8.1768 36.0882 8.58387 36.0882C9.07664 36.0882 9.31232 35.9167 9.66582 35.6703C10.0943 35.3597 10.6406 34.9741 11.6048 34.9741C12.5689 34.9741 13.1152 35.3597 13.5437 35.6703C13.8972 35.9274 14.1329 36.0882 14.6256 36.0882C15.1184 36.0882 15.3541 35.9167 15.7076 35.6703C16.1361 35.3597 16.6824 34.9741 17.6465 34.9741C18.6106 34.9741 19.157 35.3597 19.5855 35.6703C19.939 35.9274 20.1746 36.0882 20.6674 36.0882C21.1602 36.0882 21.3959 35.9167 21.7494 35.6703C22.1136 35.4132 22.5635 35.092 23.2919 35.0063C23.3562 35.0063 23.4098 35.0063 23.474 35.0063C24.2025 35.092 24.6524 35.4132 25.0166 35.6703C25.3701 35.9167 25.6058 36.0882 26.0986 36.0882C26.5913 36.0882 26.827 35.9167 27.1805 35.6703C27.609 35.3597 28.1554 34.9741 29.1195 34.9741C30.0836 34.9741 30.6299 35.3597 31.0584 35.6703C31.4119 35.9274 31.6476 36.0882 32.1403 36.0882C32.5474 36.0882 32.8795 36.4203 32.8795 36.8273C32.8795 37.2344 32.5474 37.5664 32.1403 37.5664H32.1296Z" fill="black"/>
<path d="M4.06422 32.1359C3.93568 32.1359 3.81784 32.104 3.70001 32.0397C3.16439 31.729 2.63948 31.3755 2.15743 30.9684C0.904081 29.9293 0.721976 28.0545 1.76107 26.8012C2.26456 26.1906 2.97157 25.8157 3.76428 25.7407C4.54628 25.6657 5.31758 25.9015 5.92818 26.405C6.38881 26.7906 6.903 27.0799 7.44933 27.2727C7.98495 27.4656 8.5527 27.562 9.15259 27.562H30.9308C31.5307 27.562 32.0985 27.4656 32.6341 27.2727C33.1804 27.0799 33.6946 26.7799 34.1552 26.3942C34.7658 25.8908 35.5264 25.655 36.3191 25.73C37.1011 25.8049 37.8189 26.1799 38.3223 26.7905C38.8258 27.4011 39.0615 28.1724 38.9865 28.9544C38.9115 29.7364 38.5366 30.4542 37.926 30.9577C37.4439 31.3541 36.9297 31.7183 36.3941 32.0182C36.0406 32.2218 35.5907 32.0932 35.3872 31.7397C35.1836 31.3862 35.3015 30.9363 35.6657 30.7328C36.137 30.465 36.5762 30.1542 36.994 29.8114C37.294 29.5543 37.4868 29.2009 37.5189 28.8152C37.5511 28.4189 37.4332 28.0332 37.1868 27.7333C36.9297 27.4333 36.5762 27.2405 36.1906 27.2084C35.7942 27.1763 35.4193 27.2942 35.1086 27.5405C34.5195 28.0333 33.8553 28.408 33.1483 28.6651C32.452 28.9115 31.7128 29.0402 30.9415 29.0402H9.16331C8.39202 29.0402 7.65287 28.9115 6.95657 28.6651C6.24955 28.408 5.59609 28.0333 4.9962 27.5405C4.69626 27.2942 4.31061 27.1763 3.91425 27.2084C3.5179 27.2512 3.16439 27.4333 2.918 27.7333C2.40381 28.3653 2.48951 29.2972 3.11083 29.8114C3.52861 30.1542 3.97853 30.465 4.43916 30.7328C4.79267 30.9363 4.92121 31.3862 4.71768 31.7397C4.57842 31.9754 4.33204 32.1147 4.07494 32.1147L4.06422 32.1359Z" fill="black"/>
<path d="M9.39788 22.8279C7.35182 22.8279 5.69141 21.1675 5.69141 19.1215C5.69141 17.0754 7.35182 15.415 9.39788 15.415C11.4439 15.415 13.1044 17.0754 13.1044 19.1215C13.1044 21.1675 11.4439 22.8279 9.39788 22.8279ZM9.39788 16.9039C8.17667 16.9039 7.18042 17.9003 7.18042 19.1215C7.18042 20.3427 8.17667 21.339 9.39788 21.339C10.6191 21.339 11.6153 20.3427 11.6153 19.1215C11.6153 17.9003 10.6191 16.9039 9.39788 16.9039Z" fill="black"/>
<path d="M19.7464 32.951C19.4357 32.951 19.1465 32.7474 19.0393 32.4368L16.7576 25.2703C16.6291 24.8846 16.854 24.467 17.2397 24.3384C17.6253 24.2099 18.0431 24.4241 18.1716 24.8205L20.4534 31.987C20.5819 32.3726 20.357 32.7905 19.9713 32.9191C19.8963 32.9405 19.8213 32.951 19.7464 32.951ZM16.5112 22.7849C16.2006 22.7849 15.9113 22.5814 15.8042 22.2708L14.2938 17.536C14.1652 17.1504 14.3902 16.7324 14.7758 16.6039C15.1615 16.4754 15.5793 16.6898 15.7078 17.0862L17.2182 21.8209C17.3468 22.2066 17.1218 22.6245 16.7362 22.753C16.6612 22.7745 16.5862 22.7849 16.5112 22.7849ZM14.026 14.9866C13.7153 14.9866 13.4261 14.7828 13.3189 14.4722L11.7121 9.4374C11.5835 9.05175 11.8085 8.63411 12.1941 8.50556C12.5798 8.37701 12.9976 8.5912 13.1261 8.98756L14.733 14.0223C14.8615 14.408 14.6366 14.8259 14.2509 14.9544C14.1759 14.9758 14.1009 14.9866 14.026 14.9866Z" fill="black"/>
<path d="M4.87726 27.3265C4.87726 27.3265 4.83441 27.3265 4.81298 27.3265C4.40591 27.2943 4.10596 26.9408 4.1381 26.5338C4.32021 24.3056 5.15578 21.7669 6.23773 20.2136C6.4734 19.8815 6.93403 19.7959 7.26611 20.0316C7.5982 20.2672 7.6839 20.7278 7.45894 21.0599C6.53767 22.3989 5.7771 24.6914 5.62713 26.6517C5.59499 27.0374 5.27362 27.3372 4.88797 27.3372L4.87726 27.3265Z" fill="black"/>
<path d="M10.3202 28.8471C9.91314 28.8471 9.58105 28.5151 9.58105 28.1081V24.5193C9.58105 24.2301 9.74174 23.9729 9.99884 23.855C10.2559 23.7265 10.5666 23.7694 10.7808 23.9515L12.4091 25.2691C12.6341 25.4405 13.0519 25.5904 13.4696 25.4512L17.2082 24.2515C17.4011 24.1872 17.5511 24.0586 17.6368 23.8872C17.7224 23.7158 17.7439 23.5122 17.6796 23.3301C17.5618 22.9445 17.144 22.7303 16.7583 22.8481L13.6625 23.8336C13.3947 23.9193 13.0947 23.8337 12.9019 23.6408L11.0808 21.7233C10.8023 21.4233 10.813 20.9627 11.1022 20.6735C11.4022 20.395 11.8628 20.4057 12.152 20.7057L13.6518 22.2803L16.3084 21.434C17.4761 21.0698 18.7187 21.7126 19.0936 22.8803C19.4579 24.0479 18.8151 25.2907 17.6475 25.6656L13.9088 26.8653C13.0947 27.1224 12.1842 26.9618 11.4879 26.4369L11.0487 26.0833V28.1185C11.0487 28.5256 10.7166 28.8579 10.3095 28.8579L10.3202 28.8471ZM12.4305 19.8593C12.2056 19.8593 11.9806 19.7522 11.8306 19.5594C11.5843 19.2273 11.6593 18.7667 11.9913 18.5203L14.9372 16.3564C15.0979 16.2385 15.205 16.0672 15.2265 15.8744C15.2586 15.6815 15.205 15.4887 15.0979 15.328C14.8622 14.9959 14.3909 14.9318 14.0695 15.1675L11.4022 17.1279C11.0701 17.3743 10.6094 17.2991 10.3631 16.9671C10.1167 16.635 10.1917 16.1744 10.5237 15.928L13.1911 13.9675C14.1767 13.2391 15.5693 13.4643 16.287 14.4391C16.6405 14.9211 16.7798 15.4994 16.6941 16.0886C16.6084 16.6777 16.287 17.192 15.8156 17.5348L12.8697 19.6988C12.7412 19.7952 12.5805 19.8379 12.4305 19.8379V19.8593Z" fill="black"/>
<path d="M12.9009 11.4727C12.9009 11.4727 12.8688 11.4727 12.8581 11.4727L11.0477 11.3655C10.2014 11.3119 9.6015 10.8084 9.46224 10.005L8.64811 5.35575C8.51956 4.60588 8.91591 3.89906 9.59079 3.68482L11.5297 3.06342C12.2153 2.84917 12.9438 3.19197 13.2651 3.87757L15.2898 8.15179C15.6326 8.89094 15.4504 9.64069 14.7863 10.1763L13.3723 11.3119C13.2437 11.419 13.0723 11.4727 12.9116 11.4727H12.9009ZM11.9261 4.50969L10.0407 5.08794L10.9191 9.74792C10.9405 9.84433 10.9406 9.8766 11.1334 9.88731L12.6545 9.97283L13.8436 9.01955C13.9936 8.90171 13.9829 8.86961 13.94 8.78391L11.9154 4.52041L11.9261 4.50969Z" fill="black"/>
<path d="M11.5834 26.1692C11.4227 26.1692 11.2513 26.1155 11.112 25.9977C10.7906 25.7406 10.7478 25.2693 11.0049 24.9586L12.8688 22.6663C13.1259 22.3449 13.5973 22.302 13.9079 22.5591C14.2293 22.8161 14.2722 23.2875 14.0151 23.5981L12.1511 25.8907C12.0011 26.0728 11.7869 26.1692 11.5726 26.1692H11.5834Z" fill="black"/>
<path d="M25.2416 22.8279C23.1956 22.8279 21.5352 21.1675 21.5352 19.1215C21.5352 17.0754 23.1956 15.415 25.2416 15.415C27.2877 15.415 28.9481 17.0754 28.9481 19.1215C28.9481 21.1675 27.2877 22.8279 25.2416 22.8279ZM25.2416 16.9039C24.0204 16.9039 23.0242 17.9003 23.0242 19.1215C23.0242 20.3427 24.0204 21.339 25.2416 21.339C26.4628 21.339 27.4591 20.3427 27.4591 19.1215C27.4591 17.9003 26.4628 16.9039 25.2416 16.9039Z" fill="black"/>
<path d="M35.2483 31.9012C34.9376 31.9012 34.6484 31.6977 34.5412 31.387L32.5916 25.2703C32.463 24.8846 32.688 24.467 33.0737 24.3384C33.4593 24.2099 33.8771 24.4241 34.0056 24.8205L35.9553 30.9372C36.0838 31.3228 35.8589 31.7405 35.4732 31.869C35.3982 31.8904 35.3233 31.9012 35.2483 31.9012ZM32.3452 22.7849C32.0346 22.7849 31.7453 22.5814 31.6382 22.2708L30.1278 17.536C29.9992 17.1504 30.2242 16.7324 30.6098 16.6039C31.0062 16.4754 31.4132 16.6898 31.5418 17.0862L33.0522 21.8209C33.1808 22.2066 32.9558 22.6245 32.5702 22.753C32.4952 22.7745 32.4202 22.7849 32.3452 22.7849ZM29.86 14.9866C29.5493 14.9866 29.2601 14.7828 29.1529 14.4722L27.5461 9.4374C27.4175 9.05175 27.6425 8.63411 28.0281 8.50556C28.4138 8.37701 28.8316 8.5912 28.9601 8.98756L30.567 14.0223C30.6955 14.408 30.4705 14.8259 30.0849 14.9544C30.0099 14.9758 29.9349 14.9866 29.86 14.9866Z" fill="black"/>
<path d="M20.7325 28.9977C20.3576 28.9977 20.0362 28.7193 19.9933 28.3336C19.6934 25.5698 20.8182 22.0347 22.0715 20.2136C22.3072 19.8815 22.7678 19.7959 23.0999 20.0316C23.432 20.2672 23.5177 20.7278 23.2927 21.0599C22.2001 22.6346 21.2145 25.8696 21.4609 28.1728C21.5038 28.5799 21.2145 28.9441 20.8075 28.9869C20.7753 28.9869 20.7539 28.9869 20.7218 28.9869L20.7325 28.9977Z" fill="black"/>
<path d="M26.163 28.8468C25.7559 28.8468 25.4238 28.5147 25.4238 28.1077V24.5189C25.4238 24.2297 25.5845 23.9725 25.8416 23.8546C26.0987 23.7261 26.4094 23.769 26.6236 23.9511L28.2519 25.2687C28.4768 25.4401 28.8946 25.59 29.3124 25.4508L33.051 24.2511C33.2438 24.1869 33.3938 24.0582 33.4795 23.8868C33.5652 23.7154 33.5866 23.5119 33.5224 23.3297C33.4045 22.9441 32.9867 22.7299 32.6011 22.8477L29.5052 23.8332C29.2374 23.9189 28.9375 23.8333 28.7446 23.6404L26.9236 21.7229C26.645 21.4229 26.6557 20.9623 26.945 20.6731C27.2449 20.3946 27.7056 20.4053 27.9948 20.7053L29.4945 22.28L32.1512 21.4336C33.3188 21.0694 34.5615 21.7123 34.9364 22.8799C35.1185 23.4477 35.0649 24.0476 34.7864 24.5725C34.5079 25.0975 34.058 25.4831 33.4902 25.6652L29.7516 26.8649C28.9375 27.122 28.0269 26.9614 27.3306 26.4365L26.8914 26.0829V28.1181C26.8914 28.5252 26.5593 28.8575 26.1523 28.8575L26.163 28.8468ZM28.2733 19.859C28.0483 19.859 27.8234 19.7518 27.6734 19.559C27.427 19.2269 27.502 18.7663 27.8341 18.5199L30.7907 16.356C31.1228 16.1203 31.1871 15.649 30.9514 15.3277C30.7157 14.9956 30.2444 14.9314 29.923 15.1671L27.2556 17.1275C26.9235 17.3739 26.4629 17.2988 26.2165 16.9667C25.9701 16.6346 26.0451 16.174 26.3772 15.9276L29.0446 13.9672C29.5266 13.6137 30.1051 13.4745 30.6943 13.5602C31.2835 13.6459 31.7977 13.9674 32.1405 14.4387C32.8582 15.4242 32.6439 16.8167 31.6584 17.5345L28.7125 19.6984C28.584 19.7948 28.4233 19.8375 28.2733 19.8375V19.859Z" fill="black"/>
<path d="M28.7437 11.4727C28.7437 11.4727 28.7116 11.4727 28.7008 11.4727L26.8905 11.3655C26.0442 11.3119 25.4443 10.8084 25.305 10.005L24.4909 5.35575C24.3623 4.60588 24.7587 3.89906 25.4336 3.68482L27.3725 3.06342C28.0581 2.84917 28.7865 3.19197 29.1079 3.87757L31.1325 8.15179C31.4753 8.89094 31.2932 9.64069 30.6291 10.1763L29.215 11.3119C29.0865 11.419 28.9151 11.4727 28.7544 11.4727H28.7437ZM27.7689 4.50969L25.8835 5.08794L26.7619 9.74792C26.7833 9.84433 26.7833 9.8766 26.9762 9.88731L28.4973 9.97283L29.6864 9.01955C29.8364 8.90171 29.8256 8.86961 29.7828 8.78391L27.7582 4.52041L27.7689 4.50969Z" fill="black"/>
<path d="M27.4183 26.1692C27.2576 26.1692 27.0862 26.1155 26.947 25.9977C26.6256 25.7406 26.5828 25.2693 26.8399 24.9586L28.7038 22.6663C28.9609 22.3449 29.4322 22.302 29.7429 22.5591C30.0536 22.8161 30.1071 23.2875 29.85 23.5981L27.9861 25.8907C27.8361 26.0728 27.6219 26.1692 27.4076 26.1692H27.4183Z" fill="black"/>
</svg>
