<svg width="40" height="40" viewBox="0 0 40 40" fill="none" xmlns="http://www.w3.org/2000/svg">
<path d="M7.33691 8.25519C7.33691 7.88931 7.37913 7.52339 7.43191 7.16797C7.37913 7.52339 7.33691 7.87886 7.33691 8.25519Z" fill="#E26667"/>
<path d="M8.23633 4.85742C8.41409 4.54381 8.61278 4.251 8.84283 3.96875C8.62323 4.251 8.41409 4.54381 8.23633 4.85742Z" fill="#E26667"/>
<path d="M7.45215 7.00114C7.51489 6.66662 7.59854 6.33217 7.71357 6.01855C7.59854 6.34262 7.51489 6.66662 7.45215 7.00114Z" fill="#E26667"/>
<path d="M8.85352 3.94809C9.08357 3.66584 9.33453 3.4045 9.59595 3.16406C9.32407 3.4045 9.07311 3.66584 8.85352 3.94809Z" fill="#E26667"/>
<path d="M9.65723 3.10277C9.9291 2.86234 10.2219 2.63221 10.5356 2.43359C10.2219 2.63221 9.93956 2.85188 9.65723 3.10277Z" fill="#E26667"/>
<path d="M9.70996 6.44757C9.70996 8.83101 10.7452 11.0889 12.5647 12.6361L19.7067 18.7621C19.9681 18.9816 20.355 18.9816 20.6164 18.7621L27.7584 12.6361C31.3765 9.65677 31.5856 3.77131 27.9048 1.6283C30.6236 2.3287 32.213 4.32546 32.7463 6.69845C32.1085 3.83413 29.9439 1.50309 26.0958 1.34628C23.7012 1.27311 21.683 2.68429 20.1668 4.40915C18.6505 2.68429 16.6324 1.26265 14.2378 1.34628C12.8784 1.34628 11.6026 1.75376 10.5361 2.43325C11.1739 2.02556 11.885 1.72256 12.6483 1.54484C10.9125 2.50658 9.72042 4.32547 9.72042 6.44757H9.70996Z" fill="#E26667"/>
<path d="M35.4019 18.4485L34.7117 25.3794C34.6908 25.578 34.6071 25.7558 34.4607 25.9021L29.3264 31.0348C28.7827 31.6202 27.737 31.0976 27.8729 30.3135L28.5317 25.6719C28.584 25.306 28.3644 24.9508 28.0089 24.8358C27.6533 24.7208 27.2769 24.867 27.0887 25.1911L23.8994 30.9301C23.6902 31.3065 23.5752 31.7457 23.5752 32.1743V37.2756H30.8218L36.8344 28.2542C37.1168 27.836 37.2632 27.3446 37.2632 26.8324V18.5427C37.2632 17.3719 35.496 17.2881 35.3809 18.4485H35.4019Z" fill="#FFC999"/>
<path d="M13.223 25.1912C12.8466 24.449 11.644 24.8567 11.7904 25.6721L12.4492 30.3137C12.5852 31.0977 11.5499 31.6204 10.9957 31.035L5.86142 25.9023C5.72548 25.7664 5.63138 25.5782 5.61046 25.3796L4.92032 18.4487C4.80529 17.2778 3.04854 17.372 3.03809 18.5428V26.8325C3.03809 27.3448 3.18448 27.8362 3.46681 28.2544L9.47948 37.2758H16.7261V32.1745C16.7261 31.7354 16.611 31.3066 16.4019 30.9303L13.2126 25.1912H13.223Z" fill="#FFCEBF"/>
<path d="M36.3341 15.8955C34.9643 15.8955 33.835 16.92 33.699 18.279L33.0402 24.9065L29.9346 28.0112L30.2378 25.9102C30.4051 24.7185 29.7045 23.5894 28.5647 23.2026C27.4354 22.8263 26.191 23.307 25.6159 24.3524L22.4266 30.0917C22.071 30.7294 21.8828 31.4402 21.8828 32.172V38.1306C21.8828 38.601 22.2697 38.9876 22.7403 38.9876H31.2939C31.5763 38.9876 31.8482 38.8414 32.005 38.6114L38.2791 29.2135C38.7497 28.5131 39.0006 27.6873 39.0006 26.8405V18.5508C39.0006 17.0873 37.8085 15.8955 36.3446 15.8955H36.3341ZM36.8465 28.2519L30.8338 37.2733H23.5873V32.172C23.5873 31.7329 23.7023 31.3041 23.9114 30.9278L27.1008 25.1887C27.2785 24.8647 27.6654 24.7185 28.021 24.8335C28.3765 24.9485 28.5961 25.3037 28.5438 25.6696L27.885 30.3112C27.7491 31.0952 28.7843 31.6179 29.3385 31.0324L34.4728 25.8998C34.6088 25.7639 34.7029 25.5757 34.7238 25.3771L35.4139 18.4461C35.5185 17.2858 37.2962 17.3695 37.2962 18.5403V26.83C37.2962 27.3423 37.1498 27.8337 36.8674 28.2519H36.8465Z" fill="black"/>
<path d="M7.71387 6.01899C7.73498 5.96672 7.75609 5.90383 7.7772 5.85156C7.75609 5.90383 7.73498 5.95626 7.71387 6.01899Z" fill="#D6565C"/>
<path d="M7.42969 7.16814C7.42969 7.11588 7.44969 7.05325 7.45969 7.00098C7.44969 7.05325 7.43969 7.11588 7.42969 7.16814Z" fill="#D6565C"/>
<path d="M8.2041 4.9122C8.2041 4.9122 8.2241 4.88049 8.2341 4.85938C8.2341 4.88049 8.2141 4.89109 8.2041 4.9122Z" fill="#D6565C"/>
<path d="M30.404 15.0088C30.1217 15.3119 29.8289 15.5943 29.5047 15.8661C29.8289 15.5943 30.1321 15.3119 30.404 15.0088Z" fill="#D6565C"/>
<path d="M7.33691 8.25586C7.33691 11.1829 8.61264 13.9532 10.8399 15.8662C8.61264 13.9636 7.33691 11.1829 7.33691 8.25586Z" fill="#D6565C"/>
<path d="M8.83105 3.96704C8.83105 3.96704 8.84106 3.94727 8.85106 3.94727C8.85106 3.94727 8.84105 3.96704 8.83105 3.96704Z" fill="#D6565C"/>
<path d="M9.5957 3.15634C9.5957 3.15634 9.63793 3.12463 9.64848 3.10352C9.62737 3.12463 9.60626 3.13523 9.5957 3.15634Z" fill="#D6565C"/>
<path d="M30.4045 15.0101C30.4986 14.9056 30.5823 14.801 30.6659 14.6965C30.8437 14.4874 31.0214 14.2785 31.1678 14.0589C31.2619 13.923 31.3456 13.787 31.4293 13.6406C31.5547 13.442 31.6802 13.2436 31.7952 13.0345C31.8789 12.8777 31.9521 12.7105 32.0253 12.5432C32.1194 12.3446 32.2031 12.1564 32.2763 11.9577C32.3495 11.78 32.4122 11.5918 32.4645 11.4037C32.5272 11.226 32.5795 11.0378 32.6213 10.8601C32.6736 10.651 32.7155 10.4523 32.7573 10.2432C32.7886 10.0759 32.8095 9.91916 32.8409 9.7519C32.8723 9.52192 32.8932 9.29204 32.9141 9.07251C32.9141 8.93661 32.9246 8.81104 32.9246 8.67514C32.9246 8.42425 32.9246 8.17339 32.9141 7.9225C32.9141 7.82842 32.8932 7.73432 32.8828 7.64023C32.8514 7.35798 32.82 7.07594 32.7573 6.80414C32.7573 6.77278 32.7364 6.73086 32.7259 6.6995C32.1926 4.33697 30.6032 2.34021 27.8844 1.62935C31.5652 3.77236 31.3561 9.65783 27.738 12.6371L20.596 18.7631C20.3346 18.9826 19.9477 18.9826 19.6862 18.7631L12.5442 12.6371C10.7352 11.09 9.68953 8.83207 9.68953 6.44862C9.68953 4.32652 10.8816 2.50764 12.6174 1.5459C11.8541 1.72361 11.143 2.02662 10.5052 2.43431C10.1915 2.63293 9.90913 2.8526 9.6268 3.10349C9.60588 3.1244 9.58497 3.1349 9.57451 3.15581C9.30263 3.39624 9.06213 3.65759 8.83208 3.93984C8.83208 3.93984 8.82161 3.96076 8.81116 3.96076C8.59156 4.24301 8.38243 4.53557 8.20467 4.84918C8.20467 4.87008 8.18375 4.88059 8.17329 4.9015C8.00598 5.20465 7.87005 5.51816 7.74457 5.84223C7.72365 5.8945 7.70274 5.95738 7.68183 6.00965C7.5668 6.32326 7.48315 6.65772 7.42041 6.99224C7.40995 7.0445 7.39949 7.10713 7.38903 7.1594C7.33675 7.51483 7.29492 7.8703 7.29492 8.24663C7.29492 11.1737 8.57065 13.9544 10.798 15.857L19.5712 23.3731C19.8954 23.6449 20.3659 23.6449 20.6797 23.3731L29.4529 15.857C29.7771 15.5852 30.0803 15.3028 30.3522 14.9997L30.4045 15.0101Z" fill="#D6565C"/>
<path d="M10.7451 35.3633L3.1953 26.9483C2.63063 26.321 2.26464 25.5473 2.14961 24.7006L1.33398 19.0557V26.8227C1.33398 27.6694 1.58494 28.4953 2.0555 29.1957L8.32959 38.5936C8.48644 38.834 8.75832 38.97 9.04065 38.97H17.5943C18.0649 38.97 18.4518 38.5832 18.4518 38.1127V34.6211L11.5085 35.6246C11.2261 35.6664 10.9438 35.5619 10.7451 35.3528V35.3633Z" fill="#F9C5B4"/>
<path d="M10.8278 15.867L19.601 23.3832C19.9252 23.655 20.3958 23.655 20.7095 23.3832L29.4827 15.867C31.71 13.9645 32.9858 11.1837 32.9858 8.25671C33.059 2.19357 25.4255 -0.963369 21.2009 3.37492L20.1553 4.42029L19.1096 3.37492C14.885 -0.963369 7.25154 2.19357 7.32474 8.25671C7.32474 11.1837 8.60047 13.954 10.8278 15.867ZM14.2367 3.06125C15.6275 3.06125 16.9241 3.60479 17.907 4.57699L19.5592 6.22876C19.8938 6.56327 20.4376 6.56327 20.7722 6.22876L22.4244 4.57699C23.4073 3.59434 24.7144 3.06125 26.0947 3.06125C32.4943 3.35396 32.5466 11.2047 28.3848 14.5603L20.1657 21.6061L11.9467 14.5603C7.78484 11.2047 7.83713 3.3435 14.2367 3.06125Z" fill="black"/>
<path d="M14.718 24.3544C13.4005 21.9814 9.69875 23.2152 10.0961 25.9122L10.3994 28.0132L7.29368 24.9085L6.6349 18.281C6.248 14.9776 1.40649 15.2076 1.34375 18.5423V26.832C1.34375 27.6788 1.59472 28.5046 2.06527 29.205L8.33936 38.6029C8.49622 38.8433 8.76809 38.9793 9.05043 38.9793H17.6041C18.0747 38.9793 18.4616 38.5925 18.4616 38.1221V32.1635C18.4616 31.4422 18.2733 30.7209 17.9283 30.0832L14.7389 24.3442L14.718 24.3544ZM16.7362 37.2753H9.48961L3.47694 28.2538C3.19461 27.8357 3.04822 27.3443 3.04822 26.832V18.5423C3.04822 17.3715 4.80496 17.2773 4.93044 18.4481L5.62059 25.3791C5.64151 25.5777 5.72516 25.7554 5.87155 25.9018L11.0059 31.0344C11.5496 31.6198 12.5953 31.0972 12.4594 30.3132L11.8006 25.6716C11.6542 24.8562 12.8567 24.4485 13.2332 25.1907L16.4225 30.9298C16.6316 31.3061 16.7466 31.7454 16.7466 32.174V37.2753H16.7362Z" fill="black"/>
<path d="M27.0997 25.1912C27.4762 24.449 28.6787 24.8567 28.5323 25.6721L27.8735 30.3137C27.7376 31.0977 28.7728 31.6204 29.327 31.035L34.4613 25.9023C34.5972 25.7664 34.6914 25.5782 34.7123 25.3796L35.4024 18.4487C35.5175 17.2778 37.2742 17.372 37.2846 18.5428V26.8325C37.2846 27.3448 37.1383 27.8362 36.8559 28.2544L30.8433 37.2758H23.5967V32.1745C23.5967 31.7354 23.7117 31.3066 23.9208 30.9303L27.1102 25.1912H27.0997Z" fill="#FFCEBF"/>
<path d="M29.5778 35.3633L37.1276 26.9483C37.6923 26.321 38.0582 25.5473 38.1733 24.7006L38.9889 19.0557V26.8227C38.9889 27.6694 38.7379 28.4953 38.2674 29.1957L31.9933 38.5936C31.8364 38.834 31.5646 38.97 31.2822 38.97H22.7285C22.258 38.97 21.8711 38.5832 21.8711 38.1127V34.6211L28.8144 35.6246C29.0968 35.6664 29.3791 35.5619 29.5778 35.3528V35.3633Z" fill="#F9C5B4"/>
<path d="M22.4161 30.1035C22.0606 30.7412 21.8828 31.4523 21.8828 32.184V38.1426C21.8828 38.613 22.2697 38.9996 22.7403 38.9996H31.2939C31.5763 38.9996 31.8482 38.8534 32.005 38.6234L38.2791 29.2255C38.7497 28.5251 39.0006 27.6993 39.0006 26.8525V18.5628C38.9379 15.2281 34.0964 14.9981 33.7095 18.3015L33.0507 24.929L29.945 28.0337L30.2483 25.9325C30.6352 23.2459 26.9439 22.0019 25.6264 24.3749L22.437 30.114L22.4161 30.1035ZM23.5873 32.184C23.5873 31.745 23.7023 31.3162 23.9114 30.9398L27.1008 25.2008C27.4772 24.4586 28.6797 24.8662 28.5333 25.6816L27.8746 30.3232C27.7386 31.1073 28.7739 31.6299 29.3281 31.0445L34.4624 25.9118C34.5983 25.7759 34.6924 25.5877 34.7133 25.3891L35.4035 18.4582C35.5185 17.2874 37.2752 17.3815 37.2857 18.5524V26.8421C37.2857 27.3543 37.1393 27.8457 36.857 28.2639L30.8443 37.2853H23.5977V32.184H23.5873Z" fill="black"/>
</svg>
