<svg width="40" height="41" viewBox="0 0 40 41" fill="none" xmlns="http://www.w3.org/2000/svg">
<g clip-path="url(#clip0_225_10344)">
<path d="M7.43675 14.7962C7.43675 14.7962 8.68847 13.0393 12.8938 13.0393C17.0991 13.0393 17.3626 14.7962 22.0181 14.7962C26.6736 14.7962 29.4406 13.0393 29.4406 13.0393L24.7851 1.27979C24.7851 1.27979 22.0072 3.03669 17.3626 3.03669C12.7181 3.03669 12.4436 1.27979 8.23829 1.27979C4.03297 1.27979 2.78125 3.03669 2.78125 3.03669L7.43675 14.7962Z" fill="#FFE843"/>
<path d="M34.1287 36.4161L31.5814 34.5713L28.3642 28.1152H24.126L30.4944 38.5242L34.1287 36.4161Z" fill="#005DBB"/>
<path d="M21.7441 28.1147V39.7204H25.9495L24.6758 36.844L25.675 28.1147H21.7441Z" fill="#007AF6"/>
<path d="M27.6832 4.40869H21.0513C20.711 4.40869 20.4694 4.73792 20.5682 5.05634L21.5235 8.28438H27.2111L28.1663 5.05634C28.2652 4.72694 28.0236 4.40869 27.6832 4.40869Z" fill="#FF5D5D"/>
<path d="M27.2228 8.28418H21.5352V10.7C21.5352 12.2701 22.8088 13.5436 24.379 13.5436C25.9491 13.5436 27.2228 12.2701 27.2228 10.7V8.28418Z" fill="#FFCDAC"/>
<path d="M24.3783 14.3224C22.3799 14.3224 20.7549 12.6976 20.7549 10.6992V8.28344C20.7549 7.85522 21.1062 7.50391 21.5345 7.50391H27.2221C27.6503 7.50391 28.0017 7.85522 28.0017 8.28344V10.6992C28.0017 12.6976 26.3766 14.3224 24.3783 14.3224ZM22.314 9.06297V10.6992C22.314 11.8412 23.2364 12.7633 24.3783 12.7633C25.5202 12.7633 26.4425 11.8412 26.4425 10.6992V9.06297H22.314Z" fill="black"/>
<path d="M23.8413 17.4412L24.3684 19.5492L29.2874 16.5517C29.9023 16.1784 30.7038 16.2772 31.2089 16.7823C31.8896 17.463 31.7908 18.6049 31.0112 19.1648L25.675 22.9639C25.1699 23.3262 24.566 23.5129 23.9511 23.5129C22.6116 23.5129 21.4477 22.6235 21.0854 21.3388L20.1301 17.8803C19.658 16.2003 20.6791 14.4545 22.37 14.0373L24.3574 13.543H24.7197C26.6302 13.543 28.1784 15.091 28.1784 17.0015L27.3769 21.7452L29.4191 28.1134H20.3607L21.7222 23.5236L23.8194 17.4519L23.8413 17.4412Z" fill="#FF5D5D"/>
<path d="M27.2212 9.06366H21.5336C21.1932 9.06366 20.8858 8.83334 20.787 8.50394L19.8317 5.2759C19.7109 4.88062 19.7878 4.47406 20.0294 4.14466C20.2709 3.81527 20.6552 3.62891 21.0615 3.62891H27.6934C28.0996 3.62891 28.4839 3.81527 28.7255 4.14466C28.967 4.47406 29.0439 4.8916 28.9231 5.2759L27.9679 8.50394C27.869 8.83334 27.5616 9.06366 27.2212 9.06366ZM22.1156 7.5046H26.6393L27.3201 5.18797H21.4238L22.1046 7.5046H22.1156Z" fill="black"/>
<path d="M29.4395 28.8951H20.3811C20.1395 28.8951 19.8979 28.7742 19.7552 28.5766C19.6125 28.379 19.5576 28.1265 19.6344 27.885L20.9959 23.2952C21.1167 22.8779 21.5559 22.6364 21.9622 22.7681C22.3794 22.8889 22.61 23.3285 22.4892 23.7348L21.4242 27.3253H28.3635L26.6506 21.9779C26.5188 21.5716 26.7494 21.1323 27.1557 21.0005C27.5729 20.8688 28.0011 21.0993 28.1329 21.5056L30.1752 27.8743C30.252 28.1158 30.2081 28.368 30.0654 28.5766C29.9226 28.7852 29.6811 28.8951 29.4395 28.8951Z" fill="black"/>
<path d="M23.9621 24.3033C22.2821 24.3033 20.7999 23.1724 20.3497 21.5583L19.3944 18.0992C19.1089 17.0781 19.2517 16.013 19.7787 15.1017C20.3058 14.1904 21.1732 13.5426 22.1943 13.2901L24.1817 12.7963C24.5989 12.6975 25.0271 12.9495 25.1259 13.3668C25.2248 13.784 24.9722 14.2126 24.555 14.3114L22.5676 14.8052C21.9527 14.9589 21.4367 15.3435 21.1183 15.8925C20.7999 16.4415 20.712 17.0782 20.8877 17.6821L21.843 21.1407C22.1065 22.0849 22.9739 22.7437 23.9511 22.7437C24.4123 22.7437 24.8514 22.6014 25.2248 22.3378L30.561 18.5388C30.7477 18.4071 30.8685 18.1984 30.8904 17.9678C30.9124 17.7373 30.8355 17.5176 30.6599 17.3529C30.4073 17.0894 30.0011 17.0451 29.6936 17.2317L24.7746 20.2292C24.566 20.361 24.3025 20.3833 24.0719 20.2845C23.8413 20.1856 23.6656 19.988 23.6107 19.7574L23.0837 17.6494C22.9739 17.2321 23.2374 16.8035 23.6546 16.7047C24.0719 16.6059 24.5001 16.8475 24.5989 17.2757L24.8734 18.3517L28.8921 15.9032C29.8254 15.3322 31.0112 15.4863 31.7798 16.2549C32.2629 16.749 32.5155 17.4187 32.4496 18.1105C32.3947 18.8022 32.0323 19.4281 31.4724 19.8234L26.1361 23.6224C25.4993 24.0726 24.7417 24.314 23.9621 24.314V24.3033Z" fill="black"/>
<path d="M28.1992 17.7833C27.771 17.7833 27.4197 17.432 27.4197 17.0037C27.4197 15.5324 26.2229 14.3247 24.7406 14.3247H24.3782C23.95 14.3247 23.5986 13.9734 23.5986 13.5452C23.5986 13.1169 23.95 12.7656 24.3782 12.7656H24.7406C27.0793 12.7656 28.9788 14.665 28.9788 17.0037C28.9788 17.432 28.6275 17.7833 28.1992 17.7833Z" fill="black"/>
<path d="M25.9488 40.4992H21.7434C21.3152 40.4992 20.9639 40.1474 20.9639 39.7192V28.1136C20.9639 27.6853 21.3152 27.334 21.7434 27.334C22.1717 27.334 22.523 27.6853 22.523 28.1136V38.9289H24.741L23.9504 37.15C23.8955 37.0183 23.8736 36.8864 23.8845 36.7437L24.8837 28.0149C24.9276 27.5867 25.3229 27.2904 25.7511 27.3233C26.1793 27.3672 26.4868 27.762 26.4319 28.1902L25.4547 36.6997L26.6405 39.3793C26.7503 39.6208 26.7283 39.895 26.5856 40.1256C26.4429 40.3452 26.1903 40.4773 25.9268 40.4773L25.9488 40.4992Z" fill="black"/>
<path d="M24.6649 37.624H22.2053C21.7771 37.624 21.4258 37.2727 21.4258 36.8445C21.4258 36.4163 21.7771 36.0649 22.2053 36.0649H24.6649C25.0931 36.0649 25.4445 36.4163 25.4445 36.8445C25.4445 37.2727 25.0931 37.624 24.6649 37.624Z" fill="black"/>
<path d="M34.1176 37.1945C33.9529 37.1945 33.7992 37.1504 33.6565 37.0406L31.1091 35.1963C31.0103 35.1195 30.9224 35.0204 30.8675 34.9106L27.6504 28.4545C27.4528 28.0702 27.6175 27.5978 28.0018 27.4112C28.3861 27.2245 28.8582 27.3786 29.0449 27.7629L32.1851 34.0544L34.5788 35.7893C34.9301 36.0418 35.007 36.5356 34.7544 36.876C34.6007 37.0846 34.3592 37.1945 34.1176 37.1945Z" fill="black"/>
<path d="M30.4827 39.3025C30.2192 39.3025 29.9667 39.1709 29.8239 38.9293L24.7512 30.7823C24.5206 30.4199 24.6304 29.9368 25.0037 29.7063C25.3661 29.4757 25.8492 29.5855 26.0798 29.9588L30.7572 37.4582L33.7438 35.734C34.1171 35.5144 34.5892 35.6464 34.8088 36.0197C35.0284 36.3931 34.8967 36.8759 34.5233 37.0845L30.889 39.1926C30.7682 39.2694 30.6255 39.3025 30.4937 39.3025H30.4827Z" fill="black"/>
<path d="M29.4406 36.5912C29.1661 36.5912 28.9136 36.4481 28.7599 36.1956C28.5403 35.8222 28.672 35.3394 29.0454 35.1308L31.1755 33.9009C31.5488 33.6813 32.0209 33.8134 32.2405 34.1867C32.4601 34.56 32.3284 35.0428 31.9551 35.2514L29.8249 36.4813C29.7042 36.5582 29.5724 36.5912 29.4297 36.5912H29.4406Z" fill="black"/>
<path d="M34.5456 25.1286C34.2381 25.1286 33.9527 24.9527 33.8209 24.6562L26.7279 7.90052C26.5632 7.50524 26.7498 7.04443 27.1451 6.87973C27.5404 6.71503 28.0015 6.90156 28.1662 7.29684L35.2593 24.0525C35.424 24.4478 35.2373 24.9086 34.842 25.0733C34.7432 25.1172 34.6444 25.1393 34.5346 25.1393L34.5456 25.1286Z" fill="black"/>
<path d="M26.0802 5.12332C25.7728 5.12332 25.4873 4.94744 25.3555 4.65099L24.0599 1.58753C23.8952 1.19226 24.0818 0.73144 24.4771 0.566741C24.8724 0.402041 25.3336 0.588572 25.4983 0.98385L26.7939 4.0473C26.9586 4.44258 26.7719 4.90393 26.3767 5.06863C26.2778 5.11255 26.179 5.13404 26.0692 5.13404L26.0802 5.12332Z" fill="black"/>
<path d="M7.43696 15.5655C7.43696 15.5655 7.37108 15.5655 7.32717 15.5655C7.05267 15.5216 6.81111 15.346 6.71229 15.0825L5.27392 11.4373C5.10922 11.0311 5.30685 10.581 5.71311 10.4273C6.10839 10.2626 6.56955 10.4601 6.72327 10.8663L7.76637 13.4907C8.65574 12.9088 10.2478 12.2608 12.894 12.2608C15.079 12.2608 16.2978 12.7111 17.4727 13.1503C18.4718 13.5236 19.4051 13.8749 21.0192 13.9738C21.4474 14.0067 21.7768 14.3688 21.7438 14.808C21.7109 15.2362 21.3486 15.5548 20.9094 15.5328C19.0757 15.412 17.9777 15.006 16.9237 14.6107C15.8257 14.2044 14.8045 13.8199 12.894 13.8199C9.2267 13.8199 8.07381 15.2473 8.06283 15.2583C7.90911 15.456 7.67852 15.5655 7.43696 15.5655Z" fill="black"/>
<path d="M5.07571 9.60273C4.8671 9.60273 4.66945 9.51493 4.51573 9.37219C4.44985 9.29533 4.38397 9.20751 4.35103 9.11967C4.30711 9.02085 4.28516 8.92173 4.28516 8.81194C4.28516 8.71312 4.30711 8.61427 4.35103 8.51545C4.38397 8.42762 4.44985 8.3398 4.51573 8.26294C4.81219 7.97746 5.32825 7.97746 5.62471 8.26294C5.70157 8.3398 5.75647 8.42762 5.78941 8.51545C5.83333 8.61427 5.85529 8.71312 5.85529 8.81194C5.85529 8.92173 5.83333 9.02085 5.78941 9.11967C5.75647 9.20751 5.70157 9.29533 5.62471 9.37219C5.48197 9.51493 5.27335 9.60273 5.07571 9.60273Z" fill="black"/>
<path d="M4.08747 7.13205C3.78003 7.13205 3.48357 6.94517 3.36279 6.63774L2.05618 3.33303C1.95736 3.09147 1.9903 2.80579 2.14401 2.5862C2.29773 2.37758 3.75807 0.510833 8.23789 0.510833C10.4229 0.510833 11.6417 0.961076 12.8165 1.40027C14.0024 1.83947 15.1223 2.25701 17.3622 2.25701C21.6993 2.25701 24.3455 0.6427 24.3674 0.62074C24.7298 0.390161 25.2129 0.500196 25.4435 0.862535C25.6741 1.22487 25.5643 1.70797 25.2019 1.93855C25.0812 2.01541 22.1824 3.81608 17.3622 3.81608C14.8368 3.81608 13.4753 3.31087 12.2675 2.86069C11.1695 2.45444 10.1484 2.07044 8.23789 2.07044C5.56976 2.07044 4.23021 2.82758 3.70317 3.23384L4.82313 6.05603C4.98783 6.46229 4.79019 6.91238 4.38393 7.0661C4.28511 7.09904 4.19727 7.12079 4.09845 7.12079L4.08747 7.13205Z" fill="black"/>
<path d="M26.7065 14.9376C26.3661 14.9376 26.0587 14.718 25.9598 14.3666C25.8391 13.9494 26.0806 13.5213 26.4978 13.4005C28.1119 12.9393 29.0232 12.3794 29.0342 12.3685C29.3965 12.1379 29.8797 12.2474 30.1103 12.6097C30.3408 12.9721 30.231 13.4551 29.8687 13.6857C29.8248 13.7187 28.7817 14.3666 26.9261 14.8936C26.8602 14.9156 26.7833 14.9269 26.7065 14.9269V14.9376Z" fill="black"/>
</g>
<defs>
<clipPath id="clip0_225_10344">
<rect width="40" height="40" fill="white" transform="translate(0 0.5)"/>
</clipPath>
</defs>
</svg>
