<svg width="40" height="40" viewBox="0 0 40 40" fill="none" xmlns="http://www.w3.org/2000/svg">
<path d="M35.9877 5.85297C35.7991 4.92939 35.0824 4.21314 34.1583 4.02465C34.0735 4.0058 33.9792 3.98696 33.8943 3.97754C26.9446 4.84458 19.8156 8.23731 14.0258 14.0238C8.23588 19.8104 4.84117 26.9352 3.97363 33.8809C3.99249 33.9657 4.01135 34.06 4.02078 34.1448C4.20938 35.0684 4.92604 35.7847 5.85015 35.9731C13.9692 37.6318 22.7294 35.3134 29.0285 29.018C35.3276 22.7225 37.6379 13.9673 35.9877 5.85297Z" fill="#CE775F"/>
<path d="M26.6708 29.7901C19.1929 29.7901 12.7618 25.3418 9.8669 18.9521C6.58534 23.6266 4.59566 28.8006 3.96387 33.8709C3.98273 33.9557 4.00159 34.0499 4.01102 34.1347C4.19961 35.0583 4.91628 35.7746 5.8404 35.9631C13.6482 37.5558 22.0502 35.473 28.2738 29.7147C27.7363 29.7618 27.1988 29.7901 26.6519 29.7901" fill="#C0694E"/>
<path d="M14.2532 14.2501C20.3071 8.1997 27.8792 4.87289 35.093 4.44879C34.8195 4.24146 34.4989 4.09066 34.15 4.02469C26.031 2.36601 17.2708 4.6844 10.9717 10.9798C4.67259 17.2753 2.3623 26.0305 4.01251 34.1449C4.08794 34.4936 4.22939 34.814 4.43684 35.0873C4.86118 27.8683 8.18989 20.3005 14.2438 14.2501" fill="#C0694E"/>
<path d="M8.42645 13.9482C4.08875 19.8667 2.61771 27.2365 4.02275 34.1351C4.09818 34.4838 4.23963 34.8043 4.44708 35.0776C4.75827 29.7622 6.65365 24.2585 10.0389 19.3107C9.23741 17.6426 8.69048 15.8425 8.42645 13.9482Z" fill="#B25D46"/>
<path d="M5.55762 27.236L14.563 36.2362C16.2604 36.01 18.2595 35.52 20.1549 34.7849L7.73589 22.373C6.86835 23.9658 6.14226 25.5867 5.55762 27.2265" fill="#B5DCFF"/>
<path d="M5.91625 27.5856C6.47261 25.9175 7.17042 24.2683 8.02853 22.6567L5.20902 19.8389C4.50179 21.6766 4.0303 23.5332 3.75684 25.4275L5.91625 27.5856Z" fill="#8BCAFF"/>
<path d="M27.2479 5.56055C25.6071 6.14486 23.9758 6.87053 22.3916 7.73756L34.8106 20.1494C35.499 18.3493 35.9893 16.4739 36.2628 14.5608L27.2574 5.56055H27.2479Z" fill="#DBEDFF"/>
<path d="M25.4463 3.75098C23.9376 3.93946 21.8159 4.44836 19.8545 5.2023L22.674 8.02017C24.2865 7.17198 25.9367 6.46516 27.6058 5.90913L25.4463 3.75098Z" fill="#B5DCFF"/>
<path d="M10.9993 36.9906C9.25478 36.9906 7.50084 36.8116 5.75634 36.4629C4.63419 36.2367 3.76665 35.3602 3.53091 34.2387C1.77697 25.6437 4.42674 16.8131 10.6221 10.6213C16.8175 4.42953 25.6531 1.77191 34.2437 3.53426C35.3658 3.76044 36.2333 4.63689 36.4691 5.75838C38.223 14.3534 35.5733 23.184 29.3779 29.3757C24.4367 34.3141 17.8264 37 10.9993 37V36.9906ZM29.0101 3.99604C22.4376 3.99604 16.0819 6.57828 11.3293 11.3281C5.36972 17.2843 2.82368 25.7757 4.50217 34.0408C4.65305 34.7665 5.21884 35.3319 5.94493 35.4827C14.2148 37.1697 22.7111 34.6157 28.6707 28.6595C34.6303 22.7033 37.1763 14.212 35.4978 5.94688C35.3469 5.22121 34.7812 4.65572 34.0551 4.50493C32.3766 4.16566 30.6886 3.99604 29.0101 3.99604Z" fill="black"/>
<path d="M4.4456 35.577C4.29472 35.577 4.14385 35.5016 4.04955 35.379C3.79495 35.0398 3.61578 34.6533 3.53091 34.2387C1.77697 25.6437 4.42674 16.8131 10.6221 10.6213C16.8175 4.42953 25.6531 1.77191 34.2437 3.53426C34.6586 3.61908 35.0452 3.7887 35.3847 4.05258C35.5544 4.1751 35.6204 4.39187 35.5638 4.58978C35.5073 4.78769 35.3281 4.92906 35.1206 4.94791C27.7843 5.38142 20.3065 8.90612 14.6015 14.6078C8.89645 20.3096 5.36971 27.783 4.93594 35.1151C4.92651 35.3225 4.78507 35.5016 4.57761 35.5581C4.53047 35.577 4.48332 35.577 4.43617 35.577H4.4456ZM29.0101 3.99604C22.4376 3.99604 16.0819 6.57828 11.3293 11.3281C5.75634 16.8979 3.16315 24.673 4.22871 32.4198C5.26599 25.7191 8.70785 19.0938 13.8942 13.901C19.09 8.70821 25.7192 5.27775 32.4237 4.23165C31.2827 4.07143 30.1417 3.99604 29.0007 3.99604H29.0101Z" fill="black"/>
<path d="M11.2442 20.2063C11.1122 20.2063 10.9896 20.1591 10.8953 20.0649L9.13192 18.3025C8.93389 18.1046 8.93389 17.7936 9.13192 17.5957C9.32994 17.3978 9.64112 17.3978 9.83915 17.5957L11.6025 19.358C11.8005 19.556 11.8005 19.867 11.6025 20.0649C11.5082 20.1591 11.3762 20.2063 11.2536 20.2063H11.2442Z" fill="black"/>
<path d="M20.1182 11.3479C19.9862 11.3479 19.8636 11.3007 19.7693 11.2065L18.0059 9.44412C17.8079 9.24621 17.8079 8.93521 18.0059 8.7373C18.204 8.53939 18.5151 8.53939 18.7132 8.7373L20.4765 10.4996C20.6746 10.6976 20.6746 11.0086 20.4765 11.2065C20.3822 11.3007 20.2502 11.3479 20.1276 11.3479H20.1182Z" fill="black"/>
<path d="M18.4776 12.6565C18.3456 12.6565 18.223 12.6093 18.1287 12.5151L16.3653 10.7527C16.1673 10.5548 16.1673 10.2438 16.3653 10.0459C16.5633 9.84798 16.8745 9.84798 17.0726 10.0459L18.8359 11.8082C19.0339 12.0061 19.0339 12.3172 18.8359 12.5151C18.7416 12.6093 18.6096 12.6565 18.487 12.6565H18.4776Z" fill="black"/>
<path d="M16.837 13.9767C16.7049 13.9767 16.5824 13.9296 16.4881 13.8354L14.7247 12.073C14.5267 11.8751 14.5267 11.5641 14.7247 11.3662C14.9227 11.1683 15.2339 11.1683 15.4319 11.3662L17.1953 13.1286C17.3933 13.3265 17.3933 13.6375 17.1953 13.8354C17.101 13.9296 16.969 13.9767 16.8464 13.9767H16.837Z" fill="black"/>
<path d="M15.3086 15.3996C15.1766 15.3996 15.054 15.3525 14.9597 15.2583L13.1964 13.4959C12.9983 13.298 12.9983 12.987 13.1964 12.7891C13.3944 12.5911 13.7056 12.5911 13.9036 12.7891L15.667 14.5515C15.865 14.7494 15.865 15.0604 15.667 15.2583C15.5727 15.3525 15.4407 15.3996 15.3181 15.3996H15.3086Z" fill="black"/>
<path d="M13.8848 16.9357C13.7528 16.9357 13.6302 16.8886 13.5359 16.7944L11.7725 15.032C11.5745 14.8341 11.5745 14.5231 11.7725 14.3252C11.9706 14.1273 12.2817 14.1273 12.4798 14.3252L14.2431 16.0875C14.4412 16.2854 14.4412 16.5964 14.2431 16.7944C14.1488 16.8886 14.0168 16.9357 13.8942 16.9357H13.8848Z" fill="black"/>
<path d="M12.5655 18.5763C12.4335 18.5763 12.3109 18.5292 12.2166 18.435L10.4532 16.6726C10.2552 16.4747 10.2552 16.1637 10.4532 15.9658C10.6512 15.7679 10.9624 15.7679 11.1604 15.9658L12.9238 17.7282C13.1218 17.9261 13.1218 18.2371 12.9238 18.435C12.8295 18.5292 12.6975 18.5763 12.5749 18.5763H12.5655Z" fill="black"/>
<path d="M14.5721 36.7361C14.44 36.7361 14.3175 36.6796 14.2232 36.5947L10.3947 32.7685C10.1966 32.5706 10.1966 32.2596 10.3947 32.0616C10.5927 31.8637 10.9039 31.8637 11.1019 32.0616L14.7607 35.7183C16.2977 35.4827 17.8065 35.1151 19.2681 34.5968L5.41575 20.7524C4.90654 22.2132 4.52935 23.7306 4.2936 25.2667L9.45169 30.4218C9.64971 30.6197 9.64971 30.9307 9.45169 31.1286C9.25366 31.3266 8.94248 31.3266 8.74445 31.1286L3.40721 25.7945C3.29405 25.6814 3.2469 25.5306 3.26576 25.3704C3.53922 23.4196 4.039 21.5064 4.74623 19.6781C4.80281 19.5178 4.94426 19.4048 5.10456 19.3671C5.26487 19.3294 5.44404 19.386 5.55719 19.4991L20.5128 34.446C20.6354 34.5685 20.6825 34.7382 20.6448 34.8984C20.6071 35.0586 20.4939 35.2 20.3336 35.2565C18.5043 35.9633 16.5806 36.4534 14.6381 36.7361C14.6192 36.7361 14.5909 36.7361 14.5721 36.7361Z" fill="black"/>
<path d="M34.8079 20.6491C34.6759 20.6491 34.5533 20.602 34.459 20.5077L29.2821 15.3338C29.0841 15.1359 29.0841 14.8249 29.2821 14.6269C29.4801 14.429 29.7913 14.429 29.9893 14.6269L34.6099 19.2543C35.1191 17.7936 35.4963 16.2762 35.7321 14.74L25.2744 4.28848C23.7374 4.52409 22.2286 4.89164 20.767 5.40998L28.3485 12.9871C28.5466 13.185 28.5466 13.496 28.3485 13.6939C28.1505 13.8919 27.8393 13.8919 27.6413 13.6939L19.5129 5.56074C19.3903 5.43823 19.3431 5.26861 19.3808 5.10839C19.4186 4.94818 19.5317 4.80681 19.692 4.75027C21.5214 4.04344 23.4451 3.55337 25.3876 3.27064C25.5385 3.25179 25.6988 3.29894 25.8119 3.41203L36.6185 14.2217C36.7316 14.3348 36.7788 14.4856 36.7599 14.6458C36.4864 16.5966 35.9867 18.5098 35.2794 20.3381C35.2229 20.4983 35.0814 20.6114 34.9211 20.6491C34.8834 20.6491 34.8551 20.6585 34.8174 20.6585L34.8079 20.6491Z" fill="black"/>
</svg>
