<svg width="40" height="40" viewBox="0 0 40 40" fill="none" xmlns="http://www.w3.org/2000/svg">
<path d="M4.69393 33.479L7.75504 36.54V37.0781C7.75504 37.437 7.60726 37.7643 7.37504 37.9966C7.14282 38.2288 6.81559 38.3764 6.4567 38.3764C6.09781 38.3764 5.78115 38.2393 5.53837 37.9966L2.01281 34.4712C1.77004 34.2284 1.63281 33.8905 1.63281 33.5527C1.63281 32.8349 2.21337 32.2544 2.93115 32.2544H3.46949L4.69393 33.479Z" fill="#B27946"/>
<path d="M19.5671 21.3944C19.7254 21.5527 19.8838 21.6793 20.0527 21.7954L6.53101 35.3279L4.69434 33.491L18.2266 19.959C18.3321 20.1279 18.4693 20.2862 18.6277 20.4445L19.5882 21.4052L19.5671 21.3944Z" fill="#DFB28B"/>
<path d="M22.4595 9.57129C22.4384 11.028 22.2062 12.4424 21.7839 13.7935C21.3089 15.303 20.6017 16.728 19.6728 18.0157L22.0056 20.349C23.2089 19.4834 24.5284 18.8075 25.9323 18.343C24.5284 19.3141 23.4517 20.7181 22.9028 22.3647C22.6495 22.4175 22.3962 22.4601 22.1428 22.4601C21.4039 22.4601 20.6756 22.2383 20.0739 21.8055C19.9051 21.7 19.7467 21.5629 19.5884 21.4045L18.6278 20.4438C18.4695 20.2855 18.3428 20.1272 18.2267 19.9583C17.7939 19.3566 17.5723 18.6389 17.5723 17.8895C17.5723 17.2667 17.7412 16.6437 18.0473 16.0948C19.3351 13.8359 20.0212 11.2606 20.0212 8.65335V7.12259L22.8712 4.2729C24.5812 2.56289 26.8928 1.60205 29.3101 1.60205C31.7273 1.60205 34.0917 2.61567 35.7489 4.2729C37.4062 5.93012 38.4195 8.19915 38.4195 10.7114C38.4195 13.2236 37.4589 15.4404 35.7489 17.1504L34.7145 18.1848C33.9756 17.7098 33.1628 17.3615 32.2762 17.1504L33.6062 15.8098L34.0073 15.4088C34.7356 14.6805 35.2739 13.8253 35.5906 12.8859C35.8334 12.1892 35.9495 11.4608 35.9495 10.7114C35.9495 10.1836 35.8862 9.6561 35.77 9.15999C35.4745 7.95666 34.8517 6.86946 34.0073 6.01446C33.1523 5.15946 32.0756 4.54732 30.8617 4.25176C30.3551 4.1251 29.8378 4.07189 29.3101 4.07189C28.5606 4.07189 27.8217 4.1989 27.1356 4.43113C26.1962 4.75835 25.3306 5.29668 24.6128 6.01446L22.4806 8.1467V9.27596C22.4806 9.37096 22.4806 9.47629 22.4806 9.57129H22.4595Z" fill="#B27946"/>
<path d="M34.7044 18.1837C36.9316 19.5981 38.3989 22.0788 38.3989 24.9077C38.3989 29.3094 34.8311 32.877 30.4294 32.877C26.0277 32.877 22.46 29.3094 22.46 24.9077C22.46 24.021 22.6077 23.1659 22.8716 22.3637C23.4205 20.717 24.4972 19.313 25.9011 18.3419C25.9855 18.2892 26.0594 18.2365 26.1439 18.1837C27.2205 17.4976 28.4555 17.0646 29.8066 16.9591C30.0072 16.938 30.2077 16.9385 30.4188 16.9385C31.0522 16.9385 31.6644 17.0121 32.2555 17.1493C33.1316 17.3604 33.955 17.7087 34.6833 18.1837H34.7044Z" fill="#FCD770"/>
<path d="M24.3066 24.9082H25.5311C25.5311 22.206 27.7266 20 30.4394 20V18.7754C27.0616 18.7754 24.3066 21.5199 24.3066 24.9082Z" fill="#1E1713"/>
<path d="M35.6433 18.0997L36.1606 17.5827C37.9972 15.7461 39.0106 13.3075 39.0106 10.7108C39.0106 5.35914 34.6511 1 29.2994 1C26.7028 1 24.2644 2.01302 22.4278 3.84969L19.3983 6.87926V8.66309C19.3983 11.1648 18.7439 13.635 17.4983 15.7989C17.1289 16.4322 16.9389 17.1606 16.9389 17.8889C16.9389 18.6172 17.1078 19.2607 17.4244 19.8624L4.67334 32.6136L3.70223 31.6426H2.91056C1.85501 31.6426 1 32.4976 1 33.5532C1 34.0598 1.20055 34.5452 1.55944 34.9041L5.085 38.43C5.44389 38.7888 5.92945 38.9892 6.43611 38.9892C7.49167 38.9892 8.34667 38.1341 8.34667 37.0786V36.2869L7.37556 35.3159L20.1267 22.5647C20.7072 22.8708 21.3617 23.0396 22.0372 23.0502C21.9106 23.6413 21.8367 24.2643 21.8367 24.8871C21.8367 29.616 25.6894 33.4686 30.4183 33.4686C35.1472 33.4686 39 29.616 39 24.8871C39 22.1215 37.6806 19.6622 35.6328 18.0894L35.6433 18.0997ZM7.14333 37.0786C7.14333 37.4586 6.83722 37.7651 6.45722 37.7651C6.27778 37.7651 6.09833 37.6907 5.97167 37.5641L2.44611 34.0387C2.31945 33.912 2.24556 33.7326 2.24556 33.5532C2.24556 33.1732 2.55167 32.8672 2.93167 32.8672H3.21667L7.14333 36.7935V37.0786ZM6.53112 34.4505L5.56 33.4795L18.1739 20.8654L19.1239 21.8153L6.51 34.4294L6.53112 34.4505ZM22.1217 21.8364C21.3194 21.8364 20.57 21.5302 20 20.9602L19.05 20.0103C18.48 19.4403 18.1739 18.6911 18.1739 17.8889C18.1739 17.3717 18.3111 16.8543 18.5644 16.4004C19.905 14.0465 20.6228 11.3656 20.6228 8.65278V7.3756L23.2933 4.70475C24.8978 3.10031 27.03 2.21379 29.2994 2.21379C33.9756 2.21379 37.7861 6.02438 37.7861 10.7005C37.7861 12.9699 36.8995 15.1021 35.295 16.7065L34.5983 17.4034C34.2183 17.1923 33.8172 17.0126 33.4056 16.8648L34.4189 15.8412C35.7911 14.469 36.5511 12.6427 36.5511 10.7005C36.5511 6.69994 33.2894 3.4384 29.2889 3.4384C27.3467 3.4384 25.5206 4.19842 24.1483 5.57064L21.8367 7.88224V9.27539C21.8367 12.3154 20.9078 15.2076 19.1556 17.6564L18.8494 18.0786L21.9106 21.1401L22.3328 20.8339C22.6178 20.6334 22.9028 20.4325 23.2089 20.2531C22.8922 20.7386 22.6283 21.2561 22.4172 21.805C22.3117 21.8155 22.2061 21.8261 22.1006 21.8261L22.1217 21.8364ZM20.4644 17.9523C21.1083 17.0023 21.6361 15.9783 22.0372 14.9227L23.135 16.0205L20.8339 18.3213L20.4644 17.9523ZM33.6061 14.9438L32.2233 13.561L33.8067 11.9777L34.8728 13.0435C34.5772 13.7402 34.155 14.3844 33.6061 14.9438ZM27.3256 13.561L28.9089 11.9777L30.4922 13.561L28.9089 15.1443L27.3256 13.561ZM25.5944 13.561L24.0111 15.1443L22.4806 13.6136C22.7339 12.748 22.9028 11.8613 22.9978 10.9536L25.605 13.561H25.5944ZM24.8767 11.1123L26.46 9.52897L28.0433 11.1123L26.46 12.6956L24.8767 11.1123ZM27.3256 8.66309L28.9089 7.07975L30.4922 8.66309L28.9089 10.2464L27.3256 8.66309ZM29.7744 11.1123L31.3578 9.52897L32.9411 11.1123L31.3578 12.6956L29.7744 11.1123ZM35.3478 10.7108C35.3478 11.038 35.3161 11.3654 35.2633 11.6927L34.6828 11.1123L35.3372 10.4577C35.3372 10.5422 35.3478 10.6264 35.3478 10.7108ZM33.8172 10.2464L32.2339 8.66309L33.9861 6.91121C34.4822 7.51288 34.8517 8.22006 35.0839 8.98006L33.8067 10.2572L33.8172 10.2464ZM31.3683 7.79772L29.785 6.21438L31.0622 4.9372C31.8222 5.16942 32.5294 5.54947 33.1311 6.03502L31.3789 7.78689L31.3683 7.79772ZM28.9194 5.3485L28.3389 4.76815C28.6556 4.71537 28.9828 4.68362 29.3206 4.68362C29.405 4.68362 29.4895 4.68389 29.5739 4.69444L28.9194 5.3485ZM26.9878 5.148L28.0539 6.21438L26.4706 7.79772L25.0878 6.41488C25.6472 5.86599 26.2911 5.44356 26.9878 5.148ZM24.2222 7.28025L25.605 8.66309L24.0217 10.2464L23.1033 9.32796C23.1033 9.32796 23.1033 9.29677 23.1033 9.28621V8.3992L24.2222 7.28025ZM24.0217 16.8859L25.13 17.9945C24.0533 18.4062 23.0294 18.9234 22.09 19.5567L21.7206 19.1872L24.0217 16.8859ZM26.2806 17.4137L24.8872 16.0205L26.4706 14.4372L28.5711 16.5375C27.7583 16.7169 26.9878 17.0126 26.2806 17.4137ZM30.1122 16.337L29.785 16.0097L31.3683 14.4264L32.7511 15.8092L32.0861 16.4741C31.5583 16.3685 31.0095 16.3159 30.45 16.3159C30.3339 16.3159 30.2178 16.3264 30.1122 16.337ZM30.45 32.2549C26.3967 32.2549 23.0928 28.9507 23.0928 24.8974C23.0928 20.8441 26.3967 17.5405 30.45 17.5405C34.5033 17.5405 37.8072 20.8441 37.8072 24.8974C37.8072 28.9507 34.5033 32.2549 30.45 32.2549Z" fill="#1E1713"/>
<path d="M28.3916 30.6812C28.8349 30.8395 29.2888 30.9451 29.7533 30.9874L29.8905 29.7736C29.521 29.7314 29.1516 29.6472 28.8033 29.5205L28.3916 30.6812Z" fill="#1E1713"/>
<path d="M30.9785 29.7752L31.1157 30.989C34.2191 30.6407 36.5624 28.0229 36.5624 24.8984H35.3379C35.3379 27.4001 33.4591 29.5008 30.9785 29.7752Z" fill="#1E1713"/>
</svg>
