<svg width="40" height="41" viewBox="0 0 40 41" fill="none" xmlns="http://www.w3.org/2000/svg">
<g clip-path="url(#clip0_225_10321)">
<path d="M33.9002 3.88708L26.0891 5.08607C24.478 5.33031 23.1224 6.40718 22.5224 7.91702L21.7002 9.98195L27.5335 11.4363L27.8002 9.30474L35.3558 6.06302L33.9002 3.87598V3.88708Z" fill="#FFAF9E"/>
<path d="M35.9327 1.17871L33.8994 3.88754L35.355 6.07459L37.2883 5.24196L35.9327 1.17871Z" fill="#007AF6"/>
<path d="M25.7666 12.6908V19.4628L30.6222 15.5772L28.2444 11.625L25.7666 12.6908Z" fill="#005DBB"/>
<path d="M20.3442 13.3678L15.322 14.8L9.49978 13.7009L6.11089 15.3995L5.88867 16.7539C8.17756 16.7539 10.3331 17.7863 11.7665 19.5737L11.7998 19.6181L12.8998 19.4627L21.6776 21.1724C23.8776 21.7275 26.1109 20.3953 26.6664 18.1971C26.7109 18.0306 26.7442 17.8641 26.7553 17.6975L27.5442 11.425L21.7109 9.9707L20.3553 13.3567L20.3442 13.3678Z" fill="#007AF6"/>
<path d="M25.4892 35.7275L25.0781 37.7592L26.4337 39.7908H28.3448V35.7275H25.4781H25.4892Z" fill="#E41F2D"/>
<path d="M28.3546 32.3407L26.4435 30.9863L25.499 35.7268H28.3657V32.3407H28.3546Z" fill="#FFCEBF"/>
<path d="M5.87773 16.7539L5.42218 19.4627L1.35551 18.1083L0.677734 20.1399L6.09996 23.526L10.1666 22.8488L11.7888 19.6182L11.7555 19.5738C10.3333 17.7864 8.16662 16.7539 5.87773 16.7539Z" fill="#FFAF9E"/>
<path d="M15.3232 14.8L16.2788 11.3362L14.9232 7.9502H12.8899V10.659L11.5343 12.6906L9.50098 13.712L12.4343 15.022L15.3343 14.8H15.3232Z" fill="#FFAF9E"/>
<path d="M11.1658 22.172C10.5213 21.2506 9.25464 21.0175 8.33242 21.6614L7.23242 22.4163L9.14353 25.2139L10.6435 25.003C11.5658 24.3591 11.7991 23.0935 11.1546 22.172H11.1658Z" fill="#FFDFCF"/>
<path d="M7.23309 22.4164H7.21087C6.28865 23.0714 6.05531 24.337 6.69976 25.2584C7.3442 26.1799 8.61087 26.413 9.53309 25.7691L10.6442 24.992L9.1442 25.2029L7.23309 22.4053V22.4164Z" fill="#4A4B46"/>
<path d="M6.1334 12.0359L4.80006 12.0137L4.7334 15.3997L6.07784 16.0991C7.20006 16.1102 8.12229 15.211 8.1334 14.0897C8.14451 12.9684 7.24451 12.047 6.12229 12.0359H6.1334Z" fill="#FFAF9E"/>
<path d="M4.79956 12.0138H4.77734C3.65511 12.0027 2.73289 12.9019 2.72178 14.0232C2.71067 15.1445 3.61067 16.0659 4.73289 16.077L6.08845 16.0992L4.744 15.3998L4.81067 12.0138H4.79956Z" fill="#5B3719"/>
<path d="M18.3658 20.4182L16.8325 20.1406L16.3769 16.2661C16.3103 15.7221 15.988 15.2447 15.5103 14.9783L8.82138 11.3369L7.46582 12.6913L12.088 16.7546L11.5436 23.2824C11.4547 24.3149 11.7547 25.3473 12.3769 26.1689V26.1911C12.8658 26.8239 13.5103 27.3124 14.2436 27.5899L17.6325 25.5583L18.3658 20.4182Z" fill="#FFDFCF"/>
<path d="M24.4108 21.5056L18.3664 20.4287L17.633 25.5688L14.2441 27.6004C14.5441 27.7226 14.8664 27.8003 15.1886 27.8447L22.9441 28.9549L26.3664 31.0975L30.2553 26.4348L24.4219 21.5056H24.4108Z" fill="#FD4755"/>
<path d="M33.2212 39.7899L31.7434 37.0811H28.3545V39.7899H33.2212Z" fill="#FD4755"/>
<path d="M33.0447 29.9098C33.1558 29.3103 32.9336 28.7108 32.467 28.3111L30.2336 26.4238L26.3447 31.0866L28.3447 32.3411V37.0815H31.7336L33.0336 29.9209L33.0447 29.9098Z" fill="#FFDFCF"/>
<path d="M39.3224 9.98145L36.6113 11.3359V14.0447H38.6447L39.3224 9.98145Z" fill="#005DBB"/>
<path d="M30.9553 10.7152C30.6664 10.6819 30.3664 10.7263 30.0997 10.8373L28.2441 11.6366L30.6219 15.5889L32.5441 14.0457H36.6108V11.3369L30.9553 10.7041V10.7152Z" fill="#FFAF9E"/>
<path d="M39.7222 9.43793C39.5222 9.2825 39.2445 9.2603 39.0111 9.38242L36.4778 10.648L31.0222 10.0374C30.6111 9.99302 30.2 10.0485 29.8222 10.215L28.2778 10.8812L28.4111 9.78208L37.5445 5.87426C37.8667 5.74104 38.0333 5.37468 37.9222 5.04163L36.5667 0.978382C36.4445 0.623126 36.0667 0.434395 35.7111 0.545413C35.5778 0.58982 35.4667 0.667533 35.3778 0.77855L33.5111 3.26535L25.9778 4.41993C25.2222 4.54205 24.4889 4.81959 23.8556 5.24146C22.9667 5.82985 22.2778 6.67359 21.8889 7.67275L19.8333 12.8129L16.4778 13.7676L16.9333 11.4695C16.9556 11.3363 16.9445 11.2031 16.9 11.081L15.5445 7.69495C15.4445 7.43961 15.1889 7.27308 14.9111 7.27308H12.8778C12.5 7.27308 12.2 7.57283 12.2 7.95029V10.4593L11.2445 11.8914L9.13334 10.7479C8.86668 10.6036 8.54446 10.648 8.33335 10.859L7.46668 11.7249C7.06668 11.4918 6.60001 11.3585 6.13335 11.3585L4.77779 11.3363C3.27779 11.3141 2.05557 12.5131 2.03335 14.0119C2.01112 15.5106 3.21112 16.7318 4.71112 16.754H5.1889L4.8889 18.5747L1.57779 17.4756C1.22224 17.3535 0.833346 17.5533 0.722235 17.9086L0.0444587 19.9402C-0.0555413 20.2399 0.0666791 20.5619 0.333346 20.7284L5.67779 24.0701C5.65557 25.5688 6.85557 26.8011 8.34446 26.8233C8.91112 26.8233 9.46668 26.6679 9.93335 26.3459L11.0445 25.5688C11.0445 25.5688 11.1445 25.4911 11.1889 25.4578C11.3445 25.8685 11.5667 26.246 11.8222 26.6013V26.6235C12.6111 27.667 13.7778 28.3553 15.0778 28.5441L22.6889 29.632L25.6556 31.486L24.4222 37.6586C24.3889 37.8362 24.4222 38.0139 24.5222 38.1693L25.8778 40.2009C26 40.3896 26.2111 40.5007 26.4445 40.5007H33.2222C33.6 40.5007 33.9 40.2009 33.9 39.8235C33.9 39.7124 33.8667 39.6014 33.8222 39.5015L32.4556 37.0036L33.7111 30.0761C33.8667 29.2435 33.5556 28.3886 32.9111 27.8447L25.1889 21.3168C25.9222 20.8616 26.5111 20.2288 26.9111 19.4628L32.7778 14.7668H38.6445C38.9778 14.7668 39.2556 14.5225 39.3111 14.2006L39.9889 10.1373C40.0333 9.882 39.9333 9.63776 39.7222 9.48233V9.43793ZM28.0556 12.6463L29.7222 15.4329L27.4778 17.2203L28.0445 12.6463H28.0556ZM35.6889 2.62144L36.4333 4.864L35.5889 5.21926L34.7111 3.90925L35.6778 2.62144H35.6889ZM23.1445 8.17233C23.4333 7.43961 23.9445 6.80681 24.6111 6.37384C25.0889 6.06299 25.6222 5.85206 26.1889 5.76324L33.5667 4.63086L34.3333 5.77434L27.5222 8.69411C27.3 8.79402 27.1445 8.99386 27.1111 9.2381L26.9445 10.6147L22.6 9.52674L23.1333 8.18343L23.1445 8.17233ZM20.5222 14.023C20.7222 13.9674 20.8889 13.8231 20.9667 13.6233L22.1 10.7812L26.7556 11.9469C26.7556 11.9469 26.7556 12.0246 26.7556 12.0579L26.0556 17.6199C26.0111 17.9641 25.9222 18.2971 25.7778 18.608C25.7445 18.6635 25.7111 18.719 25.6889 18.7856C25.1778 19.7626 24.2333 20.4287 23.1445 20.5841L17.4222 19.5627L17.0222 16.1878C16.9778 15.8103 16.8445 15.444 16.6222 15.122L20.5 14.0119L20.5222 14.023ZM13.4445 11.0366C13.5222 10.9256 13.5556 10.7923 13.5556 10.6591V8.6275H14.4556L15.5667 11.4029L15.0556 13.9674L12.4445 12.5464L13.4445 11.0366ZM9.4889 23.9146L8.21112 22.5713L8.72224 22.2161C9.33335 21.7942 10.1778 21.9385 10.6111 22.5602C10.9667 23.082 10.9222 23.7814 10.5 24.2477L9.4889 23.9257V23.9146ZM11.2889 18.1084C10.2556 17.1981 9.01112 16.5653 7.66668 16.2655C7.77779 16.1878 7.8889 16.099 7.9889 15.9991C8.3889 15.6105 8.66668 15.0998 8.76668 14.5447L11.3778 17.0204L11.2889 18.1084ZM7.45557 14.0785C7.45557 14.7224 6.97779 15.2775 6.34446 15.3885L5.43335 14.4448L5.46668 12.6907H6.12224C6.86668 12.7129 7.46668 13.3235 7.45557 14.0674V14.0785ZM3.3889 14.023C3.3889 13.5345 3.66668 13.0793 4.10001 12.8462L4.06668 14.7002C4.06668 14.8778 4.13335 15.0554 4.25557 15.1886L4.42223 15.3663C3.81112 15.2108 3.37779 14.6669 3.3889 14.0341V14.023ZM1.7889 18.9632L5.21112 20.1067C5.56668 20.2288 5.95557 20.029 6.06668 19.6738C6.07779 19.6404 6.0889 19.6071 6.0889 19.5738L6.44446 17.4534C8.27779 17.5977 9.96668 18.4859 11.1333 19.8958L11.0333 21.0948C10.1 20.4509 8.86668 20.4509 7.93335 21.0948C7.93335 21.0948 6.23335 22.3715 6.04446 22.6934L1.47779 19.8403L1.77779 18.9521L1.7889 18.9632ZM7.26668 24.8694C6.97779 24.4475 6.94446 23.9035 7.1889 23.4595L8.62224 24.9804C8.70001 25.0581 8.80001 25.1247 8.91112 25.158L9.13334 25.2246C8.52223 25.6354 7.6889 25.48 7.26668 24.8694ZM12.9333 25.7797V25.7575C12.4 25.0581 12.1445 24.1922 12.2222 23.3262L12.7667 16.7984C12.7889 16.5986 12.7111 16.3876 12.5556 16.2544L8.60001 12.5131L8.94446 12.169L15.1889 15.5661C15.4778 15.7215 15.6778 16.0102 15.7111 16.3432L16.1667 20.2177C16.2 20.5175 16.4222 20.7506 16.7222 20.8061L17.6111 20.9616L17.0111 25.1358L14.2 26.8233C13.7 26.5791 13.2778 26.2127 12.9445 25.7686L12.9333 25.7797ZM23.0333 28.2776L16.0778 27.2896L17.9889 26.1461C18.1667 26.0462 18.2778 25.8574 18.3111 25.6576L18.9445 21.2058L24.1222 22.1272L29.3 26.5013L26.2222 30.1871L23.3 28.3664C23.2222 28.322 23.1333 28.2887 23.0333 28.2665V28.2776ZM27.6778 32.7072V35.0386H26.3222L26.8889 32.2076L27.6778 32.6961V32.7072ZM25.8111 37.6031L26.0556 36.393H27.6889V39.1018H26.8111L25.8111 37.6031ZM29.0333 39.1018V37.7363L31.3445 37.7474L32.0778 39.1018H29.0333ZM32.3778 29.7875L31.1778 36.393H29.1556C29.1556 36.393 29.0778 36.393 29.0333 36.4041V32.3298C29.0333 32.0966 28.9111 31.8746 28.7111 31.7525L27.3667 30.9087L30.3222 27.3673L32.0333 28.8105C32.3111 29.0436 32.4445 29.41 32.3778 29.7653V29.7875ZM32.5445 13.368C32.3889 13.368 32.2445 13.4235 32.1222 13.5123L30.8 14.5669L29.2222 11.9469L30.3667 11.4584C30.5333 11.3918 30.7 11.3585 30.8778 11.3807L35.9333 11.9469V13.368H32.5445ZM38.0667 13.368H37.2889V11.7582L38.4333 11.1809L38.0667 13.368Z" fill="black"/>
</g>
<defs>
<clipPath id="clip0_225_10321">
<rect width="40" height="40" fill="white" transform="translate(0 0.5)"/>
</clipPath>
</defs>
</svg>
