<svg width="40" height="40" viewBox="0 0 40 40" fill="none" xmlns="http://www.w3.org/2000/svg">
<path d="M30.6589 19.7955L27.4713 18.614L29.0594 14.5343L32.247 15.7159C33.4009 16.1506 33.9836 17.4102 33.5495 18.536C33.1153 19.6618 31.8243 20.2302 30.6703 19.7955H30.6589ZM24.9349 6.11879V4.39108C24.9349 2.2844 23.1869 0.578987 21.0275 0.567841C18.8682 0.567841 17.1201 2.27325 17.1201 4.37994V6.10764C17.1315 8.21433 18.891 9.90859 21.0504 9.89747C23.1983 9.89747 24.9463 8.20318 24.9578 6.10764H24.9349V6.11879Z" fill="#F9D3C8"/>
<path d="M31.4586 20.4983C31.1273 20.4983 30.796 20.4426 30.4761 20.32C30.4761 20.32 30.4646 20.32 30.4532 20.32L29.1508 19.8184C29.0022 19.7627 28.888 19.6512 28.8309 19.5175C28.7737 19.3837 28.7737 19.2277 28.8309 19.0827L30.5675 15.0589C30.6817 14.7802 31.0131 14.6464 31.2987 14.758L32.464 15.1927C33.915 15.7277 34.6462 17.3217 34.0864 18.7373C33.6637 19.8296 32.5897 20.4983 31.4586 20.4983ZM30.8531 19.2723C30.8531 19.2723 30.8988 19.2945 30.9217 19.2945C31.7328 19.5955 32.6926 19.1719 33.0125 18.336C33.1724 17.9235 33.161 17.4888 32.9782 17.0875C32.7954 16.6862 32.464 16.3854 32.0527 16.2293L31.4015 15.9841L30.1105 18.9824L30.8645 19.2723H30.8531ZM21.0275 10.4554C19.8507 10.4554 18.731 10.0096 17.8856 9.19584C17.0287 8.37101 16.5603 7.27865 16.5488 6.10827V4.38057C16.5488 1.96179 18.5597 0 21.0275 0C23.5067 0 25.5176 1.97293 25.5061 4.38057V5.92992C25.5061 5.92992 25.529 6.04139 25.529 6.09712C25.5176 8.49362 23.5067 10.4443 21.0503 10.4443H21.0161L21.0275 10.4554ZM21.0275 1.1258C19.1766 1.1258 17.6799 2.58598 17.6799 4.38057V6.10827C17.6799 6.9777 18.0341 7.79139 18.6739 8.40445C19.3137 9.0175 20.1592 9.37419 21.0389 9.34075C22.8212 9.34075 24.2836 7.96974 24.375 6.25317C24.3636 6.20859 24.3522 6.15286 24.3522 6.10827V4.39172C24.3522 2.59713 22.8555 1.13694 21.0161 1.1258H21.0275Z" fill="black"/>
<path d="M21.9511 38.4677L21.3455 31.0107L19.209 26.619C18.9348 26.1954 18.2607 26.3181 18.1579 27.0872L17.6323 31.0219L14.4447 34.912L14.7075 38.2671L9.29199 34.5999L13.3822 28.6811L13.4279 21.3913V18.4375H23.0364V21.3913L25.6185 29.7958L25.9956 35.0346L28.2806 37.5649L21.9625 38.4677H21.9511Z" fill="#C65D5D"/>
<path d="M21.9512 39.0257C21.8255 39.0257 21.6998 38.9812 21.597 38.9031C21.4713 38.8028 21.3914 38.6691 21.3799 38.5131L20.7858 31.1564L18.7636 27.0098C18.7636 27.0098 18.7293 27.099 18.7293 27.1659L18.2037 31.1006C18.1923 31.201 18.1466 31.2901 18.0895 31.3793L15.0504 35.1022L15.3018 38.2343C15.3132 38.4461 15.2104 38.6579 15.0161 38.7582C14.8219 38.8697 14.582 38.8585 14.4106 38.736L8.99508 35.0688C8.74372 34.8904 8.67517 34.556 8.84654 34.2997L12.8339 28.5257L12.8796 18.4494C12.8796 18.1373 13.131 17.8921 13.4509 17.8921H23.0594C23.3793 17.8921 23.6307 18.1373 23.6307 18.4494V21.3252L26.1785 29.6405C26.1785 29.6405 26.2013 29.7184 26.2013 29.763L26.5669 34.8124L28.7263 37.2089C28.8634 37.365 28.9091 37.5768 28.8291 37.7662C28.7606 37.9557 28.5778 38.1006 28.3721 38.1229L22.054 39.0257C22.054 39.0257 21.9969 39.0257 21.974 39.0257H21.9512ZM18.7864 25.8172C19.152 25.8172 19.4948 25.9955 19.689 26.3188L21.8598 30.7662C21.8941 30.8219 21.9055 30.8889 21.9169 30.9668L22.4767 37.8331L27.1496 37.1643L25.5615 35.4032C25.4816 35.3139 25.4244 35.1914 25.4244 35.0799L25.0588 29.8968L22.4996 21.5592C22.4996 21.5592 22.4767 21.4589 22.4767 21.4032V19.0067H14.0107L13.965 28.7041C13.965 28.8156 13.9307 28.9159 13.8622 29.0162L10.0919 34.478L14.0564 37.1643L13.885 34.9796C13.885 34.8347 13.9193 34.701 14.0107 34.5895L17.0955 30.8219L17.6096 27.0322C17.7125 26.3076 18.1695 25.9509 18.5694 25.873C18.6493 25.8617 18.7179 25.8506 18.7979 25.8506L18.7864 25.8172Z" fill="black"/>
<path d="M23.2095 21.4451L24.2035 16.641L25.8487 17.6107C26.4085 17.9451 29.6304 19.4722 29.6304 19.4722L31.2185 15.3926L27.6539 14.0662C27.4025 13.9658 27.174 13.7986 27.0369 13.5645L23.4266 10.6664H16.6172V21.4451H23.2095Z" fill="#C4C4C4"/>
<path d="M23.0376 21.9461H16.4453C16.1254 21.9461 15.874 21.701 15.874 21.3889V10.6102C15.874 10.2981 16.1254 10.0529 16.4453 10.0529H23.2547C23.3803 10.0529 23.506 10.0975 23.6088 10.1755L27.2535 13.0178C27.2535 13.0178 27.2877 13.0401 27.2992 13.0513C27.6305 13.263 29.5728 14.0768 31.298 14.7567C31.5836 14.8682 31.7321 15.1914 31.6179 15.47L30.0298 19.5497C29.9726 19.6945 29.8584 19.806 29.7099 19.8729C29.5613 19.9287 29.4014 19.9287 29.2529 19.8729C28.9215 19.7169 25.951 18.3793 25.3797 18.0449L24.4314 17.4876L23.5974 21.5226C23.5403 21.7789 23.3118 21.9685 23.0376 21.9685V21.9461ZM17.0165 20.8315H22.5692L23.4717 16.4733C23.506 16.2949 23.6317 16.15 23.8031 16.072C23.9744 15.9939 24.1687 16.0163 24.3286 16.1055L25.9738 17.0863C26.3394 17.3093 28.0875 18.1118 29.1729 18.6022L30.3497 15.5927C27.4934 14.4557 26.7736 14.0768 26.5337 13.8872L23.049 11.1786H17.0051V20.8426L17.0165 20.8315Z" fill="black"/>
<path d="M22.5231 7.25674C22.2603 6.98922 21.8833 6.85547 21.5063 6.85547H12.4804C10.938 6.85547 9.6927 8.08158 9.6927 9.58636C9.6927 10.701 10.3896 11.6931 11.4522 12.1055C10.6981 12.6851 10.1725 13.4987 9.95547 14.4128L8.57303 19.8299C8.50448 20.1198 8.48163 20.4208 8.55018 20.7105C8.99576 22.4382 10.401 23.3634 11.8292 23.3634H15.9879C17.6903 23.3634 19.1527 22.2153 19.5297 20.5991L20.8094 15.1485C21.0493 14.1453 20.7751 13.0863 20.0781 12.3061H20.7979C23.083 12.2838 24.7053 9.56406 22.5231 7.25674Z" fill="#B27946"/>
<path d="M15.9885 23.9107H11.8297C11.5212 23.9107 11.2128 23.8773 10.9043 23.7992C9.91029 23.5652 9.07626 22.9632 8.5507 22.105C8.02514 21.2578 7.86519 20.2546 8.11654 19.2849L9.39616 14.269C9.57896 13.511 9.96742 12.7977 10.493 12.218C9.64751 11.6161 9.12196 10.6463 9.12196 9.57632C9.12196 8.69574 9.46471 7.8709 10.1045 7.25785C10.7443 6.64479 11.5784 6.2881 12.481 6.2881H20.7642C22.6151 6.2881 24.1232 7.75944 24.1232 9.56516C24.1232 11.2483 22.7978 12.6639 21.1069 12.8311C21.4611 13.5779 21.5639 14.4362 21.3697 15.2498L20.0901 20.7005C19.6559 22.5843 17.9764 23.8995 15.9999 23.8995L15.9885 23.9107ZM12.481 7.4139C11.8868 7.4139 11.3384 7.64797 10.9157 8.04924C10.493 8.46166 10.2645 9.00785 10.2759 9.58746C10.2759 10.4792 10.8243 11.2594 11.6698 11.5938C11.864 11.6719 11.9897 11.839 12.0239 12.0286C12.0582 12.2292 11.9782 12.4186 11.8183 12.5413C11.1671 13.0428 10.7101 13.7563 10.5158 14.5365L9.23621 19.5524C9.06483 20.2324 9.16765 20.9345 9.54468 21.5254C9.91029 22.1272 10.5044 22.5397 11.1899 22.7068C11.407 22.7626 11.6241 22.7849 11.8411 22.7849H15.9999C17.4395 22.7849 18.6619 21.8263 18.9818 20.4553L20.2615 15.0047C20.4557 14.1798 20.2272 13.2992 19.6559 12.6528C19.5074 12.4856 19.4731 12.2515 19.5645 12.0508C19.6559 11.8502 19.8616 11.7276 20.0901 11.7276H20.8099C22.0095 11.7165 22.9921 10.7467 22.9921 9.56516C22.9921 8.38364 21.9981 7.40275 20.7756 7.40275H12.4924L12.481 7.4139Z" fill="black"/>
<path d="M17.4971 11.193H14.1952C12.1958 11.193 10.4592 12.5305 9.99074 14.4142L8.75684 19.2407H19.8735L20.8104 15.1388C21.2217 13.4 20.1134 11.6723 18.3425 11.271C18.0683 11.2041 17.7941 11.1818 17.5085 11.193H17.4971ZM27.2541 4.25984H24.9577C24.8434 2.15315 22.9926 0.548058 20.8446 0.659524C18.7995 0.770988 17.1886 2.39837 17.1543 4.39359V5.55283H27.2656C27.6312 5.55283 27.9282 5.26302 27.9282 4.90634C27.9282 4.54964 27.6312 4.25984 27.2656 4.25984H27.2541Z" fill="#FCD770"/>
<path d="M19.8615 19.7965H8.74484C8.57346 19.7965 8.40208 19.7185 8.29926 19.5848C8.19643 19.451 8.15072 19.2727 8.19643 19.1055L9.43034 14.279C9.96732 12.1389 11.921 10.6341 14.1946 10.6341H17.4965C17.8164 10.6341 18.1477 10.6564 18.4676 10.7344C19.473 10.9685 20.3299 11.5593 20.8783 12.4176C21.4267 13.2758 21.5981 14.2901 21.3582 15.271L20.4213 19.3619C20.3642 19.6181 20.1357 19.7965 19.8615 19.7965ZM9.47604 18.6819H19.4045L20.2385 15.0147C20.4099 14.3125 20.2842 13.5991 19.8958 12.9972C19.5073 12.3953 18.9018 11.9717 18.1934 11.8045C17.9649 11.7488 17.7364 11.7153 17.5079 11.7377H14.1832C12.4466 11.7377 10.9385 12.8858 10.5272 14.5354L9.47604 18.6707V18.6819ZM27.2536 6.09751H17.1423C16.8224 6.09751 16.5711 5.85229 16.5711 5.54019V4.38096C16.6168 2.09592 18.4791 0.212173 20.8098 0.0895614C21.998 0.033829 23.1519 0.423955 24.0431 1.19307C24.7972 1.8507 25.2884 2.72013 25.4598 3.67873H27.2536C27.9276 3.67873 28.4875 4.21376 28.4875 4.88255C28.4875 5.55134 27.9391 6.08637 27.2536 6.08637V6.09751ZM17.7136 4.98287H27.2536C27.2536 4.98287 27.345 4.93829 27.345 4.8937C27.345 4.8491 27.2993 4.80452 27.2536 4.80452H24.9571C24.6486 4.80452 24.4087 4.57045 24.3859 4.28064C24.3402 3.41121 23.9403 2.60867 23.2776 2.02905C22.615 1.44944 21.7466 1.14848 20.8669 1.20421C19.1303 1.29338 17.7479 2.69784 17.7136 4.3921V4.98287Z" fill="black"/>
</svg>
