<svg width="40" height="40" viewBox="0 0 40 40" fill="none" xmlns="http://www.w3.org/2000/svg">
<g clip-path="url(#clip0_225_10319)">
<path d="M32.1999 2.40562L27.5048 7.10066L21.457 10.4543L24.8107 15.1493L30.1877 9.77241L34.212 3.72464L36.8949 2.38324L34.2232 0.784616C33.8431 0.549861 33.3401 0.661627 33.0942 1.04171L32.1999 2.39443V2.40562Z" fill="#FFCEBF"/>
<path d="M16.0905 25.9035C16.8313 25.9035 17.4319 25.303 17.4319 24.5621C17.4319 23.8212 16.8313 23.2207 16.0905 23.2207C15.3496 23.2207 14.749 23.8212 14.749 24.5621C14.749 25.303 15.3496 25.9035 16.0905 25.9035Z" fill="#5B3719"/>
<path d="M16.7618 25.2329H15.4204C14.3025 25.2329 13.4082 26.1384 13.4082 27.2451C13.4082 28.3518 14.3137 29.2572 15.4204 29.2572V27.2451L16.7618 25.2329Z" fill="#7A4922"/>
<path d="M16.7614 25.2319L15.4199 27.2442V29.2563H16.7614C17.8793 29.2563 18.7736 28.3509 18.7736 27.2442C18.7736 26.1375 17.8681 25.2319 16.7614 25.2319Z" fill="#FFCEBF"/>
<path d="M22.9322 12.8122L23.2117 12.2085L18.2818 7.27879C18.17 7.167 18.0135 7.07748 17.857 7.04394L14.7493 6.418L6.01868 5.7473L2.66504 4.40576L3.79409 7.23403C3.91706 7.55822 4.23007 7.7594 4.57661 7.7594H5.34794L7.30423 8.74314C8.67922 9.42505 10.1548 9.89452 11.664 10.1069L14.0674 10.4535L18.0918 15.8306C20.1487 15.8306 22.0155 14.6567 22.921 12.8122H22.9322Z" fill="#FFCEBF"/>
<path d="M17.4326 39.3278H19.4448L20.6409 36.645H18.0251L17.4326 39.3278Z" fill="#FFCEBF"/>
<path d="M19.9584 28.5869H18.3486L18.7734 33.2821L18.0244 36.6357H20.6403L22.06 33.4386C22.1047 33.3268 22.127 33.215 22.127 33.1032V29.9285C21.7134 29.1012 20.875 28.5869 19.9584 28.5869Z" fill="#E6989E"/>
<path d="M25.9278 20.5714L25.7266 17.6872C25.5813 15.6191 24.6981 13.6851 23.2337 12.2207L22.9542 12.8132C22.0487 14.6577 20.1819 15.8316 18.125 15.8316V17.0165C18.125 18.0002 18.3597 18.9728 18.7957 19.8559L18.125 25.9035L18.3709 28.5865H19.9807C20.8973 28.5865 21.7469 29.112 22.1494 29.928L22.8872 29.682C23.6473 29.4249 24.1615 28.7207 24.1615 27.9158L24.6869 26.865C25.6595 24.9199 26.0955 22.7512 25.939 20.5714H25.9278Z" fill="#E27F86"/>
<path d="M34.8489 38.6585H20.473L22.664 33.7175C22.7534 33.5275 22.7981 33.315 22.7981 33.1026V30.4085L23.0776 30.3191C24.0502 29.9949 24.7321 29.1118 24.8103 28.0834L25.2687 27.1554C26.2971 25.0985 26.7554 22.807 26.5878 20.5153L26.3866 17.6312C26.3195 16.7593 26.1406 15.8985 25.8388 15.0824L30.668 10.2531C30.668 10.2531 30.7239 10.1861 30.7575 10.1525L34.6924 4.26129L37.2188 2.99808C37.5542 2.83039 37.6883 2.42803 37.5206 2.09266C37.4647 1.98088 37.3753 1.88027 37.2635 1.81319L34.5918 0.214566C33.8987 -0.199049 33.0044 0.00220722 32.5572 0.672935L31.6965 1.96971L27.1132 6.55299L21.5908 9.61597L18.7738 6.79889C18.5614 6.5865 18.2931 6.44118 18.0025 6.38528L14.8947 5.75934C14.8947 5.75934 14.8388 5.75934 14.8165 5.75934L6.18646 5.09969L2.92225 3.79186C2.57571 3.65772 2.18445 3.82535 2.0503 4.16071C1.98323 4.31722 1.98323 4.49602 2.0503 4.66371L3.17937 7.49197C3.40294 8.06209 3.96188 8.44215 4.57672 8.44215H5.19154L7.00251 9.34769C8.4334 10.0631 9.97608 10.5439 11.5746 10.7786L13.7098 11.0805L17.4323 16.055V17.0163C17.4323 18.0448 17.6559 19.0509 18.0919 19.9787L17.7118 23.3659C17.0522 22.4716 15.789 22.2816 14.8947 22.9411C14.2799 23.3883 13.9781 24.1596 14.101 24.9086C12.8043 25.6352 12.346 27.2672 13.0726 28.564C13.5421 29.4136 14.4476 29.9391 15.4201 29.9391H16.7616C17.1081 29.9391 17.4547 29.872 17.7789 29.7378L18.1031 33.248L16.8957 38.6585H3.99541C3.62651 38.6585 3.32469 38.9603 3.32469 39.3292C3.32469 39.6981 3.62651 40 3.99541 40H34.8489C35.2178 40 35.5196 39.6981 35.5196 39.3292C35.5196 38.9603 35.2178 38.6585 34.8489 38.6585ZM16.0909 23.8913C16.4598 23.8913 16.7616 24.1931 16.7616 24.562H15.4201C15.4201 24.1931 15.722 23.8913 16.0909 23.8913ZM14.8612 26.876C14.783 26.9878 14.7494 27.1108 14.7494 27.245V28.4076C14.1122 28.0387 13.8886 27.2115 14.2575 26.5743C14.4923 26.1606 14.9395 25.9034 15.4201 25.9034H15.5096L14.8612 26.876ZM16.7616 28.5864H16.0909V27.4461L17.097 25.937C17.2199 25.9705 17.3429 26.0152 17.4547 26.0823L17.6559 28.2511C17.41 28.4635 17.097 28.5864 16.7728 28.5864H16.7616ZM24.0725 26.5631L23.5471 27.6138C23.5024 27.7032 23.4801 27.8151 23.4801 27.9157C23.4801 28.4299 23.1559 28.8882 22.664 29.0447L22.4181 29.1229C21.8368 28.3516 20.9201 27.9045 19.9587 27.9157H18.9638L18.785 25.9034L19.4445 19.9228C19.4557 19.7886 19.4445 19.6657 19.3774 19.5539C18.9862 18.7602 18.7738 17.8883 18.7738 17.0051V16.4574C20.7077 16.2338 22.4181 15.0936 23.3795 13.4056C24.352 14.6464 24.9333 16.1556 25.0563 17.7318L25.2575 20.6159C25.4028 22.6616 25.0004 24.7186 24.0725 26.5519V26.5631ZM27.8286 7.69325C27.8286 7.69325 27.9292 7.62621 27.9739 7.58149L32.669 2.88632C32.669 2.88632 32.7249 2.81928 32.7585 2.78574L33.6528 1.43315C33.6975 1.3549 33.7981 1.33249 33.8763 1.3772L35.4973 2.34975L33.9099 3.14341C33.8093 3.1993 33.7198 3.27763 33.6528 3.36706L29.6619 9.35888L25.2351 13.7856C24.8215 13.0367 24.2961 12.3436 23.6925 11.74L22.5634 10.6109L27.8286 7.68206V7.69325ZM14.6153 10.0632C14.5035 9.91783 14.347 9.82842 14.1681 9.80606L11.7647 9.45945C10.3226 9.25823 8.91409 8.81104 7.60617 8.16267L5.64988 7.17894C5.56045 7.13422 5.44866 7.11193 5.34805 7.11193H4.57672C4.50964 7.11193 4.44257 7.06726 4.42021 7.01136L3.87245 5.63626L5.77285 6.39647C5.83992 6.41883 5.90699 6.44123 5.97406 6.44123L14.66 7.11193L17.723 7.72682C17.723 7.72682 17.7901 7.74909 17.8124 7.77144L22.4069 12.3659L22.3286 12.5336C21.5908 14.0428 20.1041 15.0376 18.4272 15.1606L14.6041 10.0743L14.6153 10.0632ZM19.0085 38.6697H18.2707L18.5726 37.3283H19.6122L19.0197 38.6697H19.0085ZM20.1152 35.9867H18.8632L19.4333 33.4491C19.4445 33.382 19.4557 33.315 19.4445 33.248L19.0868 29.2794H19.9587C20.5736 29.2794 21.1437 29.6036 21.4567 30.129V33.1362C21.4567 33.1362 21.4567 33.1808 21.4455 33.2032L20.2047 36.0091C20.2047 36.0091 20.1488 36.0091 20.1264 36.0091L20.1152 35.9867Z" fill="black"/>
</g>
<defs>
<clipPath id="clip0_225_10319">
<rect width="40" height="40" fill="white"/>
</clipPath>
</defs>
</svg>
