<svg width="40" height="40" viewBox="0 0 40 40" fill="none" xmlns="http://www.w3.org/2000/svg">
<path d="M29.2844 9.00178L26.2416 11.347H12.2827L10.6836 9.00178L13.8263 4.40023C14.1705 3.88895 14.748 3.58887 15.3588 3.58887H24.6203C25.2311 3.58887 25.8085 3.88895 26.1528 4.40023L29.2955 9.00178H29.2844Z" fill="#9B9B9B"/>
<path d="M26.1422 4.40023C25.7979 3.88895 25.2205 3.58887 24.6097 3.58887H22.4775C23.0883 3.58887 23.6658 3.88895 24.01 4.40023L27.1527 9.00178H29.2849L26.1422 4.40023Z" fill="#818181"/>
<path d="M39.3886 12.9776V31.995C39.3886 32.8953 38.6556 33.6289 37.7561 33.6289H2.22032C1.32082 33.6289 0.587891 32.8953 0.587891 31.995V12.9776C0.587891 12.0773 1.32082 11.3438 2.22032 11.3438H37.7561C38.6556 11.3438 39.3886 12.0773 39.3886 12.9776Z" fill="#595959"/>
<path d="M37.7572 11.3438H35.8916C36.7911 11.3438 37.524 12.0773 37.524 12.9776V31.995C37.524 32.8953 36.7911 33.6289 35.8916 33.6289H37.7572C38.6567 33.6289 39.3897 32.8953 39.3897 31.995V12.9776C39.3897 12.0773 38.6567 11.3438 37.7572 11.3438Z" fill="#454545"/>
<path d="M35.0601 35.7427H4.91014C4.22163 35.7427 3.65527 35.1758 3.65527 34.4867V33.6309H36.3149V34.4867C36.3149 35.1758 35.7486 35.7427 35.0601 35.7427Z" fill="#454545"/>
<path d="M39.3899 10.6378V14.2056H0.578125V10.6378C0.578125 9.73745 1.31105 9.00391 2.21055 9.00391H37.7464C38.6459 9.00391 39.3788 9.73745 39.3788 10.6378H39.3899Z" fill="#F4FBFF"/>
<path d="M37.7582 9.00391H35.8926C36.7921 9.00391 37.525 9.73745 37.525 10.6378V14.2056H39.3906V10.6378C39.3906 9.73745 38.6577 9.00391 37.7582 9.00391Z" fill="#DFEAEF"/>
<path d="M8.60445 9.00264H3.7627V7.75779C3.7627 7.25762 4.16247 6.85742 4.66219 6.85742H7.70494C8.20467 6.85742 8.60445 7.25762 8.60445 7.75779V9.00264Z" fill="#9B9B9B"/>
<path d="M19.9909 31.442C25.5168 31.442 29.9965 26.9584 29.9965 21.4275C29.9965 15.8967 25.5168 11.4131 19.9909 11.4131C14.465 11.4131 9.98535 15.8967 9.98535 21.4275C9.98535 26.9584 14.465 31.442 19.9909 31.442Z" fill="#9B9B9B"/>
<path d="M19.9885 11.4131C19.6998 11.4131 19.4222 11.4242 19.1445 11.4465C24.275 11.8688 28.3172 16.1814 28.3172 21.4275C28.3172 26.6737 24.2861 30.9863 19.1445 31.4086C19.4222 31.4309 19.6998 31.442 19.9885 31.442C25.5188 31.442 29.9941 26.9516 29.9941 21.4275C29.9941 15.8924 25.5077 11.4131 19.9885 11.4131Z" fill="#818181"/>
<path d="M19.9877 28.8294C24.0723 28.8294 27.3836 25.5152 27.3836 21.4269C27.3836 17.3387 24.0723 14.0244 19.9877 14.0244C15.9031 14.0244 12.5918 17.3387 12.5918 21.4269C12.5918 25.5152 15.9031 28.8294 19.9877 28.8294Z" fill="#D3EFFB"/>
<path d="M19.9873 14.0244C19.6652 14.0244 19.3432 14.0467 19.0322 14.08C22.6746 14.5469 25.4842 17.659 25.4842 21.4269C25.4842 25.1948 22.6746 28.307 19.0322 28.7738C19.3432 28.8183 19.6652 28.8294 19.9873 28.8294C24.0739 28.8294 27.3831 25.5172 27.3831 21.4269C27.3831 17.3367 24.0739 14.0244 19.9873 14.0244Z" fill="#B1E4F9"/>
<path d="M37.7568 8.41291H29.5947L26.6297 4.06698C26.1744 3.40009 25.4192 3 24.6196 3H20.322C20 3 19.7335 3.26679 19.7335 3.58912C19.7335 3.91145 20 4.1781 20.322 4.1781H24.6196C25.0416 4.1781 25.4303 4.38928 25.6635 4.73384L28.1732 8.42404H11.7934L14.3032 4.73384C14.5364 4.38928 14.925 4.1781 15.347 4.1781H17.9678C18.2898 4.1781 18.5564 3.91145 18.5564 3.58912C18.5564 3.26679 18.2898 3 17.9678 3H15.347C14.5364 3 13.7923 3.40009 13.337 4.06698L10.372 8.41291H9.18378V7.75717C9.18378 6.93468 8.51749 6.27882 7.70682 6.27882H4.66407C3.84231 6.27882 3.18711 6.94579 3.18711 7.75717V8.41291H2.22099C0.999445 8.41291 0 9.41325 0 10.6359V31.9985C0 33.2212 0.999445 34.2215 2.22099 34.2215H3.07607V34.4882C3.07607 35.4997 3.89784 36.3333 4.91949 36.3333H7.12937C7.45141 36.3333 7.71793 36.0665 7.71793 35.7442C7.71793 35.4219 7.45141 35.1551 7.12937 35.1551H4.91949C4.55303 35.1551 4.25319 34.855 4.25319 34.4882V34.2215H35.7468V34.4882C35.7468 34.855 35.447 35.1551 35.0805 35.1551H9.48361C9.16157 35.1551 8.89505 35.4219 8.89505 35.7442C8.89505 36.0665 9.16157 36.3333 9.48361 36.3333H35.0805C36.0911 36.3333 36.9239 35.5108 36.9239 34.4882V34.2215H37.779C39.0006 34.2215 40 33.2212 40 31.9985V10.6359C40 9.41325 39.0006 8.41291 37.779 8.41291H37.7568ZM4.35314 7.75717C4.35314 7.59045 4.4975 7.44593 4.66407 7.44593H7.70682C7.8734 7.44593 8.01776 7.59045 8.01776 7.75717V8.41291H4.35314V7.75717ZM2.22099 9.57989H37.7568C38.3343 9.57989 38.8007 10.0468 38.8007 10.6247V13.6146H27.1516C25.2526 11.8695 22.7207 10.8138 19.9778 10.8138C17.2349 10.8138 14.7029 11.8807 12.8151 13.6146H1.16601V10.6247C1.16601 10.0468 1.63242 9.57989 2.20988 9.57989H2.22099ZM37.7568 33.0434H2.22099C1.64353 33.0434 1.17712 32.5765 1.17712 31.9985V14.7928H11.7268C10.2721 16.6156 9.39478 18.9164 9.39478 21.4283C9.39478 27.2747 14.1477 32.0319 19.9889 32.0319C22.6208 32.0319 25.1527 31.0538 27.0961 29.2866C29.0283 27.5304 30.2499 25.1407 30.5275 22.5509C30.5608 22.2286 30.3276 21.9397 30.0056 21.9063C29.6835 21.873 29.3948 22.1064 29.3615 22.4287C29.1172 24.7295 28.04 26.8635 26.3076 28.4196C24.5752 29.9868 22.332 30.8537 19.9889 30.8537C14.7918 30.8537 10.5608 26.6189 10.5608 21.4172C10.5608 16.2155 14.7918 11.9807 19.9889 11.9807C24.7196 11.9807 28.7396 15.5153 29.3392 20.2057C29.3837 20.528 29.6724 20.7503 29.9945 20.717C30.3165 20.6725 30.5386 20.3836 30.5053 20.0612C30.2499 18.0717 29.4503 16.26 28.2621 14.7817H38.8118V31.9874C38.8118 32.5654 38.3454 33.0434 37.7679 33.0434H37.7568Z" fill="black"/>
<path d="M33.5827 12.1909H35.4039C35.726 12.1909 35.9925 11.9243 35.9925 11.6023C35.9925 11.2802 35.726 11.0137 35.4039 11.0137H33.5827C33.2607 11.0137 32.9941 11.2802 32.9941 11.6023C32.9941 11.9243 33.2607 12.1909 33.5827 12.1909Z" fill="black"/>
<path d="M19.9874 13.4365C15.5898 13.4365 12.0029 17.0265 12.0029 21.428C12.0029 25.8295 15.5898 29.4196 19.9874 29.4196C24.3849 29.4196 27.9718 25.8295 27.9718 21.428C27.9718 17.0265 24.3849 13.4365 19.9874 13.4365ZM19.9874 28.2525C16.2339 28.2525 13.1689 25.1959 13.1689 21.428C13.1689 17.6601 16.2228 14.6035 19.9874 14.6035C23.752 14.6035 26.8058 17.6601 26.8058 21.428C26.8058 25.1959 23.752 28.2525 19.9874 28.2525Z" fill="black"/>
<path d="M19.9886 16.3936C17.2123 16.3936 14.958 18.6499 14.958 21.4286C14.958 21.7509 15.2245 22.0177 15.5466 22.0177C15.8686 22.0177 16.1351 21.7509 16.1351 21.4286C16.1351 19.2946 17.8675 17.5718 19.9886 17.5718C20.3106 17.5718 20.5771 17.305 20.5771 16.9827C20.5771 16.6603 20.3106 16.3936 19.9886 16.3936Z" fill="black"/>
<path d="M34.625 29.7295C34.3028 29.7295 34.0361 29.9964 34.0361 30.3189V30.5636C34.0361 30.8861 34.3028 31.153 34.625 31.153C34.9472 31.153 35.2139 30.8861 35.2139 30.5636V30.3189C35.2139 29.9964 34.9472 29.7295 34.625 29.7295Z" fill="black"/>
<path d="M5.34377 29.7295C5.02155 29.7295 4.75488 29.9964 4.75488 30.3189V30.5636C4.75488 30.8861 5.02155 31.153 5.34377 31.153C5.66599 31.153 5.93266 30.8861 5.93266 30.5636V30.3189C5.93266 29.9964 5.66599 29.7295 5.34377 29.7295Z" fill="black"/>
</svg>
