<svg width="40" height="41" viewBox="0 0 40 41" fill="none" xmlns="http://www.w3.org/2000/svg">
<g clip-path="url(#clip0_225_10313)">
<path d="M35.357 37.449L34.7897 39.9232H36.5025L39.4262 35.918L33.6115 30.5259L31.2441 33.4438L35.3352 37.449H35.357Z" fill="#2D283D"/>
<path d="M18.829 36.7386L16.1562 39.9228H21.96L22.9855 31.99L19.2763 31.6904L18.829 36.7386Z" fill="#2D283D"/>
<path d="M21.9598 40.4999H16.156C15.9379 40.4999 15.7415 40.3668 15.6433 40.1671C15.556 39.9674 15.5888 39.7233 15.7415 39.5568L17.8688 37.1493L18.7416 31.613C18.7852 31.3245 19.047 31.1137 19.3416 31.1359L23.0508 31.4354C23.2035 31.4465 23.3453 31.5242 23.4435 31.6462C23.5417 31.7683 23.5853 31.9236 23.5635 32.0789L22.538 40.0117C22.5053 40.2891 22.2653 40.4999 21.9817 40.4999H21.9598ZM17.4106 39.3682H21.4798L22.3635 32.5227L19.7561 32.3119L18.9379 37.4932C18.9161 37.6042 18.8725 37.704 18.807 37.7817L17.4106 39.3682Z" fill="black"/>
<path d="M36.5144 40.5001H34.7907C34.6161 40.5001 34.4634 40.4224 34.3543 40.2893C34.2452 40.1562 34.2125 39.9786 34.2452 39.8122L34.7361 37.6487L30.8742 33.8654C30.6669 33.6546 30.6451 33.3218 30.8306 33.0999L33.1979 30.1819C33.2961 30.0599 33.4379 29.9822 33.5907 29.9711C33.7434 29.96 33.8961 30.0155 34.0052 30.1154L39.8199 35.5074C40.0272 35.7071 40.0599 36.0289 39.8963 36.2619L36.9726 40.2671C36.8635 40.4113 36.6998 40.5001 36.5253 40.5001H36.5144ZM35.4998 39.3684H36.2307L38.6853 36.0067L33.6779 31.358L32.0197 33.4105L35.7398 37.0496C35.8816 37.1828 35.9362 37.3936 35.8925 37.5822L35.4889 39.3573L35.4998 39.3684Z" fill="black"/>
<path d="M27.3067 2.10986C26.903 2.14315 26.2921 2.28738 25.6812 2.6757C25.103 3.05292 24.5793 4.33992 24.5357 4.6062C24.4593 5.08327 24.7975 7.66837 25.8667 9.25492C25.9212 9.33259 26.0412 9.69872 26.1067 9.70981C26.3248 9.62105 28.2122 8.75566 28.7249 6.61436C29.1176 4.99451 28.5613 3.25263 27.2958 2.10986H27.3067Z" fill="#DCD2CD"/>
<path d="M27.2615 8.53384C27.1852 8.52275 27.1088 8.50056 27.0215 8.46727C25.6251 7.9902 24.5233 5.43839 25.2978 3.43023C25.4069 3.14176 25.5379 2.89768 25.6797 2.67578C25.2215 2.97534 24.7524 3.40804 24.4033 4.06263C24.316 4.22906 24.9924 4.40657 24.916 4.60628C24.8397 4.80599 24.0105 5.01679 23.9669 5.21649C23.8905 5.61591 23.8687 6.03751 23.9014 6.43692C23.9233 6.63663 24.7197 6.83634 24.7633 7.03604C24.8069 7.23575 24.0978 7.42436 24.1633 7.61297C24.5124 8.60041 25.1451 9.39924 25.8651 9.64332C25.9524 9.67661 26.0397 9.6877 26.1051 9.70989C26.2579 9.64332 27.327 9.15515 28.0797 8.05677C27.6761 8.35633 27.3379 8.50056 27.2506 8.54494L27.2615 8.53384Z" fill="#C8BEB9"/>
<path d="M27.0226 5.22648H24.6553C24.6989 5.03787 24.7535 4.82707 24.8407 4.60517C24.9171 4.39437 25.0044 4.21685 25.0916 4.06152H27.2517L27.0226 5.22648Z" fill="#766D78"/>
<path d="M26.7834 7.6132H25.2343C25.1689 7.43568 25.1034 7.21378 25.0598 6.98079C25.0161 6.79218 24.9943 6.60357 24.9834 6.44824H27.0125L26.7834 7.6132Z" fill="#766D78"/>
<path d="M24.0342 4.9602C24.0015 5.08225 24.0342 4.98239 23.9688 5.22648H25.0597C25.027 4.83816 25.0488 4.43875 25.1251 4.06152H24.4051C24.3615 4.16138 24.176 4.44984 24.0342 4.9602Z" fill="#655E67"/>
<path d="M25.3204 6.4375H23.9131C23.9131 6.4375 23.9131 6.52626 23.924 6.58173C23.9567 6.89239 24.0331 7.20304 24.1204 7.5026C24.1313 7.53589 24.1422 7.58027 24.164 7.61355H25.9313C25.6804 7.28071 25.4731 6.88129 25.3204 6.4486V6.4375Z" fill="#655E67"/>
<path d="M31.7466 10.2309C31.5611 9.92027 31.3538 9.60962 31.1247 9.33225L31.1029 9.31006L27.2519 11.4846L24.6009 16.4662L24.5791 20.7155H31.692L31.8557 17.0764L32.7393 15.9891L32.8157 14.6134C32.892 13.0712 32.5211 11.5512 31.7466 10.242V10.2309Z" fill="#5A5766"/>
<path d="M23.7715 13.383L28.037 14.4038V14.6367C28.037 16.0125 29.1389 17.1109 30.4917 17.0887L32.7608 17.0443C32.9463 17.0443 33.0881 17.1996 33.0772 17.3772L32.8808 21.1605C32.8808 21.3269 32.739 21.4601 32.5644 21.4601H24.0879C23.9351 21.4601 23.8042 21.3491 23.7824 21.1938V13.3608L23.7715 13.383Z" fill="#766D78"/>
<path d="M31.2433 16.0119C30.5124 16.023 29.9778 15.7456 29.6397 15.2907C29.5306 15.1465 29.5306 14.9468 29.6397 14.8025C30.2833 14.037 30.4469 12.6612 29.8797 11.8957L30.0542 12.0954C29.4106 11.2189 28.1887 11.0414 27.3269 11.696L25.6468 12.9719L24.5995 16.4557L24.4141 18.7301C24.6868 18.6081 24.4141 19.5067 24.6541 19.3292L25.0032 20.3943H32.5088L32.6834 17.0104L32.7379 15.9897L31.2324 16.0119H31.2433Z" fill="#2D283D"/>
<path d="M37.1685 34.4293L32.3138 36.9145C31.7793 37.1919 31.1356 37.0144 30.8084 36.504L26.7392 30.18L24.5791 20.8604H28.7574L32.4557 21.4817L33.3502 25.6422C33.623 26.9181 34.1793 28.1164 34.9757 29.1482L37.8776 32.8982C38.3358 33.4862 37.834 34.0854 37.1685 34.4293Z" fill="#5A5766"/>
<path d="M37.8776 32.8987L32.1502 35.8388C31.8011 36.0163 31.3756 35.9054 31.1574 35.5725L28.801 31.9223C28.681 31.7337 28.6483 31.5118 28.7028 31.301L29.2265 29.2485L31.3756 21.4821L27.3392 21.0161L24.1973 21.4932L26.3573 30.8128L30.4265 37.1369C30.7538 37.6472 31.3975 37.8248 31.932 37.5474L37.4849 34.696C38.1394 34.3632 38.3358 33.4867 37.8776 32.8987Z" fill="#534F5D"/>
<path d="M30.4267 21.4923L27.2193 20.7046L25.0483 21.4812L21.9828 24.144C20.7391 25.2202 19.7136 26.5294 18.9391 27.9939L16.5281 32.5871C16.2117 33.1863 16.4627 33.9407 17.0627 34.2181L23.8265 37.4578C24.492 37.7684 25.4956 37.8683 25.6811 37.1471L27.6884 29.2365L30.4157 21.4923H30.4267Z" fill="#5A5766"/>
<path d="M17.2246 32.9757L25.723 37.0031L25.6794 37.1584C25.4939 37.8796 24.7194 38.2568 24.0539 37.9351L16.221 34.2294C15.61 33.9409 15.37 33.1976 15.6864 32.5874L18.0974 27.9941C18.861 26.5296 19.8974 25.2204 21.1411 24.1442L24.2066 21.4814H26.8467L22.1447 25.3313C21.0429 26.2855 20.1374 27.4283 19.461 28.7264L17.2355 32.9646L17.2246 32.9757Z" fill="#534F5D"/>
<path d="M27.2852 6.83625H30.3289L31.3216 6.29261L32.3144 3.77409C32.6308 2.97526 32.0526 2.10986 31.2125 2.10986H28.6597L27.7106 2.6646L27.2852 6.83625Z" fill="#5A5766"/>
<path d="M28.277 5.86026L28.6588 2.09912H27.2843L26.7061 7.84623L28.8988 8.62287L30.7098 7.84623L31.3207 6.28187H28.6588C28.4297 6.28187 28.2552 6.08216 28.277 5.84917V5.86026Z" fill="#534F5D"/>
<path d="M24.2527 28.1488L22.0708 27.9713C21.3072 27.8604 21.1326 27.1503 21.4599 26.4402L23.3691 22.202C23.5763 21.7693 23.8054 21.4808 24.2745 21.4808L27.0346 21.3921L25.5837 27.5941C25.4527 28.171 24.8309 28.2265 24.2527 28.1488Z" fill="#2D283D"/>
<path d="M29.03 27.883H28.5063C28.0045 27.883 27.6118 27.4614 27.6445 26.951L27.7754 21.4591L30.4264 21.4258L31.3537 27.2617L31.1246 27.7387C30.9828 27.9162 29.5318 27.8941 29.0409 27.8941L29.03 27.883Z" fill="#2D283D"/>
<path d="M31.3537 27.2618H29.0518C28.5499 27.2618 28.1572 26.8402 28.1899 26.3298L28.2881 21.2373L27.0117 21.4592L26.8808 27.7389C26.8481 28.2492 27.2408 28.6708 27.7427 28.6708H30.5682C31.07 28.6708 31.4628 28.2492 31.43 27.7389L31.3537 27.2618Z" fill="#2D283D"/>
<path d="M23.8252 27.1174C23.0615 27.0064 22.636 26.1743 22.9633 25.4754L24.8616 21.4812L24.5888 20.7046L24.2725 21.4812C23.8033 21.4812 23.3779 21.7586 23.1706 22.1913L21.1306 26.485C20.7924 27.184 21.2287 28.0161 21.9924 28.127L24.327 28.4599C24.9052 28.5486 25.4507 28.1603 25.5925 27.5834L25.647 27.3615L23.847 27.0952L23.8252 27.1174Z" fill="#2D283D"/>
<path d="M28.408 15.9785L24.5133 18.9408C24.2733 19.1183 24.0333 19.2848 23.7715 19.4179V14.7248V13.3823L25.1352 13.7152L28.0261 14.4141V14.6471C28.0261 15.1353 28.168 15.6013 28.408 15.9785Z" fill="#655E67"/>
<path d="M22.3756 18.0761L20.3901 18.7973C19.9319 18.9415 19.3756 18.6087 19.2337 18.1427L18.6228 16.0458C18.4592 15.5243 18.8192 14.9807 19.3537 14.9252L19.6265 14.7033L20.4992 14.6145C21.2738 14.5369 22.0047 14.2484 22.6266 13.7713L25.8775 11.3083C26.7394 10.6537 27.5794 10.6981 28.2231 11.5746L28.3431 11.6078C28.9867 12.4843 28.9867 13.3608 28.1249 14.0154L23.652 17.4215C23.2593 17.7211 22.8338 17.943 22.3647 18.0872L22.3756 18.0761Z" fill="#5A5766"/>
<path d="M25.6152 19.9295C25.4624 19.9295 25.3315 19.8185 25.3097 19.6632V18.5204C25.3097 18.4095 25.3643 18.3096 25.4406 18.2431L28.408 15.9797C28.168 15.5914 28.0261 15.1365 28.0261 14.6484V14.4154L27.4698 14.2822L25.3097 15.9464L23.7715 17.0005V21.2276C23.7933 21.3829 23.9242 21.4939 24.0879 21.4939H32.5644C32.7281 21.4939 32.8699 21.3607 32.8699 21.1943L32.9354 19.9295H25.6152Z" fill="#2D283D"/>
<path d="M24.8078 15.6234C24.4151 15.923 23.9896 16.1449 23.5205 16.2891L21.2296 17.0103C20.7714 17.1545 20.2914 16.8994 20.1495 16.4334L19.6259 14.7026L18.9604 14.7691C18.4259 14.8246 18.0658 15.3683 18.2295 15.8897L17.8477 17.1656L18.9495 18.2862L19.0695 18.6856C19.2113 19.1516 19.6913 19.4068 20.1495 19.2625L22.4405 18.5414C22.8987 18.3972 23.3351 18.1642 23.7278 17.8757L28.2007 14.4696C28.8334 13.9925 29.0952 13.1937 28.9425 12.4614L24.8078 15.6124V15.6234Z" fill="#534F5D"/>
<path d="M18.9605 18.298L18.0769 18.6863C17.6514 18.997 17.1387 19.1634 16.615 19.1967C15.415 19.2522 14.5641 16.3897 14.6295 16.0125C15.7859 15.5465 17.0623 15.5021 18.2405 15.9015L18.5678 16.9999L18.9605 18.298Z" fill="#2D283D"/>
<path d="M17.6839 18.3298C16.4838 18.3853 15.4256 17.5199 15.2184 16.3217L15.1529 15.9223C15.1529 15.9223 15.1529 15.8668 15.1529 15.8335C14.9783 15.889 14.8038 15.9444 14.6402 16.011C14.2474 16.1663 14.0183 16.5879 14.0947 17.0095L14.1601 17.409C14.3674 18.6183 15.4256 19.4837 16.6257 19.4171C17.1493 19.3949 17.6511 19.2174 18.0875 18.9068L18.9712 18.2855L18.8839 17.9859C18.5239 18.1856 18.1202 18.2965 17.7057 18.3187L17.6839 18.3298Z" fill="#2D283D"/>
<path d="M29.0626 12.3735H28.7026C27.1316 12.3846 26.008 11.2196 26.488 9.69965L27.0662 8.47922L28.1135 7.85791H30.6881L31.4954 9.45556C31.7681 10.0103 31.8117 10.5983 31.659 11.1198C31.3972 12.0296 30.1208 12.3735 29.0626 12.3735Z" fill="#5A5766"/>
<path d="M31.0588 11.1974L29.4879 11.2751C27.9169 11.2751 27.3169 10.7093 27.786 9.18929L28.1242 7.85791H26.6951L26.1169 9.69965C25.6369 11.2196 26.7605 12.7729 28.3315 12.7618H29.5315C30.5897 12.7618 31.4079 12.0296 31.6697 11.1087C31.4843 11.1642 31.277 11.1974 31.0697 11.1974H31.0588Z" fill="#534F5D"/>
<path d="M13.7468 16.7L1.47378 4.37361C1.28832 4.1961 1.29924 3.50822 1.43015 3.37508L1.51742 3.28632C1.62652 3.14209 2.43381 2.54297 2.892 2.95348C2.90291 2.96457 2.92473 2.98676 2.93564 2.99786L15.0669 15.3353L13.7577 16.7H13.7468Z" fill="#855B51"/>
<path d="M2.83658 4.65129C2.38929 4.1964 2.38929 3.45305 2.83658 2.99816C2.84748 2.98707 2.8693 2.96488 2.88021 2.95378C2.43293 2.54328 1.73473 2.55437 1.29835 2.99816C0.85107 3.45305 0.85107 4.1964 1.29835 4.65129L13.4296 16.9887L14.1932 16.2121L2.82567 4.65129H2.83658Z" fill="#724D44"/>
<path d="M37.8883 32.5337L34.9864 28.7837C34.2445 27.8295 33.7318 26.6978 33.47 25.5218L32.6845 21.8494C32.859 21.6941 32.979 21.4722 33.0009 21.2059L33.1972 17.4226C33.2081 17.1785 33.1209 16.9233 32.9463 16.7458C32.9136 16.7125 32.8809 16.6792 32.8481 16.657L32.9463 14.6267C33.0336 13.0068 32.6518 11.4092 31.8445 10.0112C31.8008 9.72278 31.7026 9.43431 31.5717 9.16804L30.8844 7.81447L32.4008 3.97566C32.619 3.42092 32.5536 2.79961 32.2263 2.30035C31.899 1.80108 31.3535 1.51262 30.7644 1.51262C30.5899 1.52371 26.8916 1.47933 26.7061 1.51262C25.0916 1.61247 23.6733 2.75523 23.1497 4.40836C22.7351 5.73974 22.8551 7.37068 23.4661 8.56892C23.837 9.29008 24.3606 9.81154 24.9934 10.0889C24.9606 10.3552 24.9716 10.6104 25.0152 10.8766L21.8406 13.2953C21.306 13.7058 20.6624 13.961 19.9969 14.0276L18.4587 14.1829C18.0332 14.2273 17.6514 14.4603 17.4114 14.8264C17.3459 14.9262 17.2914 15.0372 17.2586 15.1481C16.7786 15.0483 16.2986 15.015 15.8186 15.0483C15.9931 14.8153 15.9713 14.4935 15.764 14.2827C15.5349 14.0498 15.1749 14.0608 14.9458 14.2827L14.6731 14.5712L7.32019 7.09331C7.09109 6.86032 6.73108 6.86032 6.50199 7.09331C6.27289 7.3263 6.27289 7.69243 6.50199 7.92542L13.8549 15.4033L13.0476 16.2354L1.32003 4.30851C1.21094 4.19756 1.15639 4.05333 1.15639 3.898C1.15639 3.74267 1.21094 3.59844 1.32003 3.48749C1.42913 3.37654 1.57095 3.32107 1.72368 3.32107C1.87641 3.32107 2.01823 3.37654 2.12733 3.48749L6.50199 7.93651C6.73108 8.1695 7.09109 8.1695 7.32019 7.93651C7.54929 7.70352 7.54929 7.33739 7.32019 7.1044L2.94553 2.65538C2.61825 2.32254 2.18187 2.14502 1.72368 2.14502C1.26549 2.14502 0.829111 2.32254 0.50183 2.65538C0.174549 2.98823 0 3.43202 0 3.898C0 4.36398 0.174549 4.80777 0.50183 5.14062L12.2403 17.0786L11.8367 17.5002C11.6076 17.7332 11.6185 18.0994 11.8367 18.3323C11.9458 18.4433 12.0985 18.4988 12.2403 18.4988C12.3821 18.4988 12.5349 18.4433 12.644 18.3213L13.1785 17.7665C13.5167 19.0868 14.6949 20.0188 16.0477 20.0188C16.0913 20.0188 16.1459 20.0188 16.1895 20.0188C16.8223 19.9855 17.4332 19.7747 17.9568 19.4085L18.2296 19.2199C18.3605 19.4418 18.5459 19.6193 18.7859 19.7414C18.9932 19.8523 19.2223 19.9078 19.4514 19.9078C19.5932 19.9078 19.7351 19.8856 19.8769 19.8412L22.746 18.8871V21.2725C22.746 21.2725 22.3315 21.6719 22.2006 21.9493L22.1024 22.1601L20.3133 23.7133C19.015 24.845 17.9459 26.1986 17.1386 27.7297L16.9532 28.0847C16.8004 28.3732 16.9095 28.7282 17.1932 28.8724C17.2804 28.9168 17.3677 28.939 17.4659 28.939C17.6732 28.939 17.8696 28.828 17.9786 28.6283L18.1641 28.2733C18.8623 26.953 19.7678 25.777 20.8587 24.7784L20.1714 26.2319C19.9314 26.7422 19.9423 27.3081 20.2042 27.8073C20.466 28.3066 20.9242 28.6283 21.4696 28.706L23.8043 29.0388C23.8915 29.0499 23.9679 29.061 24.0552 29.061C24.8406 29.061 25.5279 28.5174 25.7134 27.7297L25.8989 26.9419V27.7075C25.8661 28.1069 26.0079 28.4952 26.2698 28.7837C26.4007 28.9168 26.5425 29.0277 26.7171 29.1054L24.7097 37.0049C24.6443 37.2379 24.4806 37.3489 24.3934 37.4043C24.2952 37.4487 24.1097 37.5042 23.8915 37.4043L16.0586 33.6987C15.9059 33.6321 15.7968 33.499 15.7422 33.3436C15.6877 33.1883 15.6986 33.0108 15.7859 32.8666L18.1968 28.2733C18.3496 27.9848 18.2405 27.6298 17.9568 27.4856C17.6732 27.3302 17.3241 27.4412 17.1823 27.7297L14.7713 32.3229C14.5422 32.7556 14.5095 33.2549 14.6513 33.7209C14.804 34.1757 15.1422 34.5641 15.5677 34.7638L19.4405 36.5944L23.5315 38.5249C23.7279 38.6026 23.9352 38.6359 24.1424 38.6359C24.3934 38.6359 24.6552 38.5804 24.8843 38.4694C25.3534 38.2475 25.7025 37.8259 25.8225 37.3045L26.8371 33.2882L29.5208 37.4598C29.848 37.9813 30.4044 38.2586 30.9826 38.2586C31.2444 38.2586 31.5172 38.1921 31.7681 38.07L34.2554 36.7941C34.2554 36.7941 38.041 34.9524 37.9319 34.7083C38.0846 34.5086 38.1828 34.2756 38.2374 34.0204C38.3464 33.499 38.2374 32.9553 37.9101 32.5448L37.8883 32.5337ZM23.9024 20.8953V18.1437L27.1752 15.6585C27.328 16.0912 27.568 16.4906 27.8953 16.8124C28.4735 17.3893 29.2371 17.6999 30.0444 17.6889L32.0299 17.6556L31.8663 20.9063H23.9133L23.9024 20.8953ZM24.1424 5.22938H25.9425L25.8225 6.43871H24.077C24.0443 6.0282 24.077 5.6177 24.1424 5.22938ZM26.2152 9.8781L26.6734 8.43578H29.9026L30.5462 9.71168C30.8081 10.2331 30.7863 10.8544 30.4917 11.3648C30.1862 11.8752 29.6626 12.1747 29.0844 12.1747C29.0844 12.1747 27.928 12.1747 27.8734 12.1747C27.3171 12.1747 26.8043 11.9085 26.477 11.4536C26.1498 10.9876 26.0516 10.4217 26.2261 9.86701L26.2152 9.8781ZM29.0844 13.3397C30.0662 13.3397 30.9499 12.8293 31.4626 11.9861C31.7245 12.8182 31.8445 13.6947 31.8008 14.5712L31.7245 15.947L31.7026 16.4795L30.0226 16.5128C29.5208 16.5128 29.0626 16.3353 28.7026 15.9803C28.408 15.6807 28.2225 15.3035 28.168 14.893C28.648 14.5046 28.9753 13.9499 29.0735 13.3397H29.0844ZM31.2772 2.96604C31.3972 3.14355 31.419 3.35435 31.3426 3.55406L29.8699 7.27082H26.8916C26.9134 7.08221 27.328 2.92166 27.3607 2.68867H30.7753C30.9826 2.68867 31.1681 2.79961 31.2881 2.96604H31.2772ZM26.1934 2.79961L26.0625 4.05333H24.5897C24.9716 3.44311 25.5388 2.99932 26.1934 2.79961ZM24.5025 8.03637C24.437 7.90323 24.3715 7.759 24.317 7.60367H25.7025V7.72571L25.3097 8.94614C24.917 8.72424 24.6552 8.34702 24.5025 8.03637ZM16.1459 18.8316C15.2295 18.876 14.4331 18.2214 14.2695 17.3005L14.204 16.9011C14.1822 16.7902 14.2258 16.6792 14.3022 16.6016C14.3022 16.6016 14.3567 16.5572 14.4004 16.5461C15.3386 16.1689 16.3641 16.1023 17.335 16.3686L17.8477 18.055L17.3132 18.4322C16.975 18.6763 16.5713 18.8094 16.1568 18.8316H16.1459ZM21.8406 17.9884L19.5496 18.7096C19.4514 18.7429 19.375 18.7096 19.3314 18.6874C19.2878 18.6652 19.2223 18.6208 19.1896 18.521L18.3496 15.7251C18.3168 15.6141 18.3496 15.5254 18.3823 15.481C18.415 15.4366 18.4696 15.37 18.5896 15.3589L20.1278 15.2036C21.0005 15.1149 21.8406 14.782 22.5388 14.2495L25.4625 12.0305C25.4625 12.0305 25.517 12.1193 25.5498 12.1636C26.0516 12.8848 26.9789 13.373 27.8953 13.3619C27.808 13.6171 27.6444 13.85 27.4153 14.0276L22.9424 17.4337C22.6042 17.6889 22.2333 17.8886 21.8297 18.0106L21.8406 17.9884ZM24.5788 27.4634C24.5134 27.7518 24.2406 27.9405 23.957 27.8961L21.6224 27.5632C21.4478 27.541 21.2951 27.4301 21.2078 27.2637C21.1205 27.0973 21.1205 26.9197 21.2078 26.7533L23.2479 22.4596C23.357 22.2377 23.5752 22.0935 23.8261 22.0824C23.837 22.0824 25.8007 22.0824 25.8443 22.0824L24.5788 27.4745V27.4634ZM31.2335 37.016C30.9608 37.1602 30.6335 37.0604 30.4699 36.8052L27.2189 31.746L27.808 29.405L27.8625 29.2386H30.1208C30.5135 29.2386 30.8953 29.0721 31.1681 28.7726C31.4408 28.4841 31.5826 28.0847 31.5499 27.6853C31.5499 27.6187 31.2881 26.0765 31.2772 25.9767C31.2226 25.6549 30.9281 25.4441 30.6117 25.4885C30.2953 25.544 30.0881 25.8435 30.1317 26.1653L30.3935 27.774C30.3935 27.8739 30.3499 27.9405 30.3171 27.9737C30.2844 28.007 30.219 28.0625 30.1099 28.0625H27.2843C27.1753 28.0625 27.1098 28.007 27.0771 27.9737C27.0443 27.9405 26.9898 27.8628 27.0007 27.7518C27.0007 27.7518 27.0007 27.7408 27.0007 27.7297L27.1207 22.0602H29.4771L29.7062 23.4803C29.7499 23.7688 30.0008 23.9685 30.2735 23.9685C30.3062 23.9685 30.339 23.9685 30.3717 23.9685C30.6881 23.913 30.8953 23.6135 30.8517 23.2917L30.6553 22.0602H31.5608L32.3572 25.7659C32.6518 27.1194 33.2518 28.4175 34.0918 29.5048L36.9937 33.2549C37.1028 33.3991 37.1464 33.5766 37.1028 33.7541C37.0591 33.9317 36.9501 34.0759 36.7864 34.1646L31.2335 37.016Z" fill="black"/>
</g>
<defs>
<clipPath id="clip0_225_10313">
<rect width="40" height="40" fill="white" transform="translate(0 0.5)"/>
</clipPath>
</defs>
</svg>
