<svg width="40" height="40" viewBox="0 0 40 40" fill="none" xmlns="http://www.w3.org/2000/svg">
<mask id="mask0_225_10378" style="mask-type:luminance" maskUnits="userSpaceOnUse" x="1" y="1" width="38" height="38">
<path d="M39 1H1V39H39V1Z" fill="white"/>
</mask>
<g mask="url(#mask0_225_10378)">
<path d="M8.13728 16.1267C8.02117 17.995 8.40117 19.8739 9.26672 21.7211C9.80505 22.84 9.99506 24.1172 9.68895 25.3311C9.18228 27.3367 7.95783 28.9411 5.74116 30.25C4.86505 30.7673 3.9995 31.3055 3.18672 31.9178L2.17339 32.6989C1.58228 33.1423 1.5295 34.0078 2.05727 34.525L5.40338 37.8395C5.94172 38.3673 6.82839 38.3145 7.27172 37.7022L8.32728 36.2983C8.88672 35.5595 9.37228 34.7783 9.82616 33.9867C11.1034 31.7911 12.6551 30.5878 14.6184 30.06C15.8217 29.7328 17.0989 29.9122 18.2389 30.3978C19.9912 31.1472 21.7751 31.4745 23.5589 31.3795C23.6751 31.3795 23.7384 31.2211 23.6539 31.1261L8.39061 16.0422C8.29561 15.9472 8.14783 16.0106 8.13728 16.1267Z" fill="#CFBCA2"/>
<path d="M13.0131 13.4353C16.2009 13.4353 18.787 10.8808 18.787 7.72469C18.787 4.56858 16.2009 2.01416 13.0131 2.01416C9.82537 2.01416 7.23926 4.56858 7.23926 7.72469C7.23926 10.8808 9.82537 13.4353 13.0131 13.4353Z" fill="#E6EAEB"/>
<path d="M9.80404 8.35791C9.4557 8.35791 9.16016 8.07293 9.16016 7.71404C9.16016 5.62404 10.8913 3.91406 13.0024 3.91406C13.3507 3.91406 13.6463 4.19905 13.6463 4.55794C13.6463 4.91682 13.3613 5.19124 13.0024 5.19124C11.5879 5.19124 10.4374 6.33127 10.4374 7.7246C10.4374 8.07294 10.1524 8.36848 9.79349 8.36848L9.80404 8.35791Z" fill="white"/>
<path d="M34.7994 5.02223C30.3661 0.631118 23.0617 0.40943 17.0872 3.68165C19.3356 5.90887 19.3356 9.5189 17.0872 11.7567C14.9233 13.8995 11.44 13.9734 9.18112 11.9784C8.57945 13.34 8.24167 14.7017 8.15723 16.0844C8.19945 16 8.31556 15.9683 8.38945 16.0422L23.6633 31.1472C23.7478 31.2317 23.7056 31.3583 23.5895 31.39C26.83 31.2105 30.0389 29.6273 33.0156 26.6928C39.3067 20.465 40.3622 10.5217 34.7994 5.03279V5.02223Z" fill="#EA4747"/>
<path d="M10.4061 7.88238C10.4061 6.48905 11.5567 5.34902 12.9711 5.34902C13.33 5.34902 13.615 5.0746 13.615 4.71572C13.615 4.35683 13.33 4.07178 12.9711 4.07178C10.8495 4.07178 9.12891 5.78182 9.12891 7.87182C9.12891 8.22015 9.41391 8.51569 9.7728 8.51569C10.1317 8.51569 10.4167 8.2307 10.4167 7.87182H10.4061V7.88238Z" fill="black"/>
<path d="M35.2116 4.73706C30.8733 0.440944 23.5055 -0.202952 17.1405 3.07983C15.9794 2.0876 14.5227 1.53876 12.9605 1.53876C11.2505 1.53876 9.64603 2.19321 8.43214 3.39654C5.95159 5.84543 5.94103 9.82487 8.37936 12.2949C7.86214 13.551 7.56658 14.8176 7.47158 16.1054C7.46103 16.1582 7.43992 16.2004 7.43992 16.2532C7.3977 16.9393 7.42936 17.6254 7.51381 18.301C7.56659 18.7127 7.62992 19.1243 7.73547 19.536C7.73547 19.5676 7.75658 19.6099 7.76714 19.6626C7.86214 20.0532 7.9677 20.4438 8.10492 20.8238C8.12604 20.8766 8.14714 20.9293 8.1577 20.9821C8.29492 21.3726 8.45325 21.7527 8.64325 22.1432C9.13936 23.1988 9.27659 24.3387 9.02325 25.331C8.99159 25.426 8.95992 25.5315 8.92826 25.6265C8.88603 25.7532 8.85437 25.901 8.81214 26.0171C8.76992 26.1332 8.70659 26.2599 8.66437 26.3654C8.62215 26.471 8.57992 26.566 8.5377 26.6715C8.47436 26.7982 8.40048 26.9249 8.32659 27.0515C8.28437 27.136 8.24214 27.2204 8.19992 27.2838C8.10492 27.421 8.00992 27.5582 7.91492 27.6849C7.8727 27.7482 7.83048 27.801 7.78825 27.8643C7.6827 28.0015 7.54548 28.1388 7.41881 28.276C7.37659 28.3077 7.33437 28.3604 7.3027 28.4027C7.16548 28.5399 7.0177 28.6771 6.85937 28.8038C6.81715 28.846 6.77492 28.8776 6.74326 28.9093C6.56381 29.0571 6.37381 29.2048 6.17326 29.3526C6.15214 29.3737 6.13103 29.3843 6.10992 29.4054C5.88825 29.5637 5.64547 29.7116 5.39214 29.8593C4.65325 30.2921 3.6927 30.8726 2.78492 31.5798L1.76103 32.3504C1.32826 32.6882 1.06436 33.1737 1.0327 33.7121C1.00103 34.2504 1.19104 34.7676 1.58159 35.1476L4.9277 38.4621C5.27603 38.8104 5.76159 39.011 6.2577 39.011H6.39492C6.94381 38.9688 7.43992 38.7048 7.76714 38.2615L8.82269 36.8576C9.12881 36.4459 9.42436 36.0027 9.73047 35.5277C9.94158 35.2004 10.1527 34.8626 10.3638 34.4932C10.501 34.2398 10.6594 34.0076 10.8071 33.786C11.3877 32.9204 12.0421 32.2554 12.7916 31.7593C12.8233 31.7382 12.8444 31.7171 12.8655 31.696C13.0027 31.601 13.1505 31.5271 13.2877 31.4427C13.351 31.4216 13.4038 31.3793 13.4566 31.3476C13.5833 31.2737 13.7205 31.2315 13.8471 31.1682C13.9316 31.1365 14.0055 31.0837 14.0899 31.052C14.1955 31.0204 14.3327 30.9782 14.4488 30.936C14.5544 30.9043 14.6599 30.8727 14.7655 30.841C15.7788 30.5665 16.7394 30.7249 17.4782 30.9782C17.6471 31.0416 17.816 31.0943 17.9533 31.1576H17.9744C18.2594 31.2738 18.5444 31.3899 18.8294 31.4849C18.9033 31.5165 18.9771 31.5376 19.051 31.5588C19.3255 31.6432 19.5894 31.7276 19.8638 31.791C19.8849 31.791 19.9166 31.8015 19.9377 31.8121C21.141 32.1182 22.3444 32.2449 23.5583 32.171C23.6005 32.171 23.6321 32.1604 23.6638 32.1499C27.0416 31.9388 30.3771 30.3027 33.4277 27.2838C40.0988 20.6866 40.9116 10.3632 35.2116 4.72655H35.2222L35.2116 4.73706ZM9.35047 4.30431C10.3216 3.34375 11.6094 2.81594 12.971 2.81594C14.3327 2.81594 15.6205 3.34375 16.5916 4.30431C18.5866 6.2782 18.5866 9.50818 16.5916 11.4821C16.4755 11.5982 16.3383 11.7143 16.2116 11.8199C16.1588 11.8621 16.1166 11.8832 16.0744 11.9254C15.9794 11.9887 15.9055 12.0627 15.8105 12.1154C15.7471 12.1577 15.6944 12.1893 15.631 12.2315C15.5466 12.2738 15.4727 12.3265 15.3883 12.3688C15.3144 12.411 15.251 12.4321 15.1771 12.4637C15.0927 12.506 15.0294 12.5376 14.9449 12.5798C14.871 12.6115 14.7971 12.6326 14.7127 12.6537C14.6283 12.6854 14.5649 12.7171 14.4805 12.7382C14.396 12.7593 14.3221 12.7804 14.2377 12.791C14.1638 12.8121 14.0899 12.8332 14.016 12.8437C13.921 12.8648 13.8471 12.8754 13.7521 12.886C13.6783 12.8965 13.6149 12.9071 13.541 12.9176C13.446 12.9282 13.3616 12.9387 13.256 12.9387H12.591C12.4855 12.9387 12.3694 12.9177 12.2533 12.8965C12.2005 12.8965 12.1583 12.886 12.116 12.8754C11.9999 12.8543 11.8733 12.8332 11.7677 12.8015C11.736 12.8015 11.6938 12.791 11.6621 12.791C11.5355 12.7593 11.4088 12.7171 11.2821 12.6643C11.261 12.6643 11.2399 12.6538 11.2188 12.6432C11.0816 12.601 10.9444 12.5482 10.8177 12.4743C10.8177 12.4743 10.7966 12.4743 10.7966 12.4637C10.3638 12.2632 9.95214 11.9993 9.56159 11.6721L9.42437 11.5454C9.42437 11.5454 9.37159 11.5032 9.33992 11.4821C7.34492 9.50818 7.34492 6.2782 9.33992 4.30431H9.35047ZM6.7327 37.491C6.62714 37.6388 6.46881 37.7126 6.29992 37.7337C6.13103 37.7443 5.95159 37.681 5.83548 37.5649L2.48936 34.2504C2.37325 34.1343 2.30992 33.9654 2.32048 33.7965C2.33103 33.6171 2.41548 33.4587 2.5527 33.3637L3.57659 32.5826C4.43159 31.9282 5.36048 31.3688 6.0677 30.9571C6.6377 30.6193 7.15492 30.2604 7.61936 29.8698C7.85158 29.6798 8.0627 29.4688 8.27381 29.2682C8.29492 29.2471 8.30548 29.2365 8.32659 29.2154C8.50603 29.0254 8.68548 28.8354 8.84381 28.6243C8.87548 28.5926 8.89659 28.5504 8.9177 28.5188C9.06548 28.3288 9.21325 28.1388 9.32936 27.9382C9.36103 27.8854 9.38214 27.8326 9.41381 27.7799C9.51937 27.5899 9.63548 27.4104 9.74103 27.2099C9.7727 27.1465 9.79381 27.0832 9.82548 27.0304C9.92048 26.8404 9.99436 26.6398 10.0788 26.4393C10.0999 26.3654 10.121 26.3021 10.1421 26.2282C10.2055 26.0277 10.2688 25.8377 10.3216 25.6265C10.6488 24.3282 10.4799 22.9454 9.84658 21.6049C9.7727 21.4465 9.71992 21.2988 9.65658 21.1404C9.13936 19.9265 8.84381 18.7021 8.78048 17.4671L22.3655 30.9043C22.0594 30.8832 21.7638 30.8621 21.4577 30.8199H21.3838C21.0883 30.7776 20.8138 30.7143 20.5183 30.651C20.4866 30.651 20.4444 30.6404 20.4127 30.6299C20.1277 30.556 19.8533 30.4821 19.5788 30.3871C19.5366 30.3766 19.4944 30.366 19.4521 30.3448C19.1355 30.2393 18.8294 30.1338 18.5127 29.986C18.0588 29.7854 17.5944 29.6587 17.1405 29.5637C17.0771 29.5532 17.0244 29.5321 16.961 29.5215C16.8977 29.511 16.8555 29.511 16.7921 29.5004C16.676 29.4793 16.5599 29.4582 16.4438 29.4476H16.3805C16.2327 29.4476 16.0849 29.4265 15.9371 29.4265C15.7788 29.4265 15.6099 29.4265 15.4516 29.4476C15.3988 29.4476 15.3566 29.4582 15.3144 29.4687C15.1983 29.4793 15.0716 29.4899 14.966 29.5215C14.8394 29.5427 14.7021 29.5743 14.5755 29.6059C14.5438 29.6059 14.5227 29.6165 14.491 29.6271C14.2377 29.701 13.9949 29.7854 13.7521 29.8698C13.731 29.8698 13.7099 29.8804 13.6888 29.891C13.446 29.9754 13.2244 30.081 13.0027 30.1866C12.9816 30.1971 12.9605 30.2076 12.9394 30.2182C12.7283 30.3343 12.5277 30.4504 12.3271 30.5771C12.2955 30.5982 12.2638 30.6088 12.2321 30.6299C12.021 30.7671 11.831 30.9043 11.6305 31.0626C11.6094 31.0837 11.5883 31.0943 11.5671 31.1049C10.7121 31.8015 9.9627 32.7093 9.2977 33.8599C8.79103 34.7254 8.30548 35.4643 7.83048 36.1082L6.77492 37.5121V37.491H6.7327ZM24.0966 30.8832C24.0966 30.8832 24.0966 30.8726 24.0966 30.8621L8.80159 15.7571C8.90714 14.8915 9.1077 14.0366 9.41381 13.171C9.71992 13.3716 10.0366 13.5404 10.3638 13.6882C10.3744 13.6882 10.3955 13.6987 10.406 13.7093C10.5433 13.7621 10.691 13.8254 10.8388 13.8782C10.881 13.8888 10.9233 13.8993 10.9549 13.9098C11.0816 13.9521 11.2188 13.9943 11.356 14.0365C11.4194 14.0471 11.4616 14.0682 11.5249 14.0682C11.641 14.0999 11.7783 14.1315 11.8944 14.1527C11.9683 14.1632 12.021 14.1737 12.0949 14.1843C12.211 14.2054 12.3377 14.216 12.4538 14.2266C12.5383 14.2266 12.6016 14.2265 12.686 14.2371C12.781 14.2371 12.876 14.2476 12.971 14.2476H13.0238C13.1188 14.2476 13.2244 14.2476 13.3299 14.2371C13.4883 14.2371 13.6466 14.216 13.8049 14.1949C13.921 14.1843 14.0371 14.1632 14.1533 14.1421C14.2377 14.121 14.3116 14.0999 14.396 14.0893C14.5121 14.0682 14.6177 14.0471 14.7233 14.0154C14.8077 13.9943 14.8816 13.9626 14.966 13.931C15.0716 13.8993 15.1771 13.8677 15.2827 13.8254C15.3671 13.7938 15.441 13.7621 15.5149 13.7198C15.6205 13.6882 15.726 13.6354 15.8316 13.5826C15.9055 13.5404 15.9794 13.5193 16.0533 13.4771C16.1588 13.4138 16.2644 13.3504 16.3699 13.2977C16.4438 13.2554 16.4966 13.2132 16.5705 13.1604C16.676 13.0971 16.7921 13.0021 16.8871 12.9282C16.9399 12.886 17.0033 12.8437 17.0455 12.8015C17.2038 12.6748 17.3621 12.5482 17.4994 12.4004C17.6366 12.2421 17.7949 12.0943 17.9216 11.936C17.9744 11.8832 18.0166 11.8304 18.0483 11.7671C18.1327 11.6615 18.2066 11.556 18.291 11.4504C18.3438 11.3765 18.386 11.3132 18.4177 11.2393C18.481 11.1443 18.5338 11.0387 18.5971 10.9437C18.6394 10.8593 18.6816 10.7854 18.7133 10.701C18.766 10.606 18.8188 10.5004 18.8505 10.4054C18.8927 10.3104 18.9244 10.2365 18.956 10.1415C18.9983 10.0465 19.0299 9.94097 19.0616 9.84597C19.0932 9.75097 19.1144 9.66652 19.146 9.57152C19.1777 9.47652 19.1988 9.37094 19.2199 9.2865C19.241 9.1915 19.2621 9.09654 19.2833 9.00154C19.3044 8.90654 19.3149 8.81152 19.3255 8.71652C19.336 8.61097 19.3466 8.51599 19.3572 8.41043C19.3572 8.32599 19.3572 8.23098 19.3572 8.13598V7.82983C19.3572 7.73483 19.3572 7.65044 19.3572 7.55544C19.3572 7.44988 19.3571 7.34427 19.336 7.23872C19.336 7.15427 19.3149 7.08041 19.3044 6.99596C19.2833 6.89041 19.2727 6.76373 19.2516 6.65818C19.2516 6.59484 19.2199 6.54208 19.2094 6.47875C19.1038 6.03542 18.956 5.61317 18.7555 5.2015C18.7238 5.13817 18.7027 5.08541 18.671 5.02208C18.6183 4.91652 18.5549 4.81099 18.4916 4.71599C18.4494 4.6421 18.4071 4.5682 18.3649 4.50486C18.3016 4.40986 18.2383 4.3254 18.1749 4.21984C18.1327 4.17762 18.101 4.11433 18.0694 4.06155C23.8538 1.2221 30.451 1.83428 34.3249 5.66595C39.5288 10.8065 38.716 20.3171 32.541 26.4288C29.8494 29.0888 26.9888 30.5876 24.1072 30.8938L24.0966 30.8832Z" fill="black"/>
</g>
</svg>
