<svg width="40" height="40" viewBox="0 0 40 40" fill="none" xmlns="http://www.w3.org/2000/svg">
<path d="M21.0596 28.7822L28.2041 35.8387C28.771 36.3986 28.771 37.2966 28.2041 37.8565C27.6373 38.4163 26.728 38.4163 26.1611 37.8565L19.0166 30.8L21.0596 28.7822Z" fill="#B47864"/>
<path d="M20.9183 30.8118L13.7738 37.8683C13.2069 38.4281 12.2976 38.4281 11.7308 37.8683C11.164 37.3084 11.164 36.4103 11.7308 35.8505L18.8753 28.7939L20.9183 30.8118Z" fill="#B47864"/>
<path d="M18.5078 18.8564H21.4011V36.8651C21.4011 37.6582 20.7516 38.288 19.9603 38.288C19.1691 38.288 18.5196 37.6465 18.5196 36.8651V18.8564H18.5078Z" fill="#AF6551"/>
<path d="M30.7898 4.58105H9.13187C7.93182 4.58105 6.95898 5.54186 6.95898 6.72712V19.5571C6.95898 20.7424 7.93182 21.7032 9.13187 21.7032H30.7898C31.9899 21.7032 32.9627 20.7424 32.9627 19.5571V6.72712C32.9627 5.54186 31.9899 4.58105 30.7898 4.58105Z" fill="#B47864"/>
<path d="M19.9609 15.999H30.0696V18.8566H19.9609V15.999Z" fill="#E1E1EC"/>
<path d="M30.0696 15.998H21.4017C20.5986 15.998 19.9609 16.6394 19.9609 17.4209V3.15633C19.9609 2.3632 20.6104 1.7334 21.4017 1.7334H30.0696V15.998Z" fill="#EBEBF5"/>
<path d="M19.9602 18.8566H9.85156V15.999H19.9602V18.8566Z" fill="#EBEBF5"/>
<path d="M9.83984 15.998H18.5078C19.3108 15.998 19.9485 16.6394 19.9485 17.4209V3.15633C19.9485 2.3632 19.299 1.7334 18.5078 1.7334H9.83984V15.998Z" fill="#F5F5FF"/>
<path d="M30.7895 22.4144C32.3837 22.4144 33.6827 21.1314 33.6827 19.5568V6.71513C33.6827 5.14054 32.3837 3.8576 30.7895 3.8576V1.71146C30.7895 1.3149 30.4706 1 30.0691 1H21.4012C20.8698 1 20.3502 1.19826 19.9605 1.55983C19.5708 1.19826 19.0512 1 18.5198 1H9.85189C9.45037 1 9.13153 1.3149 9.13153 1.71146V3.8576C7.53729 3.8576 6.23828 5.14054 6.23828 6.71513V19.5568C6.23828 21.1314 7.53729 22.4144 9.13153 22.4144H17.7994V28.8294L11.2099 35.3377C10.3833 36.1891 10.4069 37.5421 11.269 38.3585C12.1074 39.1633 13.4419 39.1633 14.2803 38.3585L17.7994 34.8828V36.8539C17.7994 38.032 18.7678 39 19.9723 39C21.1769 39 22.1452 38.0436 22.1452 36.8539V34.8828L25.6643 38.3585C26.5264 39.175 27.8962 39.1517 28.7229 38.3002C29.5377 37.4721 29.5377 36.1541 28.7229 35.326L22.1334 28.8177V22.4027H30.8013L30.7895 22.4144ZM17.7876 32.865L13.2411 37.3555C12.9577 37.6237 12.4971 37.6237 12.2255 37.3321C11.9539 37.0522 11.9539 36.6207 12.2255 36.3407L17.7876 30.8471V32.865ZM20.6809 3.14606C20.6809 2.7495 20.9997 2.4346 21.4012 2.4346H29.3488V15.2763H21.4012C21.1532 15.2763 20.9052 15.3229 20.6809 15.3929V3.14606ZM20.6809 17.4107C20.6809 17.0141 20.9997 16.6992 21.4012 16.6992H29.3488V18.1222H20.6809V17.4107ZM10.5722 2.42293H18.5198C18.9213 2.42293 19.2402 2.73783 19.2402 3.13439V15.3812C19.004 15.2995 18.7678 15.2646 18.5198 15.2646H10.5722V2.42293ZM10.5722 16.6876H18.5198C18.9213 16.6876 19.2402 17.0025 19.2402 17.399V18.1105H10.5722V16.6876ZM20.6809 36.8306C20.6809 37.2271 20.362 37.542 19.9605 37.542C19.559 37.542 19.2402 37.2271 19.2402 36.8306V22.391H20.6809V36.8306ZM27.6955 36.3291C27.9671 36.609 27.9671 37.0639 27.6837 37.3321C27.4003 37.6004 26.9633 37.6004 26.6799 37.3321L22.1334 32.8417V30.8239L27.6955 36.3174V36.3291ZM9.13153 20.9681C8.32851 20.9681 7.69081 20.3266 7.69081 19.5451V6.70345C7.69081 5.91033 8.34031 5.28053 9.13153 5.28053V18.8336C9.13153 19.2302 9.45037 19.5451 9.85189 19.5451H30.081C30.4825 19.5451 30.8013 19.2302 30.8013 18.8336V5.28053C31.6043 5.28053 32.242 5.92199 32.242 6.70345V19.5451C32.242 20.3382 31.5925 20.9681 30.8013 20.9681H9.13153Z" fill="black"/>
<path d="M22.8424 5.29312H27.1764C27.5779 5.29312 27.8967 4.97821 27.8967 4.58165C27.8967 4.18509 27.5779 3.87012 27.1764 3.87012H22.8424C22.4409 3.87012 22.1221 4.18509 22.1221 4.58165C22.1221 4.97821 22.4409 5.29312 22.8424 5.29312Z" fill="black"/>
<path d="M22.8424 8.14956H27.1764C27.5779 8.14956 27.8967 7.83459 27.8967 7.43803C27.8967 7.04146 27.5779 6.72656 27.1764 6.72656H22.8424C22.4409 6.72656 22.1221 7.04146 22.1221 7.43803C22.1221 7.83459 22.4409 8.14956 22.8424 8.14956Z" fill="black"/>
<path d="M22.8424 11.0079H27.1764C27.5779 11.0079 27.8967 10.693 27.8967 10.2964C27.8967 9.89986 27.5779 9.58496 27.1764 9.58496H22.8424C22.4409 9.58496 22.1221 9.89986 22.1221 10.2964C22.1221 10.693 22.4409 11.0079 22.8424 11.0079Z" fill="black"/>
<path d="M22.8424 13.8526H27.1764C27.5779 13.8526 27.8967 13.5377 27.8967 13.1412C27.8967 12.7446 27.5779 12.4297 27.1764 12.4297H22.8424C22.4409 12.4297 22.1221 12.7446 22.1221 13.1412C22.1221 13.5377 22.4409 13.8526 22.8424 13.8526Z" fill="black"/>
<path d="M17.068 3.87012H12.734C12.3325 3.87012 12.0137 4.18509 12.0137 4.58165C12.0137 4.97821 12.3325 5.29312 12.734 5.29312H17.068C17.4695 5.29312 17.7884 4.97821 17.7884 4.58165C17.7884 4.18509 17.4695 3.87012 17.068 3.87012Z" fill="black"/>
<path d="M17.068 6.72656H12.734C12.3325 6.72656 12.0137 7.04146 12.0137 7.43803C12.0137 7.83459 12.3325 8.14956 12.734 8.14956H17.068C17.4695 8.14956 17.7884 7.83459 17.7884 7.43803C17.7884 7.04146 17.4695 6.72656 17.068 6.72656Z" fill="black"/>
<path d="M17.068 9.57227H12.734C12.3325 9.57227 12.0137 9.88717 12.0137 10.2837C12.0137 10.6803 12.3325 10.9953 12.734 10.9953H17.068C17.4695 10.9953 17.7884 10.6803 17.7884 10.2837C17.7884 9.88717 17.4695 9.57227 17.068 9.57227Z" fill="black"/>
<path d="M17.068 12.4297H12.734C12.3325 12.4297 12.0137 12.7446 12.0137 13.1412C12.0137 13.5377 12.3325 13.8526 12.734 13.8526H17.068C17.4695 13.8526 17.7884 13.5377 17.7884 13.1412C17.7884 12.7446 17.4695 12.4297 17.068 12.4297Z" fill="black"/>
<path d="M35.1129 26.0129C35.9028 26.0129 36.5432 25.3759 36.5432 24.59C36.5432 23.8041 35.9028 23.167 35.1129 23.167C34.323 23.167 33.6826 23.8041 33.6826 24.59C33.6826 25.3759 34.323 26.0129 35.1129 26.0129Z" fill="#FFDC6E"/>
<path d="M2.16857 34.8611C2.95849 34.8611 3.59885 34.224 3.59885 33.4381C3.59885 32.6523 2.95849 32.0151 2.16857 32.0151C1.37864 32.0151 0.738281 32.6523 0.738281 33.4381C0.738281 34.224 1.37864 34.8611 2.16857 34.8611Z" fill="#FFDC6E"/>
<path d="M8.61583 33.4377C9.40576 33.4377 10.0461 32.8006 10.0461 32.0147C10.0461 31.2288 9.40576 30.5918 8.61583 30.5918C7.82591 30.5918 7.18555 31.2288 7.18555 32.0147C7.18555 32.8006 7.82591 33.4377 8.61583 33.4377Z" fill="#FFDC6E"/>
<path d="M3.59961 25.588V28.4456L10.0593 27.0226V24.165L3.59961 25.588Z" fill="#FFDC6E"/>
<path d="M36.9305 24.6773V18.6939L38.7594 19.6036C39.1111 19.7785 39.5449 19.6386 39.7207 19.2887C39.8966 18.9388 39.7559 18.5073 39.4042 18.3323L36.5319 16.9093C36.1802 16.7343 35.7464 16.8743 35.5706 17.2242C35.5237 17.3175 35.5002 17.4342 35.5002 17.5392V22.6595C35.2657 22.5778 35.0313 22.5312 34.7851 22.5312C33.601 22.5312 32.6279 23.4876 32.6279 24.6773C32.6279 25.867 33.5893 26.8234 34.7851 26.8234C35.9809 26.8234 36.9422 25.867 36.9422 24.6773H36.9305ZM34.0582 24.6773C34.0582 24.2807 34.3748 23.9658 34.7734 23.9658C35.172 23.9658 35.4885 24.2807 35.4885 24.6773C35.4885 25.0739 35.172 25.3888 34.7734 25.3888C34.3748 25.3888 34.0582 25.0739 34.0582 24.6773Z" fill="black"/>
<path d="M9.89476 23.4648L3.43503 24.8878C3.10677 24.9578 2.8723 25.2494 2.8723 25.5876V31.4311C2.63783 31.3495 2.40335 31.3028 2.15716 31.3028C0.973067 31.3028 0 32.2593 0 33.449C0 34.6387 0.961344 35.595 2.15716 35.595C3.35297 35.595 4.3143 34.6387 4.3143 33.449V29.0284L9.33203 27.9204V30.0199C9.09756 29.9382 8.86309 29.8915 8.61689 29.8915C7.4328 29.8915 6.45973 30.848 6.45973 32.0376C6.45973 33.2273 7.42108 34.1837 8.61689 34.1837C9.8127 34.1837 10.774 33.2273 10.774 32.0376V24.1881C10.774 23.7915 10.4575 23.4765 10.0589 23.4765C10.012 23.4765 9.95338 23.4765 9.90649 23.4882L9.89476 23.4648ZM2.15716 34.1488C1.75855 34.1488 1.44201 33.8339 1.44201 33.4373C1.44201 33.0407 1.75855 32.7258 2.15716 32.7258C2.55576 32.7258 2.8723 33.0407 2.8723 33.4373C2.8723 33.8339 2.55576 34.1488 2.15716 34.1488ZM8.61689 32.7258C8.21828 32.7258 7.90175 32.4109 7.90175 32.0143C7.90175 31.6177 8.21828 31.3028 8.61689 31.3028C9.01549 31.3028 9.33203 31.6177 9.33203 32.0143C9.33203 32.4109 9.01549 32.7258 8.61689 32.7258ZM9.33203 26.4508L4.3143 27.5588V26.1592L9.33203 25.0511V26.4508Z" fill="black"/>
</svg>
