<svg width="40" height="41" viewBox="0 0 40 41" fill="none" xmlns="http://www.w3.org/2000/svg">
<g clip-path="url(#clip0_225_10359)">
<path d="M28.0664 23.7549L27.2453 18.3205L25.3654 11.4167C24.8577 9.54764 23.1938 8.22955 21.2491 8.16473L17.6406 8.04588L14.3778 7.95945L13.5459 6.51172L10.672 6.64137L10.1318 11.8057L16.8519 16.1597L16.7547 19.833" fill="#F9F9F9"/>
<path d="M28.0666 24.3053C27.7965 24.3053 27.5588 24.1109 27.5156 23.8299L26.6945 18.3955L24.8363 11.5458C24.3933 9.90363 22.9456 8.75841 21.2385 8.70439L14.3672 8.49911C14.1727 8.49911 13.9999 8.39107 13.9026 8.21821L13.2436 7.06218L11.18 7.15942L10.7263 11.5242L17.1654 15.6946C17.3275 15.8026 17.4247 15.9755 17.4139 16.1699L17.3167 19.8433C17.3167 20.1458 17.0682 20.4159 16.7441 20.3835C16.4416 20.3835 16.2039 20.1242 16.2039 19.8109L16.3011 16.44L9.84035 12.2481C9.66749 12.14 9.57024 11.9348 9.59185 11.7295L10.132 6.5652C10.1645 6.2951 10.3805 6.07902 10.6506 6.06822L13.5245 5.93857C13.7406 5.90616 13.9242 6.03581 14.0323 6.21947L14.7129 7.3971L21.2818 7.59158C23.475 7.6672 25.3332 9.13655 25.9059 11.2541L27.7857 18.1579L28.6176 23.6463C28.6609 23.9488 28.4556 24.2297 28.1531 24.2729C28.1207 24.2729 28.0991 24.2729 28.0666 24.2729V24.3053Z" fill="black"/>
<path d="M29.7953 32.829L25.4521 32.7642L28.0451 37.5287L28.4232 39.4194H32.1398L29.7953 32.8398V32.829Z" fill="#FDC9A6"/>
<path d="M11.2017 36.8382L8.55469 39.9389H14.3024L15.318 32.2141L11.6446 31.9224L11.2017 36.8382Z" fill="#FDC9A6"/>
<path d="M32.14 39.9604H28.4235C28.1642 39.9604 27.9373 39.7767 27.8833 39.5174L27.5159 37.7131L24.9662 33.0242C24.869 32.8514 24.8798 32.6461 24.977 32.4732C25.0742 32.3112 25.2579 32.2031 25.4524 32.2031L29.7955 32.268C30.0224 32.268 30.2277 32.4192 30.3033 32.6353L32.6478 39.2149C32.7126 39.3878 32.6802 39.5714 32.583 39.7227C32.4857 39.8739 32.3129 39.9604 32.1292 39.9604H32.14ZM28.8772 38.8584H31.3621L29.4066 33.3808L26.3923 33.3375L28.5315 37.2702C28.5315 37.2702 28.5747 37.3674 28.5855 37.4214L28.8772 38.8692V38.8584Z" fill="black"/>
<path d="M14.3026 40.4886H8.55493C8.33885 40.4886 8.14438 40.359 8.04715 40.1645C7.96071 39.97 7.99312 39.7323 8.14438 39.5703L10.2511 37.2258L11.1047 31.8346C11.1479 31.5537 11.4072 31.3593 11.6989 31.3701L15.3722 31.6618C15.5235 31.6726 15.6639 31.7482 15.7612 31.867C15.8584 31.9859 15.9016 32.1371 15.88 32.2884L14.8644 40.0132C14.832 40.2833 14.5944 40.4994 14.3135 40.4994L14.3026 40.4886ZM9.78659 39.3866H13.8165L14.6916 32.7206L12.1094 32.5153L11.3099 37.5607C11.2883 37.6688 11.2451 37.766 11.1803 37.8416L9.79738 39.3866H9.78659Z" fill="black"/>
<path d="M16.7553 19.8543L11.7854 28.0978L10.543 35.2608L15.999 36.352L20.3854 36.2872C20.4718 34.699 20.6339 31.2849 20.6339 31.2849L22.9675 36.3196L28.9962 35.6173L32.1077 33.6834L28.0562 23.7654L27.1055 19.4654C27.1055 19.4654 22.2437 19.4654 20.3206 19.3033C19.0349 19.1953 16.7877 18.7739 16.7877 18.7739L16.7336 19.8543H16.7553Z" fill="#464356"/>
<path d="M13.7941 1.04443L11.3957 1.16328L10.6826 6.6517L13.5565 6.52205L13.7941 1.05524V1.04443Z" fill="#FDC9A6"/>
<path d="M21.4111 7.95947L19.931 11.7301L17.6514 8.0459L21.4111 7.95947Z" fill="#FDC9A6"/>
<path d="M10.6826 7.20216C10.4989 7.20216 10.3261 7.10492 10.218 6.95367C10.1424 6.83482 10.11 6.68357 10.1424 6.55392L10.8554 1.09791C10.8879 0.827815 11.1148 0.633343 11.3741 0.622539L13.7725 0.503696C13.9238 0.482088 14.075 0.557715 14.1939 0.665755C14.3019 0.773794 14.3667 0.92505 14.3559 1.07631L14.1183 6.54312C14.1074 6.82402 13.8806 7.06171 13.5889 7.07251L10.7042 7.20216H10.6826ZM11.8926 1.69213L11.32 6.06774L13.0379 5.99211L13.2215 1.62731L11.8926 1.69213Z" fill="black"/>
<path d="M8.77154 14.9381L8.98762 17.3257L14.4328 18.1252L14.2383 14.9272H8.76074L8.77154 14.9381Z" fill="#FDC9A6"/>
<path d="M14.4434 18.6759C14.4434 18.6759 14.3678 18.6759 14.3354 18.6759L8.91181 17.8764C8.66332 17.844 8.46885 17.6387 8.43644 17.3794L8.22036 14.9917C8.20956 14.8405 8.25276 14.6784 8.3608 14.5704C8.46884 14.4515 8.6093 14.3867 8.77136 14.3867H14.249C14.5407 14.3867 14.7784 14.6136 14.8 14.9053L14.9944 18.1033C15.0052 18.2978 14.908 18.4922 14.746 18.6003C14.6595 18.6651 14.5515 18.6867 14.4434 18.6867V18.6759ZM9.50602 16.8392L13.8492 17.4767L13.7304 15.4779H9.37638L9.50602 16.8392Z" fill="black"/>
<path d="M19.9429 12.2904C19.7484 12.2904 19.5756 12.1931 19.4675 12.0311L17.1879 8.34693C17.0799 8.17407 17.0799 7.9688 17.1771 7.79593C17.2743 7.62307 17.4472 7.51503 17.6525 7.50422L21.4123 7.41779C21.5959 7.39618 21.7688 7.50423 21.8768 7.65548C21.9849 7.80674 22.0065 8.00121 21.9417 8.17407L20.4615 11.9447C20.3859 12.1391 20.2022 12.2796 19.9969 12.2904C19.9753 12.2904 19.9645 12.2904 19.9429 12.2904ZM18.6356 8.58462L19.8241 10.5077L20.5912 8.54141L18.6248 8.58462H18.6356Z" fill="black"/>
<path d="M19.251 2.44775C17.9221 2.44775 16.8525 3.51735 16.8525 4.84624H21.6495C21.6495 3.51735 20.5799 2.44775 19.251 2.44775Z" fill="#464356"/>
<path d="M16.8525 6.44567C16.8525 7.77456 17.9221 8.84415 19.251 8.84415C20.5799 8.84415 21.6495 7.77456 21.6495 6.44567V4.84668H16.8525V6.44567Z" fill="#FDC9A6"/>
<path d="M21.6595 5.39746H16.8625C16.56 5.39746 16.3115 5.14897 16.3115 4.84646C16.3115 3.21506 17.6404 1.89697 19.261 1.89697C20.8816 1.89697 22.2105 3.22586 22.2105 4.84646C22.2105 5.14897 21.962 5.39746 21.6595 5.39746ZM17.5 4.29545H21.0221C20.7844 3.54998 20.0821 2.99898 19.261 2.99898C18.4399 2.99898 17.7377 3.53918 17.5 4.29545Z" fill="black"/>
<path d="M19.2512 9.39586C17.6198 9.39586 16.3018 8.06697 16.3018 6.44638V4.84739C16.3018 4.54488 16.5502 4.29639 16.8528 4.29639H21.6497C21.9522 4.29639 22.2007 4.54488 22.2007 4.84739V6.44638C22.2007 8.07778 20.8718 9.39586 19.2512 9.39586ZM17.4038 5.39839V6.44638C17.4038 7.46195 18.2357 8.29385 19.2512 8.29385C20.2668 8.29385 21.0987 7.46195 21.0987 6.44638V5.39839H17.4038Z" fill="black"/>
<path d="M18.1814 23.6123L19.964 25.1033L20.6447 31.2831L20.3962 36.2962L15.999 36.3502L15.8369 29.8894L18.1814 23.6123Z" fill="#2D283D"/>
<path d="M15.9994 36.9031C15.9994 36.9031 15.9237 36.9031 15.8913 36.9031L10.4353 35.8119C10.1436 35.7579 9.94913 35.4662 10.0032 35.1745L11.2456 28.0114C11.2564 27.9466 11.278 27.8818 11.3212 27.817L16.2154 19.6924L16.2586 18.7416C16.2586 18.5796 16.3451 18.4283 16.4639 18.3311C16.5936 18.2338 16.7556 18.1906 16.9069 18.223C16.9285 18.223 19.1433 18.6444 20.375 18.7524C22.2549 18.9037 27.0734 18.9145 27.1166 18.9145C27.3759 18.9145 27.6028 19.0982 27.6568 19.3467L28.6076 23.6358L32.6267 33.4674C32.7239 33.7159 32.6267 34.0076 32.4106 34.1481L29.299 36.082C29.2342 36.1252 29.1478 36.1468 29.0722 36.1576L23.0435 36.8599C22.8059 36.8923 22.579 36.7627 22.4817 36.5466L21.088 33.5431C21.0448 34.5154 20.98 35.6066 20.9476 36.3197C20.9368 36.6114 20.6991 36.8383 20.4074 36.8491L16.021 36.9139L15.9994 36.9031ZM11.1808 34.8179L16.0534 35.7903L19.8672 35.7363C19.9536 34.0293 20.0941 31.2526 20.0941 31.2526C20.1049 30.9933 20.2885 30.7881 20.537 30.734C20.7855 30.68 21.034 30.8097 21.142 31.0474L23.3136 35.7147L28.8237 35.0664L31.4382 33.4458L27.5596 23.96L26.6737 20.0057C25.4204 20.0057 21.8875 19.9733 20.2777 19.8436C19.3918 19.768 18.0845 19.5519 17.3174 19.4115L17.2958 19.8652C17.2958 19.9517 17.2634 20.0489 17.2202 20.1245L12.3044 28.2815L11.17 34.8071L11.1808 34.8179Z" fill="black"/>
<path d="M26.7065 21.3213C26.7065 21.3213 21.8447 21.3213 19.9216 21.1593C18.6359 21.0512 16.3887 20.6299 16.3887 20.6299" fill="#464356"/>
<path d="M26.7059 21.8733C26.5114 21.8733 21.8009 21.8733 19.867 21.7112C18.5705 21.6032 16.3773 21.1818 16.2801 21.171C15.9776 21.117 15.7831 20.8253 15.8371 20.5228C15.8911 20.2202 16.1829 20.0258 16.4854 20.0798C16.507 20.0798 18.711 20.5012 19.9534 20.6092C21.8333 20.7604 26.6519 20.7713 26.6951 20.7713C26.9976 20.7713 27.2461 21.0197 27.2461 21.3223C27.2461 21.6248 26.9976 21.8733 26.6951 21.8733H26.7059Z" fill="black"/>
<path d="M25.4199 21.4513C25.4415 21.5161 27.6347 26.3239 27.6347 26.3239L28.0777 23.7634L27.6563 21.2568L25.4199 21.4513Z" fill="#C8BEB9"/>
<path d="M27.6345 26.8748C27.4184 26.8748 27.2239 26.7452 27.1267 26.5507C24.9227 21.7213 24.9011 21.6565 24.8903 21.6241C24.8362 21.462 24.8579 21.2892 24.9551 21.1487C25.0523 21.0082 25.2036 20.911 25.3656 20.9002L27.6021 20.7057C27.883 20.6841 28.1531 20.8786 28.1963 21.1703L28.6176 23.6768C28.6176 23.7417 28.6176 23.7957 28.6176 23.8605L28.1747 26.4318C28.1315 26.6695 27.937 26.8532 27.6993 26.8856C27.6777 26.8856 27.6561 26.8856 27.6237 26.8856L27.6345 26.8748ZM26.2408 21.9374C26.5217 22.5532 26.9538 23.504 27.386 24.4655L27.5048 23.7633L27.1915 21.8618L26.2408 21.9482V21.9374Z" fill="black"/>
<path d="M20.6448 31.835C20.3639 31.835 20.1262 31.6297 20.0938 31.338L19.4348 25.3742L17.825 24.0237C17.5873 23.8292 17.5657 23.4835 17.7602 23.2458C17.9546 23.0189 18.3004 22.9757 18.5381 23.181L20.3207 24.6719C20.4288 24.7584 20.5044 24.8988 20.5152 25.0393L21.1958 31.2191C21.2283 31.5217 21.0122 31.7918 20.7097 31.8242C20.6881 31.8242 20.6665 31.8242 20.6448 31.8242V31.835Z" fill="black"/>
<path d="M21.0762 9.01904L17.4461 14.7019L14.2373 14.9288L14.7127 19.3909L20.6981 18.6454L24.5119 15.0044" fill="#F9F9F9"/>
<path d="M14.7126 19.9517C14.5937 19.9517 14.4641 19.9084 14.3668 19.8328C14.248 19.7356 14.1724 19.6059 14.1616 19.4547L13.6862 14.9818C13.6754 14.8306 13.7186 14.6793 13.8158 14.5713C13.9131 14.4524 14.0535 14.3876 14.2048 14.3768L17.1327 14.1607L20.6115 8.71553C20.7736 8.45623 21.1193 8.38061 21.3786 8.54267C21.6379 8.70473 21.7135 9.05045 21.5515 9.30975L17.9213 14.9926C17.8241 15.1439 17.6729 15.2303 17.5 15.2411L14.8638 15.4356L15.2204 18.774L20.4711 18.115L24.1444 14.6037C24.3605 14.3876 24.717 14.3984 24.9223 14.6253C25.1276 14.8414 25.1276 15.1979 24.9007 15.4032L21.0977 19.0441C21.0113 19.1306 20.9032 19.1738 20.7844 19.1954L14.799 19.9517C14.799 19.9517 14.7558 19.9517 14.7342 19.9517H14.7126Z" fill="black"/>
</g>
<defs>
<clipPath id="clip0_225_10359">
<rect width="40" height="40" fill="white" transform="translate(0 0.5)"/>
</clipPath>
</defs>
</svg>
