<svg width="40" height="40" viewBox="0 0 40 40" fill="none" xmlns="http://www.w3.org/2000/svg">
<path d="M38.5969 14.0896C38.0164 14.6703 37.0665 14.6703 36.4859 14.0896L26.4061 4.00622C25.8256 3.4255 25.8256 2.47524 26.4061 1.89452C26.9866 1.31381 27.9365 1.31381 28.5171 1.89452L38.5969 11.9779C39.1774 12.5586 39.1774 13.5089 38.5969 14.0896Z" fill="#F48A3B"/>
<path d="M6.97372 37.7507C6.39321 38.3314 5.44327 38.3314 4.86276 37.7507L2.75179 35.639C2.17128 35.0583 2.17128 34.1081 2.75179 33.5273C3.33231 32.9466 4.28224 32.9466 4.86276 33.5273L6.97372 35.639C7.55424 36.2198 7.55424 37.17 6.97372 37.7507Z" fill="#F48A3B"/>
<path d="M28.6429 25.0607C28.6429 26.6867 28.0201 28.3127 26.7852 29.548L20.0301 36.3055C17.5497 38.7867 13.5283 38.7867 11.048 36.3055C10.1719 35.4291 9.6125 34.3627 9.34863 33.2435L12.9162 29.6959C12.4201 30.3083 12.1668 31.0579 12.1668 31.8181C12.1668 32.6839 12.494 33.5392 13.1484 34.1938C14.4572 35.503 16.5892 35.503 17.898 34.1938L24.6531 27.4363C25.3075 26.7817 25.6347 25.9159 25.6347 25.0607C25.6347 24.2055 25.3075 23.3397 24.6531 22.685C23.4921 21.5236 21.6872 21.3863 20.3784 22.2838L23.7982 18.8945C24.8853 19.1585 25.9197 19.7181 26.7746 20.5733C28.0096 21.8087 28.6323 23.4347 28.6323 25.0607H28.6429Z" fill="#FFC233"/>
<path d="M20.4006 22.2939L12.9277 29.7166C13.0016 29.6215 13.0755 29.5371 13.1599 29.4526L19.915 22.6952C20.0628 22.5473 20.2211 22.4101 20.39 22.2939H20.4006Z" fill="#F1CB6F"/>
<path d="M13.3703 29.2312L6.9635 35.6403L4.85254 33.5286L11.2593 27.1196L17.5922 20.7845L20.5264 17.8492C22.7852 15.5897 24.3684 12.7494 25.0967 9.63469L26.416 4.01758L36.4537 14.0587L30.8385 15.3785C27.7248 16.107 24.8856 17.6908 22.6269 19.9503L19.6926 22.8856L13.3597 29.2207L13.3703 29.2312Z" fill="#FFC233"/>
<path d="M10.2031 26.0629L12.3141 23.9512L20.2302 31.87L18.1192 33.9817L10.2031 26.0629Z" fill="#FFC233"/>
<path d="M14.4258 21.8402L16.5367 19.7285L24.4529 27.6474L22.3419 29.7591L14.4258 21.8402Z" fill="#FFC233"/>
<path d="M38.7446 11.7463L28.6648 1.66299C28.2637 1.26177 27.7254 1.04004 27.1554 1.04004C26.5855 1.04004 26.0472 1.26177 25.6461 1.66299C24.9178 2.39153 24.8123 3.53184 25.3928 4.37652L25.4245 4.41876V4.46099L24.179 9.70856C23.4718 12.7072 21.9519 15.4418 19.7776 17.6169L17.2972 20.0981L16.6956 19.4963C16.4423 19.2429 16.0412 19.2429 15.7879 19.4963L15.1863 20.0981L13.983 18.8944L14.5846 18.2926C14.838 18.0392 14.838 17.638 14.5846 17.3846C14.3419 17.1417 13.9197 17.1417 13.6769 17.3846L11.566 19.4963C11.4499 19.6124 11.376 19.7814 11.376 19.9503C11.376 20.1192 11.4393 20.2776 11.566 20.4043C11.8087 20.6472 12.2309 20.6472 12.4737 20.4043L13.0753 19.8025L14.2786 21.0061L13.6769 21.608C13.5608 21.7241 13.4869 21.8931 13.4869 22.062C13.4869 22.2309 13.5503 22.3893 13.6769 22.516L14.2786 23.1178L13.0753 24.3215L12.4737 23.7197C12.2204 23.4663 11.8193 23.4663 11.566 23.7197L10.9643 24.3215L9.7611 23.1178L10.3627 22.516C10.616 22.2626 10.616 21.8614 10.3627 21.608C10.1094 21.3546 9.70832 21.3546 9.455 21.608L7.34404 23.7197C7.09072 23.9731 7.09072 24.3743 7.34404 24.6277C7.5868 24.8705 8.00899 24.8705 8.25176 24.6277L8.85338 24.0259L10.0566 25.2295L9.455 25.8314C9.20169 26.0848 9.20169 26.486 9.455 26.7394L10.0566 27.3412L9.98275 27.4151L4.49424 32.9056L4.43091 32.8739C4.13537 32.7366 3.82929 32.6627 3.51264 32.6627C2.95324 32.6627 2.41494 32.8739 2.0033 33.2857C1.16947 34.1198 1.16947 35.4713 2.0033 36.3054L4.11427 38.4171C4.51535 38.8183 5.05365 39.04 5.62361 39.04C6.19357 39.04 6.73186 38.8183 7.13295 38.4171C7.76624 37.7836 7.93511 36.8016 7.54458 35.9886L7.51292 35.9253L7.56569 35.8725L8.76894 34.6688L8.83227 34.8166C9.18058 35.6297 9.67665 36.3582 10.3099 36.9917C11.6293 38.3115 13.3814 39.04 15.2496 39.04C17.1178 39.04 18.8699 38.3115 20.1893 36.9917L23.5457 33.6341C23.799 33.3807 23.799 32.9795 23.5457 32.7261C23.2924 32.4727 22.8913 32.4727 22.638 32.7261L19.2815 36.0837C17.0545 38.3115 13.4342 38.3115 11.2071 36.0837C10.5527 35.429 10.0566 34.616 9.79276 33.7291L9.77165 33.6658L11.2388 32.1981L11.2599 32.4199C11.3443 33.3596 11.7454 34.2043 12.4104 34.8694C13.1703 35.6297 14.173 36.0414 15.239 36.0414C16.3051 36.0414 17.3183 35.6297 18.0677 34.8694L24.8228 28.112C25.5828 27.3518 25.9944 26.3487 25.9944 25.2823C25.9944 24.2159 25.5828 23.2023 24.8228 22.4527C24.1579 21.7875 23.3135 21.3862 22.3741 21.3018L22.1525 21.2807L22.7857 20.6366C23.0602 20.3621 23.3346 20.0981 23.6196 19.8553L23.6618 19.813L23.7146 19.8342C24.5801 20.1087 25.3822 20.5944 26.0261 21.2384C27.1027 22.3154 27.6937 23.7513 27.6937 25.2718C27.6937 26.7922 27.1027 28.2281 26.0261 29.3051L25.0234 30.3082C24.7701 30.5616 24.7701 30.9628 25.0234 31.2162C25.2661 31.459 25.6883 31.459 25.9311 31.2162L26.9338 30.2131C28.2531 28.8933 28.9814 27.1406 28.9814 25.2718C28.9814 23.4029 28.2531 21.6502 26.9338 20.3304C26.3638 19.7602 25.72 19.3062 25.0023 18.9578L24.8334 18.8839L24.9812 18.7783C26.7121 17.5641 28.6331 16.7088 30.6913 16.2231L35.9898 14.9772L36.0321 15.0089C36.3909 15.2518 36.8025 15.3785 37.2458 15.3785C37.8158 15.3785 38.3541 15.1567 38.7552 14.7555C39.1563 14.3543 39.3779 13.8158 39.3779 13.2457C39.3779 12.6755 39.1563 12.137 38.7552 11.7358L38.7446 11.7463ZM15.1863 24.0259L16.3895 25.2295L15.1863 26.4332L13.983 25.2295L15.1863 24.0259ZM6.22523 37.5196C6.06691 37.678 5.85581 37.773 5.62361 37.773C5.3914 37.773 5.1803 37.6886 5.02198 37.5196L2.91102 35.4079C2.7527 35.2495 2.6577 35.0278 2.6577 34.8061C2.6577 34.5844 2.74214 34.3626 2.91102 34.2043C3.22766 33.8875 3.79762 33.8875 4.11427 34.2043L6.22523 36.316C6.38355 36.4743 6.47855 36.6961 6.47855 36.9178C6.47855 37.1395 6.39411 37.3612 6.22523 37.5196ZM12.1043 29.5268L6.67909 34.9539L5.47584 33.7502L5.54972 33.6763L10.9749 28.2493L12.1782 29.4529L12.1043 29.5268ZM16.8223 34.2676C16.3579 34.5949 15.8196 34.7639 15.2496 34.7639C14.5213 34.7639 13.8353 34.4788 13.3286 33.9614C12.8114 33.444 12.5265 32.7577 12.5265 32.0398C12.5265 31.4696 12.6953 30.9311 13.0225 30.4665L13.0964 30.361L13.1809 30.4454L16.9173 34.1831L16.8117 34.257L16.8223 34.2676ZM17.8461 33.3068L17.7722 33.2329L10.8271 26.2854L12.0304 25.0817L12.1043 25.1556L19.0493 32.1031L17.8461 33.3068ZM19.9571 31.1951L19.8832 31.1212L16.1045 27.3412L17.3078 26.1376L17.3817 26.2115L21.1603 29.9914L19.9571 31.1951ZM22.068 29.0834L21.9941 29.0095L15.0491 22.062L16.2523 20.8583L16.3262 20.9322L23.2713 27.8797L22.068 29.0834ZM23.9362 23.3607C24.4534 23.8781 24.7384 24.5644 24.7384 25.2823C24.7384 25.8525 24.5695 26.391 24.2423 26.8555L24.1684 26.9611L24.084 26.8767L20.3476 23.139L20.4531 23.065C20.9175 22.7377 21.4558 22.5688 22.0258 22.5688C22.7541 22.5688 23.4401 22.8539 23.9468 23.3712L23.9362 23.3607ZM30.4169 14.9878C27.1871 15.748 24.2423 17.3846 21.8991 19.7391L19.4188 22.2204L18.2155 21.0167L20.6959 18.5355C23.0391 16.1915 24.6751 13.2457 25.4456 10.0148L26.501 5.51684L34.9132 13.932L30.4169 14.9878ZM37.858 13.858C37.6997 14.0164 37.4886 14.1114 37.2564 14.1114C37.0242 14.1114 36.8131 14.027 36.6548 13.858L26.5749 3.77469C26.2372 3.43682 26.2372 2.89833 26.5749 2.57102C26.8916 2.25427 27.4615 2.25427 27.7782 2.57102L37.858 12.6544C38.0164 12.8128 38.1113 13.0345 38.1113 13.2562C38.1113 13.4779 38.0269 13.6997 37.858 13.858Z" fill="black"/>
</svg>
