<svg width="40" height="41" viewBox="0 0 40 41" fill="none" xmlns="http://www.w3.org/2000/svg">
<path d="M25.1479 15.299C25.1479 21.5466 20.0862 26.6084 13.8386 26.6084C7.59095 26.6084 2.5293 21.5466 2.5293 15.299C2.5293 9.05132 7.59095 3.98975 13.8386 3.98975C20.0862 3.98975 25.1479 9.05132 25.1479 15.299Z" fill="#F1F1F4"/>
<path d="M22.6274 15.2978C22.6274 10.4479 18.6988 6.51953 13.8489 6.51953C11.9217 6.51953 10.3545 8.08653 10.3545 10.0138C10.3545 11.941 11.9217 13.5083 13.8489 13.5083C15.7762 13.5083 17.3434 11.941 17.3434 10.0138C17.3434 9.91847 17.3434 9.8234 17.3328 9.7281C19.7789 10.6388 21.7909 12.6293 22.638 15.3084" fill="#545454"/>
<path d="M9.45493 22.9028C13.6588 25.3278 19.0276 23.8876 21.4525 19.6837C22.4161 18.0106 21.8443 15.8715 20.1712 14.9079C18.4981 13.9443 16.3591 14.5161 15.3955 16.1892C14.4319 17.8623 15.0037 20.0013 16.6768 20.9649C16.7615 21.0179 16.8462 21.0604 16.9309 21.1027C14.919 22.7652 12.1869 23.5064 9.44434 22.9028" fill="#545454"/>
<path d="M9.45429 7.68457C5.25037 10.1095 3.81023 15.4783 6.23517 19.6822C7.19879 21.3553 9.33781 21.9271 11.0109 20.9635C12.684 19.9999 13.2558 17.8608 12.2922 16.1877C11.3286 14.5147 9.18956 13.9429 7.51646 14.9065C7.43175 14.9594 7.34704 15.0123 7.27291 15.0652C6.83876 12.492 7.55882 9.76006 9.45429 7.68457Z" fill="#545454"/>
<path d="M7.24151 37.9708H4.76363C4.68951 37.9708 4.62598 37.9071 4.62598 37.833V27.6675C4.62598 27.6675 4.65774 27.5933 4.7001 27.5933H7.1568C7.1568 27.5933 7.23092 27.6251 7.23092 27.6675V37.9602L7.24151 37.9708Z" fill="#E4936B"/>
<path d="M20.4365 37.9714H23.0415V27.6787C23.0415 27.6787 23.0097 27.6045 22.9673 27.6045H20.5107C20.5107 27.6045 20.4365 27.6363 20.4365 27.6787V37.9714Z" fill="#E4936B"/>
<path d="M26.6523 22.4463H24.8945C25.0428 22.4463 25.1593 22.5628 25.1593 22.711V30.1553C25.1593 30.3035 25.0428 30.42 24.8945 30.42H26.6523C26.8006 30.42 26.9171 30.3035 26.9171 30.1553V22.711C26.9171 22.5628 26.8006 22.4463 26.6523 22.4463Z" fill="#DD542E"/>
<path d="M37.209 22.4463H35.4512C35.5994 22.4463 35.7159 22.5628 35.7159 22.711V30.1553C35.7159 30.3035 35.5994 30.42 35.4512 30.42H37.209C37.3572 30.42 37.4737 30.3035 37.4737 30.1553V22.711C37.4737 22.5628 37.3572 22.4463 37.209 22.4463Z" fill="#DD542E"/>
<path d="M25.9317 22.4468H26.6518C26.8 22.4468 26.9165 22.5633 26.9165 22.7115V26.3332C29.3203 25.7932 31.4381 24.4802 32.9947 22.6694C33.1112 22.5317 33.2912 22.4468 33.4712 22.4468H34.9326C36.5209 20.4984 37.4846 18.0099 37.4846 15.2991C37.4846 10.1527 34.0537 5.81114 29.352 4.44513C28.9708 4.39219 24.1104 2.63462 17.2168 3.11114C23.4115 3.72531 28.2402 8.95614 28.2402 15.2991C28.2402 17.9676 27.3824 20.4349 25.9423 22.4468" fill="#E28086"/>
<path d="M25.9327 22.4466C27.3834 20.4347 28.2305 17.9674 28.2305 15.2989C28.2305 8.53239 22.7453 3.04736 15.9788 3.04736C13.6915 3.04736 11.5419 3.672 9.70996 4.77328C10.9913 4.27559 12.3784 4.00029 13.8398 4.00029C20.0874 4.00029 25.149 9.06187 25.149 15.3095C25.149 18.0415 24.1854 20.5406 22.5759 22.489C22.5759 22.4784 22.597 22.4678 22.6076 22.4572H25.9327V22.4466Z" fill="#DFDDE2"/>
<path d="M8.99903 37.9721H7.24121V30.4219H9.1261V37.8343C9.1261 37.9085 9.06256 37.9721 8.98843 37.9721" fill="#E27D47"/>
<path d="M20.4357 37.9711H18.5508V30.4209H20.4357V37.9711Z" fill="#E27D47"/>
<path d="M24.7988 37.9721H23.041V30.4219H24.9259V37.8343C24.9259 37.9085 24.8624 37.9721 24.7882 37.9721" fill="#E27D47"/>
<path d="M35.3662 37.9721H33.6084V30.4219H35.4933V37.8343C35.4933 37.9085 35.4297 37.9721 35.3556 37.9721" fill="#E27D47"/>
<path d="M31.6819 36.5309H24.9365V32.7822H31.6819C31.7772 32.7822 31.8513 32.8565 31.8513 32.9518V36.3721C31.8513 36.4674 31.7772 36.5415 31.6819 36.5415" fill="#DD6938"/>
<path d="M16.6233 36.5309H9.13672V32.7822H16.6233C16.7186 32.7822 16.7927 32.8565 16.7927 32.9518V36.3721C16.7927 36.4674 16.7186 36.5415 16.6233 36.5415" fill="#DD6938"/>
<path d="M24.8936 22.4463H22.6063C20.5308 24.9877 17.3752 26.608 13.8384 26.608C10.3016 26.608 7.14605 24.9877 5.07056 22.4463H2.78329C2.63504 22.4463 2.51855 22.5628 2.51855 22.711V30.1553C2.51855 30.3035 2.63504 30.42 2.78329 30.42H4.62582V27.6776C4.62582 27.6776 4.65758 27.6034 4.69994 27.6034H7.15664C7.15664 27.6034 7.23076 27.6352 7.23076 27.6776V30.42H20.4249V27.6776C20.4249 27.6776 20.4567 27.6034 20.4991 27.6034H22.9558C22.9558 27.6034 23.0299 27.6352 23.0299 27.6776V30.42H24.8724C25.0207 30.42 25.1371 30.3035 25.1371 30.1553V22.711C25.1371 22.5628 25.0207 22.4463 24.8724 22.4463" fill="#DD6938"/>
<path d="M15.9453 30.4219V32.7833H16.623C16.7183 32.7833 16.7924 32.8575 16.7924 32.9528V36.3731C16.7924 36.4684 16.7183 36.5425 16.623 36.5425H15.9453V37.8449C15.9453 37.9191 16.0089 37.9827 16.083 37.9827H18.5609V30.4325H15.9559L15.9453 30.4219Z" fill="#E4936B"/>
<path d="M33.5338 27.5933H31.077C31.077 27.5933 31.0029 27.6251 31.0029 27.6675V32.7819H31.6806C31.7759 32.7819 31.8501 32.8562 31.8501 32.9515V36.3718C31.8501 36.4671 31.7759 36.5411 31.6806 36.5411H31.0029V37.8436C31.0029 37.9177 31.0665 37.9814 31.1406 37.9814H33.6185V27.6887C33.6185 27.6887 33.5867 27.6145 33.5443 27.6145" fill="#E4936B"/>
<path d="M35.4509 22.4463H33.4601C33.2801 22.4463 33.1001 22.5206 32.9836 22.6689C31.427 24.4796 29.3091 25.7927 26.9054 26.3327V30.1553C26.9054 30.3035 26.7889 30.42 26.6406 30.42H30.9928V27.6776C30.9928 27.6776 31.0246 27.6034 31.0669 27.6034H33.5236C33.5236 27.6034 33.5978 27.6352 33.5978 27.6776V30.42H35.4509C35.5991 30.42 35.7156 30.3035 35.7156 30.1553V22.711C35.7156 22.5628 35.5991 22.4463 35.4509 22.4463Z" fill="#DD6938"/>
<path d="M13.8388 27.1381C7.31579 27.1381 2 21.8327 2 15.2991C2 8.76558 7.31579 3.46045 13.8388 3.46045C15.1412 3.46045 16.4225 3.67233 17.6509 4.08531C17.9262 4.18061 18.0744 4.47698 17.9791 4.7523C17.8838 5.02762 17.5873 5.17593 17.312 5.08063C16.2001 4.69942 15.0247 4.50877 13.8388 4.50877C7.88761 4.50877 3.05892 9.34823 3.05892 15.2888C3.05892 21.2293 7.8982 26.0685 13.8388 26.0685C19.7793 26.0685 24.6186 21.2293 24.6186 15.2888C24.6186 11.5084 22.6913 8.06674 19.4616 6.08656C19.2181 5.93831 19.1334 5.61011 19.2922 5.36656C19.4404 5.12301 19.7687 5.03838 20.0229 5.18663C23.5702 7.35742 25.6881 11.1378 25.6881 15.2888C25.6881 21.8118 20.3723 27.1275 13.8493 27.1275L13.8388 27.1381Z" fill="black"/>
<path d="M9.45407 8.21514C9.27405 8.21514 9.09403 8.11984 8.99873 7.95041C8.85048 7.69627 8.93519 7.37866 9.18934 7.23041C10.5977 6.41504 12.2073 5.98096 13.8486 5.98096C14.1345 5.98096 14.3781 6.21392 14.3781 6.51042C14.3781 6.80692 14.1451 7.03988 13.8486 7.03988C12.3979 7.03988 10.9683 7.42113 9.7188 8.1412C9.63408 8.19415 9.54937 8.21514 9.45407 8.21514Z" fill="black"/>
<path d="M9.4437 23.4312C9.35899 23.4312 9.26368 23.4099 9.17897 23.357C7.7706 22.5416 6.58461 21.3662 5.76924 19.9473C5.62099 19.6931 5.7057 19.3755 5.95984 19.2273C6.21398 19.079 6.53166 19.1637 6.67991 19.4178C7.39998 20.6673 8.44831 21.7155 9.69784 22.4462C9.95198 22.5944 10.0367 22.9123 9.88844 23.1664C9.79314 23.3359 9.61312 23.4312 9.43311 23.4312H9.4437Z" fill="black"/>
<path d="M13.839 24.6064C13.5531 24.6064 13.3096 24.3735 13.3096 24.077C13.3096 23.7805 13.5425 23.5475 13.839 23.5475C16.7722 23.5475 19.5149 21.9698 20.9868 19.4178C21.135 19.1637 21.4527 19.079 21.7068 19.2273C21.961 19.3755 22.0457 19.6931 21.8974 19.9473C20.2349 22.8169 17.1429 24.6064 13.8284 24.6064H13.839Z" fill="black"/>
<path d="M21.4531 20.2121C21.3684 20.2121 21.2731 20.1909 21.1884 20.1379C20.9342 19.9897 20.8495 19.6721 20.9978 19.4179C21.7178 18.1684 22.099 16.739 22.099 15.2883C22.099 14.9918 22.332 14.7588 22.6285 14.7588C22.925 14.7588 23.158 14.9918 23.158 15.2883C23.158 16.9296 22.7238 18.539 21.9084 19.9474C21.8131 20.1168 21.6331 20.2121 21.4531 20.2121Z" fill="black"/>
<path d="M22.6276 15.8294C22.4052 15.8294 22.1934 15.6813 22.1299 15.4589C21.431 13.2669 19.8955 11.4986 17.8412 10.5138C17.5977 12.494 15.9034 14.0398 13.8491 14.0398C11.636 14.0398 9.8252 12.2396 9.8252 10.0159C9.8252 7.79215 11.6254 5.99219 13.8491 5.99219C18.9849 5.99219 23.157 10.1641 23.157 15.2999C23.157 15.5646 22.9664 15.7873 22.7123 15.819C22.6805 15.819 22.6593 15.819 22.6276 15.819V15.8294ZM13.8491 7.05111C12.2184 7.05111 10.8841 8.38515 10.8841 10.0159C10.8841 11.6466 12.2184 12.9809 13.8491 12.9809C15.4798 12.9809 16.8141 11.6466 16.8141 10.0159C16.8141 9.93117 16.8141 9.85707 16.8035 9.77235C16.7929 9.59234 16.867 9.41238 17.0047 9.30649C17.1529 9.2006 17.3435 9.16876 17.513 9.23229C19.059 9.80411 20.3827 10.7572 21.3992 11.975C20.1179 9.07355 17.2165 7.05111 13.8491 7.05111Z" fill="black"/>
<path d="M13.8274 24.608C12.2179 24.608 10.6189 24.1845 9.18937 23.3586C8.967 23.2315 8.87169 22.9561 8.95641 22.7125C9.05171 22.469 9.30585 22.3315 9.55999 22.3845C11.8049 22.8822 14.1134 22.4266 15.9877 21.1453C14.3993 19.9382 13.9122 17.7039 14.9287 15.9249C15.4688 14.9931 16.3371 14.3259 17.3748 14.0506C18.4126 13.7753 19.4927 13.9131 20.4245 14.4531C21.3564 14.9932 22.0235 15.8613 22.2988 16.8991C22.5742 17.9368 22.4365 19.017 21.8964 19.9489C20.6575 22.0985 18.6455 23.6446 16.2418 24.2906C15.437 24.5024 14.6216 24.608 13.8169 24.608H13.8274ZM12.9274 23.5067C13.9333 23.6232 14.9711 23.5385 15.9771 23.2738C18.1055 22.702 19.8845 21.3361 20.9858 19.43C21.3776 18.7417 21.4835 17.9474 21.2823 17.1744C21.0811 16.412 20.5834 15.7661 19.8951 15.3743C19.2068 14.9719 18.4126 14.8765 17.6396 15.0777C16.8771 15.2789 16.2312 15.7767 15.8394 16.465C15.024 17.8839 15.5111 19.6948 16.9301 20.5207C17.0042 20.5631 17.0783 20.6053 17.1525 20.6371C17.3113 20.7112 17.4278 20.8702 17.449 21.0502C17.4701 21.2302 17.396 21.4102 17.2584 21.5267C15.9876 22.575 14.4946 23.2526 12.9168 23.5279L12.9274 23.5067Z" fill="black"/>
<path d="M9.26386 21.9594C7.87668 21.9594 6.52125 21.2395 5.78001 19.9476C4.54107 17.798 4.20222 15.2884 4.84816 12.8847C5.4941 10.4809 7.02954 8.47944 9.18974 7.22991C9.41211 7.10284 9.69802 7.15565 9.86745 7.35685C10.0263 7.55804 10.0263 7.8547 9.84627 8.0453C8.28965 9.73958 7.52723 11.9634 7.70725 14.2295C8.53321 13.8801 9.43329 13.8163 10.3122 14.0493C11.3499 14.3246 12.2183 14.9918 12.7583 15.9236C13.8702 17.8403 13.2031 20.3075 11.2864 21.4194C10.651 21.7794 9.96275 21.9594 9.28504 21.9594H9.26386ZM7.18838 10.3961C6.58479 11.2115 6.14004 12.1434 5.86472 13.1494C5.29291 15.2778 5.5894 17.5015 6.69068 19.4181C7.08248 20.1064 7.72842 20.5936 8.49085 20.7948C9.25327 20.996 10.0581 20.89 10.7464 20.4982C12.1653 19.6829 12.6524 17.8614 11.837 16.4425C11.4452 15.7542 10.7993 15.267 10.0369 15.0552C9.27445 14.854 8.46967 14.9494 7.78137 15.3518C7.70725 15.3941 7.64371 15.4366 7.56959 15.479C7.42134 15.5849 7.23073 15.6061 7.0613 15.532C6.89188 15.4578 6.7754 15.3094 6.74363 15.1294C6.46831 13.4987 6.62715 11.868 7.17779 10.3749L7.18838 10.3961Z" fill="black"/>
<path d="M31.184 21.3256C30.9298 21.3256 30.7074 21.1454 30.6651 20.8913C30.6121 20.6054 30.8027 20.3302 31.0886 20.2773L36.4468 19.2923C36.7327 19.2499 37.008 19.4301 37.061 19.716C37.1139 20.0019 36.9233 20.2771 36.6374 20.33L31.2793 21.315C31.2793 21.315 31.2157 21.315 31.184 21.315V21.3256Z" fill="black"/>
<path d="M26.5347 22.0443C26.27 22.0443 26.037 21.8431 26.0159 21.5784C25.9841 21.2925 26.1959 21.0277 26.4818 20.996C27.3819 20.9006 28.0807 20.8053 28.5573 20.7312C28.8432 20.6889 29.1185 20.89 29.1609 21.1759C29.2032 21.4618 29.002 21.7372 28.7161 21.7795C28.229 21.8537 27.5089 21.949 26.5983 22.0443C26.5771 22.0443 26.5559 22.0443 26.5453 22.0443H26.5347Z" fill="black"/>
<path d="M36.5414 11.3193C36.5414 11.3193 36.4779 11.3193 36.4461 11.3193L29.2454 9.98505C29.2454 9.98505 28.1971 9.79433 26.471 9.60373C26.1851 9.57196 25.9733 9.30718 26.0051 9.02127C26.0369 8.73536 26.3016 8.52364 26.5875 8.5554C28.3559 8.74601 29.3937 8.93648 29.436 8.94707L36.6367 10.2813C36.9226 10.3343 37.1132 10.6097 37.0602 10.8956C37.0179 11.1497 36.7955 11.3296 36.5414 11.3296V11.3193Z" fill="black"/>
<path d="M7.2516 38.4898H4.77372C4.41369 38.4898 4.11719 38.1932 4.11719 37.8331V27.6676C4.11719 27.3394 4.39251 27.064 4.72077 27.064H7.17747C7.50574 27.064 7.78106 27.3394 7.78106 27.6676V37.9603C7.78106 38.2568 7.5481 38.4898 7.2516 38.4898ZM5.17611 37.4309H6.73273V28.1123H5.17611V37.4309Z" fill="black"/>
<path d="M23.0416 38.4898H20.4367C20.1508 38.4898 19.9072 38.2568 19.9072 37.9603V27.6676C19.9072 27.3394 20.1826 27.064 20.5108 27.064H22.9675C23.2958 27.064 23.5711 27.3394 23.5711 27.6676V37.9603C23.5711 38.2568 23.3381 38.4898 23.0416 38.4898ZM20.9661 37.4309H22.5228V28.1123H20.9661V37.4309Z" fill="black"/>
<path d="M26.6525 30.9385H24.8947C24.6088 30.9385 24.3652 30.7056 24.3652 30.4091C24.3652 30.2185 24.4711 30.0491 24.63 29.9538V22.9015C24.4711 22.8062 24.3652 22.6366 24.3652 22.446C24.3652 22.1495 24.5982 21.9165 24.8947 21.9165H26.6525C27.0867 21.9165 27.4467 22.2659 27.4467 22.7107V30.155C27.4467 30.5891 27.0973 30.9491 26.6525 30.9491V30.9385ZM25.6889 29.8796H26.3878V22.9651H25.6889V29.8796Z" fill="black"/>
<path d="M25.9316 22.9754H22.6066C22.3207 22.9754 22.0771 22.7425 22.0771 22.446C22.0771 22.1495 22.3101 21.9165 22.6066 21.9165H25.9316C26.2175 21.9165 26.4611 22.1495 26.4611 22.446C26.4611 22.7425 26.2281 22.9754 25.9316 22.9754Z" fill="black"/>
<path d="M25.9323 22.9764C25.8264 22.9764 25.7206 22.9448 25.6253 22.8813C25.3923 22.7118 25.3393 22.3836 25.5088 22.1401C26.9489 20.1387 27.7113 17.7665 27.7113 15.2992C27.7113 8.8292 22.4485 3.57713 15.9891 3.57713C13.8712 3.57713 11.8063 4.14901 9.99556 5.22911C9.74142 5.37736 9.42374 5.29247 9.27549 5.04892C9.12724 4.79478 9.21196 4.47717 9.45551 4.32892C11.4251 3.15352 13.6912 2.52881 15.9891 2.52881C23.0415 2.52881 28.7703 8.26798 28.7703 15.3098C28.7703 18.0101 27.9443 20.5833 26.3665 22.7647C26.2606 22.9023 26.1018 22.987 25.9429 22.987L25.9323 22.9764Z" fill="black"/>
<path d="M8.99919 38.4905H7.24138C6.95547 38.4905 6.71191 38.2576 6.71191 37.9611C6.71191 37.6646 6.94488 37.4316 7.24138 37.4316H8.60739V30.4108C8.60739 30.1143 8.84035 29.8813 9.13685 29.8813C9.43335 29.8813 9.66631 30.1143 9.66631 30.4108V37.8233C9.66631 38.1833 9.36982 38.4799 9.00978 38.4799L8.99919 38.4905Z" fill="black"/>
<path d="M24.798 38.4905H23.0402C22.7543 38.4905 22.5107 38.2576 22.5107 37.9611C22.5107 37.6646 22.7437 37.4316 23.0402 37.4316H24.4062V30.9403H23.0402C22.7543 30.9403 22.5107 30.7073 22.5107 30.4108C22.5107 30.1143 22.7437 29.8813 23.0402 29.8813H24.9251C25.211 29.8813 25.4545 30.1143 25.4545 30.4108V37.8233C25.4545 38.1833 25.1581 38.4799 24.798 38.4799V38.4905Z" fill="black"/>
<path d="M16.6235 37.06H12.5466C12.2607 37.06 12.0172 36.827 12.0172 36.5305C12.0172 36.234 12.2501 36.0011 12.5466 36.0011H16.2634V33.3008H9.66634V36.0011H10.0899C10.3758 36.0011 10.6194 36.234 10.6194 36.5305C10.6194 36.827 10.3864 37.06 10.0899 37.06H9.13688C8.85097 37.06 8.60742 36.827 8.60742 36.5305V32.7819C8.60742 32.4854 8.84038 32.2524 9.13688 32.2524H16.6235C17.0047 32.2524 17.3223 32.5597 17.3223 32.9515V36.3718C17.3223 36.753 17.0153 37.0706 16.6235 37.0706V37.06Z" fill="black"/>
<path d="M15.9465 33.3124C15.6605 33.3124 15.417 33.0794 15.417 32.7829V30.4216C15.417 30.1251 15.65 29.8921 15.9465 29.8921C16.243 29.8921 16.4759 30.1251 16.4759 30.4216V32.7829C16.4759 33.0794 16.243 33.3124 15.9465 33.3124Z" fill="black"/>
<path d="M18.5506 38.4907H16.0833C15.7233 38.4907 15.4268 38.194 15.4268 37.834V36.5316C15.4268 36.2351 15.6597 36.0021 15.9562 36.0021C16.2527 36.0021 16.4857 36.2351 16.4857 36.5316V37.4423H18.0423V30.4216C18.0423 30.1251 18.2753 29.8921 18.5718 29.8921C18.8683 29.8921 19.1012 30.1251 19.1012 30.4216V37.9718C19.1012 38.2683 18.8683 38.5013 18.5718 38.5013L18.5506 38.4907Z" fill="black"/>
<path d="M33.6092 38.4898H31.1419C30.7818 38.4898 30.4854 38.1932 30.4854 37.8331V36.5307C30.4854 36.2342 30.7183 36.0012 31.0148 36.0012C31.3113 36.0012 31.5443 36.2342 31.5443 36.5307V37.4415H33.0903V28.1229H31.5443V32.782C31.5443 33.0785 31.3113 33.3115 31.0148 33.3115C30.7183 33.3115 30.4854 33.0785 30.4854 32.782V27.6676C30.4854 27.3394 30.7607 27.064 31.0889 27.064H33.5456C33.8739 27.064 34.1492 27.3394 34.1492 27.6676V37.9603C34.1492 38.2568 33.9163 38.4898 33.6198 38.4898H33.6092Z" fill="black"/>
<path d="M35.4512 30.9381H33.598C33.3121 30.9381 33.0686 30.7052 33.0686 30.4087C33.0686 30.1122 33.3015 29.8792 33.598 29.8792H35.1864V22.9647H33.4604C31.7343 24.9131 29.4682 26.279 27.0221 26.8296C26.7362 26.8932 26.4503 26.713 26.3868 26.4271C26.3232 26.1412 26.5032 25.8661 26.7892 25.8025C29.0235 25.2942 31.0778 24.0552 32.5815 22.308C32.8038 22.0539 33.1215 21.9058 33.4604 21.9058H35.4512C35.8853 21.9058 36.2453 22.2552 36.2453 22.7V30.1439C36.2453 30.5781 35.8959 30.9381 35.4512 30.9381Z" fill="black"/>
<path d="M31.0047 30.9403H26.6525C26.3666 30.9403 26.123 30.7073 26.123 30.4108C26.123 30.1143 26.356 29.8813 26.6525 29.8813H31.0047C31.2906 29.8813 31.5341 30.1143 31.5341 30.4108C31.5341 30.7073 31.3012 30.9403 31.0047 30.9403Z" fill="black"/>
<path d="M20.4355 30.9403H7.24138C6.95547 30.9403 6.71191 30.7073 6.71191 30.4108C6.71191 30.1143 6.94488 29.8813 7.24138 29.8813H20.4355C20.7215 29.8813 20.965 30.1143 20.965 30.4108C20.965 30.7073 20.732 30.9403 20.4355 30.9403Z" fill="black"/>
<path d="M4.63671 30.9381H2.79419C2.36003 30.9381 2 30.5887 2 30.1439V22.7C2 22.2658 2.34944 21.9058 2.79419 21.9058H5.08146C5.36737 21.9058 5.61092 22.1387 5.61092 22.4352C5.61092 22.7317 5.37796 22.9647 5.08146 22.9647H3.05892V29.8792H4.63671C4.92262 29.8792 5.16618 30.1122 5.16618 30.4087C5.16618 30.7052 4.93321 30.9381 4.63671 30.9381Z" fill="black"/>
<path d="M34.9226 22.976C34.8061 22.976 34.6896 22.9338 34.5943 22.8597C34.3719 22.6797 34.3401 22.3409 34.5202 22.1185C36.0874 20.2018 36.9451 17.7767 36.9451 15.2988C36.9451 10.5337 33.7577 6.27705 29.1938 4.94281C29.215 4.94281 29.0561 4.91095 28.8338 4.84741C25.0746 3.76731 21.1777 3.35443 17.2491 3.62975C16.9632 3.65093 16.7091 3.42834 16.6879 3.14243C16.6667 2.85652 16.8891 2.60261 17.175 2.58143C21.2201 2.30611 25.2334 2.72962 29.1197 3.84149C29.2679 3.88384 29.3738 3.91544 29.4268 3.92603C34.499 5.40852 38.004 10.0784 38.004 15.3094C38.004 18.0309 37.0616 20.6888 35.3355 22.7961C35.2296 22.9232 35.0814 22.9866 34.9226 22.9866V22.976Z" fill="black"/>
<path d="M20.4358 38.4891H18.5509C18.265 38.4891 18.0215 38.2561 18.0215 37.9596C18.0215 37.6631 18.2544 37.4302 18.5509 37.4302H20.4358C20.7217 37.4302 20.9653 37.6631 20.9653 37.9596C20.9653 38.2561 20.7323 38.4891 20.4358 38.4891Z" fill="black"/>
<path d="M31.6811 37.0594H24.9357C24.6498 37.0594 24.4062 36.8264 24.4062 36.5299C24.4062 36.2334 24.6392 36.0004 24.9357 36.0004H31.321V33.3001H24.9357C24.6498 33.3001 24.4062 33.0672 24.4062 32.7707C24.4062 32.4742 24.6392 32.2412 24.9357 32.2412H31.6811C32.0623 32.2412 32.3799 32.5485 32.3799 32.9403V36.3606C32.3799 36.7418 32.0729 37.0594 31.6811 37.0594Z" fill="black"/>
<path d="M37.2091 30.9381H35.4513C35.1654 30.9381 34.9219 30.7052 34.9219 30.4087C34.9219 30.1122 35.1548 29.8792 35.4513 29.8792H36.9444V22.9647H35.4513C35.1654 22.9647 34.9219 22.7317 34.9219 22.4352C34.9219 22.1387 35.1548 21.9058 35.4513 21.9058H37.2091C37.6433 21.9058 38.0033 22.2552 38.0033 22.7V30.1439C38.0033 30.5781 37.6539 30.9381 37.2091 30.9381Z" fill="black"/>
<path d="M35.3566 38.4905H33.5988C33.3129 38.4905 33.0693 38.2576 33.0693 37.9611C33.0693 37.6646 33.3023 37.4316 33.5988 37.4316H34.9648V30.4108C34.9648 30.1143 35.1978 29.8813 35.4943 29.8813C35.7908 29.8813 36.0237 30.1143 36.0237 30.4108V37.8233C36.0237 38.1833 35.7272 38.4799 35.3672 38.4799L35.3566 38.4905Z" fill="black"/>
</svg>
