<svg width="40" height="40" viewBox="0 0 40 40" fill="none" xmlns="http://www.w3.org/2000/svg">
<g clip-path="url(#clip0_225_10332)">
<path d="M35.233 34.3387H3.32298C2.96399 34.3387 2.6748 34.0496 2.6748 33.6908C2.6748 33.332 2.96399 33.043 3.32298 33.043H35.233C35.592 33.043 35.8811 33.332 35.8811 33.6908C35.8811 34.0496 35.592 34.3387 35.233 34.3387Z" fill="black"/>
<path d="M20.0053 39.5814C19.6465 39.5814 19.3574 39.2924 19.3574 38.9335V1.05895C19.3574 0.700139 19.6465 0.411133 20.0053 0.411133C20.3641 0.411133 20.6531 0.700139 20.6531 1.05895V38.9335C20.6531 39.2924 20.3641 39.5814 20.0053 39.5814Z" fill="black"/>
<path d="M33.6977 36.5905C33.3389 36.5905 33.0498 36.3014 33.0498 35.9426V4.04821C33.0498 3.6894 33.3389 3.40039 33.6977 3.40039C34.0565 3.40039 34.3455 3.6894 34.3455 4.04821V35.9426C34.3455 36.3014 34.0565 36.5905 33.6977 36.5905Z" fill="black"/>
<path d="M6.30508 36.5905C5.94627 36.5905 5.65723 36.3014 5.65723 35.9426V4.04821C5.65723 3.6894 5.94627 3.40039 6.30508 3.40039C6.66389 3.40039 6.95294 3.6894 6.95294 4.04821V35.9426C6.95294 36.3014 6.66389 36.5905 6.30508 36.5905Z" fill="black"/>
<path d="M35.9605 6.95006H4.05052C3.69153 6.95006 3.40234 6.66099 3.40234 6.30218C3.40234 5.94336 3.69153 5.6543 4.05052 5.6543H35.9605C36.3195 5.6543 36.6087 5.94336 36.6087 6.30218C36.6087 6.66099 36.3195 6.95006 35.9605 6.95006Z" fill="black"/>
<path d="M38.9524 20.6434H1.05931C0.700319 20.6434 0.411133 20.3543 0.411133 19.9955C0.411133 19.6367 0.700319 19.3477 1.05931 19.3477H38.9524C39.3114 19.3477 39.6006 19.6367 39.6006 19.9955C39.6006 20.3543 39.3114 20.6434 38.9524 20.6434Z" fill="black"/>
<path d="M32.9693 20.6434H1.05931C0.700319 20.6434 0.411133 20.3543 0.411133 19.9955C0.411133 19.6367 0.700319 19.3477 1.05931 19.3477H32.9693C33.3283 19.3477 33.6175 19.6367 33.6175 19.9955C33.6175 20.3543 33.3283 20.6434 32.9693 20.6434Z" fill="black"/>
<path d="M6.30465 11.9631C9.43281 11.9631 11.9687 9.4285 11.9687 6.30187C11.9687 3.17525 9.43281 0.640625 6.30465 0.640625C3.1765 0.640625 0.640625 3.17525 0.640625 6.30187C0.640625 9.4285 3.1765 11.9631 6.30465 11.9631Z" fill="#F2F2F2"/>
<path d="M5.94568 2.2248C6.27475 2.55371 5.70636 3.65011 4.67925 4.67671C3.65215 5.70331 2.55525 6.27145 2.22617 5.94253C1.8971 5.61362 2.19626 4.2481 3.22336 3.2215C4.25046 2.1949 5.62658 1.90586 5.94568 2.2248Z" fill="white"/>
<path d="M10.3028 10.308C12.3171 8.29468 12.4867 5.15506 10.8413 2.94238C10.9809 5.00555 10.2729 7.11852 8.69734 8.70328C7.11181 10.288 5.00774 10.9857 2.93359 10.8462C5.14735 12.4908 8.28849 12.3114 10.3028 10.308Z" fill="#E5E5E5"/>
<path d="M6.30472 12.6107C4.68928 12.6107 3.07383 11.9927 1.84729 10.7668C-0.615763 8.30495 -0.615763 4.30823 1.84729 1.84639C4.31034 -0.615463 8.30907 -0.615463 10.7721 1.84639C13.2352 4.30823 13.2352 8.30495 10.7721 10.7668C9.54558 11.9927 7.93014 12.6107 6.30472 12.6107ZM6.30472 1.29815C5.01835 1.29815 3.73198 1.78657 2.75473 2.76333C0.800247 4.71686 0.800247 7.89632 2.75473 9.84985C4.70922 11.8034 7.89025 11.8034 9.84474 9.84985C11.7992 7.89632 11.7992 4.71686 9.84474 2.76333C8.8675 1.78657 7.58112 1.29815 6.30472 1.29815Z" fill="black"/>
<path d="M33.6963 25.6565C36.8244 25.6565 39.3603 23.1219 39.3603 19.9952C39.3603 16.8686 36.8244 14.334 33.6963 14.334C30.5681 14.334 28.0322 16.8686 28.0322 19.9952C28.0322 23.1219 30.5681 25.6565 33.6963 25.6565Z" fill="#F2F2F2"/>
<path d="M33.348 15.9191C33.6771 16.2481 33.1087 17.3444 32.0816 18.371C31.0545 19.3976 29.9576 19.9657 29.6285 19.6368C29.2994 19.3079 29.5986 17.9424 30.6257 16.9158C31.6528 15.8892 33.0289 15.6002 33.348 15.9191Z" fill="white"/>
<path d="M37.7052 24.0023C39.7195 21.989 39.889 18.8494 38.2436 16.6367C38.3832 18.6999 37.6752 20.8129 36.0997 22.3977C34.5142 23.9824 32.4101 24.6801 30.3359 24.5405C32.5497 26.1851 35.6908 26.0057 37.7052 24.0023Z" fill="#E5E5E5"/>
<path d="M33.6968 26.3044C32.0115 26.3044 30.426 25.6465 29.2393 24.4604C28.0427 23.2744 27.3945 21.6896 27.3945 20.0052C27.3945 18.3208 28.0527 16.7361 29.2393 15.55C30.426 14.3639 32.0115 13.7061 33.6968 13.7061C35.382 13.7061 36.9675 14.3639 38.1542 15.55C39.3508 16.746 39.999 18.3208 39.999 20.0052C39.999 21.6896 39.3408 23.2744 38.1542 24.4604C36.9576 25.6565 35.382 26.3044 33.6968 26.3044ZM33.6968 14.9819C32.3605 14.9819 31.0941 15.5001 30.1567 16.447C29.2094 17.3938 28.6909 18.6497 28.6909 19.9952C28.6909 21.3408 29.2094 22.5966 30.1567 23.5435C31.1041 24.4903 32.3605 25.0087 33.6968 25.0087C35.033 25.0087 36.2994 24.4903 37.2368 23.5435C38.1841 22.5966 38.7026 21.3408 38.7026 19.9952C38.7026 18.6497 38.1841 17.3938 37.2368 16.447C36.2894 15.5001 35.033 14.9819 33.6968 14.9819Z" fill="black"/>
<path d="M20.2744 25.6565C23.4025 25.6565 25.9384 23.1219 25.9384 19.9952C25.9384 16.8686 23.4025 14.334 20.2744 14.334C17.1462 14.334 14.6104 16.8686 14.6104 19.9952C14.6104 23.1219 17.1462 25.6565 20.2744 25.6565Z" fill="#333333"/>
<path d="M19.9164 15.9191C20.2455 16.2481 19.6771 17.3444 18.65 18.371C17.6229 19.3976 16.5259 19.9657 16.1969 19.6368C15.8678 19.3079 16.167 17.9424 17.1941 16.9158C18.2212 15.8892 19.5973 15.6002 19.9164 15.9191Z" fill="#494949"/>
<path d="M24.2735 24.0023C26.2878 21.989 26.4574 18.8494 24.812 16.6367C24.9516 18.6999 24.2436 20.8129 22.668 22.3977C21.0825 23.9824 18.9784 24.6801 16.9043 24.5405C19.1181 26.1851 22.2592 26.0057 24.2735 24.0023Z" fill="#232323"/>
<path d="M20.2749 26.3044C18.5896 26.3044 17.0041 25.6465 15.8175 24.4604C14.6208 23.2744 13.9727 21.6896 13.9727 20.0052C13.9727 18.3208 14.6308 16.7361 15.8175 15.55C17.0041 14.3639 18.5896 13.7061 20.2749 13.7061C21.9601 13.7061 23.5457 14.3639 24.7323 15.55C25.9289 16.746 26.5771 18.3208 26.5771 20.0052C26.5771 21.6896 25.919 23.2744 24.7323 24.4604C23.5357 25.6565 21.9601 26.3044 20.2749 26.3044ZM20.2749 14.9819C18.9387 14.9819 17.6722 15.5001 16.7349 16.447C15.7875 17.3938 15.269 18.6497 15.269 19.9952C15.269 21.3408 15.7875 22.5966 16.7349 23.5435C17.6822 24.4903 18.9387 25.0087 20.2749 25.0087C21.6111 25.0087 22.8775 24.4903 23.8149 23.5435C24.7622 22.5966 25.2808 21.3408 25.2808 19.9952C25.2808 18.6497 24.7622 17.3938 23.8149 16.447C22.8676 15.5001 21.6111 14.9819 20.2749 14.9819Z" fill="black"/>
<path d="M20.2744 39.3518C23.4025 39.3518 25.9384 36.8172 25.9384 33.6905C25.9384 30.5639 23.4025 28.0293 20.2744 28.0293C17.1462 28.0293 14.6104 30.5639 14.6104 33.6905C14.6104 36.8172 17.1462 39.3518 20.2744 39.3518Z" fill="#333333"/>
<path d="M19.9164 29.6145C20.2455 29.9434 19.6771 31.0397 18.65 32.0663C17.6229 33.0929 16.5259 33.661 16.1969 33.3321C15.8678 33.0032 16.167 31.6378 17.1941 30.6112C18.2212 29.5846 19.5973 29.2955 19.9164 29.6145Z" fill="#494949"/>
<path d="M24.2735 37.6977C26.2878 35.6843 26.4574 32.5447 24.812 30.332C24.9516 32.3952 24.2436 34.5082 22.668 36.093C21.0825 37.6777 18.9784 38.3754 16.9043 38.2359C19.1181 39.8804 22.2592 39.701 24.2735 37.6977Z" fill="#232323"/>
<path d="M20.2749 39.9997C18.5896 39.9997 17.0041 39.3419 15.8175 38.1558C14.6208 36.9697 13.9727 35.3849 13.9727 33.7005C13.9727 32.0161 14.6308 30.4314 15.8175 29.2453C17.0141 28.0493 18.5896 27.4014 20.2749 27.4014C21.9601 27.4014 23.5457 28.0592 24.7323 29.2453C25.9289 30.4314 26.5771 32.0161 26.5771 33.7005C26.5771 35.3849 25.919 36.9697 24.7323 38.1558C23.5357 39.3518 21.9601 39.9997 20.2749 39.9997ZM20.2749 28.6772C18.9387 28.6772 17.6722 29.1954 16.7349 30.1423C15.7875 31.0892 15.269 32.345 15.269 33.6905C15.269 35.0361 15.7875 36.2919 16.7349 37.2388C17.6822 38.1857 18.9387 38.704 20.2749 38.704C21.6111 38.704 22.8775 38.1857 23.8149 37.2388C24.7622 36.2919 25.2808 35.0361 25.2808 33.6905C25.2808 32.345 24.7622 31.0892 23.8149 30.1423C22.8676 29.1954 21.6111 28.6772 20.2749 28.6772Z" fill="black"/>
</g>
<defs>
<clipPath id="clip0_225_10332">
<rect width="40" height="40" fill="white"/>
</clipPath>
</defs>
</svg>
