<svg width="40" height="40" viewBox="0 0 40 40" fill="none" xmlns="http://www.w3.org/2000/svg">
<path d="M33.772 2.18186C33.5257 4.73594 32.2943 8.08158 30.0244 9.58025C27.9899 10.9206 25.2167 10.8573 22.8289 10.2979C22.5077 10.224 22.1865 10.1396 21.876 10.0341C21.876 10.0341 21.9081 9.67521 22.0152 9.09474C22.3257 7.49053 23.2144 4.22934 25.6236 2.63568C26.5444 2.05521 27.5938 1.69639 28.6859 1.6014C30.0779 1.47476 31.4913 1.58029 32.8511 1.92858C33.4293 2.06578 33.772 2.19243 33.772 2.19243V2.18186Z" fill="#60A917"/>
<path d="M33.7715 2.18168C33.5253 4.73576 32.2939 8.0814 30.0239 9.58007C28.4392 10.5088 26.5761 10.8676 24.7559 10.6143C25.848 10.5088 26.8866 10.15 27.8182 9.58007C30.1096 8.06029 31.3195 4.69355 31.5658 2.18168C30.6343 1.88617 29.6706 1.68565 28.6962 1.59066C30.0882 1.46401 31.5016 1.56955 32.8507 1.91783C33.4289 2.05504 33.7715 2.18168 33.7715 2.18168Z" fill="#549414"/>
<path d="M19.1343 10.034C17.496 10.5723 15.7614 10.7728 14.0482 10.625C12.9561 10.5195 11.9067 10.1712 10.9859 9.59076C8.6945 8.07098 7.48455 4.70423 7.23828 2.19237C8.16983 1.89686 9.1335 1.69634 10.1079 1.60135C11.9281 1.34805 13.7912 1.71742 15.3759 2.63562C17.7851 4.22928 18.6738 7.49048 18.9844 9.09469C19.0914 9.67516 19.1236 10.034 19.1236 10.034H19.1343Z" fill="#549414"/>
<path d="M16.9286 10.0342C15.997 10.3297 15.0333 10.5303 14.059 10.6252C12.9668 10.5197 11.9175 10.1714 10.9966 9.59098C8.70524 8.07119 7.49529 4.70445 7.24902 2.19259C8.18057 1.89707 9.14424 1.69655 10.1186 1.60156C11.2108 1.7071 12.2601 2.05537 13.181 2.63584C15.5901 4.2295 16.4789 7.49069 16.7894 9.0949C16.8964 9.67537 16.9286 10.0342 16.9286 10.0342Z" fill="#60A917"/>
<path d="M30.2707 23.3633L28.0649 37.4424C28.0221 37.8012 27.7009 38.0756 27.3368 38.0756H13.6848C13.3101 38.0756 12.9995 37.8012 12.9567 37.4424L10.751 23.3633H30.2707Z" fill="#783E22"/>
<path d="M28.0542 23.3633L25.8485 37.4424C25.8057 37.8012 25.4844 38.0756 25.1204 38.0756H13.6848C13.3101 38.0756 12.9995 37.8012 12.9567 37.4424L10.751 23.3633H28.0542Z" fill="#A0522D"/>
<path d="M32.294 17.6535L31.6194 22.7406C31.5766 23.0994 31.2553 23.3738 30.8913 23.3738H10.1188C9.74406 23.3738 9.43354 23.0994 9.39071 22.7406L8.71614 17.6535C8.68402 17.4424 8.74826 17.2419 8.88746 17.0835C9.02666 16.9252 9.2301 16.8408 9.44425 16.8408H31.5552C31.7693 16.8408 31.9727 16.9358 32.1119 17.0835C32.2511 17.2419 32.3154 17.453 32.2833 17.6535H32.294Z" fill="#D75C2F"/>
<path d="M30.0775 17.6535L29.4029 22.7406C29.3601 23.0994 29.0389 23.3738 28.6748 23.3738H10.1188C9.74406 23.3738 9.43354 23.0994 9.39071 22.7406L8.71614 17.6535C8.68402 17.4424 8.74826 17.2419 8.88746 17.0835C9.02666 16.9252 9.2301 16.8408 9.44425 16.8408H29.3494C29.5636 16.8408 29.767 16.9358 29.9062 17.0835C30.0454 17.2419 30.1096 17.453 30.0775 17.6535Z" fill="#E77132"/>
<path d="M10.5777 10.1821C12.9012 11.7125 16.1456 11.6386 18.8438 10.8787C19.2936 12.008 19.5827 13.19 19.7326 14.3932L19.754 16.0924H9.4427C9.0144 16.0924 8.61823 16.2718 8.33983 16.5885C8.06144 16.9051 7.93295 17.3166 7.98649 17.7388L8.66106 22.8259C8.75742 23.5435 9.36775 24.0818 10.1066 24.0924L12.2266 37.5382C12.323 38.2664 12.944 38.8047 13.6936 38.8047H27.3456C28.0844 38.8047 28.7161 38.2664 28.8125 37.5382L30.9326 24.0924C31.6607 24.0924 32.2817 23.5435 32.3781 22.8259C33.1276 17.1267 33.0526 17.8127 33.0526 17.7388C33.1062 17.3272 32.9777 16.9051 32.6993 16.5885C32.4209 16.2718 32.014 16.0924 31.5857 16.0924H21.2637L21.2959 14.3932C21.4351 13.19 21.7242 12.008 22.1846 10.8787C24.8829 11.6386 28.1272 11.7125 30.4507 10.1821C33.9842 7.8497 34.5089 2.47768 34.5303 2.24549C34.5303 2.20327 34.5303 2.16106 34.5303 2.11885C34.5303 2.00275 34.4874 1.88665 34.4232 1.78111C34.4232 1.77056 34.4018 1.76004 34.3911 1.74948C34.3268 1.66505 34.2412 1.59117 34.1448 1.54895C34.1127 1.52784 34.0806 1.5173 34.0484 1.4962C33.8343 1.42232 28.8018 -0.319101 25.2469 2.0239C22.0561 4.1347 21.3173 8.70461 21.1888 9.74946C20.889 10.1611 20.6641 10.6149 20.5249 11.1109C20.3857 10.6254 20.1609 10.1611 19.8611 9.74946C19.7326 8.70461 18.9938 4.13465 15.8029 2.0344C12.2588 -0.308601 7.21555 1.43282 7.01211 1.5067C6.97999 1.51725 6.94786 1.53841 6.91574 1.55952C6.81937 1.60173 6.73371 1.67561 6.66947 1.76005C6.66947 1.76005 6.64805 1.77056 6.64805 1.78111C6.58381 1.8761 6.54098 1.9922 6.54098 2.11885C6.54098 2.16106 6.53027 2.20328 6.53027 2.25606C6.55169 2.48824 7.07635 7.86027 10.6098 10.1927L10.5777 10.1821ZM8.26488 3.73365L17.3555 9.72833C12.3444 10.6676 9.48553 8.71515 8.26488 3.73365ZM27.3242 37.3482H13.6721L11.5735 24.0924H29.4121L27.3134 37.3482H27.3242ZM30.8897 22.6359H10.1173L9.4427 17.5488H31.5536L30.879 22.6359H30.8897ZM23.6622 9.72833L32.7528 3.73365C31.5429 8.73626 28.6519 10.6676 23.6622 9.72833ZM31.9926 2.47771L22.9127 8.4724C24.1226 3.52255 26.9494 1.5384 31.9926 2.47771ZM14.9677 3.23757C16.8308 4.47239 17.7089 6.86819 18.105 8.48296L9.0144 2.47771C10.5991 2.1822 13.0939 2.00275 14.9677 3.23757Z" fill="black"/>
</svg>
