<svg width="40" height="40" viewBox="0 0 40 40" fill="none" xmlns="http://www.w3.org/2000/svg">
<g clip-path="url(#clip0_225_10292)">
<path d="M23.1804 25.1426V30.2914V32.8658V38.0147H20.6299V32.8658V30.2914V25.1426H23.1804Z" fill="#AFB8C9"/>
<path d="M23.1804 25.1426H20.6299V26.4297H23.1804V25.1426Z" fill="#8C95A4"/>
<path d="M23.1797 38.713H20.6292C20.2467 38.713 19.9385 38.4019 19.9385 38.0157V25.1436C19.9385 24.7574 20.2467 24.4463 20.6292 24.4463H23.1797C23.5623 24.4463 23.8705 24.7574 23.8705 25.1436V38.0157C23.8705 38.4019 23.5623 38.713 23.1797 38.713ZM21.32 37.3184H22.489V25.8408H21.32V37.3184Z" fill="black"/>
<path d="M17.4838 30.293H26.368L27.6433 32.8674H16.166L17.4838 30.293Z" fill="#AFB8C9"/>
<path d="M17.4838 30.293L16.166 32.8674H18.2277L19.2798 30.293H17.4838Z" fill="#8C95A4"/>
<path d="M24.5303 30.293L25.5717 32.8674H27.644L26.3688 30.293H24.5303Z" fill="#8C95A4"/>
<path d="M27.6547 33.5636H16.1774C15.933 33.5636 15.7098 33.4348 15.5929 33.231C15.4654 33.0272 15.4548 32.7699 15.5717 32.5446L16.8894 29.9701C17.0063 29.7341 17.2401 29.5947 17.5058 29.5947H26.3901C26.6557 29.5947 26.8895 29.7449 27.0064 29.9809L28.2923 32.5552C28.3986 32.7697 28.388 33.0272 28.2604 33.231C28.1329 33.4348 27.9097 33.5636 27.6759 33.5636H27.6547ZM17.3145 32.1691H26.5388L25.9543 30.9891H17.9202L17.3145 32.1691Z" fill="black"/>
<path d="M26.3689 25.1426L32.1075 39.3019H29.557L23.8184 25.1426H26.3689Z" fill="#AFB8C9"/>
<path d="M17.4408 25.1426L11.7021 39.3019H14.2527L19.9913 25.1426H17.4408Z" fill="#AFB8C9"/>
<path d="M19.3643 18.7075V22.5691H24.4547V15.5645L19.3643 18.7075Z" fill="#8C95A4"/>
<path d="M27.0057 22.5693H16.8037V25.1438H27.0057V22.5693Z" fill="#AFB8C9"/>
<path d="M26.3689 25.1426H23.8184L24.3497 26.4297H26.9002L26.3689 25.1426Z" fill="#8C95A4"/>
<path d="M17.4416 25.1426H19.9921L19.4714 26.4297H16.9209L17.4416 25.1426Z" fill="#8C95A4"/>
<path d="M24.4657 23.2659H19.3753C18.9928 23.2659 18.6846 22.9548 18.6846 22.5687V18.7071C18.6846 18.4603 18.8121 18.235 19.014 18.117L24.1044 14.9741C24.3169 14.8454 24.5826 14.8347 24.8058 14.9634C25.029 15.0814 25.1565 15.3173 25.1565 15.5748V22.5794C25.1565 22.9656 24.8483 23.2767 24.4657 23.2767V23.2659ZM20.0661 21.8714H23.775V16.8084L20.0661 19.1039V21.8821V21.8714Z" fill="black"/>
<path d="M27.0061 25.8401H16.804C16.4215 25.8401 16.1133 25.529 16.1133 25.1428V22.5684C16.1133 22.1822 16.4215 21.8711 16.804 21.8711H27.0061C27.3887 21.8711 27.6968 22.1822 27.6968 22.5684V25.1428C27.6968 25.529 27.3887 25.8401 27.0061 25.8401ZM17.4948 24.4456H26.3153V23.2656H17.4948V24.4456Z" fill="black"/>
<path d="M32.1067 40.0001H29.5562C29.2799 40.0001 29.0248 39.8285 28.9186 39.571L23.1799 25.4117C23.0949 25.1972 23.1162 24.9505 23.2437 24.7574C23.3712 24.5643 23.5837 24.4463 23.8175 24.4463H26.368C26.6444 24.4463 26.8994 24.6179 27.0057 24.8754L32.7443 39.0347C32.8293 39.2492 32.8081 39.4959 32.6806 39.689C32.553 39.8821 32.3405 40.0001 32.1067 40.0001ZM30.0238 38.6056H31.0865L25.9111 25.8408H24.8484L30.0238 38.6056Z" fill="black"/>
<path d="M14.2538 40.0001H11.7033C11.4695 40.0001 11.2569 39.8821 11.1294 39.689C11.0019 39.4959 10.9806 39.2492 11.0657 39.0347L16.8043 24.8754C16.9106 24.6179 17.1656 24.4463 17.4419 24.4463H19.9924C20.2262 24.4463 20.4388 24.5643 20.5663 24.7574C20.6938 24.9505 20.7151 25.1972 20.6301 25.4117L14.8914 39.571C14.7851 39.8285 14.5301 40.0001 14.2538 40.0001ZM12.7341 38.6056H13.7968L18.9722 25.8408H17.9095L12.7341 38.6056Z" fill="black"/>
<path d="M17.4415 19.4796L10.1725 24.7465L6.98438 20.3163L14.3171 14.8457L17.4415 19.4796Z" fill="#EFEDEE"/>
<path d="M16.039 20.4879L17.4417 19.4796L14.3174 14.8457L12.8721 15.929L16.039 20.4879Z" fill="#D9D7D8"/>
<path d="M10.1723 25.4443C9.95972 25.4443 9.74717 25.3477 9.60901 25.1546L6.42088 20.7245C6.19771 20.4134 6.26148 19.9843 6.56967 19.759L13.9024 14.2884C14.0512 14.1811 14.2424 14.1275 14.4337 14.1597C14.6144 14.1918 14.7844 14.299 14.8907 14.4599L18.0044 19.094C18.217 19.405 18.1426 19.8341 17.8344 20.0487L10.5655 25.3154C10.4486 25.4012 10.2998 25.4443 10.1616 25.4443H10.1723ZM7.95119 20.467L10.3317 23.7816L16.4954 19.3084L14.1574 15.833L7.95119 20.4563V20.467Z" fill="black"/>
<path d="M27.1869 2.93945L13.1484 14.0739L17.6118 20.5099L32.798 11.1455L27.1869 2.93945Z" fill="#EFEDEE"/>
<path d="M26.0176 3.86194L31.533 11.9285L32.7977 11.1455L27.1866 2.93945L26.0176 3.86194Z" fill="#D9D7D8"/>
<path d="M17.6114 21.2065C17.3883 21.2065 17.1757 21.0992 17.0482 20.9061L12.5848 14.4701C12.3723 14.1697 12.436 13.7514 12.723 13.5261L26.7614 2.38107C26.9102 2.26308 27.1015 2.20944 27.2927 2.24162C27.484 2.2738 27.6541 2.38096 27.7603 2.53113L33.3715 10.7372C33.4777 10.8981 33.5202 11.0911 33.4777 11.2735C33.4352 11.4559 33.3289 11.6275 33.1589 11.7241L17.9728 21.0885C17.8559 21.1529 17.739 21.1958 17.6114 21.1958V21.2065ZM14.0832 14.2126L17.8027 19.576L31.8093 10.9303L27.0271 3.93641L14.0832 14.2126Z" fill="black"/>
<path d="M28.3545 0.686523L26.3672 2.11327L33.3173 12.2715L35.294 10.8448L28.3545 0.686523Z" fill="#575C61"/>
<path d="M33.318 12.9685C33.318 12.9685 33.233 12.9685 33.2011 12.9685C33.0204 12.9363 32.861 12.829 32.7548 12.6789L25.8153 2.52049C25.6027 2.20941 25.6771 1.78044 25.9853 1.55518L27.9726 0.128433C28.1214 0.0211647 28.3126 -0.0217267 28.4933 0.0104537C28.6739 0.042634 28.8334 0.149923 28.9396 0.300098L35.8791 10.4583C36.0917 10.7694 36.0173 11.1985 35.7091 11.4238L33.7218 12.8504C33.6049 12.9362 33.4668 12.9791 33.318 12.9791V12.9685ZM27.3349 2.28453L33.4987 11.2951L34.3595 10.6837L28.1957 1.67316L27.3349 2.28453Z" fill="black"/>
<path d="M11.0647 25.616L6.75014 19.3516L4.68848 20.8104L7.20711 24.4468V24.5218H7.26024L9.01371 27.0748L11.0647 25.616Z" fill="#575C61"/>
<path d="M9.01405 27.7718C9.01405 27.7718 8.92903 27.7718 8.89715 27.7718C8.71649 27.7396 8.55708 27.6323 8.45081 27.4822L4.12558 21.2177C3.90241 20.9067 3.98742 20.4668 4.29561 20.2523L6.35727 18.7935C6.50605 18.6862 6.68671 18.6433 6.878 18.6755C7.05866 18.7077 7.21807 18.815 7.32434 18.9651L11.6389 25.2295C11.8515 25.5406 11.7771 25.9805 11.4689 26.195L9.41788 27.6538C9.30098 27.7396 9.16283 27.7825 9.02468 27.7825L9.01405 27.7718ZM5.65588 20.9818L9.18409 26.0985L10.1086 25.4442L6.58044 20.3275L5.65588 20.9818Z" fill="black"/>
<path d="M16.4644 15.3495C16.2625 15.3495 16.05 15.253 15.9225 15.0814C15.6887 14.781 15.7418 14.3412 16.05 14.1052L21.4592 9.88964C21.7567 9.65365 22.1925 9.70727 22.4262 10.0184C22.66 10.3187 22.6069 10.7584 22.2987 10.9944L16.8895 15.2101C16.762 15.3066 16.6132 15.3603 16.4644 15.3603V15.3495Z" fill="black"/>
<path d="M23.3502 9.97494C23.1483 9.97494 22.9357 9.8784 22.8082 9.70677C22.5744 9.40642 22.6275 8.96658 22.9357 8.73059L23.669 8.1513C23.9665 7.91532 24.4023 7.96907 24.6361 8.28015C24.8699 8.5805 24.8167 9.02021 24.5085 9.2562L23.7753 9.83548C23.6477 9.93203 23.499 9.98568 23.3502 9.98568V9.97494Z" fill="black"/>
</g>
<defs>
<clipPath id="clip0_225_10292">
<rect width="40" height="40" fill="white"/>
</clipPath>
</defs>
</svg>
