<svg width="40" height="40" viewBox="0 0 40 40" fill="none" xmlns="http://www.w3.org/2000/svg">
<path d="M30.5563 9.08643H7.90517C5.11941 9.08643 2.84277 11.5296 2.84277 14.5179V18.223H9.44214L9.88402 17.1831C10.5564 15.5981 12.0262 14.5784 13.6496 14.5784H17.0117C19.615 14.5784 21.8052 16.9408 21.8052 19.7171V23.19C21.8052 24.4721 21.565 25.7341 21.0943 26.9153L18.6351 33.1241H33.6206V12.3776C33.6206 10.5604 32.2469 9.09652 30.5563 9.09652V9.08643Z" fill="white"/>
<path d="M21.3451 38.1718H34.9857V35.3552C34.9857 34.1235 34.0539 33.124 32.9108 33.124H2.863C1.71987 33.124 0.788086 34.1235 0.788086 35.3552V38.1718H21.3451Z" fill="#C68986"/>
<path d="M17.895 38.9998C17.7893 38.9998 17.6836 38.9796 17.5876 38.9392C17.4915 38.8988 17.4051 38.8281 17.3378 38.7575C17.1841 38.606 17.0977 38.394 17.0977 38.1719C17.0977 37.9498 17.1841 37.7378 17.3378 37.5864C17.4051 37.5056 17.4915 37.445 17.5876 37.4047C17.8757 37.2734 18.2312 37.3542 18.4521 37.5864C18.5962 37.7378 18.6827 37.9498 18.6827 38.1719C18.6827 38.394 18.5962 38.606 18.4521 38.7575C18.2984 38.9089 18.0967 38.9998 17.895 38.9998Z" fill="black"/>
<path d="M39.2118 39.0004H34.9947C34.5625 39.0004 34.207 38.6269 34.207 38.1726C34.207 37.7183 34.5625 37.3447 34.9947 37.3447H39.2118C39.6441 37.3447 39.9995 37.7183 39.9995 38.1726C39.9995 38.6269 39.6441 39.0004 39.2118 39.0004Z" fill="black"/>
<path d="M9.44214 18.2329H2.84277V21.7563H9.44214V18.2329Z" fill="#868EAF"/>
<path d="M37.0985 13.4683H33.6211V22.4433H37.0985V13.4683Z" fill="#868EAF"/>
<path d="M24.5437 9.08663H20V4.98781C20 4.35179 20.4803 3.83691 21.0759 3.83691H23.4678C24.0634 3.83691 24.5437 4.35179 24.5437 4.98781V9.08663Z" fill="#FF7E96"/>
<path d="M24.5433 9.91435H19.9996C19.5673 9.91435 19.2119 9.54081 19.2119 9.08651V4.99778C19.2119 3.90746 20.0476 3.01904 21.0755 3.01904H23.4674C24.4953 3.01904 25.331 3.90746 25.331 4.99778V9.0966C25.331 9.55091 24.9756 9.92444 24.5433 9.92444V9.91435ZM20.7873 8.25867H23.7556V4.98769C23.7556 4.80597 23.6307 4.66463 23.4674 4.66463H21.0755C20.9122 4.66463 20.7873 4.80597 20.7873 4.98769V8.25867Z" fill="black"/>
<path d="M22.277 4.66471C21.8447 4.66471 21.4893 4.29117 21.4893 3.83687V1.82784C21.4893 1.37354 21.8447 1 22.277 1C22.7092 1 23.0647 1.37354 23.0647 1.82784V3.83687C23.0647 4.29117 22.7092 4.66471 22.277 4.66471Z" fill="black"/>
<path d="M10.7975 9.91447C10.6534 9.91447 10.5093 9.87409 10.3844 9.79332C10.1539 9.64189 10.0098 9.3794 10.0098 9.08663V5.51278C10.0098 5.05848 10.3652 4.68494 10.7975 4.68494C11.2297 4.68494 11.5852 5.05848 11.5852 5.51278V7.74391L20.0865 3.31194C20.4804 3.11002 20.9511 3.28165 21.1432 3.68547C21.3353 4.09939 21.1816 4.59408 20.7878 4.79599L11.1433 9.82361C11.028 9.88418 10.9127 9.90437 10.7879 9.90437L10.7975 9.91447Z" fill="black"/>
<path d="M6.14805 25.5833C5.71578 25.5833 5.36035 25.2097 5.36035 24.7554V21.757C5.36035 21.3027 5.71578 20.9292 6.14805 20.9292C6.58032 20.9292 6.93575 21.3027 6.93575 21.757V24.7554C6.93575 25.2097 6.58032 25.5833 6.14805 25.5833Z" fill="black"/>
<path d="M27.7323 19.9899C29.0692 19.9899 30.153 18.8283 30.153 17.3954C30.153 15.9624 29.0692 14.8008 27.7323 14.8008C26.3953 14.8008 25.3115 15.9624 25.3115 17.3954C25.3115 18.8283 26.3953 19.9899 27.7323 19.9899Z" fill="#868EAF"/>
<path d="M33.6202 33.9521H18.6348C18.3754 33.9521 18.1256 33.8108 17.9815 33.5786C17.8375 33.3464 17.8086 33.0536 17.9143 32.8012L20.3735 26.5924C20.8057 25.5122 21.0171 24.3613 21.0171 23.1801V19.7072C21.0171 17.365 19.1823 15.3964 17.0113 15.3964H13.6492C12.3428 15.3964 11.142 16.2242 10.6041 17.5165L10.1622 18.5563C10.0373 18.8592 9.74915 19.051 9.44175 19.051H2.84239C2.41011 19.051 2.05469 18.6775 2.05469 18.2232V14.5181C2.05469 11.0654 4.67714 8.25879 7.90478 8.25879H30.5559C32.6788 8.25879 34.4079 10.1063 34.4079 12.3778V33.1344C34.4079 33.5887 34.0525 33.9622 33.6202 33.9622V33.9521ZM19.8163 32.2964H32.8325V12.3778C32.8325 11.025 31.8143 9.92457 30.5559 9.92457H7.90478C5.5513 9.92457 3.63008 11.9841 3.63008 14.5282V17.4054H8.93263L9.16318 16.8603C9.96048 14.9724 11.7184 13.7609 13.6492 13.7609H17.0113C20.0372 13.7609 22.5925 16.4968 22.5925 19.7375V23.2104C22.5925 24.6137 22.3331 25.9766 21.824 27.2587L19.8163 32.3166V32.2964Z" fill="black"/>
<path d="M34.9949 39.0004H21.3543C20.922 39.0004 20.5666 38.6268 20.5666 38.1725C20.5666 37.7182 20.922 37.3447 21.3543 37.3447H34.2072V35.3558C34.2072 34.5886 33.6308 33.9526 32.92 33.9526H2.86261C2.15176 33.9526 1.57539 34.5785 1.57539 35.3558V37.3447H14.4763C14.9086 37.3447 15.264 37.7182 15.264 38.1725C15.264 38.6268 14.9086 39.0004 14.4763 39.0004H0.787697C0.355424 39.0004 0 38.6268 0 38.1725V35.3558C0 33.6699 1.28721 32.2969 2.86261 32.2969H32.9104C34.4954 32.2969 35.773 33.6699 35.773 35.3558V38.1725C35.773 38.6268 35.4176 39.0004 34.9853 39.0004H34.9949Z" fill="black"/>
<path d="M9.44175 22.5843H2.84238C2.41011 22.5843 2.05469 22.2108 2.05469 21.7565V18.2331C2.05469 17.7788 2.41011 17.4053 2.84238 17.4053H9.44175C9.87403 17.4053 10.2295 17.7788 10.2295 18.2331V21.7565C10.2295 22.2108 9.87403 22.5843 9.44175 22.5843ZM3.63008 20.9286H8.65406V19.061H3.63008V20.9286Z" fill="black"/>
<path d="M37.0971 23.2708H33.6197C33.1875 23.2708 32.832 22.8973 32.832 22.443V13.468C32.832 13.0137 33.1875 12.6401 33.6197 12.6401H37.0971C37.5294 12.6401 37.8848 13.0137 37.8848 13.468V22.443C37.8848 22.8973 37.5294 23.2708 37.0971 23.2708ZM34.4074 21.6151H36.3094V14.2958H34.4074V21.6151Z" fill="black"/>
<path d="M27.7328 20.818C25.9653 20.818 24.5244 19.2834 24.5244 17.3956C24.5244 15.5077 25.9653 13.9731 27.7328 13.9731C29.5004 13.9731 30.9413 15.5077 30.9413 17.3956C30.9413 19.2834 29.5004 20.818 27.7328 20.818ZM27.7328 15.6288C26.8299 15.6288 26.0998 16.4264 26.0998 17.3956C26.0998 18.3647 26.8299 19.1623 27.7328 19.1623C28.6358 19.1623 29.3659 18.3647 29.3659 17.3956C29.3659 16.4264 28.6358 15.6288 27.7328 15.6288Z" fill="black"/>
</svg>
