<svg width="40" height="41" viewBox="0 0 40 41" fill="none" xmlns="http://www.w3.org/2000/svg">
<g clip-path="url(#clip0_225_10315)">
<path d="M13.2866 12.2925L11.1855 13.6932C11.1855 14.8574 12.1224 15.7943 13.2866 15.7943C14.4508 15.7943 15.3876 14.8574 15.3876 13.6932V12.2925H13.2866Z" fill="#FFCEBF"/>
<path d="M16.7883 11.5917H15.2694C14.8783 10.5002 13.6868 9.92728 12.5862 10.3093C11.7495 10.6094 11.1855 11.4007 11.1855 12.292V13.6927L12.2315 12.9924H16.7792C17.1703 12.9924 17.4796 12.6831 17.4796 12.292C17.4796 11.9009 17.1703 11.5917 16.7792 11.5917H16.7883Z" fill="#005DBB"/>
<path d="M7.58407 15.0942C6.79277 15.0942 6.06514 15.5397 5.70132 16.2583L4.88274 17.8955L0.680664 30.5018H13.9872L16.7886 22.798L18.8896 23.8439L20.9907 18.7686L17.4889 15.0942H7.58407Z" fill="#0A71CD"/>
<path d="M16.0879 16.4949L18.1889 14.394H30.0948V16.4949C30.0948 16.886 29.7856 17.1953 29.3945 17.1953H19.5896L16.0879 16.4949Z" fill="#7A4922"/>
<path d="M30.0947 14.394H39.2993V16.4949H30.0947V14.394Z" fill="#CDCCC8"/>
<path d="M4.88258 17.8947L3.77294 20.4779C3.17265 21.8786 3.48189 23.4975 4.56425 24.5708C5.92855 25.9351 8.12054 26.026 9.60309 24.78L16.0972 19.2863H18.1982L19.5989 17.1852L16.0972 16.4849L9.7941 19.9867V17.8856H4.89168L4.88258 17.8947Z" fill="#FFCEBF"/>
<path d="M18.8896 23.8539L20.1539 24.4814C20.7087 24.7542 21.3181 24.8997 21.9366 24.8997C23.501 24.8997 24.9108 23.9904 25.5566 22.5715L27.0391 19.2971L27.9941 18.5967V16.4956H25.1927L24.4924 17.8963L22.3914 19.9974L20.9907 18.7695L18.8896 23.8448V23.8539Z" fill="#FFCEBF"/>
<path d="M39.2994 14.3936V12.2925H37.1984L36.498 14.3936H39.2994Z" fill="#BBBAB6"/>
<path d="M39.2997 11.5923H37.1986C36.8985 11.5923 36.6256 11.7834 36.5347 12.0744L35.998 13.6934H18.1984C18.0165 13.6934 17.8345 13.7662 17.7072 13.9026L17.207 14.4029H16.0155C16.0791 14.1755 16.1064 13.939 16.1064 13.7025V13.0022H16.8068C17.1979 13.0022 17.5071 12.6929 17.5071 12.3018C17.5071 11.9107 17.1979 11.6014 16.8068 11.6014H16.0155C15.6335 10.1007 14.1054 9.20028 12.6047 9.59138C11.3677 9.90972 10.5037 11.0284 10.5037 12.3018V13.7025C10.5037 13.939 10.5309 14.1755 10.5946 14.4029H7.60222C6.53806 14.4029 5.56485 15.0031 5.10099 15.9491L3.15457 20.2147C2.909 20.7878 2.78166 21.4062 2.79076 22.0247L0.0348533 30.2834C-0.0833868 30.6472 0.107622 31.0474 0.480533 31.1656C0.553296 31.1929 0.626057 31.202 0.69882 31.202H14.0054C14.2964 31.202 14.5602 31.0201 14.6602 30.7382L17.1888 23.771L19.8446 25.0991C22.1549 26.2542 24.9653 25.3173 26.1204 23.0071C26.1477 22.9525 26.175 22.9069 26.1932 22.8523L27.603 19.7509L28.4125 19.1598C28.5944 19.0233 28.6944 18.814 28.6944 18.5957V17.8954H29.3948C29.895 17.8954 30.3589 17.6316 30.6045 17.195H39.2997C39.6908 17.195 40 16.8857 40 16.4946V12.2927C40 11.9016 39.6908 11.5923 39.2997 11.5923ZM11.8861 12.2927C11.8861 11.5196 12.5137 10.892 13.2868 10.892C13.7871 10.892 14.251 11.1557 14.4965 11.5923H13.2868C13.1504 11.5923 13.014 11.6377 12.8957 11.7105L11.8861 12.3837V12.2927ZM14.6875 12.9931V13.6934C14.6875 13.939 14.6239 14.1846 14.4965 14.3938H12.0681C12.0044 14.2846 11.9589 14.1663 11.9225 14.0389L13.4869 12.9931H14.6784H14.6875ZM6.32887 16.5675C6.56535 16.0945 7.0474 15.7945 7.58403 15.7945H15.7972L10.4855 18.8049V17.8954C10.4855 17.5043 10.1762 17.195 9.78511 17.195H6.01962L6.32887 16.5675ZM4.41883 20.7606L5.34657 18.5957H9.08477V19.9965C9.08477 20.3876 9.39401 20.6968 9.78511 20.6968C9.90335 20.6968 10.0216 20.6694 10.1216 20.6058L16.1974 17.2314L18.4166 17.6771L17.8073 18.5957H16.0791C15.9154 18.5957 15.7517 18.6502 15.6244 18.7594L9.13025 24.253C7.92965 25.2626 6.15605 25.1899 5.04642 24.0803C4.17326 23.2071 3.91859 21.8884 4.40974 20.7514L4.41883 20.7606ZM18.5349 22.8887L17.1069 22.1702C16.7613 21.9973 16.3429 22.1339 16.1701 22.4795C16.161 22.5068 16.1428 22.525 16.1337 22.5523L13.5051 29.7922H1.66293L3.48201 24.3259C3.65482 24.5896 3.85492 24.8353 4.07321 25.0627C4.85541 25.8449 5.91048 26.3087 7.01102 26.3541C7.07469 26.3541 7.13836 26.3541 7.19293 26.3541C8.2389 26.3541 9.24849 25.9813 10.0489 25.3082L16.3429 19.9783H18.1893C18.4257 19.9783 18.644 19.8599 18.7714 19.6689L19.6445 18.3592L20.1721 18.9051L18.5349 22.8705V22.8887ZM27.3028 18.2411L26.6298 18.7323C26.5297 18.8051 26.457 18.8958 26.4024 19.005L24.9199 22.2794C24.174 23.9257 22.2276 24.6533 20.5813 23.9075C20.545 23.8893 20.5086 23.8711 20.4722 23.8529L19.7991 23.5165L21.2817 19.9418L21.9457 20.5241C22.2276 20.7696 22.6369 20.7514 22.9007 20.4876L25.0017 18.3866C25.0563 18.332 25.6384 17.195 25.6384 17.195H27.3028V18.2411ZM21.1362 17.8954H23.5101L22.364 19.0414L21.1271 17.8954H21.1362ZM29.4039 16.4946H28.7035C28.7035 16.1035 28.3943 15.7945 28.0032 15.7945H25.2018C24.938 15.7945 24.6925 15.94 24.5742 16.1855L24.4196 16.4946H19.6718L17.5253 16.0672L18.4985 15.0941H29.413V16.4946H29.4039ZM38.6084 15.7945H30.8046V15.0941H38.6084V15.7945ZM38.6084 13.6934H37.4806L37.7171 12.9931H38.6175V13.6934H38.6084Z" fill="black"/>
</g>
<defs>
<clipPath id="clip0_225_10315">
<rect width="40" height="40" fill="white" transform="translate(0 0.5)"/>
</clipPath>
</defs>
</svg>
