<svg width="40" height="40" viewBox="0 0 40 40" fill="none" xmlns="http://www.w3.org/2000/svg">
<path d="M38.3206 7.66874L31.5026 3.68896L23.6614 4.49582L14.7969 25.8233L37.7713 30.8062L38.3206 7.66874Z" fill="#E1B671"/>
<path d="M14.7969 25.8237L31.0395 29.3456L20.3008 12.5977L14.7969 25.8237Z" fill="#D3A25B"/>
<path d="M37.7719 31.515C37.7719 31.515 37.6749 31.515 37.6211 31.5041L14.6467 26.5212C14.442 26.4776 14.2697 26.3467 14.1727 26.1613C14.0758 25.976 14.065 25.7579 14.1512 25.5616L23.0157 4.23418C23.1126 3.9943 23.3388 3.83073 23.5866 3.80892L31.417 3.00207C31.5678 2.99116 31.7078 3.02389 31.8371 3.08931L38.6551 7.06909C38.8813 7.19993 39.0105 7.43983 38.9998 7.70152L38.4612 30.839C38.4612 31.0461 38.3643 31.2533 38.1919 31.3841C38.0627 31.4823 37.9119 31.5368 37.7611 31.5368L37.7719 31.515ZM15.7668 25.3108L37.0933 29.934L37.5995 8.07221L31.3416 4.40861L24.1466 5.15005L15.7668 25.3V25.3108Z" fill="black"/>
<path d="M27.5703 11.169L28.6474 11.398L29.0675 9.42446L30.22 9.67522L29.7999 11.6488L31.5771 12.0304C31.2432 11.4852 31.1032 10.8528 31.3402 9.63163L26.0839 8.49761L26.2886 7.53809L32.665 8.92287C32.4065 9.9369 32.3849 10.3512 32.3849 10.7438L32.9881 10.1441C33.5051 10.3948 33.9144 10.6347 34.4206 11.0491L33.8498 11.6379L34.3022 12.2485C34.1514 12.4338 33.6775 12.9572 33.1281 12.9681L33.6559 13.4261C33.4728 13.5678 33.2358 13.7313 32.4927 14.0039L31.8033 13.3279C32.2341 13.1425 32.5788 12.9463 32.6542 12.8918C32.4388 12.8264 32.0833 12.6519 31.8248 12.3793C31.5771 13.5351 31.534 13.8622 31.5663 14.4837L32.1157 13.9167C32.6865 14.222 33.2466 14.6146 33.559 14.8653L33.0958 15.3996L33.4943 16.0211C33.0204 16.719 32.6004 16.9806 31.8787 16.8171C30.877 16.599 30.0584 15.4978 30.5323 12.8264L29.5737 12.6192L28.8305 16.1301L27.678 15.8794L28.4212 12.3684L27.3441 12.1394L27.301 12.3248C27.0641 13.437 26.3101 14.7999 25.2115 15.4105L24.2744 14.451C24.8453 14.1457 25.8147 13.6005 26.1809 11.8778L25.0391 11.6269L25.2438 10.6674L26.3855 10.9182L26.5148 10.2967C25.9655 10.2531 25.7823 10.2313 25.5777 10.1986L25.5131 9.18454C26.4071 9.3481 27.6565 9.42441 28.572 9.23905L28.7443 10.2422C28.5182 10.2749 28.3135 10.3076 27.7103 10.3294L27.538 11.169H27.5703ZM32.1695 15.7049C32.4603 15.7703 32.6004 15.6395 32.7619 15.4541C32.6111 15.3233 32.2449 15.007 31.5771 14.6145C31.5879 14.8217 31.6417 15.5958 32.1695 15.7049ZM32.4065 10.7983C32.428 11.5724 32.7727 11.8887 32.9881 11.9432C33.1928 11.9868 33.3759 11.8341 33.6344 11.5943C33.182 11.2344 32.9773 11.1036 32.4065 10.7983ZM34.5176 9.51164C34.3668 9.64248 34.1406 9.84969 33.4297 10.2313L32.6865 9.55529C33.0958 9.34813 33.4082 9.11911 33.7098 8.83562L34.5284 9.51164H34.5176Z" fill="black"/>
<path d="M26.2889 24.9187L26.5474 23.7084L22.7021 22.8797L22.896 21.953L26.7413 22.7816L26.8382 22.3127L23.7362 21.6367L24.4578 18.2021L27.5599 18.8781L27.6568 18.442L23.93 17.6351L24.1239 16.7192L27.8507 17.5261L27.9691 16.9373L29.1432 17.1881L29.0247 17.7769L32.7622 18.5837L32.5683 19.4996L28.8308 18.6928L28.7339 19.1289L31.8682 19.8049L31.1466 23.2396L28.0122 22.5636L27.9153 23.0324L31.7605 23.8611L31.5666 24.7879L27.7214 23.9592L27.4629 25.1695L26.2889 24.9187ZM25.1902 20.4809L25.061 21.0698L27.0105 21.495L27.1398 20.9062L25.1902 20.4809ZM25.4487 19.2597L25.3303 19.8267L27.2798 20.252L27.3983 19.685L25.4487 19.2597ZM28.3138 21.1679L28.1846 21.7567L30.1664 22.1928L30.2957 21.604L28.3138 21.1788V21.1679ZM28.5723 19.9467L28.4538 20.5137L30.4357 20.9498L30.5542 20.3828L28.5723 19.9576V19.9467Z" fill="black"/>
<path d="M16.662 10.4723L8.86384 9.40381L1.91659 13.1547L1.70117 36.2921L24.8264 32.0833L16.662 10.4723Z" fill="#E1B671"/>
<path d="M1.70011 36.9999C1.53855 36.9999 1.37698 36.9453 1.24773 36.8363C1.08616 36.7054 1 36.4983 1 36.2911L1.22619 13.1537C1.22619 12.892 1.36621 12.6521 1.5924 12.5321L8.53966 8.7813C8.66891 8.71588 8.81971 8.68316 8.95973 8.70497L16.7579 9.7735C17.0164 9.80621 17.2318 9.98071 17.318 10.2206L25.4824 31.8425C25.5577 32.0387 25.5362 32.2568 25.4393 32.4422C25.3316 32.6275 25.1592 32.7584 24.9546 32.7911L1.82936 36.9889C1.82936 36.9889 1.7432 36.9999 1.70011 36.9999ZM2.61564 13.5789L2.40022 35.4406L23.8667 31.5371L16.1547 11.1147L8.99204 10.1333L2.61564 13.5789Z" fill="black"/>
<path d="M5.44824 14.9521L13.785 13.4365L13.9681 14.4506L10.4029 15.0938L10.7691 17.1437L13.9034 16.5768L14.0865 17.5908L10.9522 18.1577L11.3723 20.5456L15.2283 19.8479L15.4114 20.8728L6.5038 22.4865L6.32069 21.4616L10.1444 20.7637L9.72431 18.3758L6.61151 18.9428L6.4284 17.9288L9.5412 17.3618L9.17499 15.3119L5.63135 15.9553L5.44824 14.9412V14.9521Z" fill="black"/>
<path d="M7.59119 24.5041C7.93586 24.9948 8.30208 25.7799 8.49596 26.3905L7.55888 26.9465C7.38655 26.2596 6.98802 25.4855 6.71875 25.0711L7.59119 24.5041ZM8.05434 23.4682L9.20684 23.2611L10.6286 31.2862L9.47611 31.4934L9.04528 29.0836C8.57136 29.5416 8.32362 29.7597 7.89279 30.0977L7.45117 28.9092C7.55888 28.8329 8.30208 28.2877 8.81908 27.7861L8.05434 23.4682ZM15.5617 22.9231C13.8707 23.6754 10.8117 24.3406 9.99312 24.515L9.58383 23.5555C10.6071 23.381 13.2029 22.8577 14.84 22.1162L15.5617 22.9122V22.9231ZM10.9517 24.5914C11.221 24.9403 11.598 25.5182 11.8349 26.1506L10.8117 26.5431C10.5963 25.9325 10.1762 25.311 9.93926 25.0166L10.941 24.6023L10.9517 24.5914ZM14.8724 25.6272L14.0107 25.4745C14.3446 24.635 14.4846 24.068 14.6354 23.3702L15.831 23.4901C15.6802 24.1552 15.2924 25.2237 15.1093 25.5836H15.1955L15.2924 26.1179L16.348 25.9216L16.5311 26.9247L15.4755 27.121L15.8956 29.5089C15.9279 29.7052 16.0356 30.3049 15.0985 30.4684L13.4398 30.7737L13.0305 29.7051L14.3661 29.4652C14.6139 29.4216 14.6138 29.3344 14.5923 29.1709L14.2692 27.35L10.424 28.0478L10.2409 27.0447L14.0861 26.3468L13.9891 25.8016L14.8616 25.6381L14.8724 25.6272ZM11.8242 27.8843C12.6751 28.4294 13.1275 28.9528 13.3213 29.2145L12.395 29.9559C12.0396 29.5089 11.5118 28.9746 10.9733 28.582L11.8242 27.8843ZM12.8797 24.0134C13.2352 24.4932 13.4937 25.0602 13.666 25.5618L12.5781 25.9652C12.4381 25.4855 12.115 24.7985 11.8242 24.406L12.8797 24.0134Z" fill="black"/>
</svg>
