<svg width="40" height="41" viewBox="0 0 40 41" fill="none" xmlns="http://www.w3.org/2000/svg">
<path d="M34.7793 21.054H36.7874C38.2403 21.054 39.4098 19.8727 39.4098 18.4316C39.4098 17.9473 39.2798 17.4748 39.0318 17.0613L34.7793 10.0684H24.526L15.9738 12.5017H10.9535L10.8472 15.9155L15.9738 17.6283L23.6637 17.7583V21.054L15.4541 21.81C15.0406 21.869 7.70508 26.4523 7.70508 26.4523L9.34701 30.0315L16.529 27.8816H27.928L32.6176 31.7679L30.9875 31.508L30.4559 34.91L35.299 35.7487C37.2008 35.8078 37.697 35.1935 37.7915 33.6461C37.7206 30.1968 34.7793 21.054 34.7793 21.054Z" fill="#F9F9F9"/>
<path d="M27.5032 30.5166L26.6055 35.9149L28.8498 34.6628L30.4681 34.9108L30.9997 31.5089L27.515 30.5166H27.5032Z" fill="#FDC9A6"/>
<path d="M4.85815 27.8947L0.582031 27.0442L3.99584 32.1709L9.33508 30.0328L7.69315 26.4536L4.84634 27.8947H4.85815Z" fill="#FDC9A6"/>
<path d="M6.57129 12.5142V15.0775L10.8474 15.928L10.9537 12.5142H6.57129Z" fill="#FDC9A6"/>
<path d="M34.7781 13.3623L32.2148 15.0751L34.0576 18.3944L37.4005 15.9847L34.7781 13.3623Z" fill="#FDC9A6"/>
<path d="M28.5299 9.98496L26.947 14.013L24.5137 10.0676L28.5299 9.97314V9.98496Z" fill="#FDC9A6"/>
<path d="M35.5345 36.339C35.4518 36.339 35.3691 36.339 35.2746 36.339L30.3606 35.4885C30.0417 35.4295 29.8291 35.1342 29.8763 34.8152L30.4079 31.4132C30.4315 31.2597 30.5142 31.1179 30.6441 31.0234C30.6678 30.9998 30.7032 30.988 30.7268 30.9762L27.7146 28.4837H16.6109L9.5116 30.5982C9.2281 30.6808 8.93279 30.5509 8.80285 30.2792L7.16092 26.7C7.04279 26.4284 7.13729 26.1094 7.38536 25.9559C14.8272 21.3017 15.217 21.2545 15.3588 21.2309L23.0605 20.5221V18.3486L15.9494 18.2305C15.8903 18.2305 15.8313 18.2305 15.7722 18.1951L10.6456 16.4822C10.3975 16.3996 10.2322 16.1633 10.244 15.9034L10.3503 12.4896C10.3503 12.1707 10.622 11.9226 10.9409 11.9226H15.8785L24.3481 9.51288C24.3481 9.51288 24.4544 9.48926 24.5134 9.48926H34.7667C34.9675 9.48926 35.1683 9.59557 35.2746 9.77276L39.5271 16.7657C39.8342 17.2737 39.9996 17.8525 39.9996 18.4431C39.9996 20.215 38.5585 21.6679 36.7748 21.6679H35.5699C36.2905 23.9714 38.3104 30.7163 38.3695 33.6576C38.2514 35.5948 37.4481 36.3626 35.5345 36.3626V36.339ZM31.1284 34.4254L35.3927 35.1696C36.9402 35.205 37.1174 34.7798 37.1882 33.6103C37.1174 30.3265 34.2351 21.3254 34.1997 21.2427C34.1406 21.0655 34.1761 20.8647 34.2824 20.7111C34.3887 20.5575 34.5659 20.4631 34.7549 20.4631H36.763C37.8852 20.4631 38.8066 19.5535 38.8066 18.4195C38.8066 18.0415 38.7002 17.6753 38.5112 17.3564L34.4241 10.6469H24.5843L16.1148 13.0566C16.1148 13.0566 16.0085 13.0803 15.9494 13.0803H11.4961L11.4252 15.49L16.0439 17.0256L23.6511 17.1556C23.9701 17.1556 24.2299 17.4272 24.2299 17.7462V21.0419C24.2299 21.349 23.9937 21.5971 23.6984 21.6325L15.4887 22.3885C15.1107 22.542 11.1299 24.9872 8.44848 26.6646L9.65335 29.2988L16.351 27.3025C16.351 27.3025 16.4573 27.2789 16.5164 27.2789H27.9154C28.0572 27.2789 28.1871 27.3379 28.2934 27.4206L32.983 31.2951C33.1838 31.4605 33.2547 31.7558 33.1484 31.992C33.0421 32.2401 32.7822 32.37 32.5105 32.3346L31.471 32.1692L31.1166 34.4136L31.1284 34.4254Z" fill="black"/>
<path d="M26.6048 36.5044C26.4867 36.5044 26.3685 36.4689 26.2622 36.398C26.0732 36.2681 25.9787 36.0437 26.0142 35.8192L26.9119 30.4209C26.9355 30.2556 27.0419 30.1138 27.1836 30.0193C27.3254 29.9248 27.5025 29.9012 27.6561 29.9484L31.1408 30.9407C31.4243 31.0234 31.6133 31.3069 31.566 31.6022L31.0345 35.0042C30.9872 35.3231 30.6919 35.5475 30.3612 35.5003L28.9437 35.2877L26.8765 36.4335C26.782 36.4807 26.6875 36.5044 26.593 36.5044H26.6048ZM27.975 31.2596L27.3844 34.7915L28.5539 34.1419C28.672 34.0828 28.8019 34.0592 28.9319 34.071L29.9713 34.2246L30.3375 31.9211L27.9869 31.2596H27.975Z" fill="black"/>
<path d="M4.00738 32.7605C3.81838 32.7605 3.62938 32.666 3.51126 32.5007L0.097453 27.3741C-0.0324843 27.1732 -0.0324843 26.9134 0.097453 26.7126C0.22739 26.5117 0.475446 26.4172 0.699883 26.4645L4.77519 27.2795L7.44481 25.9329C7.58656 25.8621 7.75194 25.8502 7.9055 25.8975C8.05907 25.9447 8.17718 26.0629 8.24806 26.2046L9.88999 29.7838C9.96087 29.9255 9.96087 30.1027 9.88999 30.2445C9.81912 30.3862 9.71281 30.5162 9.55924 30.5752L4.22001 32.7133C4.14913 32.7369 4.07825 32.7605 3.99557 32.7605H4.00738ZM1.86933 27.8938L4.23182 31.4375L8.55518 29.7129L7.433 27.2559L5.12956 28.4135C5.01144 28.4726 4.8815 28.4962 4.75156 28.4608L1.88113 27.882L1.86933 27.8938Z" fill="black"/>
<path d="M10.8472 16.5173C10.8472 16.5173 10.7645 16.5173 10.7291 16.5173L6.45297 15.6668C6.18128 15.6078 5.98047 15.3715 5.98047 15.088V12.5247C5.98047 12.194 6.24034 11.9341 6.57109 11.9341H10.9535C11.1189 11.9341 11.2606 11.9931 11.3788 12.1113C11.4851 12.2294 11.556 12.383 11.5441 12.5365L11.4378 15.9503C11.4378 16.1275 11.3551 16.2811 11.2134 16.3992C11.1071 16.4819 10.9772 16.5291 10.8472 16.5291V16.5173ZM7.16172 14.5919L10.2802 15.218L10.3511 13.1035H7.17353V14.5919H7.16172Z" fill="black"/>
<path d="M34.0587 18.9867C34.0587 18.9867 33.976 18.9867 33.9287 18.9749C33.7633 18.9395 33.6216 18.8332 33.5389 18.6796L31.6962 15.3603C31.5426 15.0886 31.6253 14.7579 31.8852 14.5807L34.4485 12.8679C34.6847 12.7143 34.9918 12.7379 35.1926 12.9388L37.815 15.5611C37.9331 15.6793 38.004 15.8564 37.9922 16.0218C37.9804 16.199 37.8859 16.3526 37.7441 16.4589L34.4012 18.8686C34.2949 18.9395 34.1768 18.9749 34.0587 18.9749V18.9867ZM32.9955 15.2658L34.2595 17.5338L36.5038 15.9155L34.7083 14.12L32.9955 15.254V15.2658Z" fill="black"/>
<path d="M26.9588 14.6044C26.758 14.6044 26.569 14.4981 26.4509 14.3209L24.0175 10.3756C23.9112 10.1984 23.8994 9.97392 24.0057 9.78493C24.112 9.59593 24.301 9.4778 24.5137 9.4778L28.5299 9.3833C28.7425 9.3833 28.9197 9.4778 29.026 9.63136C29.1441 9.79674 29.1678 9.99755 29.0969 10.1866L27.5258 14.2146C27.4432 14.4272 27.2542 14.569 27.0297 14.5926C27.0061 14.5926 26.9943 14.5926 26.9707 14.5926L26.9588 14.6044ZM25.565 10.6354L26.8407 12.6908L27.6676 10.5882L25.5768 10.6354H25.565Z" fill="black"/>
<path d="M26.2264 4.09082C24.8089 4.09082 23.6631 5.23663 23.6631 6.65413H28.7897C28.7897 5.23663 27.6439 4.09082 26.2264 4.09082Z" fill="#7A4922"/>
<path d="M23.6631 8.36662C23.6631 9.78411 24.8089 10.9299 26.2264 10.9299C27.6439 10.9299 28.7897 9.78411 28.7897 8.36662V6.65381H23.6631V8.36662Z" fill="#FDC9A6"/>
<path d="M28.7895 7.24456H23.6629C23.3321 7.24456 23.0723 6.98468 23.0723 6.65393C23.0723 4.9175 24.4898 3.5 26.2262 3.5C27.9626 3.5 29.3801 4.9175 29.3801 6.65393C29.3801 6.98468 29.1203 7.24456 28.7895 7.24456ZM24.3362 6.06331H28.1044C27.8563 5.26006 27.1003 4.68125 26.2262 4.68125C25.3521 4.68125 24.5961 5.26006 24.348 6.06331H24.3362Z" fill="black"/>
<path d="M26.2262 11.5204C25.3875 11.5204 24.5961 11.1896 23.9936 10.599C23.3912 10.0084 23.0723 9.21692 23.0723 8.36642V6.65361C23.0723 6.32286 23.3321 6.06299 23.6629 6.06299H28.7895C29.1203 6.06299 29.3801 6.32286 29.3801 6.65361V8.36642C29.3801 10.1029 27.9626 11.5204 26.2262 11.5204ZM24.2535 7.24424V8.36642C24.2535 8.89798 24.4543 9.39411 24.8323 9.76029C25.2103 10.1383 25.6946 10.3391 26.2262 10.3391C27.3129 10.3391 28.1989 9.45317 28.1989 8.36642V7.24424H24.2535Z" fill="black"/>
<path d="M34.8615 23.4273C34.8615 23.4273 34.7789 23.4273 34.7434 23.4273L23.7224 21.1947C23.4035 21.1357 23.1908 20.8167 23.2617 20.4978C23.3208 20.1788 23.6279 19.9662 23.9586 20.0371L34.9797 22.2697C35.2986 22.3287 35.5112 22.6477 35.4404 22.9666C35.3813 23.2501 35.1332 23.4391 34.8615 23.4391V23.4273Z" fill="black"/>
<path d="M28.7894 26.8299C28.5059 26.8299 28.2461 26.6173 28.2106 26.3338L27.5019 21.6797C27.4664 21.4198 27.5964 21.1717 27.8326 21.0536C28.0689 20.9355 28.3524 20.9946 28.5177 21.1836L32.6049 25.6723C32.8293 25.9085 32.8057 26.2865 32.5694 26.511C32.3332 26.7354 31.9552 26.7118 31.7307 26.4755L28.9548 23.4279L29.3682 26.1566C29.4155 26.4755 29.1911 26.7827 28.8721 26.8299C28.8367 26.8299 28.8131 26.8299 28.7776 26.8299H28.7894Z" fill="black"/>
</svg>
