<svg width="40" height="41" viewBox="0 0 40 41" fill="none" xmlns="http://www.w3.org/2000/svg">
<path d="M13.5519 26.0621L11.3578 25.6446C11.0083 25.5767 10.6491 25.6932 10.3967 25.9359L6.86276 29.4698C6.56179 29.7708 6.71713 30.2853 7.1346 30.363L9.65881 30.8387L10.1345 33.3629C10.2122 33.7804 10.7267 33.9357 11.0277 33.6347L14.5616 30.1009C14.814 29.8484 14.9208 29.4892 14.8529 29.1397L14.4354 26.9456C14.348 26.4893 13.9985 26.1398 13.5422 26.0524" fill="#C9CACA"/>
<path d="M11.3578 25.6446C11.0083 25.5767 10.6491 25.6932 10.3967 25.9359L6.86276 29.4698C6.56179 29.7708 6.71713 30.2853 7.1346 30.363L9.65881 30.8387L14.1344 26.3631C13.9791 26.2077 13.7752 26.1009 13.5519 26.0524L11.3578 25.6349V25.6446Z" fill="#B7B7B7"/>
<path d="M16.1445 5.42165H10.3C7.93111 5.42165 5.63019 4.64497 3.75645 3.19841L3.72732 3.17899C3.42636 2.94598 3.00889 2.97511 2.74676 3.23724C2.45551 3.5285 2.45551 3.9945 2.74676 4.28576L3.08656 4.62556C5.10593 6.64493 7.83402 7.77111 10.6883 7.77111H15.795C16.2998 7.77111 16.7853 7.97499 17.1445 8.3245L24.6589 15.8389L32.1732 23.3533C32.5325 23.7125 32.7266 24.1979 32.7266 24.7028V29.8094C32.7266 32.6637 33.8625 35.4015 35.8722 37.4112L36.212 37.751C36.5032 38.0422 36.9693 38.0422 37.2605 37.751C37.5226 37.4889 37.5518 37.0714 37.3285 36.7801L37.2993 36.7413C35.8625 34.8676 35.0761 32.5666 35.0761 30.1978V24.3532C35.0761 23.4504 34.7169 22.5863 34.0761 21.9455L26.3093 14.1787L18.5425 6.41192C17.9017 5.77116 17.0377 5.41194 16.1348 5.41194" fill="#9B6A57"/>
<path d="M37.1732 36.8093L36.8334 36.4695C34.814 34.4501 33.6878 31.7123 33.6878 28.8677V23.7611C33.6878 23.2562 33.484 22.7708 33.1344 22.4116L25.6201 14.8972L18.1057 7.38281C17.7465 7.0236 17.261 6.82943 16.7562 6.82943H11.6495C8.79522 6.82943 6.05742 5.69353 4.04776 3.68387L3.70796 3.34407C3.63029 3.2664 3.57204 3.17903 3.53321 3.08194C3.26137 2.98486 2.96041 3.04311 2.75653 3.24699C2.46527 3.53824 2.46527 4.00425 2.75653 4.2955L3.09633 4.6353C5.1157 6.65467 7.84379 7.78086 10.6981 7.78086H15.8048C16.3096 7.78086 16.795 7.98474 17.1542 8.33424L24.6686 15.8486L32.183 23.363C32.5422 23.7222 32.7364 24.2077 32.7364 24.7125V29.8192C32.7364 32.6735 33.8723 35.4113 35.882 37.4209L36.2218 37.7607C36.513 38.052 36.979 38.052 37.2703 37.7607C37.4741 37.5568 37.5421 37.2462 37.445 36.984C37.3479 36.9452 37.2509 36.8967 37.1732 36.8093Z" fill="#8B5F4E"/>
<path d="M29.8442 17.674L28.1355 19.3827C27.9025 19.6157 27.5141 19.6157 27.2811 19.3827L21.1259 13.2275C20.8929 12.9945 20.8929 12.6062 21.1259 12.3732L22.8346 10.6645C23.0676 10.4315 23.456 10.4315 23.689 10.6645L29.8442 16.8197C30.0772 17.0527 30.0772 17.441 29.8442 17.674Z" fill="#F9993E"/>
<path d="M28.2423 18.4329L22.0871 12.2777C21.8541 12.0447 21.8541 11.6563 22.0871 11.4233L21.1357 12.3748C20.9027 12.6078 20.9027 12.9961 21.1357 13.2291L27.2909 19.3843C27.5239 19.6173 27.9122 19.6173 28.1452 19.3843L29.0967 18.4329C28.8637 18.6659 28.4753 18.6659 28.2423 18.4329Z" fill="#E58D39"/>
<path d="M10.6599 34.3251C10.5531 34.3251 10.4463 34.3056 10.3492 34.2765C9.97061 34.16 9.69877 33.8493 9.62111 33.461L9.21335 31.296L7.04835 30.8882C6.66001 30.8106 6.34934 30.5387 6.23284 30.1601C6.11634 29.7815 6.21342 29.3834 6.49497 29.1019L10.0289 25.568C10.4075 25.1991 10.9415 25.0243 11.456 25.1311L13.6501 25.5486C14.32 25.6748 14.8346 26.1893 14.9705 26.8592L15.388 29.0533C15.485 29.5776 15.32 30.1116 14.9414 30.4805L11.4075 34.0144C11.2036 34.2183 10.9415 34.3251 10.6599 34.3251ZM11.1551 26.1505C11.0094 26.1505 10.8735 26.2087 10.7667 26.3155L7.23282 29.8494L9.75703 30.3252C9.97061 30.364 10.1357 30.529 10.1745 30.7426L10.6502 33.2668L14.1841 29.7329C14.3103 29.6067 14.3686 29.4223 14.3297 29.2475L13.9123 27.0534C13.8637 26.8107 13.6793 26.6262 13.4366 26.5777L11.2424 26.1602C11.2424 26.1602 11.1745 26.1602 11.1453 26.1602L11.1551 26.1505Z" fill="black"/>
<path d="M9.65953 31.3735C9.52361 31.3735 9.38769 31.325 9.2906 31.2182C9.08673 31.0143 9.08673 30.6745 9.2906 30.4706L23.8437 15.9176C24.0475 15.7137 24.3873 15.7137 24.5912 15.9176C24.7951 16.1214 24.7951 16.4612 24.5912 16.6651L10.0382 31.2182C9.93137 31.325 9.79545 31.3735 9.66924 31.3735H9.65953Z" fill="black"/>
<path d="M26.766 14.2679C26.6301 14.2679 26.4941 14.2194 26.397 14.1126C26.1932 13.9087 26.1932 13.5689 26.397 13.365L33.9988 5.76326C34.2027 5.55938 34.5425 5.55938 34.7464 5.76326C34.9502 5.96714 34.9502 6.30694 34.7464 6.51082L27.1446 14.1126C27.0378 14.2194 26.9019 14.2679 26.7757 14.2679H26.766Z" fill="black"/>
<path d="M33.6291 34.6255C33.4932 34.6255 33.3573 34.577 33.2602 34.4702L14.649 15.859C14.4451 15.6551 14.4451 15.3153 14.649 15.1114C14.8529 14.9075 15.1927 14.9075 15.3966 15.1114L34.0078 33.7226C34.2116 33.9265 34.2116 34.2663 34.0078 34.4702C33.901 34.577 33.7651 34.6255 33.6388 34.6255H33.6291Z" fill="black"/>
<path d="M13.6404 14.6451C13.5045 14.6451 13.3686 14.5965 13.2715 14.4897L6.03865 7.25691C5.83477 7.05303 5.83477 6.71323 6.03865 6.50935C6.24253 6.30548 6.58233 6.30548 6.7862 6.50935L14.019 13.7422C14.2229 13.9461 14.2229 14.2859 14.019 14.4897C13.9123 14.5965 13.7763 14.6451 13.6501 14.6451H13.6404Z" fill="black"/>
<path d="M36.7468 38.5008C36.4265 38.5008 36.0964 38.3746 35.8537 38.1319L35.5139 37.7921C33.378 35.6562 32.213 32.8311 32.213 29.8117V24.705C32.213 24.3458 32.0673 23.9866 31.8052 23.7342L27.815 19.744C27.6111 19.5401 27.6111 19.2003 27.815 18.9964C28.0189 18.7926 28.3587 18.7926 28.5626 18.9964L32.5528 22.9866C33.0091 23.4429 33.2615 24.0643 33.2615 24.705V29.8117C33.2615 32.5398 34.3294 35.1126 36.2517 37.0445L36.5915 37.3843C36.6789 37.4717 36.8148 37.462 36.8925 37.3843C36.9701 37.3067 36.9701 37.1902 36.9119 37.1028C35.3779 35.1028 34.5527 32.666 34.5527 30.2V24.3555C34.5527 23.5983 34.242 22.8507 33.7081 22.3167L29.4363 18.045C29.2325 17.8411 29.2325 17.5013 29.4363 17.2974C29.6402 17.0936 29.98 17.0936 30.1839 17.2974L34.4556 21.5692C35.2032 22.3167 35.6109 23.2973 35.6109 24.3555V30.2C35.6109 32.433 36.3585 34.6465 37.7177 36.4232C38.1352 36.9669 38.0866 37.6756 37.64 38.1319C37.3973 38.3746 37.0672 38.5008 36.7468 38.5008Z" fill="black"/>
<path d="M21.1161 12.8398C20.9801 12.8398 20.8442 12.7913 20.7471 12.6845L16.7666 8.70402C16.5142 8.45159 16.155 8.29626 15.7958 8.29626H10.6891C7.67948 8.29626 4.84459 7.12153 2.70872 4.99537L2.36892 4.65557C2.12621 4.41285 2 4.10218 2 3.76238C2 3.42259 2.13592 3.10221 2.36892 2.8692C2.81551 2.42261 3.53394 2.37407 4.03879 2.76241C5.84457 4.15072 8.05811 4.89828 10.2911 4.89828H16.1356C17.1841 4.89828 18.1744 5.30604 18.9219 6.05359L23.184 10.3156C23.3878 10.5195 23.3878 10.8593 23.184 11.0632C22.9801 11.2671 22.6403 11.2671 22.4364 11.0632L18.1744 6.80115C17.6307 6.25747 16.9026 5.95651 16.1356 5.95651H10.2911C7.8251 5.95651 5.38827 5.13128 3.42715 3.62647C3.31065 3.52938 3.18444 3.53909 3.10677 3.61676C3.04852 3.67501 3.04852 3.73326 3.04852 3.76238C3.04852 3.79151 3.04852 3.85947 3.10677 3.90801L3.44657 4.24781C5.37856 6.1798 7.95131 7.23803 10.6794 7.23803H15.7861C16.4268 7.23803 17.0482 7.50016 17.5045 7.94675L21.485 11.9272C21.6889 12.1311 21.6889 12.4709 21.485 12.6748C21.3782 12.7816 21.2423 12.8301 21.1161 12.8301V12.8398Z" fill="black"/>
<path d="M27.7174 20.0821C27.4165 20.0821 27.1349 19.9656 26.9213 19.752L20.7661 13.5968C20.3293 13.1599 20.3293 12.4415 20.7661 11.9949L22.4748 10.2862C22.902 9.85903 23.6496 9.85903 24.0767 10.2862L30.2319 16.4414C30.6688 16.8783 30.6688 17.5967 30.2319 18.0433L28.5232 19.752C28.3096 19.9656 28.0281 20.0821 27.7271 20.0821H27.7174ZM23.2224 11.0338H23.2127L21.504 12.7425C21.504 12.7425 21.4749 12.8201 21.504 12.8492L27.6592 19.0044C27.6592 19.0044 27.7368 19.0336 27.766 19.0044L29.4747 17.2957C29.4747 17.2957 29.5038 17.2181 29.4747 17.189L23.3195 11.0338C23.3195 11.0338 23.2515 11.0338 23.2224 11.0338Z" fill="black"/>
<path d="M25.7972 18.4137C25.5836 18.4137 25.3895 18.2875 25.3021 18.0739C25.1953 17.8021 25.3312 17.5011 25.6031 17.3943L29.302 15.9769C29.5738 15.8701 29.8748 16.006 29.9816 16.2779C30.0884 16.5497 29.9525 16.8507 29.6806 16.9575L25.9817 18.3749C25.9234 18.3943 25.8555 18.4137 25.7972 18.4137Z" fill="black"/>
<path d="M23.64 16.2565C23.4264 16.2565 23.2322 16.1303 23.1449 15.9167C23.0381 15.6449 23.174 15.3439 23.4458 15.2371L27.1448 13.8197C27.4166 13.7129 27.7176 13.8488 27.8244 14.1206C27.9312 14.3925 27.7952 14.6934 27.5234 14.8002L23.8245 16.2177C23.7662 16.2371 23.6983 16.2565 23.64 16.2565Z" fill="black"/>
<path d="M21.4857 14.092C21.2721 14.092 21.0779 13.9657 20.9906 13.7522C20.8838 13.4803 21.0197 13.1794 21.2915 13.0726L24.9905 11.6551C25.2623 11.5483 25.5633 11.6842 25.6701 11.9561C25.7769 12.2279 25.6409 12.5289 25.3691 12.6357L21.6702 14.0531C21.6119 14.0725 21.544 14.092 21.4857 14.092Z" fill="black"/>
</svg>
