<svg width="40" height="41" viewBox="0 0 40 41" fill="none" xmlns="http://www.w3.org/2000/svg">
<g clip-path="url(#clip0_225_10311)">
<path d="M22.1892 40.0249H26.0496L25.0822 38.2202H21.9287L22.1892 40.0249Z" fill="#464356"/>
<path d="M14.4775 40.0249H18.338L18.5985 38.2202H15.445L14.4775 40.0249Z" fill="#464356"/>
<path d="M21.929 38.2207H25.0825V18.5928H20.2639H15.4453V38.2207H18.5988L20.2639 26.7044L21.929 38.2207Z" fill="#2D283D"/>
<path d="M25.0825 21.8481H15.4453V23.5226H25.0825V21.8481Z" fill="#242235"/>
<path d="M26.0507 40.4898H22.1902C21.9576 40.4898 21.7623 40.3223 21.7251 40.0898L21.4646 38.2851C21.446 38.1549 21.4832 38.0153 21.5762 37.913C21.6693 37.8107 21.7902 37.7549 21.9297 37.7549H25.0832C25.2507 37.7549 25.4088 37.8479 25.4925 37.9967L26.46 39.8014C26.5344 39.9409 26.5344 40.1177 26.4507 40.2572C26.3669 40.3967 26.2181 40.4805 26.0507 40.4805V40.4898ZM22.5995 39.5595H25.2786L24.8135 38.6851H22.4786L22.6088 39.5595H22.5995Z" fill="black"/>
<path d="M18.3391 40.4897H14.4787C14.3112 40.4897 14.1624 40.406 14.0787 40.2665C13.9949 40.1269 13.9949 39.9502 14.0693 39.8107L15.0368 38.006C15.1205 37.8572 15.2787 37.7642 15.4461 37.7642H18.5996C18.7391 37.7642 18.86 37.82 18.9531 37.9223C19.0461 38.0246 19.0833 38.1549 19.0647 38.2944L18.8042 40.099C18.767 40.3316 18.5717 40.499 18.3391 40.499V40.4897ZM15.2601 39.5595H17.9391L18.0694 38.6851H15.7345L15.2694 39.5595H15.2601Z" fill="black"/>
<path d="M25.0828 38.6856H21.9294C21.6968 38.6856 21.5014 38.5181 21.4642 38.2856L20.2549 29.9507L19.0456 38.2856C19.0084 38.5181 18.8131 38.6856 18.5805 38.6856H15.427C15.1666 38.6856 14.9619 38.4809 14.9619 38.2205V18.5926C14.9619 18.3321 15.1666 18.1274 15.427 18.1274H25.0642C25.3247 18.1274 25.5294 18.3321 25.5294 18.5926V38.2205C25.5294 38.4809 25.3247 38.6856 25.0642 38.6856H25.0828ZM22.3294 37.7554H24.6177V19.0577H15.9107V37.7554H18.1991L19.8084 26.6391C19.8456 26.4065 20.041 26.2391 20.2735 26.2391C20.5061 26.2391 20.7014 26.4065 20.7387 26.6391L22.348 37.7554H22.3294Z" fill="black"/>
<path d="M28.1711 14.5466L24.6455 7.69074L23.0269 7.57911L20.3199 7.39307L17.6129 7.57911L15.9943 7.69074L12.4688 14.5466L15.1013 18.807V22.3047H19.492L20.3199 21.5419L21.1478 22.3047H25.5385V18.807L28.1711 14.5466Z" fill="#464356"/>
<path d="M15.1016 18.8063L16.1528 11.4668L14.1621 17.2901L15.1016 18.8063Z" fill="#2D283D"/>
<path d="M25.5385 18.8063L24.4873 11.4668L26.478 17.2901L25.5385 18.8063Z" fill="#2D283D"/>
<path d="M25.5388 22.7701H21.1481C21.0272 22.7701 20.9156 22.7236 20.8319 22.6492L20.3202 22.1747L19.8086 22.6492C19.7249 22.7236 19.6133 22.7701 19.4923 22.7701H15.1016C14.8412 22.7701 14.6365 22.5654 14.6365 22.305V18.9468L12.0691 14.798C11.9853 14.6585 11.976 14.4817 12.0505 14.3422L15.576 7.47706C15.6505 7.32822 15.7993 7.2352 15.9574 7.2259L20.283 6.92822L24.6644 7.2259C24.8226 7.2352 24.9714 7.32822 25.0458 7.47706L28.5714 14.3422C28.6458 14.491 28.6365 14.6585 28.5528 14.798L25.9853 18.9468V22.305C25.9853 22.5654 25.7807 22.7701 25.5202 22.7701H25.5388ZM21.3249 21.8399H25.0737V18.8166C25.0737 18.7329 25.1016 18.6492 25.1388 18.5747L27.6319 14.5375L24.3481 8.14683L20.283 7.86776L16.283 8.14683L12.9993 14.5375L15.4923 18.5747C15.5388 18.6492 15.5574 18.7329 15.5574 18.8166V21.8399H19.3063L20.0039 21.198C20.1807 21.0305 20.4598 21.0305 20.6365 21.198L21.3249 21.8399Z" fill="black"/>
<path d="M20.2551 19.3646C19.7155 19.3646 19.2783 18.9274 19.2783 18.3879C19.2783 17.8483 19.7155 17.4111 20.2551 17.4111C20.7946 17.4111 21.2318 17.8483 21.2318 18.3879C21.2318 18.9274 20.7946 19.3646 20.2551 19.3646ZM20.2551 18.3321V18.4344L20.3016 18.3879C20.3016 18.3879 20.283 18.3414 20.2551 18.3414V18.3321Z" fill="black"/>
<path d="M20.2551 11.6342C19.7155 11.6342 19.2783 11.1969 19.2783 10.6574C19.2783 10.1179 19.7155 9.68066 20.2551 9.68066C20.7946 9.68066 21.2318 10.1179 21.2318 10.6574C21.2318 11.1969 20.7946 11.6342 20.2551 11.6342ZM20.2551 10.6016V10.7039L20.3016 10.6574C20.3016 10.6574 20.283 10.6109 20.2551 10.6109V10.6016Z" fill="black"/>
<path d="M20.2551 14.2123C19.7155 14.2123 19.2783 13.7751 19.2783 13.2355C19.2783 12.696 19.7155 12.2588 20.2551 12.2588C20.7946 12.2588 21.2318 12.696 21.2318 13.2355C21.2318 13.7751 20.7946 14.2123 20.2551 14.2123ZM20.2551 13.1797V13.282L20.3016 13.2355C20.3016 13.2355 20.283 13.189 20.2551 13.189V13.1797Z" fill="black"/>
<path d="M20.2551 16.7884C19.7155 16.7884 19.2783 16.3512 19.2783 15.8117C19.2783 15.2722 19.7155 14.835 20.2551 14.835C20.7946 14.835 21.2318 15.2722 21.2318 15.8117C21.2318 16.3512 20.7946 16.7884 20.2551 16.7884ZM20.2551 15.7559V15.8582L20.3016 15.8117C20.3016 15.8117 20.283 15.7652 20.2551 15.7652V15.7559Z" fill="black"/>
<path d="M20.2548 18.8904C20.5374 18.8904 20.7664 18.6614 20.7664 18.3788C20.7664 18.0963 20.5374 17.8672 20.2548 17.8672C19.9722 17.8672 19.7432 18.0963 19.7432 18.3788C19.7432 18.6614 19.9722 18.8904 20.2548 18.8904Z" fill="#F7EC77"/>
<path d="M20.2548 11.16C20.5374 11.16 20.7664 10.9309 20.7664 10.6483C20.7664 10.3658 20.5374 10.1367 20.2548 10.1367C19.9722 10.1367 19.7432 10.3658 19.7432 10.6483C19.7432 10.9309 19.9722 11.16 20.2548 11.16Z" fill="#F7EC77"/>
<path d="M20.2548 13.7381C20.5374 13.7381 20.7664 13.509 20.7664 13.2265C20.7664 12.9439 20.5374 12.7148 20.2548 12.7148C19.9722 12.7148 19.7432 12.9439 19.7432 13.2265C19.7432 13.509 19.9722 13.7381 20.2548 13.7381Z" fill="#F7EC77"/>
<path d="M20.2548 16.3143C20.5374 16.3143 20.7664 16.0852 20.7664 15.8026C20.7664 15.5201 20.5374 15.291 20.2548 15.291C19.9722 15.291 19.7432 15.5201 19.7432 15.8026C19.7432 16.0852 19.9722 16.3143 20.2548 16.3143Z" fill="#F7EC77"/>
<path d="M19.3064 3.61652H23.1669C23.1669 2.14675 21.8739 0.956055 20.2739 0.956055C18.6739 0.956055 17.3809 2.14675 17.3809 3.61652" fill="#4A4B46"/>
<path d="M17.3711 5.39247C17.3711 6.86223 18.6641 8.05293 20.2641 8.05293C21.8641 8.05293 23.1571 6.86223 23.1571 5.39247V3.61572H17.3711V5.39247Z" fill="#FDC9A6"/>
<path d="M23.1571 3.21631H17.3711V4.40701H23.1571V3.21631Z" fill="white"/>
<path d="M20.2644 8.52791C18.4132 8.52791 16.9062 7.12326 16.9062 5.40233V3.22558C16.9062 3.12326 16.9435 3.03023 16.9993 2.94651C17.3342 1.51395 18.6737 0.5 20.2644 0.5C21.8551 0.5 23.1946 1.52326 23.5295 2.95581C23.5853 3.03023 23.6225 3.12326 23.6225 3.22558V5.40233C23.6225 7.13256 22.1155 8.52791 20.2644 8.52791ZM17.8365 3.42093V5.40233C17.8365 6.61163 18.9249 7.59767 20.2644 7.59767C21.6039 7.59767 22.6923 6.61163 22.6923 5.40233V3.41163C22.6923 3.41163 22.6644 3.33721 22.6551 3.3C22.4783 2.21163 21.4737 1.43023 20.2644 1.43023C19.0551 1.43023 18.0504 2.23954 17.8737 3.3C17.8737 3.34651 17.8551 3.38372 17.8365 3.42093Z" fill="black"/>
<path d="M15.1014 19.2723C15.1014 19.2723 15.0549 19.2723 15.0363 19.2723C14.7851 19.235 14.6084 19.0025 14.6456 18.742L15.6874 11.4025C15.7246 11.1513 15.9665 10.9746 16.2177 11.0118C16.4688 11.049 16.6456 11.2816 16.6084 11.542L15.5665 18.8816C15.5293 19.1141 15.3339 19.2816 15.1107 19.2816L15.1014 19.2723Z" fill="black"/>
<path d="M25.5202 19.4959C25.2969 19.4959 25.0923 19.3285 25.0644 19.0959L24.0225 11.7564C23.9853 11.5052 24.1621 11.2634 24.4132 11.2262C24.6644 11.1983 24.9062 11.3657 24.9435 11.6169L25.9853 18.9564C26.0225 19.2076 25.8458 19.4494 25.5946 19.4866C25.576 19.4866 25.5481 19.4866 25.5295 19.4866L25.5202 19.4959Z" fill="black"/>
<path d="M26.0788 10.2856L24.5439 11.6996L24.7765 13.5229L27.2416 12.3694L26.0788 10.2856Z" fill="#8D58B7"/>
<path d="M24.7759 13.9878C24.7015 13.9878 24.6177 13.9692 24.5526 13.932C24.4224 13.8576 24.3387 13.7274 24.3201 13.5878L24.0875 11.7739C24.0689 11.6251 24.1247 11.4762 24.2363 11.3739L25.7712 9.95993C25.8736 9.86691 26.0224 9.8204 26.1619 9.839C26.3015 9.85761 26.4224 9.95063 26.4968 10.0716L27.6596 12.1553C27.7247 12.2669 27.734 12.4064 27.6968 12.5274C27.6596 12.6483 27.5666 12.7506 27.455 12.8064L24.9898 13.9599C24.9247 13.9878 24.8596 14.0064 24.7945 14.0064L24.7759 13.9878ZM25.0363 11.8855L25.1573 12.8344L26.5898 12.1646L25.9573 11.0297L25.027 11.8855H25.0363Z" fill="black"/>
</g>
<defs>
<clipPath id="clip0_225_10311">
<rect width="40" height="40" fill="white" transform="translate(0 0.5)"/>
</clipPath>
</defs>
</svg>
