<svg width="40" height="40" viewBox="0 0 40 40" fill="none" xmlns="http://www.w3.org/2000/svg">
<g clip-path="url(#clip0_225_10305)">
<path d="M25.6353 35.9994C23.9213 35.9994 22.0337 35.2091 21.5997 33.7657C21.3502 32.944 21.654 32.1961 21.9144 31.5429C22.153 30.9635 22.3483 30.4576 22.1639 29.9835C22.0554 29.699 22.2072 29.3831 22.5002 29.2777C22.7931 29.1723 23.1185 29.3199 23.227 29.6044C23.5633 30.4682 23.2487 31.2584 22.9666 31.9432C22.7388 32.5015 22.5435 32.9861 22.6846 33.4496C22.9775 34.4083 24.6373 34.9774 25.9499 34.8825C26.6225 34.8299 27.2517 34.6823 27.9351 34.5348C28.7162 34.3557 29.519 34.1662 30.3868 34.1346C30.7014 34.1557 30.9618 34.3664 30.9726 34.6613C30.9726 34.9669 30.734 35.2198 30.4302 35.2303C29.6708 35.2514 28.9548 35.4198 28.2063 35.5989C27.512 35.7569 26.8069 35.9256 26.0475 35.9783C25.9174 35.9783 25.7872 35.9888 25.6461 35.9888L25.6353 35.9994Z" fill="black"/>
<path d="M23.324 8.95435C16.815 6.59445 9.5684 9.80777 7.14925 16.129C4.71924 22.4501 8.02796 29.4876 14.5369 31.837C21.0458 34.1864 28.2925 30.9838 30.7116 24.6626C33.1308 18.3415 29.8329 11.3037 23.324 8.95435Z" fill="#40C6C2"/>
<path d="M26.9166 10.9594C26.5152 10.8435 26.1138 10.833 25.745 10.9804C21.1887 12.35 17.0122 14.8784 13.7686 18.2813L14.452 20.4728C18.8455 17.1331 24.3673 15.2471 29.9324 15.0786C30.0518 15.0786 30.1385 15.0363 30.2036 14.9731C29.4226 13.4455 28.316 12.0656 26.9275 10.9594" fill="#1F9B92"/>
<path d="M24.3856 9.38672C28.8226 12.5368 30.7536 18.2679 28.7358 23.5145C26.3058 29.8356 19.07 33.049 12.5611 30.6891C12.2031 30.5626 11.8451 30.415 11.5088 30.2569C12.42 30.8996 13.4398 31.4369 14.5463 31.8372C21.0552 34.1971 28.3019 30.9841 30.721 24.6629C33.01 18.6894 30.1895 12.0838 24.3856 9.38672Z" fill="#1F9B92"/>
<path d="M18.7342 30.9995C18.5498 30.9995 18.3763 30.9152 18.2678 30.7572C18.0942 30.5043 18.1593 30.167 18.4196 29.9984C19.9601 28.987 21.1317 27.4174 21.6524 25.6896C21.7392 25.3947 22.0538 25.226 22.3576 25.3103C22.6613 25.3945 22.8349 25.7002 22.7481 25.9952C22.1623 27.9653 20.8171 29.7562 19.0597 30.9046C18.9621 30.9678 18.8536 30.9995 18.7451 30.9995H18.7342Z" fill="black"/>
<path d="M28.2937 24.0839C28.2937 24.0839 28.2178 24.0839 28.1744 24.0733C27.8707 24.0101 27.6754 23.715 27.7405 23.42C28.4348 20.3437 28.1636 17.0252 27.0028 14.0859C26.4387 12.6847 25.6793 11.3467 24.7355 10.1352C24.5511 9.89284 24.5945 9.5452 24.844 9.3661C25.0935 9.187 25.4515 9.22898 25.6359 9.47129C26.6448 10.7671 27.4584 12.1789 28.0551 13.6854C29.3026 16.8249 29.5847 20.365 28.847 23.652C28.7928 23.9049 28.5541 24.0839 28.2937 24.0839Z" fill="black"/>
<path d="M18.9419 33.167C17.3906 33.167 15.8393 32.8931 14.3423 32.3558C11.0553 31.1653 8.44084 28.8056 6.97633 25.6977C5.52267 22.6003 5.39248 19.1342 6.61834 15.9314C9.14597 9.33635 16.7289 5.97547 23.5199 8.43019C27.0022 9.69443 29.7902 12.3495 31.157 15.7102C31.2764 15.9947 31.1245 16.3107 30.8425 16.4266C30.5495 16.5319 30.2241 16.3949 30.1048 16.121C28.8572 13.0447 26.3079 10.6215 23.1294 9.46263C16.935 7.21861 9.99214 10.2949 7.68147 16.3106C5.37079 22.3368 8.53848 29.0688 14.7328 31.3128C17.7378 32.398 21.0031 32.2928 23.9213 30.997C26.8394 29.7011 29.0633 27.3832 30.1807 24.4649C30.9401 22.4842 31.1354 20.3457 30.7448 18.2808C30.6906 17.9858 30.8858 17.6907 31.2004 17.638C31.515 17.5854 31.8079 17.7857 31.8622 18.0807C32.2961 20.3458 32.0791 22.6845 31.2438 24.8443C30.018 28.0365 27.588 30.5755 24.3878 31.9978C22.6412 32.7669 20.797 33.1565 18.9311 33.1565L18.9419 33.167Z" fill="black"/>
<path d="M22.7252 14.0529C21.1413 11.7457 19.0042 9.80706 16.5525 8.40586C14.9687 7.45769 10.1737 10.2181 11.3237 10.6711C14.1767 11.7036 16.7803 13.3997 18.8415 15.5805C21.2389 18.1195 22.8879 21.3118 23.5713 24.6831L25.9037 23.3976C25.7518 20.0789 24.6453 16.8131 22.736 14.0423" fill="#37AFA6"/>
<path d="M21.6108 12.5967C20.3416 13.2077 19.1157 13.9239 17.9658 14.714C18.2696 14.9985 18.5625 15.283 18.8445 15.5885C19.3219 16.0942 19.7775 16.6316 20.1897 17.1899C21.383 16.6948 22.6089 16.284 23.8673 15.9574C23.531 15.3042 23.1513 14.672 22.7282 14.061C22.3811 13.5553 22.0014 13.0708 21.6108 12.5967Z" fill="#168277"/>
<path d="M23.5635 25.2363C23.4875 25.2363 23.4008 25.2152 23.3248 25.1836C23.1621 25.1098 23.0428 24.9622 23.0102 24.7937C22.3485 21.4961 20.7646 18.4305 18.4214 15.9547C16.4253 13.8476 13.9086 12.1935 11.1206 11.1927C10.7951 11.0663 10.5998 10.8238 10.5781 10.5288C10.5673 10.3392 10.513 9.75991 12.0752 8.84334C13.2468 8.14801 15.5792 7.17866 16.8484 7.94774C19.3761 9.38054 21.5783 11.3928 23.1946 13.7527C25.1582 16.6183 26.2864 19.9476 26.4491 23.3821C26.4491 23.5928 26.3515 23.7824 26.1671 23.8878L23.8347 25.173C23.7479 25.2257 23.6503 25.2466 23.5526 25.2466L23.5635 25.2363ZM11.9016 10.3076C14.6896 11.3822 17.2281 13.068 19.2567 15.2172C21.5566 17.6614 23.1729 20.6323 23.954 23.8456L25.31 23.0976C25.1039 19.9792 24.0516 16.966 22.2617 14.3638C20.7321 12.1409 18.6601 10.2446 16.2735 8.88552C15.9589 8.69589 15.308 8.72731 14.5269 8.95908C13.3878 9.29621 12.3464 9.91783 11.9125 10.3076H11.9016Z" fill="black"/>
<path d="M7.29062 15.7853C12.769 19.5991 16.3597 25.8993 16.7503 32.4417C16.6093 33.5479 14.8844 32.9684 14.6566 31.8938C13.4416 27.311 10.4258 23.1917 6.35767 20.579C4.53517 19.6097 6.29258 15.0479 7.29062 15.7853Z" fill="#7ADDD8"/>
<path d="M16.0779 33.5893C15.2752 33.5893 14.3097 32.9677 14.1036 32.009C12.9319 27.5842 9.99207 23.5806 6.04331 21.0416C5.35988 20.6834 4.96934 19.8617 5.00189 18.7661C5.03443 17.4491 5.70702 15.6791 6.61827 15.2577C6.96541 15.0997 7.33425 15.1314 7.62716 15.3421C13.2899 19.2928 16.9132 25.6666 17.3146 32.4092C17.2278 33.1361 16.7614 33.5577 16.1322 33.5893C16.1105 33.5893 16.0888 33.5893 16.0779 33.5893ZM7.04135 16.2904C6.7376 16.5222 6.19519 17.586 6.1301 18.6922C6.10841 19.1031 6.1301 19.8407 6.61827 20.0935C10.8382 22.8011 13.9517 27.0469 15.1992 31.7561C15.2969 32.1986 15.7959 32.4725 16.0888 32.483C16.1647 32.483 16.1756 32.4829 16.1864 32.367C15.8067 26.1828 12.3027 19.9883 7.0305 16.2904H7.04135Z" fill="black"/>
<path d="M24.2908 9.3458C19.9189 11.1895 16.057 14.1708 13.2256 17.8898L14.1585 19.9968C18.1398 16.2041 23.4121 13.7284 28.923 12.9699C30.3875 12.7276 26.4821 8.22906 24.2908 9.3458Z" fill="#40C6C2"/>
<path d="M18.7465 8.18787C15.991 10.3476 13.6587 13.0132 11.9121 16.0052L13.2139 17.9014C16.0453 14.1719 19.9073 11.2011 24.2791 9.3574C25.288 8.89385 20.2761 7.11328 18.7465 8.19842" fill="#7ADDD8"/>
<path d="M14.1493 20.5578C14.1493 20.5578 14.0734 20.5578 14.0408 20.5578C13.8564 20.5262 13.7045 20.4 13.6286 20.2314L12.6957 18.1243C12.6197 17.9452 12.6414 17.7345 12.7608 17.5765C14.6158 15.1323 16.8939 13.0147 19.5192 11.2764C19.7796 11.1078 20.1267 11.1709 20.3003 11.4238C20.4739 11.6766 20.4088 12.0137 20.1484 12.1823C17.7184 13.7836 15.603 15.7327 13.8564 17.9662L14.3446 19.0619C18.25 15.5747 23.2835 13.2358 28.6317 12.4562C28.469 12.0032 27.7096 10.9601 26.5272 10.2332C26.0607 9.93816 25.1711 9.50634 24.5311 9.83293C23.6524 10.2017 22.8279 10.6019 22.0251 11.0444C21.7539 11.1919 21.4068 11.0971 21.2549 10.8337C21.1031 10.5704 21.2007 10.2333 21.4719 10.0858C22.3072 9.63275 23.1642 9.21141 24.0429 8.84268C24.9976 8.35805 26.3427 8.66339 27.7096 9.70639C28.6751 10.4439 30.0095 11.8874 29.7599 12.8567C29.6732 13.2044 29.3803 13.4465 29.0006 13.5097C23.5222 14.2683 18.391 16.7125 14.5399 20.3893C14.4314 20.4947 14.2904 20.5472 14.1385 20.5472L14.1493 20.5578Z" fill="black"/>
<path d="M13.2244 18.4486C13.0399 18.4486 12.8664 18.3644 12.7579 18.2063L11.4561 16.3099C11.3368 16.1414 11.3259 15.9098 11.4344 15.7307C13.2027 12.7071 15.611 9.94675 18.4098 7.75541C19.755 6.80723 22.7925 7.53408 24.1051 8.19781C24.5282 8.40851 25.0055 8.71399 24.9947 9.19861C24.9947 9.32503 24.9405 9.65174 24.5391 9.84138C24.257 9.9678 23.9207 9.85191 23.7797 9.57799C23.7255 9.47264 23.7146 9.35669 23.7363 9.25134C22.901 8.75618 20.0153 7.97673 19.0932 8.62992C16.5222 10.6422 14.2766 13.1917 12.5952 15.9835L13.7017 17.5955C13.8752 17.8483 13.8102 18.1854 13.5498 18.354C13.4522 18.4172 13.3437 18.4486 13.2352 18.4486H13.2244Z" fill="black"/>
<path d="M9.2873 12.569C12.5635 14.5812 15.2755 17.4783 17.0004 20.8496C18.8446 24.4632 19.5497 28.614 19.0182 32.6174C18.9097 33.671 16.7834 33.0705 16.7617 32.4279C16.3712 25.8855 12.7804 19.5958 7.30207 15.7715C6.21725 14.9708 8.15909 11.8842 9.2873 12.5585" fill="#37AFA6"/>
<path d="M18.1937 33.7328C18.1937 33.7328 18.1395 33.7328 18.1178 33.7328C17.3259 33.7012 16.2193 33.2376 16.1976 32.4369C15.818 26.1368 12.2814 19.9106 6.97664 16.2127C6.05454 15.5279 6.41253 14.1162 7.12852 13.1048C7.87705 12.0408 8.84253 11.6402 9.59106 12.0932C9.88397 12.2723 10.166 12.4514 10.4481 12.6411C10.7084 12.8202 10.7627 13.1573 10.5891 13.4101C10.4047 13.663 10.0575 13.7158 9.79718 13.5472C9.53682 13.3681 9.26562 13.189 8.99441 13.031C8.87508 12.9573 8.452 13.189 8.06147 13.7368C7.5299 14.4848 7.46481 15.2012 7.64923 15.3382C13.3012 19.2784 16.9245 25.6522 17.3367 32.3948C17.3692 32.4053 17.6947 32.5949 18.0852 32.6265C18.3347 32.6581 18.4432 32.5951 18.4649 32.5846C18.9856 28.6444 18.2914 24.5776 16.5122 21.0904C15.3298 18.7726 13.6375 16.6341 11.598 14.9063C11.3593 14.7061 11.3376 14.3585 11.5437 14.1267C11.7499 13.8949 12.1079 13.8738 12.3465 14.074C14.4945 15.8966 16.2844 18.1511 17.532 20.5953C19.4087 24.2826 20.1464 28.5705 19.604 32.6687C19.5389 33.3113 18.9965 33.7222 18.2263 33.7222L18.1937 33.7328Z" fill="black"/>
<path d="M31.8394 7.34961L33.2822 8.47696L13.2347 32.7081C12.9092 33.0979 9.01472 37.1645 8.61333 36.8484C8.21195 36.5324 11.4664 31.9706 11.781 31.5808L31.8286 7.34961H31.8394Z" fill="#AFAFAF"/>
<path d="M8.69981 37.4061C8.55878 37.4061 8.36352 37.3536 8.25504 37.2693C7.18106 36.4265 11.2925 31.2747 11.3359 31.222L31.3835 6.99087C31.5787 6.75909 31.9367 6.71687 32.1754 6.9065L33.6182 8.03385C33.7375 8.12867 33.8135 8.25494 33.8243 8.40243C33.8352 8.54993 33.7918 8.69756 33.705 8.80291L13.6575 33.0341C13.6575 33.0341 9.77378 37.2797 8.73235 37.3956C8.71066 37.3956 8.69981 37.3956 8.67812 37.3956L8.69981 37.4061ZM31.9259 8.10767L12.2255 31.9067C11.9651 32.2228 10.8152 33.8559 9.99075 35.1622C11.1298 34.1087 12.5184 32.6652 12.7896 32.3491L32.49 8.55007L31.9259 8.10767Z" fill="black"/>
<path d="M24.4199 3.17969L26.2207 3.6118L18.5944 33.8059C18.4751 34.2905 16.7068 39.5688 16.2078 39.4529C15.7088 39.337 16.6634 33.8586 16.7828 33.374L24.4091 3.17969H24.4199Z" fill="#AFAFAF"/>
<path d="M16.1866 40.0005C16.1866 40.0005 16.1215 40.0004 16.089 39.9899C14.7546 39.6738 16.2408 33.3106 16.2517 33.2474L23.878 3.05336C23.9105 2.9164 24.0082 2.7899 24.1383 2.71615C24.2685 2.64241 24.4204 2.62128 24.5614 2.65288L26.3622 3.08499C26.666 3.15874 26.8504 3.4536 26.7745 3.74859L19.1482 33.9427C19.1373 34.0059 17.5101 40.0005 16.1866 40.0005ZM24.8435 3.8435L17.3473 33.5003C17.2497 33.9006 16.9134 35.8495 16.7398 37.3666C17.304 35.9444 17.944 34.0691 18.0416 33.6687L25.5378 4.01198L24.8326 3.8435H24.8435Z" fill="black"/>
<path d="M25.3853 4.93784C26.3559 4.93784 27.1427 4.17359 27.1427 3.231C27.1427 2.2884 26.3559 1.52441 25.3853 1.52441C24.4147 1.52441 23.6279 2.2884 23.6279 3.231C23.6279 4.17359 24.4147 4.93784 25.3853 4.93784Z" fill="#7D7D7D"/>
<path d="M25.3858 5.4858C25.2014 5.4858 25.017 5.46492 24.8325 5.42278C23.585 5.12779 22.8256 3.9056 23.1294 2.69405C23.4331 1.49302 24.6915 0.744946 25.9391 1.03993C27.1866 1.33492 27.946 2.55711 27.6422 3.76867C27.3819 4.79059 26.4272 5.4858 25.3858 5.4858ZM24.2359 2.95743C24.084 3.57901 24.4745 4.20067 25.1037 4.3587C25.7438 4.51673 26.3838 4.12688 26.5466 3.51583C26.6984 2.89425 26.3079 2.27258 25.6787 2.11455C25.0387 1.96706 24.3986 2.33585 24.2359 2.95743Z" fill="black"/>
<path d="M32.6764 9.46811C33.647 9.46811 34.4338 8.70412 34.4338 7.76153C34.4338 6.81893 33.647 6.05469 32.6764 6.05469C31.7058 6.05469 30.9189 6.81893 30.9189 7.76153C30.9189 8.70412 31.7058 9.46811 32.6764 9.46811Z" fill="#7D7D7D"/>
<path d="M32.6756 10.0164C32.1657 10.0164 31.6559 9.85845 31.222 9.52132C30.7338 9.14205 30.43 8.60481 30.3649 8.0043C30.2998 7.40379 30.4734 6.81374 30.864 6.35018C31.2545 5.8761 31.8077 5.58107 32.4261 5.51786C33.0444 5.45464 33.6519 5.62342 34.1293 6.00269C34.6174 6.38197 34.9103 6.9192 34.9863 7.51972C35.0514 8.12023 34.8778 8.71002 34.4873 9.17357C34.0316 9.73194 33.3591 10.0164 32.6756 10.0164ZM32.6756 6.61357C32.6756 6.61357 32.5888 6.61357 32.5454 6.61357C32.2308 6.64517 31.9488 6.79282 31.7427 7.03513C31.5474 7.27745 31.4498 7.57223 31.4932 7.87775C31.5257 8.18327 31.6776 8.45718 31.9271 8.65735C32.4369 9.05769 33.1855 8.97349 33.5977 8.47833C33.793 8.23602 33.8906 7.94098 33.8472 7.63546C33.8147 7.32994 33.6628 7.05603 33.4133 6.85586C33.1963 6.68729 32.936 6.60302 32.6648 6.60302L32.6756 6.61357Z" fill="black"/>
<path d="M8.1257 26.654C11.6405 24.7787 15.6869 23.8622 19.6899 24.0413C23.1722 24.1993 26.6002 25.179 29.6161 26.8541C30.8962 27.5178 32.4692 22.735 31.3518 22.3347C27.8478 21.0283 24.0618 20.4382 20.3083 20.6068C15.6544 20.828 11.0764 22.2398 7.13852 24.6524C6.24896 25.0422 7.13851 27.0859 8.1257 26.6435" fill="#40C6C2"/>
<path d="M31.3501 22.3347C30.6558 22.0713 29.9398 21.8393 29.2238 21.6392C29.2564 23.23 28.6272 25.3898 27.6617 25.0948C24.1685 23.9043 23.3549 24.1571 21.6735 24.3257C20.9683 24.4205 21.706 24.1677 21.0117 24.3257C22.6823 24.0202 20.8598 24.252 22.5522 24.3257C26.0345 24.4732 26.5877 25.1684 29.6035 26.8541C30.8836 27.5178 32.4566 22.735 31.3392 22.3347" fill="#1F9B92"/>
<path d="M29.8655 27.4657C29.6919 27.4657 29.5184 27.4237 29.3556 27.3394C29.0844 27.2025 28.976 26.8651 29.117 26.5912C29.2689 26.3173 29.6051 26.2225 29.8872 26.3594L29.6268 26.844L29.8981 26.3594C29.9848 26.3384 30.3645 26.0119 30.7225 25.1585C31.2215 23.9786 31.2432 22.9883 31.1022 22.8092C27.7176 21.566 23.9749 20.9865 20.3407 21.1551C15.7736 21.3763 11.315 22.7459 7.44219 25.1164C7.31202 25.2112 7.31202 25.5905 7.56153 25.9381C7.58322 25.9697 7.76764 26.212 7.88697 26.1488C8.16902 26.0224 8.50532 26.1488 8.6355 26.4227C8.76568 26.6966 8.6355 27.0232 8.35344 27.1496C7.94121 27.3287 7.47474 27.2867 7.07335 27.0128C6.52009 26.623 6.14041 25.8328 6.2055 25.1585C6.24889 24.695 6.4984 24.3368 6.89978 24.1577C10.8702 21.7135 15.5133 20.2911 20.2757 20.0594C24.0617 19.8803 27.9671 20.4915 31.547 21.8189C31.829 21.9243 32.1762 22.1874 32.2738 22.8827C32.4365 24.147 31.6229 26.5281 30.5815 27.2234C30.3537 27.3814 30.1042 27.4552 29.8655 27.4552V27.4657Z" fill="black"/>
<path d="M8.12564 26.6538C11.6405 24.7785 15.6869 23.862 19.6899 24.0411C23.1721 24.1991 26.6002 25.1788 29.616 26.8539C31.0805 27.6967 28.0647 30.8573 26.7087 30.004C21.6209 26.9803 15.0468 26.3693 9.48167 28.4658C8.68975 28.8135 7.33372 27.0541 8.12564 26.6538Z" fill="#40C6C2"/>
<path d="M29.6159 26.8418C29.1168 26.5679 28.6178 26.3045 28.0971 26.0728C28.2164 27.1895 26.4916 28.9912 25.1572 29.1703C25.6888 29.4232 26.2095 29.6969 26.7085 30.0024C28.0646 30.8558 31.0804 27.6952 29.6159 26.8524" fill="#1F9B92"/>
<path d="M27.2388 30.6984C26.9242 30.6984 26.6422 30.6247 26.3927 30.4667C21.4459 27.5273 15.0454 26.9582 9.67553 28.981C8.89446 29.3287 7.92896 28.6335 7.49503 27.7907C7.07195 26.9478 7.41909 26.3894 7.84218 26.1682C8.11338 26.0312 8.46053 26.126 8.61241 26.3999C8.75343 26.6633 8.6558 27.0004 8.37374 27.1479C8.41714 27.1479 8.51477 27.4113 8.78597 27.6852C9.01379 27.9064 9.19821 28.0013 9.2416 27.9697C14.9369 25.8205 21.7388 26.421 26.9893 29.5394C27.1737 29.6553 27.4883 29.6028 27.8572 29.4131C28.7142 28.9707 29.4193 28.033 29.4302 27.5378C29.4302 27.4114 29.3976 27.3588 29.3108 27.3166C26.729 25.8733 23.7891 24.9567 20.8275 24.6617C20.5129 24.6301 20.2851 24.3561 20.3176 24.0611C20.3502 23.7556 20.6431 23.5344 20.936 23.566C24.0603 23.8715 27.152 24.8407 29.875 26.3683C30.3306 26.6317 30.5584 27.0532 30.5475 27.5589C30.515 28.623 29.3976 29.845 28.3779 30.3718C27.9765 30.5825 27.5751 30.6879 27.2171 30.6879L27.2388 30.6984Z" fill="black"/>
<path d="M8.12792 27.2044C7.93266 27.2044 7.73739 27.0991 7.62891 26.92C7.47703 26.6566 7.57466 26.3195 7.85672 26.172C11.1003 24.4442 14.767 23.5065 18.4771 23.4644C18.7917 23.4644 19.0412 23.7067 19.0412 24.0122C19.0412 24.3177 18.7917 24.5601 18.4771 24.5706C14.9623 24.6128 11.4692 25.4977 8.39913 27.1412C8.31234 27.1833 8.21471 27.2044 8.12792 27.2044Z" fill="black"/>
</g>
<defs>
<clipPath id="clip0_225_10305">
<rect width="40" height="40" fill="white"/>
</clipPath>
</defs>
</svg>
