<svg width="40" height="40" viewBox="0 0 40 40" fill="none" xmlns="http://www.w3.org/2000/svg">
<path d="M27.2845 38.8142H13.6836C13.9439 37.2741 15.2671 36.0996 16.8506 36.0996H24.1174C25.7009 36.0996 27.0242 37.2741 27.2845 38.8142Z" fill="#CECECE"/>
<path d="M19.3125 29.8066H21.6444V34.9591H19.3125V29.8066Z" fill="#808285"/>
<path d="M14.3984 23.833H26.5459V25.5172H14.3984V23.833Z" fill="#808285"/>
<path d="M14.3984 21.1406H26.5459V22.7029H14.3984V21.1406Z" fill="#808285"/>
<path d="M23.2063 9.09642C23.2063 9.40666 23.4557 9.66152 23.7594 9.66152H26.5577V11.7559H23.7594C23.4557 11.7559 23.2063 12.0107 23.2063 12.321C23.2063 12.6312 23.4557 12.8858 23.7594 12.8858H26.5577V14.9912H23.7594C23.4557 14.9912 23.2063 15.2461 23.2063 15.5563C23.2063 15.8666 23.4557 16.1214 23.7594 16.1214H26.5577V20.0217H14.4102V16.1214H17.2084C17.5121 16.1214 17.7616 15.8666 17.7616 15.5563C17.7616 15.2461 17.5121 14.9912 17.2084 14.9912H14.4102V12.8858H17.2084C17.5121 12.8858 17.7616 12.6312 17.7616 12.321C17.7616 12.0107 17.5121 11.7559 17.2084 11.7559H14.4102V9.66152H17.2084C17.5121 9.66152 17.7616 9.40666 17.7616 9.09642C17.7616 8.78617 17.5121 8.53131 17.2084 8.53131H14.4102V7.39001C14.4102 5.31799 15.408 3.47887 16.9481 2.34868V4.01073C16.9481 4.32098 17.1976 4.57557 17.5013 4.57557C17.805 4.57557 18.0544 4.32098 18.0544 4.01073V1.70594C18.6943 1.41785 19.3776 1.24061 20.1043 1.19629V4.01073C20.1043 4.26558 20.267 4.48717 20.5056 4.55365C20.5598 4.56473 20.6032 4.57557 20.6574 4.57557C20.9611 4.57557 21.2106 4.32098 21.2106 4.01073V1.21847C21.9481 1.30711 22.6314 1.52854 23.2713 1.86094V3.99964C23.2713 4.30989 23.5208 4.56474 23.8245 4.56474C24.1282 4.56474 24.3776 4.30989 24.3776 3.99964V2.60351C25.7225 3.74478 26.5685 5.46202 26.5685 7.37891V8.52022H23.7702C23.4666 8.52022 23.2171 8.77508 23.2171 9.08532L23.2063 9.09642Z" fill="#CECECE"/>
<path d="M20.4941 29.8066H21.6438V34.9591H20.4941V29.8066Z" fill="#58595B"/>
<path d="M26.5571 20.0109H20.4941V4.55393C20.4941 4.55393 20.5918 4.57584 20.646 4.57584C20.9497 4.57584 21.1991 4.32126 21.1991 4.01101V1.21875C21.9367 1.30739 22.6199 1.52881 23.2599 1.86122V3.99992C23.2599 4.31017 23.5093 4.56502 23.813 4.56502C24.1167 4.56502 24.3662 4.31017 24.3662 3.99992V2.60379C25.7111 3.74506 26.5571 5.4623 26.5571 7.37919V8.5205H23.7588C23.4551 8.5205 23.2056 8.77535 23.2056 9.0856C23.2056 9.39585 23.4551 9.65071 23.7588 9.65071H26.5571V11.745H23.7588C23.4551 11.745 23.2056 11.9999 23.2056 12.3101C23.2056 12.6204 23.4551 12.8753 23.7588 12.8753H26.5571V14.9804H23.7588C23.4551 14.9804 23.2056 15.2353 23.2056 15.5455C23.2056 15.8558 23.4551 16.1106 23.7588 16.1106H26.5571V20.0109Z" fill="#ADADAD"/>
<path d="M20.4941 21.1406H26.5571V22.7029H20.4941V21.1406Z" fill="#58595B"/>
<path d="M20.4941 23.833H26.5571V25.5172H20.4941V23.833Z" fill="#58595B"/>
<path d="M27.2837 38.8142H20.4941V36.0996H24.1167C25.7002 36.0996 27.0234 37.2741 27.2837 38.8142Z" fill="#ADADAD"/>
<path d="M32.3601 17.1079H29.0304C28.6941 17.1079 28.423 17.385 28.423 17.7285C28.423 18.072 28.6941 18.349 29.0304 18.349H30.0933V19.9667H27.718V7.39047C27.718 3.31292 24.4751 0 20.4837 0C16.4924 0 13.2495 3.31292 13.2495 7.39047V19.9667H10.8742V18.349H11.9371C12.2733 18.349 12.5445 18.072 12.5445 17.7285C12.5445 17.385 12.2733 17.1079 11.9371 17.1079H8.60737C8.27115 17.1079 8 17.385 8 17.7285C8 18.072 8.27115 18.349 8.60737 18.349H9.67028V26.4377C9.67028 28.3325 11.1779 29.8725 13.0325 29.8725H18.1735V34.914H16.8612C14.4534 34.914 12.4902 36.9196 12.4902 39.3794C12.4902 39.7229 12.7614 40 13.0976 40H27.9024C28.2386 40 28.5098 39.7229 28.5098 39.3794C28.5098 36.9196 26.5466 34.914 24.1388 34.914H22.8265V29.8725H27.9675C29.8221 29.8725 31.3297 28.3325 31.3297 26.4377V18.349H32.3926C32.7289 18.349 33 18.072 33 17.7285C33 17.385 32.7289 17.1079 32.3926 17.1079H32.3601ZM16.8395 36.1549H24.1063C25.6247 36.1549 26.9154 37.252 27.2082 38.7589H13.7375C14.0304 37.2409 15.321 36.1549 16.8395 36.1549ZM19.3666 34.914V29.8725H21.59V34.914H19.3666ZM17.8048 15.5568C17.8048 15.2133 17.5336 14.9362 17.1974 14.9362H14.4534V12.9417H17.1974C17.5336 12.9417 17.8048 12.6649 17.8048 12.3214C17.8048 11.9779 17.5336 11.7009 17.1974 11.7009H14.4534V9.71745H17.1974C17.5336 9.71745 17.8048 9.44037 17.8048 9.09688C17.8048 8.7534 17.5336 8.47632 17.1974 8.47632H14.4534V7.39047C14.4534 5.4625 15.3536 3.62323 16.8829 2.45979V4.0112C16.8829 4.35469 17.154 4.63149 17.4902 4.63149C17.8265 4.63149 18.0976 4.35469 18.0976 4.0112V1.73968C18.7158 1.46268 19.3774 1.29627 20.039 1.25194V4.0112C20.039 4.35469 20.3102 4.63149 20.6464 4.63149C20.9826 4.63149 21.2538 4.35469 21.2538 4.0112V1.28522C21.9371 1.37386 22.5879 1.58445 23.2061 1.90578V4.0112C23.2061 4.35469 23.4772 4.63149 23.8134 4.63149C24.1497 4.63149 24.4208 4.35469 24.4208 4.0112V2.7368C25.744 3.91131 26.5032 5.59547 26.5032 7.39047V8.47632H23.7592C23.423 8.47632 23.1518 8.7534 23.1518 9.09688C23.1518 9.44037 23.423 9.71745 23.7592 9.71745H26.5032V11.7009H23.7592C23.423 11.7009 23.1518 11.9779 23.1518 12.3214C23.1518 12.6649 23.423 12.9417 23.7592 12.9417H26.5032V14.9362H23.7592C23.423 14.9362 23.1518 15.2133 23.1518 15.5568C23.1518 15.9003 23.423 16.1773 23.7592 16.1773H26.5032V19.9667H14.4642V16.1773H17.2082C17.5445 16.1773 17.8156 15.9003 17.8156 15.5568H17.8048ZM14.4534 22.6592V21.2076H26.4924V22.6592H14.4534ZM14.4534 25.4736V23.9003H26.4924V25.4736H14.4534ZM13.846 26.7147H27.0998C27.436 26.7147 27.7072 26.4377 27.7072 26.0942V21.2076H30.0824V26.4377C30.0824 27.6455 29.1171 28.6316 27.9349 28.6316H13.0108C11.8286 28.6316 10.8633 27.6455 10.8633 26.4377V21.2076H13.2386V26.0942C13.2386 26.4377 13.5098 26.7147 13.846 26.7147Z" fill="black"/>
</svg>
