<svg width="40" height="40" viewBox="0 0 40 40" fill="none" xmlns="http://www.w3.org/2000/svg">
<path fill-rule="evenodd" clip-rule="evenodd" d="M32.9674 1.56457H12.4974C12.1395 1.56457 11.8574 1.8465 11.8574 2.20438V33.08L36.135 35.1621H37.8056C38.1528 35.1621 38.4456 34.8695 38.4456 34.5225V7.30147L34.7031 5.18675L32.9783 1.55371L32.9674 1.56457Z" fill="#F9F7F8"/>
<path fill-rule="evenodd" clip-rule="evenodd" d="M31.6695 33.0771H28.8274L27.2002 35.5824L28.8274 38.4345H31.6695L32.9062 35.7558L31.6695 33.0771Z" fill="#A1D4FF"/>
<path fill-rule="evenodd" clip-rule="evenodd" d="M11.8615 33.0787V4.15527H8.78065C8.43351 4.15527 8.14062 4.44805 8.14062 4.79509V33.3607L8.23825 33.3281C8.61793 33.1872 8.74811 33.1221 8.88913 33.1004C9.03016 33.0788 9.18202 33.0787 9.55085 33.0787H11.8506H11.8615Z" fill="#A1D4FF"/>
<path fill-rule="evenodd" clip-rule="evenodd" d="M28.8379 33.0771H9.572C9.19233 33.0771 9.04046 33.0772 8.91028 33.0989L7.69531 35.7558L8.91028 38.4128C8.97537 38.4236 9.04046 38.4345 9.13809 38.4345H28.8487V33.0771H28.8379Z" fill="#FFE07D"/>
<path fill-rule="evenodd" clip-rule="evenodd" d="M38.4449 7.30147L32.9775 1.55371V6.66165C32.9775 7.00869 33.2704 7.30147 33.6176 7.30147H38.4449Z" fill="#A1D4FF"/>
<path d="M11.8584 33.1231H10.0039V4.15625H11.8584V33.1231Z" fill="#80B4FB"/>
<path fill-rule="evenodd" clip-rule="evenodd" d="M8.89815 35.7576V33.1006C8.75713 33.1223 8.61611 33.1873 8.24728 33.3283L8.14965 33.3609L5.22071 34.3478L4.41797 35.7576L5.22071 37.1675L8.24728 38.1868C8.62696 38.3278 8.75713 38.3928 8.89815 38.4145V35.7576Z" fill="#FFE5C1"/>
<path fill-rule="evenodd" clip-rule="evenodd" d="M5.21931 34.3574L1.87906 35.4852C1.66216 35.5611 1.55371 35.6696 1.55371 35.7672C1.55371 35.8756 1.66216 35.9733 1.87906 36.0492L5.21931 37.1771V34.3574Z" fill="#375E7D"/>
<path fill-rule="evenodd" clip-rule="evenodd" d="M36.1343 37.3391V34.1616C36.1343 33.5652 35.6461 33.0771 35.0495 33.0771H31.6758V38.4345H35.0495C35.6461 38.4345 36.1343 37.9465 36.1343 37.35" fill="#EB5468"/>
<path fill-rule="evenodd" clip-rule="evenodd" d="M38.448 7.31221H33.6206C33.2735 7.31221 32.9806 7.01943 32.9806 6.67239V1.56445H28.0557C36.4194 12.9951 34.1956 29.3058 32.7637 33.0799H35.0634C35.6601 33.0799 36.1482 33.5679 36.1482 34.1644V35.162H37.8188C38.1659 35.162 38.4588 34.8694 38.4588 34.5223V7.30135L38.448 7.31221Z" fill="#DDDAEC"/>
<path d="M25.6818 15.1085C25.3781 15.1085 25.1285 14.8591 25.1285 14.5446C25.1285 14.2409 25.1285 13.9047 25.1285 13.5468H23.0566C22.8613 13.5468 22.6769 13.4383 22.5793 13.2757C22.4817 13.1021 22.4708 12.8961 22.5793 12.7226C22.8722 12.1803 24.3692 9.4908 24.6729 9.11122C24.9441 8.78587 25.3021 8.65578 25.6384 8.75339C25.9747 8.86184 26.2242 9.18721 26.2567 9.58847C26.2676 9.77283 26.2676 11.1501 26.2567 12.4298H26.3761C26.6798 12.4298 26.9293 12.6792 26.9293 12.9828C26.9293 13.2865 26.6798 13.5359 26.3761 13.5359H26.2567C26.2567 13.9914 26.2567 14.3493 26.2567 14.5337C26.2567 14.8374 26.0072 15.0868 25.7035 15.0868L25.6818 15.1085ZM24.0004 12.4406H25.1394C25.1394 11.6814 25.1394 10.9548 25.1394 10.4343C24.8357 10.9331 24.4234 11.6706 24.0004 12.4406Z" fill="black"/>
<path d="M19.4961 14.2874C19.2791 14.2874 19.0947 14.1681 18.9971 13.9729L17.1313 10.0687H15.439C15.1352 10.0687 14.8857 9.81928 14.8857 9.51562C14.8857 9.21196 15.1352 8.96251 15.439 8.96251H17.4784C17.6954 8.96251 17.8906 9.08185 17.9774 9.27706L19.5069 12.4763L22.2189 7.03207C22.3166 6.84771 22.501 6.72852 22.7179 6.72852H28.9446C29.2484 6.72852 29.4979 6.97796 29.4979 7.28162C29.4979 7.58528 29.2484 7.83459 28.9446 7.83459H23.0651L19.9951 13.9946C19.8975 14.179 19.7131 14.2983 19.4961 14.2983V14.2874Z" fill="black"/>
<path d="M28.8891 22.4631C28.6613 22.4631 28.4444 22.322 28.3685 22.0943L26.937 18.0708C26.8394 17.778 26.9804 17.4635 27.2732 17.3659C27.566 17.2574 27.8805 17.4202 27.9889 17.7021L29.4205 21.7256C29.5181 22.0184 29.3771 22.3329 29.0843 22.4305C29.0192 22.4522 28.9541 22.4631 28.8999 22.4631H28.8891Z" fill="black"/>
<path d="M28.3363 24.1338C28.2712 24.1338 28.217 24.1338 28.152 24.1012C27.8591 24.0036 27.7073 23.6892 27.8049 23.3964L29.7678 17.7028C29.8654 17.41 30.18 17.2581 30.4728 17.3557C30.7656 17.4533 30.9174 17.7678 30.8198 18.0606L28.8569 23.7542C28.781 23.982 28.564 24.1338 28.3255 24.1338H28.3363Z" fill="black"/>
<path d="M18.5387 22.2486C18.4194 22.2486 18.3 22.2161 18.2024 22.1402C17.9529 21.9558 17.9095 21.6088 18.0939 21.3594L20.9578 17.5636C21.1422 17.3142 21.5002 17.2709 21.7388 17.4552C21.9883 17.6396 22.0317 17.9866 21.8473 18.236L18.9834 22.0318C18.875 22.1728 18.7122 22.2486 18.5387 22.2486Z" fill="black"/>
<path d="M21.623 22.3119C21.4603 22.3119 21.2867 22.2359 21.1782 22.0949L18.2384 18.2233C18.054 17.9739 18.0974 17.6269 18.3469 17.4425C18.5856 17.2582 18.9436 17.3015 19.128 17.551L22.0678 21.4225C22.2522 21.672 22.2088 22.019 21.9593 22.2034C21.8617 22.2793 21.7423 22.3119 21.623 22.3119Z" fill="black"/>
<path d="M24.4447 21.7997C24.141 21.7997 23.8916 21.5504 23.8916 21.2467V18.2318C23.8916 17.9282 24.141 17.6787 24.4447 17.6787C24.7484 17.6787 24.9978 17.9282 24.9978 18.2318V21.2467C24.9978 21.5504 24.7484 21.7997 24.4447 21.7997Z" fill="black"/>
<path d="M25.9274 20.2712H22.9117C22.6079 20.2712 22.3584 20.0218 22.3584 19.7181C22.3584 19.4145 22.6079 19.165 22.9117 19.165H25.9274C26.2311 19.165 26.4806 19.4145 26.4806 19.7181C26.4806 20.0218 26.2311 20.2712 25.9274 20.2712Z" fill="black"/>
<path d="M16.7847 23.6477C16.6437 23.6477 16.5027 23.5934 16.3943 23.485C15.4182 22.5089 14.876 21.2075 14.876 19.8194C14.876 18.4312 15.4182 17.1407 16.3943 16.1646C16.6112 15.9477 16.9691 15.9477 17.186 16.1646C17.4029 16.3815 17.4029 16.7394 17.186 16.9563C16.416 17.7263 15.993 18.7457 15.993 19.8302C15.993 20.9147 16.416 21.9342 17.186 22.7042C17.4029 22.9211 17.4029 23.2789 17.186 23.4958C17.0775 23.6043 16.9365 23.6585 16.7955 23.6585L16.7847 23.6477Z" fill="black"/>
<path d="M31.8099 23.6458C31.6689 23.6458 31.528 23.5916 31.4195 23.4831C31.2026 23.2662 31.2026 22.9084 31.4195 22.6915C32.1895 21.9215 32.6125 20.902 32.6125 19.8175C32.6125 18.733 32.1895 17.7136 31.4195 16.9436C31.2026 16.7267 31.2026 16.3688 31.4195 16.1519C31.6364 15.935 31.9834 15.935 32.2112 16.1519C33.1872 17.128 33.7295 18.4294 33.7295 19.8067C33.7295 21.184 33.1872 22.4854 32.2112 23.4723C32.1027 23.5807 31.9618 23.635 31.8208 23.635L31.8099 23.6458Z" fill="black"/>
<path d="M20.2364 26.7595H16.3745C16.0708 26.7595 15.8213 26.5101 15.8213 26.2064C15.8213 25.9028 16.0708 25.6533 16.3745 25.6533H20.2364C20.5401 25.6533 20.7896 25.9028 20.7896 26.2064C20.7896 26.5101 20.5401 26.7595 20.2364 26.7595Z" fill="black"/>
<path d="M20.2364 29.1423H16.3745C16.0708 29.1423 15.8213 28.8929 15.8213 28.5892C15.8213 28.2856 16.0708 28.0361 16.3745 28.0361H20.2364C20.5401 28.0361 20.7896 28.2856 20.7896 28.5892C20.7896 28.8929 20.5401 29.1423 20.2364 29.1423Z" fill="black"/>
<path d="M38.4445 7.85397H33.6064C32.9446 7.85397 32.4131 7.32259 32.4131 6.66105V1.5531C32.4131 1.24945 32.6626 1 32.9663 1C33.2701 1 33.5196 1.24945 33.5196 1.5531V6.66105C33.5196 6.66105 33.563 6.74776 33.6064 6.74776H38.4445C38.7483 6.74776 38.9978 6.9972 38.9978 7.30086C38.9978 7.60452 38.7483 7.85397 38.4445 7.85397Z" fill="black"/>
<path d="M38.4445 7.85397H33.6064C32.9446 7.85397 32.4131 7.32259 32.4131 6.66105V1.5531C32.4131 1.24945 32.6626 1 32.9663 1C33.2701 1 33.5196 1.24945 33.5196 1.5531V6.66105C33.5196 6.66105 33.563 6.74776 33.6064 6.74776H38.4445C38.7483 6.74776 38.9978 6.9972 38.9978 7.30086C38.9978 7.60452 38.7483 7.85397 38.4445 7.85397Z" fill="black"/>
<path d="M37.807 35.7165H36.1364C35.8327 35.7165 35.5832 35.467 35.5832 35.1634C35.5832 34.8597 35.8327 34.6103 36.1364 34.6103H37.807C37.807 34.6103 37.8938 34.5671 37.8938 34.5237V7.53053L32.741 2.1189H12.5097C12.5097 2.1189 12.4229 2.15139 12.4229 2.20562V33.0812C12.4229 33.3849 12.1734 33.6343 11.8697 33.6343C11.5659 33.6343 11.3164 33.3849 11.3164 33.0812V2.20562C11.3164 1.54407 11.848 1.0127 12.5097 1.0127H32.9797C33.1316 1.0127 33.2726 1.0778 33.3811 1.18625L38.8484 6.93401C38.946 7.04246 39.0003 7.17257 39.0003 7.31356V34.5345C39.0003 35.1961 38.4687 35.7273 37.807 35.7273V35.7165Z" fill="black"/>
<path d="M8.14016 33.9142C7.83642 33.9142 7.58691 33.6647 7.58691 33.3611V21.4208C7.58691 21.1171 7.83642 20.8677 8.14016 20.8677C8.4439 20.8677 8.69341 21.1171 8.69341 21.4208V33.3611C8.69341 33.6647 8.4439 33.9142 8.14016 33.9142ZM8.14016 19.4036C7.83642 19.4036 7.58691 19.1542 7.58691 18.8505V4.79546C7.58691 4.13392 8.11846 3.60254 8.78018 3.60254H11.861C12.1647 3.60254 12.4142 3.85198 12.4142 4.15564C12.4142 4.4593 12.1647 4.70875 11.861 4.70875H8.78018C8.78018 4.70875 8.69341 4.75208 8.69341 4.79546V18.8505C8.69341 19.1542 8.4439 19.4036 8.14016 19.4036Z" fill="black"/>
<path fill-rule="evenodd" clip-rule="evenodd" d="M28.8359 36.4299H9.12527C9.02763 36.4299 8.96255 36.4299 8.89746 36.4082V38.4252C8.96255 38.4361 9.02763 38.4469 9.12527 38.4469H28.8359V36.4299Z" fill="#FFD064"/>
<path fill-rule="evenodd" clip-rule="evenodd" d="M31.6685 36.4219H28.8271V38.4389H31.6685V36.4219Z" fill="#80B4FB"/>
<path fill-rule="evenodd" clip-rule="evenodd" d="M36.1352 37.351V35.334C36.1352 35.9305 35.6471 36.4185 35.0505 36.4185H31.6768V38.4355H35.0505C35.6471 38.4355 36.1352 37.9475 36.1352 37.351Z" fill="#E5384F"/>
<path fill-rule="evenodd" clip-rule="evenodd" d="M8.89422 38.4255V36.4085C8.74239 36.3868 8.61225 36.3217 8.24352 36.1808L5.21777 35.1611V37.1784L8.24352 38.1978C8.6231 38.3388 8.75323 38.4038 8.89422 38.4255Z" fill="#FED1A3"/>
<path fill-rule="evenodd" clip-rule="evenodd" d="M5.21823 37.1762V35.1589L4.02528 34.7578L1.88882 35.4843C1.67192 35.5603 1.56348 35.6687 1.56348 35.7663C1.56348 35.8748 1.67192 35.9724 1.88882 36.0483L5.22907 37.1762H5.21823Z" fill="#2B4D66"/>
<path d="M9.2878 38.989C8.81049 38.989 8.72371 38.9673 8.27895 38.7938L8.05114 38.707L1.70512 36.5705C1.09763 36.3428 1 35.9632 1 35.7572C1 35.5511 1.08678 35.1824 1.68342 34.9547L8.27895 32.7207C8.75625 32.5363 8.83219 32.5254 9.37459 32.5254H22.6524C22.9562 32.5254 23.2057 32.7748 23.2057 33.0785C23.2057 33.3822 22.9562 33.6316 22.6524 33.6316H9.36374C9.00576 33.6316 8.99491 33.6316 8.66947 33.7509L8.43082 33.8377L2.77906 35.7463L8.66947 37.7527C8.98406 37.872 8.98406 37.8719 9.36374 37.8719H9.559H35.0407C35.3336 37.8719 35.5723 37.6333 35.5723 37.3405V34.163C35.5723 33.8702 35.3336 33.6316 35.0407 33.6316H25.0932C24.7895 33.6316 24.54 33.3822 24.54 33.0785C24.54 32.7748 24.7895 32.5254 25.0932 32.5254H35.0407C35.952 32.5254 36.6896 33.2629 36.6896 34.1738V37.3514C36.6896 38.2623 35.952 38.9998 35.0407 38.9998H9.36374C9.36374 38.9998 9.30949 38.9998 9.27695 38.9998L9.2878 38.989Z" fill="black"/>
<path d="M31.6752 38.989C31.3715 38.989 31.1221 38.7395 31.1221 38.4358V33.0785C31.1221 32.7748 31.3715 32.5254 31.6752 32.5254C31.9788 32.5254 32.2283 32.7748 32.2283 33.0785V38.4358C32.2283 38.7395 31.9788 38.989 31.6752 38.989Z" fill="black"/>
<path d="M8.89684 38.968C8.59318 38.968 8.34375 38.7185 8.34375 38.4149V33.101C8.34375 32.7973 8.59318 32.5479 8.89684 32.5479C9.2005 32.5479 9.44993 32.7973 9.44993 33.101V38.4149C9.44993 38.7185 9.2005 38.968 8.89684 38.968Z" fill="black"/>
<path d="M5.22009 37.7296C4.91643 37.7296 4.66699 37.4801 4.66699 37.1765V34.3568C4.66699 34.0532 4.91643 33.8037 5.22009 33.8037C5.52375 33.8037 5.77318 34.0532 5.77318 34.3568V37.1765C5.77318 37.4801 5.52375 37.7296 5.22009 37.7296Z" fill="black"/>
<path d="M28.8353 38.989C28.5317 38.989 28.2822 38.7395 28.2822 38.4358V33.0785C28.2822 32.7748 28.5317 32.5254 28.8353 32.5254C29.139 32.5254 29.3884 32.7748 29.3884 33.0785V38.4358C29.3884 38.7395 29.139 38.989 28.8353 38.989Z" fill="black"/>
</svg>
