<svg width="40" height="40" viewBox="0 0 40 40" fill="none" xmlns="http://www.w3.org/2000/svg">
<path d="M33.8927 6.8125H1.54395V37.437H33.8927V6.8125Z" fill="white"/>
<path d="M33.8821 38.0007C33.5847 38.0007 33.3488 37.7564 33.3488 37.4483V7.37627H1.53334C1.2359 7.37627 1 7.13193 1 6.82387C1 6.51582 1.2359 6.27148 1.53334 6.27148H33.8821C34.1796 6.27148 34.4155 6.51582 34.4155 6.82387V37.4483C34.4155 37.7564 34.1796 38.0007 33.8821 38.0007Z" fill="black"/>
<path d="M22.7018 24.2446H13.9941V15.2261H22.7018V24.2446ZM14.63 23.5861H22.066V15.8848H14.63V23.5861Z" fill="#388F4A"/>
<path d="M22.7018 32.603H13.9941V23.5845H22.7018V32.603ZM14.63 31.9442H22.066V24.2429H14.63V31.9442Z" fill="#388F4A"/>
<path d="M22.7018 37.4375H22.066V32.6045H14.63V37.4375H13.9941V31.9458H22.7018V37.4375Z" fill="#388F4A"/>
<path d="M14.6306 24.2446H5.92285V15.2261H14.6306V24.2446ZM6.55875 23.5861H13.9947V15.8848H6.55875V23.5861Z" fill="#388F4A"/>
<path d="M14.6306 32.603H5.92285V23.5845H14.6306V32.603ZM6.55875 31.9442H13.9947V24.2429H6.55875V31.9442Z" fill="#388F4A"/>
<path d="M14.6306 37.4375H13.9947V32.6045H6.55875V37.4375H5.92285V31.9458H14.6306V37.4375Z" fill="#388F4A"/>
<path d="M6.55934 24.2446H1.54395V23.5861H5.92344V15.8848H1.54395V15.2261H6.55934V24.2446Z" fill="#388F4A"/>
<path d="M6.55934 32.603H1.54395V31.9442H5.92344V24.2429H1.54395V23.5845H6.55934V32.603Z" fill="#388F4A"/>
<path d="M6.55934 37.4375H5.92344V32.6045H1.54395V31.9458H6.55934V37.4375Z" fill="#388F4A"/>
<path d="M24.2619 37.438H23.4414V14.4617H1.54395V13.6118H24.2619V37.438Z" fill="#388F4A"/>
<path d="M18.1087 20.8521L20.8369 23.6775L16.8164 25.0585L18.1087 20.8521Z" fill="#4B5378"/>
<path d="M25.8828 21.9458L20.8366 23.6771L18.1084 20.8516L19.7289 15.5723L22.8059 18.759L25.8828 21.9458Z" fill="#F5C6B0"/>
<path d="M19.7295 15.5836L32.3141 2.5498L35.3911 5.73655L22.8064 18.7704L19.7295 15.5836Z" fill="#FFD15C"/>
<path d="M22.8066 18.7594L35.3913 5.72559L38.4682 8.91233L25.8836 21.9462L22.8066 18.7594Z" fill="#FFD15C"/>
<path d="M16.8158 25.6136C16.6824 25.6136 16.5388 25.5606 16.4363 25.4544C16.2927 25.3057 16.2414 25.0932 16.303 24.8914L17.5953 20.6849C17.6568 20.5043 17.8004 20.3555 17.9747 20.313C18.1594 20.2705 18.344 20.3129 18.4773 20.4616L21.2055 23.2873C21.3389 23.4254 21.3901 23.6166 21.3491 23.8078C21.3081 23.999 21.1748 24.1476 21.0004 24.2114L16.9799 25.5923C16.9286 25.6136 16.8671 25.6242 16.8158 25.6242V25.6136ZM18.3542 21.8957L17.6465 24.2007L19.8517 23.4466L18.3645 21.8957H18.3542Z" fill="black"/>
<path d="M20.836 24.2429C20.6924 24.2429 20.5591 24.1899 20.4565 24.0837L17.7283 21.258C17.5847 21.1092 17.5334 20.8968 17.5949 20.6949L19.2155 15.4156C19.277 15.235 19.4206 15.0864 19.595 15.044C19.7796 15.0015 19.9642 15.0438 20.0975 15.1926L26.2514 21.566C26.3847 21.7041 26.436 21.8953 26.395 22.0865C26.3539 22.2777 26.2206 22.4266 26.0462 22.4903L21.0001 24.2217C20.9488 24.2429 20.8873 24.2536 20.836 24.2536V24.2429ZM18.7232 20.7056L20.9898 23.0534L24.9078 21.7149L19.995 16.6267L18.7334 20.7162L18.7232 20.7056Z" fill="black"/>
<path d="M22.8056 19.3254C22.6723 19.3254 22.5287 19.2722 22.4261 19.166L19.3492 15.9792C19.144 15.7668 19.144 15.4162 19.3492 15.1932L31.9338 2.15934C32.1492 1.94689 32.4774 1.94689 32.6928 2.15934C32.8979 2.37179 32.8979 2.72232 32.6928 2.94539L20.4876 15.5863L22.8056 17.987L35.0107 5.34609C35.2261 5.13364 35.5543 5.13364 35.7697 5.34609C35.9748 5.55853 35.9748 5.90907 35.7697 6.13214L23.1851 19.166C23.0825 19.2722 22.9389 19.3254 22.8056 19.3254Z" fill="black"/>
<path d="M25.8827 22.5012C25.7494 22.5012 25.6058 22.448 25.5032 22.3417L22.4263 19.155C22.2212 18.9425 22.2212 18.592 22.4263 18.3689L35.011 5.33512C35.2263 5.12267 35.5545 5.12267 35.7699 5.33512C35.9751 5.54757 35.9751 5.8981 35.7699 6.12117L23.5648 18.7621L25.8827 21.1628L38.0879 8.52187C38.3033 8.30942 38.6315 8.30942 38.8469 8.52187C39.052 8.73432 39.052 9.08485 38.8469 9.30792L26.2622 22.3417C26.1597 22.448 26.0161 22.5012 25.8827 22.5012Z" fill="black"/>
</svg>
