<svg width="40" height="40" viewBox="0 0 40 40" fill="none" xmlns="http://www.w3.org/2000/svg">
<path d="M27.7713 8.45703L31.4148 12.0387L28.6796 14.7277L25.0361 11.146L27.7713 8.45703Z" fill="#F77C5D"/>
<path d="M25.9541 12.048L27.7811 10.252L30.5163 12.9409L28.6893 14.737L25.9541 12.048Z" fill="#F55E3C"/>
<path d="M37.8043 2.19639C37.0545 1.45928 35.8295 1.45928 35.0691 2.19639L28.2363 8.9134L30.9715 11.6024L37.8043 4.88537C38.5541 4.14826 38.5541 2.94388 37.8043 2.19639Z" fill="#F77C5D"/>
<path d="M30.9705 11.6018L37.8033 4.88481C37.93 4.74985 38.0462 4.60432 38.1307 4.43821C37.6449 3.51423 36.4938 3.16147 35.5645 3.62865C35.3849 3.72209 35.216 3.84652 35.0681 3.99186L29.1436 9.81619L30.9705 11.6122V11.6018Z" fill="#F55E3C"/>
<path d="M35.1419 14.9345C35.8535 14.9345 36.4303 14.3674 36.4303 13.6679C36.4303 12.9684 35.8535 12.4014 35.1419 12.4014C34.4304 12.4014 33.8535 12.9684 33.8535 13.6679C33.8535 14.3674 34.4304 14.9345 35.1419 14.9345Z" fill="#F1D29A"/>
<path d="M2.92267 20.6338C2.92267 27.5689 7.6961 33.6214 14.5183 35.3552H24.8255C31.6583 33.6214 36.4212 27.5689 36.4212 20.6338H2.91211H2.92267Z" fill="#F1F6FF"/>
<path d="M36.4326 20.6338H4.21191C4.21191 27.5689 8.98535 33.6214 15.8076 35.3552H24.8264C31.6591 33.6214 36.422 27.5689 36.422 20.6338H36.4326Z" fill="#E6F0FF"/>
<path d="M36.4319 20.6338H2.92285C2.92285 21.0594 2.94397 21.4851 2.97565 21.9003H36.3686C36.4002 21.4851 36.4214 21.0594 36.4214 20.6338H36.4319Z" fill="#E6F0FF"/>
<path d="M36.4326 20.6338H4.21191C4.21191 21.0594 4.23304 21.4851 4.26472 21.9003H36.3692C36.4009 21.4851 36.422 21.0594 36.422 20.6338H36.4326Z" fill="#D7E4F7"/>
<path d="M19.6809 25.7838C15.2349 23.2091 8.39157 23.147 3.82935 25.6386L3.78711 25.6594C5.49794 30.4454 9.52156 34.0893 14.5168 35.3662H24.824C29.703 34.1204 33.6633 30.6116 35.4375 25.9709C30.8753 28.421 24.0848 28.3481 19.6704 25.7838H19.6809Z" fill="#F5DFB7"/>
<path d="M35.4487 25.9709C30.8865 28.421 24.096 28.3481 19.6816 25.7838C15.5735 23.4064 9.4272 23.1677 4.90723 25.1195C6.49133 30.1651 10.6206 34.0374 15.8059 35.3662H24.8247C29.7037 34.1204 33.664 30.6116 35.4382 25.9709H35.4487Z" fill="#FCDD5B"/>
<path d="M14.5283 35.3662V37.7437C14.5283 38.0967 14.8135 38.3771 15.1725 38.3771H24.1914C24.5504 38.3771 24.8356 38.0967 24.8356 37.7437V35.3662H14.5283Z" fill="#F1F6FF"/>
<path d="M24.8352 37.7437V35.3662H15.8164V37.7437C15.8164 38.0967 16.1015 38.3771 16.4606 38.3771H24.191C24.5501 38.3771 24.8352 38.0967 24.8352 37.7437Z" fill="#E6F0FF"/>
<path d="M2.92122 18.1016H36.4303C37.1378 18.1016 37.7187 18.6725 37.7187 19.3681C37.7187 20.0637 37.1378 20.6347 36.4303 20.6347H2.92122C2.21365 20.6347 1.63281 20.0637 1.63281 19.3681C1.63281 18.6725 2.21365 18.1016 2.92122 18.1016Z" fill="#F1F6FF"/>
<path d="M37.7203 19.3682H4.21125C3.50368 19.3682 2.92285 19.9391 2.92285 20.6347H36.4319C37.1395 20.6347 37.7203 20.0637 37.7203 19.3682Z" fill="#E6F0FF"/>
<path d="M36.4311 17.4681H27.6869C27.8558 16.596 27.9931 15.776 28.0987 15.0493L28.2255 15.1737C28.4789 15.4229 28.8802 15.4229 29.1337 15.1737L31.8689 12.4848C32.1224 12.2356 32.1224 11.8412 31.8689 11.5921L38.2476 5.32139C39.2508 4.33511 39.2508 2.72598 38.2476 1.73971C37.2443 0.75343 35.6074 0.75343 34.6041 1.73971L28.2255 8.01037C27.972 7.76121 27.5707 7.76121 27.3172 8.01037L24.582 10.6991C24.3286 10.9483 24.3286 11.3429 24.582 11.5921L24.7193 11.7269C21.3716 12.1733 16.6193 13.1493 14.5071 15.2361C13.8312 15.8798 13.2821 16.6375 12.8702 17.4681H2.9326C1.86597 17.4681 1 18.3091 1 19.3576C1 20.1674 1.52803 20.8941 2.30952 21.1537C2.5313 27.9953 7.20968 33.9131 13.884 35.8234V37.7334C13.884 38.429 14.4649 39 15.1724 39H24.1913C24.8988 39 25.4797 38.429 25.4797 37.7334V35.8234C32.1646 33.9131 36.8324 27.9953 37.0542 21.1537C38.068 20.8215 38.6066 19.7417 38.2687 18.7554C38.0047 17.9872 37.2654 17.4681 36.4417 17.4681H36.4311ZM26.3668 17.4681C26.3668 17.4681 26.3773 17.4369 26.3879 17.4161V17.4681H26.3668ZM35.5229 2.6324C36.0298 2.13407 36.843 2.13407 37.3499 2.6324C37.8568 3.13073 37.8568 3.93036 37.3499 4.42869L30.9712 10.6991L29.1442 8.90307L35.5229 2.6324ZM27.7819 9.34967L30.5171 12.0384L28.6901 13.8344L25.9549 11.1457L27.7819 9.34967ZM24.9516 17.4681H24.4553C24.8249 17.0009 25.2051 16.5234 25.6064 16.0251C25.4058 16.4923 25.184 16.9801 24.9516 17.4681ZM24.7827 14.9869C24.0857 15.8798 23.4309 16.7102 22.8078 17.4681H21.6039C22.5332 16.7102 23.5893 15.8798 24.7827 14.9869ZM19.6185 17.4681H17.7492C19.5762 16.0977 21.5933 14.9973 23.7372 14.1771C22.1214 15.3918 20.7485 16.4922 19.6185 17.4681ZM15.4153 16.1288C16.8093 14.7584 19.7241 13.9072 22.3115 13.4089C20.0937 14.3848 17.7492 15.6306 16.3236 17.0217C16.1651 17.1775 16.0384 17.3227 15.8906 17.4681H14.317C14.6233 16.9801 14.9929 16.5337 15.4048 16.1288H15.4153ZM34.9315 25.5036C31.1508 27.2893 26.8209 27.6113 22.7973 26.4173C23.4309 26.0436 24.0117 25.5971 24.5292 25.078C25.5219 23.9776 26.2612 22.6695 26.6836 21.2576H35.7552C35.6919 22.7007 35.4173 24.1332 34.9315 25.4932V25.5036ZM23.621 24.1851C22.924 24.9014 22.0791 25.4517 21.1392 25.7943C20.7907 25.6386 20.4422 25.4725 20.1148 25.2856C21.8257 24.2994 23.2725 22.9187 24.318 21.268H25.3213C24.9728 22.3477 24.3919 23.3442 23.621 24.1851ZM21.8045 22.3891C20.928 23.313 19.8614 24.0606 18.6786 24.559C18.3829 24.4344 18.0872 24.3097 17.7809 24.1955C18.8792 23.3649 19.9248 22.4619 20.8858 21.486C20.9597 21.4133 21.0442 21.3303 21.1181 21.2576H22.755C22.4699 21.6625 22.1425 22.0361 21.794 22.3891H21.8045ZM16.2179 23.718C16.0701 23.6764 15.9223 23.6558 15.7744 23.6143C16.2813 22.763 16.8833 21.974 17.5803 21.2576H19.3017C18.3723 22.1816 17.3374 23.012 16.2285 23.718H16.2179ZM14.7817 22.7733C14.7183 22.2646 14.7711 21.7456 14.9401 21.2576H15.88C15.4787 21.7352 15.1091 22.2438 14.7817 22.7733ZM12.3633 21.2576C12.5217 21.9532 12.7857 22.6175 13.1553 23.2301C10.0822 22.9601 6.99847 23.4896 4.18932 24.7458C3.85138 23.6141 3.65073 22.4411 3.59793 21.268H12.3633V21.2576ZM15.1724 37.7231V35.979H24.1913V37.7231H15.1724ZM24.751 34.7124H14.6022C10.0399 33.5289 6.32258 30.269 4.60119 25.9398C7.57931 24.5694 10.9059 24.0918 14.1586 24.5901C14.2853 24.7251 14.4121 24.8703 14.5494 25.0053C15.8483 26.4069 17.6648 27.2374 19.5974 27.2997C20.0832 27.2997 20.5584 27.2374 21.0336 27.1128C25.2473 28.7324 29.9257 28.7637 34.1606 27.2064C32.2596 30.9127 28.8274 33.6327 24.7404 34.6916L24.751 34.7124ZM36.4311 19.9911H2.92205C2.56298 19.9911 2.27784 19.7106 2.27784 19.3576C2.27784 19.0047 2.56298 18.7242 2.92205 18.7242H36.4311C36.7902 18.7242 37.0753 19.0047 37.0753 19.3576C37.0753 19.7106 36.7902 19.9911 36.4311 19.9911Z" fill="black"/>
<path d="M33.21 13.6675C33.21 14.7161 34.0759 15.5675 35.1426 15.5675C36.2092 15.5675 37.0752 14.7161 37.0752 13.6675C37.0752 12.619 36.2092 11.7676 35.1426 11.7676C34.0759 11.7676 33.21 12.619 33.21 13.6675ZM35.7868 13.6675C35.7868 14.0205 35.5016 14.3007 35.1426 14.3007C34.7835 14.3007 34.4984 14.0205 34.4984 13.6675C34.4984 13.3146 34.7835 13.0341 35.1426 13.0341C35.5016 13.0341 35.7868 13.3146 35.7868 13.6675Z" fill="black"/>
<path d="M18.3929 9.23628C18.7485 9.23628 19.0368 8.95263 19.0368 8.60288C19.0368 8.25312 18.7485 7.96973 18.3929 7.96973C18.0373 7.96973 17.749 8.25312 17.749 8.60288C17.749 8.95263 18.0373 9.23628 18.3929 9.23628Z" fill="black"/>
</svg>
