<svg width="40" height="40" viewBox="0 0 40 40" fill="none" xmlns="http://www.w3.org/2000/svg">
<g clip-path="url(#clip0_225_10340)">
<path d="M15.5091 27.6426L7.85913 35.327C7.418 35.7702 7.42961 36.4814 7.85913 36.9129C8.28864 37.3444 9.00837 37.356 9.43788 36.9129L17.0879 29.2284L15.5091 27.6426Z" fill="#E6E9ED"/>
<path d="M2.58882 26.8618L0.743073 28.716H8.11446L8.13769 28.6927V25.0078H8.12608H0.743073L2.58882 26.8618Z" fill="#D770AD"/>
<path d="M11.8407 17.5796V21.2878H15.5322V17.5796H11.8407Z" fill="#D770AD"/>
<path d="M19.2118 10.1626V13.8707H22.9033V10.1626H19.2118Z" fill="#D770AD"/>
<path d="M26.5948 2.7583V6.46637H35.5565L39.248 2.7583H26.5948Z" fill="#D770AD"/>
<path d="M26.5947 2.75728L22.9032 6.46535V10.1736V13.87L26.5947 10.1619V6.45368V2.74561V2.75728Z" fill="#EC87C0"/>
<path d="M15.5204 17.5789V21.2871L19.2119 17.5789V13.8824V10.1743L15.5204 13.8824V17.5906V17.5789Z" fill="#EC87C0"/>
<path d="M11.8398 17.5796L8.14832 21.2878V25.0192V28.7041L11.8398 24.9959V21.2878V17.5796Z" fill="#EC87C0"/>
<path d="M35.5574 6.46637L17.6223 24.4825L15.5095 27.6542L17.0883 29.2401L20.2458 27.1295L39.2373 8.05223V2.7583L35.5458 6.46637H35.5574Z" fill="#EC87C0"/>
<path d="M7.33665 37.4487C8.06798 38.1833 9.25206 38.1833 9.97178 37.4487C10.262 37.1572 10.262 36.679 9.97178 36.3875C9.68157 36.096 9.20562 36.096 8.91541 36.3875C8.7761 36.5274 8.53233 36.5274 8.39303 36.3875C8.25372 36.2476 8.25372 36.0028 8.39303 35.8628C8.68324 35.5713 8.68324 35.0932 8.39303 34.8016C8.10281 34.5101 7.62686 34.5101 7.33665 34.8016C6.60531 35.5363 6.60531 36.7257 7.33665 37.4487Z" fill="black"/>
<path d="M7.33671 35.8632C7.62693 36.1547 8.10288 36.1547 8.39309 35.8632L16.0431 28.1786C16.3333 27.8871 16.3333 27.4091 16.0431 27.1176C15.7529 26.826 15.2769 26.826 14.9867 27.1176L7.33671 34.802C7.0465 35.0936 7.0465 35.5717 7.33671 35.8632Z" fill="black"/>
<path d="M8.91582 37.4496C9.20603 37.7412 9.68198 37.7412 9.97219 37.4496L17.6222 29.765C17.9124 29.4735 17.9124 28.9955 17.6222 28.704C17.332 28.4125 16.856 28.4125 16.5658 28.704L8.91582 36.3885C8.6256 36.68 8.6256 37.1581 8.91582 37.4496Z" fill="black"/>
<path d="M14.987 28.1786L16.5658 29.7645C16.856 30.056 17.332 30.056 17.6222 29.7645C17.9124 29.4729 17.9124 28.9949 17.6222 28.7034L16.0434 27.1176C15.7532 26.826 15.2773 26.826 14.987 27.1176C14.6968 27.4091 14.6968 27.8871 14.987 28.1786Z" fill="black"/>
<path d="M14.9862 28.179C14.9862 28.179 15.0559 28.2491 15.1023 28.2724C15.439 28.5056 15.9033 28.4123 16.1355 28.0625L18.2482 24.8907C18.4804 24.5526 18.3875 24.0861 18.0393 23.8529C17.7026 23.6197 17.2383 23.713 17.0061 24.0629L14.8934 27.2346C14.696 27.5378 14.7424 27.9342 14.9862 28.179Z" fill="black"/>
<path d="M16.5647 29.7758C16.8085 30.0207 17.2032 30.0674 17.505 29.8692L20.6625 27.7468C21.0108 27.5136 21.0921 27.0472 20.8715 26.709C20.6509 26.3592 20.175 26.2776 19.8383 26.4992L16.6808 28.6214C16.3326 28.8546 16.2513 29.3211 16.4719 29.6592C16.4951 29.7059 16.5299 29.7408 16.5647 29.7758Z" fill="black"/>
<path d="M19.7345 27.6543C20.0247 27.9458 20.5006 27.9458 20.7908 27.6543L39.7823 8.57718C40.0726 8.28566 40.0726 7.80753 39.7823 7.516C39.4921 7.22448 39.0162 7.22448 38.726 7.516L19.7345 26.5931C19.4442 26.8847 19.4442 27.3628 19.7345 27.6543Z" fill="black"/>
<path d="M17.0993 25.006C17.3895 25.2975 17.8655 25.2975 18.1557 25.006L39.7823 3.28177C40.0726 2.99025 40.0726 2.51212 39.7823 2.22059C39.4921 1.92907 39.0162 1.92907 38.726 2.22059L17.0993 23.9448C16.8091 24.2363 16.8091 24.7144 17.0993 25.006Z" fill="black"/>
<path d="M38.7142 8.57679C38.8535 8.71672 39.0392 8.79827 39.2365 8.79827C39.6545 8.79827 39.9795 8.46009 39.9795 8.05196V2.75803C39.9795 2.33824 39.6428 2.01172 39.2365 2.01172C38.8186 2.01172 38.4936 2.3499 38.4936 2.75803V8.05196C38.4936 8.26186 38.5749 8.44852 38.7142 8.57679Z" fill="black"/>
<path d="M26.0609 3.28271C26.2002 3.42264 26.3859 3.50434 26.5833 3.50434H39.2365C39.6545 3.50434 39.9795 3.16616 39.9795 2.75803C39.9795 2.3499 39.6428 2.01172 39.2365 2.01172H26.5833C26.1654 2.01172 25.8403 2.3499 25.8403 2.75803C25.8403 2.96793 25.9216 3.15444 26.0609 3.28271Z" fill="black"/>
<path d="M26.061 6.98989C26.2003 7.12982 26.386 7.21137 26.5834 7.21137H35.5451C35.963 7.21137 36.2881 6.87319 36.2881 6.46506C36.2881 6.05693 35.9514 5.71875 35.5451 5.71875H26.5834C26.1655 5.71875 25.8404 6.05693 25.8404 6.46506C25.8404 6.67496 25.9217 6.86162 26.061 6.98989Z" fill="black"/>
<path d="M22.3694 14.3954C22.5087 14.5354 22.6945 14.6169 22.8918 14.6169C23.3097 14.6169 23.6348 14.2787 23.6348 13.8706V6.45432C23.6348 6.03453 23.2981 5.70801 22.8918 5.70801C22.4855 5.70801 22.1489 6.04619 22.1489 6.45432V13.8706C22.1489 14.0805 22.2301 14.2672 22.3694 14.3954Z" fill="black"/>
<path d="M26.0608 10.6873C26.2002 10.8272 26.3859 10.9089 26.5832 10.9089C27.0011 10.9089 27.3262 10.5707 27.3262 10.1626V2.74631C27.3262 2.32652 26.9895 2 26.5832 2C26.1769 2 25.8403 2.33818 25.8403 2.74631V10.1626C25.8403 10.3725 25.9215 10.559 26.0608 10.6873Z" fill="black"/>
<path d="M22.3694 6.98999C22.6596 7.28151 23.1356 7.28151 23.4258 6.98999L27.1173 3.28177C27.4075 2.99025 27.4075 2.51212 27.1173 2.22059C26.8271 1.92907 26.3511 1.92907 26.0609 2.22059L22.3694 5.92881C22.0792 6.22033 22.0792 6.69846 22.3694 6.98999Z" fill="black"/>
<path d="M22.3694 14.3951C22.6596 14.6866 23.1356 14.6866 23.4258 14.3951L27.1173 10.6869C27.4075 10.3954 27.4075 9.91739 27.1173 9.62587C26.8271 9.33435 26.3511 9.33435 26.0609 9.62587L22.3694 13.3339C22.0792 13.6255 22.0792 14.1036 22.3694 14.3951Z" fill="black"/>
<path d="M14.9983 21.8123C15.1377 21.9522 15.3234 22.0338 15.5207 22.0338C15.9386 22.0338 16.2637 21.6957 16.2637 21.2876V13.8712C16.2637 13.4514 15.927 13.125 15.5207 13.125C15.1144 13.125 14.7778 13.463 14.7778 13.8712V21.2876C14.7778 21.4975 14.859 21.684 14.9983 21.8123Z" fill="black"/>
<path d="M18.6898 18.1043C18.8291 18.2442 19.0148 18.3259 19.2121 18.3259C19.63 18.3259 19.9551 17.9877 19.9551 17.5796V10.1633C19.9551 9.74351 19.6184 9.41699 19.2121 9.41699C18.8058 9.41699 18.4692 9.75517 18.4692 10.1633V17.5796C18.4692 17.7895 18.5505 17.976 18.6898 18.1043Z" fill="black"/>
<path d="M14.9983 14.3961C15.2885 14.6876 15.7645 14.6876 16.0547 14.3961L19.7462 10.6879C20.0364 10.3964 20.0364 9.91837 19.7462 9.62684C19.456 9.33532 18.98 9.33532 18.6898 9.62684L14.9983 13.3349C14.7081 13.6264 14.7081 14.1046 14.9983 14.3961Z" fill="black"/>
<path d="M14.9983 21.8131C15.2885 22.1046 15.7645 22.1046 16.0547 21.8131L19.7462 18.1049C20.0364 17.8134 20.0364 17.3354 19.7462 17.0438C19.456 16.7523 18.98 16.7523 18.6898 17.0438L14.9983 20.7519C14.7081 21.0434 14.7081 21.5216 14.9983 21.8131Z" fill="black"/>
<path d="M18.6887 10.687C18.828 10.8269 19.0137 10.9086 19.2111 10.9086H22.9026C23.3089 10.9086 23.6455 10.5705 23.6455 10.1623C23.6455 9.7542 23.3089 9.41602 22.9026 9.41602H19.2111C18.8048 9.41602 18.4681 9.7542 18.4681 10.1623C18.4681 10.3722 18.5494 10.5587 18.6887 10.687Z" fill="black"/>
<path d="M18.6887 14.395C18.828 14.5349 19.0137 14.6165 19.2111 14.6165H22.9026C23.3205 14.6165 23.6455 14.2783 23.6455 13.8702C23.6455 13.4621 23.3089 13.124 22.9026 13.124H19.2111C18.7931 13.124 18.4681 13.4621 18.4681 13.8702C18.4681 14.0801 18.5494 14.2667 18.6887 14.395Z" fill="black"/>
<path d="M7.61457 29.2166C7.75387 29.3565 7.9396 29.4382 8.13695 29.4382C8.55486 29.4382 8.87989 29.1 8.87989 28.6919V21.2756C8.87989 20.8558 8.54325 20.5293 8.13695 20.5293C7.73065 20.5293 7.39401 20.8675 7.39401 21.2756V28.6919C7.39401 28.9018 7.47527 29.0883 7.61457 29.2166Z" fill="black"/>
<path d="M11.306 25.5087C11.4453 25.6486 11.631 25.7302 11.8283 25.7302C12.2463 25.7302 12.5713 25.392 12.5713 24.9839V17.5676C12.5713 17.1478 12.2346 16.8213 11.8283 16.8213C11.422 16.8213 11.0854 17.1595 11.0854 17.5676V24.9839C11.0854 25.1938 11.1667 25.3804 11.306 25.5087Z" fill="black"/>
<path d="M7.61454 21.8121C7.90476 22.1036 8.38071 22.1036 8.67092 21.8121L12.3624 18.1039C12.6526 17.8124 12.6526 17.3344 12.3624 17.0429C12.0722 16.7513 11.5963 16.7513 11.306 17.0429L7.61454 20.7509C7.32433 21.0425 7.32433 21.5206 7.61454 21.8121Z" fill="black"/>
<path d="M7.61454 29.2164C7.90476 29.5079 8.38071 29.5079 8.67092 29.2164L12.3624 25.5083C12.6526 25.2168 12.6526 24.7387 12.3624 24.4472C12.0722 24.1556 11.5963 24.1556 11.306 24.4472L7.61454 28.1552C7.32433 28.4467 7.32433 28.9249 7.61454 29.2164Z" fill="black"/>
<path d="M11.3068 18.103C11.4461 18.243 11.6319 18.3247 11.8292 18.3247H15.5207C15.9386 18.3247 16.2637 17.9865 16.2637 17.5783C16.2637 17.1702 15.927 16.832 15.5207 16.832H11.8292C11.4113 16.832 11.0863 17.1702 11.0863 17.5783C11.0863 17.7882 11.1675 17.9748 11.3068 18.103Z" fill="black"/>
<path d="M11.3068 21.811C11.4461 21.951 11.6319 22.0325 11.8292 22.0325H15.5207C15.9386 22.0325 16.2637 21.6945 16.2637 21.2864C16.2637 20.8782 15.927 20.54 15.5207 20.54H11.8292C11.4113 20.54 11.0863 20.8782 11.0863 21.2864C11.0863 21.4962 11.1675 21.6828 11.3068 21.811Z" fill="black"/>
<path d="M0.220791 25.5322C0.360093 25.6722 0.545843 25.7539 0.743188 25.7539H8.1262C8.5441 25.7539 8.86914 25.4157 8.86914 25.0075C8.86914 24.5994 8.53249 24.2612 8.1262 24.2612H0.743188C0.325282 24.2612 0.000244141 24.5994 0.000244141 25.0075C0.000244141 25.2174 0.0814888 25.404 0.220791 25.5322Z" fill="black"/>
<path d="M0.220791 29.2402C0.360093 29.3802 0.545843 29.4619 0.743188 29.4619H8.1262C8.5441 29.4619 8.86914 29.1237 8.86914 28.7156C8.86914 28.3074 8.53249 27.9692 8.1262 27.9692H0.743188C0.325282 27.9692 0.000244141 28.3074 0.000244141 28.7156C0.000244141 28.9254 0.0814888 29.112 0.220791 29.2402Z" fill="black"/>
<path d="M0.22007 25.5311L2.06583 27.3853C2.35605 27.6768 2.83198 27.6768 3.12219 27.3853C3.41241 27.0938 3.41241 26.6157 3.12219 26.3241L1.27645 24.4701C0.986236 24.1786 0.510283 24.1786 0.22007 24.4701C-0.0701422 24.7616 -0.0701422 25.2396 0.22007 25.5311Z" fill="black"/>
<path d="M0.22007 29.2403C0.510283 29.5318 0.986236 29.5318 1.27645 29.2403L3.12219 27.3863C3.41241 27.0947 3.41241 26.6166 3.12219 26.3251C2.83198 26.0336 2.35605 26.0336 2.06583 26.3251L0.22007 28.1791C-0.0701422 28.4706 -0.0701422 28.9488 0.22007 29.2403Z" fill="black"/>
<path d="M35.1046 23.9462C33.4562 23.5264 31.6336 24.0629 30.496 25.4739C28.9289 27.4096 29.2191 30.2548 31.1461 31.829C33.0731 33.4032 35.9056 33.1117 37.4727 31.176C38.622 29.7651 38.7729 27.8643 38.0183 26.3368C37.3218 26.8848 36.3235 26.8965 35.6037 26.3134C34.884 25.7304 34.6983 24.7392 35.093 23.9462H35.1046Z" fill="#AC92EC"/>
<path d="M35.1049 23.9468C34.7102 24.7397 34.896 25.7309 35.6157 26.314C36.3354 26.897 37.3338 26.8854 38.0303 26.3373C37.7517 25.7659 37.357 25.2411 36.8346 24.8213C36.3122 24.4016 35.7202 24.11 35.1165 23.9468H35.1049Z" fill="#656D78"/>
<path d="M30.74 32.3302C32.9456 34.126 36.1844 33.7878 37.9721 31.5839C39.7598 29.38 39.4231 26.115 37.2291 24.3192C35.0351 22.5235 31.7847 22.8617 29.997 25.0656C28.2093 27.2695 28.546 30.5345 30.74 32.3302ZM36.4165 25.3104C38.0649 26.663 38.3203 29.1002 36.9737 30.7561C35.6271 32.4119 33.201 32.6684 31.5526 31.3158C29.9042 29.9631 29.6488 27.5259 30.9954 25.8701C32.3419 24.2142 34.7681 23.9577 36.4165 25.3104Z" fill="black"/>
<path d="M35.2088 26.815C36.1375 27.573 37.4957 27.5846 38.436 26.8383C38.7146 26.6168 38.761 26.2086 38.5405 25.9288C38.3199 25.6489 37.9136 25.6022 37.635 25.8237C37.1707 26.1969 36.4858 26.1969 36.0214 25.8237C35.5571 25.4506 35.4178 24.7743 35.6848 24.2379C35.8473 23.923 35.7196 23.5382 35.3946 23.375C35.0811 23.2117 34.6864 23.34 34.5355 23.6665C34.0015 24.7393 34.2802 26.0687 35.2088 26.8267V26.815Z" fill="black"/>
</g>
<defs>
<clipPath id="clip0_225_10340">
<rect width="40" height="40" fill="white"/>
</clipPath>
</defs>
</svg>
