<svg width="40" height="40" viewBox="0 0 40 40" fill="none" xmlns="http://www.w3.org/2000/svg">
<path d="M34.9865 38.3858H4.99218C3.66509 38.3858 2.59668 37.2756 2.59668 35.9228V2.62305H27.7888L34.9865 10.0229V38.3858Z" fill="#E5E4D1"/>
<path d="M34.9868 10.0229H27.7891V2.62305L34.9868 10.0229Z" fill="#C6C3A7"/>
<path d="M28.9912 3.86328H34.9856V10.0262L28.9912 3.86328Z" fill="#E5E4D1"/>
<path d="M34.9883 5.70982H37.3845V35.9225C37.3845 37.2869 36.3045 38.3855 34.9883 38.3855V5.69824V5.70982Z" fill="#D3D1B6"/>
<path d="M4.99121 15.5762H18.1833V22.9761H4.99121V15.5762Z" fill="#F9BB4B"/>
<path d="M32.5896 30.3757H24.1885V25.4385H32.5896V30.3757Z" fill="#F9BB4B"/>
<path d="M32.5886 35.3123H5.00098V32.8496H32.5886V35.3123Z" fill="#2D75BB"/>
<path d="M20.5908 15.5762H32.5908V18.0388H20.5908V15.5762Z" fill="#F9BB4B"/>
<path d="M20.5908 20.5098H32.5908V22.9724H20.5908V20.5098Z" fill="#F9BB4B"/>
<path d="M37.3814 5.0871H35.582V3.84983C35.582 3.51452 35.3121 3.23698 34.9859 3.23698H29.239L28.2155 2.1849C28.1031 2.06927 27.9456 2 27.7882 2H2.59606C2.26991 2 2 2.27753 2 2.61285V35.9126C2 37.6123 3.33833 38.9884 5.00281 39H34.9972C36.6504 39 37.9888 37.6239 38 35.9126V5.69994C38 5.36463 37.7301 5.0871 37.4039 5.0871H37.3814ZM28.3843 4.10417L33.5351 9.39989H28.3843V4.10417ZM34.3786 37.7627H4.99156C4.00187 37.7627 3.19212 36.9301 3.19212 35.9126V3.22541H27.1809V10.0127C27.1809 10.348 27.4508 10.6256 27.7769 10.6256H34.3786V37.7627ZM34.3786 8.52113L30.4311 4.46268H34.3786V8.52113ZM36.7741 35.9126C36.7741 36.6989 36.2905 37.3926 35.5708 37.647V6.31279H36.7741V35.9126Z" fill="black"/>
<path d="M5.5979 5.713H5.77784L7.57729 10.6502H9.79285V4.4873H8.58947V9.42451H8.40953L6.61009 4.4873H4.39453V10.6502H5.5979V5.713Z" fill="black"/>
<path d="M15.7899 10.6346H16.9933C17.2407 10.6346 17.4544 10.4842 17.5556 10.2414L18.1966 8.588L18.8377 10.2414C18.9277 10.4726 19.1526 10.6346 19.4 10.6346H20.6034C20.9295 10.6346 21.1995 10.357 21.1995 10.0217V4.47168H19.9961V9.40889H19.8049L18.759 6.71474C18.6353 6.40255 18.2866 6.2409 17.983 6.36809C17.8255 6.4259 17.713 6.55286 17.6456 6.71474L16.5996 9.40889H16.4085V4.47168H15.2051V10.0217C15.2051 10.357 15.475 10.6346 15.8011 10.6346H15.7899Z" fill="black"/>
<path d="M13.9911 9.4107H12.1911V8.17343H13.9911V6.93645H12.1911V5.69918H13.9911V4.46191H10.9873V10.6248H13.9911V9.38755V9.4107Z" fill="black"/>
<path d="M25.9875 10.0217V7.55878C25.9875 7.22346 25.7176 6.94621 25.3915 6.94621H23.592V5.70895H25.9875V4.47168H22.9847C22.6586 4.47168 22.3887 4.74921 22.3887 5.08453V7.54749C22.3887 7.8828 22.6586 8.16005 22.9847 8.16005H24.7842V9.39732H22.3887V10.6346H25.3915C25.7176 10.6346 25.9875 10.357 25.9875 10.0217Z" fill="black"/>
<path d="M4.39453 11.873H33.1855V13.11H4.39453V11.873Z" fill="black"/>
<path d="M18.79 14.9629H4.39453V23.6H18.79V14.9629ZM17.5866 22.3628H5.58666V16.2002H17.5866V22.3628Z" fill="black"/>
<path d="M4.39453 27.2881H12.7957V28.5254H4.39453V27.2881Z" fill="black"/>
<path d="M4.39453 24.8262H18.79V26.0632H4.39453V24.8262Z" fill="black"/>
<path d="M4.39453 29.7598H17.5867V30.9967H4.39453V29.7598Z" fill="black"/>
<path d="M23.5918 30.9888H33.1851V24.8262H23.5918V30.9888ZM24.7952 26.0519H31.9929V29.7518H24.7952V26.0519Z" fill="black"/>
<path d="M4.39453 35.9216H33.1855V32.2217H4.39453V35.9216ZM5.5979 33.4589H31.9934V34.6962H5.5979V33.4589Z" fill="black"/>
<path d="M19.9941 18.6628H33.1863V14.9629H19.9941V18.6628ZM21.1975 16.2002H31.9941V17.4371H21.1975V16.2002Z" fill="black"/>
<path d="M19.9941 23.5867H33.1863V19.8867H19.9941V23.5867ZM21.1975 21.124H31.9941V22.361H21.1975V21.124Z" fill="black"/>
<path d="M19.9941 24.8262H22.3904V26.0632H19.9941V24.8262Z" fill="black"/>
<path d="M13.9883 27.2881H22.3894V28.5254H13.9883V27.2881Z" fill="black"/>
<path d="M18.791 29.7598H22.3899V30.9967H18.791V29.7598Z" fill="black"/>
</svg>
