<svg width="40" height="40" viewBox="0 0 40 40" fill="none" xmlns="http://www.w3.org/2000/svg">
<mask id="mask0_307_6435" style="mask-type:luminance" maskUnits="userSpaceOnUse" x="3" y="0" width="36" height="40">
<path d="M38.33 0H3V40H38.33V0Z" fill="white"/>
</mask>
<g mask="url(#mask0_307_6435)">
<path d="M9 12.6699H27.67V24.6699H9V12.6699Z" fill="#4398D1"/>
<path d="M13 24.6699H27.67V12.6699H25L13 24.6699Z" fill="#3E8CC7"/>
<path d="M11.6699 15.3301H24.9999V22.0001H11.6699V15.3301Z" fill="#87CED9"/>
<path d="M12.3301 12.6699C15.6438 12.6699 18.3301 9.98363 18.3301 6.66992C18.3301 3.35621 15.6438 0.669922 12.3301 0.669922C9.01637 0.669922 6.33008 3.35621 6.33008 6.66992C6.33008 9.98363 9.01637 12.6699 12.3301 12.6699Z" fill="#87CED9"/>
<path d="M24.3301 12.6699C27.6438 12.6699 30.3301 9.98363 30.3301 6.66992C30.3301 3.35621 27.6438 0.669922 24.3301 0.669922C21.0164 0.669922 18.3301 3.35621 18.3301 6.66992C18.3301 9.98363 21.0164 12.6699 24.3301 12.6699Z" fill="#87CED9"/>
<path d="M37.6602 24.6702H34.9902L30.9902 21.3402V16.0102L34.9902 12.6802H37.6602V24.6802V24.6702Z" fill="#4398D1"/>
<path d="M12.3302 9.33023C10.8602 9.33023 9.66016 8.14023 9.66016 6.66023C9.66016 5.18023 10.8502 3.99023 12.3302 3.99023C13.8102 3.99023 15.0002 5.18023 15.0002 6.66023C15.0002 8.14023 13.8102 9.33023 12.3302 9.33023ZM12.3302 5.33023C11.5902 5.33023 11.0002 5.93023 11.0002 6.66023C11.0002 7.39023 11.6002 7.99023 12.3302 7.99023C13.0602 7.99023 13.6602 7.39023 13.6602 6.66023C13.6602 5.93023 13.0602 5.33023 12.3302 5.33023Z" fill="#6BB6C2"/>
<path d="M27.6699 16H30.9999V21.33H27.6699V16Z" fill="#4398D1"/>
<path d="M16.3301 24.6699H20.3301V27.3399H16.3301V24.6699Z" fill="#3570AB"/>
<path d="M16.3301 18H17.6601V19.33H16.3301V18Z" fill="#2A7DB8"/>
<path d="M19 18H20.33V19.33H19V18Z" fill="#2A7DB8"/>
<path d="M21.6699 18H22.9999V19.33H21.6699V18Z" fill="#DE4C3C"/>
<path d="M13.6699 18H14.9999V19.33H13.6699V18Z" fill="#2A7DB8"/>
<path d="M21.6701 28.0002H15.0001C14.6301 28.0002 14.3301 27.7002 14.3301 27.3302C14.3301 26.9602 14.6301 26.6602 15.0001 26.6602H21.6701C22.0401 26.6602 22.3401 26.9602 22.3401 27.3302C22.3401 27.7002 22.0401 28.0002 21.6701 28.0002Z" fill="#3570AB"/>
<path d="M18.3302 40.0002C17.9602 40.0002 17.6602 39.7002 17.6602 39.3302V27.3302C17.6602 26.9602 17.9602 26.6602 18.3302 26.6602C18.7002 26.6602 19.0002 26.9602 19.0002 27.3302V39.3302C19.0002 39.7002 18.7002 40.0002 18.3302 40.0002Z" fill="#3570AB"/>
<path d="M11.0001 40.0002C10.6301 40.0002 10.3301 39.7002 10.3301 39.3302C10.3301 39.2402 10.3501 39.1402 10.3901 39.0602L15.7201 27.0602C15.8701 26.7202 16.2601 26.5702 16.6001 26.7202C16.9401 26.8702 17.0901 27.2602 16.9401 27.6002L11.6101 39.6002C11.5001 39.8402 11.2601 40.0002 11.0001 40.0002Z" fill="#3570AB"/>
<path d="M25.67 40.0002C25.41 40.0002 25.17 39.8402 25.06 39.6002L19.73 27.6002C19.58 27.2602 19.73 26.8702 20.07 26.7202C20.41 26.5702 20.8 26.7202 20.95 27.0602L26.28 39.0602C26.43 39.4002 26.28 39.7902 25.94 39.9402C25.85 39.9802 25.76 40.0002 25.67 40.0002Z" fill="#3570AB"/>
<path d="M6.33016 19.9999L3.66016 20.6699V16.6699L6.33016 17.3399V20.0099V19.9999Z" fill="#4398D1"/>
<path d="M6.33008 17.3301H9.00008V20.0001H6.33008V17.3301Z" fill="#3E8CC7"/>
<path d="M27.8701 1.82982C25.7601 6.16982 21.9001 8.95982 19.5801 10.3198C21.6001 12.9398 25.3601 13.4398 27.9901 11.4198C30.6201 9.39982 31.1101 5.63982 29.0901 3.00982C28.7401 2.55982 28.3301 2.15982 27.8701 1.81982V1.82982Z" fill="#78C3CF"/>
<path d="M24.3302 9.33023C22.8602 9.33023 21.6602 8.14023 21.6602 6.66023C21.6602 5.18023 22.8502 3.99023 24.3302 3.99023C25.8102 3.99023 27.0002 5.18023 27.0002 6.66023C27.0002 8.14023 25.8102 9.33023 24.3302 9.33023ZM24.3302 5.33023C23.5902 5.33023 23.0002 5.93023 23.0002 6.66023C23.0002 7.39023 23.6002 7.99023 24.3302 7.99023C25.0602 7.99023 25.6602 7.39023 25.6602 6.66023C25.6602 5.93023 25.0602 5.33023 24.3302 5.33023Z" fill="#6BB6C2"/>
<path d="M37.6602 11.9998H34.9902C34.8302 11.9998 34.6802 12.0498 34.5602 12.1498L30.7502 15.3298H28.3202V12.6598C28.3202 12.4698 28.2302 12.2798 28.0802 12.1598C31.1202 10.0898 31.9002 5.93978 29.8302 2.89978C27.7602 -0.140225 23.6102 -0.920225 20.5702 1.14978C19.6002 1.80978 18.8202 2.71978 18.3202 3.76978C16.7402 0.459775 12.7602 -0.930225 9.44023 0.659775C6.12023 2.24978 4.73023 6.22978 6.32023 9.54978C6.83023 10.6098 7.60023 11.5098 8.57023 12.1698C8.42023 12.2898 8.33023 12.4798 8.33023 12.6698V16.6698H6.41023L3.82023 16.0198C3.46023 15.9298 3.10023 16.1498 3.01023 16.4998C3.00023 16.5498 2.99023 16.6098 2.99023 16.6598V20.6598C2.99023 21.0298 3.29023 21.3298 3.66023 21.3298C3.71023 21.3298 3.77023 21.3298 3.82023 21.3098L6.41023 20.6598H8.33023V24.6598C8.33023 25.0298 8.63023 25.3298 9.00023 25.3298H15.6702V26.6598H15.0002C14.6302 26.6598 14.3302 26.9598 14.3302 27.3298C14.3302 27.6998 14.6302 27.9998 15.0002 27.9998H15.3102L10.3902 39.0598C10.2402 39.3998 10.3902 39.7898 10.7302 39.9398C11.0702 40.0898 11.4602 39.9398 11.6102 39.5998L16.7702 27.9998H17.6702V39.3298C17.6702 39.6998 17.9702 39.9998 18.3402 39.9998C18.7102 39.9998 19.0102 39.6998 19.0102 39.3298V27.9998H19.9102L25.0702 39.5998C25.2202 39.9398 25.6102 40.0898 25.9502 39.9398C26.2902 39.7898 26.4402 39.3998 26.2902 39.0598L21.3702 27.9998H21.6802C22.0502 27.9998 22.3502 27.6998 22.3502 27.3298C22.3502 26.9598 22.0502 26.6598 21.6802 26.6598H21.0102V25.3298H27.6802C28.0502 25.3298 28.3502 25.0298 28.3502 24.6598V21.9898H30.7802L34.5902 25.1698C34.7102 25.2698 34.8602 25.3198 35.0202 25.3198H37.6902C38.0602 25.3198 38.3602 25.0198 38.3602 24.6498V12.6498C38.3602 12.2798 38.0602 11.9798 37.6902 11.9798L37.6602 11.9998ZM24.3302 1.32978C27.2802 1.32978 29.6602 3.71978 29.6602 6.65978C29.6602 9.59978 27.2702 11.9898 24.3302 11.9898C21.3902 11.9898 19.0002 9.59978 19.0002 6.65978C19.0002 3.71978 21.3902 1.32978 24.3302 1.32978ZM20.3502 11.9998H16.3202C17.1802 11.3598 17.8702 10.5198 18.3402 9.54978C18.8102 10.5198 19.5002 11.3498 20.3602 11.9998H20.3502ZM7.00023 6.66978C7.00023 3.71978 9.39023 1.33978 12.3302 1.33978C15.2702 1.33978 17.6602 3.72978 17.6602 6.66978C17.6602 9.60978 15.2702 11.9998 12.3302 11.9998C9.39023 11.9998 7.00023 9.60978 7.00023 6.66978ZM4.33023 17.5198L5.66023 17.8498V19.4798L4.33023 19.8098V17.5198ZM7.00023 19.3298V17.9998H8.33023V19.3298H7.00023ZM19.6702 26.6598H17.0002V25.3298H19.6702V26.6598ZM27.0002 23.9898H9.67023V13.3198H27.0002V23.9898ZM28.3302 16.6598H30.3302V20.6598H28.3302V16.6598ZM37.0002 23.9898H35.2402L31.6702 21.0098V16.2998L35.2402 13.3198H37.0002V23.9898Z" fill="black"/>
<path d="M15.0002 6.67C15.0002 5.2 13.8102 4 12.3302 4C10.8502 4 9.66016 5.19 9.66016 6.67C9.66016 8.15 10.8502 9.34 12.3302 9.34C13.8102 9.34 15.0002 8.15 15.0002 6.67ZM11.0002 6.67C11.0002 5.93 11.6002 5.34 12.3302 5.34C13.0602 5.34 13.6602 5.94 13.6602 6.67C13.6602 7.4 13.0602 8 12.3302 8C11.6002 8 11.0002 7.4 11.0002 6.67Z" fill="black"/>
<path d="M24.3302 9.33023C25.8002 9.33023 27.0002 8.14023 27.0002 6.66023C27.0002 5.18023 25.8102 3.99023 24.3302 3.99023C22.8502 3.99023 21.6602 5.18023 21.6602 6.66023C21.6602 8.14023 22.8502 9.33023 24.3302 9.33023ZM24.3302 5.33023C25.0702 5.33023 25.6602 5.93023 25.6602 6.66023C25.6602 7.39023 25.0602 7.99023 24.3302 7.99023C23.6002 7.99023 23.0002 7.39023 23.0002 6.66023C23.0002 5.93023 23.6002 5.33023 24.3302 5.33023Z" fill="black"/>
<path d="M25 14.6699H11.67C11.3 14.6699 11 14.9699 11 15.3399V22.0099C11 22.3799 11.3 22.6799 11.67 22.6799H25C25.37 22.6799 25.67 22.3799 25.67 22.0099V15.3399C25.67 14.9699 25.37 14.6699 25 14.6699ZM24.33 21.3399H12.33V16.0099H24.33V21.3399Z" fill="black"/>
<path d="M16.3301 18H17.6601V19.33H16.3301V18Z" fill="black"/>
<path d="M19 18H20.33V19.33H19V18Z" fill="black"/>
<path d="M21.6699 18H22.9999V19.33H21.6699V18Z" fill="black"/>
<path d="M13.6699 18H14.9999V19.33H13.6699V18Z" fill="black"/>
</g>
</svg>
