<svg width="40" height="40" viewBox="0 0 40 40" fill="none" xmlns="http://www.w3.org/2000/svg">
<mask id="mask0_225_10361" style="mask-type:luminance" maskUnits="userSpaceOnUse" x="2" y="0" width="37" height="40">
<path d="M39 0H2V40H39V0Z" fill="white"/>
</mask>
<g mask="url(#mask0_225_10361)">
<path d="M23.4419 19.5236C23.6081 18.2418 23.7078 16.9435 23.7078 15.6452V12.605H18.954L17.4082 15.6452C17.4082 16.9435 17.4913 18.2418 17.6742 19.5236L18.5551 25.9986C18.6382 26.6231 18.5385 27.2475 18.2559 27.8063L17.4248 29.4497L20.583 30.0742L23.7411 29.4497L22.91 27.8063C22.6274 27.2475 22.5277 26.6231 22.6108 25.9986L23.4918 19.5236H23.4419Z" fill="#FFE413"/>
<path d="M17.3916 29.4497L20.5497 30.0742V16.3519C20.5497 15.6617 21.1149 15.1029 21.813 15.1029H23.7079V12.605H17.4082V15.6452C17.4082 16.9435 17.4913 18.2418 17.6742 19.5236L18.5551 25.9986C18.6382 26.6231 18.5385 27.2475 18.2559 27.8063L17.4248 29.4497H17.3916Z" fill="#F4B653"/>
<path d="M24.3224 29.4497H16.7596C16.4105 29.4497 16.1279 29.7291 16.1279 30.0742V37.5516H24.9541V30.0742C24.9541 29.7291 24.6715 29.4497 24.3224 29.4497Z" fill="#D19A6E"/>
<path d="M18.0228 33.7718V29.4497H16.7596C16.4105 29.4497 16.1279 29.7291 16.1279 30.0742V37.5516H24.9541V35.0208H19.2861C18.5879 35.0208 18.0228 34.462 18.0228 33.7718Z" fill="#C38C66"/>
<path d="M24.3232 36.9268H16.7603C15.6466 36.9268 14.7158 37.6334 14.3667 38.6194C14.2338 39.0139 14.5496 39.4247 14.9651 39.4247H26.1017C26.5172 39.4247 26.8497 39.0139 26.7001 38.6194C26.3676 37.6334 25.4202 36.9268 24.3065 36.9268H24.3232Z" fill="#FFE09F"/>
<path d="M27.1817 11.7505L26.5169 8.43081C26.334 7.55982 25.7024 6.83673 24.8381 6.55735L20.5496 5.14404L16.2612 6.55735C15.3969 6.83673 14.7653 7.55982 14.5824 8.43081L13.9176 11.7505C13.768 12.5228 14.3664 13.2459 15.1476 13.2459H25.9351C26.7329 13.2459 27.3313 12.5228 27.1651 11.7505H27.1817Z" fill="#FFE413"/>
<path d="M20.5492 0.772461C19.502 0.772461 18.6543 1.61059 18.6543 2.64592V3.27041C18.6543 4.30574 19.502 5.14387 20.5492 5.14387C21.5963 5.14387 22.4441 4.30574 22.4441 3.27041V2.64592C22.4441 1.61059 21.5963 0.772461 20.5492 0.772461Z" fill="#FFE413"/>
<path d="M21.8124 3.89509C20.7653 3.89509 19.9175 3.05696 19.9175 2.02163V0.887695C19.1862 1.15064 18.6543 1.82442 18.6543 2.64612V3.2706C18.6543 4.30594 19.502 5.14406 20.5492 5.14406C21.3969 5.14406 22.1116 4.58531 22.3443 3.81292C22.1781 3.86222 21.9953 3.89509 21.7958 3.89509H21.8124Z" fill="#F4B653"/>
<path d="M18.0235 36.9268H16.7602C15.6465 36.9268 14.7157 37.6334 14.3667 38.6194C14.2337 39.0139 14.5495 39.4247 14.9817 39.4247H18.0235V36.9268Z" fill="#F6D190"/>
<path d="M24.3227 36.3519H16.7598H16.7266V30.0742C16.7266 30.0742 16.7432 30.0413 16.7598 30.0413H24.3227C24.3227 30.0413 24.356 30.0577 24.356 30.0742V34.4456C24.356 34.7743 24.6219 35.0208 24.9377 35.0208C25.2535 35.0208 25.5195 34.7578 25.5195 34.4456V30.0742C25.5195 29.4168 24.971 28.8745 24.3061 28.8745H24.0402L23.3753 27.5598C23.1426 27.0997 23.0595 26.5902 23.126 26.0972L24.0069 19.6222C24.1898 18.324 24.2729 16.9928 24.2729 15.6781V13.8375H25.935C26.4836 13.8375 27.0155 13.591 27.3645 13.1637C27.7136 12.7365 27.8632 12.1777 27.7468 11.6518L27.0819 8.33219C26.8659 7.24756 26.068 6.36013 25.0208 6.01502L22.2284 5.09472C22.727 4.65101 23.0262 3.99365 23.0262 3.287V2.66251C23.0262 1.31494 21.9126 0.213867 20.5496 0.213867C19.1866 0.213867 18.073 1.31494 18.073 2.66251V3.287C18.073 3.99365 18.3888 4.65101 18.8708 5.09472L16.0783 6.01502C15.0146 6.36013 14.2333 7.24756 14.0173 8.33219L13.3524 11.6518C13.236 12.1941 13.3856 12.7529 13.7347 13.1637C14.0837 13.5746 14.6156 13.8375 15.1642 13.8375H23.126V15.6781C23.126 16.9435 23.0429 18.2254 22.8766 19.4743L21.9957 25.9493C21.896 26.6888 22.0289 27.4283 22.3614 28.0857L22.7603 28.8745H21.148V16.3683C21.148 16.0397 20.882 15.7932 20.5662 15.7932C20.2504 15.7932 19.9845 16.0561 19.9845 16.3683V28.8745H18.3721L18.7711 28.0857C19.1035 27.4283 19.2365 26.6724 19.1367 25.9493L18.2558 19.4743C18.0896 18.2254 18.0065 16.9435 18.0065 15.6781C18.0065 15.3494 17.7405 15.1029 17.4247 15.1029C17.1089 15.1029 16.8429 15.3659 16.8429 15.6781C16.8429 16.9928 16.9261 18.324 17.1089 19.6222L17.9898 26.0972C18.0563 26.6066 17.9732 27.1161 17.7405 27.5598L17.0757 28.8745H16.8097C16.1448 28.8745 15.5963 29.4168 15.5963 30.0742V36.5984C14.4827 37.075 13.7014 38.1596 13.7014 39.425C13.7014 39.7537 13.9674 40.0002 14.2832 40.0002H26.8991C27.2315 40.0002 27.4809 39.7373 27.4809 39.425C27.4809 37.7324 26.0846 36.3519 24.3726 36.3519H24.3227ZM19.2365 2.64608C19.2365 1.93942 19.8182 1.36424 20.533 1.36424C21.2477 1.36424 21.8295 1.93942 21.8295 2.64608V3.27056C21.8295 3.97722 21.2477 4.5524 20.533 4.5524C19.8182 4.5524 19.2365 3.97722 19.2365 3.27056V2.64608ZM14.6156 12.4242C14.4827 12.2763 14.4328 12.0627 14.4827 11.8655L15.1475 8.54583C15.2805 7.87204 15.7792 7.32973 16.4274 7.11609L20.533 5.76851L24.6385 7.11609C25.2868 7.32973 25.7854 7.88848 25.9184 8.54583L26.5833 11.8655C26.6165 12.0627 26.5833 12.2599 26.4503 12.4242C26.3173 12.5721 26.1345 12.6707 25.935 12.6707H21.1314V11.3396H24.3227C24.5222 11.3396 24.7217 11.241 24.8214 11.0602C24.9211 10.8794 24.9377 10.6658 24.8546 10.485L24.223 9.23605C24.0734 8.94024 23.7243 8.82521 23.4252 8.97311C23.126 9.12102 23.0096 9.46613 23.1592 9.76194L23.3587 10.1728H17.7073L17.9067 9.76194C18.0563 9.46613 17.94 9.12102 17.6408 8.97311C17.3416 8.82521 16.9925 8.94024 16.8429 9.23605L16.2113 10.485C16.1282 10.6658 16.1282 10.8794 16.2446 11.0602C16.3609 11.241 16.5438 11.3396 16.7432 11.3396H19.9346V12.6707H15.1309C14.9314 12.6707 14.732 12.5886 14.6156 12.4242ZM14.9148 38.8499C15.1642 38.0775 15.8955 37.5187 16.7598 37.5187H24.3227C25.1871 37.5187 25.9184 38.0775 26.1677 38.8499H14.9148Z" fill="black"/>
<path d="M22.4448 31.356H18.655C18.3226 31.356 18.0732 31.6189 18.0732 31.9311C18.0732 32.2434 18.3392 32.5063 18.655 32.5063H22.4448C22.7772 32.5063 23.0265 32.2434 23.0265 31.9311C23.0265 31.6189 22.7606 31.356 22.4448 31.356Z" fill="black"/>
<path d="M22.4448 33.854H18.655C18.3226 33.854 18.0732 34.1169 18.0732 34.4292C18.0732 34.7414 18.3392 35.0044 18.655 35.0044H22.4448C22.7772 35.0044 23.0265 34.7414 23.0265 34.4292C23.0265 34.1169 22.7606 33.854 22.4448 33.854Z" fill="black"/>
<path d="M8.53204 4.91395C7.91703 5.34123 7.38514 5.85068 6.96959 6.45873C6.83662 6.65594 6.60392 6.77098 6.35459 6.77098C6.10526 6.77098 5.87256 6.65594 5.73959 6.45873C5.30742 5.85068 4.79215 5.3248 4.17714 4.91395C3.97768 4.78248 3.86133 4.55241 3.86133 4.3059C3.86133 4.05939 3.97768 3.82932 4.17714 3.69785C4.79215 3.27057 5.32404 2.76112 5.73959 2.15306C5.87256 1.95586 6.10526 1.84082 6.35459 1.84082C6.60392 1.84082 6.83662 1.95586 6.96959 2.15306C7.40176 2.76112 7.91703 3.287 8.53204 3.69785C8.7315 3.82932 8.84785 4.05939 8.84785 4.3059C8.84785 4.55241 8.7315 4.78248 8.53204 4.91395Z" fill="#FFE413"/>
<path d="M10.1446 3.74692C8.93125 3.74692 6.90339 1.74199 6.90339 0.542317C6.90339 0.246508 6.65407 0 6.35488 0C6.05568 0 5.80636 0.246508 5.80636 0.542317C5.80636 1.74199 3.77851 3.74692 2.56512 3.74692C2.26593 3.74692 2.0166 3.99343 2.0166 4.28924C2.0166 4.58504 2.26593 4.83155 2.56512 4.83155C3.77851 4.83155 5.80636 6.83648 5.80636 8.03615C5.80636 8.33196 6.05568 8.57847 6.35488 8.57847C6.65407 8.57847 6.90339 8.33196 6.90339 8.03615C6.90339 6.83648 8.93125 4.83155 10.1446 4.83155C10.4438 4.83155 10.6932 4.58504 10.6932 4.28924C10.6932 3.99343 10.4438 3.74692 10.1446 3.74692ZM8.19989 4.47001C7.55164 4.91372 6.9865 5.47247 6.52109 6.12983L6.35488 6.37634L6.18866 6.12983C5.73987 5.48891 5.17473 4.93016 4.50986 4.47001L4.26054 4.30567L4.50986 4.14133C5.17473 3.69762 5.72325 3.13887 6.18866 2.48151L6.35488 2.235L6.52109 2.48151C6.96988 3.12243 7.53502 3.68118 8.19989 4.14133L8.44922 4.30567L8.19989 4.47001Z" fill="black"/>
<path d="M12.6873 22.038C12.0723 22.4653 11.5404 22.9747 11.1249 23.5828C10.9919 23.78 10.7592 23.895 10.5099 23.895C10.2605 23.895 10.0278 23.78 9.89486 23.5828C9.46269 22.9747 8.94742 22.4488 8.33241 22.038C8.13295 21.9065 8.0166 21.6764 8.0166 21.4299C8.0166 21.1834 8.13295 20.9533 8.33241 20.8219C8.94742 20.3946 9.47932 19.8851 9.89486 19.2771C10.0278 19.0799 10.2605 18.9648 10.5099 18.9648C10.7592 18.9648 10.9919 19.0799 11.1249 19.2771C11.557 19.8851 12.0723 20.411 12.6873 20.8219C12.8868 20.9533 13.0031 21.1834 13.0031 21.4299C13.0031 21.6764 12.8868 21.9065 12.6873 22.038Z" fill="#FFE413"/>
<path d="M14.2833 20.8875C13.0699 20.8875 11.0421 18.8826 11.0421 17.6829C11.0421 17.3871 10.7927 17.1406 10.4935 17.1406C10.1944 17.1406 9.94503 17.3871 9.94503 17.6829C9.94503 18.8826 7.91718 20.8875 6.70379 20.8875C6.4046 20.8875 6.15527 21.1341 6.15527 21.4299C6.15527 21.7257 6.4046 21.9722 6.70379 21.9722C7.91718 21.9722 9.94503 23.9771 9.94503 25.1768C9.94503 25.4726 10.1944 25.7191 10.4935 25.7191C10.7927 25.7191 11.0421 25.4726 11.0421 25.1768C11.0421 23.9771 13.0699 21.9722 14.2833 21.9722C14.5825 21.9722 14.8318 21.7257 14.8318 21.4299C14.8318 21.1341 14.5825 20.8875 14.2833 20.8875ZM12.3386 21.6106C11.6903 22.0543 11.1252 22.6131 10.6598 23.2705L10.4935 23.517L10.3273 23.2705C9.87854 22.6295 9.3134 22.0708 8.64853 21.6106L8.39921 21.4463L8.64853 21.282C9.3134 20.8382 9.86192 20.2795 10.3273 19.6221L10.4935 19.3756L10.6598 19.6221C11.1086 20.2631 11.6737 20.8218 12.3386 21.282L12.5879 21.4463L12.3386 21.6106Z" fill="black"/>
<path d="M36.8387 10.4027C36.2237 10.83 35.6918 11.3395 35.2762 11.9475C35.1433 12.1447 34.9106 12.2597 34.6612 12.2597C34.4119 12.2597 34.1792 12.1447 34.0462 11.9475C33.6141 11.3395 33.0988 10.8136 32.4838 10.4027C32.2843 10.2712 32.168 10.0412 32.168 9.79467C32.168 9.54816 32.2843 9.31809 32.4838 9.18662C33.0988 8.75934 33.6307 8.24989 34.0462 7.64183C34.1792 7.44463 34.4119 7.32959 34.6612 7.32959C34.9106 7.32959 35.1433 7.44463 35.2762 7.64183C35.7084 8.24989 36.2237 8.77577 36.8387 9.18662C37.0381 9.31809 37.1545 9.54816 37.1545 9.79467C37.1545 10.0412 37.0381 10.2712 36.8387 10.4027Z" fill="#FFE413"/>
<path d="M38.4513 9.23569C37.2379 9.23569 35.21 7.23076 35.21 6.03109C35.21 5.73528 34.9607 5.48877 34.6615 5.48877C34.3623 5.48877 34.113 5.73528 34.113 6.03109C34.113 7.23076 32.0851 9.23569 30.8718 9.23569C30.5726 9.23569 30.3232 9.4822 30.3232 9.77801C30.3232 10.0738 30.5726 10.3203 30.8718 10.3203C32.0851 10.3203 34.113 12.3253 34.113 13.5249C34.113 13.8207 34.3623 14.0672 34.6615 14.0672C34.9607 14.0672 35.21 13.8207 35.21 13.5249C35.21 12.3253 37.2379 10.3203 38.4513 10.3203C38.7505 10.3203 38.9998 10.0738 38.9998 9.77801C38.9998 9.4822 38.7505 9.23569 38.4513 9.23569ZM36.5065 9.95878C35.8583 10.4025 35.2931 10.9612 34.8277 11.6186L34.6615 11.8651L34.4953 11.6186C34.0465 10.9777 33.4814 10.4189 32.8165 9.95878L32.5672 9.79444L32.8165 9.6301C33.4814 9.18639 34.0299 8.62764 34.4953 7.97028L34.6615 7.72377L34.8277 7.97028C35.2765 8.6112 35.8417 9.16995 36.5065 9.6301L36.7559 9.79444L36.5065 9.95878Z" fill="black"/>
</g>
</svg>
