<svg width="40" height="40" viewBox="0 0 40 40" fill="none" xmlns="http://www.w3.org/2000/svg">
<g clip-path="url(#clip0_225_10355)">
<path fill-rule="evenodd" clip-rule="evenodd" d="M18.3494 19.2603L15.9841 21.2307L13.6797 23.1707C13.6797 23.1707 19.1006 28.6961 19.1513 28.7875L21.1207 26.3702L23.0495 23.9731L18.3392 19.2603H18.3494Z" fill="#494949"/>
<path d="M19.151 29.4578C19.151 29.4578 19.1003 29.4578 19.08 29.4578C18.8973 29.4375 18.745 29.3461 18.6333 29.2039C18.3694 28.8992 15.2529 25.72 13.2124 23.6378C13.0804 23.5058 13.0195 23.323 13.0195 23.1402C13.0195 22.9573 13.1109 22.7847 13.253 22.6628L17.9227 18.7523C18.1866 18.5289 18.5724 18.5492 18.816 18.7929L23.5263 23.5058C23.7598 23.7394 23.7801 24.1254 23.5771 24.3895L19.6688 29.2141C19.547 29.3664 19.3541 29.4578 19.1612 29.4578H19.151ZM14.6539 23.2214C17.2426 25.8622 18.5013 27.1522 19.1206 27.7921L22.1762 24.0137L18.3085 20.154L14.6539 23.2214Z" fill="black"/>
<path fill-rule="evenodd" clip-rule="evenodd" d="M37.3735 8.22087L33.8611 4.70654L18.3496 19.2616L23.0599 23.9744L37.3837 8.22087H37.3735Z" fill="#F3A766"/>
<path d="M23.0596 24.6341C22.887 24.6341 22.7144 24.563 22.5926 24.4411L17.8823 19.7282C17.7605 19.6063 17.6895 19.4337 17.6895 19.2509C17.6895 19.068 17.7707 18.9055 17.9026 18.7836L33.4243 4.22861C33.6882 3.98484 34.0943 3.995 34.3379 4.23877L37.8503 7.7531C38.1041 8.00702 38.1041 8.40315 37.8706 8.66723L23.557 24.4106C23.4352 24.5427 23.2626 24.6239 23.0901 24.6239H23.0698L23.0596 24.6341ZM19.3035 19.2813L23.0393 23.0191L36.4697 8.25079L33.8608 5.64044L19.3035 19.2915V19.2813Z" fill="black"/>
<path fill-rule="evenodd" clip-rule="evenodd" d="M39.3431 5.95494L36.0541 2.66406L33.8613 4.71578L37.3738 8.23011L39.3431 5.95494Z" fill="#494949"/>
<path d="M37.3734 8.88029C37.2009 8.88029 37.0283 8.80919 36.9065 8.68731L33.394 5.17298C33.2722 5.05109 33.2012 4.87842 33.2012 4.6956C33.2012 4.51277 33.2824 4.35026 33.4144 4.22837L35.6071 2.17665C35.871 1.93288 36.2771 1.94304 36.5207 2.19697L39.8098 5.48784C40.0534 5.73161 40.0636 6.12774 39.8403 6.39182L37.8709 8.66699C37.749 8.80919 37.5765 8.89045 37.3937 8.89045H37.3734V8.88029ZM34.8153 4.72607L37.343 7.25517L38.4393 5.98554L36.0334 3.57832L34.8051 4.72607H34.8153Z" fill="black"/>
<path d="M16.0141 33.4604C16.0953 33.6026 16.1765 33.7447 16.2475 33.8767C16.278 33.8564 16.2983 33.8259 16.3288 33.8056L16.0039 33.4604H16.0141Z" fill="#99A4AC"/>
<path d="M16.2678 34.5054C16.2678 34.5054 16.217 34.5054 16.1866 34.5054C15.9937 34.4749 15.7805 34.3937 15.6891 34.2313C15.6079 34.0892 15.5166 33.9471 15.4353 33.7948C15.2729 33.5004 15.3643 33.1349 15.6282 32.9421C15.9023 32.7492 16.2678 32.7898 16.5013 33.0334L16.8261 33.3786C16.9479 33.5105 17.0088 33.6831 16.9987 33.8658C16.9885 34.0486 16.9073 34.211 16.7652 34.3328C16.6332 34.4445 16.4403 34.5257 16.2678 34.5257V34.5054Z" fill="black"/>
<path d="M18.7039 28.2696L14.1662 23.6583L12.9683 23.5669C12.3288 23.6177 11.5775 23.7396 10.7553 24.156C10.0041 24.5318 9.35437 25.0904 8.85694 25.7507C8.78588 25.8421 8.72497 25.9335 8.66406 26.0249C8.81634 27.1422 9.17164 28.0766 9.72997 28.7876C10.1259 29.3056 11.5471 29.6002 12.7653 29.9557C13.5063 30.169 14.1662 30.4026 14.4809 30.7174C15.3133 31.5503 15.4453 32.3832 15.9731 33.3887C15.9833 33.4091 16.0036 33.4395 16.0138 33.4598L16.3386 33.8052C16.4097 33.7442 16.4706 33.6833 16.5416 33.6224C18.1862 32.0988 19.0694 29.4478 18.7039 28.2594V28.2696Z" fill="#F7F7F7"/>
<path d="M16.3183 34.4554C16.1458 34.4554 15.9732 34.3944 15.8514 34.2624L15.5265 33.9171C15.5265 33.9171 15.4555 33.8256 15.425 33.7749C15.2017 33.3584 15.0697 33.0435 14.9377 32.7287C14.684 32.1294 14.4809 31.6622 14.014 31.1848C13.7602 30.9309 12.877 30.677 12.5826 30.5957C12.3694 30.5348 12.1461 30.4738 11.9227 30.4129C10.7147 30.0879 9.66911 29.8035 9.21229 29.2042C8.59305 28.4018 8.19714 27.3658 8.02457 26.1266C8.00426 25.9641 8.03472 25.8016 8.12608 25.6695C8.19714 25.568 8.2682 25.4664 8.33926 25.3648C8.90775 24.6031 9.64881 23.9835 10.4711 23.567C11.4355 23.0897 12.2882 22.9678 12.9277 22.917C12.9582 22.917 12.9988 22.917 13.0293 22.917L14.2271 23.0084C14.3896 23.0186 14.5317 23.0897 14.6433 23.2014L19.1811 27.8127C19.2521 27.8838 19.313 27.9853 19.3435 28.0869C19.8308 29.6613 18.704 32.5459 16.9985 34.1202L16.8158 34.2827C16.6838 34.3944 16.5112 34.4554 16.3285 34.4554H16.3183ZM9.35441 26.1977C9.50669 27.0915 9.81123 27.833 10.2477 28.3916C10.4406 28.6354 11.5776 28.9503 12.2679 29.1331C12.4912 29.194 12.7247 29.255 12.948 29.3261C13.8515 29.5902 14.5418 29.8441 14.9479 30.2504C15.5976 30.9004 15.8818 31.5606 16.1559 32.2107C16.2371 32.4037 16.3285 32.6068 16.4199 32.8099C17.638 31.4591 18.2471 29.4987 18.105 28.6049L13.8718 24.3085L12.9785 24.2374C12.4709 24.278 11.7908 24.3796 11.0599 24.7453C10.4203 25.0703 9.84169 25.5578 9.39502 26.1469C9.39502 26.1571 9.37472 26.1774 9.36457 26.1876L9.35441 26.1977Z" fill="black"/>
<path d="M16.0131 33.4598C16.0131 33.4598 15.9827 33.4091 15.9725 33.3887C15.4345 32.3832 15.3025 31.5402 14.4803 30.7174C14.1656 30.4026 13.5057 30.169 12.7647 29.9557C11.5465 29.6002 10.1253 29.3056 9.72936 28.7876C9.18118 28.0766 8.82587 27.1422 8.66345 26.0249C8.48072 26.2991 8.32845 26.5835 8.19648 26.8883C7.96299 27.4266 7.6889 28.0665 7.38436 28.7368C6.34891 31.4386 5.77027 34.0896 3.10042 35.1358C2.33906 35.4303 1.52694 35.5116 0.664062 35.3897C1.58785 36.2937 2.79588 36.8828 4.26785 37.1468C8.37921 37.868 13.5463 36.1819 16.2568 33.8864C16.1756 33.7544 16.0944 33.6122 16.0233 33.47L16.0131 33.4598Z" fill="#3A3A3A"/>
<path d="M6.32889 37.9794C5.58783 37.9794 4.85692 37.9185 4.14632 37.7966C2.54238 37.5122 1.22269 36.8622 0.197383 35.8668C-0.00564697 35.6636 -0.0564045 35.3589 0.0654135 35.105C0.187232 34.8511 0.451171 34.7089 0.755716 34.7495C1.49678 34.8612 2.20738 34.7901 2.85708 34.5362C4.86708 33.7541 5.54723 31.8649 6.32889 29.6913C6.47101 29.3053 6.61313 28.9092 6.76541 28.5131L7.58768 26.634C7.7298 26.309 7.91253 25.984 8.10541 25.6793C8.25768 25.4457 8.53177 25.3441 8.80586 25.405C9.0698 25.466 9.27283 25.6894 9.31344 25.9535C9.45556 26.9591 9.77025 27.7818 10.2474 28.4014C10.4403 28.6451 11.5772 28.96 12.2675 29.1428C12.4909 29.2038 12.7243 29.2647 12.9477 29.3358C13.8512 29.5999 14.5415 29.8538 14.9475 30.2601C15.5972 30.9101 15.8815 31.5704 16.1556 32.2204C16.2774 32.4946 16.3992 32.7892 16.5616 33.0939L16.0236 33.4799L16.6022 33.165C16.6733 33.3072 16.7545 33.4392 16.8255 33.5611C16.988 33.8354 16.9271 34.1909 16.6834 34.4042C14.4399 36.3035 10.3184 37.9998 6.33904 37.9998L6.32889 37.9794ZM2.65405 35.9683C3.17177 36.2121 3.75041 36.3848 4.36965 36.4965C8.18662 37.1669 12.8157 35.6433 15.3942 33.7236C15.1912 33.3478 15.0592 33.033 14.9374 32.7384C14.6836 32.1392 14.4806 31.6719 14.0136 31.1945C13.7598 30.9406 12.8766 30.6867 12.5822 30.6054C12.369 30.5445 12.1457 30.4836 11.9224 30.4226C10.7143 30.0976 9.66874 29.8132 9.21192 29.2139C8.91753 28.8381 8.67389 28.4014 8.48101 27.924L8.00389 29.0311C7.87192 29.3866 7.7298 29.7726 7.58768 30.1484C6.7248 32.5251 5.92283 34.7698 3.3545 35.7754C3.13117 35.8668 2.90784 35.9379 2.67435 35.9887L2.65405 35.9683Z" fill="black"/>
<path d="M9.5276 35.421C9.24335 35.421 8.97941 35.228 8.8982 34.9436C8.79669 34.5882 8.99972 34.2327 9.35502 34.1311C13.6897 32.9021 16.319 30.5355 16.9585 27.2954C17.0296 26.9399 17.3747 26.7063 17.73 26.7774C18.0853 26.8485 18.3188 27.1938 18.2477 27.5493C17.5067 31.3176 14.5526 34.0295 9.71032 35.4007C9.64941 35.421 9.5885 35.421 9.5276 35.421Z" fill="black"/>
</g>
<defs>
<clipPath id="clip0_225_10355">
<rect width="40" height="40" fill="white"/>
</clipPath>
</defs>
</svg>
