<svg width="40" height="40" viewBox="0 0 40 40" fill="none" xmlns="http://www.w3.org/2000/svg">
<path d="M33.6194 24.3413L32.7995 23.2793C32.1144 22.4017 32.3053 21.1555 33.215 20.5054C33.5407 20.2669 33.9338 20.137 34.3494 20.1153L35.2367 22.8568L33.6306 24.3413H33.6194Z" fill="#D6A27F"/>
<path d="M34.3506 20.1158C35.0358 20.0833 35.6872 20.3759 36.1027 20.9069L36.9226 21.9688C37.6077 22.8465 37.4168 24.0926 36.5071 24.7427C35.5973 25.4038 34.3057 25.2195 33.6318 24.3419L34.9347 22.6298L34.3619 20.1158H34.3506Z" fill="#7A4922"/>
<path d="M30.4638 9.93025L22.9276 6.62529L21.3215 3.84052L18.2891 4.81571L19.502 11.2522L30.4638 9.93025Z" fill="#0067AD"/>
<path d="M19.5017 0.676453L16.0762 2.65944L18.1315 3.98138L18.2887 4.81577L21.3212 3.84058L19.5017 0.676453Z" fill="#D6A27F"/>
<path d="M11.9651 4.64081L9.22461 6.62373L11.2799 7.28476L12.4929 8.8993L14.0429 5.91943L11.9651 4.64081Z" fill="#D6A27F"/>
<path d="M35.0467 15.6076L30.4643 9.92966L19.5025 9.2686L14.0441 5.92035L12.4941 8.90021L16.2454 13.8739C16.5711 14.2965 17.0877 14.5565 17.6269 14.5565H24.2983L27.7238 18.5224L25.6685 23.1494V29.0983H29.094L29.7792 24.4714L34.5749 21.1664L35.2151 16.2144C35.2488 15.9978 35.1814 15.781 35.0467 15.6076Z" fill="#0182C3"/>
<path d="M31.1487 34.3979V36.3809L28.2959 37.7571C28.6778 38.1471 29.2169 38.3638 29.7784 38.3638H31.1487C32.283 38.3638 33.204 37.4753 33.204 36.3809C33.204 35.2864 32.283 34.3979 31.1487 34.3979Z" fill="#4A4B46"/>
<path d="M31.1492 34.3979H29.779C28.6446 34.3979 27.7236 35.2864 27.7236 36.3809C27.7236 36.8902 27.9258 37.3886 28.2964 37.7571L31.1492 36.3809V34.3979Z" fill="#FFCEBF"/>
<path d="M23.3315 26.4871C23.5112 26.0537 23.4888 25.5552 23.2754 25.1327L20.8045 20.3649L17.3228 21.1992L18.1427 25.1327L14.7171 30.4206L11.6847 27.9825C10.9883 27.419 10.1123 27.1156 9.20253 27.1156C7.57399 27.1156 6.12514 28.1018 5.56357 29.5754L4.26074 33.032L7.4729 33.8122L8.53988 31.7534L14.2005 37.8215C14.5262 38.1682 14.9867 38.3633 15.4696 38.3633H20.1082L20.8831 32.4144L23.3428 26.4871H23.3315Z" fill="#EAE9E4"/>
<path d="M3.74479 34.397L1.68945 35.7189L5.80013 37.0409L7.47359 33.8118L4.26143 33.0316L3.74479 34.397Z" fill="#FFCEBF"/>
<path d="M20.1863 19.1838V17.2009L16.7607 18.5228L17.3111 21.1993L20.7928 20.365L20.1863 19.1946V19.1838Z" fill="#FFCEBF"/>
<path d="M25.6684 27.1263L24.2982 32.4142H20.8726L20.0977 38.3631H26.3535L28.4088 37.7021L29.0939 33.0752L29.7791 29.1093L28.4088 26.4654L25.6684 27.1263Z" fill="#EAE9E4"/>
<path d="M31.1487 25.8041L28.4082 26.4651L29.7784 29.1091L31.8338 27.1261L31.1487 25.8041Z" fill="#FFCEBF"/>
<path d="M1.30725 35.1663C0.992767 35.3723 0.90291 35.784 1.11631 36.0874C1.20616 36.2066 1.32971 36.3042 1.46448 36.3475L5.57515 37.6695C5.90086 37.7779 6.24902 37.637 6.40626 37.3336L8.69746 32.9125L13.6842 38.2546C14.1447 38.7422 14.7848 39.024 15.4699 39.024H26.3531C26.4317 39.024 28.1277 38.493 28.1277 38.493C28.5994 38.8398 29.1834 39.0348 29.7787 39.024H31.1489C32.6651 39.024 33.8893 37.8428 33.8893 36.38C33.8893 34.9172 32.6651 33.736 31.1489 33.736H29.7787C29.7787 33.736 29.7225 33.736 29.6888 33.736L29.7674 33.1726L30.4189 29.4234L32.3169 27.5921C32.5303 27.3862 32.5753 27.0828 32.4405 26.8336L31.7554 25.5116C31.6094 25.23 31.2837 25.0891 30.9804 25.1649L30.3402 25.3166L30.4076 24.8506L32.1934 23.6154C32.1934 23.6154 32.2159 23.6587 32.2383 23.6696L33.0582 24.7314C33.4962 25.2949 34.1364 25.6633 34.8665 25.7609C35.0012 25.7825 35.136 25.7934 35.2596 25.7934C36.7758 25.7934 38 24.6015 38 23.1386C38 22.5751 37.8091 22.0116 37.4497 21.5565L36.6298 20.4946C36.3265 20.1046 35.9222 19.8119 35.4617 19.6277L35.8997 16.2903C35.9559 15.9002 35.8436 15.4993 35.5853 15.1959L30.9467 9.45287C30.9355 9.44203 23.4217 6.10455 23.4217 6.10455L20.1085 0.339854C19.9288 0.0256134 19.502 -0.0935707 19.1763 0.0798033C19.1763 0.0798033 19.1651 0.0798139 19.1538 0.0906497L15.7283 2.07364C15.4026 2.25784 15.3015 2.66957 15.4924 2.98381C15.5486 3.0705 15.616 3.13551 15.6946 3.1897L17.5141 4.35999L18.1318 7.6216L12.3364 4.0674C12.1006 3.9157 11.7861 3.92657 11.5614 4.09994L8.821 6.08286C8.51776 6.29957 8.4616 6.71138 8.68623 7.00395C8.76485 7.1123 8.88839 7.18812 9.02317 7.23145L10.8763 7.82748L15.717 14.2532C16.1663 14.8492 16.8851 15.2067 17.6601 15.2067H24.0058L26.9596 18.62L25.0727 22.8784C25.039 22.9652 25.0166 23.0519 25.0166 23.1386V27.0286L23.7924 31.7422H21.9167L23.9945 26.7253C24.2528 26.1076 24.2192 25.425 23.9159 24.829L20.9059 19.0209V17.1897C20.9059 16.8212 20.6027 16.5287 20.2208 16.5287C20.131 16.5287 20.0523 16.5395 19.9625 16.572L16.5369 17.894C16.2337 18.0132 16.054 18.3274 16.1214 18.6417L17.4354 24.9915L14.5714 29.4126L12.1342 27.462C10.2025 25.9126 7.32724 26.1618 5.72116 28.0256C5.38422 28.4156 5.11466 28.8599 4.93496 29.3367L3.19411 33.9528L1.3297 35.1555L1.30725 35.1663ZM31.4634 36.9651C31.6992 36.8568 31.8452 36.6292 31.8452 36.3692V35.2206C32.4967 35.589 32.7213 36.3908 32.3506 37.0301C32.1036 37.4419 31.6543 37.6911 31.1601 37.6911H29.9471L31.4634 36.9651ZM30.475 35.0472V35.9574L29.2845 36.5317L29.4979 35.0689C29.5877 35.0471 30.475 35.0364 30.475 35.0364V35.0472ZM30.7895 26.5627L31.0029 26.9853L29.9696 27.9821L29.408 26.8986L30.7895 26.5627ZM33.7096 23.3445L33.3502 22.8894C33.3502 22.8894 33.3278 22.8677 33.3278 22.8569L34.1589 22.2825L34.26 22.6184L33.7096 23.3552V23.3445ZM35.6751 22.5534L35.2708 21.2098L35.2933 21.058C35.3943 21.1339 35.473 21.2206 35.5516 21.3073L36.3715 22.3692C36.8207 22.9543 36.6972 23.778 36.0907 24.2221C35.6751 24.5256 35.1248 24.5689 34.6531 24.3414L35.5628 23.1277C35.6863 22.9652 35.7201 22.7485 35.6639 22.5534H35.6751ZM22.3435 6.94979C22.4109 7.06898 22.5232 7.17728 22.658 7.23145L26.8136 9.05194L19.7379 8.62933H19.7154L19.0864 5.27017L21.0182 4.65258L22.3435 6.96057V6.94979ZM17.368 2.69122L19.2549 1.59685L20.3331 3.4606L18.8281 3.94822V3.87236C18.7832 3.69899 18.6709 3.53642 18.5136 3.4389L17.3568 2.69122H17.368ZM12.4038 7.63245L11.8535 6.89555C11.7748 6.78719 11.6513 6.70054 11.5165 6.65719L10.6966 6.39714L12.0107 5.44358L13.1675 6.15871L12.4038 7.63245ZM26.2633 15.781L24.8369 14.134C24.7021 13.9822 24.5112 13.8955 24.309 13.8955H17.6376C17.3119 13.8955 16.9974 13.7438 16.8065 13.4838L13.3023 8.83521L14.3244 6.86307L19.1426 9.82127C19.2437 9.88624 19.356 9.91883 19.4683 9.91883L30.1268 10.558L31.3398 12.0643L26.2633 15.781ZM26.3643 23.2794L28.3635 18.7717C28.4646 18.5441 28.4197 18.2841 28.2624 18.0891L27.1393 16.7887L32.171 13.1046L34.5071 16.0086C34.5071 16.0086 34.552 16.0844 34.5408 16.1277L33.9343 20.7871L29.3856 23.9296C29.2283 24.038 29.1272 24.2005 29.1048 24.3739L28.9139 25.6525L26.3531 26.2701V23.2902L26.3643 23.2794ZM23.6239 33.0642V35.0472C23.6239 35.4156 23.9272 35.7082 24.309 35.7082C24.6909 35.7082 24.9941 35.4156 24.9941 35.0472V32.4791L26.2408 27.6572L28.049 27.2237L29.0711 29.2066L28.4197 32.9666C28.4197 32.9666 28.4197 32.9667 28.4197 32.9776L27.7907 37.2035L26.2408 37.702H20.8722L21.4675 33.075H23.6014L23.6239 33.0642ZM19.5132 18.1757V19.1835C19.5132 19.281 19.5357 19.3894 19.5806 19.4761L19.8052 19.9095L17.851 20.3754L17.5478 18.9234L19.502 18.1649L19.5132 18.1757ZM6.21533 29.8026C6.82182 28.2098 8.64131 27.3862 10.2923 27.9605C10.6405 28.0797 10.955 28.264 11.247 28.4915L14.2794 30.9296C14.5714 31.168 14.9982 31.1246 15.2453 30.8429C15.2678 30.8212 15.279 30.7995 15.3015 30.767L18.727 25.4791C18.8169 25.3382 18.8506 25.1649 18.8169 25.0023L18.1318 21.6865L20.3668 21.1448C20.3668 21.1448 20.4117 21.1339 20.4454 21.123L22.6805 25.425C22.8152 25.6741 22.8265 25.9776 22.7142 26.2377L20.2208 32.3166L19.5357 37.6045C19.5357 37.637 19.5357 37.6586 19.5357 37.6911H15.5036C15.2116 37.6911 14.9309 37.5719 14.7399 37.3661L9.07933 31.298C8.82101 31.0271 8.39421 31.0055 8.11343 31.2438C8.04604 31.298 8.00112 31.363 7.95619 31.4388L7.1363 33.0209L5.19329 32.5549L6.2378 29.7918L6.21533 29.8026ZM4.13754 34.9388C4.26108 34.8629 4.35094 34.7438 4.39586 34.6138L4.6991 33.8119L6.48488 34.2454L5.46283 36.2283L3.23903 35.5132L4.1263 34.9388H4.13754Z" fill="black"/>
</svg>
