<svg width="40" height="41" viewBox="0 0 40 41" fill="none" xmlns="http://www.w3.org/2000/svg">
<g clip-path="url(#clip0_225_10323)">
<path d="M8.2041 18.99L20.2241 22.0718L21.3768 17.9383C21.4975 17.4965 21.2231 17.0442 20.773 16.9286L10.4105 14.2676C9.94948 14.1519 9.47746 14.4148 9.35671 14.846L8.2041 18.9795V18.99Z" fill="white"/>
<path d="M8.2041 18.99L20.2241 22.0718L21.3768 17.9383C21.4975 17.4965 21.2231 17.0442 20.773 16.9286L10.4105 14.2676C9.94948 14.1519 9.47746 14.4148 9.35671 14.846L8.2041 18.9795V18.99Z" fill="#F2F6FC"/>
<path d="M13.4617 39.7543L6.56799 37.9873C3.72489 37.2616 2.04538 34.4639 2.80281 31.7398L3.72489 28.4372C2.81379 27.8377 2.39665 26.6071 2.69304 25.5237L3.27483 23.4517C3.91151 21.1904 5.81056 19.4655 8.20359 18.9922L20.2236 22.0739C21.9471 24.188 22.5398 26.9542 21.8153 29.5415L19.9712 36.1362C19.2137 38.8603 16.2938 40.4695 13.4507 39.7438L13.4617 39.7543Z" fill="#E33945"/>
<path d="M21.2988 17.3301C21.2988 17.3301 21.3093 17.3511 21.3199 17.3616C21.3199 17.3511 21.3093 17.3406 21.2988 17.3301Z" fill="white"/>
<path d="M21.2764 17.2969C21.2764 17.2969 21.2869 17.3179 21.2974 17.3284C21.2974 17.3179 21.2869 17.3074 21.2764 17.2969Z" fill="white"/>
<path d="M21.3203 17.3613C21.3203 17.3613 21.3413 17.3929 21.3413 17.4139C21.3413 17.3929 21.3203 17.3824 21.3203 17.3613Z" fill="white"/>
<path d="M21.0801 17.0879C21.0801 17.0879 21.102 17.1089 21.113 17.1089C21.113 17.1089 21.0911 17.0879 21.0801 17.0879Z" fill="white"/>
<path d="M21.376 17.4863C21.376 17.4863 21.376 17.5074 21.3865 17.5284C21.3865 17.5179 21.3865 17.5074 21.376 17.4863Z" fill="white"/>
<path d="M20.8818 16.9824C20.8818 16.9824 20.9367 17.0035 20.9587 17.014C20.9367 17.0035 20.9038 16.9929 20.8818 16.9824Z" fill="white"/>
<path d="M20.9912 17.0352C20.9912 17.0352 21.0132 17.0457 21.0241 17.0562C21.0132 17.0562 21.0022 17.0457 20.9912 17.0352Z" fill="white"/>
<path d="M20.223 22.0823L14.5917 20.6309L14.449 21.2093C14.2185 22.3347 14.2624 23.5233 14.5808 24.6802L15.1626 26.7627C15.5358 28.0985 16.5567 29.1713 17.819 29.6551L18.4996 32.0953C18.5326 32.211 18.5655 32.3266 18.6094 32.4318L17.5666 36.1446C17.0397 38.0273 15.4809 39.3736 13.6367 39.7943C16.414 40.4148 19.2351 38.8056 19.9815 36.1446L20.2889 35.0508L21.8257 29.5394C22.5502 26.9521 21.9574 24.1754 20.234 22.0718L20.223 22.0823Z" fill="#C52B21"/>
<path d="M21.3867 17.9515C21.5074 17.5202 21.233 17.0575 20.7829 16.9418L18.5107 16.3633L17.3032 16.6683L17.0178 16.9102C15.8212 17.9304 14.998 19.2241 14.5918 20.6335L20.2231 22.085L21.3757 17.9515H21.3867Z" fill="#CDD2E1"/>
<path d="M16.1501 21.6094C16.1501 21.6094 16.0513 21.6094 15.9964 21.5884L8.04889 19.5479C7.89521 19.5058 7.76348 19.4112 7.68664 19.285C7.6098 19.1587 7.58784 19.001 7.63175 18.8537L8.78436 14.7202C8.88316 14.3626 9.12465 14.0576 9.46495 13.8788C9.80524 13.6895 10.2004 13.6474 10.5736 13.7421L17.6979 15.5722C18.0162 15.6563 18.2028 15.9719 18.115 16.2769C18.0272 16.5819 17.6979 16.7607 17.3795 16.6765L10.2553 14.8465C10.1675 14.8254 10.0906 14.8465 10.0577 14.8675C10.0248 14.8885 9.95892 14.9306 9.93697 15.0147L8.93804 18.5908L16.3037 20.484C16.6221 20.5681 16.8087 20.8837 16.7209 21.1887C16.644 21.4411 16.4135 21.6094 16.1501 21.6094Z" fill="black"/>
<path d="M7.9288 38.9111C7.9288 38.9111 7.83001 38.9111 7.77512 38.89L6.40297 38.5429C3.25251 37.7331 1.37541 34.6198 2.22066 31.6012L3.04395 28.6562C2.17675 27.8674 1.79255 26.5632 2.11088 25.3852L2.69268 23.3132C3.38424 20.831 5.44796 18.9693 8.07151 18.4434C8.15933 18.4329 8.25812 18.4329 8.34594 18.4434L16.2934 20.4839C16.6118 20.568 16.7984 20.8836 16.7106 21.1886C16.6228 21.4936 16.2934 21.6724 15.9751 21.5883L8.1703 19.5794C6.0517 20.0527 4.39414 21.5777 3.83431 23.5972L3.25251 25.6692C3.01101 26.5211 3.35131 27.5098 4.04287 27.962C4.25144 28.0988 4.35023 28.3512 4.28437 28.5826L3.36229 31.8852C2.69268 34.2938 4.18558 36.7865 6.69936 37.4281L8.07151 37.7751C8.38985 37.8593 8.57646 38.1748 8.48864 38.4798C8.42278 38.7323 8.18128 38.9006 7.91783 38.9006L7.9288 38.9111Z" fill="black"/>
<path d="M14.8435 40.5008C14.3276 40.5008 13.8117 40.4377 13.3067 40.3009L10.3099 39.5331C9.99159 39.449 9.80498 39.1335 9.89279 38.8285C9.98061 38.5234 10.3099 38.3446 10.6283 38.4288L13.625 39.1966C14.8435 39.5121 16.1169 39.3438 17.2146 38.7443C18.3123 38.1343 19.0917 37.1666 19.41 35.9992L20.2223 33.0963C20.3102 32.7912 20.6395 32.6124 20.9578 32.6966C21.2762 32.7807 21.4628 33.0963 21.375 33.4013L20.5626 36.3042C20.1565 37.7662 19.1795 38.9862 17.8074 39.7435C16.8963 40.2484 15.8863 40.5008 14.8545 40.5008H14.8435Z" fill="black"/>
<path d="M3.72533 29.0027C3.72533 29.0027 3.62653 29.0027 3.57165 28.9817C3.25331 28.8975 3.0667 28.582 3.15451 28.277L3.61556 26.6362C3.84608 25.8263 4.38396 25.1532 5.14139 24.743C5.89882 24.3223 6.77699 24.2171 7.62224 24.4274C7.94057 24.5116 8.12719 24.8271 8.03937 25.1321C7.95155 25.4372 7.62224 25.616 7.3039 25.5318C6.76601 25.3951 6.20618 25.4687 5.73416 25.7317C5.25116 25.9946 4.91087 26.4258 4.76816 26.9412L4.30712 28.582C4.23028 28.8344 3.99976 29.0027 3.73631 29.0027H3.72533Z" fill="black"/>
<path d="M17.4348 19.2662C17.4348 19.2662 17.336 19.2662 17.2812 19.2451L13.516 18.2775C13.1976 18.1934 13.011 17.8778 13.0988 17.5728C13.1867 17.2678 13.516 17.089 13.8343 17.1731L17.5995 18.1408C17.9178 18.2249 18.1045 18.5405 18.0166 18.8455C17.9508 19.0979 17.7093 19.2662 17.4458 19.2662H17.4348Z" fill="black"/>
<path d="M11.1336 17.6458C11.1336 17.6458 11.0348 17.6458 10.9799 17.6248L8.74059 17.0568C8.42225 16.9727 8.23564 16.6571 8.32346 16.3521C8.41128 16.0471 8.74059 15.8683 9.05893 15.9524L11.2983 16.5204C11.6166 16.6045 11.8032 16.9201 11.7154 17.2251C11.6495 17.4775 11.4081 17.6458 11.1446 17.6458H11.1336Z" fill="black"/>
<path d="M33.4831 33.5373L26.5785 35.3148C23.7354 36.0406 20.8154 34.4313 20.058 31.7072L19.1359 28.3941C18.0382 28.31 17.0283 27.437 16.7209 26.3642L16.1392 24.2817C15.5025 22.0203 16.2599 19.6118 18.0821 18.0551L30.1131 14.9629C32.7147 15.9621 34.6687 18.0762 35.3932 20.6741L37.2373 27.2792C37.9948 30.0033 36.3153 32.8011 33.4722 33.5268L33.4831 33.5373Z" fill="#E33945"/>
<path d="M37.2495 27.291L35.4053 20.6858C34.6808 18.0879 32.7269 15.9738 30.1253 14.9746L28.5994 15.3638C30.762 16.4681 32.3646 18.3929 33.0013 20.6858L34.8455 27.291C35.6029 30.0151 33.9234 32.8128 31.0803 33.5385L24.1756 35.316C24.1207 35.3265 24.0549 35.3476 24 35.3581C24.8233 35.5474 25.7124 35.5369 26.5796 35.316L33.4843 33.5385C36.3274 32.8128 38.0069 30.0151 37.2495 27.291Z" fill="#C52B21"/>
<path d="M34.2074 26.879C33.9439 26.879 33.7024 26.7107 33.6366 26.4583C33.2085 24.9332 31.5729 24.0287 29.9812 24.4389L23.9437 25.985C23.6254 26.0692 23.296 25.8904 23.2082 25.5853C23.1204 25.2803 23.307 24.9648 23.6254 24.8807L29.6628 23.3345C31.8912 22.7666 34.1854 24.0392 34.7782 26.1638C34.866 26.4688 34.6794 26.7844 34.3611 26.8685C34.3062 26.879 34.2623 26.8896 34.2074 26.8896V26.879Z" fill="black"/>
<path d="M18.0831 18.0663L30.1141 14.9741L28.9615 10.8406C28.8408 10.3989 28.3688 10.1359 27.9077 10.2621L17.5343 12.9231C17.0732 13.0388 16.7988 13.4911 16.9305 13.9328L18.0831 18.0663Z" fill="#F2F6FC"/>
<path d="M28.9612 10.8406C28.8405 10.3989 28.3685 10.1359 27.9074 10.2621L25.7449 10.8196C25.7449 10.8196 25.7449 10.8406 25.7449 10.8511L26.5902 13.8697C26.7658 14.4798 26.3816 15.1214 25.7449 15.2791L17.8633 17.2985L18.0828 18.0663L30.1138 14.9741L28.9612 10.8406Z" fill="#CDD2E1"/>
<path d="M18.0822 18.6338C17.9834 18.6338 17.8736 18.6128 17.7858 18.5602C17.654 18.4866 17.5443 18.3604 17.5113 18.2131L16.3587 14.0796C16.1502 13.3329 16.6112 12.5756 17.3906 12.3757L27.7641 9.71474C28.1373 9.62008 28.5325 9.66215 28.8727 9.85147C29.213 10.0408 29.4545 10.3353 29.5533 10.7034L30.7059 14.8369C30.7499 14.9842 30.7279 15.1419 30.6511 15.2681C30.5742 15.3943 30.4425 15.4995 30.2888 15.5311L18.2578 18.6233C18.2578 18.6233 18.159 18.6443 18.1041 18.6443L18.0822 18.6338ZM28.1373 10.7981C28.1373 10.7981 28.0934 10.7981 28.0714 10.7981L17.698 13.4591C17.5552 13.4906 17.4784 13.6379 17.5113 13.7641L18.5103 17.3507L29.3997 14.5529L28.4007 10.9664C28.3788 10.8822 28.3129 10.8296 28.28 10.8086C28.258 10.7981 28.2031 10.777 28.1483 10.777L28.1373 10.7981Z" fill="black"/>
<path d="M25.1848 36.0612C24.1639 36.0612 23.1431 35.7983 22.232 35.3039C20.8598 34.5466 19.8828 33.3266 19.4767 31.8541L18.6534 28.8986C17.4898 28.6356 16.4689 27.689 16.1396 26.5111L15.5578 24.4285C14.8663 21.9463 15.6786 19.3379 17.6874 17.6235C17.7533 17.5604 17.8411 17.5183 17.9289 17.4973L29.9599 14.4051C30.0807 14.3735 30.2124 14.384 30.3331 14.4261C31.6943 14.952 32.9238 15.7829 33.9007 16.8347C34.8777 17.8865 35.5912 19.1591 35.9644 20.5159L36.4255 22.1672C36.5133 22.4722 36.3267 22.7877 36.0084 22.8719C35.69 22.956 35.3607 22.7772 35.2729 22.4722L34.8118 20.8209C34.4825 19.6324 33.8568 18.5175 33.0006 17.6025C32.1883 16.7295 31.1784 16.0248 30.0587 15.562L18.357 18.5701C16.7653 19.99 16.1286 22.1146 16.6885 24.134L17.2703 26.2166C17.5118 27.0685 18.3131 27.7627 19.1474 27.8258C19.3998 27.8468 19.6084 28.0151 19.6743 28.2465L20.5964 31.5596C20.9257 32.7271 21.7051 33.7052 22.8028 34.3153C23.9005 34.9253 25.1739 35.0831 26.3923 34.7675L33.297 33.0005C35.8108 32.3484 37.3146 29.8662 36.645 27.4471L35.9425 24.9123C35.8547 24.6073 36.0413 24.2918 36.3596 24.2077C36.678 24.1235 37.0073 24.3023 37.0951 24.6073L37.7976 27.1421C38.6429 30.1607 36.7658 33.2845 33.6043 34.0944L26.6997 35.8614C26.1947 35.9876 25.6678 36.0612 25.1519 36.0612H25.1848Z" fill="black"/>
<path d="M19.1267 28.9726C18.8632 28.9726 18.6217 28.8043 18.5559 28.5519C18.4681 28.2468 18.6547 27.9313 18.973 27.8472L21.9808 27.0794C22.848 26.8585 23.3639 25.996 23.1334 25.1651C23.0236 24.7654 22.7492 24.4289 22.376 24.2185C22.0027 24.0082 21.5527 23.9556 21.1355 24.0607L19.8512 24.3868C19.5329 24.4709 19.2035 24.2921 19.1157 23.9871C19.0279 23.6821 19.2145 23.3666 19.5329 23.2824L20.8172 22.9564C21.5417 22.7671 22.3101 22.8617 22.9577 23.2298C23.6164 23.5874 24.0774 24.1764 24.275 24.8706C24.6702 26.3116 23.781 27.7946 22.2772 28.1837L19.2694 28.9515C19.2694 28.9515 19.1706 28.9726 19.1157 28.9726H19.1267Z" fill="black"/>
<path d="M27.5342 16.2158C27.2708 16.2158 27.0293 16.0475 26.9634 15.795L25.5803 10.8622C25.4925 10.5572 25.6791 10.2417 25.9974 10.1575C26.3158 10.0734 26.6451 10.2522 26.7329 10.5572L28.116 15.49C28.2038 15.7951 28.0172 16.1106 27.6989 16.1947C27.644 16.2052 27.6001 16.2158 27.5452 16.2158H27.5342Z" fill="black"/>
<path d="M26.3376 15.9414L23.9336 16.562L24.8667 19.9171C25.0423 20.5587 25.7229 20.9268 26.3925 20.7586C27.0621 20.5903 27.4463 19.9382 27.2707 19.2966L26.3376 15.9414Z" fill="#C52B21"/>
<path d="M26.0628 21.3667C25.7445 21.3667 25.4262 21.2826 25.1408 21.1248C24.7127 20.8934 24.4053 20.5043 24.2845 20.052L23.3515 16.6968C23.3076 16.5496 23.3295 16.3918 23.4064 16.2656C23.4832 16.1394 23.6149 16.0342 23.7686 16.0027L26.1726 15.3821C26.491 15.298 26.8203 15.4768 26.9081 15.7818L27.8412 19.137C28.1046 20.0731 27.5228 21.0512 26.5349 21.3036C26.3812 21.3457 26.2165 21.3667 26.0519 21.3667H26.0628ZM24.6578 16.9598L25.4371 19.7575C25.525 20.0836 25.8872 20.2834 26.2275 20.1993C26.5678 20.1151 26.7764 19.768 26.6886 19.4315L25.9092 16.6337L24.6578 16.9598Z" fill="black"/>
<path d="M15.0314 16.0459C14.9655 16.0459 14.8997 16.0459 14.8338 16.0143C14.5265 15.9092 14.3618 15.5831 14.4716 15.2886L19.4552 1.88893C19.543 1.64702 19.7736 1.49978 20.048 1.51029C20.3114 1.52081 20.531 1.69961 20.5968 1.94152L23.0887 11.5127C23.1655 11.8177 22.9789 12.1333 22.6496 12.2069C22.3313 12.2805 22.0019 12.1017 21.9251 11.7862L19.9163 4.04508L15.5912 15.6673C15.5034 15.8986 15.2729 16.0459 15.0314 16.0459Z" fill="black"/>
<path d="M16.5132 5.54935C16.2717 5.54935 16.0192 5.50728 15.7777 5.42314C14.9983 5.14968 14.4824 4.48705 14.4385 3.69822C14.4385 3.69822 14.4385 3.59304 14.4385 3.58252C14.4385 2.43608 15.4155 1.5 16.612 1.5H20.0149C20.2564 1.5 20.465 1.63673 20.5638 1.84709C20.6626 2.05744 20.6077 2.29935 20.454 2.46764L18.017 4.9288C17.6109 5.339 17.073 5.54935 16.5132 5.54935ZM16.612 2.64644C16.0741 2.64644 15.624 3.06715 15.624 3.59304C15.646 3.97168 15.8545 4.24515 16.1839 4.36084C16.4583 4.4555 16.8535 4.44498 17.1498 4.15049L18.6318 2.65696H16.612V2.64644Z" fill="black"/>
<path d="M23.5159 5.54935C22.9561 5.54935 22.4182 5.32848 22.012 4.9288L19.5751 2.46764C19.4104 2.29935 19.3665 2.05744 19.4653 1.84709C19.5641 1.63673 19.7727 1.5 20.0142 1.5H23.4171C24.6136 1.5 25.5906 2.43608 25.5906 3.58252C25.5906 3.58252 25.5906 3.6877 25.5906 3.69822C25.5467 4.48705 25.0308 5.13916 24.2514 5.41262C24.0099 5.49676 23.7574 5.53883 23.5159 5.53883V5.54935ZM22.8792 4.13997C23.1756 4.44498 23.5708 4.44498 23.8452 4.35032C24.1746 4.23463 24.3831 3.97168 24.4051 3.64563C24.4051 3.07767 23.966 2.64644 23.4171 2.64644H21.3973L22.8792 4.13997Z" fill="black"/>
</g>
<defs>
<clipPath id="clip0_225_10323">
<rect width="40" height="40" fill="white" transform="translate(0 0.5)"/>
</clipPath>
</defs>
</svg>
