<svg width="40" height="40" viewBox="0 0 40 40" fill="none" xmlns="http://www.w3.org/2000/svg">
<path d="M14.9952 22.9043C17.3549 22.9043 18.5157 23.399 19.7336 23.9318C21.0276 24.4932 22.3787 25.0735 25.0333 25.0735C27.6879 25.0735 29.0295 24.4932 30.333 23.9318C31.5509 23.4085 32.7022 22.9043 35.0714 22.9043C36.9933 22.9043 38.1161 23.2373 39.039 23.6083C39.391 23.7511 39.7907 23.5703 39.9429 23.2277C40.019 23.047 40.019 22.8567 39.9429 22.6759C39.8668 22.4951 39.7241 22.3524 39.5338 22.2763C38.4967 21.8671 37.2312 21.4866 35.0618 21.4866C34.1389 21.4675 33.2255 21.5626 32.3311 21.7434H32.274L30.5328 20.8871C29.8287 20.5351 29.1437 20.1259 28.5062 19.6692L28.2778 19.5074L28.5347 19.4028C29.1912 19.1269 29.7716 18.6892 30.1998 18.1278L30.314 17.9851L30.5994 17.9565C31.1132 17.909 31.589 17.6425 31.8839 17.2143C32.1884 16.7957 32.2835 16.263 32.1598 15.7587C32.1598 15.7111 32.1503 15.692 32.1408 15.6634L32.1218 15.5493L32.1694 15.4922C32.1694 15.4922 32.2265 15.4066 32.255 15.3685C32.7878 14.2934 32.8354 13.047 32.3882 11.9337C31.9315 10.811 31.0371 9.96418 29.8763 9.55504C28.2112 8.97465 26.3083 9.57402 25.1475 11.0488L23.6441 12.9708C23.4729 13.1896 23.3397 13.399 23.235 13.6083L23.1208 13.8272L22.2264 12.6759C21.6175 11.8957 20.7612 11.3247 19.8002 11.0583L12.883 9.17443C11.0086 8.67015 8.97241 9.27912 7.68792 10.7444L4.10086 14.8357H2.69268C2.38821 14.8357 2.11227 15.0355 2.01712 15.3209L1.15129 17.9185C1.03711 18.2516 1.18935 18.6225 1.50333 18.7748L3.23502 19.6407L3.58706 19.7167H5.28068C5.43292 19.7167 5.57564 19.6693 5.68982 19.5836L11.3987 15.5113L13.5966 16.6055L10.0285 20.164L3.26356 23.5417H3.21598C2.22645 23.399 1.50333 23.1516 0.98002 22.9422C0.61846 22.7995 0.218839 22.9613 0.0570885 23.3229C-0.0190295 23.5036 -0.0190295 23.6939 0.0570885 23.8747C0.133206 24.0554 0.275928 24.1982 0.466223 24.2743C1.50333 24.6835 2.76879 25.064 4.93815 25.064C7.59277 25.064 8.93435 24.4837 10.2379 23.9223C11.4558 23.399 12.607 22.8947 14.9762 22.8947L14.9952 22.9043ZM30.647 16.3486C30.5328 16.4913 30.3616 16.5674 30.1808 16.5674C30.0571 16.5674 29.9239 16.5293 29.8192 16.4437C29.6955 16.3486 29.6194 16.2058 29.6004 16.0536C29.5813 15.9013 29.6289 15.7396 29.7241 15.6159C29.8192 15.4922 29.9619 15.4161 30.1142 15.3971C30.2664 15.3781 30.4282 15.4257 30.5518 15.5208C30.6755 15.616 30.7517 15.7586 30.7707 15.9108C30.7897 16.0631 30.7421 16.2249 30.647 16.3486ZM26.3749 11.81C27.3073 10.6207 29.0485 10.4114 30.2379 11.3438C31.0561 11.9908 31.4367 13.0279 31.2369 14.046L31.1989 14.2362L31.0181 14.1506C30.5709 13.9508 30.0761 13.9128 29.6004 14.0555L29.4577 14.1031L29.4101 13.9604C29.2483 13.4561 28.8868 13.0375 28.411 12.7996C27.9353 12.5617 27.393 12.5142 26.8792 12.6759C26.784 12.7045 26.6984 12.7425 26.6127 12.7806L26.5652 12.809H26.5081C26.5081 12.809 26.432 12.7806 26.3939 12.7806L25.6232 12.752L26.3654 11.81H26.3749ZM28.0875 14.5884C28.0875 14.7216 28.04 14.8452 27.9638 14.9498C27.8687 15.0735 27.726 15.1497 27.5737 15.1688C27.5547 15.1688 27.5262 15.1688 27.4976 15.1688C27.3644 15.1688 27.2407 15.1212 27.1361 15.0451C26.8792 14.8453 26.8411 14.4742 27.0409 14.2173C27.1551 14.0746 27.3264 13.9889 27.5071 13.9889C27.8306 13.9889 28.097 14.2554 28.097 14.5789L28.0875 14.5884ZM24.529 14.2173L24.5766 14.1316L25.5376 14.1697L25.5186 14.341C25.3853 15.4352 26.156 16.4437 27.2598 16.5769C27.5452 16.615 27.8211 16.5864 28.0875 16.5103L28.2303 16.4628L28.2778 16.6055C28.373 16.9005 28.5347 17.1668 28.7631 17.3857L28.8773 17.4998L28.7536 17.614C28.2302 18.0707 27.5833 18.299 26.9458 18.299C26.1751 18.299 25.4139 17.9851 24.8715 17.3666C24.1104 16.5008 23.9772 15.2354 24.529 14.2268V14.2173ZM9.70504 22.6188C8.99144 22.9232 8.3254 23.2086 7.43102 23.4085L6.21313 23.6749L10.8183 21.3723C10.8849 21.3342 10.9515 21.2963 10.999 21.2392L15.3283 16.9099C15.6042 16.634 15.6042 16.1868 15.3283 15.9108C15.2712 15.8537 15.2141 15.8158 15.1475 15.7777L11.6841 14.046C11.4462 13.9223 11.1703 13.9509 10.9515 14.1031L5.08087 18.299L3.71075 18.28L2.7117 17.7853L3.21598 16.2629H4.43387C4.64319 16.2629 4.83349 16.1772 4.9667 16.025L8.76308 11.6863C9.68601 10.6302 11.1608 10.1829 12.5214 10.554L19.4386 12.438C20.0951 12.6188 20.6946 13.0184 21.1132 13.5512L22.7688 15.673V15.7206C22.8544 17.6806 24.2531 19.2981 26.1846 19.6502H26.2226L26.2512 19.6883C27.3549 20.6683 28.5823 21.496 29.9049 22.1526L30.2474 22.3238H30.4567L29.7621 22.6188C28.5442 23.1421 27.3834 23.6463 25.0238 23.6463C22.6641 23.6463 21.5128 23.1516 20.2854 22.6283C18.9819 22.0669 17.6403 21.4866 14.9857 21.4866C12.3311 21.4866 10.9895 22.0669 9.68602 22.6283L9.70504 22.6188Z" fill="black"/>
<path d="M33.4348 26.4814C30.7802 26.4814 29.4386 27.0618 28.1351 27.6232C27.0599 28.0894 26.0418 28.5271 24.215 28.6223C22.3691 28.5176 21.3511 28.0799 20.2854 27.6232C18.9914 27.0618 17.6403 26.4814 14.9857 26.4814C12.3311 26.4814 10.9895 27.0618 9.68597 27.6232C8.61081 28.0894 7.60224 28.5271 5.77541 28.6223C5.40434 28.6413 5.10938 28.9553 5.10938 29.3263C5.10938 29.5166 5.1855 29.7069 5.32822 29.8401C5.47094 29.9733 5.67075 30.059 5.87056 30.04C7.92574 29.9258 9.10557 29.4215 10.2473 28.9267C11.3225 28.4605 12.3311 28.0227 14.1579 27.9276C14.6812 27.899 15.2997 27.899 15.8135 27.9276C17.6403 28.0323 18.6489 28.47 19.724 28.9267C20.8658 29.4215 22.0361 29.9258 24.1008 30.04C24.1484 30.0304 24.1769 30.0209 24.196 30.0209C24.2435 30.0209 24.2721 30.0209 24.2911 30.0304C26.3748 29.9163 27.5547 29.4119 28.6869 28.9267C29.7621 28.4605 30.7707 28.0227 32.5975 27.9276C32.8544 27.9086 33.1303 27.9087 33.4253 27.9087C33.8154 27.9087 34.1294 27.5852 34.1294 27.1951C34.1294 26.8049 33.8154 26.4814 33.4253 26.4814H33.4348Z" fill="black"/>
<path d="M30.6465 16.3482C30.5323 16.4909 30.361 16.567 30.1802 16.567C30.0565 16.567 29.9233 16.5289 29.8187 16.4433C29.695 16.3482 29.6189 16.2054 29.5998 16.0532C29.5808 15.9009 29.6284 15.7392 29.7235 15.6155C29.8187 15.4918 29.9614 15.4157 30.1136 15.3967C30.2659 15.3777 30.4276 15.4253 30.5513 15.5204C30.675 15.6156 30.7511 15.7582 30.7702 15.9104C30.7892 16.0627 30.7416 16.2245 30.6465 16.3482Z" fill="#55C6FF"/>
<path d="M26.3747 11.8096C27.3072 10.6203 29.0483 10.4109 30.2377 11.3434C31.056 11.9904 31.4366 13.0275 31.2367 14.0455L31.1987 14.2358L31.0179 14.1502C30.5707 13.9504 30.0759 13.9123 29.6002 14.0551L29.4575 14.1027L29.4099 13.9599C29.2482 13.4557 28.8866 13.037 28.4109 12.7992C27.9351 12.5613 27.3928 12.5137 26.879 12.6755C26.7838 12.704 26.6982 12.7421 26.6126 12.7801L26.565 12.8086H26.5079C26.5079 12.8086 26.4318 12.7801 26.3937 12.7801L25.623 12.7516L26.3652 11.8096H26.3747Z" fill="#FD7422"/>
<path d="M28.087 14.5882C28.087 14.7214 28.0395 14.845 27.9633 14.9497C27.8682 15.0733 27.7255 15.1496 27.5732 15.1686C27.5542 15.1686 27.5257 15.1686 27.4971 15.1686C27.3639 15.1686 27.2402 15.121 27.1356 15.0449C26.8787 14.8451 26.8406 14.474 27.0404 14.2171C27.1546 14.0744 27.3258 13.9888 27.5066 13.9888C27.8301 13.9888 28.0965 14.2552 28.0965 14.5787L28.087 14.5882Z" fill="#55C6FF"/>
<path d="M24.5296 14.2268L24.5772 14.1411L25.5382 14.1792L25.5192 14.3505C25.386 15.4447 26.1567 16.4533 27.2604 16.5865C27.5458 16.6245 27.8217 16.5959 28.0881 16.5198L28.2309 16.4723L28.2784 16.6149C28.3736 16.9099 28.5353 17.1764 28.7637 17.3952L28.8779 17.5094L28.7542 17.6235C28.2309 18.0803 27.5839 18.3086 26.9464 18.3086C26.1757 18.3086 25.4145 17.9946 24.8722 17.3762C24.111 16.5103 23.9778 15.2448 24.5296 14.2362V14.2268Z" fill="#FFCEBF"/>
<path d="M9.69549 22.6281C8.98188 22.9325 8.31585 23.2179 7.42146 23.4178L6.20358 23.6842L10.8087 21.3816C10.8753 21.3435 10.9419 21.3056 10.9895 21.2485L15.3187 16.9192C15.5946 16.6433 15.5946 16.1961 15.3187 15.9201C15.2616 15.863 15.2045 15.825 15.1379 15.7869L11.6746 14.0553C11.4367 13.9316 11.1608 13.9602 10.9419 14.1124L5.07133 18.3083L3.7012 18.2893L2.70215 17.7946L3.20643 16.2722H4.42432C4.63365 16.2722 4.82394 16.1865 4.95715 16.0343L8.75353 11.6956C9.67646 10.6395 11.1512 10.1922 12.5119 10.5633L19.4291 12.4473C20.0856 12.6281 20.685 13.0277 21.1037 13.5605L22.7592 15.6823V15.7299C22.8449 17.6899 24.2435 19.3074 26.175 19.6595H26.2131L26.2416 19.6976C27.3453 20.6776 28.5728 21.5053 29.8953 22.1619L30.2378 22.3331H30.4471L29.7526 22.6281C28.5347 23.1514 27.3739 23.6556 25.0142 23.6556C22.6546 23.6556 21.5033 23.1609 20.2759 22.6376C18.9724 22.0762 17.6308 21.4958 14.9762 21.4958C12.3216 21.4958 10.98 22.0762 9.67646 22.6376L9.69549 22.6281Z" fill="#FFCEBF"/>
</svg>
