<svg width="40" height="40" viewBox="0 0 40 40" fill="none" xmlns="http://www.w3.org/2000/svg">
<path d="M8.66699 11.7041C10.8761 11.7041 12.667 9.90578 12.667 7.68748C12.667 5.46919 10.8761 3.6709 8.66699 3.6709C6.45785 3.6709 4.66699 5.46919 4.66699 7.68748C4.66699 9.90578 6.45785 11.7041 8.66699 11.7041Z" fill="#FD7422"/>
<path d="M19.3327 21.7456L11.9993 19.7373L13.3327 11.0347L12.666 7.6875H10.666V9.69579L9.33266 11.0347L7.02155 18.5769C6.78821 19.3356 6.76599 20.1389 6.95488 20.9088C7.19932 21.8794 7.76599 22.7385 8.56599 23.341L15.3327 28.4399V30.0577C15.3327 30.3143 15.3882 30.5709 15.5104 30.8052L16.2327 32.2445L21.7993 33.7618L25.2549 33.8846L29.666 32.4788L30.4993 30.8163C30.6104 30.582 30.6771 30.3254 30.6771 30.0688V27.1122L33.3438 28.451V30.4593L32.0104 31.7982L32.7771 32.6573L35.3438 33.137L37.1438 28.3171C37.2771 27.9601 37.3438 27.5919 37.3438 27.2126C37.3438 25.9407 36.5771 24.7915 35.4104 24.3005L30.3882 22.203C29.6993 21.9129 28.966 21.7679 28.2215 21.7679H19.3549L19.3327 21.7456Z" fill="#FFCEBF"/>
<path d="M24.8335 17.7275H25.3001C25.3001 16.2436 24.1112 15.0498 22.6335 15.0498C21.1557 15.0498 19.9668 16.2436 19.9668 17.7275V19.7358C19.9668 19.7358 19.9668 19.7693 19.9668 19.7805L20.0001 19.7358C21.2779 18.4527 23.0224 17.7275 24.8335 17.7275Z" fill="#005DBB"/>
<path d="M24.8335 17.729C23.0224 17.729 21.289 18.4542 20.0001 19.7373L19.9668 19.7819C19.989 21.2435 21.1779 22.415 22.6335 22.415C24.1112 22.415 25.3001 21.2212 25.3001 19.7373V17.729H24.8335Z" fill="#FFCEBF"/>
<path d="M39.3333 33.2925C37.8444 33.2925 36.9778 33.0247 36.2 32.7123L37.7556 28.5395C38.4778 26.6093 37.5444 24.456 35.6556 23.6638L30.6333 21.5663C29.8667 21.2427 29.0444 21.0754 28.2111 21.0754H25.6889C25.8778 20.6514 25.9667 20.1939 25.9667 19.7365V17.7282C25.9667 15.8761 24.4778 14.381 22.6333 14.381C20.7889 14.381 19.3 15.8761 19.3 17.7282V19.7365C19.3 20.1939 19.4 20.6514 19.5778 21.0754H19.4222L12.7444 19.2456L13.9889 11.1343C14 11.0562 13.9889 10.9781 13.9889 10.9L13.3333 7.60863C13.2889 5.02016 11.1667 2.95608 8.58889 3.00071C6.01111 3.04534 3.95556 5.17636 4 7.76483C4.03333 10.1525 5.86667 12.1273 8.23333 12.3504L6.38889 18.3753C5.76667 20.4059 6.47778 22.6039 8.16667 23.8758L14.6667 28.7738V30.4474C14.6667 30.5478 14.6889 30.6594 14.7333 30.7486L15.1889 31.6524C13.7222 31.7639 12.8444 32.1433 12 32.5115C11.0667 32.9131 10.1889 33.2925 8.4 33.2925C6.61111 33.2925 5.72222 32.9131 4.8 32.5115C3.78889 32.0763 2.74444 31.6189 0.666667 31.6189C0.3 31.6189 0 31.9201 0 32.2883C0 32.6565 0.3 32.9578 0.666667 32.9578C2.46667 32.9578 3.34444 33.3371 4.26667 33.7388C5.27778 34.1739 6.32222 34.6313 8.4 34.6313C10.4778 34.6313 11.5222 34.1739 12.5333 33.7388C13.4667 33.3371 14.3444 32.9578 16.1333 32.9578C17.9222 32.9578 18.8111 33.3371 19.7333 33.7388C20.7444 34.1739 21.7889 34.6313 23.8667 34.6313C25.9444 34.6313 26.9889 34.1739 28 33.7388C28.9333 33.3371 29.8111 32.9578 31.6 32.9578C33.3889 32.9578 34.2778 33.3371 35.2 33.7388C36.2111 34.1739 37.2556 34.6313 39.3333 34.6313C39.7 34.6313 40 34.3301 40 33.9619C40 33.5937 39.7 33.2925 39.3333 33.2925ZM20.6333 17.7282C20.6333 16.6236 21.5333 15.7199 22.6333 15.7199C23.4778 15.7199 24.2444 16.2554 24.5222 17.0699C23.1333 17.1257 21.7889 17.572 20.6333 18.353V17.7282ZM24.6333 18.3976V19.7365C24.6333 20.841 23.7333 21.7448 22.6333 21.7448C21.6444 21.7448 20.8 21.0196 20.6556 20.0377C21.7444 19.0224 23.1556 18.4423 24.6333 18.3976ZM5.33333 7.68673C5.33333 5.83464 6.82222 4.33957 8.66667 4.33957C9.22222 4.33957 9.76667 4.47346 10.2444 4.74123C8.11111 5.81232 6.74444 7.97681 6.66667 10.3645C5.82222 9.72849 5.33333 8.7355 5.33333 7.68673ZM8 10.9669V10.5764C8 8.41194 9.33333 6.47059 11.3556 5.71191C11.6444 6.10241 11.8333 6.54869 11.9333 7.0173H10.6667C10.3 7.0173 10 7.31854 10 7.68673V9.41609L8.86667 10.5541C8.78889 10.6322 8.73333 10.7215 8.7 10.8331L8.64445 11.0339C8.43333 11.0339 8.22222 11.0116 8.01111 10.9669H8ZM32.6667 30.1685L31.5333 31.3065C31.4444 31.3957 31.3889 31.4962 31.3556 31.6189C31.1667 31.6189 30.9889 31.6189 30.8111 31.6412L31.2556 30.7486C31.3 30.6594 31.3222 30.5478 31.3222 30.4474V28.1825L32.6556 28.8519V30.1685H32.6667ZM34.9667 32.1879C34.3444 31.9424 33.6889 31.7751 33.0222 31.697L33.8 30.916C33.9222 30.7933 34 30.6147 34 30.4474V28.4391C34 28.1825 33.8556 27.9593 33.6333 27.8366L30.9667 26.4977C30.6333 26.3304 30.2333 26.4643 30.0778 26.799C30.0333 26.8882 30.0111 26.9998 30.0111 27.1002V30.2912L29.2222 31.8867C28.6222 32.0429 28.0444 32.2549 27.4889 32.5115C26.5556 32.9131 25.6778 33.2925 23.8889 33.2925C22.1 33.2925 21.2111 32.9131 20.2889 32.5115C19.3667 32.1098 18.4222 31.697 16.6889 31.63L16.0222 30.2912V28.4391C16.0222 28.2271 15.9222 28.0263 15.7556 27.9035L8.98889 22.8047C7.74444 21.8675 7.22222 20.2609 7.67778 18.777L9.75556 11.9822C9.78889 11.9153 9.81111 11.8372 9.82222 11.7591L9.93333 11.3909L11.1556 10.1748C11.2778 10.0521 11.3556 9.87354 11.3556 9.70618V8.36732H12.1444L12.6778 11.0562L11.3667 19.6472C11.3111 19.9819 11.5222 20.3055 11.8556 20.3948L19.1889 22.4031C19.2444 22.4142 19.3 22.4254 19.3667 22.4254H20.6667C21.8556 23.3179 23.4778 23.3179 24.6667 22.4254H28.2444C28.9 22.4254 29.5556 22.5593 30.1556 22.8047L35.1778 24.9023C36.4111 25.4155 37.0111 26.8213 36.5444 28.0709L35 32.1991L34.9667 32.1879Z" fill="black"/>
<path d="M31.6001 34.9878C29.5334 34.9878 28.4778 35.4452 27.4667 35.8804C26.5334 36.282 25.6556 36.6614 23.8667 36.6614C22.0778 36.6614 21.189 36.282 20.2667 35.8804C19.2556 35.4452 18.2112 34.9878 16.1334 34.9878C14.0556 34.9878 13.0112 35.4452 12.0001 35.8804C11.0667 36.282 10.189 36.6614 8.40006 36.6614C8.0334 36.6614 7.7334 36.9626 7.7334 37.3308C7.7334 37.699 8.0334 38.0002 8.40006 38.0002C10.4667 38.0002 11.5223 37.5539 12.5334 37.1077C13.4667 36.706 14.3445 36.3267 16.1334 36.3267C17.9223 36.3267 18.8112 36.706 19.7334 37.1077C20.7445 37.5428 21.789 38.0002 23.8667 38.0002C25.9445 38.0002 26.989 37.5428 28.0001 37.1077C28.9334 36.706 29.8112 36.3267 31.6001 36.3267C31.9667 36.3267 32.2667 36.0254 32.2667 35.6572C32.2667 35.289 31.9667 34.9878 31.6001 34.9878Z" fill="black"/>
</svg>
