<svg width="40" height="40" viewBox="0 0 40 40" fill="none" xmlns="http://www.w3.org/2000/svg">
<path d="M37.8704 26.9893H2.15039V38.4007H37.8704V26.9893Z" fill="#DDA064"/>
<path d="M30.5245 26.9893H2.14062V30.2826H26.0912C28.1073 30.2826 29.8278 28.9123 30.5139 26.9893H30.5245Z" fill="#E8AD77"/>
<path d="M7.33317 38.412H2.15039V1.62109H14.2998C17.5615 8.41503 5.36984 20.4023 5.36984 20.4023C5.36984 20.4023 10.0037 34.1744 8.12484 37.8938C7.96651 38.2162 7.66039 38.412 7.32261 38.412H7.33317Z" fill="#D12439"/>
<path d="M5.47422 37.8967C7.35311 34.1774 3.16255 20.4052 3.16255 20.4052C3.16255 20.4052 7.72255 8.65978 5.80144 1.62402H2.13867V38.4149H4.672C4.99922 38.4149 5.31589 38.2192 5.47422 37.8967Z" fill="#EF4A50"/>
<path d="M14.2992 1.61426H11.6709C10.8581 12.5421 3.16309 20.3955 3.16309 20.3955C3.16309 20.3955 7.35364 34.1676 5.47476 37.887C5.31642 38.2094 5.01031 38.4052 4.67253 38.4052H7.33253C7.65976 38.4052 7.97643 38.2094 8.13476 37.887C10.0136 34.1676 5.37976 20.3955 5.37976 20.3955C5.37976 20.3955 17.5609 8.39668 14.3098 1.61426H14.2992Z" fill="#EF4A50"/>
<path d="M5.79235 22.0842H2.09791C1.80235 22.0842 1.55957 21.8193 1.55957 21.4969V20.2532C1.55957 19.9308 1.80235 19.666 2.09791 19.666H5.79235C6.08791 19.666 6.33068 19.9308 6.33068 20.2532V21.4969C6.33068 21.8193 6.08791 22.0842 5.79235 22.0842Z" fill="#FEC93E"/>
<path d="M32.6774 38.412H37.8602V1.62109H25.7108C22.4491 8.41503 34.6408 20.4023 34.6408 20.4023C34.6408 20.4023 30.0069 34.1744 31.8858 37.8938C32.0441 38.2162 32.3502 38.412 32.688 38.412H32.6774Z" fill="#D12439"/>
<path d="M34.532 37.8967C32.6531 34.1774 36.8436 20.4052 36.8436 20.4052C36.8436 20.4052 32.2836 8.65978 34.2047 1.62402H37.8675V38.4149H35.3342C35.007 38.4149 34.6903 38.2192 34.532 37.8967Z" fill="#EF4A50"/>
<path d="M25.7087 1.61426H28.337C29.1498 12.5421 36.8448 20.3955 36.8448 20.3955C36.8448 20.3955 32.6542 34.1676 34.5331 37.887C34.6915 38.2094 34.9976 38.4052 35.3353 38.4052H32.6753C32.3481 38.4052 32.0315 38.2094 31.8731 37.887C29.9942 34.1676 34.6281 20.3955 34.6281 20.3955C34.6281 20.3955 22.447 8.39668 25.6981 1.61426H25.7087Z" fill="#EF4A50"/>
<path d="M34.219 22.0842H37.9135C38.209 22.0842 38.4518 21.8193 38.4518 21.4969V20.2532C38.4518 19.9308 38.209 19.666 37.9135 19.666H34.219C33.9235 19.666 33.6807 19.9308 33.6807 20.2532V21.4969C33.6807 21.8193 33.9235 22.0842 34.219 22.0842Z" fill="#FEC93E"/>
<path d="M37.9135 20.8871H34.219C33.9235 20.8871 33.6807 20.6222 33.6807 20.2998V21.5089C33.6807 21.8313 33.9235 22.0962 34.219 22.0962H37.9135C38.209 22.0962 38.4518 21.8313 38.4518 21.5089V20.2998C38.4518 20.6222 38.209 20.8871 37.9135 20.8871Z" fill="#EFB635"/>
<path d="M34.535 37.896C33.0572 34.9712 35.3161 25.8857 36.3611 22.0857H34.2183C34.2183 22.0857 34.1444 22.0857 34.1022 22.0742C32.9411 25.8627 30.3972 34.9712 31.875 37.896C32.0333 38.2184 32.3394 38.4142 32.6772 38.4142H35.3372C35.01 38.4142 34.6933 38.2184 34.535 37.896Z" fill="#D12439"/>
<path d="M5.79235 20.8871H2.09791C1.80235 20.8871 1.55957 20.6222 1.55957 20.2998V21.5089C1.55957 21.8313 1.80235 22.0962 2.09791 22.0962H5.79235C6.08791 22.0962 6.33068 21.8313 6.33068 21.5089V20.2998C6.33068 20.6222 6.08791 20.8871 5.79235 20.8871Z" fill="#EFB635"/>
<path d="M5.79121 22.0906H3.64844C4.69344 25.8791 6.94177 34.9761 5.47454 37.9009C5.31621 38.2233 5.0101 38.4191 4.67232 38.4191H7.33232C7.65955 38.4191 7.97622 38.2233 8.13455 37.9009C9.61233 34.9761 7.06844 25.8676 5.90733 22.0791C5.87566 22.0791 5.83344 22.0906 5.79121 22.0906Z" fill="#D12439"/>
<path d="M37.8704 1.61426C37.8704 4.34335 29.8693 7.63673 20.0104 7.63673C10.1515 7.63673 2.15039 4.34335 2.15039 1.61426H37.8704Z" fill="#D12439"/>
<path d="M18.237 32.5332H15.3448C14.3737 32.5332 13.582 33.3968 13.582 34.4562V38.4174H19.9998V34.4562C19.9998 33.3968 19.2081 32.5332 18.237 32.5332Z" fill="#D12439"/>
<path d="M11.8191 32.5332H8.92685C7.95574 32.5332 7.16406 33.3968 7.16406 34.4562V38.4174H13.5818V34.4562C13.5818 33.3968 12.7902 32.5332 11.8191 32.5332Z" fill="#D12439"/>
<path d="M11.8211 32.5262H8.92884C8.92884 32.5262 8.82329 32.5262 8.77051 32.5262C9.66773 32.6068 10.3749 33.4358 10.3749 34.4377V38.3989H13.5838V34.4377C13.5838 33.3783 12.7922 32.5146 11.8211 32.5146V32.5262Z" fill="#CE2E41"/>
<path d="M18.2488 32.5262H15.3566C15.3566 32.5262 15.251 32.5262 15.1982 32.5262C16.0955 32.6068 16.8027 33.4358 16.8027 34.4377V38.3989H20.0116V34.4377C20.0116 33.3783 19.2199 32.5146 18.2488 32.5146V32.5262Z" fill="#CE2E41"/>
<path d="M24.6433 32.5283H21.7511C20.78 32.5283 19.9883 33.3919 19.9883 34.4513V38.4125H26.4061V34.4513C26.4061 33.3919 25.6144 32.5283 24.6433 32.5283Z" fill="#D12439"/>
<path d="M31.0613 32.5283H28.169C27.1979 32.5283 26.4062 33.3919 26.4062 34.4513V38.4125H32.824V34.4513C32.824 33.3919 32.0324 32.5283 31.0613 32.5283Z" fill="#D12439"/>
<path d="M24.6443 32.5291H21.7521C21.7521 32.5291 21.6465 32.5291 21.5938 32.5291C22.491 32.6097 23.1982 33.4388 23.1982 34.4406V38.4018H26.4071V34.4406C26.4071 33.3812 25.6154 32.5176 24.6443 32.5176V32.5291Z" fill="#CE2E41"/>
<path d="M31.0623 32.5291H28.1701C28.1701 32.5291 28.0645 32.5291 28.0117 32.5291C28.9089 32.6097 29.6162 33.4388 29.6162 34.4406V38.4018H32.825V34.4406C32.825 33.3812 32.0334 32.5176 31.0623 32.5176V32.5291Z" fill="#CE2E41"/>
<path d="M38.4194 19.2055V1.61027C38.4194 1.27633 38.1661 1 37.86 1H2.14C1.83389 1 1.58055 1.27633 1.58055 1.61027V19.2055C1.23222 19.4012 1 19.8042 1 20.2533V21.497C1 21.9576 1.23222 22.3491 1.58055 22.5449V38.3897C1.58055 38.7236 1.83389 39 2.14 39H37.86C38.1661 39 38.4194 38.7236 38.4194 38.3897V22.5449C38.7678 22.3491 39 21.946 39 21.497V20.2533C39 19.7927 38.7678 19.4012 38.4194 19.2055ZM37.0894 2.2206C36.8678 2.57757 36.4561 3.00363 35.8017 3.44121C35.8017 3.44121 35.7806 3.44122 35.7806 3.45273C35.7383 3.47576 35.7067 3.4988 35.6644 3.53335C35.6433 3.54486 35.6328 3.55634 35.6117 3.56786C35.58 3.59089 35.5483 3.60239 35.5167 3.62542C35.4956 3.63693 35.4639 3.66001 35.4428 3.67152C35.4217 3.68304 35.39 3.70604 35.3689 3.71756C35.3372 3.74059 35.3056 3.75209 35.2739 3.77512C35.2739 3.77512 35.2633 3.77512 35.2528 3.77512C35.1683 3.82118 35.0839 3.86724 34.9994 3.9133C34.9783 3.92481 34.9572 3.93636 34.9256 3.94788C34.8939 3.97091 34.8622 3.98241 34.8306 4.00544C34.7989 4.01695 34.7672 4.03996 34.7355 4.05147C34.7039 4.06299 34.6722 4.08606 34.6406 4.09758C34.5983 4.12061 34.5667 4.14363 34.5244 4.15514C34.5033 4.16666 34.4717 4.1782 34.4506 4.18972C34.3978 4.21275 34.345 4.24723 34.2817 4.27026C34.2711 4.27026 34.2606 4.2818 34.25 4.29332C34.0178 4.39695 33.775 4.51214 33.5217 4.61577C33.1839 4.75396 32.8356 4.89212 32.4556 5.0303C31.4211 5.39879 30.3128 5.72117 29.1411 5.99754C29.12 5.99754 29.0989 5.99754 29.0883 5.99754C27.98 6.25087 26.8083 6.45819 25.6155 6.6194C25.605 6.6194 25.5839 6.6194 25.5733 6.6194C23.7789 6.8497 21.9 6.97637 20.0106 6.97637C18.1211 6.97637 16.2422 6.8497 14.4478 6.6194C14.4372 6.6194 14.4161 6.6194 14.4056 6.6194C13.2128 6.45819 12.0411 6.25087 10.9328 5.99754C10.9117 5.99754 10.8906 5.99754 10.88 5.99754C9.70833 5.73269 8.6 5.4103 7.56556 5.0303C7.18556 4.89212 6.82667 4.75396 6.49944 4.61577C6.24611 4.51214 6.00333 4.39695 5.77111 4.29332C5.76055 4.29332 5.75 4.28178 5.72888 4.27026C5.67611 4.24723 5.61278 4.21275 5.56 4.18972C5.53889 4.1782 5.50722 4.16666 5.48611 4.15514C5.44389 4.13211 5.40167 4.10909 5.37 4.09758C5.33833 4.08606 5.30666 4.06299 5.275 4.05147C5.24333 4.03996 5.21167 4.01695 5.18 4.00544C5.14833 3.98241 5.11666 3.97091 5.08499 3.94788C5.06388 3.93636 5.04277 3.92481 5.01111 3.9133C4.92666 3.86724 4.84222 3.82118 4.76833 3.77512C4.76833 3.77512 4.75777 3.77512 4.74722 3.77512C4.71555 3.75209 4.68389 3.74059 4.65222 3.71756C4.63111 3.70604 4.59944 3.68304 4.57833 3.67152C4.55722 3.66001 4.52556 3.63693 4.50444 3.62542C4.47278 3.60239 4.44111 3.59089 4.40944 3.56786C4.38833 3.55634 4.37778 3.54486 4.35667 3.53335C4.31444 3.51032 4.28278 3.48728 4.24056 3.45273C4.24056 3.45273 4.21944 3.45272 4.21944 3.44121C3.565 2.99212 3.15334 2.57757 2.93167 2.2206H37.1211H37.0894ZM2.69945 3.76359C2.86833 3.92481 3.06889 4.08608 3.29055 4.25881C3.88166 4.7079 4.67333 5.16845 5.71833 5.64057C5.71833 9.4636 4.69444 13.7127 3.81833 16.6491C3.72333 16.9715 3.88167 17.317 4.17722 17.4206C4.47278 17.5243 4.78944 17.3515 4.88444 17.0291C5.75 14.1157 6.75277 9.95878 6.82666 6.1012C6.94277 6.14726 7.06944 6.19332 7.19611 6.23938C8.10388 6.5618 9.075 6.8612 10.0883 7.10302C8.90611 11.0873 6.985 14.3806 5.54944 16.4764C5.37 16.7412 5.41222 17.1212 5.66555 17.3285C5.76055 17.4091 5.88722 17.4551 6.00333 17.4551C6.17222 17.4551 6.34111 17.3746 6.44666 17.2134C7.95611 15.0255 9.97222 11.5709 11.1861 7.36784C11.9567 7.52905 12.7483 7.67875 13.5506 7.7939C12.3683 10.949 10.0039 14.1963 8.16722 16.4418C7.96667 16.6951 7.97722 17.0751 8.20945 17.3054C8.44167 17.5242 8.79 17.5127 9.00111 17.2594C12.4317 13.0909 13.9939 9.95876 14.7011 7.95513C16.4217 8.1624 18.2056 8.26606 20.0106 8.26606C21.8156 8.26606 23.5994 8.1624 25.32 7.95513C26.5233 11.3751 29.0567 14.8873 31.02 17.2709C31.2206 17.5242 31.5794 17.5473 31.8117 17.3169C32.0439 17.0982 32.065 16.7066 31.8539 16.4533C30.0172 14.2079 27.6528 10.9606 26.4706 7.80542C27.2728 7.69027 28.0644 7.54058 28.835 7.37937C30.0594 11.5824 32.0756 15.0485 33.585 17.2363C33.6906 17.3975 33.8594 17.4782 34.0283 17.4782C34.1444 17.4782 34.2606 17.4436 34.3661 17.3515C34.6089 17.1443 34.6617 16.7643 34.4822 16.4994C33.0361 14.4037 31.115 11.1103 29.9328 7.11454C30.9461 6.86121 31.9172 6.57333 32.825 6.25091C32.9517 6.20485 33.0678 6.15879 33.1944 6.11273C33.2683 9.97031 34.2711 14.1273 35.1367 17.0406C35.2317 17.363 35.5483 17.5358 35.8439 17.4321C36.1394 17.3285 36.2978 16.983 36.2028 16.6606C35.3267 13.7242 34.3133 9.47513 34.3133 5.6521C35.3583 5.19149 36.15 4.71935 36.7411 4.27026C36.9628 4.09754 37.1633 3.93633 37.3322 3.77512V19.0788H34.2395C33.6378 19.0788 33.1522 19.6085 33.1522 20.2648V21.5085C33.1522 21.8309 33.2683 22.1303 33.4689 22.3375C33.1311 23.4545 32.73 24.8594 32.3394 26.3794H7.73444C7.34389 24.8594 6.94278 23.4545 6.605 22.3375C6.795 22.1188 6.92167 21.8309 6.92167 21.5085V20.2648C6.92167 19.6085 6.43611 19.0788 5.83445 19.0788H2.74167V3.77512L2.69945 3.76359ZM2.11889 21.4739V20.2764H5.77111V21.4739H2.11889ZM4.99 37.5951C4.92667 37.7218 4.81055 37.7909 4.68389 37.7909H2.70999V22.6945H3.24833C5.275 30.1909 5.92945 35.7527 5.00056 37.5951H4.99ZM13.0228 37.7909H7.72388V34.4284C7.72388 33.703 8.26222 33.1158 8.92722 33.1158H11.8194C12.4844 33.1158 13.0228 33.703 13.0228 34.4284V37.7909ZM19.4406 37.7909H14.1417V34.4284C14.1417 33.703 14.68 33.1158 15.345 33.1158H18.2372C18.9022 33.1158 19.4406 33.703 19.4406 34.4284V37.7909ZM25.8583 37.7909H20.5594V34.4284C20.5594 33.703 21.0978 33.1158 21.7628 33.1158H24.655C25.32 33.1158 25.8583 33.703 25.8583 34.4284V37.7909ZM32.2761 37.7909H26.9772V34.4284C26.9772 33.703 27.5156 33.1158 28.1806 33.1158H31.0728C31.7378 33.1158 32.2761 33.703 32.2761 34.4284V37.7909ZM33.395 37.7909V34.4284C33.395 33.0351 32.3606 31.9066 31.0833 31.9066H28.1911C27.4839 31.9066 26.8611 32.2521 26.4283 32.7933C26.0061 32.2521 25.3728 31.9066 24.6656 31.9066H21.7733C21.0661 31.9066 20.4433 32.2521 20.0106 32.7933C19.5883 32.2521 18.955 31.9066 18.2478 31.9066H15.3556C14.6483 31.9066 14.0256 32.2521 13.5928 32.7933C13.1706 32.2521 12.5372 31.9066 11.83 31.9066H8.93777C7.66055 31.9066 6.62611 33.0351 6.62611 34.4284V37.7909H6.15111C7.28055 34.6703 5.66555 27.3581 4.42 22.6945H5.52833C6.05611 24.4448 6.74223 26.8975 7.27 29.3963C7.34389 29.7188 7.63944 29.9261 7.935 29.857C8.23056 29.7764 8.42056 29.4539 8.35722 29.1315C8.25167 28.6248 8.13556 28.1066 8.01945 27.6115H32.0333C31.9172 28.1182 31.8011 28.6364 31.685 29.143C31.6111 29.4655 31.8011 29.7994 32.1072 29.8685C32.1494 29.8685 32.1917 29.88 32.2339 29.88C32.4872 29.88 32.7195 29.6842 32.7722 29.4079C33.3 26.9091 33.9967 24.4448 34.5244 22.6945H35.6328C34.3872 27.3697 32.7722 34.6818 33.9017 37.7909H33.395ZM37.3322 37.7909H35.3583C35.2317 37.7909 35.105 37.7103 35.0522 37.5951C34.1233 35.7412 34.7778 30.1909 36.8044 22.6945H37.3428V37.7909H37.3322ZM37.9128 21.4739H34.2606V20.2764H37.9128V21.4739Z" fill="black"/>
</svg>
