<svg width="40" height="40" viewBox="0 0 40 40" fill="none" xmlns="http://www.w3.org/2000/svg">
<g clip-path="url(#clip0_225_10370)">
<path d="M20.01 9.10042C22.8007 7.47171 25.9858 6.62231 29.2213 6.64229C32.3861 6.59233 35.5206 7.25186 38.3821 8.57081C38.9786 8.86058 39.3527 9.46003 39.3527 10.1195V31.6924C39.3527 32.6517 38.5742 33.431 37.6035 33.431C37.3912 33.431 37.1788 33.3911 36.9766 33.3211C34.4893 32.4219 31.8604 31.9721 29.2112 31.9921C26.2891 31.9921 23.4074 32.6716 20.8088 33.9805C20.3033 34.2503 19.6966 34.2503 19.191 33.9805C16.5925 32.6716 13.7108 31.9821 10.7886 31.9921C8.13951 31.9721 5.52071 32.4219 3.03336 33.3211C2.12336 33.6609 1.11223 33.2112 0.76845 32.3119C0.697672 32.1121 0.657227 31.9023 0.657227 31.6924V10.1195C0.657227 9.46003 1.03135 8.86058 1.62791 8.57081C4.49948 7.25186 7.63395 6.59233 10.7886 6.64229C14.0242 6.61231 17.2092 7.46172 19.9999 9.10042H20.01Z" fill="white"/>
<path d="M19.9999 34.8406C19.6157 34.8406 19.2315 34.7508 18.8776 34.5709C16.3902 33.3219 13.5995 32.6524 10.7987 32.6524C10.728 32.6524 10.6673 32.6524 10.5965 32.6524C8.07883 32.6524 5.61171 33.0821 3.2558 33.9414C2.02224 34.401 0.626887 33.7815 0.151662 32.5525C0.0505498 32.2827 0 31.993 0 31.7032V10.1303C0 9.221 0.505559 8.40165 1.33468 8.00197C4.28714 6.64305 7.57328 5.95361 10.7987 6.01356C13.9939 5.97359 17.189 6.80291 19.9999 8.36167C22.7603 6.82289 25.8846 6.00356 29.0595 6.00356C29.1101 6.00356 29.1607 6.00356 29.2213 6.00356C32.4468 5.9436 35.7127 6.64304 38.6551 7.99196C39.4943 8.40164 40.01 9.221 39.9999 10.1303V31.7032C39.9999 32.3427 39.7471 32.9322 39.2921 33.3918C38.6247 34.0513 37.6035 34.2612 36.7339 33.9414C34.3174 33.0621 31.7693 32.6424 29.2112 32.6524H29.191C26.3902 32.6524 23.5894 33.3119 21.102 34.5709C20.7583 34.7508 20.374 34.8406 19.9898 34.8406H19.9999ZM10.8089 31.3534C13.8018 31.3534 16.8048 32.0629 19.4843 33.4118C19.8078 33.5817 20.1819 33.5817 20.4954 33.4118C23.1748 32.0629 26.1779 31.3434 29.1809 31.3434C29.2517 31.3434 29.3224 31.3434 29.4033 31.3434C32.0626 31.3434 34.6814 31.803 37.1889 32.7123C37.6035 32.8622 38.0585 32.7622 38.3618 32.4625C38.5641 32.2527 38.6854 31.983 38.6854 31.6932V10.1203C38.6854 9.70061 38.4528 9.33093 38.0787 9.15108C35.3285 7.89208 32.2547 7.24261 29.2213 7.29257C29.1708 7.29257 29.1202 7.29257 29.0798 7.29257C25.9959 7.29257 22.9827 8.11191 20.3437 9.66068C20.1415 9.78059 19.8786 9.78059 19.6764 9.66068C17.0373 8.11191 14.0242 7.29257 10.9504 7.29257C10.8999 7.29257 10.8493 7.29257 10.8089 7.29257C7.74516 7.24261 4.68148 7.89209 1.91101 9.16108C1.55712 9.34094 1.32456 9.7106 1.32456 10.1203V31.7032C1.32456 31.8331 1.34478 31.9629 1.39534 32.0928C1.49645 32.3626 1.69868 32.5725 1.97168 32.6924C2.23457 32.8123 2.53791 32.8222 2.81091 32.7223C5.38926 31.793 8.06872 31.3134 10.8089 31.3534Z" fill="black"/>
<path d="M16.4918 11.229C14.6819 10.4996 12.7507 10.1299 10.7992 10.1199C8.54445 10.0999 6.29976 10.4896 4.18652 11.259V29.3147C6.35032 28.7751 8.57478 28.5053 10.7992 28.5153C12.7204 28.5153 14.6314 28.7651 16.4918 29.2547V11.229Z" fill="#009AE0"/>
<path d="M4.17578 29.9739C4.03423 29.9739 3.89267 29.9241 3.77133 29.8341C3.60956 29.7142 3.51855 29.5244 3.51855 29.3245V11.2688C3.51855 10.9991 3.69044 10.7593 3.94322 10.6593C6.14746 9.84998 8.43259 9.46024 10.7885 9.48022C12.831 9.48022 14.833 9.86995 16.7238 10.6393C16.9765 10.7393 17.1383 10.979 17.1383 11.2388V29.2645C17.1383 29.4644 17.0473 29.6542 16.8855 29.7841C16.7238 29.904 16.5114 29.944 16.3193 29.894C14.4892 29.4144 12.5681 29.1846 10.6975 29.1746C8.55393 29.1746 6.42048 29.4345 4.33757 29.954C4.28701 29.964 4.22634 29.9739 4.17578 29.9739ZM4.83301 11.7186V28.4951C6.78447 28.0655 8.78649 27.8456 10.7885 27.8656C12.4771 27.8656 14.1757 28.0555 15.8239 28.4252V11.6685C14.2061 11.069 12.5175 10.7692 10.7885 10.7692C8.72582 10.7692 6.75414 11.0691 4.83301 11.7186Z" fill="black"/>
<path d="M12.9721 24.8989H10.333L12.0924 27.5068L9.98926 28.536C10.2623 28.536 10.515 28.526 10.7982 28.526C12.7193 28.526 14.6303 28.7758 16.4908 29.2654V24.0296L14.7314 22.291L12.9721 24.8989Z" fill="#FAC100"/>
<path d="M16.4914 29.915C16.4307 29.915 16.3802 29.915 16.3195 29.895C14.5197 29.4153 12.6592 29.1756 10.7988 29.1756C10.6269 29.1756 10.4651 29.1756 10.3134 29.1856H10.0202C9.80789 29.1956 9.66633 29.1356 9.54499 29.0157C9.42366 28.8958 9.34277 28.7259 9.34277 28.5461C9.34277 28.2963 9.48433 28.0565 9.70678 27.9466L11.1426 27.237L9.79777 25.2386C9.66633 25.0388 9.64611 24.7791 9.76744 24.5692C9.88878 24.3594 10.1011 24.2294 10.3438 24.2294H12.6289L14.1961 21.9113C14.3074 21.7515 14.4793 21.6415 14.6815 21.6215C14.8736 21.6015 15.0758 21.6715 15.2073 21.8114L16.9666 23.55C17.0879 23.6699 17.1587 23.8398 17.1587 24.0096V29.2455C17.1587 29.4453 17.0677 29.6352 16.9059 29.7651C16.7947 29.855 16.6532 29.895 16.5015 29.895L16.4914 29.915ZM12.5784 27.9466C13.6704 28.0365 14.7624 28.1964 15.8342 28.4362V24.2994L14.8331 23.3102L13.5187 25.2586C13.3974 25.4385 13.1951 25.5485 12.9727 25.5485H11.5672L12.6491 27.1472C12.7502 27.307 12.7806 27.4969 12.7401 27.6768C12.7098 27.7767 12.6592 27.8766 12.5885 27.9566L12.5784 27.9466Z" fill="black"/>
<path d="M4.17578 11.269V20.8014L16.4811 18.6431V11.229C14.6712 10.4996 12.74 10.1299 10.7885 10.1199C8.5337 10.0999 6.28902 10.4896 4.17578 11.259V11.269Z" fill="#FAC100"/>
<path d="M4.17578 21.4508C4.02412 21.4508 3.87245 21.4008 3.75112 21.3009C3.59945 21.181 3.51855 20.9911 3.51855 20.8013V11.2688C3.51855 10.9991 3.69044 10.7593 3.94322 10.6593C6.14746 9.84998 8.43259 9.46024 10.7885 9.48022C12.831 9.48022 14.833 9.86995 16.7238 10.6393C16.9765 10.7393 17.1383 10.979 17.1383 11.2388V18.653C17.1383 18.9727 16.9058 19.2325 16.5923 19.2925L4.28701 21.4508C4.28701 21.4508 4.20612 21.4508 4.17578 21.4508ZM4.83301 11.7186V20.0219L15.8239 18.0935V11.6685C14.2061 11.069 12.5175 10.7692 10.7885 10.7692C8.72582 10.7692 6.75414 11.0691 4.83301 11.7186Z" fill="black"/>
<path d="M10.3335 10.1299C8.23037 10.1599 6.14746 10.5396 4.17578 11.259V20.8014L10.3335 19.7222V10.1299Z" fill="#FF9500"/>
<path d="M4.17578 21.4508C4.02412 21.4508 3.87245 21.4008 3.75112 21.3009C3.59945 21.181 3.51855 20.9911 3.51855 20.8013V11.2688C3.51855 10.999 3.69044 10.7492 3.94322 10.6593C5.98568 9.90991 8.13937 9.52017 10.3133 9.4902C10.4852 9.48021 10.6571 9.55021 10.7885 9.68011C10.9098 9.80002 10.9806 9.96984 10.9806 10.1397V19.7321C10.9806 20.0518 10.7481 20.3116 10.4346 20.3716L4.27689 21.4508C4.27689 21.4508 4.196 21.4508 4.16567 21.4508H4.17578ZM4.83301 11.7185V20.0219L9.67627 19.1726V10.7992C8.02815 10.8792 6.40025 11.1889 4.83301 11.7185Z" fill="black"/>
<path d="M4.1748 24.7795C4.45792 24.8594 4.76126 24.8993 5.05448 24.8894C6.99583 24.8894 8.57317 23.3306 8.57317 21.4121C8.57317 20.9525 8.48217 20.4929 8.29006 20.0732L4.1748 20.7926V24.7695V24.7795Z" fill="#EAEFF0"/>
<path d="M5.02478 25.5482C4.69111 25.5482 4.34733 25.4983 4.01366 25.4083C3.73055 25.3284 3.52832 25.0786 3.52832 24.7788V20.802C3.52832 20.4823 3.76088 20.2225 4.07433 20.1625L8.18958 19.4431C8.49291 19.3931 8.78614 19.543 8.90747 19.8228C9.12992 20.3324 9.25125 20.872 9.24114 21.4315C9.24114 23.6997 7.37057 25.5482 5.06522 25.5482C5.05511 25.5482 5.045 25.5482 5.02478 25.5482ZM4.84278 24.2392C4.91356 24.2392 4.98433 24.2392 5.05511 24.2392C6.64257 24.2392 7.91657 22.9703 7.91657 21.4115C7.91657 21.2017 7.89635 21.0019 7.85591 20.812L4.84278 21.3416V24.2292V24.2392Z" fill="black"/>
<path d="M29.2102 10.1208C27.2587 10.1208 25.3275 10.5005 23.5176 11.23V29.2657C25.378 28.776 27.2891 28.5263 29.2102 28.5263C31.4448 28.5263 33.6591 28.7861 35.8229 29.3257V11.27C33.7097 10.4906 31.465 10.1009 29.2102 10.1208Z" fill="#009AE0"/>
<path d="M35.8336 29.9745C35.7831 29.9745 35.7224 29.9746 35.6719 29.9546C33.5991 29.435 31.4656 29.1752 29.322 29.1752H29.2209C27.3503 29.1752 25.4899 29.415 23.6901 29.8946C23.4879 29.9445 23.2857 29.9046 23.1239 29.7847C22.9621 29.6648 22.8711 29.4749 22.8711 29.2651V11.2294C22.8711 10.9696 23.0329 10.7298 23.2857 10.6299C25.1866 9.87048 27.1785 9.48088 29.2209 9.47089C31.5162 9.4609 33.8721 9.85053 36.0662 10.6599C36.319 10.7498 36.4909 10.9996 36.4909 11.2694V29.3251C36.4909 29.5249 36.3999 29.7148 36.2381 29.8347C36.1167 29.9246 35.9752 29.9745 35.8336 29.9745ZM29.322 27.8762C31.2836 27.8762 33.2553 28.086 35.1764 28.5057V11.729C33.2553 11.0795 31.2937 10.7598 29.2209 10.7798C27.4919 10.7798 25.8033 11.0896 24.1856 11.6791V28.4358C25.8741 28.0561 27.593 27.8662 29.3321 27.8762H29.322Z" fill="black"/>
<path d="M23.5176 20.241V29.2538C25.378 28.7642 27.2891 28.5144 29.2102 28.5144C31.4448 28.5144 33.6591 28.7743 35.8229 29.3138V18.0928L23.5176 20.241Z" fill="#FAC100"/>
<path d="M35.8336 29.9735C35.7831 29.9735 35.7224 29.9736 35.6719 29.9536C33.5991 29.434 31.4656 29.1742 29.322 29.1742H29.2209C27.3503 29.1742 25.4899 29.4139 23.6901 29.8936C23.4879 29.9435 23.2857 29.9036 23.1239 29.7837C22.9621 29.6638 22.8711 29.4739 22.8711 29.2641V20.2512C22.8711 19.9315 23.1037 19.6617 23.4171 19.6117L35.7224 17.4635C35.9145 17.4235 36.1066 17.4834 36.2583 17.6033C36.41 17.7232 36.4909 17.9131 36.4909 18.1029V29.3241C36.4909 29.5239 36.3999 29.7138 36.2381 29.8337C36.1167 29.9236 35.9752 29.9735 35.8336 29.9735ZM29.322 27.8752C31.2836 27.8752 33.2553 28.085 35.1764 28.5047V18.8723L24.1856 20.7908V28.4348C25.8337 28.0651 27.5222 27.8752 29.2209 27.8752C29.2614 27.8752 29.2917 27.8752 29.3321 27.8752H29.322Z" fill="black"/>
<path d="M29.6768 28.5344C31.7496 28.5544 33.8224 28.8242 35.8345 29.3238V18.0928L29.6768 19.1619V28.5244V28.5344Z" fill="#FF9500"/>
<path d="M35.8345 29.9735C35.7839 29.9735 35.7232 29.9736 35.6727 29.9536C33.7111 29.464 31.6889 29.2042 29.6666 29.1842C29.3026 29.1842 29.0195 28.8944 29.0195 28.5347V19.1721C29.0195 18.8524 29.2521 18.5826 29.5655 18.5326L35.7233 17.4635C35.9154 17.4235 36.1075 17.4834 36.2591 17.6033C36.4108 17.7232 36.4917 17.913 36.4917 18.1029V29.3341C36.4917 29.5339 36.4007 29.7237 36.2389 29.8436C36.1176 29.9335 35.976 29.9835 35.8345 29.9835V29.9735ZM30.334 27.9052C31.9619 27.9651 33.5797 28.1649 35.1772 28.5047V18.8723L30.334 19.7117V27.8952V27.9052Z" fill="black"/>
<path d="M28.7965 16.2068C29.7681 16.2068 30.5558 15.4284 30.5558 14.4682C30.5558 13.508 29.7681 12.7295 28.7965 12.7295C27.8248 12.7295 27.0371 13.508 27.0371 14.4682C27.0371 15.4284 27.8248 16.2068 28.7965 16.2068Z" fill="#EAEFF0"/>
<path d="M28.7965 16.8552C27.4618 16.8552 26.3799 15.7862 26.3799 14.4672C26.3799 13.1483 27.4618 12.0791 28.7965 12.0791C30.1311 12.0791 31.213 13.1483 31.213 14.4672C31.213 15.7862 30.1311 16.8552 28.7965 16.8552ZM28.7965 13.378C28.1898 13.378 27.6943 13.8677 27.6943 14.4672C27.6943 15.0667 28.1898 15.5563 28.7965 15.5563C29.4031 15.5563 29.8986 15.0667 29.8986 14.4672C29.8986 13.8677 29.4031 13.378 28.7965 13.378Z" fill="black"/>
<path d="M31.5884 18.8326C30.8806 17.3138 29.0505 16.6444 27.5136 17.3438C26.5025 17.8034 25.825 18.7626 25.7441 19.8517L31.5884 18.8226V18.8326Z" fill="#EAEFF0"/>
<path d="M25.7335 20.5114C25.5717 20.5114 25.41 20.4515 25.2886 20.3416C25.137 20.2017 25.0561 20.0118 25.0763 19.812C25.1875 18.493 26.0065 17.3239 27.23 16.7643C29.1005 15.915 31.3149 16.7244 32.1743 18.563C32.2552 18.7428 32.2552 18.9526 32.1642 19.1324C32.0732 19.3123 31.9013 19.4322 31.6991 19.4721L25.8549 20.5014C25.8549 20.5014 25.774 20.5014 25.7436 20.5014L25.7335 20.5114ZM28.7871 17.7235C28.4534 17.7235 28.1097 17.7936 27.776 17.9435C27.2704 18.1733 26.866 18.5629 26.6233 19.0426L30.4453 18.373C30.0005 17.9534 29.3938 17.7235 28.7871 17.7235Z" fill="black"/>
<path d="M20.0098 35C19.6458 35 19.3525 34.7102 19.3525 34.3505V9.10068C19.3525 8.74097 19.6458 8.45117 20.0098 8.45117C20.3738 8.45117 20.667 8.74097 20.667 9.10068V34.3505C20.667 34.7102 20.3738 35 20.0098 35Z" fill="black"/>
</g>
<defs>
<clipPath id="clip0_225_10370">
<rect width="40" height="40" fill="white"/>
</clipPath>
</defs>
</svg>
