<svg width="40" height="40" viewBox="0 0 40 40" fill="none" xmlns="http://www.w3.org/2000/svg">
<path d="M21.8823 7.13294L22.0994 8.48635L20.6387 10.719C20.5696 10.8277 20.4117 10.8277 20.3426 10.719L18.8818 8.48635L19.1286 7.28114L21.8921 7.12305L21.8823 7.13294Z" fill="#FFCEBF"/>
<path d="M13.088 16.3005V11.9637C13.088 10.7091 13.9467 9.6224 15.1705 9.34579L18.8717 8.48633L18.7928 10.4325C18.7138 12.2798 19.3159 14.0877 20.4805 15.53C21.6451 14.0976 22.2472 12.2798 22.1682 10.4325L22.0893 8.49622L24.5863 9.07904L25.6523 9.54332C26.8663 9.82981 27.646 11.0054 27.646 12.2501L27.4585 16.3104H13.0781L13.088 16.3005Z" fill="#1F5389"/>
<path d="M25.4251 11.5976C24.7343 10.906 24.4579 9.95758 24.5961 9.05859L25.8101 9.33523C27.0241 9.62172 27.8926 10.6986 27.8926 11.9532V16.2901H25.6521V12.121C25.6521 11.9235 25.5732 11.726 25.435 11.5877" fill="#173E67"/>
<path d="M10.1865 20.9441L20.7867 18.9287L30.7848 20.9441L28.6925 31.4849L28.7813 36.4639L20.688 37.8074L12.1901 36.4639L10.1865 20.9441Z" fill="#D77F4A"/>
<path d="M28.4547 20.9427L29.4023 19.8955L30.784 20.9427L28.7805 36.4625L27.4184 37.5393L26.4512 36.4625L28.4547 20.9427Z" fill="#C86D36"/>
<path d="M10.4923 36.9075C10.4923 36.6605 10.6897 36.4629 10.9364 36.4629H27.5177L29.6792 36.7395C29.926 36.7395 30.1234 36.9371 30.1234 37.184L30.2221 38.4683C30.2221 38.7153 30.0247 38.9129 29.7779 38.9129L27.5079 39.1499H10.4824V36.9075H10.4923Z" fill="#D77F4A"/>
<path d="M30.0245 36.464C30.2713 36.464 30.4687 36.6616 30.4687 36.9086V38.6966C30.4687 38.9436 30.2713 39.1413 30.0245 39.1413H27.5176V36.4541H30.0245V36.464Z" fill="#C86D36"/>
<path d="M31.9197 15.7177C32.4823 15.7177 32.9067 16.2314 32.7981 16.7748L32.4428 19.7581C32.3638 20.1829 31.9986 20.4893 31.5644 20.4893L28.4554 20.9338H9.23884C8.80457 20.9338 8.43938 20.6275 8.36042 20.2028L7.69915 16.6167C7.60045 16.0635 8.01498 15.5596 8.57756 15.5596H29.0081L31.9197 15.7177Z" fill="#D77F4A"/>
<path d="M29.0078 15.5693H32.3931C32.9557 15.5693 33.3801 16.0831 33.2716 16.6265L32.6103 20.2125C32.5313 20.6373 32.1563 20.9436 31.7319 20.9436H28.4551L29.0078 15.5693Z" fill="#C86D36"/>
<path d="M29.7285 11.7259C29.2054 12.2495 28.3566 12.2495 27.8236 11.7259L26.5603 10.4614C26.0372 9.93778 26.0372 9.08815 26.5603 8.56456C27.0834 8.04098 27.9322 8.04098 28.4553 8.56456L29.7186 9.8291C30.2417 10.3527 30.2417 11.2023 29.7186 11.7259" fill="#72706F"/>
<path d="M11.2419 11.7259C11.765 12.2495 12.6138 12.2495 13.1369 11.7259L14.4003 10.4614C14.9234 9.93778 14.9234 9.08815 14.4003 8.56456C13.8772 8.04098 13.0284 8.04098 12.5053 8.56456L11.2419 9.8291C10.7188 10.3527 10.7188 11.2023 11.2419 11.7259Z" fill="#72706F"/>
<path d="M17.2529 4.15872C18.2991 3.33877 19.3749 2.83488 20.5593 2.86452C21.5957 2.89416 22.938 3.29925 23.7275 4.15872C23.6683 6.13451 22.2471 8.43627 20.4902 8.43627C18.7334 8.43627 17.3121 6.13451 17.2529 4.15872Z" fill="#FFCEBF"/>
<path d="M17.2432 4.03048C17.2432 2.03493 18.694 0.859375 20.4805 0.859375C22.2669 0.859375 23.7178 2.03493 23.7178 4.03048C23.7178 4.07 23.7178 4.10952 23.7178 4.15891C21.6846 3.1809 19.2763 3.1809 17.2432 4.15891C17.2432 4.1194 17.2432 4.07988 17.2432 4.03048Z" fill="#72706F"/>
<path d="M30.0742 39.9997H10.9464C10.3246 39.9997 9.82129 39.4958 9.82129 38.8735V37.0754C9.82129 36.4531 10.3246 35.9492 10.9464 35.9492H30.0742C30.696 35.9492 31.1993 36.4531 31.1993 37.0754V38.8735C31.1993 39.4958 30.696 39.9997 30.0742 39.9997ZM11.1735 38.656H29.857V37.3125H11.1735V38.656Z" fill="black"/>
<path d="M20.5091 8.9405C18.2983 8.9405 16.5908 6.20401 16.5908 3.85282C16.5908 1.50163 18.1996 0 20.5091 0C22.8187 0 24.4275 1.58066 24.4275 3.85282C24.4275 6.12498 22.72 8.9405 20.5091 8.9405ZM20.5091 1.34364C19.2261 1.34364 17.9331 2.124 17.9331 3.85282C17.9331 5.58163 19.1471 7.58709 20.5091 7.58709C21.8712 7.58709 23.0852 5.5026 23.0852 3.85282C23.0852 2.124 21.7922 1.34364 20.5091 1.34364Z" fill="black"/>
<path d="M18.892 9.26613C18.8328 9.26613 18.7835 9.26623 18.7242 9.24647C18.359 9.15756 18.1419 8.79196 18.2406 8.42644L18.4479 7.60653C18.5367 7.24101 18.9019 7.02368 19.2671 7.12247C19.6323 7.21138 19.8494 7.57686 19.7507 7.94238L19.5434 8.76241C19.4645 9.06866 19.1881 9.27602 18.892 9.27602V9.26613Z" fill="black"/>
<path d="M22.1187 9.2658C21.8028 9.2658 21.5265 9.04853 21.4574 8.72253L21.2896 7.87295C21.2106 7.50743 21.4475 7.15174 21.8127 7.08259C22.1779 7.00356 22.5332 7.24068 22.6023 7.6062L22.7701 8.45578C22.849 8.8213 22.6122 9.17699 22.247 9.24614C22.1976 9.24614 22.1582 9.25603 22.1088 9.25603L22.1187 9.2658Z" fill="black"/>
<path d="M16.2258 16.3195C15.8508 16.3195 15.5547 16.0133 15.5547 15.6478V13.4842C15.5547 13.1088 15.8508 12.8125 16.2258 12.8125C16.6009 12.8125 16.897 13.1187 16.897 13.4842V15.6478C16.897 16.0232 16.6009 16.3195 16.2258 16.3195Z" fill="black"/>
<path d="M24.7532 16.3195C24.3781 16.3195 24.082 16.0133 24.082 15.6478V13.4842C24.082 13.1088 24.3781 12.8125 24.7532 12.8125C25.1282 12.8125 25.4243 13.1187 25.4243 13.4842V15.6478C25.4243 16.0232 25.1282 16.3195 24.7532 16.3195Z" fill="black"/>
<path d="M13.0979 16.3302C12.7229 16.3302 12.4268 16.024 12.4268 15.6585V12.0823C12.4268 12.0032 12.4268 11.934 12.4268 11.855C12.4465 11.4796 12.7623 11.1932 13.1374 11.2228C13.5124 11.2426 13.7888 11.5685 13.7691 11.9341V12.0823V15.6585C13.7691 16.0339 13.473 16.3302 13.0979 16.3302Z" fill="black"/>
<path d="M20.509 16.32C20.3017 16.32 20.1142 16.2311 19.9859 16.073C18.7127 14.5022 18.0613 12.5363 18.1402 10.521L18.1797 9.45414L15.3273 10.1161C15.2286 10.1358 15.1398 10.1654 15.0608 10.1951C14.7154 10.3235 14.3206 10.1555 14.1923 9.79988C14.064 9.45411 14.2318 9.05895 14.5871 8.93052C14.7351 8.87125 14.8733 8.83172 15.0312 8.7922L18.7423 7.93274C18.9495 7.88335 19.1568 7.93276 19.3246 8.07106C19.4924 8.20937 19.5812 8.40699 19.5713 8.61445L19.4924 10.5606C19.4332 11.9436 19.7983 13.3069 20.5188 14.4726C21.2393 13.3069 21.5947 11.9436 21.5453 10.5606L21.4663 8.61445C21.4663 8.40699 21.5453 8.19949 21.7131 8.07106C21.871 7.93276 22.0881 7.88335 22.2954 7.93274L26.0065 8.7922C26.1644 8.83172 26.3124 8.87125 26.4506 8.93052C26.7961 9.05895 26.9737 9.45411 26.8355 9.79988C26.7072 10.1456 26.3124 10.3235 25.967 10.1852C25.8782 10.1555 25.7893 10.1259 25.7005 10.1062L22.8481 9.44425L22.8876 10.5012C22.9666 12.5166 22.3152 14.4923 21.0419 16.0532C20.9136 16.2113 20.7261 16.3002 20.5188 16.3002L20.509 16.32Z" fill="black"/>
<path d="M27.9223 16.3299C27.5472 16.3299 27.2511 16.0237 27.2511 15.6582V11.9437C27.2215 11.5683 27.5078 11.2522 27.8729 11.2324C28.248 11.2127 28.5638 11.4892 28.5836 11.8646C28.5836 11.9436 28.5836 12.0129 28.5836 12.0919V15.6681C28.5836 16.0435 28.2875 16.3398 27.9124 16.3398L27.9223 16.3299Z" fill="black"/>
<path d="M23.7368 4.68336C23.6381 4.68336 23.5295 4.66353 23.4407 4.61414C21.6049 3.69539 19.4138 3.69539 17.578 4.61414C17.2424 4.78208 16.8377 4.64384 16.6798 4.30795C16.512 3.97207 16.6502 3.567 16.9858 3.40893C19.1966 2.30249 21.8418 2.30249 24.0526 3.40893C24.3882 3.57688 24.5165 3.98195 24.3586 4.30795C24.2401 4.54505 24.0032 4.68336 23.7565 4.68336H23.7368Z" fill="black"/>
<path d="M20.51 11.7366C20.283 11.7366 20.0757 11.6181 19.9474 11.4304L18.3288 8.96066C18.1215 8.65442 18.2103 8.22956 18.5262 8.03198C18.842 7.82452 19.2565 7.9135 19.4539 8.22963L20.51 9.8399L21.5661 8.22963C21.7733 7.92338 22.1879 7.8344 22.4938 8.03198C22.7998 8.23944 22.8886 8.65442 22.6912 8.96066L21.0726 11.4304C20.9443 11.6181 20.737 11.7366 20.51 11.7366Z" fill="black"/>
<path d="M31.7713 21.754H9.23853C8.47855 21.754 7.83702 21.2107 7.69884 20.4698L7.02769 16.8738C6.93886 16.4095 7.06717 15.9452 7.36327 15.5796C7.65936 15.2141 8.1035 15.0166 8.56738 15.0166H32.4326C32.8965 15.0166 33.3406 15.224 33.6367 15.5796C33.9328 15.9353 34.0611 16.4095 33.9723 16.8738L33.3012 20.4698C33.163 21.2107 32.5116 21.754 31.7615 21.754H31.7713ZM8.57725 16.3601C8.48843 16.3601 8.42921 16.4095 8.40947 16.4391C8.38973 16.4688 8.34038 16.538 8.36012 16.6269L9.03126 20.2228C9.051 20.3315 9.13983 20.4105 9.2484 20.4105H31.7812C31.8898 20.4105 31.9786 20.3315 31.9983 20.2228L32.6695 16.6269C32.6892 16.538 32.6498 16.4688 32.6201 16.4391C32.5905 16.4095 32.5412 16.3601 32.4524 16.3601H8.58713H8.57725Z" fill="black"/>
<path d="M30.3605 26.4762C30.3605 26.4762 30.321 26.4762 30.2914 26.4762C29.9262 26.4367 29.6498 26.1107 29.6893 25.7353L30.1532 21.0131C30.1927 20.6377 30.5085 20.3809 30.8934 20.4105C31.2586 20.45 31.535 20.776 31.4955 21.1514L31.0316 25.8736C30.9921 26.2194 30.7059 26.4861 30.3605 26.4861V26.4762Z" fill="black"/>
<path d="M28.8195 37.3123C28.8195 37.3123 28.7504 37.3123 28.7109 37.3123C28.3457 37.253 28.099 36.9074 28.1582 36.5418L29.3919 28.8362C29.4511 28.4707 29.7966 28.2139 30.1618 28.2732C30.5269 28.3324 30.7737 28.6781 30.7145 29.0436L29.4808 36.7493C29.4314 37.0851 29.1452 37.3123 28.8195 37.3123Z" fill="black"/>
<path d="M12.1993 37.313C11.8637 37.313 11.5775 37.066 11.5281 36.7301L9.51468 21.1708C9.46533 20.8052 9.73182 20.4595 10.097 20.42C10.4721 20.3706 10.8076 20.6373 10.8471 21.0028L12.8606 36.5621C12.9099 36.9277 12.6434 37.2734 12.2782 37.313C12.2486 37.313 12.219 37.313 12.1894 37.313H12.1993Z" fill="black"/>
<path d="M30.9617 16.3593C30.5866 16.3593 30.2905 16.053 30.2905 15.6875V13.7117C30.2905 13.4055 30.1622 13.1091 29.9451 12.9017L29.3331 12.3189C29.0667 12.062 29.0568 11.6371 29.3134 11.3704C29.57 11.1037 29.9944 11.0939 30.2609 11.3507L30.8728 11.9336C31.3565 12.3979 31.6328 13.0498 31.6328 13.7216V15.6974C31.6328 16.0728 31.3367 16.3692 30.9617 16.3692V16.3593Z" fill="black"/>
<path d="M28.82 12.9119C28.2771 12.9119 27.7738 12.7045 27.3888 12.3192L26.1156 11.0448C25.7307 10.6595 25.5234 10.1557 25.5234 9.61241C25.5234 9.06906 25.7307 8.56516 26.1156 8.17988C26.8756 7.41921 28.208 7.41921 28.968 8.17988L30.2412 9.45431C31.0308 10.2446 31.0308 11.5289 30.2412 12.3093C29.8563 12.6946 29.3529 12.9021 28.8101 12.9021L28.82 12.9119ZM27.5468 8.95047C27.3691 8.95047 27.2013 9.01958 27.073 9.148C26.9447 9.27643 26.8756 9.44447 26.8756 9.62229C26.8756 9.80012 26.9447 9.96804 27.073 10.0965L28.3462 11.3708C28.6028 11.6276 29.047 11.6276 29.2937 11.3708C29.5602 11.104 29.5602 10.6793 29.2937 10.4224L28.0205 9.148C27.8922 9.01958 27.7244 8.95047 27.5468 8.95047Z" fill="black"/>
<path d="M10.0481 16.3594C9.67305 16.3594 9.37695 16.0531 9.37695 15.6876V13.7118C9.37695 13.0401 9.65331 12.3881 10.1369 11.9238L10.7489 11.341C11.0153 11.0841 11.4398 11.0939 11.6964 11.3606C11.953 11.6274 11.9431 12.0522 11.6766 12.3091L11.0647 12.8919C10.8476 13.0994 10.7192 13.3958 10.7192 13.7021V15.6778C10.7192 16.0532 10.4232 16.3495 10.0481 16.3495V16.3594Z" fill="black"/>
<path d="M12.1893 12.9117C11.6465 12.9117 11.1431 12.7043 10.7582 12.319C10.3733 11.9337 10.166 11.4298 10.166 10.8865C10.166 10.3431 10.3733 9.83935 10.7582 9.45408L12.0314 8.17965C12.821 7.38933 14.1041 7.38933 14.8838 8.17965C15.6734 8.96997 15.6734 10.2542 14.8838 11.0347L13.6106 12.3091C13.2257 12.6944 12.7223 12.9018 12.1795 12.9018L12.1893 12.9117ZM13.4527 8.95024C13.2849 8.95024 13.1072 9.01934 12.9789 9.14777L11.7057 10.4222C11.5774 10.5506 11.5083 10.7185 11.5083 10.8964C11.5083 11.0742 11.5774 11.2421 11.7057 11.3705C11.9623 11.6274 12.4065 11.6274 12.6532 11.3705L13.9264 10.0962C14.1929 9.8295 14.1929 9.40462 13.9264 9.14777C13.7981 9.01934 13.6205 8.95024 13.4527 8.95024Z" fill="black"/>
<path d="M24.9905 24.8065H16.0188C15.6438 24.8065 15.3477 24.5002 15.3477 24.1347C15.3477 23.7692 15.6438 23.4629 16.0188 23.4629H24.9905C25.3655 23.4629 25.6616 23.7692 25.6616 24.1347C25.6616 24.5002 25.3655 24.8065 24.9905 24.8065Z" fill="black"/>
</svg>
