<svg width="40" height="41" viewBox="0 0 40 41" fill="none" xmlns="http://www.w3.org/2000/svg">
<g clip-path="url(#clip0_225_10308)">
<path d="M21.3621 34.3127L22.5501 28.5961L18.245 28.5373C17.5745 28.5373 16.9629 28.9019 16.6688 29.5136L13.0812 36.9123L15.1279 39.8177H7.02344L12.3049 23.0324V19.9153H22.1972V23.0324L27.1728 24.7497C27.9139 24.9967 28.3256 25.7966 28.0786 26.5376C28.0786 26.5376 28.0786 26.5612 28.0786 26.5729L26.5024 31.1368L28.8431 34.3363H21.3856L21.3621 34.3127ZM33.5011 34.301V11.6344C33.5011 11.258 33.1953 10.9521 32.8189 10.9521C32.4425 10.9521 32.1367 11.258 32.1367 11.6344V34.301C32.1367 34.6774 32.4425 34.9832 32.8189 34.9832C33.1953 34.9832 33.5011 34.6774 33.5011 34.301Z" fill="#007AF6"/>
<path d="M32.2998 19.5157H28.7945V14.9048H32.2998C33.5701 14.9048 34.6053 15.9399 34.6053 17.2102C34.6053 18.4806 33.5701 19.5157 32.2998 19.5157ZM24.1247 6.89442V5.07121C24.1247 2.84807 22.3251 1.04838 20.1019 1.03662C17.8788 1.03662 16.0791 2.8363 16.0791 5.05944V6.88265C16.0909 9.10579 17.9023 10.8937 20.1254 10.8819C22.3368 10.8819 24.1365 9.09403 24.1483 6.88265H24.1247V6.89442Z" fill="#F9D3C8"/>
<path d="M22.1854 23.0205L23.2088 17.9508L24.9026 18.9741C25.479 19.327 26.1377 19.5152 26.8199 19.5152H31.0309V14.9042H27.114C26.8317 14.9042 26.5611 14.8101 26.3259 14.6337L22.4207 11.646H15.4102V23.0205H22.1972H22.1854Z" fill="#C4C4C4"/>
<path d="M22.702 10.5649C22.702 8.97695 21.4199 7.69482 19.8319 7.69482H11.304C9.71607 7.69482 8.43394 8.98871 8.43394 10.5767C8.43394 11.7529 9.15146 12.7998 10.2454 13.235C9.46905 13.8467 8.92797 14.7054 8.70448 15.6699L7.38706 20.9631C6.94008 22.751 8.03401 24.5624 9.83369 25.0094C10.0925 25.08 10.363 25.1035 10.6453 25.1035H14.9269C16.6795 25.1035 18.1852 23.892 18.5733 22.1864L19.8907 16.4345C20.1378 15.3758 19.8555 14.2584 19.1379 13.435H19.879C21.4552 13.4115 22.7138 12.1411 22.7138 10.5649H22.702Z" fill="#95CC81"/>
<path d="M16.4799 12.2577H13.0805C11.022 12.2577 9.23408 13.6692 8.75181 15.6571L7.48145 20.7503H18.9265L19.891 16.4217C20.3145 14.5867 19.1735 12.7635 17.3503 12.34C17.068 12.2695 16.7857 12.2459 16.4916 12.2577H16.4799ZM26.5252 4.94134H24.1609C24.0432 2.7182 22.1377 1.02438 19.9263 1.142C17.8208 1.25963 16.1623 2.97698 16.127 5.08249V6.3058H26.5369C26.9133 6.3058 27.2192 5.99997 27.2192 5.62357C27.2192 5.24717 26.9133 4.94134 26.5369 4.94134H26.5252Z" fill="#AEDB81"/>
<path d="M4.68223 40.4882H16.6213C16.8801 40.4882 17.1153 40.3353 17.233 40.1118L19.7266 34.9951H35.0651C35.4415 34.9951 35.7474 34.6893 35.7474 34.3129C35.7474 33.9364 35.4415 33.6306 35.0651 33.6306H33.4889V19.9507C34.9945 19.2802 35.665 17.5158 34.9945 16.0102C34.7005 15.3397 34.1594 14.7986 33.4889 14.5046V11.6463C33.4889 11.2698 33.1831 10.964 32.8067 10.964C32.4303 10.964 32.1245 11.2698 32.1245 11.6463V14.2223H27.0901C26.9607 14.2223 26.8313 14.187 26.7254 14.1046L23.279 11.4581C23.3613 11.164 23.4084 10.8699 23.4084 10.5641V10.3171C24.3494 9.43488 24.8904 8.1998 24.8904 6.91767V6.32954H26.5725C26.9489 6.32954 27.2547 6.02371 27.2547 5.64731C27.2547 5.2709 26.9489 4.96507 26.5725 4.96507H24.8316C24.7022 2.36553 22.4909 0.365885 19.8913 0.507036C17.4212 0.636425 15.4686 2.64784 15.4215 5.11799V7.04706H11.3399C9.37553 7.04706 7.78757 8.61149 7.77581 10.5759C7.77581 11.6933 8.2816 12.7402 9.17556 13.4106C8.64624 14.0223 8.26984 14.7398 8.06987 15.5162L6.76422 20.8093C6.2349 22.9619 7.54055 25.1498 9.70488 25.6791C10.0225 25.7614 10.3518 25.7967 10.6694 25.7967H10.74L6.50544 39.1355H4.68223C4.30583 39.1355 4 39.4414 4 39.8178C4 40.1942 4.30583 40.5 4.68223 40.5V40.4882ZM20.8088 33.6306H19.315C19.0562 33.6306 18.8209 33.7835 18.7033 34.007L16.2096 39.1238H15.4568L13.8453 36.8418L17.2447 29.7725C17.4329 29.4196 17.7976 29.1843 18.1975 29.1843L21.691 29.2314L20.797 33.6189L20.8088 33.6306ZM32.3127 18.8332H31.701V15.5867H32.3127C33.2066 15.5279 33.983 16.2102 34.0418 17.1041C34.1006 17.9981 33.4184 18.7744 32.5244 18.8332C32.4538 18.8332 32.3832 18.8332 32.3127 18.8332ZM32.148 20.1977V33.6306H29.1603L27.2312 30.9958L28.6898 26.7612C28.8662 26.2437 28.8309 25.6791 28.5957 25.1968C28.3604 24.6793 27.9252 24.2793 27.3841 24.0911L22.9731 22.5737L23.6907 19.0685L24.5493 19.5978C25.2316 20.0213 26.0197 20.2447 26.8195 20.233H32.148V20.1977ZM25.9138 15.1868C26.2549 15.4456 26.6784 15.5867 27.1136 15.5867H30.3601V18.8332H26.8313C26.2784 18.8332 25.7374 18.6685 25.2668 18.3862L23.5848 17.3629C23.3966 17.2453 23.1613 17.2335 22.9496 17.3276C22.7496 17.4217 22.5967 17.5981 22.5497 17.8216L21.6322 22.3503H19.2091L20.4912 16.6218C20.6794 15.7867 20.5971 14.9045 20.256 14.1046C21.197 13.987 22.0556 13.493 22.6203 12.7402L25.8903 15.1868H25.9138ZM13.0808 12.9401H16.4802C17.9858 12.9049 19.2326 14.0929 19.2797 15.5867C19.2797 15.822 19.2679 16.0572 19.2091 16.2807L18.3622 20.0565H8.31689L9.37552 15.8102C9.79898 14.1046 11.3281 12.9166 13.0925 12.9401H13.0808ZM20.1501 1.73035C21.938 1.73035 23.4084 3.15363 23.4789 4.94155H16.8213C16.8919 3.15363 18.3622 1.74211 20.1501 1.73035ZM16.8095 6.89415V6.30602H23.4907V6.89415C23.4907 7.56462 23.2907 8.23509 22.9026 8.78793C22.2674 7.69401 21.1029 7.01178 19.8325 7.01178H16.7978C16.7978 7.01178 16.7978 6.9412 16.7978 6.89415H16.8095ZM11.3634 8.37624H19.8443C21.0558 8.37624 22.0321 9.3643 22.0321 10.5641C22.0321 11.7756 21.0558 12.7519 19.8443 12.7519H19.3973C18.621 11.9874 17.5741 11.5639 16.4802 11.5757H13.0808C12.0692 11.5757 11.0693 11.8815 10.2342 12.4579C9.18732 11.8462 8.83444 10.5053 9.4461 9.4584C9.84603 8.77617 10.5753 8.36448 11.3516 8.37624H11.3634ZM8.57567 23.3618C8.15221 22.809 7.97577 22.1032 8.05811 21.4092H18.0446L17.9034 21.9974C17.5976 23.3971 16.3625 24.397 14.9275 24.3852H10.6459C9.82251 24.3852 9.04617 24.0088 8.54038 23.3736L8.57567 23.3501V23.3618ZM12.1868 25.7614H14.9628C16.4802 25.7614 17.8917 24.9968 18.7033 23.7147H22.1027L26.9607 25.385C27.1489 25.4438 27.3018 25.585 27.3841 25.7614C27.4782 25.9379 27.49 26.1378 27.4194 26.326L25.8432 30.9017C25.7726 31.1134 25.8079 31.3369 25.9373 31.5251L27.4782 33.6424H22.1968L23.2201 28.7256C23.3025 28.361 23.0672 27.9963 22.7026 27.914C22.6555 27.914 22.5967 27.9022 22.5497 27.9022L18.2328 27.8434C17.3035 27.8434 16.4449 28.3727 16.0332 29.2079L12.4573 36.6301C12.3515 36.8536 12.375 37.1124 12.5162 37.3123L13.7983 39.1355H7.95225L12.1868 25.7614Z" fill="black"/>
</g>
<defs>
<clipPath id="clip0_225_10308">
<rect width="40" height="40" fill="white" transform="translate(0 0.5)"/>
</clipPath>
</defs>
</svg>
