<svg width="40" height="41" viewBox="0 0 40 41" fill="none" xmlns="http://www.w3.org/2000/svg">
<path d="M18.6355 23.7834V30.5372C16.003 30.9704 13.3037 30.5704 10.9266 29.3819C11.5376 29.6929 12.0041 30.2259 12.2152 30.8813V30.9035C12.4373 31.5367 12.3818 32.2365 12.0819 32.8252L11.1932 34.5914L11.8708 37.2906H5.11719C5.11719 36.4575 5.58372 35.7021 6.32795 35.3356L7.82753 34.5914C7.82753 34.5914 7.71644 34.0583 7.53872 33.2363C7.31656 32.2255 7.00554 30.7704 6.70562 29.3819C6.17244 26.9381 7.52761 24.4722 9.87138 23.5947L9.93803 23.5725C10.7822 23.2614 11.682 23.1835 12.5595 23.3612L13.9813 23.65L14.5811 23.7723H18.6355V23.7834Z" fill="#F8CC9E"/>
<path d="M28.0993 37.301L28.7769 34.6018L27.8883 32.8355C27.5884 32.2357 27.5328 31.547 27.755 30.9139V30.8917C27.9771 30.2363 28.4437 29.7033 29.0546 29.3923C26.6664 30.5808 23.9672 30.9807 21.3457 30.5475V23.7938H25.4001L25.9999 23.6715L27.4217 23.3827C28.2993 23.205 29.2101 23.2829 30.0432 23.5939L30.1099 23.6159C32.4536 24.4934 33.7977 26.9485 33.2756 29.4034C32.9757 30.7919 32.6647 32.247 32.4425 33.2578C32.2648 34.0687 32.1537 34.6129 32.1537 34.6129L33.6533 35.3571C34.3975 35.7236 34.8641 36.4901 34.8641 37.3121H28.1104L28.0993 37.301Z" fill="#F8CC9E"/>
<path d="M22.7006 26.4819L22.1674 28.0592L21.3454 30.5476H18.6351L17.8131 28.0592L17.291 26.4819H22.7006Z" fill="#808080"/>
<path d="M39.2187 21.8389C39.0632 22.1499 38.741 22.3498 38.3967 22.3498C38.3523 22.3498 38.3078 22.3498 38.2634 22.3498L34.1868 21.7722L33.5092 20.417H31.4764L26.0669 18.3842V19.4616C26.0669 19.5838 26.0669 19.7061 26.0336 19.8172C25.9558 20.2948 25.7336 20.7393 25.3893 21.0836L25.8447 21.9943C25.9891 22.2831 26.0669 22.6053 26.0669 22.9275C26.0669 23.4828 25.8447 24.005 25.456 24.3938L24.6006 25.2491C22.0569 27.7928 17.9137 27.7928 15.3699 25.2491L14.5146 24.3938C14.1259 24.005 13.9037 23.4717 13.9037 22.9275C13.9037 22.7719 13.9259 22.6054 13.9592 22.4499C13.9592 22.4166 13.9703 22.3832 13.9815 22.3609C14.0148 22.2387 14.0592 22.1165 14.1259 22.0054L14.5813 21.0948C14.3702 20.8837 14.1925 20.628 14.0814 20.3503C14.0148 20.1837 13.9592 20.006 13.937 19.8283C13.9148 19.7061 13.9037 19.5838 13.9037 19.4728V18.3953L8.49414 20.4282H6.46139L5.7838 21.7833L1.70719 22.3609C1.20734 22.4276 0.740803 22.0833 0.674156 21.5834C0.618616 21.2169 0.796342 20.8613 1.10736 20.6614L7.13897 17.0402L10.5158 15.6851L11.0267 15.1741C11.9487 14.2522 13.3261 13.93 14.5702 14.341C17.9692 12.6415 21.9792 12.6415 25.3893 14.341C26.6334 13.93 27.9997 14.2522 28.9327 15.1741L29.4437 15.6851L32.8205 17.0402L38.8521 20.6614C39.2631 20.9058 39.4186 21.4279 39.1965 21.8611L39.2187 21.8389Z" fill="#F8CC9E"/>
<path d="M19.9896 4.17676C20.7338 4.17676 21.3447 4.77682 21.3447 5.53216V7.56473H18.6455V5.53216C18.6455 4.78793 19.2453 4.17676 20.0007 4.17676H19.9896Z" fill="#4D4D4D"/>
<path d="M16.6128 12.9637L14.5801 10.2645L15.5909 8.99809C16.6573 7.66514 18.279 6.8877 19.9785 6.8877C21.6892 6.8877 23.2998 7.66514 24.3662 8.99809L25.377 10.2645L23.3442 12.9637H16.5906H16.6128Z" fill="#808080"/>
<path d="M19.9901 15.675C18.124 15.675 16.6133 14.1643 16.6133 12.2982V11.6207C17.3575 11.6207 17.9685 11.0209 17.9685 10.2656V9.58789H22.0228V10.2656C22.0228 11.0098 22.6227 11.6207 23.378 11.6207V12.2982C23.378 14.1643 21.8673 15.675 20.0012 15.675H19.9901Z" fill="#F8CC9E"/>
<path d="M39.207 20.0618L33.1754 16.4406C33.1754 16.4406 33.1088 16.4073 33.0754 16.3962L29.8208 15.0966L29.3987 14.6746C28.3657 13.6305 26.855 13.2195 25.4443 13.5972C25.0111 13.3973 24.5779 13.2193 24.1335 13.0638L25.933 10.6757C26.1219 10.4313 26.1108 10.087 25.9219 9.84259L24.9111 8.5764C24.1669 7.63223 23.156 6.93234 22.023 6.54356V5.53284C22.023 4.41094 21.1122 3.5 19.9903 3.5C18.8684 3.5 17.9575 4.41094 17.9575 5.53284V6.54356C16.8134 6.93234 15.8137 7.63223 15.0695 8.5764L14.0586 9.84259C13.8698 10.087 13.8587 10.4202 14.0475 10.6757L15.847 13.0638C15.4027 13.2193 14.9584 13.3973 14.5363 13.5972C13.1145 13.2306 11.6149 13.6416 10.5819 14.6746L10.1598 15.0966L6.90514 16.3962C6.90514 16.3962 6.83849 16.4295 6.80516 16.4406L0.773554 20.0618C0.0182149 20.5173 -0.226157 21.4947 0.229268 22.2501C0.562506 22.7943 1.18455 23.0945 1.8177 23.0056L5.89431 22.428C6.11647 22.3946 6.3053 22.2613 6.40528 22.0613L6.89403 21.0839H8.50467C8.58243 21.0839 8.6713 21.0728 8.73795 21.0395L13.2367 19.351V19.4508C13.2367 20.0729 13.4255 20.6728 13.7809 21.1726L13.5255 21.6835C13.3477 22.039 13.2478 22.4167 13.2367 22.8166L12.6924 22.7057C11.6927 22.5057 10.6485 22.5834 9.69323 22.95L9.62658 22.9722C6.97178 23.9608 5.43889 26.7599 6.03872 29.5258C6.43861 31.3697 6.8607 33.3136 7.04954 34.2133L6.02761 34.7242C5.05011 35.2019 4.43918 36.2017 4.45029 37.2902C4.45029 37.6679 4.7502 37.9679 5.12787 37.9679H11.8815C12.2592 37.9679 12.5591 37.6679 12.5591 37.2902C12.5591 37.2347 12.5591 37.1793 12.5369 37.1237L11.9259 34.6689L12.7035 33.1359C13.0478 32.4361 13.1367 31.6363 12.9367 30.8809C14.814 31.4141 16.7801 31.5253 18.7018 31.2142H21.301C23.2227 31.5253 25.1888 31.4141 27.066 30.8809C26.8661 31.6363 26.9549 32.4361 27.2993 33.1359L28.0769 34.6689L27.4659 37.1237C27.3771 37.4903 27.5992 37.8568 27.9547 37.9457C28.0102 37.9568 28.0657 37.9679 28.1213 37.9679H34.8749C35.2526 37.9679 35.5525 37.6679 35.5525 37.2902C35.5525 36.2017 34.9416 35.213 33.9752 34.7242L32.9532 34.2133C33.1421 33.3136 33.5642 31.3697 33.964 29.5258C34.5639 26.7488 33.0421 23.9608 30.3762 22.9722L30.3095 22.95C29.3543 22.5945 28.3101 22.5057 27.3104 22.7057L26.7661 22.8166C26.755 22.4278 26.655 22.039 26.4773 21.6835L26.2218 21.1726C26.5773 20.6728 26.7772 20.0618 26.7661 19.4508V19.351L31.2648 21.0395C31.3426 21.0728 31.4203 21.0839 31.4981 21.0839H33.1088L33.5975 22.0613C33.6975 22.2613 33.8863 22.3946 34.1085 22.428L38.1851 23.0056C39.0515 23.1278 39.8624 22.528 39.9845 21.6505C40.0734 21.0173 39.7735 20.384 39.2292 20.0618H39.207ZM19.3127 5.53284C19.3127 5.15517 19.6126 4.85514 19.9903 4.85514C20.3679 4.85514 20.6679 5.15517 20.6679 5.53284V6.24363C20.2235 6.19919 19.7681 6.19919 19.3127 6.24363V5.53284ZM16.1247 9.42061C17.8353 7.28789 20.9456 6.94333 23.0783 8.64284C23.3671 8.87611 23.6226 9.13181 23.8558 9.42061L24.5445 10.276L23.878 11.1644C23.7448 11.02 23.567 10.9311 23.3782 10.9311C23.0005 10.9311 22.7006 10.6314 22.7006 10.2537V9.57601C22.7006 9.19834 22.4007 8.8983 22.023 8.8983H17.9686C17.591 8.8983 17.2911 9.19834 17.2911 9.57601V10.2537C17.2911 10.6314 16.9911 10.9311 16.6135 10.9311C16.4246 10.9311 16.2358 11.0089 16.1136 11.1644L15.4471 10.276L16.1358 9.42061H16.1247ZM22.6895 12.1754V12.2863C22.6895 13.7747 21.4787 14.9857 19.9903 14.9857C18.5018 14.9857 17.2911 13.7747 17.2911 12.2863V12.1754C18.1019 11.8866 18.6462 11.1201 18.6462 10.2648H21.3454C21.3454 11.1201 21.8897 11.8866 22.7006 12.1754H22.6895ZM11.2483 28.7928C11.2483 28.7928 11.2261 28.7928 11.215 28.7817L10.8262 28.5929C10.493 28.4263 10.082 28.5593 9.91538 28.8926C9.74877 29.2258 9.88206 29.6369 10.2153 29.8035L10.593 29.9925C10.593 29.9925 10.6152 30.0034 10.6374 30.0145C11.0817 30.2478 11.415 30.6365 11.5705 31.1142V31.1364C11.7371 31.6029 11.6926 32.1028 11.4816 32.5471L10.593 34.3134C10.5152 34.4578 10.5041 34.6243 10.5374 34.7798L11.004 36.6462H5.94985C6.09426 36.3574 6.33863 36.1129 6.62744 35.9685L7.98261 35.2908H9.17116V33.9356H8.36027C8.16033 33.0248 7.74934 31.092 7.34946 29.2592C6.90514 27.1487 8.06036 25.016 10.082 24.2495L10.1487 24.2273C10.8707 23.9607 11.6482 23.8942 12.4036 24.0497L13.5588 24.2829C13.681 24.5051 13.8365 24.705 14.0142 24.8828L14.8695 25.7381C15.4138 26.2824 16.047 26.7489 16.7468 27.0932L17.7132 29.9925C15.4805 30.2147 13.2367 29.8036 11.2261 28.815L11.2483 28.7928ZM19.1239 29.8591L18.3907 27.6486C19.446 27.893 20.5346 27.893 21.5898 27.6486L20.8567 29.8591H19.1239ZM27.5548 24.0274C28.3101 23.8719 29.0877 23.9385 29.8097 24.2051L29.8763 24.2273C31.898 24.9937 33.0532 27.1154 32.6089 29.237C32.209 31.0698 31.798 33.0025 31.5981 33.9134H30.7872V35.2688H31.9757L33.3309 35.9462C33.6197 36.0906 33.8641 36.324 34.0085 36.6239H28.9544L29.4209 34.7576C29.4653 34.6021 29.4431 34.4356 29.3654 34.2912L28.4767 32.5249C28.2546 32.0917 28.2213 31.5807 28.3768 31.1142V31.0922C28.5434 30.6146 28.8766 30.2258 29.3209 29.9925C29.332 29.9925 29.3432 29.9814 29.3654 29.9703L29.743 29.7813C30.0763 29.6146 30.2096 29.2039 30.043 28.8706C29.8763 28.5374 29.4653 28.4041 29.1321 28.5707L28.7433 28.7705C28.7433 28.7705 28.7211 28.7706 28.71 28.7817C26.6995 29.7814 24.4557 30.1924 22.223 29.9592L23.1894 27.0599C23.8781 26.7155 24.5112 26.2601 25.0666 25.7047L25.9219 24.8494C26.0996 24.6717 26.2551 24.4717 26.3773 24.2495L27.5326 24.0163L27.5548 24.0274ZM38.6072 21.5282C38.5627 21.617 38.4628 21.6727 38.3517 21.6616L34.6305 21.1281L34.1085 20.0952L33.4309 18.74L32.2201 19.3399L32.4089 19.7177H31.5981L26.3107 17.7293L26.0108 17.6181C25.5554 17.4404 25.2888 16.9627 25.3887 16.474L24.0669 16.1963C23.8447 17.2738 24.4001 18.3736 25.3998 18.829V19.44C25.3998 20.3397 24.6667 21.0728 23.767 21.0728H22.9783C22.5451 21.0728 22.1341 20.906 21.8231 20.595L20.8678 21.5504C21.4232 22.1169 22.1896 22.428 22.9783 22.428H23.767C24.2446 22.428 24.7223 22.3168 25.1444 22.0947L25.2443 22.2945C25.3443 22.4945 25.3887 22.7056 25.3887 22.9166C25.3887 23.2943 25.2443 23.6496 24.9777 23.9051L24.1224 24.7605C21.8342 27.0487 18.1352 27.0487 15.847 24.7605L14.9917 23.9051C14.7251 23.6385 14.5807 23.2832 14.5807 22.9166C14.5807 22.6945 14.6363 22.4834 14.7251 22.2945L14.8251 22.0947C15.2472 22.3168 15.7248 22.4391 16.2025 22.428H16.9911C17.7798 22.428 18.5463 22.1169 19.1016 21.5504L18.1464 20.595C17.8465 20.906 17.4243 21.0728 16.9911 21.0728H16.2025C15.3027 21.0728 14.5696 20.3397 14.5696 19.44V18.829C15.5804 18.3736 16.1358 17.2738 15.9026 16.1963L14.5807 16.474C14.6807 16.9516 14.4141 17.4404 13.9587 17.6181L13.6588 17.7293L8.37138 19.7177H7.5605L7.74934 19.3399L6.53857 18.74L5.86099 20.0952L5.33891 21.1281L1.61776 21.6616C1.48446 21.6838 1.36228 21.5836 1.34006 21.4614C1.32895 21.3615 1.37338 21.2726 1.45114 21.2171L7.43831 17.6293L10.7707 16.2964C10.8596 16.263 10.9373 16.2074 10.9929 16.1518L11.5038 15.6409C12.2481 14.8967 13.3477 14.6302 14.3474 14.9635C14.5141 15.019 14.7029 15.0079 14.8584 14.9301C15.3694 14.6746 15.8915 14.4635 16.4357 14.2858C17.5354 16.2408 20.0014 16.9296 21.9564 15.8299C22.6006 15.4634 23.1449 14.93 23.5004 14.2858C24.0447 14.4635 24.5667 14.6746 25.0777 14.9301C25.2332 15.0079 25.4221 15.019 25.5887 14.9635C26.5884 14.6302 27.6881 14.8856 28.4323 15.6409L28.9433 16.1518C29.0099 16.2185 29.0877 16.263 29.1654 16.2964L32.4978 17.6293L38.485 21.2171C38.5961 21.2837 38.6294 21.4171 38.5739 21.5282H38.6072Z" fill="black"/>
</svg>
