<svg width="40" height="40" viewBox="0 0 40 40" fill="none" xmlns="http://www.w3.org/2000/svg">
<g clip-path="url(#clip0_225_10350)">
<path d="M34.3466 23.5896C35.9986 21.9474 37.1595 20.0056 37.8069 17.9972L37.9297 17.5867C39.0459 13.6809 38.2534 9.56429 35.4293 6.75701C35.1056 6.43523 34.7596 6.14674 34.4024 5.88043C34.2908 5.79167 34.168 5.72509 34.0564 5.63632C33.7996 5.45879 33.5429 5.29235 33.2862 5.1481C33.1522 5.07043 33.0071 4.99276 32.8732 4.92618C32.6053 4.79303 32.3374 4.67097 32.0583 4.56001C31.9244 4.50453 31.7904 4.44905 31.6453 4.40467C31.2993 4.28262 30.9421 4.18275 30.5737 4.09398C30.5067 4.08289 30.4398 4.0607 30.3728 4.0385C29.9486 3.94974 29.5133 3.88316 29.0668 3.83878C28.9329 3.82768 28.7877 3.82768 28.6538 3.81658C28.3413 3.79439 28.0399 3.7833 27.7273 3.79439C27.5599 3.79439 27.3925 3.80549 27.225 3.81658C27.0911 3.81658 26.9571 3.81658 26.8232 3.83878V3.86097C26.0753 3.92754 25.3051 4.0496 24.5461 4.27152L24.1331 4.39357C22.1127 5.03714 20.1704 6.19112 18.5072 7.83332C17.9268 8.41031 17.4133 9.02059 16.9557 9.66416C16.9557 9.66416 16.8887 9.76402 16.8552 9.8195C16.6766 10.0747 16.5203 10.3299 16.3641 10.5851C16.3194 10.6517 16.2748 10.7183 16.2413 10.7848C16.0515 11.1066 15.8841 11.4395 15.7278 11.7724C15.6832 11.8612 15.6497 11.9499 15.605 12.0387C15.4822 12.305 15.3818 12.5602 15.2813 12.8265C15.2478 12.9264 15.2032 13.0262 15.1697 13.1261C15.0469 13.4701 14.9353 13.814 14.846 14.1691C14.8125 14.2912 14.7455 14.6351 14.6562 15.1234C14.2879 17.0763 13.4954 21.5035 12.9372 24.6104C12.5577 26.7519 11.5196 28.727 9.96806 30.2694L9.93457 30.3026L11.754 32.1113L11.7875 32.078C13.3391 30.5357 15.326 29.5037 17.4803 29.1265C20.6058 28.5717 25.093 27.7839 27.0464 27.4177C27.5264 27.3289 27.8613 27.2624 27.9841 27.2291C28.3301 27.1403 28.6873 27.0293 29.0333 26.9073C29.1338 26.874 29.2342 26.8407 29.3347 26.7963C29.6026 26.6965 29.8705 26.5855 30.1272 26.4745C30.2165 26.4302 30.3058 26.3969 30.3951 26.3525C30.73 26.1971 31.0649 26.0196 31.3886 25.831C31.4555 25.7866 31.5225 25.7422 31.5895 25.7089C31.8462 25.5536 32.103 25.3871 32.3597 25.2096C32.4155 25.1763 32.4713 25.143 32.516 25.1097C33.1522 24.6437 33.7773 24.1333 34.3466 23.5563V23.5896ZM15.192 26.9295L15.9622 22.8018C16.3641 23.4675 16.8552 24.1 17.4357 24.6659C18.0161 25.2318 18.6747 25.7533 19.3667 26.1639L15.2032 26.9295H15.192ZM31.6788 22.5466C31.4444 22.7352 31.1988 22.9238 30.9532 23.0903C30.6853 23.2789 30.4063 23.4564 30.1161 23.6229C30.1049 23.6229 30.0826 23.634 30.0714 23.6451C29.8147 23.7893 29.5468 23.9336 29.2789 24.0556C29.2008 24.0889 29.1226 24.1222 29.0333 24.1555C28.8324 24.2442 28.6315 24.333 28.4194 24.4107C28.3189 24.444 28.2073 24.4773 28.1068 24.5106C27.9171 24.5771 27.7385 24.6326 27.5487 24.6881C27.4371 24.7214 27.3143 24.7436 27.2027 24.7769C27.0241 24.8212 26.8455 24.8656 26.6781 24.8989C26.5553 24.9211 26.4325 24.9433 26.3097 24.9544C26.1423 24.9766 25.9748 24.9988 25.7962 25.021C25.6735 25.0321 25.5507 25.0432 25.4167 25.0432C25.2493 25.0432 25.0819 25.0543 24.9256 25.0654C24.8028 25.0654 24.6688 25.0654 24.5461 25.0654C24.3898 25.0654 24.2224 25.0543 24.0661 25.0321C23.9433 25.021 23.8205 25.0099 23.6977 24.9877C23.5415 24.9655 23.3852 24.9433 23.2289 24.91C23.1061 24.8878 22.9833 24.8656 22.8717 24.8323C22.7154 24.799 22.5703 24.7547 22.4141 24.7103C22.3024 24.677 22.1796 24.6437 22.068 24.5993C21.9118 24.5438 21.7666 24.4884 21.6215 24.4218C21.5099 24.3774 21.3983 24.333 21.2978 24.2775C21.1415 24.211 20.9964 24.1222 20.8513 24.0445C20.7509 23.989 20.6504 23.9447 20.5611 23.8781C20.4048 23.7782 20.2486 23.6673 20.1035 23.5563C20.0253 23.5008 19.9472 23.4564 19.8802 23.3899C19.657 23.2123 19.4449 23.0237 19.244 22.824C19.043 22.6242 18.8533 22.4134 18.6747 22.1915C18.6189 22.1138 18.5631 22.0362 18.5072 21.9696C18.3956 21.8142 18.284 21.67 18.1835 21.5146C18.1277 21.4259 18.0719 21.326 18.0161 21.2261C17.938 21.0819 17.8487 20.9377 17.7817 20.7823C17.7259 20.6713 17.6924 20.5715 17.6477 20.4605C17.5808 20.3163 17.525 20.172 17.4691 20.0167C17.4245 19.9057 17.391 19.7837 17.3575 19.6727C17.3129 19.5174 17.2682 19.3731 17.2347 19.2178C17.2012 19.0957 17.1789 18.9737 17.1566 18.8516C17.1231 18.6963 17.1008 18.5409 17.0785 18.3856C17.0673 18.2635 17.045 18.1415 17.0338 18.0194C17.0226 17.8641 17.0115 17.6976 17.0003 17.5423C17.0003 17.4202 17.0003 17.2982 17.0003 17.165C17.0003 16.9986 17.0003 16.8432 17.0227 16.6768C17.0227 16.5547 17.0338 16.4327 17.045 16.2995C17.0561 16.1331 17.0896 15.9667 17.1119 15.7891C17.1343 15.6671 17.1454 15.545 17.1678 15.423C17.2012 15.2454 17.2459 15.0679 17.2905 14.9015C17.324 14.7905 17.3464 14.6684 17.3798 14.5575C17.4357 14.3688 17.4915 14.1913 17.5584 14.0027C17.5919 13.9028 17.6254 13.7919 17.6589 13.692C17.737 13.4923 17.8263 13.2814 17.9156 13.0817C17.9491 13.004 17.9826 12.9264 18.0161 12.8487C18.1389 12.5824 18.284 12.3272 18.4291 12.072C18.4291 12.0498 18.4514 12.0387 18.4626 12.0165C18.63 11.7391 18.8086 11.4617 18.9984 11.1843C18.9984 11.1843 18.9984 11.1843 19.0095 11.1732C19.177 10.9291 19.3556 10.6961 19.5453 10.4631H19.5565C19.7909 10.1635 20.0476 9.88607 20.3155 9.61977C21.5546 8.38812 22.9833 7.50044 24.4679 6.95674C24.4679 6.95674 24.5014 6.94564 24.5237 6.93455C24.8698 6.81249 25.2158 6.71263 25.5618 6.62386C25.6735 6.59058 25.7962 6.56838 25.9079 6.54619C26.1869 6.49071 26.466 6.44633 26.7339 6.40194C26.8343 6.39085 26.9348 6.36865 27.0464 6.35756C27.4148 6.32427 27.772 6.30208 28.1292 6.31318C28.1961 6.31318 28.2743 6.31318 28.3413 6.32427C28.6315 6.33537 28.9329 6.36866 29.2119 6.40194C29.3235 6.41304 29.424 6.43523 29.5356 6.45742C29.8258 6.5129 30.1049 6.57948 30.384 6.65715C30.4509 6.67934 30.5179 6.69044 30.5849 6.71263C30.9198 6.82359 31.2435 6.95674 31.556 7.10099C31.6341 7.14537 31.7123 7.18976 31.7904 7.22304C32.036 7.3451 32.2704 7.48935 32.4936 7.64469C32.5829 7.70017 32.6611 7.75565 32.7504 7.82223C33.0406 8.03305 33.3197 8.26606 33.5764 8.52127C33.8331 8.77648 34.0675 9.05388 34.2796 9.34237C34.3354 9.42004 34.4024 9.50881 34.4582 9.59758C34.6145 9.8195 34.7484 10.0525 34.8824 10.2966C34.927 10.3743 34.9717 10.452 35.0052 10.5296C35.1614 10.8403 35.2954 11.1621 35.3958 11.495C35.4182 11.5616 35.4293 11.6281 35.4517 11.6947C35.5298 11.9721 35.5968 12.2495 35.6526 12.538C35.6749 12.649 35.6861 12.7488 35.7084 12.8598C35.753 13.1483 35.7754 13.4368 35.7865 13.7253C35.7865 13.7919 35.7977 13.8695 35.7977 13.9361C35.7977 14.2912 35.7977 14.6573 35.753 15.0124C35.753 15.1123 35.7307 15.2121 35.7084 15.3231C35.6749 15.6005 35.6303 15.8779 35.5633 16.1442C35.541 16.2552 35.5186 16.3772 35.4851 16.4882C35.3958 16.8321 35.2954 17.1761 35.1726 17.5201C35.1726 17.5423 35.1726 17.5534 35.1614 17.5756C34.6145 19.0513 33.7215 20.4827 32.4825 21.7033C32.2146 21.9696 31.9355 22.2137 31.6453 22.4578L31.6788 22.5466Z" fill="#F66748"/>
<path d="M19.5222 10.0638C22.1545 10.0638 24.2885 7.94258 24.2885 5.32587C24.2885 2.70916 22.1545 0.587891 19.5222 0.587891C16.8898 0.587891 14.7559 2.70916 14.7559 5.32587C14.7559 7.94258 16.8898 10.0638 19.5222 10.0638Z" fill="#A9D100"/>
<path d="M18.8739 8.48797C21.0069 8.48797 22.736 6.76911 22.736 4.64877C22.736 2.52844 21.0069 0.80957 18.8739 0.80957C16.7409 0.80957 15.0117 2.52844 15.0117 4.64877C15.0117 6.76911 16.7409 8.48797 18.8739 8.48797Z" fill="#D1D607"/>
<path d="M12.1999 32.5101L11.3292 31.7111L11.3627 31.6779C13.0036 30.0468 15.0798 28.9704 17.368 28.571C23.6413 27.4614 27.4588 26.7845 27.8272 26.6847C30.0931 26.1077 32.2028 24.8982 33.9329 23.1784C35.4622 21.6582 36.6119 19.8052 37.2482 17.8301C37.3486 17.5194 37.6723 17.353 37.9849 17.4528C38.2974 17.5527 38.4649 17.8856 38.3644 18.1852C37.6723 20.3378 36.4221 22.3573 34.759 24.0105C32.8837 25.8747 30.5842 27.1951 28.1174 27.8276C27.6039 27.9607 22.1009 28.9372 17.5801 29.7361C15.5374 30.1022 13.6733 31.0565 12.1999 32.5212V32.5101ZM10.4139 30.657L9.92276 30.3131L9.50977 29.8914L9.5879 29.8137C11.0613 28.3491 12.0325 26.4849 12.3896 24.4322C13.0147 20.8149 14.0975 14.6567 14.2538 14.0353C14.6891 12.3598 15.4258 10.7731 16.4639 9.33059C16.6537 9.06429 17.022 9.00881 17.2899 9.19744C17.5578 9.38607 17.6136 9.75224 17.4239 10.0185C16.4751 11.3501 15.783 12.8036 15.3923 14.3349C15.2807 14.7565 14.5886 18.6068 13.5394 24.643C13.1375 26.9288 12.0548 29.0148 10.4028 30.657H10.4139ZM15.1802 27.5169C15.024 27.5169 14.8788 27.4614 14.7672 27.3504C14.6333 27.2173 14.5663 27.0176 14.5998 26.8289L15.37 22.7012C15.4146 22.4571 15.6044 22.2796 15.8388 22.2352C16.0844 22.1908 16.3188 22.3018 16.4527 22.5126C16.8434 23.1451 17.3122 23.7442 17.8369 24.2658C18.3838 24.8095 18.9977 25.2755 19.6563 25.6749C19.8684 25.797 19.98 26.0411 19.9354 26.2852C19.8907 26.5293 19.701 26.718 19.4666 26.7623L15.303 27.528C15.303 27.528 15.236 27.528 15.1914 27.528L15.1802 27.5169ZM16.2741 24.2769L15.9169 26.1965L17.8592 25.8414C17.5578 25.6084 17.2787 25.3532 16.9997 25.0758C16.743 24.8206 16.4974 24.5543 16.2741 24.2769ZM24.8691 25.6638C22.5139 25.6638 20.393 24.8317 18.8192 23.2671C15.4928 19.9605 15.6156 14.3127 19.0982 10.1184C19.3103 9.8743 19.6786 9.82991 19.9242 10.0407C20.1698 10.2516 20.2144 10.6177 20.0024 10.8618C16.9104 14.5901 16.7541 19.5611 19.6452 22.4349C21.1409 23.9218 23.2506 24.643 25.5947 24.4544C27.9611 24.2658 30.2717 23.1562 32.0912 21.3586C35.8194 17.6526 36.3105 12.1046 33.1739 8.98662C31.0977 6.92277 27.8383 6.36797 24.6682 7.53305C24.3668 7.64401 24.0208 7.48866 23.9092 7.18907C23.7975 6.88948 23.9538 6.54551 24.2552 6.43455C27.8718 5.11413 31.6 5.76879 33.9999 8.15442C37.5942 11.7273 37.103 18.0187 32.9172 22.1797C30.8968 24.1881 28.3295 25.4086 25.684 25.6195C25.4049 25.6417 25.1259 25.6528 24.8468 25.6528L24.8691 25.6638ZM38.3644 15.9105C38.3644 15.9105 38.3309 15.9105 38.3086 15.9105C37.9849 15.8772 37.7505 15.5887 37.7728 15.2669C38.0742 12.1157 37.0919 9.25292 35.0157 7.17798C32.4372 4.61481 28.5862 3.74933 24.7017 4.84783C24.3892 4.93659 24.0654 4.75906 23.9761 4.44837C23.8868 4.13768 24.0654 3.8159 24.378 3.72713C28.6755 2.50658 32.9618 3.49412 35.8417 6.35688C38.1411 8.64264 39.2685 11.9381 38.9448 15.389C38.9113 15.6886 38.6546 15.9216 38.3532 15.9216L38.3644 15.9105Z" fill="black"/>
<path d="M23.496 25.5634C23.3398 25.5634 23.1947 25.508 23.083 25.397C22.8486 25.164 22.8486 24.7978 23.083 24.5648L35.3281 12.3925C35.5625 12.1595 35.9309 12.1595 36.1653 12.3925C36.3997 12.6256 36.3997 12.9917 36.1653 13.2247L23.9202 25.397C23.8086 25.508 23.6523 25.5634 23.5072 25.5634H23.496Z" fill="black"/>
<path d="M17.1113 19.2168C16.955 19.2168 16.8099 19.1613 16.6983 19.0503C16.4639 18.8173 16.4639 18.4511 16.6983 18.2181L28.9433 6.04586C29.1778 5.81284 29.5461 5.81284 29.7805 6.04586C30.0149 6.27887 30.0149 6.64504 29.7805 6.87805L17.5354 19.0503C17.4238 19.1613 17.2675 19.2168 17.1224 19.2168H17.1113Z" fill="black"/>
<path d="M19.2441 23.4451C19.0878 23.4451 18.9427 23.3896 18.8311 23.2787C18.5967 23.0457 18.5967 22.6795 18.8311 22.4465L33.197 8.16597C33.4314 7.93296 33.7998 7.93296 34.0342 8.16597C34.2686 8.39899 34.2686 8.76515 34.0342 8.99817L19.6683 23.2787C19.5566 23.3896 19.4004 23.4451 19.2552 23.4451H19.2441Z" fill="black"/>
<path d="M28.6974 24.8986C28.5411 24.8986 28.396 24.8432 28.2844 24.7322L17.3565 13.8693C17.1221 13.6362 17.1221 13.2701 17.3565 13.0371C17.5909 12.8041 17.9592 12.8041 18.1936 13.0371L29.1216 23.9C29.356 24.133 29.356 24.4992 29.1216 24.7322C29.0099 24.8432 28.8537 24.8986 28.7086 24.8986H28.6974Z" fill="black"/>
<path d="M35.0703 18.5625C34.914 18.5625 34.7689 18.507 34.6573 18.396L23.9414 7.75501C23.707 7.52199 23.707 7.15582 23.9414 6.92281C24.1758 6.68979 24.5442 6.68979 24.7786 6.92281L35.4944 17.5638C35.7289 17.7969 35.7289 18.163 35.4944 18.396C35.3828 18.507 35.2265 18.5625 35.0814 18.5625H35.0703Z" fill="black"/>
<path d="M32.5263 22.3686C32.37 22.3686 32.2249 22.3131 32.1133 22.2021L20.5938 10.7511C20.3594 10.5181 20.3594 10.1519 20.5938 9.9189C20.8282 9.68589 21.1965 9.68589 21.431 9.9189L32.9505 21.3699C33.1849 21.603 33.1849 21.9691 32.9505 22.2021C32.8389 22.3131 32.6826 22.3686 32.5375 22.3686H32.5263Z" fill="black"/>
<path d="M7.47908 31.0438L8.32742 30.2005C8.74043 29.7899 9.39901 29.7899 9.81201 30.2005L11.8547 32.231C12.2677 32.6416 12.2677 33.2963 11.8547 33.7068L6.42982 39.0995C6.01682 39.51 5.35824 39.51 4.94523 39.0995L2.90253 37.0689C2.48952 36.6583 2.48952 36.0037 2.90253 35.5931L7.47908 31.0438Z" fill="#464356"/>
<path d="M5.68078 39.9983C5.24545 39.9983 4.83244 39.8318 4.5199 39.5212L2.47719 37.4906C1.84094 36.8581 1.84094 35.8151 2.47719 35.1826L7.05375 30.6333L7.90208 29.79C8.51601 29.1797 9.59876 29.1686 10.2238 29.79L12.2666 31.8206C12.5791 32.1312 12.7465 32.5418 12.7465 32.9745C12.7465 33.4073 12.5791 33.8178 12.2666 34.1285L6.84166 39.5212C6.52912 39.8318 6.11611 39.9983 5.68078 39.9983ZM7.89092 31.4655L3.31436 36.0148C3.13577 36.1924 3.13577 36.4809 3.31436 36.6695L5.35707 38.7001C5.53567 38.8776 5.83705 38.8776 6.00449 38.7001L11.4294 33.3074C11.5187 33.2187 11.5633 33.1077 11.5633 32.9856C11.5633 32.8636 11.5187 32.7526 11.4294 32.6639L9.38667 30.6333C9.20808 30.4558 8.90669 30.4558 8.73926 30.6333L7.89092 31.4766V31.4655Z" fill="black"/>
<path d="M19.711 11.0849C16.6302 11.0849 14.1299 8.59937 14.1299 5.53688C14.1299 4.59373 14.3755 3.65057 14.8331 2.82947C14.9894 2.55207 15.3577 2.44111 15.6368 2.60755C15.9159 2.76289 16.0275 3.11796 15.86 3.40646C15.4917 4.05003 15.3019 4.79346 15.3019 5.53688C15.3019 7.94471 17.2777 9.90869 19.6999 9.90869C22.1221 9.90869 24.0978 7.94471 24.0978 5.53688C24.0978 3.12906 22.1221 1.16508 19.6999 1.16508C18.952 1.16508 18.2041 1.35371 17.5567 1.71988C17.2777 1.87522 16.9093 1.77535 16.753 1.49796C16.5968 1.22056 16.6972 0.854389 16.9763 0.699046C17.8023 0.244111 18.7399 0 19.6999 0C22.7807 0 25.281 2.4855 25.281 5.54798C25.281 8.61047 22.7807 11.096 19.6999 11.096L19.711 11.0849Z" fill="black"/>
<path d="M20.0148 11.0735C20.0148 11.0735 19.9925 11.0735 19.9813 11.0735C19.6576 11.0513 19.412 10.7739 19.4232 10.4521C19.5013 9.19826 19.0325 7.9777 18.1395 7.09002C17.2466 6.20235 16.0187 5.73632 14.7574 5.81399C14.4225 5.81399 14.1546 5.59207 14.1323 5.25919C14.1099 4.92631 14.3555 4.66001 14.6904 4.63782C16.2754 4.54905 17.8493 5.12604 18.9767 6.25783C20.1041 7.37852 20.6957 8.93195 20.6064 10.5187C20.5841 10.8294 20.3274 11.0735 20.0148 11.0735Z" fill="black"/>
<path d="M24.3886 6.43602C22.9152 6.43602 21.4864 5.85903 20.4371 4.81601C19.3098 3.69532 18.7182 2.14188 18.8186 0.555162C18.8409 0.233379 19.1088 -0.0107323 19.4437 0.00036367C19.7674 0.0225556 20.013 0.299955 20.0018 0.621738C19.9237 1.87558 20.3925 3.09614 21.2855 3.98381C22.1785 4.87149 23.4063 5.33752 24.6677 5.25985C25.0025 5.23766 25.2704 5.48177 25.2928 5.81465C25.3151 6.13643 25.0695 6.41383 24.7346 6.43602C24.623 6.43602 24.5114 6.43602 24.3998 6.43602H24.3886Z" fill="black"/>
</g>
<defs>
<clipPath id="clip0_225_10350">
<rect width="40" height="40" fill="white"/>
</clipPath>
</defs>
</svg>
