<svg width="40" height="40" viewBox="0 0 40 40" fill="none" xmlns="http://www.w3.org/2000/svg">
<g clip-path="url(#clip0_225_10371)">
<path d="M31.5094 10.315C32.644 10.315 33.5638 9.39659 33.5638 8.26325C33.5638 7.1299 32.644 6.21094 31.5094 6.21094C30.3749 6.21094 29.4551 7.1299 29.4551 8.26325C29.4551 9.39659 30.3749 10.315 31.5094 10.315Z" fill="#ECBD83"/>
<path d="M32.9117 9.75802C33.4912 9.21079 33.7335 8.35803 33.4385 7.55823C33.0487 6.49535 31.8793 5.9482 30.8153 6.32705C30.6256 6.3902 30.4676 6.4957 30.3096 6.60094C30.3517 6.68512 30.4044 6.75875 30.4781 6.82189L31.3947 7.6533C31.795 8.02162 32.1427 8.44251 32.4166 8.90554L32.9117 9.74723V9.75802Z" fill="#5D5360"/>
<path d="M36.3455 1.51724C36.3245 1.00158 35.9031 0.601562 35.3868 0.601562C34.8706 0.601562 34.4281 1.03319 34.4281 1.55938V8.06264L31.1728 11.9042C30.8673 12.2725 30.4143 12.5038 29.9402 12.5038C29.2238 12.4933 28.5285 12.788 28.0439 13.3142L26.3899 15.1137L23.7034 12.7561C23.3136 12.4194 22.7236 12.4724 22.397 12.8723C22.397 12.8723 22.376 12.8933 22.3654 12.9144C22.0705 13.388 22.1547 14.0085 22.5551 14.3979L25.4733 17.2708C25.9263 17.7549 26.6848 17.7971 27.1905 17.3761L29.0868 15.8716L31.2992 21.2701L32.5529 18.7445V14.3244C32.5529 14.0192 32.6582 13.7353 32.8584 13.5038L36.0189 9.86213C36.4403 9.37805 36.6616 8.75751 36.63 8.11556L36.3455 1.52752V1.51724Z" fill="#ECBD83"/>
<path d="M27.1806 17.3646L29.0769 15.8595L31.3419 20.0376L32.269 19.2797L32.5429 18.7325V14.3129C32.5429 14.0077 32.6483 13.7233 32.8484 13.4917L35.6929 10.219L34.0073 8.53516L31.1628 11.8921C30.8573 12.2605 30.4043 12.4918 29.9302 12.4918C29.2138 12.4813 28.5185 12.7759 28.0339 13.3021L26.3799 15.1021V17.659C26.6643 17.659 26.9488 17.5643 27.1806 17.3749V17.3646Z" fill="#F5EBCD"/>
<path d="M31.9209 19.6179L30.8779 16.1032C30.7093 15.5349 30.0456 15.2826 29.5399 15.5878L29.0869 15.8612L30.92 20.3337C31.4362 19.9759 31.9314 19.6179 31.9314 19.6179H31.9209Z" fill="#F4DBB3"/>
<path d="M38.0308 38.3297L36.2504 26.2697L33.6377 26.2168L36.1451 38.656C36.2293 39.098 36.6297 39.4242 37.0827 39.4242C37.6621 39.4242 38.1046 38.9083 38.0308 38.34V38.3297Z" fill="#ECBD83"/>
<path d="M29.8461 25.3223L23.4302 38.8236C23.3038 39.0972 23.5039 39.413 23.7989 39.413H24.2835C24.7366 39.413 25.158 39.1608 25.3792 38.7609L32.5009 25.8274L29.8355 25.3223H29.8461Z" fill="#E2A975"/>
<path d="M24.3362 36.9082L23.4302 38.8233C23.3038 39.0969 23.5039 39.4127 23.7989 39.4127H24.2835C24.7366 39.4127 25.158 39.1605 25.3792 38.7606L26.4011 36.9082H24.3362Z" fill="#F6D190"/>
<path d="M36.156 38.6445C36.2403 39.0865 36.6407 39.4127 37.0937 39.4127C37.6731 39.4127 38.1156 38.8973 38.0313 38.329L37.8206 36.9082H35.7979L36.1455 38.6445H36.156Z" fill="#FFE09F"/>
<path d="M23.0187 13.6194C22.7237 13.3248 22.2601 13.2615 21.8914 13.472L18.1198 15.6188L16.2341 13.7351C15.4439 12.9458 14.3483 12.5461 13.2316 12.6513L11.1035 12.8404L9.33357 12.9987C8.55397 13.0724 7.84812 13.5037 7.43725 14.1667L4.9615 18.1233L1.12672 19.7651C0.789595 19.9124 0.568359 20.2389 0.568359 20.6073C0.568359 21.2387 1.17939 21.6802 1.77989 21.4803L5.43558 20.2599C5.94126 20.0915 6.3732 19.7652 6.67872 19.3442L9.33357 15.6296L9.88139 18.6495L8.03775 21.3647C7.25815 22.5012 6.93156 23.8905 7.11066 25.2586L8.712 37.5396H10.5872V25.9425L16.8556 37.5396H18.7309L12.4625 22.5116C14.9698 19.3861 14.9699 16.2503 14.9699 16.2503L16.9505 17.8289C17.6247 18.3761 18.5939 18.3761 19.2787 17.85L22.9133 15.0294C23.3558 14.6822 23.3979 14.0296 22.9976 13.6297L23.0187 13.6194Z" fill="#FFE09F"/>
<path d="M7.4579 22.5117C7.12077 23.3852 7.00489 24.3221 7.12077 25.2588L8.72211 37.5397L9.69134 37.9816L10.6079 37.5397V25.9427L16.8763 37.5397L17.8455 37.9816L18.7621 37.5397L12.4937 22.5117H7.46843H7.4579Z" fill="#6F6571"/>
<path d="M18.1299 15.6188L16.2441 13.7351C15.454 12.9458 14.3583 12.5461 13.2416 12.6513L11.1135 12.8404L9.34359 12.9987C8.56399 13.0724 7.85814 13.5037 7.44727 14.1667L4.97152 18.1233L2.72754 19.0811L3.52821 20.9017L5.45614 20.2599C5.96182 20.0915 6.39376 19.7652 6.69928 19.3442L9.35412 15.6296L9.90195 18.6495L8.0583 21.3647C7.81599 21.7225 7.61583 22.1117 7.46834 22.5116H12.4936C15.0009 19.3861 15.0009 16.2503 15.0009 16.2503L16.9815 17.8289C17.6558 18.3761 18.625 18.3761 19.3098 17.85L21.5222 16.1347L20.2053 14.4508L18.1404 15.6296L18.1299 15.6188Z" fill="#AEDB81"/>
<path d="M12.463 14.8304C11.6939 14.5779 11.1777 13.8623 11.1777 13.052V10.6523H13.053V14.4096C13.053 14.7148 12.7475 14.9359 12.463 14.8412V14.8304Z" fill="#F6D190"/>
<path d="M11.9352 11.6827C13.0698 11.6827 13.9896 10.7638 13.9896 9.63043C13.9896 8.49709 13.0698 7.57812 11.9352 7.57812C10.8006 7.57812 9.88086 8.49709 9.88086 9.63043C9.88086 10.7638 10.8006 11.6827 11.9352 11.6827Z" fill="#FFE09F"/>
<path d="M9.10214 22.6489L9.17589 22.5117H7.44813C7.11101 23.3852 6.99512 24.3221 7.11101 25.2588L8.71234 37.5397L9.68157 37.9816L10.2821 37.6872V37.5608C10.2821 37.4871 10.2821 37.4027 10.2821 37.329L8.68074 25.0481C8.59645 24.3851 8.68074 23.7009 8.92305 23.059C8.97572 22.9116 9.03892 22.7749 9.11267 22.6381L9.10214 22.6489Z" fill="#5D5360"/>
<path d="M37.7253 21.1764C37.2091 20.0188 36.282 19.1033 35.1231 18.6087L32.5421 17.5039L27.5273 23.7657C27.717 23.8288 28.0752 24.0918 28.191 24.2076C28.6124 24.6496 28.5282 25.7438 29.0444 26.0805C29.5501 26.4173 30.4772 25.8806 31.0566 26.0805C31.615 26.2805 32.0048 27.3013 32.6158 27.3749C33.2268 27.4486 33.8484 26.554 34.4384 26.4803C35.0494 26.4067 35.829 27.1543 36.3874 26.9438C36.9668 26.7333 37.1459 25.6494 37.6621 25.3231C37.8939 25.1758 38.231 25.1543 38.5681 25.1438C39.0106 25.1228 39.2845 24.6704 39.1054 24.26L37.7253 21.1558V21.1764Z" fill="#AEDB81"/>
<path d="M31.6255 18.6509L27.5273 23.7657C27.717 23.8289 28.0752 24.0919 28.191 24.2077C28.6124 24.6496 28.5282 25.7439 29.0444 26.0806C29.1813 26.1648 29.3394 26.1965 29.5185 26.186L31.6676 20.0193C31.7941 19.651 31.8046 19.2615 31.6992 18.8826L31.6255 18.6406V18.6509Z" fill="#95CC81"/>
<path d="M12.9468 8.7789L13.5683 8.65249C13.5683 8.65249 13.6526 8.62086 13.6947 8.58929C13.168 7.71583 12.0723 7.3372 11.1136 7.76867C10.0812 8.23171 9.6071 9.44174 10.0707 10.4731C10.1023 10.5467 10.1549 10.6206 10.1971 10.6837C10.3235 10.6837 10.4394 10.6309 10.5237 10.5152C10.9135 9.93639 11.7036 9.05251 12.9573 8.7789H12.9468Z" fill="#FF8B5A"/>
<path d="M11.1147 16.5757C10.9566 15.7233 10.1454 15.1653 9.2921 15.3126L9.8926 18.6485L8.04896 21.3637C7.80665 21.7215 7.60648 22.1107 7.45898 22.5106H9.19728C9.24995 22.4159 9.30263 22.3317 9.35531 22.2475L11.2095 19.5329C11.4413 19.1961 11.5255 18.7856 11.4518 18.3752L11.1252 16.586L11.1147 16.5757Z" fill="#95CC81"/>
<path d="M8.72266 37.5391V39.1176C8.72266 39.286 8.85961 39.412 9.01764 39.412H12.4837L10.6084 37.5391H8.73319H8.72266Z" fill="#9F6E50"/>
<path d="M18.7522 37.5391H16.877V39.1176C16.877 39.286 17.0139 39.412 17.1719 39.412H20.638L18.7627 37.5391H18.7522Z" fill="#C38C66"/>
<path d="M39.9702 24.7726L38.2635 20.9311C37.6841 19.6367 36.6516 18.6159 35.3558 18.0582L33.1329 17.1111V14.3122C33.1329 14.1544 33.1961 13.9961 33.3015 13.8698L36.462 10.2287C36.9782 9.62882 37.2522 8.8608 37.2205 8.07153L36.9361 1.48348C36.9045 0.652114 36.2197 0 35.3874 0C34.5552 0 33.8388 0.694271 33.8388 1.54668V6.76635C33.3331 6.08232 32.5219 5.64051 31.6053 5.64051C30.0672 5.64051 28.8241 6.88244 28.8241 8.41889C28.8241 9.75539 29.7722 10.8815 31.0364 11.1341L30.7204 11.5128C30.5097 11.7548 30.2042 11.9023 29.8881 11.9023C29.0242 11.9023 28.1919 12.2703 27.6125 12.9017L26.3378 14.2804L24.0833 12.302C23.7777 12.0284 23.3774 11.902 22.9771 11.9336C22.5662 11.9652 22.1975 12.1652 21.9446 12.4809C21.8393 12.6071 21.7655 12.7441 21.7129 12.8914L18.2363 14.88L16.6665 13.3123C15.8764 12.523 14.8229 12.0705 13.7167 12.0389V11.744C14.2961 11.2389 14.6543 10.4917 14.6543 9.66035C14.6543 8.1239 13.4112 6.88248 11.8731 6.88248C10.3349 6.88248 9.0918 8.1239 9.0918 9.66035C9.0918 10.7548 9.73444 11.7126 10.6615 12.1546V12.281L9.3025 12.4074C8.3438 12.4916 7.46939 13.0279 6.96371 13.8487L4.58277 17.6481L0.916549 19.2159C0.358189 19.4579 0 19.9947 0 20.5945C0 21.0786 0.231769 21.5313 0.621568 21.8154C1.01137 22.0996 1.51705 22.1729 1.9806 22.0256L5.63628 20.8052C6.25785 20.5947 6.79514 20.2053 7.17441 19.6686L9.02859 17.0798L9.28143 18.5006L7.56421 21.0262C6.71087 22.289 6.34214 23.8147 6.5423 25.3301L8.14364 37.569V39.4106C8.14364 39.7368 8.40702 40 8.73361 40H12.4946C12.7369 40 12.9476 39.8528 13.0319 39.6424C13.1162 39.4319 13.0741 39.1689 12.9055 39.0006L11.1988 37.2956V25.0146C11.1988 24.6884 10.9354 24.4253 10.6089 24.4253C10.2823 24.4253 10.0189 24.6884 10.0189 25.0146V36.9483H9.23929L7.70116 25.1827C7.60635 24.4776 7.66956 23.762 7.86973 23.099H12.0943L17.8781 36.9585H17.2249L13.0003 29.129C12.8423 28.8449 12.4946 28.7397 12.2102 28.887C11.9257 29.0449 11.8204 29.3921 11.9679 29.6763L16.2873 37.6851V39.4106C16.2873 39.7368 16.5507 40 16.8772 40H20.6383C20.8806 40 21.0913 39.8528 21.1756 39.6424C21.2598 39.4319 21.2177 39.1689 21.0491 39.0006L19.2477 37.2011L13.1584 22.5939C14.6965 20.5628 15.2548 18.5634 15.4655 17.3742L16.6033 18.2791C17.4988 18.9947 18.7525 19.0053 19.6585 18.3002L23.114 15.6169L25.042 17.6584C25.4002 18.0372 25.8953 18.2375 26.3799 18.2375C26.8013 18.2375 27.2227 18.1005 27.5599 17.8059L28.7819 16.7849L29.0453 17.627C29.119 17.8796 29.3508 18.0371 29.6037 18.0371C29.6669 18.0371 29.7196 18.0373 29.7828 18.0058C30.0883 17.911 30.2674 17.5741 30.162 17.2689L29.4562 15.0383C29.3613 14.7331 29.0242 14.5538 28.7187 14.6591C28.4132 14.7538 28.2341 15.0907 28.3394 15.3959L28.3921 15.5747L26.9593 16.7746V15.3224L28.4659 13.691C28.8241 13.3016 29.3403 13.0702 29.8776 13.0702C30.5413 13.0702 31.1734 12.7753 31.6053 12.2702L34.0389 9.39726L34.8923 10.2287L32.3955 13.0913C32.1005 13.4281 31.9424 13.8492 31.9424 14.2911V17.2689L27.0542 23.3729C27.0542 23.3729 26.9804 23.478 26.9593 23.5307C26.8435 23.8358 27.0015 24.1726 27.307 24.2778C27.4018 24.3199 27.6863 24.5093 27.7495 24.583C27.8338 24.6777 27.918 24.983 27.9707 25.2145C28.0866 25.667 28.213 26.1721 28.6134 26.4878L22.5873 39.1372C22.503 39.3162 22.5135 39.5372 22.6189 39.7056C22.7242 39.8739 22.9139 39.9789 23.114 39.9789H24.2518C24.9261 39.9789 25.5371 39.6107 25.8637 39.0319L32.0478 27.8033C32.1848 27.877 32.3428 27.94 32.5114 27.9611C32.564 27.9611 32.6062 27.9611 32.6588 27.9611C32.9117 27.9611 33.1435 27.8872 33.3542 27.7714L35.556 38.7478C35.7035 39.4634 36.3356 39.9789 37.0625 39.9789C37.505 39.9789 37.9369 39.7895 38.2214 39.4528C38.5164 39.116 38.6428 38.6744 38.5796 38.2324L36.9993 27.235C37.2521 27.0035 37.4312 26.6772 37.5893 26.3825C37.6946 26.172 37.8526 25.8986 37.958 25.825C38.0634 25.7618 38.3583 25.7404 38.5901 25.7299C38.9378 25.7089 39.3276 25.6984 39.6752 25.53C39.9597 25.3932 40.0756 25.0565 39.9491 24.7618L39.9702 24.7726ZM9.31303 38.1162H10.3665L11.0724 38.8212H9.31303V38.1162ZM19.216 38.8212H17.4567V38.1162H18.5102L19.216 38.8212ZM10.2507 9.67114C10.2507 8.78715 10.967 8.06074 11.8625 8.06074C12.758 8.06074 13.4744 8.77663 13.4744 9.67114C13.4744 10.5656 12.758 11.281 11.8625 11.281C10.967 11.281 10.2507 10.5656 10.2507 9.67114ZM12.5262 12.3652V14.2701C12.1048 14.0596 11.8204 13.6173 11.8204 13.1227V12.4598C11.8204 12.4598 11.852 12.4598 11.8625 12.4598C12.0943 12.4598 12.3155 12.4281 12.5262 12.3755V12.3652ZM1.60133 20.9208C1.46438 20.9629 1.34849 20.9208 1.30635 20.8787C1.25368 20.8366 1.1694 20.7526 1.1694 20.6053C1.1694 20.4685 1.25367 20.3527 1.36956 20.3001L2.41254 19.8577L2.73913 20.5524L1.61187 20.9311L1.60133 20.9208ZM18.9421 17.3742C18.468 17.7426 17.8043 17.7428 17.3408 17.364L15.3602 15.7854C15.1811 15.6486 14.9493 15.6167 14.7386 15.7114C14.5384 15.8061 14.4015 16.0166 14.4015 16.2376C14.4015 16.2692 14.3594 19.0686 12.1891 21.91H8.37541C8.41755 21.8363 8.47022 21.7524 8.5229 21.6787L10.3665 18.9636C10.4508 18.8373 10.4824 18.6793 10.4614 18.5319L9.91353 15.5115C9.87139 15.28 9.6923 15.0907 9.46052 15.0486C9.22875 14.9959 8.99698 15.0909 8.86002 15.2803L6.20518 18.9949C5.96287 19.3317 5.63628 19.5736 5.24648 19.6999L3.83478 20.1737L3.46605 19.3947L5.17273 18.6583C5.27809 18.6162 5.3729 18.5318 5.43611 18.4266L7.91186 14.47C8.22792 13.9648 8.77575 13.628 9.36571 13.5754L10.651 13.4597C10.8196 14.6489 11.852 15.5645 13.0951 15.5645C13.4217 15.5645 13.6851 15.3013 13.6851 14.9751V13.2069C14.4858 13.2385 15.2338 13.5646 15.8132 14.1329L17.699 16.0166C17.8886 16.2061 18.1731 16.238 18.4048 16.1117L20.0167 15.1852L20.6699 15.9956L18.921 17.3532L18.9421 17.3742ZM22.7137 14.3014C22.7137 14.3646 22.6926 14.47 22.5767 14.5542L21.6181 15.3014L21.0702 14.6169L22.1869 13.9751C22.3239 13.9015 22.4925 13.9228 22.6083 14.0281C22.7032 14.1228 22.7137 14.2385 22.7137 14.2911V14.3014ZM23.8304 14.6699C23.8515 14.5751 23.8726 14.4801 23.8831 14.3749C23.9042 14.0592 23.8199 13.7542 23.6618 13.4911L25.8005 15.3646V16.7535L23.8304 14.6699ZM33.2067 8.58692L32.0373 9.96557C31.9003 10.0077 31.7528 10.0288 31.6053 10.0288C30.7204 10.0288 29.9935 9.3134 29.9935 8.41889C29.9935 7.52438 30.7098 6.80849 31.6053 6.80849C32.5008 6.80849 33.2172 7.52438 33.2172 8.41889C33.2172 8.47151 33.2172 8.5343 33.2172 8.58692H33.2067ZM34.808 8.50316L34.8712 8.42917C34.966 8.32393 35.0082 8.18727 35.0082 8.05046V1.54668C35.0082 1.33621 35.1767 1.17825 35.3769 1.17825C35.5771 1.17825 35.7456 1.33646 35.7456 1.53641L36.0301 8.12394C36.0511 8.56593 35.9142 8.99756 35.6508 9.34484L34.7975 8.50316H34.808ZM24.8629 38.4744C24.747 38.6849 24.5257 38.8212 24.2834 38.8212H24.0727L24.8102 37.2848H25.5266L24.8629 38.4847V38.4744ZM26.1692 36.1066H25.3685L29.8249 26.7509C29.9619 26.7299 30.0883 26.7088 30.2147 26.6877C30.4359 26.6456 30.7414 26.5932 30.8573 26.6353C30.9416 26.6669 31.0786 26.8138 31.205 26.9611L26.1692 36.1066ZM37.4523 38.4004C37.4734 38.5477 37.4102 38.6427 37.368 38.6953C37.3259 38.748 37.2416 38.8212 37.0941 38.8212C36.915 38.8212 36.7675 38.6952 36.7359 38.5268L36.4936 37.3378H37.3048L37.4628 38.4004H37.4523ZM37.1257 36.159H36.2513L34.4393 27.0875C34.4393 27.0875 34.492 27.0664 34.5025 27.0664C34.6289 27.0559 34.9134 27.1821 35.1135 27.2663C35.3453 27.3716 35.6087 27.4876 35.8826 27.5402L37.1257 36.159ZM38.5585 24.5619C38.1582 24.583 37.7157 24.6043 37.347 24.8358C36.9782 25.0673 36.7675 25.4777 36.5779 25.825C36.4831 26.0144 36.2935 26.3617 36.1986 26.3933C36.1038 26.4143 35.7772 26.2771 35.5981 26.1929C35.2294 26.035 34.8185 25.8458 34.3761 25.8985C33.9547 25.9511 33.5859 26.2142 33.2699 26.4457C33.1013 26.572 32.7958 26.8036 32.6904 26.7931C32.6378 26.7931 32.5324 26.6879 32.4271 26.5721C32.3955 26.509 32.3428 26.4565 32.2901 26.4144C32.2585 26.3828 32.2374 26.3509 32.2058 26.3193C31.953 26.0141 31.6685 25.6671 31.2577 25.5198C30.8363 25.3724 30.3938 25.4461 30.004 25.5198C29.8144 25.5513 29.4562 25.6143 29.3719 25.5722C29.2876 25.5196 29.1822 25.1303 29.1296 24.9304C29.0348 24.541 28.9189 24.0992 28.6134 23.7835C28.5607 23.7308 28.4869 23.657 28.3921 23.5939L32.7115 18.1954L34.8818 19.1213C35.9142 19.5633 36.7254 20.3633 37.1889 21.3946L38.5901 24.5517C38.5901 24.5517 38.569 24.5517 38.548 24.5517L38.5585 24.5619Z" fill="black"/>
</g>
<defs>
<clipPath id="clip0_225_10371">
<rect width="40" height="40" fill="white"/>
</clipPath>
</defs>
</svg>
