<svg width="40" height="40" viewBox="0 0 40 40" fill="none" xmlns="http://www.w3.org/2000/svg">
<path d="M37.9273 37.5768C37.2541 38.25 36.1573 38.25 35.4841 37.5768C34.9086 37.0013 30.5761 32.6796 30.1309 32.2236C30.4892 31.9738 30.8258 31.6915 31.1407 31.3983C31.2167 31.3332 31.2819 31.2679 31.3579 31.1919C31.5533 31.0073 31.7488 30.8011 31.9225 30.5948C32.1505 30.3342 32.3786 30.0627 32.574 29.7695L37.9273 35.1227C38.6005 35.7959 38.6005 36.8927 37.9273 37.5659V37.5768Z" fill="#425B72"/>
<path d="M17.6969 20.5607C19.2388 23.5468 22.3878 29.6493 23.9297 32.6463C16.1658 32.4943 12.8323 23.4491 17.6969 18.085V20.5607Z" fill="#9FDBF3"/>
<path d="M26.9169 38.4131H1.58398L10.792 20.5617V14.8066H17.698V16.5115C11.3132 22.0711 14.1473 33.3421 23.8331 33.7982C24.0611 33.8199 24.3 33.8199 24.5281 33.7982C24.6041 33.9611 26.7541 38.109 26.9169 38.4131Z" fill="#F7F9F9"/>
<path d="M26.9141 38.4134C26.7512 38.0985 24.6121 33.9506 24.5253 33.7985C24.2972 33.8094 24.0583 33.8094 23.8303 33.7985C18.3902 33.5379 15.1109 29.8678 14.416 25.709H8.12887L1.57031 38.4134H26.9033H26.9141Z" fill="#FFA92C"/>
<path d="M24.1692 33.7654C23.9412 33.7872 23.7023 33.7872 23.4742 33.7654C13.7884 33.4288 10.8132 22.1903 17.1329 16.5547L17.4152 17.9337C12.6266 23.363 15.7973 32.5602 23.5611 32.6254L24.1692 33.7654Z" fill="#DBDDDD"/>
<path d="M23.4741 33.7756C23.7021 33.7864 23.941 33.7756 24.169 33.7756L23.561 32.6355C19.0221 32.6029 16.0686 29.4323 15.3411 25.7295H13.9512C14.6678 29.91 17.9905 33.6018 23.4741 33.7864V33.7756Z" fill="#FF962E"/>
<path d="M32.672 24.0262C32.7263 28.7497 28.676 32.7783 23.9417 32.6589C12.562 32.1594 12.6923 15.7521 24.0394 15.3938C28.7846 15.3612 32.7154 19.3571 32.672 24.0262Z" fill="#E6E6E6"/>
<path d="M33.388 30.6063C32.704 31.54 31.8788 32.3651 30.9451 33.0491L30.1309 32.2348C31.0754 31.5617 31.9006 30.7366 32.5737 29.792L33.3988 30.6171L33.388 30.6063Z" fill="#31485E"/>
<path d="M32.8995 29.2922C32.0635 30.6167 30.9452 31.735 29.6206 32.571L28.5566 31.3876C29.8703 30.5733 30.9452 29.4333 31.6618 28.0762L32.8995 29.2922Z" fill="#5D6972"/>
<path d="M24.0376 30.3566C20.5411 30.3566 17.707 27.5225 17.707 24.026C18.0545 15.6215 30.0315 15.6215 30.3789 24.026C30.3789 27.5225 27.5449 30.3566 24.0484 30.3566H24.0376Z" fill="#9FDBF3"/>
<path d="M26.8292 19.6044C25.0595 18.2255 22.6058 17.9323 20.543 18.714C22.7469 17.3135 25.7435 17.3787 27.8606 18.9421L26.8292 19.6153V19.6044Z" fill="#8FD7F3"/>
<path d="M30.3681 24.0243C30.3681 26.6629 28.7393 29.0192 26.2744 29.953C28.1095 28.7911 29.2171 26.7715 29.2171 24.5998C29.1411 22.8407 28.5656 21.4509 27.686 20.4302L28.7502 19.7461C29.6731 20.7777 30.3029 22.2001 30.3789 24.0243H30.3681Z" fill="#8FD7F3"/>
<path d="M33.246 14.8069C33.1266 14.8069 33.0072 14.7635 32.9094 14.6983L26.5798 10.0949C25.9718 9.6498 26.6449 8.71611 27.2529 9.16125L33.5826 13.7646C34.0386 14.0686 33.778 14.8286 33.246 14.8069Z" fill="#B5E08C"/>
<path d="M28.0653 9.05146C27.9676 12.0914 23.5488 12.0914 23.4619 9.05146C23.5596 6.01149 27.9784 6.01149 28.0653 9.05146Z" fill="#84B749"/>
<path d="M13.6681 8.1828C13.6247 10.0828 10.8344 10.0828 10.791 8.1828C10.8344 6.28282 13.6247 6.28282 13.6681 8.1828Z" fill="#FFA92C"/>
<path d="M17.6972 6.17482C17.6755 7.68394 15.4172 7.68394 15.3955 6.17482C15.4172 4.66569 17.6755 4.66569 17.6972 6.17482Z" fill="#FFA92C"/>
<path d="M15.1122 2.71095C15.0905 4.22008 12.8323 4.22008 12.8105 2.71095C12.8323 1.20182 15.0905 1.20182 15.1122 2.71095Z" fill="#FFA92C"/>
<path d="M8.4863 16.5326H4.45834C3.7092 16.5326 3.7092 15.3818 4.45834 15.3818H8.4863C9.23543 15.3818 9.23543 16.5326 8.4863 16.5326Z" fill="#425B72"/>
<path d="M8.48601 18.8344H2.73177C1.98264 18.8344 1.98264 17.6836 2.73177 17.6836H8.48601C9.23515 17.6836 9.23515 18.8344 8.48601 18.8344Z" fill="#425B72"/>
<path d="M8.48659 21.1361H6.1849C5.43576 21.1361 5.43576 19.9854 6.1849 19.9854H8.48659C9.23573 19.9854 9.23573 21.1361 8.48659 21.1361Z" fill="#425B72"/>
<path d="M10.791 13.6562H17.6961V14.807H10.791V13.6562Z" fill="#DBDDDD"/>
<path d="M9.64062 11.3535H18.8487V13.6555H9.64062V11.3535Z" fill="#DBDDDD"/>
<path d="M28.7508 19.7477L27.6868 20.4317C27.4262 20.1277 27.144 19.8563 26.8291 19.6175L27.8605 18.9443C28.1754 19.1832 28.4794 19.4546 28.7508 19.7477Z" fill="#AAD182"/>
<path d="M27.6868 20.4296C27.5674 20.4731 24.6685 22.4707 24.6143 22.297C24.0714 22.3187 23.8217 21.5262 24.2994 21.233L26.8291 19.6045C27.1439 19.8433 27.4262 20.1256 27.6868 20.4188V20.4296Z" fill="#B5E08C"/>
<path d="M32.9861 17.0218L30.6735 18.5092C30.4238 18.2052 30.1524 17.9229 29.8701 17.6624L32.3672 16.0555C32.9969 15.6538 33.6266 16.6093 32.9861 17.0218Z" fill="#B5E08C"/>
<path d="M25.1903 22.8747C25.0926 25.9147 20.6738 25.9147 20.5869 22.8747C20.6846 19.8347 25.1034 19.8347 25.1903 22.8747Z" fill="#84B749"/>
<path d="M36.6991 15.3815C36.6014 18.4215 32.1826 18.4215 32.0957 15.3815C32.1934 12.3416 36.6122 12.3416 36.6991 15.3815Z" fill="#84B749"/>
<path d="M38.3282 34.7218L33.3115 29.7052C33.5178 29.4663 33.5504 29.0971 33.3115 28.869L32.356 27.9352C32.9423 26.7082 33.2464 25.3509 33.2464 23.9936C33.1486 21.5504 32.3668 19.6285 31.2158 18.1843L32.3886 17.4351C34.1042 19.053 37.1772 18.1517 37.2749 15.3937V15.3611C37.1772 12.755 34.4408 11.7995 32.66 13.0917L28.4361 10.0404C28.5555 9.72547 28.6206 9.39968 28.6315 9.06307V9.0306C28.4795 5.24097 23.0068 5.24087 22.8765 9.06307C22.9742 11.8646 26.1449 12.7442 27.8388 11.0285L31.8999 13.9711C31.661 14.4055 31.5307 14.9051 31.5199 15.4045C31.5307 15.7737 31.6067 16.1429 31.7479 16.4904L30.4123 17.3373C27.0244 14.21 21.8992 14.0363 18.2725 16.8052V14.2317H18.848C19.1629 14.2317 19.4235 13.9712 19.4235 13.6563V11.3543C19.4235 11.0394 19.1629 10.7788 18.848 10.7788H9.63992C9.32502 10.7788 9.06442 11.0394 9.06442 11.3543V13.6563C9.06442 13.9712 9.32502 14.2317 9.63992 14.2317H10.2154V20.4321L1.06168 38.164C0.920514 38.4463 1.0291 38.7937 1.31143 38.9349C1.39829 38.9783 1.48516 39.0001 1.57203 39.0001H27.4805C27.904 39.011 28.208 38.5006 27.98 38.1314L25.1025 33.1691C26.2643 33.0388 27.3936 32.6805 28.4252 32.1158L29.1744 32.9518C29.4025 33.2124 29.7825 33.1799 30.0323 32.9736L35.0489 37.9902C35.9502 38.8915 37.4052 38.8915 38.3065 37.9902C39.2077 37.089 39.2077 35.6339 38.3065 34.7327L38.3282 34.7218ZM25.754 10.7462C24.9179 10.7462 24.06 10.2141 24.0275 9.0522C24.0926 6.75019 27.4045 6.73944 27.4805 9.0306C27.4371 10.2142 26.5792 10.7353 25.754 10.7353V10.7462ZM36.113 15.3719C36.0587 17.1853 33.9305 17.5979 32.9966 16.4143C32.9966 16.3817 32.9749 16.3492 32.9423 16.3275C32.7577 16.0452 32.66 15.7194 32.66 15.3828C32.6817 14.8507 32.8663 14.449 33.1378 14.1667C33.1378 14.1667 33.1595 14.1558 33.1595 14.1341C34.1802 13.1785 36.0587 13.6454 36.113 15.3502V15.3719ZM10.2046 11.9189H18.2616V13.0699H10.2046V11.9189ZM24.0275 15.9908C25.906 15.9908 27.8714 16.6315 29.4025 17.9671L28.3818 18.6186C24.1469 15.4262 17.4363 17.435 17.1215 24.0044C17.5015 33.1799 30.5752 33.169 30.9444 23.9827C30.8684 22.039 30.206 20.5297 29.2504 19.433L30.2277 18.8141C31.2918 20.0846 32.0085 21.811 32.1062 24.0044C31.661 34.7001 16.4374 34.6892 15.9813 24.0262C16.2093 18.4992 20.3247 15.98 24.0492 15.98L24.0275 15.9908ZM24.3098 21.8871C24.3098 21.8871 24.3098 21.9088 24.3207 21.9088C24.4944 22.1911 24.5921 22.5169 24.603 22.8535C24.5161 25.1446 21.2368 25.1338 21.15 22.8752C21.1934 21.0184 23.4085 20.5949 24.3098 21.8871ZM22.8765 19.9977C21.4866 19.9977 20.0533 20.975 19.999 22.8752C20.1401 26.654 25.6128 26.654 25.754 22.8752V22.8426C25.7431 22.4843 25.6671 22.1369 25.5368 21.8002L28.2515 20.0628C29.1201 20.9966 29.7173 22.2996 29.7825 24.0044C29.4676 31.638 18.5982 31.638 18.2616 24.0262C18.5331 18.6946 23.7669 16.9681 27.3285 19.281L24.9179 20.8229C24.375 20.2909 23.6366 19.9868 22.8765 19.9868V19.9977ZM2.51672 37.8273L11.3013 20.8121C11.3447 20.7252 11.3664 20.6384 11.3664 20.5515V14.2209H17.1215V17.8695C15.8184 19.3462 14.928 21.3767 14.8194 24.0044C14.8194 29.0102 18.8371 33.0823 23.8103 33.2017L26.4924 37.8166H2.52758L2.51672 37.8273ZM31.7696 28.9777L32.1497 29.3577C32.1497 29.3577 32.1062 29.412 32.0845 29.4446C31.4547 30.335 30.6729 31.1168 29.7825 31.7574C29.7608 31.7791 29.7282 31.7901 29.7065 31.8118L29.4025 31.4751C30.3363 30.8019 31.1398 29.955 31.7588 28.9886L31.7696 28.9777ZM37.5138 37.165C37.0686 37.6102 36.3302 37.6102 35.885 37.165L30.9987 32.2786C31.5959 31.79 32.1388 31.2471 32.6274 30.6498L37.5246 35.547C37.9698 35.9922 37.9698 36.7306 37.5246 37.1758L37.5138 37.165Z" fill="black"/>
<path d="M12.2361 10.1809C13.2132 10.1809 14.2229 9.49693 14.2555 8.19408V8.16148C14.1686 5.51236 10.3035 5.51239 10.2275 8.19408C10.2601 9.49693 11.2698 10.1809 12.2469 10.1809H12.2361ZM12.2361 7.33634C12.6269 7.33634 13.0721 7.56437 13.1047 8.18322C13.0829 9.32321 11.4001 9.31236 11.3784 8.19408C11.3892 7.55352 11.8561 7.33634 12.2469 7.33634H12.2361Z" fill="black"/>
<path d="M14.8184 6.17253C14.8401 7.2908 15.6978 7.87703 16.5446 7.87703C18.8463 7.8336 18.8355 4.4896 16.5446 4.45703C15.6978 4.45703 14.8401 5.0434 14.8184 6.17253ZM16.5446 5.60794C16.6423 5.60794 17.1092 5.64053 17.1201 6.17253C17.1201 6.92166 15.9584 6.92166 15.9692 6.17253C15.9692 5.62968 16.4469 5.60794 16.5446 5.60794Z" fill="black"/>
<path d="M13.9616 4.41462C14.8085 4.41462 15.6879 3.8174 15.6879 2.69913C15.6336 0.430004 12.2788 0.430026 12.2354 2.72086C12.2571 3.83914 13.1148 4.42549 13.9616 4.42549V4.41462ZM13.9616 2.14541C14.0593 2.14541 14.5262 2.16713 14.537 2.69913C14.537 3.44826 13.3753 3.44826 13.3862 2.69913C13.3862 2.15627 13.8639 2.13454 13.9616 2.13454V2.14541Z" fill="black"/>
<path d="M4.46117 16.5219H8.48913C9.24913 16.5002 9.24913 15.3928 8.48913 15.3711H4.46117C4.14632 15.3711 3.88574 15.6317 3.88574 15.9465C3.88574 16.2614 4.14632 16.5219 4.46117 16.5219Z" fill="black"/>
<path d="M2.73308 18.8236H8.48732C9.24731 18.8019 9.24731 17.6946 8.48732 17.6729H2.73308C1.97309 17.6946 1.97309 18.8019 2.73308 18.8236Z" fill="black"/>
<path d="M8.4879 19.9863H6.18621C5.42621 20.008 5.42621 21.1154 6.18621 21.1371H8.4879C9.2479 21.1154 9.2479 20.008 8.4879 19.9863Z" fill="black"/>
</svg>
