<svg width="40" height="41" viewBox="0 0 40 41" fill="none" xmlns="http://www.w3.org/2000/svg">
<g clip-path="url(#clip0_225_10346)">
<path d="M3.99623 9.10153L6.28761 6.34538C7.53057 5.03757 9.53013 4.8214 11.0217 5.82658L11.1622 5.92386C11.9188 6.43185 12.6213 7.0047 13.2806 7.63158L16.7285 10.9065L24.2512 8.5503L31.1902 7.09116L32.3899 10.3877L26.0562 13.6951L18.62 18.8075L17.2797 27.2812L18.2417 35.9712L14.3182 36.1009L12.0809 27.0867L11.1622 17.6402L5.92012 12.2792L3.97461 9.11233L3.99623 9.10153Z" fill="#F9F9F9"/>
<path d="M33.7294 9.66376L36.7881 9.01525L35.8154 5.96729L32.8323 6.63741L31.2002 7.10217L32.4432 10.3771L33.7294 9.66376Z" fill="#FFCEBF"/>
<path d="M14.3394 36.6305C14.0908 36.6305 13.8746 36.4575 13.8098 36.2198L11.5724 27.2056L10.6537 17.8779L5.54135 12.6575C5.54135 12.6575 5.48731 12.5926 5.46569 12.5602L3.52018 9.39331C3.40129 9.19876 3.4121 8.93936 3.56341 8.76643L5.85479 6.01029C7.30312 4.47549 9.58369 4.2269 11.313 5.39421L11.4535 5.49148C12.2209 6.01029 12.9667 6.60475 13.6368 7.25325L16.8577 10.312L24.0778 8.05307L31.0708 6.58313C31.3302 6.52909 31.6004 6.6696 31.6869 6.929L32.8866 10.2256C32.9839 10.485 32.865 10.766 32.6272 10.8849L26.2935 14.1922L19.1059 19.1317L17.8089 27.3028L18.76 35.9171C18.7816 36.0684 18.7276 36.2198 18.6303 36.3278C18.533 36.4359 18.3925 36.5116 18.2412 36.5116L14.3178 36.6413H14.2962L14.3394 36.6305ZM6.3736 11.9333L11.5724 17.251C11.6589 17.3375 11.7129 17.4564 11.7238 17.5753L12.6425 27.0218L14.7609 35.5388L17.6576 35.4416L16.7605 27.3353C16.7605 27.3353 16.7605 27.238 16.7605 27.1947L18.1007 18.721C18.1223 18.5696 18.2088 18.4399 18.3277 18.3643L25.7639 13.2519L31.7301 10.1283L30.8546 7.71801L24.3696 9.07987L16.901 11.4253C16.7172 11.4793 16.5119 11.4361 16.3714 11.2956L12.9235 8.02065C12.2858 7.41538 11.5941 6.86415 10.8699 6.37777L10.7294 6.2805C9.45399 5.41582 7.75707 5.59957 6.68704 6.72364L4.66587 9.15553L6.3736 11.9441V11.9333Z" fill="black"/>
<path d="M32.4535 10.9174C32.3887 10.9174 32.3238 10.9174 32.2698 10.885C32.1185 10.831 32.0104 10.7121 31.9455 10.5716L30.7026 7.29661C30.6485 7.1561 30.6593 6.99397 30.7242 6.86427C30.789 6.73457 30.9187 6.62649 31.0592 6.58325L32.6913 6.11849L35.7069 5.44837C35.9771 5.39433 36.2581 5.54565 36.3337 5.81586L37.3065 8.86382C37.3497 9.00433 37.3389 9.16646 37.2633 9.29616C37.1876 9.42586 37.0579 9.52314 36.9066 9.55556L33.9235 10.1933L32.7129 10.8634C32.6265 10.9066 32.54 10.9282 32.4535 10.9282V10.9174ZM31.9239 7.45873L32.7346 9.5988L33.4695 9.18808C33.4695 9.18808 33.5668 9.14484 33.6208 9.13403L36.096 8.60442L35.4583 6.60487L32.9615 7.16691L31.9239 7.45873Z" fill="black"/>
<path d="M17.1703 11.4689L15.1491 12.5497L14.4033 10.3448L17.1054 8.89648L17.1811 11.4689H17.1703Z" fill="#FFCEBF"/>
<path d="M8.93445 7.91224C8.04817 7.2205 7.88604 5.94511 8.57778 5.05882C8.75071 4.83185 8.96688 4.6481 9.22628 4.5184C9.99368 4.10768 11.0745 4.3887 11.7987 4.58325L17.0191 6.34502L17.0948 8.91742L14.3927 10.3658L13.6469 8.16083L8.93445 7.92305V7.91224Z" fill="#F9F9F9"/>
<path d="M12.7609 10.5712L10.7073 9.54443L10.0264 11.771L10.7938 15.1432L12.7717 10.5712H12.7609Z" fill="#FFCEBF"/>
<path d="M7.69221 9.44798C7.38957 8.36714 6.2655 7.74025 5.18466 8.04289C4.91445 8.11855 4.65505 8.24825 4.43888 8.43199C3.76876 8.99403 3.52017 9.91274 3.84442 10.7342L7.89757 17.1652L9.28104 17.4786L10.7942 15.1548L10.0268 11.7826H9.05406L7.69221 9.44798Z" fill="#F9F9F9"/>
<path d="M18.65 39.96H13.2891L14.7482 37.6146L14.3375 36.0906L18.2609 35.9609L18.6608 39.9492L18.65 39.96Z" fill="#FFCEBF"/>
<path d="M5.77772 3.22199L8.03668 2.69238L8.46902 4.16232C8.8365 5.37286 8.14477 6.65906 6.92342 7.02655C5.71288 7.39404 4.42668 6.7023 4.05919 5.48095L3.96191 5.14589L4.79416 4.72436L5.75611 3.2328L5.77772 3.22199Z" fill="#FFCEBF"/>
<path d="M5.18426 1.14643C6.3948 0.778949 7.681 1.47069 8.03768 2.69204L5.77872 3.23246L4.81678 4.72401L3.98453 5.14554L3.64947 4.01066C3.28199 2.78931 3.98453 1.51392 5.19507 1.15724L5.18426 1.14643Z" fill="#4A4B46"/>
<path d="M15.1388 13.1008C15.074 13.1008 15.0091 13.09 14.9443 13.0575C14.793 13.0035 14.6849 12.8738 14.6308 12.7333L13.885 10.5284C13.7986 10.2798 13.9067 9.99877 14.1444 9.87987L16.8465 8.43155C17.0087 8.34508 17.214 8.34508 17.3762 8.43155C17.5383 8.52883 17.6356 8.70176 17.6464 8.8855L17.722 11.4579C17.722 11.6633 17.6139 11.8578 17.441 11.9551L15.4198 13.0359C15.3442 13.0792 15.2577 13.1008 15.1604 13.1008H15.1388ZM15.0524 10.6148L15.4523 11.7822L16.6196 11.1553L16.5763 9.79341L15.0524 10.6148Z" fill="black"/>
<path d="M14.3932 10.8856C14.3284 10.8856 14.2635 10.8747 14.1987 10.8423C14.0474 10.7883 13.9393 10.6586 13.8852 10.5181L13.2583 8.65902L10.6211 8.52932C10.3185 8.51851 10.0915 8.25911 10.1131 7.96728C10.1239 7.66465 10.3725 7.40525 10.6751 7.45929L13.6799 7.61061C13.896 7.61061 14.0906 7.76192 14.1662 7.97809L14.7067 9.57773L16.5549 8.59417L16.5009 6.73513L11.6371 5.09225C11.021 4.93012 10.0699 4.68153 9.48621 4.99497C9.30247 5.09225 9.14034 5.23276 9.01064 5.39489C8.8269 5.63267 8.49184 5.6759 8.25405 5.49216C8.01627 5.30842 7.97303 4.97336 8.15678 4.73557C8.38375 4.44375 8.65396 4.21677 8.97821 4.04384C9.92935 3.53584 11.1399 3.84928 11.9289 4.05464L17.2034 5.82722C17.4196 5.90288 17.5601 6.09743 17.5709 6.32441L17.6465 8.89681C17.6465 9.10217 17.5385 9.29672 17.3655 9.39399L14.6634 10.8423C14.5878 10.8856 14.5013 10.9072 14.404 10.9072L14.3932 10.8856Z" fill="black"/>
<path d="M10.7937 15.6843C10.7937 15.6843 10.7613 15.6843 10.7396 15.6843C10.5019 15.6627 10.3181 15.4898 10.2641 15.2628L9.49668 11.8906C9.47506 11.8041 9.47506 11.7068 9.49668 11.6096L10.1776 9.38302C10.2208 9.23171 10.3397 9.11281 10.4802 9.04796C10.6316 8.98311 10.7937 8.99392 10.9342 9.05877L12.9878 10.0856C13.2472 10.2153 13.3553 10.5179 13.2472 10.7881L11.2693 15.3601C11.1828 15.5546 10.9882 15.6843 10.7721 15.6843H10.7937ZM10.5883 11.7933L10.9558 13.4037L12.0691 10.8205L11.0423 10.3126L10.5883 11.7933Z" fill="black"/>
<path d="M9.28099 18.0184C9.28099 18.0184 9.20533 18.0184 9.1621 18.0076L7.77862 17.6941C7.63811 17.6617 7.51922 17.5752 7.44356 17.4563L3.39041 11.0253C2.94727 9.90126 3.2499 8.72314 4.10377 8.0206C4.38478 7.78281 4.69823 7.62068 5.0549 7.52341C5.71422 7.33967 6.40596 7.41532 7.01123 7.76119C7.58407 8.08544 8.01641 8.60425 8.21096 9.24194L9.37826 11.2415H10.0484C10.297 11.2415 10.5131 11.4252 10.5672 11.663L11.3346 15.0352C11.367 15.1758 11.3346 15.3271 11.2589 15.446L9.74575 17.7698C9.64847 17.9211 9.47554 18.0184 9.2918 18.0184H9.28099ZM8.23257 16.6889L9.03239 16.8727L10.2105 15.0461L9.59443 12.3115H9.05401C8.85946 12.3115 8.68653 12.2034 8.58925 12.0413L7.22739 9.71751C7.22739 9.71751 7.18416 9.63105 7.17335 9.58781C7.06527 9.20952 6.81667 8.88527 6.47081 8.69072C6.12494 8.49616 5.72503 8.44212 5.33592 8.56102C5.14137 8.61506 4.94682 8.71233 4.78469 8.85284C4.28751 9.26356 4.11457 9.94449 4.34155 10.539L8.23257 16.6889Z" fill="black"/>
<path d="M18.6524 40.4994H13.2914C13.0968 40.4994 12.9131 40.3914 12.8158 40.2184C12.7185 40.0455 12.7294 39.8401 12.8266 39.6672L14.1561 37.5163L13.7994 36.2193C13.7562 36.0572 13.7886 35.8843 13.8859 35.7546C13.9831 35.6249 14.1344 35.5384 14.3074 35.5384L18.22 35.4087C18.5335 35.4087 18.7496 35.6141 18.7713 35.8951L19.1712 39.8942C19.182 40.0455 19.1387 40.1968 19.0307 40.3157C18.9334 40.4238 18.7821 40.4886 18.6307 40.4886L18.6524 40.4994ZM14.2641 39.4186H18.0579L17.7661 36.522L15.0424 36.6084L15.2801 37.4623C15.3234 37.6028 15.3018 37.7649 15.2153 37.8946L14.275 39.4186H14.2641Z" fill="black"/>
<path d="M6.27627 7.65311C5.05492 7.65311 3.92004 6.85329 3.55255 5.63194L3.45527 5.28607C3.37962 5.03747 3.49851 4.76726 3.73629 4.64837L4.43884 4.2917L5.32513 2.91903C5.40079 2.80014 5.51968 2.71367 5.64938 2.69205L7.90833 2.15163C8.18935 2.07597 8.47037 2.24891 8.54603 2.51912L8.97837 3.98906C9.19453 4.71322 9.11887 5.48062 8.7622 6.15074C8.40552 6.82086 7.80025 7.30724 7.07609 7.52341C6.80588 7.60987 6.53567 7.6423 6.26546 7.6423L6.27627 7.65311ZM4.62258 5.41577C4.93602 6.29125 5.88716 6.76682 6.78426 6.50742C7.23821 6.37772 7.6057 6.07508 7.82187 5.65355C8.04884 5.24283 8.09208 4.76727 7.96238 4.31331L7.67055 3.32975L6.11414 3.69723L5.26028 5.00505C5.20623 5.09152 5.13058 5.15637 5.04411 5.1996L4.61177 5.41577H4.62258Z" fill="black"/>
<path d="M3.97396 5.67535C3.8983 5.67535 3.82264 5.66454 3.75779 5.63211C3.60647 5.56726 3.49839 5.44837 3.45515 5.28624L3.12009 4.15136C2.90393 3.4272 2.97958 2.6598 3.34707 1.98968C3.70375 1.31956 4.30902 0.833184 5.03318 0.617016C6.53555 0.173871 8.11357 1.02774 8.56752 2.5301C8.61076 2.67061 8.58914 2.82193 8.51348 2.95163C8.43782 3.08133 8.31893 3.17861 8.16761 3.21103L6.11402 3.69741L5.26016 5.00522C5.20611 5.09169 5.13045 5.15654 5.04399 5.19978L4.21174 5.6213C4.13608 5.66454 4.04961 5.67535 3.97396 5.67535ZM5.833 1.58977C5.67088 1.58977 5.49794 1.61139 5.33581 1.66543C4.88186 1.79513 4.51438 2.09777 4.2874 2.50849C4.06042 2.9192 4.01719 3.39477 4.14689 3.84873L4.29821 4.36753L4.42791 4.30268L5.3142 2.93001C5.38986 2.81112 5.50875 2.72465 5.63845 2.70304L7.2489 2.32474C6.92465 1.87079 6.38423 1.60058 5.82219 1.60058L5.833 1.58977Z" fill="black"/>
<path d="M11.1829 18.1812C11.064 18.1812 10.9451 18.1487 10.8478 18.0623C10.61 17.8785 10.5668 17.5435 10.7505 17.3057L14.7172 12.2257C14.901 11.9879 15.236 11.9447 15.4738 12.1285C15.7116 12.3122 15.7548 12.6473 15.5711 12.885L11.6044 17.965C11.4963 18.1055 11.3342 18.1704 11.1829 18.1704V18.1812Z" fill="black"/>
<path d="M14.9339 21.0451C14.6853 21.0451 14.4583 20.8722 14.4043 20.6128L13.1937 14.6573C13.1505 14.4304 13.2478 14.2034 13.4423 14.0845C13.6369 13.9656 13.8855 13.9872 14.0584 14.1277L17.0199 16.4948C17.2577 16.6785 17.2901 17.0244 17.1064 17.2514C16.9226 17.4783 16.5768 17.5216 16.3498 17.3378L14.5556 15.9003L15.4743 20.3966C15.5392 20.6884 15.3446 20.9694 15.0528 21.0343C15.0204 21.0343 14.9771 21.0343 14.9447 21.0343L14.9339 21.0451Z" fill="black"/>
</g>
<defs>
<clipPath id="clip0_225_10346">
<rect width="40" height="40" fill="white" transform="translate(0 0.5)"/>
</clipPath>
</defs>
</svg>
