<svg width="40" height="40" viewBox="0 0 40 40" fill="none" xmlns="http://www.w3.org/2000/svg">
<g clip-path="url(#clip0_225_10301)">
<path d="M39.2878 12.9296L22.0469 8.59961L16.4678 33.9497L33.7088 38.2797L39.2878 12.9296Z" fill="white"/>
<path d="M23.138 10.415L37.6381 14.0523L32.7093 36.4672L18.2194 32.8299L23.1482 10.415M22.095 8.60156L16.5117 33.955L33.7523 38.2806L39.3356 12.9275L22.095 8.60156Z" fill="#388F4A"/>
<path d="M33.7522 38.9998C33.7522 38.9998 33.65 38.9998 33.5989 38.978L16.3582 34.6524C16.1844 34.6087 16.0412 34.4994 15.9492 34.3355C15.8572 34.1717 15.8265 33.986 15.8674 33.8003L21.4506 8.44713C21.5325 8.06482 21.9006 7.83545 22.2483 7.92283L39.4889 12.2485C39.8468 12.3358 40.0717 12.7182 39.9797 13.1005L34.3965 38.4537C34.3249 38.7814 34.0488 38.9998 33.7522 38.9998ZM17.3092 33.4288L33.2614 37.4379L38.5379 13.472L22.5857 9.46294L17.3092 33.4288Z" fill="black"/>
<path d="M29.2078 33.6595C29.2078 33.6595 29.1056 33.6595 29.0545 33.6377C28.6966 33.5503 28.4716 33.1679 28.5636 32.7856L32.3165 15.745C32.3983 15.3627 32.7664 15.1333 33.1141 15.2207C33.472 15.3081 33.6969 15.6904 33.6049 16.0727L29.8521 33.1133C29.7805 33.4411 29.5044 33.6595 29.2078 33.6595Z" fill="black"/>
<path d="M25.9764 32.8499C25.9764 32.8499 25.8741 32.8499 25.823 32.8281C25.4651 32.7407 25.2401 32.3583 25.3322 31.976L29.085 14.9354C29.1668 14.5531 29.5349 14.3237 29.8826 14.4111C30.2405 14.4985 30.4655 14.8809 30.3735 15.2632L26.6206 32.3038C26.549 32.6315 26.2729 32.8499 25.9764 32.8499Z" fill="black"/>
<path d="M24.0946 25.9472C24.0946 25.9472 23.9923 25.9472 23.9412 25.9253C23.5833 25.8379 23.3583 25.4556 23.4503 25.0733L25.8636 14.1171C25.9454 13.7347 26.3135 13.5054 26.6612 13.5928C27.0191 13.6801 27.2441 14.0625 27.1521 14.4448L24.7388 25.401C24.6672 25.7287 24.3911 25.9472 24.0946 25.9472Z" fill="black"/>
<path d="M17.7094 1.60484L0.944336 7.70508L8.80458 32.3558L25.5697 26.2555L17.7094 1.60484Z" fill="white"/>
<path d="M16.5617 3.63034L23.5152 25.4334L9.42414 30.5564L2.47063 8.75335L16.5617 3.63034ZM17.4411 1.71875L0.670898 7.81382L8.53451 32.468L25.3047 26.3727L17.4411 1.71875Z" fill="#388F4A"/>
<path d="M8.53452 33.1787C8.43226 33.1787 8.33 33.157 8.23797 33.1024C8.08459 33.015 7.96187 32.8729 7.90052 32.6981L0.03691 8.04392C-0.085799 7.67253 0.108494 7.26854 0.45617 7.13746L17.2264 1.04212C17.39 0.97658 17.5741 0.987536 17.7377 1.07492C17.8911 1.16231 18.0138 1.30418 18.0751 1.47895L25.9388 26.1331C26.0615 26.5045 25.8672 26.9088 25.5195 27.0399L8.74926 33.1352C8.67768 33.1571 8.6061 33.1787 8.53452 33.1787ZM1.51965 8.2626L8.95377 31.573L24.4662 25.9257L17.0321 2.61503L1.51965 8.2626Z" fill="black"/>
<path d="M18.8307 25.1176C18.5546 25.1176 18.2989 24.9319 18.1967 24.637L12.91 8.06602C12.7872 7.69462 12.9815 7.29064 13.3292 7.15956C13.6871 7.02848 14.0552 7.23592 14.1779 7.60732L19.4647 24.178C19.5874 24.5494 19.3931 24.9537 19.0454 25.0848C18.9738 25.1066 18.9023 25.1285 18.8307 25.1285V25.1176Z" fill="black"/>
<path d="M15.6822 26.2543C15.4061 26.2543 15.1505 26.0686 15.0482 25.7737L9.76152 9.20274C9.63881 8.83134 9.8331 8.42736 10.1808 8.29627C10.5387 8.16519 10.9068 8.37264 11.0295 8.74404L16.3162 25.3147C16.4389 25.6861 16.2446 26.0904 15.897 26.2215C15.8254 26.2433 15.7538 26.2652 15.6822 26.2652V26.2543Z" fill="black"/>
<path d="M9.37312 17.4275C9.09702 17.4275 8.84137 17.2419 8.73912 16.9469L6.63261 10.3492C6.5099 9.97776 6.70419 9.57351 7.05187 9.44243C7.39954 9.32227 7.7779 9.51906 7.90061 9.89046L10.0071 16.4882C10.1298 16.8596 9.93553 17.2636 9.58786 17.3947C9.51628 17.4165 9.4447 17.4384 9.37312 17.4384V17.4275Z" fill="black"/>
</g>
<defs>
<clipPath id="clip0_225_10301">
<rect width="40" height="40" fill="white"/>
</clipPath>
</defs>
</svg>
