<svg width="40" height="40" viewBox="0 0 40 40" fill="none" xmlns="http://www.w3.org/2000/svg">
<path d="M16.7653 33.4492C15.6489 32.3309 16.1917 29.961 17.9842 28.1655C19.367 26.7804 21.0878 26.1339 22.317 26.4314C22.7369 26.534 23.1876 26.3802 23.4335 26.0211C25.3079 23.251 25.7074 20.1012 22.8291 17.2182C19.9509 14.3352 15.7923 13.7198 13.0267 15.5973C12.6682 15.8435 12.5146 16.2948 12.617 16.7155C12.914 17.9466 12.2687 19.6702 10.8859 21.0553C9.09344 22.8508 6.72734 23.3947 5.61087 22.2764C5.22164 21.8865 4.60707 21.8352 4.18711 22.1943C4.02323 22.3379 3.85935 22.4815 3.69546 22.6354C0.499691 25.8364 0.981102 31.5102 4.7812 35.3165C8.5813 39.1229 13.2316 38.5892 16.4273 35.3882C16.581 35.2343 16.7346 35.0702 16.8678 34.8957C17.216 34.4751 17.1751 33.8596 16.7858 33.4697L16.7653 33.4492Z" fill="#D77F4A"/>
<path d="M17.8713 35.9016C18.2196 35.481 18.1786 34.8655 17.7894 34.4756C16.6729 33.3573 17.2158 30.9874 19.0083 29.192C20.3911 27.8069 22.1118 27.1603 23.341 27.4579C23.7609 27.5605 24.2116 27.4067 24.4575 27.0476C26.3319 24.2774 25.7173 20.1119 22.8391 17.2289C22.5728 16.9622 22.2962 16.7159 22.0094 16.4902C24.2424 19.3014 24.5906 22.9642 22.8903 25.4778C22.6445 25.8369 22.1938 25.9907 21.7738 25.8881C20.5447 25.5906 18.8239 26.2371 17.4411 27.6222C15.6486 29.4176 15.1057 31.7875 16.2222 32.9059C16.6114 33.2957 16.6627 33.9115 16.3042 34.3321C16.1608 34.4963 16.0174 34.6604 15.8637 34.8246C12.8933 37.7999 7.78209 37.5844 4.0332 34.4859C4.26879 34.7732 4.51462 35.0503 4.78094 35.317C8.58104 39.1234 14.2453 39.6054 17.4411 36.4044C17.5948 36.2505 17.7484 36.0863 17.8816 35.9119L17.8713 35.9016Z" fill="#C86D36"/>
<path d="M17.9535 25.355L14.6963 22.0922L33.369 5.00977L34.885 5.13275L35.0079 6.65118L17.9535 25.355Z" fill="#00516A"/>
<path d="M35.0488 6.68196L33.3382 4.96866C33.1334 4.76347 33.1334 4.43519 33.3382 4.24026L35.8579 1.7164C36.0628 1.5112 36.3906 1.5112 36.5852 1.7164L38.2958 3.4297C38.5006 3.63489 38.5006 3.96317 38.2958 4.1581L35.776 6.68196C35.5711 6.88716 35.2434 6.88716 35.0488 6.68196Z" fill="#004651"/>
<path d="M5.99904 35.7785L9.89132 30.2792L8.20124 28.5864L3.29492 34.7526C3.54075 35.1629 3.889 35.594 4.1758 35.8812C4.47284 36.1788 5.59956 35.5323 5.99904 35.7683V35.7785Z" fill="#00516A"/>
<path d="M9.8925 30.2798L3.73654 35.1943C3.6546 35.143 3.56241 35.0815 3.48047 35.0302C3.70581 35.3585 3.96189 35.6764 4.18723 35.8918C4.48427 36.1894 4.90423 36.5281 5.31394 36.7743L11.4699 31.8598L9.8925 30.2798Z" fill="#004651"/>
<path d="M33.0076 19.3394L31.3779 20.9717L33.8259 23.4237L35.4555 21.7914L33.0076 19.3394Z" fill="#596D76"/>
<path d="M13.477 38.9484C13.2107 38.9484 12.9751 38.7532 12.9239 38.4865C12.8726 38.1787 13.0775 37.8915 13.3848 37.8402C14.8085 37.6043 16.0684 36.9681 17.0312 35.9934C17.1746 35.8498 17.3078 35.696 17.441 35.5421C17.6048 35.3471 17.5844 35.0597 17.3897 34.8648C16.0274 33.5002 16.5601 30.8327 18.5984 28.7808C20.0836 27.2931 21.9888 26.5546 23.4535 26.9034C23.6584 26.9547 23.8735 26.8827 23.9759 26.7186C25.4202 24.5845 25.2563 21.5579 23.5662 19.0135C23.3921 18.757 23.4638 18.4081 23.7198 18.244C23.9759 18.0696 24.3242 18.1415 24.4881 18.398C26.4342 21.3221 26.5878 24.8411 24.8875 27.3445C24.5188 27.8883 23.8428 28.1447 23.177 27.9805C22.0912 27.724 20.565 28.3602 19.3666 29.5708C17.8199 31.12 17.2668 33.1824 18.1477 34.0647C18.7521 34.6598 18.8033 35.6036 18.2809 36.2499C18.1272 36.4346 17.9736 36.609 17.7995 36.7732C16.6727 37.9018 15.1978 38.6508 13.5487 38.9278C13.5179 38.9278 13.4872 38.9278 13.4565 38.9278L13.477 38.9484Z" fill="black"/>
<path d="M11.0587 38.9997C11.0587 38.9997 11.0178 38.9997 10.9973 38.9997C9.07163 38.774 7.19718 37.9943 5.56857 36.7426C5.32274 36.558 5.28177 36.2091 5.46614 35.9629C5.66076 35.7166 6.00902 35.6758 6.2446 35.8604C7.71957 36.989 9.39941 37.6969 11.1202 37.8918C11.4275 37.9329 11.6426 38.1995 11.6119 38.5073C11.5811 38.7946 11.3353 38.9997 11.0587 38.9997Z" fill="black"/>
<path d="M3.77713 34.7219C3.61325 34.7219 3.44936 34.6502 3.33669 34.5065C0.233102 30.4642 0.222867 25.3035 3.29572 22.2256C3.46985 22.0512 3.64398 21.8973 3.82835 21.7434C4.47365 21.2099 5.40575 21.2611 5.99984 21.8664C6.89097 22.759 8.94978 22.1948 10.4965 20.6558C11.6949 19.4554 12.3299 17.9165 12.0841 16.8392C11.9304 16.1723 12.1763 15.5053 12.7191 15.1359C13.4566 14.6332 14.2761 14.2946 15.1774 14.11C15.4745 14.0484 15.7715 14.2435 15.833 14.5513C15.8944 14.8489 15.6998 15.1463 15.3925 15.2078C14.6448 15.3617 13.9483 15.6491 13.344 16.0595C13.1801 16.1723 13.1084 16.3775 13.1596 16.5827C13.5078 18.0499 12.7704 19.9582 11.2851 21.4459C9.24682 23.4875 6.57344 24.0313 5.22138 22.6667C5.02676 22.4718 4.73997 22.4409 4.53511 22.6051C4.38147 22.7282 4.22782 22.872 4.08442 23.0156C1.45201 25.6524 1.51346 30.3001 4.22782 33.8295C4.41219 34.0757 4.37122 34.4243 4.12539 34.609C4.02296 34.691 3.91029 34.7219 3.78738 34.7219H3.77713Z" fill="black"/>
<path d="M21.3537 16.5622C21.2513 16.5622 21.1386 16.5313 21.0464 16.4697C19.9914 15.7721 18.8135 15.3103 17.6356 15.1462C17.3283 15.1052 17.1234 14.818 17.1644 14.5205C17.2054 14.2127 17.4922 13.9973 17.7892 14.0486C19.131 14.2333 20.4728 14.7565 21.661 15.5465C21.9171 15.7209 21.9888 16.0595 21.8147 16.3159C21.7122 16.4801 21.5278 16.5622 21.3537 16.5622Z" fill="black"/>
<path d="M14.6956 22.645C14.5419 22.645 14.3985 22.5835 14.2859 22.4604C14.081 22.2347 14.0913 21.8756 14.3268 21.6704L32.9996 4.58796C33.2249 4.38276 33.5834 4.39281 33.7883 4.62879C33.9931 4.8545 33.9829 5.21361 33.7473 5.41881L15.0746 22.5015C14.9721 22.5938 14.8287 22.645 14.6956 22.645Z" fill="black"/>
<path d="M17.9532 25.9085C17.8201 25.9085 17.6869 25.8573 17.5742 25.765C17.3489 25.5598 17.3284 25.2007 17.5333 24.9749L19.2848 23.0565C19.4896 22.8308 19.8482 22.8102 20.0735 23.0154C20.2988 23.2206 20.3193 23.5797 20.1145 23.8054L18.3629 25.7239C18.2503 25.847 18.1069 25.9085 17.9532 25.9085Z" fill="black"/>
<path d="M21.3536 22.194C21.2204 22.194 21.0873 22.1426 20.9746 22.0503C20.7493 21.8451 20.7288 21.4862 20.9337 21.2605L34.5874 6.27085C34.7922 6.04513 35.1507 6.02457 35.3761 6.22977C35.6014 6.43496 35.6219 6.79408 35.4171 7.01979L21.7633 22.0094C21.6507 22.1325 21.5072 22.194 21.3536 22.194Z" fill="black"/>
<path d="M35.4075 7.38944C35.131 7.38944 34.8544 7.28678 34.6495 7.07133L32.939 5.35803C32.519 4.93738 32.519 4.24974 32.939 3.83935L35.4587 1.31549C35.8787 0.894837 36.5547 0.894837 36.9747 1.31549L38.6852 3.02904C39.1052 3.44969 39.1052 4.12681 38.6852 4.54747L36.1655 7.07133C35.9606 7.28678 35.6841 7.38944 35.4075 7.38944ZM36.186 2.10551L33.7277 4.62937L35.4075 6.26077L37.8965 3.76771L36.186 2.10551Z" fill="black"/>
<path d="M30.3379 12.2841C30.1945 12.2841 30.0511 12.2326 29.9487 12.1198L27.9103 10.0678C27.6952 9.85237 27.6952 9.49326 27.9103 9.2778C28.1254 9.06235 28.484 9.06235 28.6991 9.2778L30.7374 11.3298C30.9525 11.5452 30.9525 11.9043 30.7374 12.1198C30.6247 12.2326 30.4813 12.2841 30.3482 12.2841H30.3379Z" fill="black"/>
<path d="M5.30312 37.3271C5.20069 37.3271 5.1085 37.2962 5.01631 37.2449C4.58611 36.9885 4.12519 36.6294 3.77693 36.2806C3.43891 35.942 3.05993 35.4496 2.81411 35.0392C2.69119 34.8443 2.71168 34.5876 2.85508 34.403L7.7614 28.2368C7.95601 27.9906 8.30427 27.96 8.53986 28.1447C8.78569 28.3396 8.81642 28.6884 8.63205 28.9244L3.98179 34.7827C4.17641 35.0597 4.40175 35.3161 4.56563 35.4803C4.76025 35.6752 5.01632 35.8908 5.26215 36.0652L11.1108 31.4072C11.3464 31.2123 11.7049 31.2534 11.8893 31.4996C12.0839 31.7356 12.0429 32.0947 11.7971 32.2794L5.64113 37.1936C5.5387 37.2757 5.41579 37.3168 5.29288 37.3168L5.30312 37.3271Z" fill="black"/>
<path d="M14.3892 32.096C14.2458 32.096 14.1126 32.0448 13.9999 31.9319C13.6722 31.6036 13.498 31.1728 13.498 30.7214C13.498 30.2699 13.6722 29.8388 13.9999 29.5208L15.6388 27.8794C15.8641 27.6537 15.8641 27.2843 15.6388 27.0585C15.4237 26.8431 15.4237 26.484 15.6388 26.2685C15.8539 26.0531 16.2124 26.0531 16.4275 26.2685C17.083 26.9354 17.083 28.0025 16.4275 28.6694L14.7886 30.3108C14.676 30.4237 14.6145 30.5675 14.6145 30.7214C14.6145 30.8753 14.676 31.0188 14.7886 31.1316C15.0037 31.3471 15.014 31.7062 14.7886 31.9217C14.676 32.0345 14.5326 32.0857 14.3892 32.0857V32.096Z" fill="black"/>
<path d="M9.32849 26.5543C8.8778 26.5543 8.4476 26.3799 8.13008 26.0516C7.91498 25.8361 7.91498 25.477 8.13008 25.2616C8.34518 25.0461 8.70368 25.0461 8.91878 25.2616C9.03145 25.3744 9.17484 25.4359 9.32849 25.4359C9.48213 25.4359 9.62552 25.3744 9.73819 25.2616L11.3771 23.6199C11.6946 23.3019 12.1248 23.1172 12.5755 23.1172C13.0262 23.1172 13.4564 23.2916 13.7739 23.6199C13.989 23.8354 13.9992 24.1739 13.7944 24.3997C13.5895 24.6151 13.2515 24.6459 13.0262 24.451C12.8828 24.3074 12.7291 24.2459 12.5755 24.2459C12.4218 24.2459 12.2784 24.3073 12.1658 24.4202L10.5269 26.0619C10.2094 26.3799 9.77917 26.5646 9.32849 26.5646V26.5543Z" fill="black"/>
<path d="M13.4877 27.9389C13.3443 27.9389 13.2009 27.8877 13.0984 27.7749L12.2893 26.9643C12.0742 26.7489 12.0742 26.3897 12.2893 26.1743C12.5044 25.9588 12.8629 25.9588 13.078 26.1743L13.8871 26.9848C14.1022 27.2003 14.1022 27.5594 13.8871 27.7749C13.7745 27.8877 13.6311 27.9389 13.4979 27.9389H13.4877Z" fill="black"/>
<path d="M12.268 33.2244C12.1245 33.2244 11.9812 33.1732 11.8787 33.0604L7.00312 28.1767C6.78802 27.9613 6.78802 27.6021 7.00312 27.3867C7.21822 27.1712 7.57673 27.1712 7.79183 27.3867L12.6674 32.2703C12.8825 32.4858 12.8825 32.8449 12.6674 33.0604C12.5547 33.1732 12.4114 33.2244 12.2782 33.2244H12.268Z" fill="black"/>
<path d="M18.7621 26.7196C18.6187 26.7196 18.4753 26.6683 18.3729 26.5555L13.4973 21.6718C13.2822 21.4564 13.2822 21.0973 13.4973 20.8818C13.7124 20.6664 14.0709 20.6664 14.286 20.8818L19.1616 25.7655C19.3767 25.9809 19.3767 26.34 19.1616 26.5555C19.0489 26.6683 18.9055 26.7196 18.7723 26.7196H18.7621Z" fill="black"/>
<path d="M34.998 8.82606C34.8546 8.82606 34.7112 8.77486 34.6087 8.662L33.8508 7.90279C33.6357 7.68733 33.6357 7.32822 33.8508 7.11276C34.0659 6.89731 34.4244 6.89731 34.6395 7.11276L35.3974 7.87198C35.6125 8.08743 35.6125 8.44654 35.3974 8.662C35.2848 8.77486 35.1414 8.82606 35.0082 8.82606H34.998Z" fill="black"/>
<path d="M31.6474 7.09292C31.504 7.09292 31.3606 7.04146 31.2582 6.9286L30.5002 6.16939C30.2851 5.95393 30.2851 5.59482 30.5002 5.37936C30.7153 5.16391 31.0738 5.16391 31.2889 5.37936L32.0469 6.13858C32.262 6.35403 32.262 6.71314 32.0469 6.9286C31.9342 7.04146 31.7908 7.09292 31.6576 7.09292H31.6474Z" fill="black"/>
<path d="M33.2568 10.7538C33.1134 10.7538 32.97 10.7026 32.8675 10.5897L32.1096 9.83052C31.8945 9.61506 31.8945 9.25595 32.1096 9.0405C32.3247 8.82504 32.6832 8.82504 32.8983 9.0405L33.6562 9.79971C33.8713 10.0152 33.8713 10.3743 33.6562 10.5897C33.5436 10.7026 33.4002 10.7538 33.267 10.7538H33.2568Z" fill="black"/>
<path d="M29.1083 9.43178C28.9649 9.43178 28.8215 9.38032 28.7191 9.26747L27.9611 8.50825C27.746 8.2928 27.746 7.93369 27.9611 7.71823C28.1762 7.50278 28.5347 7.50278 28.7498 7.71823L29.5078 8.47744C29.7229 8.6929 29.7229 9.05201 29.5078 9.26747C29.3951 9.38032 29.2517 9.43178 29.1186 9.43178H29.1083Z" fill="black"/>
<path d="M36.2777 23.1687C36.1343 23.1687 35.9909 23.1175 35.8884 23.0046L17.9327 5.0295C17.2464 4.3421 16.1402 4.3421 15.4539 5.0295C15.2388 5.24496 14.8803 5.24496 14.6652 5.0295C14.4501 4.81405 14.4501 4.45493 14.6652 4.23948C15.7407 3.15194 17.6357 3.15194 18.7112 4.23948L36.6669 22.2146C36.882 22.4301 36.882 22.7892 36.6669 23.0046C36.5542 23.1175 36.4108 23.1687 36.2777 23.1687Z" fill="black"/>
<path d="M33.8292 23.9893C33.6858 23.9893 33.5424 23.9381 33.44 23.8252L13.8557 4.20845C13.6406 3.99299 13.6406 3.63388 13.8557 3.41843C14.0708 3.20297 14.4293 3.20297 14.6444 3.41843L34.2287 23.0352C34.4438 23.2507 34.4438 23.6098 34.2287 23.8252C34.116 23.9381 33.9726 23.9893 33.8395 23.9893H33.8292Z" fill="black"/>
<path d="M31.3826 21.5364C31.2392 21.5364 31.0958 21.4852 30.9934 21.3723C30.7783 21.1569 30.7783 20.7977 30.9934 20.5823L32.622 18.9511C32.8371 18.7357 33.1956 18.7357 33.4107 18.9511C33.6258 19.1666 33.6258 19.5255 33.4107 19.7409L31.7821 21.3723C31.6694 21.4852 31.526 21.5364 31.3928 21.5364H31.3826Z" fill="black"/>
<path d="M33.8299 23.9902C33.6865 23.9902 33.5431 23.939 33.4406 23.8262C33.2255 23.6107 33.2255 23.2516 33.4406 23.0361L35.0692 21.4048C35.2843 21.1893 35.6428 21.1893 35.8579 21.4048C36.073 21.6202 36.073 21.9793 35.8579 22.1948L34.2293 23.8262C34.1167 23.939 33.9732 23.9902 33.8401 23.9902H33.8299Z" fill="black"/>
</svg>
