<svg width="40" height="40" viewBox="0 0 40 40" fill="none" xmlns="http://www.w3.org/2000/svg">
<mask id="mask0_225_10290" style="mask-type:luminance" maskUnits="userSpaceOnUse" x="0" y="1" width="40" height="38">
<path d="M40 1H0V39H40V1Z" fill="white"/>
</mask>
<g mask="url(#mask0_225_10290)">
<path d="M6.17969 1.59619V35.0958H25.755C26.1748 35.0958 26.5165 34.7481 26.5165 34.3209V2.37109C26.5165 1.9439 26.1748 1.59619 25.755 1.59619H6.17969Z" fill="#EEF5F6"/>
<path d="M25.7553 1.59619H23.6367C24.0565 1.59619 24.3983 1.9439 24.3983 2.37109V34.3209C24.3983 34.7481 24.0565 35.0958 23.6367 35.0958H25.7553C26.1752 35.0958 26.5169 34.7481 26.5169 34.3209V2.37109C26.5169 1.9439 26.1752 1.59619 25.7553 1.59619Z" fill="#CBE5E8"/>
<path d="M6.17975 1.59619V35.0958H3.21173C2.79191 35.0958 2.4502 34.7481 2.4502 34.3209V2.37109C2.4502 1.9439 2.79191 1.59619 3.21173 1.59619H6.17975Z" fill="#FECE85"/>
<path d="M21.001 18.5545V37.4204C21.001 37.8575 21.3525 38.2152 21.782 38.2152H38.6236C39.0532 38.2152 39.4047 37.8575 39.4047 37.4204V18.5545C39.4047 18.1174 39.0532 17.7598 38.6236 17.7598H21.782C21.3525 17.7598 21.001 18.1174 21.001 18.5545Z" fill="#888891"/>
<path d="M38.6234 17.7598H36.2705C36.7001 17.7598 37.0516 18.1174 37.0516 18.5545V37.4204C37.0516 37.8575 36.7001 38.2152 36.2705 38.2152H38.6234C39.053 38.2152 39.4045 37.8575 39.4045 37.4204V18.5545C39.4045 18.1174 39.053 17.7598 38.6234 17.7598Z" fill="#73737F"/>
<path d="M23.5488 26.2538V35.4235C23.5488 35.6421 23.7246 35.8209 23.9394 35.8209H36.4754C36.6902 35.8209 36.8659 35.6421 36.8659 35.4235V26.2538C36.8659 26.0353 36.6902 25.8564 36.4754 25.8564H23.9394C23.7246 25.8564 23.5488 26.0353 23.5488 26.2538Z" fill="#596C76"/>
<path d="M23.5488 22.8461V20.5512C23.5488 20.3326 23.7246 20.1538 23.9394 20.1538H36.4754C36.6902 20.1538 36.8659 20.3326 36.8659 20.5512V22.8461C36.8659 23.0647 36.6902 23.2435 36.4754 23.2435H23.9394C23.7246 23.2435 23.5488 23.0647 23.5488 22.8461Z" fill="#E5EEF9"/>
<path d="M13.5705 27.4062V28.3004C13.5705 35.5527 12.4575 38.4635 11.9303 38.4635C11.403 38.4635 10.29 35.5626 10.29 28.3004V27.4062H13.5607H13.5705Z" fill="#596C76"/>
<path d="M11.9598 27.4062V28.3004C11.9598 32.6418 11.5595 35.4136 11.1299 36.9534C11.4228 37.9866 11.7254 38.4635 11.9402 38.4635C12.4577 38.4635 13.5805 35.5626 13.5805 28.3004V27.4062H11.9695H11.9598Z" fill="#465A61"/>
<path d="M13.1996 34.6782H10.6807C11.0517 37.3208 11.6179 38.4633 11.9401 38.4633C12.2623 38.4633 12.8286 37.3208 13.1996 34.6782Z" fill="#FECE85"/>
<path d="M11.1299 36.9533C11.4228 37.9865 11.7254 38.4633 11.9305 38.4633C12.2527 38.4633 12.8189 37.3208 13.1899 34.6782H11.579C11.4423 35.622 11.2861 36.377 11.1299 36.9533Z" fill="#FDB441"/>
<path d="M13.6095 29.7213C13.7462 29.7213 13.8536 29.612 13.8536 29.4729V29.1649C13.8536 25.1414 13.5118 22.6677 13.2287 21.3066C12.9846 20.1244 12.555 18.7236 11.94 18.7236C11.3249 18.7236 10.9051 20.1244 10.6512 21.3066C10.3681 22.6677 10.0264 25.1414 10.0264 29.1649V29.4729C10.0264 29.612 10.1338 29.7213 10.2704 29.7213H13.6095Z" fill="#596C76"/>
<path d="M13.2192 21.3066C12.9751 20.1244 12.5456 18.7236 11.9305 18.7236C11.6278 18.7236 11.374 19.0713 11.1592 19.5581C11.3642 20.0549 11.5204 20.7106 11.6473 21.3066C11.9207 22.6677 12.2429 25.1414 12.2429 29.1649V29.4729C12.2429 29.612 12.1355 29.7213 12.0086 29.7213H13.6C13.7367 29.7213 13.8441 29.612 13.8441 29.4729V29.1649C13.8441 25.1414 13.5024 22.6677 13.2192 21.3066Z" fill="#465A61"/>
<path d="M13.834 27.7539H10.0361C10.0361 28.201 10.0264 29.4627 10.0264 29.4627C10.0264 29.6017 10.1338 29.711 10.2704 29.711H13.6095C13.7462 29.711 13.8536 29.6017 13.8536 29.4627C13.8536 29.4627 13.8536 28.191 13.834 27.7539Z" fill="#FECE85"/>
<path d="M13.854 29.4729C13.854 29.4729 13.854 28.2013 13.8443 27.7642H12.2333C12.2333 28.2112 12.2431 29.4729 12.2431 29.4729C12.2431 29.612 12.1357 29.7213 12.0088 29.7213H13.6002C13.7369 29.7213 13.8443 29.612 13.8443 29.4729H13.854Z" fill="#FDB441"/>
<path d="M20.7171 35.1055H14.1562" stroke="black" stroke-width="1.21" stroke-linecap="round" stroke-linejoin="round"/>
<path d="M13.6494 1.59619H25.7558C26.1757 1.59619 26.5174 1.9439 26.5174 2.37109V17.5413" stroke="black" stroke-width="1.21" stroke-linecap="round" stroke-linejoin="round"/>
<path d="M10.9051 1.59619H6.17969V35.1057H10.9149" stroke="black" stroke-width="1.21" stroke-linecap="round" stroke-linejoin="round"/>
<path d="M6.17975 35.1057H3.21173C2.79191 35.1057 2.4502 34.758 2.4502 34.3308V2.37109C2.4502 1.9439 2.79191 1.59619 3.21173 1.59619H6.17975" stroke="black" stroke-width="1.21" stroke-linecap="round" stroke-linejoin="round"/>
<path d="M13.6885 15.1372H18.7458" stroke="black" stroke-width="1.21" stroke-linecap="round" stroke-linejoin="round"/>
<path d="M3.56373 5.97705H0.585938" stroke="black" stroke-width="1.21" stroke-linecap="round" stroke-linejoin="round"/>
<path d="M3.56373 12.1665H0.585938" stroke="black" stroke-width="1.21" stroke-linecap="round" stroke-linejoin="round"/>
<path d="M3.56373 18.3457H0.585938" stroke="black" stroke-width="1.21" stroke-linecap="round" stroke-linejoin="round"/>
<path d="M3.56373 24.5352H0.585938" stroke="black" stroke-width="1.21" stroke-linecap="round" stroke-linejoin="round"/>
<path d="M3.56373 30.7246H0.585938" stroke="black" stroke-width="1.21" stroke-linecap="round" stroke-linejoin="round"/>
<path d="M32.1018 17.7598H21.782C21.3525 17.7598 21.001 18.1174 21.001 18.5545V37.4204C21.001 37.8575 21.3525 38.2152 21.782 38.2152H38.6236C39.0532 38.2152 39.4047 37.8575 39.4047 37.4204V18.5545C39.4047 18.1174 39.0532 17.7598 38.6236 17.7598H34.8453" stroke="black" stroke-width="1.21" stroke-linecap="round" stroke-linejoin="round"/>
<path d="M23.5488 26.2538V35.4235C23.5488 35.6421 23.7246 35.8209 23.9394 35.8209H36.4754C36.6902 35.8209 36.8659 35.6421 36.8659 35.4235V26.2538C36.8659 26.0353 36.6902 25.8564 36.4754 25.8564H23.9394C23.7246 25.8564 23.5488 26.0353 23.5488 26.2538Z" stroke="black" stroke-width="1.21" stroke-linecap="round" stroke-linejoin="round"/>
<path d="M23.5488 22.8461V20.5512C23.5488 20.3326 23.7246 20.1538 23.9394 20.1538H36.4754C36.6902 20.1538 36.8659 20.3326 36.8659 20.5512V22.8461C36.8659 23.0647 36.6902 23.2435 36.4754 23.2435H23.9394C23.7246 23.2435 23.5488 23.0647 23.5488 22.8461Z" stroke="black" stroke-width="1.21" stroke-linecap="round" stroke-linejoin="round"/>
<path d="M27.9814 25.8564V35.8308" stroke="black" stroke-width="1.21" stroke-linecap="round" stroke-linejoin="round"/>
<path d="M32.4238 25.8564V35.8308" stroke="black" stroke-width="1.21" stroke-linecap="round" stroke-linejoin="round"/>
<path d="M36.8659 29.2144H23.5488" stroke="black" stroke-width="1.21" stroke-linecap="round" stroke-linejoin="round"/>
<path d="M36.8659 32.4731H23.5488" stroke="black" stroke-width="1.21" stroke-linecap="round" stroke-linejoin="round"/>
<path d="M13.1514 20.9883H14.323C14.7525 20.9883 15.1333 21.3062 15.2016 21.7433C15.4457 23.1441 15.68 25.2701 15.7191 28.33" stroke="black" stroke-width="1.08" stroke-linecap="round" stroke-linejoin="round"/>
<path d="M10.3193 29.7212C10.456 35.9403 11.4519 38.4637 11.94 38.4637C12.4282 38.4637 13.424 35.9403 13.5607 29.7212" stroke="black" stroke-width="1.08" stroke-linecap="round" stroke-linejoin="round"/>
<path d="M13.1996 34.6782H10.6807" stroke="black" stroke-width="1.08" stroke-linecap="round" stroke-linejoin="round"/>
<path d="M13.6095 29.7213C13.7462 29.7213 13.8536 29.612 13.8536 29.4729V29.1649C13.8536 25.1414 13.5118 22.6677 13.2287 21.3066C12.9846 20.1244 12.555 18.7236 11.94 18.7236C11.3249 18.7236 10.9051 20.1244 10.6512 21.3066C10.3681 22.6677 10.0264 25.1414 10.0264 29.1649V29.4729C10.0264 29.612 10.1338 29.7213 10.2704 29.7213H13.6095Z" stroke="black" stroke-width="1.08" stroke-linecap="round" stroke-linejoin="round"/>
<path d="M13.834 27.7539H10.0361" stroke="black" stroke-width="1.08" stroke-linecap="round" stroke-linejoin="round"/>
<path d="M14.5281 10.1596H15.602V9.45427H14.5281C14.0789 9.45427 13.8446 9.30525 13.8446 8.99728C13.8446 8.6893 14.0692 8.55022 14.5281 8.55022H15.1334L13.6982 6.26525C13.581 6.08643 13.5127 5.95727 13.4736 5.8778C13.4346 5.79832 13.4248 5.71884 13.4248 5.6195C13.4248 5.45061 13.4736 5.31152 13.5713 5.21218C13.6689 5.11283 13.8056 5.06316 13.9618 5.06316C14.118 5.06316 14.2547 5.11283 14.3621 5.21218C14.4597 5.31152 14.5769 5.48041 14.7136 5.69897L16.2659 8.16277L17.6523 5.83806C17.7011 5.74865 17.7597 5.6493 17.8183 5.54995C17.8768 5.45061 17.9354 5.37113 17.9842 5.29165C18.0428 5.22211 18.1112 5.1625 18.1893 5.12277C18.2674 5.07309 18.365 5.05322 18.4822 5.05322C18.6384 5.05322 18.7751 5.1029 18.8727 5.20224C18.9703 5.30159 19.0191 5.4208 19.0191 5.56982C19.0191 5.6791 18.9996 5.78839 18.9606 5.8778C18.9215 5.97714 18.8532 6.08643 18.7751 6.23544L17.3984 8.55022H18.0038C18.4529 8.55022 18.6774 8.69924 18.6774 8.99728C18.6774 9.29531 18.4529 9.45427 18.0038 9.45427H16.92V10.1596H18.0038C18.4529 10.1596 18.6774 10.3086 18.6774 10.6166C18.6774 10.9246 18.4529 11.0637 18.0038 11.0637H16.92V11.4511C16.92 12.1068 16.7053 12.4446 16.2757 12.4446C15.8461 12.4446 15.6215 12.1168 15.6215 11.4511V11.0637H14.5476C14.0985 11.0637 13.8642 10.9147 13.8642 10.6166C13.8642 10.3186 14.0887 10.1596 14.5476 10.1596H14.5281Z" fill="black"/>
</g>
</svg>
