<svg width="40" height="40" viewBox="0 0 40 40" fill="none" xmlns="http://www.w3.org/2000/svg">
<path d="M30.9647 10.5859C30.806 10.6704 30.6262 10.7442 30.457 10.8075L31.7367 21.434V21.4129C32.2021 21.3918 32.6886 21.3813 33.1962 21.3918C34.275 21.4129 35.2902 20.7481 35.6816 19.7351C36.8661 16.6537 34.6874 13.1819 30.9753 10.5859H30.9647Z" fill="#FFD55D"/>
<path d="M26.598 8.30698C14.7424 2.71409 3.51074 11.3672 3.51074 22.152V22.5952C3.51074 29.37 7.84688 35.1423 13.9069 37.2845C16.1913 38.097 18.8247 37.7594 20.6544 36.1659C23.5204 33.6755 22.8542 30.7946 22.8542 29.5705C22.8542 26.3942 24.6732 23.6399 27.3278 22.2892L28.6286 10.7974L26.6192 8.30698H26.598Z" fill="#FFD55D"/>
<path d="M31.758 23.6293C31.758 31.4172 30.7638 38.1709 29.5264 38.1709C28.2891 38.1709 27.2949 31.4172 27.2949 23.6293C27.2949 21.8354 27.3478 19.957 27.4641 18.1631C28.141 18.3003 28.8284 18.3741 29.5476 18.3741C30.2668 18.3741 30.9225 18.3108 31.5782 18.1736C31.6945 19.9254 31.7474 21.7932 31.7474 23.6293H31.758Z" fill="#FF637B"/>
<path d="M32.5296 7.97942C32.5296 9.61508 31.1971 10.9447 29.5578 10.9447C27.9185 10.9447 26.5859 9.61508 26.5859 7.97942C26.5859 6.34376 29.5578 1.66895 29.5578 1.66895C29.5578 1.66895 32.5296 6.34376 32.5296 7.97942Z" fill="#7C8388"/>
<path d="M30.458 10.8084L28.6072 10.7979C28.0996 12.2647 27.6871 14.9028 27.4756 18.1636C28.1524 18.3008 28.8399 18.3746 29.559 18.3746C30.2782 18.3746 30.9339 18.3113 31.5896 18.1741C31.3781 14.9134 30.9656 12.2858 30.458 10.819V10.8084Z" fill="#F2F2FC"/>
<path d="M22.092 12.4961C22.092 13.7308 21.0978 14.7227 19.8604 14.7227C18.623 14.7227 17.6289 13.7308 17.6289 12.4961C17.6289 11.2615 18.623 10.2695 19.8604 10.2695C21.0978 10.2695 22.092 11.2615 22.092 12.4961Z" fill="#FF637B"/>
<path d="M18.3791 31.0479C18.3791 32.2826 17.3849 33.2745 16.1475 33.2745C14.9102 33.2745 13.916 32.2826 13.916 31.0479C13.916 29.8132 14.9102 28.8213 16.1475 28.8213C17.3849 28.8213 18.3791 29.8132 18.3791 31.0479Z" fill="#C3EA21"/>
<path d="M13.9172 16.211C13.9172 17.4456 12.923 18.4376 11.6856 18.4376C10.4482 18.4376 9.4541 17.4456 9.4541 16.211C9.4541 14.9763 10.4482 13.9844 11.6856 13.9844C12.923 13.9844 13.9172 14.9763 13.9172 16.211Z" fill="#6AA9FF"/>
<path d="M11.6847 25.1065C11.6847 26.3411 10.6906 27.3331 9.45321 27.3331C8.21582 27.3331 7.22168 26.3411 7.22168 25.1065C7.22168 23.8718 8.21582 22.8799 9.45321 22.8799C10.6906 22.8799 11.6847 23.8718 11.6847 25.1065Z" fill="#FFDA2D"/>
<path d="M11.6847 13.2344C10.0455 13.2344 8.71289 14.564 8.71289 16.1997C8.71289 17.8353 10.0455 19.165 11.6847 19.165C13.324 19.165 14.6566 17.8353 14.6566 16.1997C14.6566 14.564 13.324 13.2344 11.6847 13.2344ZM11.6847 17.6876C10.8598 17.6876 10.1935 17.0228 10.1935 16.1997C10.1935 15.3766 10.8598 14.7117 11.6847 14.7117C12.5097 14.7117 13.1759 15.3766 13.1759 16.1997C13.1759 17.0228 12.5097 17.6876 11.6847 17.6876Z" fill="black"/>
<path d="M22.8314 12.4965C22.8314 10.8609 21.4988 9.53125 19.8595 9.53125C18.2203 9.53125 16.8877 10.8609 16.8877 12.4965C16.8877 14.1322 18.2203 15.4618 19.8595 15.4618C21.4988 15.4618 22.8314 14.1322 22.8314 12.4965ZM18.3683 12.4965C18.3683 11.6734 19.0346 11.0086 19.8595 11.0086C20.6845 11.0086 21.3507 11.6734 21.3507 12.4965C21.3507 13.3196 20.6845 13.9845 19.8595 13.9845C19.0346 13.9845 18.3683 13.3196 18.3683 12.4965Z" fill="black"/>
<path d="M6.48145 25.1069C6.48145 26.7425 7.81402 28.0722 9.45329 28.0722C11.0926 28.0722 12.4251 26.7425 12.4251 25.1069C12.4251 23.4712 11.0926 22.1416 9.45329 22.1416C7.81402 22.1416 6.48145 23.4712 6.48145 25.1069ZM9.45329 23.619C10.2782 23.619 10.9445 24.2838 10.9445 25.1069C10.9445 25.93 10.2782 26.5948 9.45329 26.5948C8.62837 26.5948 7.96208 25.93 7.96208 25.1069C7.96208 24.2838 8.62837 23.619 9.45329 23.619Z" fill="black"/>
<path d="M13.165 31.0483C13.165 32.6839 14.4976 34.0136 16.1369 34.0136C17.7762 34.0136 19.1087 32.6839 19.1087 31.0483C19.1087 29.4126 17.7762 28.083 16.1369 28.083C14.4976 28.083 13.165 29.4126 13.165 31.0483ZM17.6281 31.0483C17.6281 31.8714 16.9618 32.5362 16.1369 32.5362C15.312 32.5362 14.6457 31.8714 14.6457 31.0483C14.6457 30.2252 15.312 29.5604 16.1369 29.5604C16.9618 29.5604 17.6281 30.2252 17.6281 31.0483Z" fill="black"/>
<path d="M33.2707 7.97963C33.2707 6.21734 30.7007 2.08071 30.1825 1.26816C30.045 1.05711 29.8124 0.919922 29.5585 0.919922C29.3047 0.919922 29.072 1.04656 28.9346 1.26816C28.4798 1.97519 26.4598 5.22539 25.9627 7.20929C21.2881 5.28871 16.4126 5.34148 12.1399 7.37813C7.88841 9.40424 4.45123 13.3404 3.24557 18.2895C3.15038 18.6905 3.39363 19.0915 3.79552 19.1865C3.85897 19.1971 3.91185 19.2076 3.97531 19.2076C4.31374 19.2076 4.60986 18.9755 4.69447 18.6378C5.75207 14.3323 8.77679 10.6178 12.7851 8.70776C16.8462 6.77663 21.4997 6.81884 25.9521 8.80273C26.1848 9.80523 26.8299 10.6706 27.7289 11.1876C27.2953 12.7811 26.9463 15.1871 26.7559 18.0996C26.6819 19.2815 26.629 20.5373 26.5973 21.8352C23.7735 23.4498 21.9121 26.5311 22.1448 30.2035C22.2294 31.5964 22.3669 33.6858 20.1777 35.5959C18.6124 36.9571 16.3069 37.3265 14.1705 36.5773C8.85082 34.6989 5.00117 29.8658 4.36662 24.2834C4.32431 23.8719 3.95416 23.587 3.54169 23.6292C3.12923 23.6714 2.84368 24.0407 2.88599 24.4523C3.60515 30.7205 7.87783 35.923 13.6629 37.9807C16.3069 38.9199 19.1835 38.4345 21.1507 36.725C23.8898 34.3401 23.7206 31.5964 23.6254 30.119C23.4562 27.3859 24.6513 25.0643 26.5761 23.6292C26.5761 27.1432 26.8511 34.0341 27.9827 37.2421C28.1414 37.6958 28.575 38.9199 29.548 38.9199C30.5209 38.9199 30.9546 37.7064 31.1132 37.2421C32.2448 34.0552 32.5198 27.2171 32.5198 23.6292C32.5198 23.1227 32.5198 22.6161 32.5092 22.1307C32.7419 22.1307 32.9746 22.1307 33.2072 22.1307C34.6138 22.1518 35.8935 21.297 36.3906 19.9991C37.7549 16.4428 35.2167 12.9077 32.2237 10.5756C32.9005 9.88966 33.2918 8.96103 33.2918 7.97963H33.2707ZM29.548 3.08321C30.6161 4.89826 31.7795 7.15653 31.7795 7.97963C31.7795 9.26705 30.7113 10.2379 29.5057 10.2062C28.3106 10.1746 27.3164 9.20374 27.3164 7.97963C27.3164 7.16708 28.4692 4.89826 29.548 3.08321ZM29.548 11.6836C29.6749 11.6836 29.8124 11.6836 29.9393 11.6625C30.2988 13.0238 30.6055 15.0921 30.7959 17.5403C29.9604 17.6458 29.1038 17.6458 28.2577 17.5403C28.4481 15.0921 28.7442 13.0238 29.1143 11.6625C29.2624 11.6836 29.3999 11.6836 29.548 11.6836ZM29.5268 37.1471C28.3211 34.5828 28.0356 26.8583 28.0356 23.6186C28.0356 23.2071 28.0356 22.289 28.0356 22.289C28.0567 21.1599 28.0885 20.0624 28.1519 19.0177C28.6067 19.0704 29.072 19.1021 29.5374 19.1021C30.0027 19.1021 30.4363 19.0704 30.8805 19.0177C30.9228 19.8091 30.9546 20.6217 30.9757 21.4448C30.9969 22.1413 31.0074 22.8694 31.0074 23.6186C31.0074 26.9638 30.7007 34.6145 29.5162 37.1471H29.5268ZM34.984 19.4609C34.709 20.1785 33.9899 20.6533 33.2072 20.6428C32.9534 20.6428 32.6996 20.6428 32.4458 20.6428C32.414 19.7775 32.3717 18.9333 32.3189 18.1207C32.3189 18.1207 32.3189 18.1207 32.3189 18.1101C32.1496 15.6303 31.8852 13.5092 31.5362 11.9474C34.5504 14.3745 35.8618 17.1921 34.984 19.4714V19.4609Z" fill="black"/>
<path d="M4.25016 21.4028C4.25016 21.8143 3.92231 22.1414 3.50985 22.1414C3.09739 22.1414 2.76953 21.8143 2.76953 21.4028C2.76953 20.9912 3.10796 20.6641 3.50985 20.6641C3.91173 20.6641 4.25016 20.9912 4.25016 21.4028Z" fill="black"/>
</svg>
