<svg width="40" height="40" viewBox="0 0 40 40" fill="none" xmlns="http://www.w3.org/2000/svg">
<path d="M16.7964 11.0251L18.3395 15.0817L18.2277 15.1262H15.1304L15.0186 15.0817L16.5728 11.0251C16.5952 10.9584 16.6734 10.9251 16.7293 10.9473C16.7629 10.9584 16.7853 10.9918 16.8076 11.0251H16.7964Z" fill="#D3D3D3"/>
<path d="M22.6448 10.9463C23.3492 10.9463 23.9307 11.5131 23.9307 12.2244C23.9307 12.9246 23.3604 13.5025 22.6448 13.5025H21.0234V10.9574H22.6448V10.9463Z" fill="#D3D3D3"/>
<path d="M22.9351 13.4912C23.7625 13.4912 24.4334 14.1581 24.4334 14.9805C24.4334 15.8029 23.7625 16.4698 22.9351 16.4698C22.5213 16.4698 21.0342 16.4698 21.0342 16.4698V13.4912C21.0342 13.4912 21.6939 13.4912 22.1859 13.4912H22.9351Z" fill="#D3D3D3"/>
<path d="M34.2064 36.0771V39.2113H8.94716C7.20283 39.2113 5.79395 37.811 5.79395 36.0771H34.2176H34.2064Z" fill="#D3D3D3"/>
<path d="M34.2069 32.9424V36.0766H5.7832C5.7832 34.3428 7.19209 32.9424 8.93642 32.9424H34.1957H34.2069Z" fill="#A3A3A3"/>
<path d="M11.3184 23.5283H34.2071V32.942H11.3184V23.5283Z" fill="#2A81C1"/>
<path d="M18.34 15.0808L16.7969 11.0242C16.7745 10.9575 16.6963 10.9241 16.6404 10.9464C16.6068 10.9575 16.5845 10.9908 16.5621 11.0242L15.0079 15.0808L15.1197 15.1253H18.217L18.3288 15.0808H18.34ZM34.2179 3.91113V23.5276H11.3291V3.91113H34.2179ZM24.434 14.9919C24.434 14.1694 23.7631 13.5026 22.9356 13.5026H22.1864H22.6561C23.3605 13.5026 23.942 12.9358 23.942 12.2245C23.942 11.5243 23.3717 10.9464 22.6561 10.9464H21.0347V16.4812C21.0347 16.4812 22.5219 16.4812 22.9356 16.4812C23.7631 16.4812 24.434 15.8143 24.434 14.9919Z" fill="#D3D3D3"/>
<path d="M11.3184 0.767578H34.2071V3.90177H11.3184V0.767578Z" fill="#2A81C1"/>
<path d="M11.3177 23.5293V32.943H8.94716C7.20283 32.943 5.79395 34.3434 5.79395 36.0772V3.51277C5.79395 2.00125 7.03511 0.767578 8.5558 0.767578H11.3177V23.5182V23.5293Z" fill="#3072A2"/>
<path d="M34.2065 33.7197C33.7705 33.7197 33.4238 33.3751 33.4238 32.9417V23.528C33.4238 23.0946 33.7705 22.75 34.2065 22.75C34.6426 22.75 34.9893 23.0946 34.9893 23.528V32.9417C34.9893 33.3751 34.6426 33.7197 34.2065 33.7197Z" fill="black"/>
<path d="M5.79443 36.8656C5.35835 36.8656 5.01172 36.5211 5.01172 36.0876V3.52319C5.01172 1.57822 6.59951 0 8.55629 0H34.2181C34.6542 0 35.0008 0.344552 35.0008 0.778003V3.9122C35.0008 4.34565 34.6542 4.69016 34.2181 4.69016C33.782 4.69016 33.4354 4.34565 33.4354 3.9122V1.55597H8.56747C7.47167 1.55597 6.58833 2.43401 6.58833 3.52319V36.0876C6.58833 36.5211 6.24169 36.8656 5.80561 36.8656H5.79443Z" fill="black"/>
<path d="M34.2063 39.9999H8.94707C6.76666 39.9666 5.03351 38.1883 5.05588 36.0211C5.08942 33.8983 6.81139 32.1867 8.94707 32.1533H34.2063C34.6424 32.1533 34.9891 32.4979 34.9891 32.9313V39.2108C34.9891 39.6443 34.6424 39.9888 34.2063 39.9888V39.9999ZM8.94707 33.7205C7.63883 33.7427 6.59894 34.8207 6.62131 36.1211C6.64367 37.3881 7.67237 38.4106 8.94707 38.4328H33.4236V33.7205H8.94707Z" fill="black"/>
<path d="M11.3179 33.7197C10.8818 33.7197 10.5352 33.3751 10.5352 32.9417V23.528C10.5352 23.0946 10.8818 22.75 11.3179 22.75C11.7539 22.75 12.1006 23.0946 12.1006 23.528V32.9417C12.1006 33.3751 11.7539 33.7197 11.3179 33.7197Z" fill="black"/>
<path d="M11.3179 4.69017C10.8818 4.69017 10.5352 4.34565 10.5352 3.9122V0.778003C10.5352 0.344552 10.8818 0 11.3179 0C11.7539 0 12.1006 0.344552 12.1006 0.778003V3.9122C12.1006 4.34565 11.7539 4.69017 11.3179 4.69017Z" fill="black"/>
<path d="M34.2064 36.8665H5.78272C5.34664 36.8665 5 36.522 5 36.0885C5 35.6551 5.34664 35.3105 5.78272 35.3105H34.2064C34.6424 35.3105 34.9891 35.6551 34.9891 36.0885C34.9891 36.522 34.6424 36.8665 34.2064 36.8665Z" fill="black"/>
<path d="M30.2597 30.5873H15.2651C14.829 30.5873 14.4824 30.2427 14.4824 29.8093C14.4824 29.3758 14.829 29.0312 15.2651 29.0312H30.2597C30.6957 29.0312 31.0424 29.3758 31.0424 29.8093C31.0424 30.2427 30.6957 30.5873 30.2597 30.5873Z" fill="black"/>
<path d="M34.2066 24.3062H11.3179C10.8818 24.3062 10.5352 23.9617 10.5352 23.5282V3.91179C10.5352 3.47834 10.8818 3.13379 11.3179 3.13379H34.2066C34.6427 3.13379 34.9893 3.47834 34.9893 3.91179V23.5282C34.9893 23.9617 34.6427 24.3062 34.2066 24.3062ZM12.1006 22.7391H33.4239V4.68976H12.1006V22.7391Z" fill="black"/>
<path d="M27.8892 27.4427H17.6245C17.1884 27.4427 16.8418 27.0981 16.8418 26.6647C16.8418 26.2312 17.1884 25.8867 17.6245 25.8867H27.8892C28.3253 25.8867 28.6719 26.2312 28.6719 26.6647C28.6719 27.0981 28.3253 27.4427 27.8892 27.4427Z" fill="black"/>
<path d="M18.8647 17.2598C18.5404 17.2598 18.2497 17.0597 18.1267 16.7597L16.6731 12.9253L15.2083 16.7597C15.0518 17.1598 14.6045 17.3709 14.1908 17.2153C13.7882 17.0597 13.5758 16.6152 13.7323 16.2039L15.8233 10.7469C15.8233 10.7469 15.8233 10.7469 15.8233 10.7358C15.9575 10.3912 16.2929 10.1689 16.6619 10.1689C17.0309 10.1689 17.3663 10.3912 17.5005 10.7247V10.7469L19.5803 16.2039C19.7368 16.6041 19.5244 17.0597 19.1219 17.2153C19.0324 17.2486 18.943 17.2598 18.8423 17.2598H18.8647Z" fill="black"/>
<path d="M18.2277 15.9036H15.1304C14.6943 15.9036 14.3477 15.5591 14.3477 15.1257C14.3477 14.6922 14.6943 14.3477 15.1304 14.3477H18.2277C18.6638 14.3477 19.0104 14.6922 19.0104 15.1257C19.0104 15.5591 18.6638 15.9036 18.2277 15.9036Z" fill="black"/>
<path d="M21.0337 14.2828C20.5976 14.2828 20.251 13.9382 20.251 13.5048V10.9596C20.251 10.5262 20.5976 10.1816 21.0337 10.1816H22.655C23.7956 10.1816 24.7236 11.1041 24.7236 12.2378C24.7236 13.3714 23.7956 14.2939 22.655 14.2939H22.1966C21.6934 14.2939 21.0449 14.2939 21.0449 14.2939L21.0337 14.2828ZM21.8164 11.7265V12.7157H22.6438C22.9122 12.7157 23.1358 12.4934 23.1358 12.2266C23.1358 11.9599 22.9122 11.7376 22.6438 11.7376H21.8164V11.7265Z" fill="black"/>
<path d="M21.0337 17.2595C20.5976 17.2595 20.251 16.915 20.251 16.4816V13.503C20.251 13.0695 20.5976 12.725 21.0337 12.7139H22.9346C24.1981 12.7139 25.2156 13.7253 25.2156 14.9812C25.2156 16.2371 24.1981 17.2485 22.9346 17.2485C22.5209 17.2485 21.0337 17.2485 21.0337 17.2485V17.2595ZM21.8164 14.2698V15.6814H22.9346C23.3259 15.6925 23.6614 15.3924 23.6725 14.9923C23.6837 14.6033 23.3818 14.2699 22.9793 14.2587C22.9681 14.2587 22.9458 14.2587 22.9346 14.2587H21.8164V14.2698Z" fill="black"/>
<path d="M29.2978 17.2601C27.3299 17.2601 25.7309 15.6708 25.7197 13.7147C25.7197 11.7586 27.3187 10.1693 29.2867 10.1582C30.0023 10.1582 30.6956 10.3694 31.2882 10.7695C31.6572 11.0029 31.7578 11.4808 31.5342 11.8475C31.2993 12.2143 30.8186 12.3143 30.4496 12.0921C30.4384 12.0921 30.4272 12.0809 30.416 12.0698C29.4991 11.4586 28.258 11.6919 27.643 12.6033C27.028 13.5147 27.2628 14.7483 28.1797 15.3596C28.5151 15.5819 28.9065 15.7041 29.2978 15.7041C29.6668 15.7153 30.0247 15.593 30.3042 15.3485C30.3601 15.304 30.4048 15.2485 30.4496 15.204C30.7291 14.8706 31.2211 14.8261 31.5565 15.104C31.892 15.3818 31.9367 15.8709 31.6572 16.2043C31.5677 16.3154 31.4559 16.4155 31.3553 16.5155C30.785 17.0045 30.0582 17.2712 29.309 17.2601H29.2978Z" fill="black"/>
</svg>
