<svg width="40" height="40" viewBox="0 0 40 40" fill="none" xmlns="http://www.w3.org/2000/svg">
<path d="M3.3457 22.0879H10.0072V32.1531H3.3457V22.0879Z" fill="#FFA912"/>
<path d="M7.5242 22.0879H10.0183L10.0078 32.1531H7.51367L7.5242 22.0879Z" fill="#F7A116"/>
<path d="M8.34568 22.0874L11.7974 14.5862C12.7866 12.4355 12.7446 9.94565 11.6922 7.82666H1.6737C0.621337 9.94565 0.579244 12.4355 1.56847 14.5862L5.02021 22.0874H8.35621H8.34568Z" fill="#FFB531"/>
<path d="M9.68068 14.8299C9.68068 14.8299 9.6912 14.7769 9.70173 14.7452C10.1016 12.4566 10.0911 10.1152 9.67016 7.82666H7.97585L8.01794 7.99618C8.41784 10.1046 8.42837 12.2765 8.07056 14.3955L6.67092 19.1421L5.27128 14.3955C4.91348 12.2977 4.924 10.1576 5.30285 8.07036L5.37652 7.82666H3.66116C3.24022 10.1152 3.24022 12.4566 3.64012 14.7452C3.64012 14.7769 3.65064 14.7982 3.66116 14.8299L5.78694 22.0239L5.75537 22.0874H7.54438L9.6912 14.8299H9.68068Z" fill="#FFA912"/>
<path d="M19.1739 28.8038C16.9955 24.9579 15.8379 20.6033 15.8379 16.1747V13.7061H39.1582V16.1747C39.1582 20.6033 38.0112 24.9579 35.8223 28.8038H19.1634H19.1739Z" fill="#3D4D63"/>
<path d="M35.3068 13.7061C32.6969 21.6417 26.9194 26.2505 22.1943 28.8038H35.833C38.0114 24.9579 39.1689 20.6033 39.1689 16.1747V13.7061H35.3173H35.3068Z" fill="#35455C"/>
<path d="M19.1738 28.8042H35.8327V32.1628H19.1738V28.8042Z" fill="#35455C"/>
<path d="M39.1582 13.7063C39.1582 11.8522 33.9385 10.3477 27.4981 10.3477C21.0576 10.3477 15.8379 11.8522 15.8379 13.7063C15.8379 15.5604 21.0576 17.0648 27.4981 17.0648C33.9385 17.0648 39.1582 15.5604 39.1582 13.7063Z" fill="#2E3E51"/>
<path d="M37.5906 15.38C37.5906 14.4583 33.0759 13.7061 27.4984 13.7061C21.9209 13.7061 17.4062 14.4583 17.4062 15.38C17.4062 16.3018 21.9209 17.054 27.4984 17.054C33.0759 17.054 37.5906 16.3018 37.5906 15.38Z" fill="#7EB457"/>
<path d="M34.7489 14.416C34.0648 15.3378 33.244 16.1324 32.2969 16.7681C34.149 16.588 35.9696 16.1218 37.6744 15.3802C36.7378 14.9458 35.7591 14.6173 34.7489 14.416Z" fill="#69A340"/>
<path d="M33.3289 19.5763V21.2503C33.4973 21.2503 36.8227 21.2185 38.959 19.3644C39.0853 18.3367 39.159 17.309 39.159 16.2812L38.4644 17.4361C37.0648 19.5445 33.3605 19.5763 33.3184 19.5763H33.3289Z" fill="#2A3845"/>
<path d="M38.411 21.8115C37.0956 22.9452 35.4539 23.6233 33.7175 23.761C33.486 23.7822 33.3386 23.7822 33.3281 23.7822V25.4562C33.3281 25.4562 33.5281 25.4562 33.8333 25.435C35.2434 25.329 36.622 24.9158 37.8638 24.2166C38.1374 23.3902 38.3584 22.5532 38.5478 21.7056L38.411 21.8221V21.8115Z" fill="#2A3845"/>
<path d="M11.6809 7H1.66244C1.34673 7 1.06259 7.18012 0.915259 7.46618C-0.263387 9.80766 -0.305474 12.573 0.799506 14.9568L3.70402 21.2608H3.34622C2.88318 21.2608 2.51485 21.6316 2.51485 22.0978V32.163C2.51485 32.6292 2.88318 33 3.34622 33H10.0077C10.4707 33 10.839 32.6292 10.839 32.163V22.0978C10.839 21.6316 10.4707 21.2608 10.0077 21.2608H9.64987L12.5544 14.9568C13.6594 12.573 13.6173 9.81826 12.4386 7.46618C12.3018 7.18012 12.0072 7 11.6915 7H11.6809ZM8.07133 14.4059L6.67168 19.1524L5.27205 14.4059C4.95634 12.5094 4.93529 10.5811 5.21943 8.68459H8.12395C8.40809 10.5811 8.39756 12.52 8.07133 14.4059ZM2.3149 14.2469C1.50458 12.4882 1.46249 10.4646 2.19914 8.67402H3.54616C3.26203 10.6871 3.30413 12.7425 3.65141 14.7449C3.65141 14.7767 3.66193 14.7979 3.67245 14.8297L5.56671 21.2502H5.54565L2.3149 14.2364V14.2469ZM9.17631 31.326H4.17759V22.9348H9.17631V31.326ZM11.039 14.2469L7.80824 21.2608H7.78719L9.68144 14.8403C9.68144 14.8403 9.69197 14.7873 9.70249 14.7555C10.0498 12.7425 10.0813 10.6977 9.80773 8.67402H11.1547C11.8914 10.4646 11.8493 12.4882 11.039 14.2469Z" fill="black"/>
<path d="M19.1734 33.0002H35.8323C36.2954 33.0002 36.6637 32.6294 36.6637 32.1632V29.0165C38.5369 25.6367 39.6524 21.8861 39.9365 18.0296C39.9681 17.4151 39.9997 16.8006 39.9997 16.1755V13.7069C39.9997 10.825 33.5277 9.51123 27.5081 9.51123C21.4886 9.51123 15.0166 10.825 15.0166 13.7069V16.1755C15.0166 20.6677 16.1637 25.0858 18.3526 29.0165V32.1632C18.3526 32.6294 18.7209 33.0002 19.184 33.0002H19.1734ZM35.001 31.3262H20.0048V29.6522H35.001V31.3262ZM27.5081 11.1958C34.6537 11.1958 38.3369 12.9546 38.3369 13.7069C38.3369 13.9082 38.0739 14.173 37.5687 14.4591C35.2956 13.4632 31.6018 12.8698 27.5081 12.8698C23.4145 12.8698 19.7207 13.4632 17.4476 14.4591C16.9424 14.173 16.6793 13.9082 16.6793 13.7069C16.6793 12.9546 20.3626 11.1958 27.5081 11.1958ZM34.9799 15.4232C34.8431 15.455 34.7063 15.4868 34.5695 15.5186C34.4643 15.5398 34.3485 15.5716 34.2327 15.5928C34.0012 15.6457 33.7697 15.6881 33.5277 15.7305H33.4435C32.5805 15.9 31.6334 16.0165 30.6442 16.1013H30.6021C30.2969 16.1225 29.9917 16.1437 29.6865 16.1649H29.3708C29.1288 16.186 28.8973 16.1966 28.6552 16.2072C28.2869 16.2072 27.908 16.2284 27.5081 16.2284C27.1082 16.2284 26.7294 16.2284 26.3611 16.2072C26.119 16.2072 25.877 16.1861 25.6455 16.1755H25.3297C25.0246 16.1437 24.7089 16.1225 24.4142 16.1013H24.3721C23.3829 16.0165 22.4463 15.9 21.5728 15.7517H21.4886C21.2466 15.6881 21.0151 15.6457 20.7836 15.6033C20.6678 15.5821 20.5626 15.5504 20.4468 15.5292C20.31 15.4974 20.1627 15.4656 20.0364 15.4338C19.9943 15.4232 19.9522 15.4126 19.9101 15.402C22.3937 14.8193 24.9509 14.5333 27.5081 14.565C30.0654 14.5333 32.6121 14.8193 35.1062 15.402C35.0641 15.402 35.022 15.4232 34.9799 15.4338V15.4232ZM16.6793 15.953C16.7951 16.0165 16.9109 16.0801 17.0371 16.1331C17.0371 16.1331 17.0371 16.1331 17.0477 16.1331L17.0898 16.1543C18.4789 16.7794 19.9522 17.2138 21.4571 17.4257H21.5307C21.9517 17.5104 22.3831 17.574 22.8251 17.627H22.8988C23.3408 17.6905 23.8038 17.7329 24.2564 17.7753C24.3721 17.7753 24.4879 17.7859 24.6142 17.7965C24.9614 17.8177 25.3087 17.8389 25.656 17.8601C25.8033 17.8601 25.9401 17.8707 26.0875 17.8813C26.561 17.9025 27.0241 17.913 27.4976 17.913C27.9712 17.913 28.4342 17.9025 28.9078 17.8813C29.0551 17.8813 29.2025 17.8706 29.3393 17.8601C29.6865 17.8495 30.0338 17.8283 30.3811 17.7965C30.4969 17.7965 30.6231 17.7859 30.7389 17.7753C31.2019 17.7329 31.6545 17.6905 32.0964 17.6376H32.1701C32.6121 17.574 33.0436 17.5104 33.4645 17.4363H33.5382C35.0431 17.2032 36.5164 16.7794 37.9055 16.1543L37.9476 16.1331C37.9476 16.1331 37.9476 16.1331 37.9581 16.1331C38.0739 16.0695 38.2107 16.0165 38.3159 15.953V16.1861C38.3159 16.6946 38.2949 17.1926 38.2633 17.6905C36.7479 19.5552 33.3488 19.587 33.3172 19.587V21.261C34.9484 21.2292 36.5585 20.816 38.0002 20.0532C37.8634 20.9114 37.674 21.7696 37.453 22.6172C36.1901 23.3482 34.7695 23.7508 33.3172 23.7826V25.4566C34.4853 25.4249 35.6429 25.213 36.7479 24.8315C36.348 25.9122 35.8744 26.9611 35.3272 27.9782H19.647C17.6896 24.3654 16.6583 20.3075 16.6583 16.1861V15.953H16.6793Z" fill="black"/>
</svg>
