<svg width="40" height="40" viewBox="0 0 40 40" fill="none" xmlns="http://www.w3.org/2000/svg">
<g clip-path="url(#clip0_225_10302)">
<mask id="mask0_225_10302" style="mask-type:luminance" maskUnits="userSpaceOnUse" x="0" y="0" width="40" height="40">
<path d="M40 0H0V40H40V0Z" fill="white"/>
</mask>
<g mask="url(#mask0_225_10302)">
<path d="M5.91047 18.2194C5.91047 19.47 4.82047 20.4905 4.82047 20.4905C4.82047 20.4905 3.73047 19.48 3.73047 18.2194C3.73047 16.9587 4.82047 15.9482 4.82047 15.9482C4.82047 15.9482 5.91047 16.9587 5.91047 18.2194Z" fill="#C8EA73"/>
<path d="M5.82055 25.8433C4.67055 26.3335 3.31055 25.7332 3.31055 25.7332C3.31055 25.7332 3.81055 24.3225 4.96055 23.8323C6.11055 23.342 7.47055 23.9423 7.47055 23.9423C7.47055 23.9423 6.97055 25.353 5.82055 25.8433Z" fill="#C8EA73"/>
<path d="M36.0704 12.2062C36.5304 13.3668 35.8904 14.7175 35.8904 14.7175C35.8904 14.7175 34.5004 14.1772 34.0404 13.0166C33.5804 11.856 34.2204 10.5054 34.2204 10.5054C34.2204 10.5054 35.6104 11.0456 36.0704 12.2062Z" fill="#C8EA73"/>
<path d="M30.5105 19.4998C29.8405 20.5503 28.3705 20.8204 28.3705 20.8204C28.3705 20.8204 27.9905 19.3797 28.6705 18.3192C29.3405 17.2687 30.8105 16.9985 30.8105 16.9985C30.8105 16.9985 31.1905 18.4393 30.5105 19.4998Z" fill="#C8EA73"/>
<path d="M28.6707 12.2561C28.0007 13.3067 26.5307 13.5768 26.5307 13.5768C26.5307 13.5768 26.1507 12.1361 26.8307 11.0755C27.5007 10.025 28.9707 9.75488 28.9707 9.75488C28.9707 9.75488 29.3507 11.1956 28.6707 12.2561Z" fill="#C8EA73"/>
<path d="M18.3104 4.30244C19.0704 5.29294 18.8304 6.76367 18.8304 6.76367C18.8304 6.76367 17.3404 6.6236 16.5804 5.63311C15.8204 4.64261 16.0604 3.17188 16.0604 3.17188C16.0604 3.17188 17.5504 3.31195 18.3104 4.30244Z" fill="#C8EA73"/>
<path d="M9.75047 7.86391C8.62047 8.39418 7.23047 7.8339 7.23047 7.8339C7.23047 7.8339 7.69047 6.41319 8.82047 5.88292C9.95047 5.35266 11.3405 5.91294 11.3405 5.91294C11.3405 5.91294 10.8805 7.33365 9.75047 7.86391Z" fill="#C8EA73"/>
<path d="M2.52033 4.03222C3.32033 3.07174 4.81033 2.9917 4.81033 2.9917C4.81033 2.9917 5.00033 4.47244 4.20033 5.43292C3.40033 6.3934 1.91033 6.47344 1.91033 6.47344C1.91033 6.47344 1.72033 4.9927 2.52033 4.03222Z" fill="#C8EA73"/>
<path d="M27.4301 39.4097H12.5601C11.0501 39.4097 9.83008 38.1891 9.83008 36.6783L20.0801 35.8179L30.1701 36.6783C30.1701 38.1891 28.9501 39.4097 27.4401 39.4097H27.4301Z" fill="#9393B0"/>
<path d="M20.0798 35.8179L18.5098 35.9479L27.0498 36.6783C27.0498 38.1891 25.8298 39.4097 24.3198 39.4097H27.4398C28.9498 39.4097 30.1698 38.1891 30.1698 36.6783L20.0798 35.8179Z" fill="#7A7B97"/>
<path d="M32.2695 28.0044C37.2495 26.7338 32.7295 22.1015 31.3395 27.0539C32.7295 22.1015 26.4595 23.7023 30.0595 27.3841C26.4695 23.7023 24.7195 29.9354 29.6995 28.6647C24.7195 29.9354 29.2395 34.5677 30.6295 29.6152C29.2395 34.5677 35.5095 32.9669 31.9095 29.285C35.4995 32.9669 37.2495 26.7338 32.2695 28.0044Z" fill="#F0718F"/>
<path d="M30.98 29.5652C31.6593 29.5652 32.21 29.0143 32.21 28.3346C32.21 27.655 31.6593 27.104 30.98 27.104C30.3007 27.104 29.75 27.655 29.75 28.3346C29.75 29.0143 30.3007 29.5652 30.98 29.5652Z" fill="#FFD027"/>
<path d="M20.24 25.143C25.23 20.9809 17.57 18.1595 18.67 24.5627C17.57 18.1595 11.29 23.3821 17.38 25.6333C11.28 23.3821 12.67 31.4462 17.66 27.2841C12.67 31.4462 20.33 34.2676 19.23 27.8644C20.33 34.2676 26.61 29.045 20.52 26.7938C26.62 29.045 25.23 20.9809 20.24 25.143Z" fill="white"/>
<path d="M20.24 25.143C25.23 20.9809 17.57 18.1595 18.67 24.5627C17.57 18.1595 11.29 23.3821 17.38 25.6333C11.28 23.3821 12.67 31.4462 17.66 27.2841C12.67 31.4462 20.33 34.2676 19.23 27.8644C20.33 34.2676 26.61 29.045 20.52 26.7938C26.62 29.045 25.23 20.9809 20.24 25.143Z" fill="#F0718F"/>
<path d="M18.9504 27.8041C19.8285 27.8041 20.5404 27.0919 20.5404 26.2134C20.5404 25.3348 19.8285 24.6226 18.9504 24.6226C18.0722 24.6226 17.3604 25.3348 17.3604 26.2134C17.3604 27.0919 18.0722 27.8041 18.9504 27.8041Z" fill="#FFD027"/>
<path d="M38.0498 36.6784H1.95984C1.19984 36.6784 0.589844 36.0681 0.589844 35.3077C0.589844 34.5473 1.19984 33.937 1.95984 33.937H38.0498C38.8098 33.937 39.4198 34.5473 39.4198 35.3077C39.4198 36.0681 38.8098 36.6784 38.0498 36.6784Z" fill="#ADAEC6"/>
<path d="M38.0497 33.9473H34.9297C35.6897 33.9473 36.2997 34.5576 36.2997 35.3179C36.2997 36.0783 35.6897 36.6886 34.9297 36.6886H38.0497C38.8097 36.6886 39.4197 36.0783 39.4197 35.3179C39.4197 34.5576 38.8097 33.9473 38.0497 33.9473Z" fill="#9393B0"/>
<path d="M38.0504 33.3567H24.0704L27.0604 31.4557C27.6604 32.5663 29.0704 32.6863 29.9904 31.906C30.2504 32.6863 30.9404 33.2966 31.7904 33.2966C32.3704 33.2966 32.9404 33.0265 33.2904 32.5363C33.4404 32.3262 33.7404 31.7859 33.6004 30.9855C34.4004 31.1456 34.9404 30.8654 35.1604 30.7154C35.8804 30.2251 36.1604 29.2446 35.8004 28.4442C35.6904 28.2041 35.3804 27.6738 34.6104 27.4037C35.1504 26.7934 35.1704 26.1731 35.1504 25.913C35.0804 25.0425 34.3804 24.3122 33.5004 24.2321C33.2404 24.2021 32.6204 24.2121 32.0004 24.7424C31.7404 23.972 31.2204 23.6418 30.9904 23.5318C30.2004 23.1516 29.2204 23.4017 28.7104 24.1121C28.5604 24.3222 28.2604 24.8624 28.4004 25.6628C27.8204 25.5428 27.1704 25.6528 26.7104 26.033C26.4404 26.013 26.1904 25.8529 26.0504 25.6128C25.8504 25.2626 25.9104 24.8224 26.2104 24.5523C27.1104 23.7419 27.6604 22.8314 28.3104 21.8209C28.5904 21.3807 29.1604 21.3607 29.5804 21.5708C30.2604 21.8209 31.0304 21.6808 31.5904 21.2106C32.3304 20.5803 33.9104 19.5498 34.9404 19.7499C36.2904 20.01 37.9504 20.2001 38.4104 18.4993C38.5504 17.969 39.2404 17.7689 39.6804 17.5588C40.3604 17.2286 39.8504 16.1781 39.1704 16.4983C38.3604 16.8884 37.5404 17.2286 37.2804 18.1891C37.0904 18.9095 36.2804 18.8594 35.7204 18.6893C35.7604 18.5893 36.4504 15.3077 36.4504 15.3077C36.4904 15.0875 36.6204 14.9075 36.8004 14.7774L38.5104 13.5968C39.1304 13.1666 38.4704 12.2061 37.8404 12.6363L36.8204 13.3367C36.8504 12.9065 36.8004 12.4262 36.6204 11.966C36.0704 10.5853 34.5004 9.96498 34.4304 9.93497C34.1404 9.82491 33.8204 9.95498 33.6904 10.2251C33.6604 10.2851 32.9504 11.8159 33.5004 13.2066C33.8904 14.1871 34.7804 14.7774 35.3004 15.0575C35.3004 15.0575 35.3004 15.0675 35.3004 15.0775L34.6704 18.1391C34.6004 18.4592 34.3504 18.7194 34.0304 18.7994C33.3704 18.9495 32.7204 19.1296 32.1204 19.4397C31.5804 19.7099 30.9904 20.4402 30.3804 20.5103C31.4404 19.6498 31.7304 18.1291 31.3904 16.8384C31.3104 16.5383 31.0204 16.3582 30.7204 16.4082C30.6504 16.4182 28.9904 16.7384 28.1904 17.989C27.5704 18.9695 27.6804 20.1801 27.7704 20.7004C26.8004 21.4807 26.3804 22.8214 25.4304 23.6818C25.1904 23.902 25.0104 24.1721 24.9004 24.4722C24.7804 24.2421 24.6104 24.032 24.4104 23.8619C24.1504 23.6418 23.4604 23.1916 22.3604 23.3917C22.7604 22.3412 22.4304 21.5808 22.2704 21.2906C21.7604 20.3902 20.6404 19.98 19.6604 20.3302C19.4104 20.4202 18.9004 20.6703 18.5104 21.2906C18.4504 21.2106 16.1804 18.5093 16.1804 18.5093C15.7804 17.899 16.5304 17.0285 17.1304 17.6288C18.6104 19.1096 19.5804 18.9495 21.2804 17.909C21.6104 17.7089 22.0604 17.909 22.3704 18.079C23.6204 18.6093 25.0804 18.3592 26.1004 17.4487C27.1404 16.5183 28.2104 15.4377 27.4304 13.917C27.9904 13.6968 28.7304 13.2866 29.1904 12.5663C29.9904 11.3057 29.5804 9.67484 29.5604 9.6048C29.4804 9.30465 29.1904 9.12456 28.8904 9.17459C28.8204 9.18459 27.1604 9.50475 26.3604 10.7554C25.9504 11.3957 25.8604 12.1361 25.8704 12.7164C25.0304 12.5263 24.3204 12.9065 23.5704 13.2166C22.8804 13.5068 22.2104 13.0265 21.6204 12.7264C20.9804 12.3962 20.7504 11.5758 21.1204 10.9655C22.0304 9.48474 20.6504 8.53427 19.5604 7.86393C18.9704 7.49375 19.3704 6.9935 19.5904 6.6033C20.2004 5.54277 20.5304 4.34217 20.5304 3.12156V0.570285C20.5304 -0.190095 19.3604 -0.190095 19.3604 0.570285V3.13157C19.3604 3.63182 19.2904 4.13207 19.1704 4.61231C18.6704 3.42171 17.3804 2.71136 16.1304 2.6013C15.8204 2.57129 15.5504 2.78139 15.5004 3.09155C15.1804 5.0025 16.2004 6.70335 18.0804 7.22361C18.0404 7.88394 18.3804 8.52426 18.9404 8.87444C19.4004 9.15458 20.5804 9.62481 20.1204 10.3652C19.3904 11.5458 19.8504 13.1566 21.0804 13.7869C22.0204 14.2671 22.9404 14.7674 24.0204 14.3072C24.6604 14.027 25.4104 13.5668 26.0604 14.097C27.1604 14.9675 25.9704 15.988 25.3004 16.5983C24.6304 17.2086 23.6504 17.3687 22.8104 17.0185C22.1204 16.6883 21.3604 16.4983 20.6604 16.9285C19.4104 17.6888 19.0204 17.899 17.9404 16.8184C17.1104 15.988 15.6804 16.1781 15.0804 17.1786L14.0504 15.8879C13.4704 15.1576 12.4904 14.8874 11.6104 15.2176C11.2304 15.3577 10.7904 15.2476 10.5304 14.9475L9.08039 13.2866C8.82039 12.9965 8.49039 12.7764 8.12039 12.6563C6.89039 12.2561 6.57039 11.8759 6.07039 10.7054C5.91039 10.3352 6.00039 9.91496 6.28039 9.62481C6.64039 9.26463 7.04039 8.91446 7.37039 8.51426C9.38039 9.08454 11.2504 8.12406 11.9004 6.11306C11.9904 5.82291 11.8504 5.50275 11.5604 5.3927C10.4804 4.95248 9.09039 4.94247 8.12039 5.64282L8.35039 4.10205C8.46039 3.35168 7.30039 3.18159 7.19039 3.93197L6.69039 7.27364C6.59039 7.96398 5.67039 8.48424 5.27039 8.9945C4.84039 8.06403 4.45039 7.15358 3.46039 6.69335C4.91039 6.04302 5.58039 4.47224 5.38039 2.94147C5.34039 2.64132 5.07039 2.41121 4.77039 2.43122C3.42039 2.50125 2.06039 3.25163 1.56039 4.55228L1.15039 2.75138C0.980392 2.01101 -0.159608 2.27114 0.0103924 3.01151L0.580392 5.51276C0.820392 6.56328 1.62039 7.38369 2.66039 7.65383C3.16039 7.78389 3.56039 8.12406 3.78039 8.5943L4.98039 11.1756C5.37039 12.096 5.69039 13.1066 6.75039 13.4567C7.19039 13.5968 7.86039 13.7069 8.18039 14.067L9.63039 15.7279C10.2204 16.3982 11.1704 16.6483 12.0104 16.3282C12.4104 16.1781 12.8604 16.2981 13.1204 16.6383L15.2304 19.2896L16.6304 20.9605C15.0204 20.6903 13.7504 22.3412 14.2804 23.8419L12.3604 23.0515C11.9204 22.8714 11.4404 22.8114 10.9704 22.8714L7.84039 23.2616C6.08039 23.4817 6.27039 21.5308 5.53039 20.5703C6.82039 18.9895 6.68039 16.9385 5.18039 15.5578C4.96039 15.3477 4.61039 15.3477 4.38039 15.5578C3.34039 16.5283 2.79039 18.049 3.34039 19.4097L1.39039 18.9095C0.660392 18.7194 0.370392 19.8599 1.10039 20.05L3.74039 20.7304C4.97039 21.0405 4.76039 22.2811 5.31039 23.1516C4.09039 23.3817 3.13039 24.4422 2.73039 25.5828C2.63039 25.8729 2.76039 26.1931 3.04039 26.3132C5.03039 27.1936 6.99039 26.3732 7.88039 24.4522C8.96039 24.3622 10.0404 24.1821 11.1204 24.052C11.3904 24.022 11.6604 24.052 11.9104 24.1621L13.9604 25.0125C13.4104 25.2926 13.1304 25.6728 13.0104 25.8829C12.4904 26.7734 12.6904 27.954 13.4804 28.6243C13.7404 28.8444 14.4304 29.2946 15.5304 29.0945C15.1304 30.1451 15.4604 30.9055 15.6204 31.1956C16.0104 31.8759 16.7504 32.2761 17.5104 32.2761C17.8704 32.2761 18.2404 32.1761 18.5504 31.996V33.4067H8.84039C8.08039 33.4067 8.08039 34.5773 8.84039 34.5773H38.0104C38.4404 34.5773 38.7904 34.9275 38.7904 35.3577C38.7904 35.7879 38.4404 36.1381 38.0104 36.1381H30.1404C30.1404 36.1381 30.1404 36.1381 30.1304 36.1381H9.83039C9.83039 36.1381 9.83039 36.1381 9.82039 36.1381H1.96039C1.53039 36.1381 1.18039 35.7879 1.18039 35.3577C1.18039 34.9275 1.53039 34.5773 1.96039 34.5773H5.37039C6.13039 34.5773 6.13039 33.4067 5.37039 33.4067H1.96039C0.880392 33.3567 0.000392433 34.2371 0.000392433 35.3077C0.000392433 36.3782 0.880392 37.2586 1.95039 37.2586H9.30039C9.58039 38.8094 10.9404 39.99 12.5704 39.99H24.5304C25.2904 39.99 25.2904 38.8194 24.5304 38.8194H12.5704C11.5904 38.8194 10.7604 38.1591 10.5004 37.2586H29.5004C29.2404 38.1591 28.4104 38.8194 27.4304 38.8194C26.6704 38.8194 26.6704 39.99 27.4304 39.99C29.0604 39.99 30.4204 38.8094 30.7004 37.2586H38.0504C39.1304 37.2586 40.0004 36.3782 40.0004 35.3077C40.0004 34.2371 39.1204 33.3567 38.0504 33.3567ZM34.5804 12.7964C34.3804 12.3062 34.4504 11.7459 34.5504 11.3457C34.9004 11.5758 35.3304 11.936 35.5304 12.4262C35.7304 12.9165 35.6604 13.4767 35.5604 13.8769C35.2104 13.6468 34.7804 13.2866 34.5804 12.7964ZM29.1604 18.6393C29.4404 18.1991 29.9304 17.919 30.3204 17.7589C30.3404 18.1791 30.3004 18.7394 30.0204 19.1796C29.7404 19.6298 29.2504 19.9 28.8604 20.06C28.8404 19.6398 28.8804 19.0795 29.1704 18.6393H29.1604ZM17.0404 5.28264C16.7204 4.86243 16.6304 4.31216 16.6104 3.89195C17.0104 4.01201 17.5204 4.24212 17.8404 4.66233C18.1604 5.08254 18.2504 5.63282 18.2704 6.05303C17.8704 5.93297 17.3604 5.70285 17.0404 5.28264ZM27.3204 11.3857C27.6004 10.9455 28.0904 10.6653 28.4804 10.5053C28.5004 10.9255 28.4604 11.4857 28.1804 11.926C27.9004 12.3762 27.4104 12.6463 27.0204 12.8064C27.0004 12.3862 27.0404 11.8259 27.3304 11.3857H27.3204ZM9.08039 6.41321C9.56039 6.1931 10.1204 6.22311 10.5304 6.29315C10.3204 6.66333 9.99039 7.10355 9.51039 7.33367C9.03039 7.55378 8.47039 7.52376 8.06039 7.45373C8.27039 7.08354 8.60039 6.64332 9.08039 6.41321ZM2.97039 4.4022C3.31039 3.992 3.83039 3.78189 4.23039 3.68184C4.20039 4.10205 4.09039 4.65233 3.75039 5.05253C3.41039 5.45273 2.89039 5.67284 2.49039 5.77289C2.52039 5.35268 2.63039 4.8024 2.97039 4.4022ZM4.82039 16.8584C5.06039 17.1986 5.33039 17.6989 5.33039 18.2191C5.33039 18.7394 5.07039 19.2396 4.82039 19.5798C4.58039 19.2396 4.31039 18.7394 4.31039 18.2191C4.31039 17.6989 4.57039 17.1986 4.82039 16.8584ZM5.59039 25.3027C5.11039 25.5128 4.55039 25.4627 4.14039 25.3727C4.36039 25.0125 4.71039 24.5723 5.19039 24.3622C5.67039 24.1521 6.23039 24.2021 6.64039 24.2921C6.42039 24.6523 6.07039 25.0925 5.59039 25.3027ZM28.5904 31.2556C28.2804 31.2256 28.0204 30.9555 28.0004 30.6453C27.9704 30.2351 28.3504 29.6948 29.4704 29.3347C29.6004 29.5248 29.7604 29.6848 29.9404 29.8249C29.5504 30.9355 29.0004 31.2957 28.5904 31.2556ZM30.9804 27.6838C31.3404 27.6838 31.6304 27.974 31.6304 28.3342C31.6304 28.6943 31.3404 28.9845 30.9804 28.9845C30.6204 28.9845 30.3304 28.6943 30.3304 28.3342C30.3304 27.974 30.6204 27.6838 30.9804 27.6838ZM32.3204 31.8559C32.1404 32.1061 31.7804 32.1961 31.5004 32.066C31.1304 31.8859 30.8604 31.2856 31.1004 30.1351C31.3304 30.1251 31.5604 30.065 31.7604 29.965C32.5204 30.8554 32.5704 31.5158 32.3304 31.8459L32.3204 31.8559ZM34.7104 28.9345C34.8404 29.2146 34.7404 29.5748 34.4804 29.7549C34.1404 29.985 33.4904 29.925 32.6104 29.1446C32.7104 28.9445 32.7704 28.7244 32.7904 28.4942C33.9404 28.2841 34.5404 28.5743 34.7104 28.9445V28.9345ZM33.3704 25.4027C33.6804 25.4327 33.9404 25.7029 33.9604 26.013C33.9904 26.4232 33.6104 26.9635 32.4904 27.3237C32.3604 27.1336 32.2004 26.9735 32.0204 26.8334C32.4104 25.7229 32.9604 25.3527 33.3704 25.4027ZM29.6404 24.8024C29.8204 24.5523 30.1804 24.4622 30.4604 24.5923C30.8304 24.7724 31.1004 25.3727 30.8604 26.5233C30.6304 26.5333 30.4004 26.5933 30.2004 26.6933C29.4404 25.8029 29.3904 25.1426 29.6304 24.8124L29.6404 24.8024ZM29.3504 27.5238C29.2504 27.7239 29.1904 27.944 29.1704 28.1741C28.0204 28.3842 27.4204 28.094 27.2504 27.7239C27.1204 27.4437 27.2204 27.0835 27.4804 26.9035C27.8204 26.6733 28.4704 26.7334 29.3504 27.5138V27.5238ZM23.6204 24.7724C23.9804 25.0825 24.0704 25.6128 23.8404 26.023C23.5404 26.5333 22.6804 26.8634 21.1204 26.3832C21.1504 26.023 21.0804 25.6628 20.9404 25.3427C22.2504 24.3722 23.1804 24.3922 23.6304 24.7724H23.6204ZM18.0004 25.8729C18.0904 25.6228 18.2804 25.4227 18.5204 25.3027C18.6504 25.2426 18.8004 25.2126 18.9404 25.2126C19.0604 25.2126 19.1804 25.2326 19.2904 25.2726C19.8104 25.4627 20.0804 26.043 19.8904 26.5633C19.7004 27.0835 19.1204 27.3537 18.6004 27.1636C18.0804 26.9735 17.8104 26.3932 18.0004 25.8729ZM20.7004 27.5038C22.2004 28.1541 22.6404 28.9745 22.5404 29.5448C22.4604 30.005 22.0404 30.3552 21.5704 30.3552C20.9804 30.3552 20.2604 29.7649 19.9004 28.1741C20.2204 28.024 20.5004 27.7939 20.7104 27.4937L20.7004 27.5038ZM20.0304 21.4407C20.4704 21.2806 20.9904 21.4707 21.2204 21.8809C21.5104 22.3912 21.3704 23.3117 20.1704 24.4222C20.0304 24.3222 19.8704 24.2421 19.7004 24.1821C19.5304 24.1221 19.3604 24.082 19.1804 24.062C18.9904 22.4412 19.4804 21.6508 20.0304 21.4507V21.4407ZM15.3504 22.8914C15.4304 22.4312 15.8504 22.081 16.3204 22.081C16.9104 22.081 17.6304 22.6713 17.9904 24.2621C17.6604 24.4222 17.3804 24.6523 17.1804 24.9425C15.6804 24.2921 15.2404 23.4817 15.3404 22.9015L15.3504 22.8914ZM14.2704 27.6738C13.9104 27.3637 13.8204 26.8334 14.0504 26.4232C14.3204 25.963 15.0704 25.6428 16.4004 25.953L16.4704 25.983C16.5404 26.013 16.6004 26.023 16.6704 26.023C16.7104 26.033 16.7404 26.043 16.7804 26.053C16.7504 26.4132 16.8204 26.7734 16.9604 27.0935C15.6504 28.064 14.7204 28.044 14.2704 27.6638V27.6738ZM17.8604 31.0055C17.4204 31.1656 16.9004 30.9755 16.6704 30.5653C16.3804 30.055 16.5204 29.1346 17.7204 28.024C17.8604 28.1241 18.0204 28.2041 18.1904 28.2641C18.3604 28.3242 18.5404 28.3642 18.7104 28.3842C18.9004 30.005 18.4104 30.7954 17.8604 30.9955V31.0055ZM19.7504 30.6453C20.4504 31.4457 21.2304 31.5458 21.5604 31.5458C22.5904 31.5458 23.5004 30.7854 23.6904 29.7649C23.7504 29.4347 23.8004 28.6043 23.0704 27.7539C24.1804 27.5738 24.6804 26.9135 24.8404 26.6233C24.9104 26.5033 24.9704 26.3732 25.0104 26.2431C25.2504 26.6533 25.6204 26.9535 26.0504 27.1136C25.9804 27.4837 26.0104 27.8739 26.1704 28.2241C26.2804 28.4642 26.5904 28.9945 27.3604 29.2646C27.0704 29.5848 26.9304 29.915 26.8704 30.1851L21.8604 33.3667H19.7404V30.6453H19.7504Z" fill="black"/>
</g>
</g>
<defs>
<clipPath id="clip0_225_10302">
<rect width="40" height="40" fill="white"/>
</clipPath>
</defs>
</svg>
