<svg width="40" height="40" viewBox="0 0 40 40" fill="none" xmlns="http://www.w3.org/2000/svg">
<mask id="mask0_225_10364" style="mask-type:luminance" maskUnits="userSpaceOnUse" x="1" y="0" width="38" height="40">
<path d="M39 0H1V40H39V0Z" fill="white"/>
</mask>
<g mask="url(#mask0_225_10364)">
<path d="M33.3645 10.2114C33.3645 10.2114 17.0579 13.2029 13.2468 16.4116L10.6689 25.3441H13.4609V29.9315C13.4609 30.9676 14.4287 32.1625 16.3557 31.7782C18.2826 31.3938 27.4122 28.1851 27.4122 28.1851C27.4122 28.1851 27.8405 28.1266 28.106 27.149" fill="#FFCEBF"/>
<path d="M22.1714 14.0215C18.0947 15.1161 13.9667 16.4948 12.2795 17.9154L11.0977 22.0014C15.3627 21.4249 20.2187 19.503 22.1628 14.0215H22.1714Z" fill="#FFC3B0"/>
<path d="M8.33088 32.3545C7.68855 32.6804 6.70365 32.9562 6.41246 32.9645L6.29256 31.0844C6.29256 30.8087 6.06989 30.5831 5.79583 30.5831H2.23306C1.959 30.5831 1.73633 30.8087 1.73633 31.0844V33.6497C1.73633 35.5298 3.01242 36.6411 4.33133 36.6411H5.19632C6.99484 36.6411 8.42508 35.0451 8.91325 34.2764C9.38429 33.5327 10.0609 31.5022 10.472 30.1318C9.91528 31.2181 8.99889 32.0119 8.33088 32.3545Z" fill="#714C15"/>
<path d="M20.2094 12.3588C21.0401 15.2166 22.6074 18.0827 23.0013 18.701C23.4895 19.4698 23.7893 19.4363 24.1404 19.1355C24.5601 18.7762 25.6734 18.0493 26.7011 18.5088C28.1828 19.169 28.4911 20.6396 28.277 21.5671C28.0629 22.4946 27.5576 23.255 26.8125 23.8232C26.1958 24.2912 26.9153 25.3189 27.2407 26.3467C27.5661 27.3745 27.8316 26.4136 28.0971 27.5082C28.3626 28.6028 32.8161 26.1462 33.1929 25.3357C33.5698 24.5251 35.2312 20.4725 35.2312 19.3779C35.2312 18.2832 34.5375 8.9329 31.2659 7.62937C27.9944 6.32584 19.5242 9.96904 20.2179 12.3672L20.2094 12.3588Z" fill="black"/>
<path d="M12.4503 11.9492L5.53027 15.7763C5.53027 15.7763 15.8246 21.6421 20.8861 14.2304C13.7178 12.1665 12.4503 11.9492 12.4503 11.9492Z" fill="#B38A54"/>
<path d="M36.0284 18.3166L37.4843 22.5197C37.4843 22.5197 33.048 22.2773 30.8213 16.9546C35.2833 18.0409 36.0198 18.3166 36.0198 18.3166H36.0284Z" fill="#B38A54"/>
<path d="M33.3814 26.422C33.3814 26.422 27.2322 25.1519 21.8281 28.7867C16.6466 32.2795 13.8547 37.5772 13.4864 38.3209C13.1181 39.0645 12.8355 39.8416 14.5998 38.6635C16.424 37.4435 23.6694 34.0175 30.6151 33.1402C36.2162 32.4299 38.2631 32.7892 38.2631 32.7892C38.2631 32.7892 34.7431 27.291 33.3814 26.422Z" fill="#B38A54"/>
<path d="M32.5599 26.2799C32.5599 26.2799 32.0803 26.1879 31.2924 26.1211C32.2173 27.0486 33.2536 28.2268 34.11 29.2295C34.8294 30.0651 34.8123 30.274 33.7246 30.4161C32.3201 30.5915 29.6908 31.2099 26.8132 32.2126C25.0747 32.8142 23.6958 33.8754 22.2998 34.7779C24.6464 34.0008 27.2414 33.3323 29.7936 33.0064C35.3947 32.2962 37.4416 32.6555 37.4416 32.6555C37.4416 32.6555 33.9216 27.1572 32.5599 26.2882V26.2799Z" fill="#A57842"/>
<path d="M35.9336 11.498C36.028 11.8156 36.1138 12.1415 36.191 12.4757C36.1224 12.1498 36.0366 11.8239 35.9336 11.498Z" fill="#B38A54"/>
<path d="M36.4561 15.542C36.4476 15.8512 36.4132 16.1603 36.3789 16.4695C36.4132 16.1603 36.439 15.8512 36.4561 15.542Z" fill="#B38A54"/>
<path d="M12.4502 11.9555C12.4502 11.9555 12.4502 11.9355 12.4602 11.9155C12.4602 11.9255 12.4602 11.9355 12.4502 11.9555Z" fill="#B38A54"/>
<path d="M36.3373 16.8872C36.2687 17.3301 36.1829 17.7813 36.0713 18.2325C36.1829 17.7813 36.2687 17.3384 36.3373 16.8872Z" fill="#B38A54"/>
<path d="M13.2129 9.835C13.3416 9.5509 13.4875 9.2835 13.6334 9.01611C13.4875 9.2835 13.3416 9.55925 13.2129 9.835Z" fill="#B38A54"/>
<path d="M34.041 7.6875C34.8289 8.75706 35.437 9.96032 35.8567 11.2304C35.4456 9.96032 34.8289 8.75706 34.041 7.6875Z" fill="#B38A54"/>
<path d="M36.4307 14.2051C36.4474 14.4975 36.4557 14.79 36.4557 15.0825C36.4557 14.79 36.4557 14.4975 36.4307 14.2051Z" fill="#B38A54"/>
<path d="M19.5073 11.0718C21.4429 5.84102 24.6973 2.39836 27.3523 3.10862C21.9054 1.66303 16.3642 4.19489 13.6836 8.91601C13.8549 8.62355 14.0347 8.33109 14.2231 8.05535C15.6876 9.16669 17.4605 10.2613 19.5073 11.0718Z" fill="#B38A54"/>
<path d="M30.5901 11.4894C32.0803 10.7708 33.3221 9.55085 34.0415 7.68747C32.4486 5.51492 30.1447 3.85208 27.3613 3.1084C29.6052 3.71003 30.7956 7.1109 30.5987 11.4894H30.5901Z" fill="#B38A54"/>
<path d="M19.5078 11.0715C21.8716 12.0074 24.5779 12.5589 27.584 12.2915C28.6374 12.1996 29.6651 11.9405 30.5901 11.4893C30.7871 7.11077 29.6052 3.70154 27.3528 3.10826C24.6978 2.39801 21.4434 5.84067 19.5078 11.0715Z" fill="#D6AF7B"/>
<path d="M13.6328 9.01602C13.6328 9.01602 13.667 8.94935 13.6842 8.91602C13.667 8.94935 13.6499 8.98268 13.6328 9.01602Z" fill="#B38A54"/>
<path d="M12.4502 11.9492L26.6328 15.7261L18.9848 13.6873L12.4502 11.9492Z" fill="#B38A54"/>
<path d="M12.459 11.9158C12.5534 11.5481 12.6735 11.1888 12.7937 10.8379C12.6649 11.1888 12.5534 11.5481 12.459 11.9158Z" fill="#B38A54"/>
<path d="M13.0674 10.1859C13.1189 10.0689 13.1618 9.95194 13.2133 9.83496C13.1618 9.95194 13.1103 10.0689 13.0674 10.1859Z" fill="#B38A54"/>
<path d="M36.1826 12.4673C36.2084 12.5926 36.2341 12.7263 36.2599 12.86C36.2341 12.7263 36.2169 12.601 36.1826 12.4673Z" fill="#B38A54"/>
<path d="M18.711 13.6119C18.9422 12.7262 19.2077 11.8739 19.5074 11.0717C17.4691 10.2611 15.6877 9.16652 14.2232 8.05518C14.0348 8.33092 13.855 8.62338 13.6837 8.91584C13.6666 8.94926 13.6494 8.98269 13.6323 9.01611C13.4867 9.2835 13.3411 9.55925 13.2126 9.835C13.1613 9.95198 13.1099 10.069 13.0671 10.1859C12.9728 10.4032 12.8786 10.6205 12.8016 10.8461C12.6731 11.197 12.5618 11.5563 12.4675 11.924C12.4675 11.9323 12.4675 11.9407 12.459 11.9574L18.9936 13.6955L18.7195 13.6202L18.711 13.6119Z" fill="#A57842"/>
<path d="M30.5899 11.4896C30.5214 13.0856 30.2645 14.8069 29.8105 16.57L36.0711 18.2328C36.1824 17.7816 36.2681 17.3387 36.3366 16.8875C36.3537 16.7455 36.3623 16.6118 36.3794 16.4697C36.4137 16.1606 36.4479 15.8514 36.4565 15.5422C36.4565 15.3835 36.4565 15.233 36.4565 15.0743C36.4565 14.7818 36.4565 14.4894 36.4308 14.1969C36.4222 14.0465 36.4051 13.8961 36.388 13.7457C36.3537 13.4449 36.3109 13.1441 36.2595 12.8516C36.2338 12.7179 36.2167 12.5926 36.1824 12.4589C36.1139 12.133 36.0283 11.8071 35.9255 11.4812C35.8998 11.3893 35.8741 11.3057 35.8484 11.2138C35.4373 9.94372 34.8207 8.74046 34.0328 7.6709C33.3134 9.53428 32.0715 10.7542 30.5813 11.4729L30.5899 11.4896Z" fill="#A57842"/>
<path d="M18.9854 13.687L26.6333 15.7259L29.8107 16.5698L18.9854 13.687Z" fill="#B38A54"/>
<path d="M27.5836 12.2917C24.5861 12.5591 21.8712 12.0076 19.5074 11.0718C19.2077 11.8823 18.9422 12.7263 18.7109 13.612L18.985 13.6872L29.8103 16.57C30.2642 14.8069 30.5126 13.0856 30.5897 11.4896C29.6647 11.9408 28.637 12.1998 27.5836 12.2917Z" fill="#C49A69"/>
<path d="M5.19653 37.36H4.33153C2.71287 37.36 1 36.0565 1 33.65V31.0847C1 30.4078 1.55668 29.8564 2.23327 29.8564H5.78747C6.47262 29.8564 7.02074 30.4078 7.02074 31.0847L7.08069 32.0623C7.37187 31.9704 7.70588 31.8451 7.97138 31.7114C8.54519 31.4189 9.32454 30.717 9.78702 29.8146C9.95831 29.4803 10.3694 29.3299 10.7205 29.4636C11.0802 29.6057 11.2687 29.9817 11.1573 30.341C10.8576 31.3354 10.0868 33.7502 9.51296 34.661C8.8792 35.6637 7.24341 37.3684 5.17084 37.3684L5.19653 37.36ZM2.48163 31.3019V33.65C2.48163 35.1206 3.43227 35.9144 4.33153 35.9144H5.19653C6.67816 35.9144 7.91999 34.4521 8.27969 33.8923C8.3996 33.7085 8.54519 33.3909 8.71648 32.9648C8.69935 32.9648 8.68222 32.9815 8.67365 32.9898C7.95425 33.3575 6.86658 33.6667 6.43836 33.6834C6.4298 33.6834 6.42123 33.6834 6.4041 33.6834C6.01871 33.6834 5.69326 33.3909 5.66757 33.0065L5.55623 31.3019H2.48163ZM5.54767 31.1265C5.54767 31.1265 5.54767 31.1348 5.54767 31.1432V31.1265Z" fill="black"/>
<path d="M10.472 30.8589C10.395 30.8589 10.3179 30.8506 10.2408 30.8255C9.85541 30.7002 9.6413 30.2907 9.76977 29.9147C10.2751 28.419 11.5683 27.4497 13.0756 27.4497C13.4867 27.4497 13.8207 27.7756 13.8207 28.1767C13.8207 28.5778 13.4867 28.9036 13.0756 28.9036C12.399 28.9036 11.5426 29.288 11.1829 30.3743C11.0801 30.6835 10.7889 30.8757 10.4806 30.8757L10.472 30.8589Z" fill="black"/>
<path d="M36.0713 18.9598C36.0028 18.9598 35.9428 18.9598 35.8743 18.9347L12.2538 12.651C11.8599 12.5508 11.6286 12.158 11.7314 11.7737C12.6307 8.30594 14.8231 5.42313 17.9063 3.66838C20.8524 1.98883 24.2782 1.54596 27.5498 2.41498C34.4526 4.2533 38.5892 11.4311 36.7907 18.4167C36.7393 18.6005 36.6194 18.7676 36.4481 18.8679C36.3368 18.9347 36.2083 18.9681 36.0713 18.9681V18.9598ZM13.3672 11.4478L35.5146 17.3387C36.6708 11.3475 33.0481 5.37299 27.1644 3.81043C24.2782 3.04168 21.255 3.43441 18.66 4.92177C16.1249 6.36735 14.2665 8.66524 13.3758 11.4478H13.3672Z" fill="black"/>
<path d="M29.8107 17.2885C29.7508 17.2885 29.6908 17.2885 29.6309 17.2635C29.2369 17.1632 28.9971 16.7705 29.0913 16.3861C30.8384 9.62611 29.5024 4.42034 27.1558 3.802C26.5563 3.64324 25.8797 3.76858 25.1517 4.18638C22.8308 5.50662 20.5869 9.27516 19.4222 13.7874C19.3194 14.1718 18.9169 14.4057 18.5229 14.3138C18.1289 14.2135 17.8891 13.8208 17.9834 13.4364C19.2594 8.4897 21.726 4.47048 24.4066 2.94134C25.4772 2.33135 26.5648 2.14752 27.5412 2.41491C31.044 3.35078 32.3543 9.64282 30.5216 16.7537C30.4359 17.0796 30.1362 17.2969 29.8021 17.2969L29.8107 17.2885Z" fill="black"/>
<path d="M27.3609 3.82708C27.301 3.82708 27.2325 3.82708 27.1725 3.80201C26.9413 3.74352 26.7529 3.58475 26.6672 3.3675L25.6994 0.986047C25.5453 0.618385 25.7337 0.192231 26.1105 0.0501794C26.4959 -0.100228 26.9241 0.0836032 27.0697 0.451266L27.6692 1.91356L28.8854 0.944268C29.2023 0.693589 29.6733 0.735368 29.9302 1.04454C30.1872 1.35371 30.1443 1.81329 29.8275 2.06397L27.832 3.65996C27.6949 3.76858 27.5322 3.82708 27.3609 3.82708Z" fill="black"/>
<path d="M13.5465 18.7007C12.7928 18.7007 12.0049 18.6338 11.1827 18.4918C7.88545 17.9319 5.26476 16.4613 5.15342 16.3945C4.92219 16.2608 4.78516 16.0268 4.78516 15.7678C4.78516 15.5087 4.93075 15.2748 5.16199 15.1411L12.082 11.314C12.2276 11.2305 12.4074 11.2054 12.5701 11.2305C12.6215 11.2388 13.9576 11.4728 21.0917 13.5284C21.3143 13.5952 21.4942 13.7623 21.5798 13.9796C21.6569 14.1968 21.6312 14.4392 21.5028 14.623C19.67 17.3136 16.9465 18.7007 13.5465 18.7007ZM7.09753 15.7343C8.11669 16.1856 9.70109 16.7788 11.4653 17.0713C14.9853 17.6478 17.7345 16.829 19.6443 14.623C14.9339 13.2777 13.1525 12.8432 12.5616 12.7095L7.08897 15.7343H7.09753Z" fill="black"/>
<path d="M37.4837 23.2381C37.4837 23.2381 37.458 23.2381 37.4408 23.2381C37.2439 23.2298 32.5078 22.9039 30.1355 17.2218C30.0327 16.9712 30.0755 16.6787 30.2639 16.4782C30.4438 16.2693 30.735 16.1857 31.0005 16.2525C35.3768 17.3221 36.2076 17.6062 36.2847 17.6396C36.4902 17.7148 36.6529 17.882 36.7214 18.0825L38.1774 22.2856C38.2545 22.5112 38.2116 22.7618 38.066 22.954C37.929 23.1379 37.7063 23.2381 37.4751 23.2381H37.4837ZM32.1909 18.0324C33.5098 20.2467 35.2312 21.1575 36.3617 21.5335L35.4454 18.8847C35.0171 18.7593 34.0922 18.5003 32.1909 18.024V18.0324Z" fill="black"/>
<path d="M13.3668 40.0001C13.1527 40.0001 12.9557 39.9333 12.7759 39.7912C12.185 39.2982 12.5789 38.4961 12.8102 38.0198C13.1185 37.4014 15.9447 31.8781 21.4002 28.2015C27.0013 24.4246 33.2618 25.6697 33.5273 25.7198C33.613 25.7365 33.6986 25.7699 33.7757 25.8201C35.2059 26.7225 38.2805 31.4687 38.88 32.4046C39.0342 32.6469 39.0256 32.9561 38.8629 33.19C38.7002 33.424 38.409 33.5577 38.1178 33.4992C38.1007 33.4992 36.0538 33.1817 30.6925 33.8585C24.0123 34.7025 16.8611 38.0198 15.0026 39.2648C14.4117 39.6576 13.8464 40.0001 13.3497 40.0001H13.3668ZM30.7525 26.9398C28.5686 26.9398 25.2627 27.3576 22.2395 29.3881C18.1629 32.1372 15.585 36.0979 14.6001 37.8109C16.8697 36.4656 23.6783 33.2987 30.5127 32.4296C33.5873 32.0369 35.617 31.9617 36.8503 31.9784C35.5656 30.0565 33.8699 27.7252 33.082 27.1069C32.7565 27.0568 31.9172 26.9398 30.7525 26.9398Z" fill="black"/>
<path d="M36.0713 18.9598C36.0028 18.9598 35.9428 18.9598 35.8743 18.9347L12.2538 12.651C11.8599 12.5508 11.6286 12.158 11.7314 11.7737C12.6307 8.30594 14.8231 5.42313 17.9063 3.66838C20.8524 1.98883 24.2782 1.54596 27.5498 2.41498C34.4526 4.2533 38.5892 11.4311 36.7907 18.4167C36.7393 18.6005 36.6194 18.7676 36.4481 18.8679C36.3368 18.9347 36.2083 18.9681 36.0713 18.9681V18.9598ZM13.3672 11.4478L35.5146 17.3387C36.6708 11.3475 33.0481 5.37299 27.1644 3.81043C24.2782 3.04168 21.255 3.43441 18.66 4.92177C16.1249 6.36735 14.2665 8.66524 13.3758 11.4478H13.3672Z" fill="black"/>
<path d="M27.1726 26.689C26.8557 26.689 26.5645 26.4885 26.4617 26.1793C26.3846 25.9286 26.2733 25.6696 26.1791 25.4273C25.8537 24.6335 25.3997 23.5555 26.2904 22.8703C26.9156 22.3941 27.3182 21.7757 27.4895 21.0237C27.6179 20.4805 27.5323 19.3191 26.3333 18.7843C25.571 18.45 24.6033 19.2606 24.5604 19.3023C24.3035 19.5196 23.9267 19.8455 23.3786 19.7369C22.8133 19.6199 22.4879 19.0851 22.2652 18.6255C22.1967 18.4751 22.1025 18.2662 21.9826 17.9821C21.7171 17.3638 21.2717 16.3276 20.5009 14.7985C20.3211 14.4392 20.4752 14.0047 20.8435 13.8292C21.2118 13.6537 21.6571 13.8041 21.837 14.1634C22.6163 15.726 23.0788 16.7872 23.3529 17.4223C23.4642 17.6813 23.5413 17.8735 23.6098 18.0072C23.6355 18.0573 23.6526 18.0991 23.6783 18.1409C24.5347 17.4557 25.7937 16.9543 26.9499 17.4724C28.6713 18.2328 29.2537 19.9959 28.9368 21.3412C28.6885 22.4108 28.1232 23.2965 27.2411 23.9817C27.2411 24.1655 27.4209 24.5917 27.5494 24.8841C27.6693 25.1682 27.7892 25.4607 27.8834 25.7615C28.0033 26.1459 27.7806 26.547 27.3867 26.664C27.3182 26.689 27.2411 26.6974 27.1726 26.6974V26.689Z" fill="black"/>
<path d="M32.4058 26.6643C32.2516 26.6643 32.0975 26.6142 31.9605 26.5223C31.635 26.28 31.5665 25.8287 31.8149 25.5112C32.1317 25.1018 32.9882 23.2969 33.7161 21.3499C33.8532 20.9739 34.2814 20.7817 34.6668 20.9238C35.0522 21.0575 35.2492 21.4753 35.1036 21.8513C34.4612 23.5726 33.4935 25.7452 32.9882 26.3886C32.8426 26.5808 32.6199 26.6727 32.3972 26.6727L32.4058 26.6643Z" fill="black"/>
<path d="M15.5849 32.5469C14.8312 32.5469 14.1546 32.3296 13.6322 31.9118C13.0156 31.4188 12.6473 30.6668 12.6473 29.9064V26.0459H10.6004C10.3692 26.0459 10.1465 25.9373 10.0095 25.7618C9.87246 25.578 9.82108 25.344 9.88959 25.1268L11.9365 18.0325C12.0478 17.6482 12.4589 17.4226 12.8529 17.5312C13.2468 17.6398 13.4781 18.0409 13.3667 18.4253L11.5853 24.6003H13.3924C13.8035 24.6003 14.1375 24.9262 14.1375 25.3273V29.9147C14.1375 30.249 14.3002 30.5832 14.5829 30.8005C14.9511 31.0929 15.4907 31.1848 16.1501 31.0511C16.5612 30.9676 17.3834 30.7336 18.6081 30.3492C19.0021 30.2239 19.4131 30.4328 19.5416 30.8172C19.6701 31.2015 19.456 31.6026 19.062 31.728C17.7688 32.1374 16.9038 32.3797 16.4413 32.4717C16.1501 32.5301 15.8675 32.5552 15.602 32.5552L15.5849 32.5469Z" fill="black"/>
</g>
</svg>
