<svg width="40" height="40" viewBox="0 0 40 40" fill="none" xmlns="http://www.w3.org/2000/svg">
<path d="M31.6536 7.08241C26.9073 2.80476 20.1904 1.47064 14.1622 3.63064C8.14449 5.78005 3.76898 11.053 2.79429 17.3742C1.8196 23.6954 4.39405 30.0271 9.50058 33.8918C16.9379 39.5142 27.49 38.2753 33.4229 31.0965C39.3664 23.9071 38.5824 13.3189 31.643 7.08241H31.6536Z" fill="white"/>
<path d="M31.6539 7.08288C28.465 4.1923 24.3013 2.59347 19.9894 2.60406C19.6927 2.60406 19.3855 2.60405 19.0889 2.62523C26.3991 3.00641 32.6921 7.90876 34.8322 14.897C36.9829 21.8852 34.5144 29.477 28.6768 33.8817C25.9117 35.9782 22.5639 37.1852 19.0889 37.3546C19.3855 37.3758 19.6927 37.397 19.9894 37.397C27.1936 37.397 33.6562 32.9711 36.2413 26.2476C38.8263 19.5241 37.0041 11.9111 31.6539 7.08288Z" fill="#D3D2D1"/>
<path d="M15.2324 20.4231C15.4761 20.2113 15.5079 19.8196 15.296 19.576C15.0841 19.3325 14.6921 19.3007 14.4485 19.5125C14.2048 19.7348 13.9293 19.936 13.6645 20.1478C13.6221 19.3219 13.5373 18.496 13.4102 17.6807C13.8658 17.2148 14.3001 16.7384 14.7239 16.2513C14.9146 15.9972 14.8828 15.6478 14.6286 15.436C14.3743 15.2243 14.0247 15.2454 13.8022 15.4784C13.5797 15.7219 13.3572 15.9654 13.1453 16.209C12.9652 15.3831 12.7427 14.5784 12.4779 13.7737C12.8487 13.2443 13.1983 12.7148 13.5267 12.1643C13.6433 11.9737 13.6433 11.7513 13.5267 11.5607C13.4102 11.3807 13.2301 11.2643 13.0076 11.2537C12.7957 11.2431 12.5944 11.3595 12.4779 11.5395C12.3084 11.8148 12.1283 12.0901 11.9482 12.3548C11.6303 11.5501 11.2701 10.756 10.8569 9.99367C11.1218 9.41132 11.3866 8.82896 11.6091 8.23602C11.6833 8.04543 11.6515 7.81249 11.5138 7.64308C11.376 7.47367 11.1642 7.39954 10.9523 7.43131C10.7298 7.46307 10.5603 7.61131 10.4861 7.81249C10.3696 8.10896 10.2424 8.40543 10.1047 8.7019C9.69153 8.02426 9.25715 7.33602 8.7804 6.71131C8.65327 6.53131 8.44138 6.4572 8.22949 6.46778C8.00701 6.48896 7.8375 6.63719 7.75275 6.82778C7.66799 7.01837 7.68918 7.25131 7.82691 7.43131C8.25069 8.00307 8.64268 8.59602 9.01348 9.21013C8.69565 9.15719 8.36722 9.09367 8.03879 9.05132C7.71036 9.01955 7.41372 9.2419 7.38193 9.58073C7.33956 9.90896 7.57264 10.2054 7.89047 10.2478C8.51555 10.3325 9.16181 10.4384 9.78688 10.5548C10.1577 11.2537 10.4967 11.9843 10.7934 12.7254C10.4755 12.6195 10.1471 12.5137 9.81866 12.4395C9.60678 12.376 9.38429 12.4395 9.22538 12.5878C9.06646 12.736 9.01349 12.969 9.06646 13.1807C9.13002 13.3925 9.29953 13.5513 9.51142 13.6043C10.1153 13.7737 10.7086 13.9537 11.3125 14.1654C11.5562 14.9066 11.768 15.6584 11.9376 16.4313C11.6303 16.2831 11.3125 16.1348 11.0052 15.9972C10.8145 15.9019 10.5815 15.9337 10.4014 16.0607C10.2213 16.1878 10.1365 16.3995 10.1683 16.6219C10.2001 16.8337 10.3378 17.0243 10.5391 17.109C11.1006 17.3419 11.6621 17.6172 12.213 17.8925C12.3402 18.6654 12.4249 19.4384 12.4461 20.2113C12.16 20.0207 11.874 19.8196 11.5879 19.6396C11.4078 19.5019 11.1642 19.4913 10.9735 19.5972C10.7828 19.7031 10.6556 19.9042 10.645 20.1266C10.6344 20.349 10.7722 20.5607 10.9629 20.6666C11.482 20.9737 11.9905 21.3125 12.4673 21.6831C12.4673 22.4666 12.4037 23.2396 12.3084 24.0231C12.0541 23.8007 11.7998 23.5572 11.5456 23.3348C11.2913 23.1125 10.9205 23.1443 10.698 23.409C10.4755 23.6631 10.5073 24.0443 10.7722 24.256C11.2277 24.6372 11.6621 25.0395 12.0965 25.4525C11.9587 26.236 11.7786 27.009 11.5562 27.7713C11.3443 27.5066 11.1324 27.2313 10.9205 26.9878C10.7086 26.7443 10.3166 26.7231 10.0729 26.9348C9.82926 27.1572 9.79748 27.5278 10.0094 27.7819C10.3908 28.2266 10.751 28.6819 11.1006 29.1584C10.8357 29.9313 10.5073 30.6831 10.1577 31.4242C9.98818 31.1384 9.83985 30.8313 9.65975 30.556C9.54321 30.3654 9.35251 30.2701 9.13002 30.2701C8.90754 30.2701 8.71684 30.3972 8.6109 30.5772C8.50495 30.7572 8.51555 30.9901 8.62149 31.1807C8.91814 31.6784 9.20418 32.1972 9.46904 32.7054C9.29953 33.0019 9.13002 33.309 8.93932 33.6054C8.75922 33.8807 8.84398 34.2513 9.11943 34.4313C9.39489 34.6113 9.76569 34.5266 9.9458 34.2407C10.1577 33.9019 10.3484 33.5631 10.5391 33.2348C11.2065 33.0866 11.8846 32.9278 12.5414 32.7372C12.8593 32.6419 13.05 32.3137 12.9546 31.996C12.8593 31.6784 12.5309 31.4878 12.213 31.5831C11.8952 31.6784 11.5773 31.7525 11.2595 31.816C11.6197 31.0643 11.927 30.3019 12.213 29.5184C12.8381 29.296 13.4844 29.0419 14.0988 28.7666C14.3955 28.629 14.5438 28.2795 14.4061 27.9725C14.2683 27.676 13.9187 27.5278 13.6115 27.6654C13.3148 27.8031 12.9864 27.909 12.6792 28.036C12.9017 27.2525 13.0924 26.4478 13.2407 25.6431C13.834 25.3254 14.4061 24.9972 14.9676 24.6372C15.243 24.4572 15.3278 24.0866 15.1583 23.8113C14.9782 23.536 14.6074 23.4513 14.3319 23.6207C14.0565 23.8007 13.7492 23.9595 13.4632 24.129C13.5585 23.3137 13.6115 22.4984 13.6221 21.6831C14.1412 21.2913 14.6497 20.889 15.1477 20.4548H15.1901L15.2324 20.4231Z" fill="#EE4335"/>
<path d="M31.9296 9.06181C31.6117 9.10416 31.2833 9.16769 30.9549 9.22063C31.3257 8.60652 31.7177 8.01357 32.1415 7.44181C32.2686 7.26181 32.3004 7.03946 32.2156 6.83828C32.1309 6.6371 31.9508 6.51005 31.7389 6.47828C31.5164 6.45711 31.3151 6.54181 31.188 6.72181C30.7112 7.34652 30.2768 8.03475 29.8637 8.7124C29.7365 8.41592 29.6094 8.11946 29.4823 7.82299C29.4081 7.6324 29.228 7.48416 29.0161 7.44181C28.8042 7.41005 28.5923 7.49475 28.4546 7.65357C28.3169 7.82298 28.2745 8.04534 28.3592 8.24652C28.5923 8.83946 28.836 9.42181 29.1114 10.0042C28.7089 10.7665 28.3486 11.5606 28.0202 12.3653C27.8401 12.1006 27.66 11.8253 27.4905 11.55C27.374 11.3595 27.1833 11.2536 26.9608 11.2642C26.7383 11.2642 26.5476 11.3912 26.4416 11.5712C26.3357 11.7618 26.3357 11.9842 26.4416 12.1748C26.7701 12.7253 27.1197 13.2547 27.4905 13.7842C27.2256 14.5783 27.0031 15.3936 26.823 16.2195C26.6006 15.9759 26.3675 15.743 26.1662 15.4889C25.9437 15.2453 25.5729 15.203 25.3186 15.4148C25.0644 15.6265 25.0326 16.0077 25.2445 16.2618C25.6682 16.7595 26.1026 17.2359 26.5582 17.6912C26.431 18.5065 26.3463 19.3324 26.3039 20.1583C26.0496 19.9571 25.7742 19.7453 25.5305 19.523C25.2868 19.3112 24.9054 19.343 24.683 19.5865C24.4605 19.83 24.4923 20.2218 24.7465 20.4336C25.2445 20.8571 25.7636 21.2701 26.2827 21.6618C26.2827 22.4771 26.3463 23.303 26.4416 24.1077C26.1556 23.9383 25.8589 23.7795 25.5729 23.5995C25.3928 23.483 25.1597 23.4724 24.969 23.5783C24.7783 23.6842 24.6618 23.8642 24.6512 24.0865C24.6512 24.3089 24.7571 24.4995 24.9266 24.6159C25.4881 24.9653 26.0708 25.3042 26.6535 25.6218C26.8019 26.4265 26.982 27.2312 27.215 28.0148C26.9078 27.8877 26.59 27.7818 26.2827 27.6442C25.9861 27.5065 25.6259 27.6442 25.4881 27.9512C25.3504 28.2583 25.4881 28.6077 25.7954 28.7453C26.4098 29.0206 27.0561 29.2748 27.6812 29.4971C27.9566 30.2806 28.2745 31.0536 28.6347 31.8053C28.3169 31.7206 27.999 31.6465 27.6812 31.5618C27.3633 31.4665 27.0349 31.6571 26.9396 31.9748C26.8442 32.2924 27.0349 32.6312 27.3528 32.7159C28.0096 32.9065 28.6877 33.0653 29.3551 33.2136C29.5352 33.5418 29.7259 33.8806 29.9484 34.2089C30.1179 34.4842 30.4993 34.5689 30.7748 34.3995C31.0502 34.2195 31.135 33.8489 30.9549 33.5736C30.7748 33.2771 30.5947 32.97 30.4252 32.6736C30.69 32.1548 30.9761 31.6465 31.2727 31.1489C31.4528 30.8736 31.3575 30.503 31.082 30.323C30.8066 30.143 30.4358 30.2383 30.2556 30.5242C30.0755 30.7995 29.9272 31.1065 29.7577 31.3924C29.4081 30.6618 29.0903 29.8995 28.8148 29.1265C29.1644 28.65 29.5246 28.1948 29.906 27.7501C30.1179 27.5065 30.0967 27.1253 29.8425 26.903C29.5988 26.6806 29.2174 26.7124 28.9949 26.9559C28.783 27.2101 28.5711 27.4853 28.3592 27.7395C28.1368 26.9771 27.9567 26.2042 27.8083 25.4206C28.2321 25.0077 28.6771 24.6053 29.1326 24.2242C29.3021 24.0865 29.3763 23.8747 29.3445 23.6524C29.3021 23.4406 29.1644 23.2606 28.9525 23.1865C28.7406 23.1124 28.5182 23.1547 28.3486 23.303C28.0944 23.5253 27.8401 23.7583 27.5858 23.9912C27.4905 23.2183 27.4375 22.4347 27.4269 21.6512C27.9249 21.3018 28.4334 20.963 28.9313 20.6348C29.122 20.5289 29.2492 20.3277 29.2492 20.0947C29.2492 19.8618 29.122 19.6606 28.9208 19.5653C28.7195 19.47 28.4758 19.4806 28.2957 19.6077C28.0096 19.7877 27.713 19.9783 27.4375 20.1795C27.4799 19.4065 27.5541 18.623 27.6706 17.8606C28.2215 17.5853 28.7724 17.3101 29.3445 17.0771C29.6412 16.9395 29.7789 16.59 29.6518 16.2936C29.514 15.9971 29.175 15.8489 28.8678 15.9759C28.5605 16.1136 28.2427 16.2618 27.9355 16.41C28.105 15.6477 28.3169 14.8959 28.5605 14.1442C29.1538 13.9324 29.7577 13.7524 30.3616 13.583C30.5841 13.53 30.743 13.3606 30.8066 13.1595C30.8701 12.9477 30.8066 12.7253 30.6476 12.5665C30.4887 12.4077 30.2662 12.3547 30.0544 12.4183C29.7365 12.503 29.4187 12.6089 29.0797 12.7042C29.3763 11.963 29.7047 11.2324 30.0755 10.5336C30.7112 10.4065 31.3469 10.3112 31.9719 10.2265C32.2898 10.1736 32.5229 9.88769 32.4805 9.55946C32.4381 9.24181 32.1521 8.99828 31.8236 9.03005L31.866 9.05123L31.9296 9.06181Z" fill="#EE4335"/>
<path d="M34.3761 13.9332C34.2383 13.6261 33.8887 13.4885 33.5921 13.6155C33.2954 13.7426 33.1471 14.1026 33.2742 14.399C34.7787 17.9779 34.7787 22.0226 33.2742 25.6014C33.2107 25.7496 33.2107 25.9085 33.2742 26.0567C33.3378 26.2049 33.4543 26.3214 33.5921 26.3849C33.6662 26.4167 33.751 26.4379 33.8251 26.4379C34.0582 26.4379 34.2807 26.2896 34.3866 26.0779C36.0288 22.192 36.0288 17.819 34.3866 13.9437L34.3761 13.9332Z" fill="#EFEFEF"/>
<path d="M6.4072 13.615C6.25887 13.5515 6.09996 13.5515 5.95163 13.615C5.80331 13.6786 5.68678 13.795 5.62321 13.9327C3.98107 17.8186 3.98107 22.1915 5.62321 26.0668C5.71856 26.2786 5.93045 26.4268 6.18471 26.4268C6.26947 26.4268 6.34363 26.4056 6.41779 26.3739C6.56612 26.3103 6.67206 26.1939 6.73563 26.0456C6.7992 25.8974 6.7992 25.7386 6.73563 25.5903C5.23122 22.0115 5.23122 17.9668 6.73563 14.388C6.7992 14.2397 6.7992 14.0809 6.73563 13.9327C6.67206 13.7844 6.56612 13.668 6.41779 13.6044H6.4072V13.615Z" fill="#EFEFEF"/>
<path d="M20 38C29.9482 38 38 29.9423 38 20.0106C38 10.0788 29.9482 2 20 2C10.0518 2 2 10.0577 2 19.9894C2.01059 29.9212 10.0624 37.9788 20 37.9788V38ZM20 3.20706C29.2913 3.20706 36.8028 10.7247 36.8028 20C36.8028 29.2753 29.2807 36.7929 20 36.7929C10.7192 36.7929 3.19717 29.2753 3.19717 20C3.20777 10.7247 10.7298 3.21765 20 3.20706Z" fill="black"/>
</svg>
