<svg width="40" height="40" viewBox="0 0 40 40" fill="none" xmlns="http://www.w3.org/2000/svg">
<g clip-path="url(#clip0_225_10285)">
<path d="M13.8652 7.16731V4.27539H26.1471V7.16731" fill="#FEEC76"/>
<path d="M23.8447 7.16633V4.27441H26.1528V7.16633" fill="#EACB1B"/>
<path d="M9.79775 40.0001C9.67816 40.0001 9.55857 39.9775 9.45094 39.91C9.10413 39.73 8.98453 39.3138 9.17588 38.9875L13.2419 32.1685C13.4333 31.8422 13.8758 31.7297 14.2226 31.9098C14.5694 32.0898 14.689 32.5059 14.4976 32.8323L10.4316 39.6512C10.3 39.8763 10.0608 40.0001 9.79775 40.0001Z" fill="black"/>
<path d="M30.6313 39.9988C30.3682 39.9988 30.1171 39.8637 29.9855 39.6274L26.2663 32.8084C26.0869 32.4708 26.2184 32.0659 26.5772 31.8972C26.936 31.7284 27.3665 31.8634 27.5459 32.1897L31.2651 39.0084C31.4445 39.346 31.313 39.7511 30.9542 39.9199C30.8466 39.9649 30.7389 39.9988 30.6313 39.9988Z" fill="black"/>
<path d="M29.3517 38.2594H11.1023C10.7077 38.2594 10.3848 37.9555 10.3848 37.5842C10.3848 37.2128 10.7077 36.9092 11.1023 36.9092H29.3517C29.7464 36.9092 30.0693 37.2128 30.0693 37.5842C30.0693 37.9555 29.7464 38.2594 29.3517 38.2594Z" fill="black"/>
<path d="M27.8528 35.3864H12.7605C12.3659 35.3864 12.043 35.0827 12.043 34.7114C12.043 34.3401 12.3659 34.0361 12.7605 34.0361H27.8528C28.2474 34.0361 28.5703 34.3401 28.5703 34.7114C28.5703 35.0827 28.2474 35.3864 27.8528 35.3864Z" fill="black"/>
<path d="M30.7477 32.5181H9.2564C8.40728 32.5181 7.72559 31.8767 7.72559 31.0777V8.61687C7.72559 7.81793 8.40728 7.17676 9.2564 7.17676H30.7477C31.5968 7.17676 32.2785 7.81793 32.2785 8.61687V31.0777C32.2785 31.8767 31.5968 32.5181 30.7477 32.5181Z" fill="#FF866E"/>
<path d="M32.2855 8.61687V31.0777C32.2855 31.8767 31.6038 32.5181 30.7547 32.5181H29.9893V7.17676H30.7547C31.6038 7.17676 32.2855 7.81793 32.2855 8.61687Z" fill="#FF6242"/>
<path d="M16.9365 32.5128V26.7402H23.0715V32.5128" fill="white"/>
<path d="M13.8642 28.1806C13.8642 28.9795 13.1826 29.6209 12.3335 29.6209C11.4844 29.6209 10.8027 28.9795 10.8027 28.1806C10.8027 27.3816 11.4844 26.7402 12.3335 26.7402C13.1826 26.7402 13.8642 27.3816 13.8642 28.1806Z" fill="#FEEC76"/>
<path d="M29.2207 28.1806C29.2207 28.9795 28.539 29.6209 27.6899 29.6209C26.8408 29.6209 26.1592 28.9795 26.1592 28.1806C26.1592 27.3816 26.8408 26.7402 27.6899 26.7402C28.539 26.7402 29.2207 27.3816 29.2207 28.1806Z" fill="#FEEC76"/>
<path d="M32.2796 22.404H7.71582V12.9521H32.2796V22.404Z" fill="#68D7FF"/>
<path d="M32.2837 22.403H29.9756V12.9512H32.2837V22.403Z" fill="#2AC4F2"/>
<path d="M30.7514 33.1959H9.26099C8.01725 33.1959 7.0127 32.2396 7.0127 31.0806V8.62071C7.0127 7.45047 8.02921 6.49414 9.26099 6.49414H30.7514C31.9951 6.49414 32.9997 7.45047 32.9997 8.62071V31.0806C32.9997 32.2509 31.9832 33.1959 30.7514 33.1959ZM9.26099 7.85563C8.80655 7.85563 8.44777 8.20438 8.44777 8.62071V31.0806C8.44777 31.5082 8.81851 31.8457 9.26099 31.8457H30.7514C31.2058 31.8457 31.5646 31.497 31.5646 31.0806V8.62071C31.5646 8.19312 31.1939 7.85563 30.7514 7.85563H9.26099Z" fill="black"/>
<path d="M23.845 10.7301H22.3142C21.9196 10.7301 21.5967 10.4262 21.5967 10.0549C21.5967 9.68353 21.9196 9.37988 22.3142 9.37988H23.845C24.2396 9.37988 24.5625 9.68353 24.5625 10.0549C24.5625 10.4262 24.2396 10.7301 23.845 10.7301Z" fill="white"/>
<path d="M20.7795 10.7311H19.2488C18.8541 10.7311 18.5312 10.4272 18.5312 10.0558C18.5312 9.68451 18.8541 9.38086 19.2488 9.38086H20.7795C21.1742 9.38086 21.4971 9.68451 21.4971 10.0558C21.4971 10.4272 21.1742 10.7311 20.7795 10.7311Z" fill="white"/>
<path d="M17.7014 10.7321H16.1707C15.776 10.7321 15.4531 10.4281 15.4531 10.0568C15.4531 9.68548 15.776 9.38184 16.1707 9.38184H17.7014C18.0961 9.38184 18.419 9.68548 18.419 10.0568C18.419 10.4281 18.0961 10.7321 17.7014 10.7321Z" fill="white"/>
<path d="M23.0742 33.1873C22.6795 33.1873 22.3566 32.8836 22.3566 32.5123V27.4149H17.6568V32.5123C17.6568 32.8836 17.3339 33.1873 16.9392 33.1873C16.5446 33.1873 16.2217 32.8836 16.2217 32.5123V26.7397C16.2217 26.3684 16.5446 26.0645 16.9392 26.0645H23.0742C23.4688 26.0645 23.7917 26.3684 23.7917 26.7397V32.5123C23.7917 32.8836 23.4688 33.1873 23.0742 33.1873Z" fill="black"/>
<path d="M32.2824 13.6152H7.71757C7.32291 13.6152 7 13.3113 7 12.9399C7 12.5686 7.32291 12.2646 7.71757 12.2646H32.2824C32.6771 12.2646 33 12.5686 33 12.9399C33 13.3113 32.6771 13.6152 32.2824 13.6152Z" fill="black"/>
<path d="M32.2789 23.067H10.0232C9.62855 23.067 9.30566 22.7631 9.30566 22.3918C9.30566 22.0204 9.62855 21.7168 10.0232 21.7168H32.2789C32.6735 21.7168 32.9964 22.0204 32.9964 22.3918C32.9964 22.7631 32.6735 23.067 32.2789 23.067Z" fill="black"/>
<path d="M20.0007 23.067C19.6061 23.067 19.2832 22.763 19.2832 22.3917V12.9399C19.2832 12.5686 19.6061 12.2646 20.0007 12.2646C20.3954 12.2646 20.7183 12.5686 20.7183 12.9399V22.3917C20.7183 22.763 20.3954 23.067 20.0007 23.067Z" fill="black"/>
<path d="M12.3372 30.2978C11.0934 30.2978 10.0889 29.3415 10.0889 28.1712C10.0889 27.001 11.1054 26.0557 12.3372 26.0557C13.5689 26.0557 14.5974 27.0123 14.5974 28.1712C14.5974 29.3302 13.5809 30.2978 12.3372 30.2978ZM12.3372 27.4062C11.8827 27.4062 11.5239 27.7549 11.5239 28.1712C11.5239 28.5876 11.8947 28.9363 12.3372 28.9363C12.7796 28.9363 13.1504 28.5876 13.1504 28.1712C13.1504 27.7549 12.7796 27.4062 12.3372 27.4062Z" fill="black"/>
<path d="M27.679 30.2978C26.4352 30.2978 25.4307 29.3415 25.4307 28.1712C25.4307 27.001 26.4472 26.0557 27.679 26.0557C28.9107 26.0557 29.9272 27.0123 29.9272 28.1712C29.9272 29.3302 28.9107 30.2978 27.679 30.2978ZM27.679 27.4062C27.2245 27.4062 26.8657 27.7549 26.8657 28.1712C26.8657 28.5876 27.2365 28.9363 27.679 28.9363C28.1214 28.9363 28.4922 28.5876 28.4922 28.1712C28.4922 27.7549 28.1214 27.4062 27.679 27.4062Z" fill="black"/>
<path d="M26.1449 7.84468C25.7503 7.84468 25.4274 7.54103 25.4274 7.16971V4.95304H14.5806V7.16971C14.5806 7.54103 14.2577 7.84468 13.863 7.84468C13.4684 7.84468 13.1455 7.54103 13.1455 7.16971V4.27779C13.1455 3.90646 13.4684 3.60254 13.863 3.60254H26.1449C26.5396 3.60254 26.8625 3.90646 26.8625 4.27779V7.16971C26.8625 7.54103 26.5396 7.84468 26.1449 7.84468Z" fill="black"/>
<path d="M23.0742 30.2994H16.9392C16.5446 30.2994 16.2217 29.9958 16.2217 29.6245C16.2217 29.2531 16.5446 28.9492 16.9392 28.9492H23.0742C23.4688 28.9492 23.7917 29.2531 23.7917 29.6245C23.7917 29.9958 23.4688 30.2994 23.0742 30.2994Z" fill="black"/>
<path d="M19.9988 4.96217C19.6041 4.96217 19.2812 4.65852 19.2812 4.28719V0.675248C19.2812 0.303922 19.6041 0 19.9988 0C20.3934 0 20.7163 0.303922 20.7163 0.675248V4.28719C20.7163 4.65852 20.3934 4.96217 19.9988 4.96217Z" fill="black"/>
<path d="M26.912 1.35022H13.0994C12.7047 1.35022 12.3818 1.04657 12.3818 0.675248C12.3818 0.303922 12.7047 0 13.0994 0H26.912C27.3066 0 27.6295 0.303922 27.6295 0.675248C27.6295 1.04657 27.3066 1.35022 26.912 1.35022Z" fill="black"/>
</g>
<defs>
<clipPath id="clip0_225_10285">
<rect width="40" height="40" fill="white"/>
</clipPath>
</defs>
</svg>
