<svg width="40" height="40" viewBox="0 0 40 40" fill="none" xmlns="http://www.w3.org/2000/svg">
<g clip-path="url(#clip0_225_10333)">
<path d="M20.0065 12.7143L12.6641 16.3803C11.3123 17.0562 10.6979 18.6434 11.2407 20.0565L16.3609 33.3687L22.4335 39.4411H29.7657C30.4109 39.4411 30.9434 38.9189 30.9434 38.2635V37.0859C30.9434 35.7035 29.8169 34.577 28.4344 34.577C27.052 34.577 25.8436 33.635 25.5057 32.2935L24.8605 29.713L27.2875 19.9951L25.731 18.4283C25.1984 17.8959 24.4099 17.7115 23.6931 17.9471L22.8431 18.2338C21.901 18.5512 20.877 18.1211 20.4366 17.2405C20.1601 16.6773 20.1601 16.0219 20.4366 15.4587C20.8974 14.5371 20.7131 13.4312 19.986 12.7041" fill="#5289D2"/>
<path d="M13.103 17.3731L20.5683 13.6048C20.4557 13.2771 20.2611 12.9699 20.0051 12.7139L12.7139 16.3594C12.8982 16.8304 12.9699 17.0352 13.103 17.3731Z" fill="#0573C8"/>
<path fill-rule="evenodd" clip-rule="evenodd" d="M4.86426 39.4408C4.86426 39.1321 5.11457 38.8818 5.42335 38.8818H22.4328C22.7416 38.8818 22.9919 39.1321 22.9919 39.4408C22.9919 39.7494 22.7416 39.9997 22.4328 39.9997H5.42335C5.11457 39.9997 4.86426 39.7494 4.86426 39.4408Z" fill="black"/>
<path fill-rule="evenodd" clip-rule="evenodd" d="M0 39.4408C0 39.1321 0.250314 38.8818 0.559092 38.8818H2.99697C3.30575 38.8818 3.55606 39.1321 3.55606 39.4408C3.55606 39.7494 3.30575 39.9997 2.99697 39.9997H0.559092C0.250314 39.9997 0 39.7494 0 39.4408Z" fill="black"/>
<path d="M20.4457 15.4682C20.1692 16.0315 20.1692 16.6868 20.4457 17.25C20.886 18.1307 21.91 18.5608 22.8522 18.2433L23.7021 17.9566C24.419 17.7211 25.2075 17.9054 25.74 18.4379L27.2965 19.9944L28.4435 17.5675L39.452 6.631L30.9319 0.558594L23.528 11.1367C22.8112 12.1607 21.7872 12.9184 20.5993 13.3178L20.4764 13.4202C20.7631 14.0551 20.7631 14.8129 20.4354 15.458" fill="#F8CC9E"/>
<path d="M22.7912 17.2398C22.5147 16.6766 22.5147 16.0212 22.7912 15.458C23.1189 14.8026 23.1189 14.0551 22.8322 13.41L22.955 13.3076C24.1429 12.9082 25.167 12.1504 25.8838 11.1264L32.4992 1.67477L30.9324 0.558594L23.5285 11.1367C22.8117 12.1607 21.7876 12.9184 20.5997 13.3178L20.4768 13.4202C20.7636 14.0551 20.7636 14.8129 20.4359 15.458C20.1594 16.0212 20.1594 16.6766 20.4359 17.2398C20.8762 18.1204 21.9003 18.5505 22.8424 18.2331L23.4876 18.018C23.2008 17.8337 22.955 17.5675 22.781 17.2398" fill="#F0A36C"/>
<path d="M26.0465 17.9577L25.4014 18.1728C25.514 18.2444 25.6267 18.3366 25.7291 18.439L27.2856 19.9955L28.0331 18.398C27.5006 17.886 26.7326 17.7222 26.0363 17.9475" fill="#F0A36C"/>
<path d="M11.2407 20.0561L16.3609 33.3683L22.4335 39.4407H29.7657C30.4109 39.4407 30.9434 38.9184 30.9434 38.263V37.0854C30.9434 37.0854 30.9434 37.0342 30.9434 37.0137H23.6521L18.7879 32.1497L12.7153 16.3594L12.6641 16.3799C11.3123 17.0557 10.6979 18.6429 11.2407 20.0561Z" fill="#E4F0FF"/>
<path d="M12.8075 20.0561C12.449 19.1345 12.5924 18.1412 13.1044 17.3731L12.7153 16.3594L12.6641 16.3799C11.3123 17.0557 10.6979 18.6429 11.2407 20.0561L16.3609 33.3683L22.4335 39.4407H24.0003L17.9277 33.3683L12.8075 20.0561Z" fill="#D2E6F8"/>
<path fill-rule="evenodd" clip-rule="evenodd" d="M19.7356 12.2142C19.9508 12.1067 20.2107 12.149 20.3808 12.319C21.2755 13.2137 21.5048 14.5768 20.9383 15.7144C20.8417 15.9161 20.7903 16.1394 20.7903 16.3597C20.7903 16.5938 20.8372 16.8097 20.9324 16.9934L20.9361 17.0007C21.2528 17.6339 21.9882 17.9418 22.6638 17.7143L23.5179 17.4262C24.4326 17.1256 25.4417 17.3599 26.125 18.0426C26.1248 18.0423 26.1252 18.0428 26.125 18.0426L27.6912 19.5985C27.8309 19.7373 27.8873 19.9393 27.8396 20.1303L25.4464 29.7128L26.0587 32.1617C26.1916 32.7102 26.5077 33.1765 26.9242 33.5014C27.3405 33.8261 27.8652 34.018 28.4338 34.018C30.1252 34.018 31.5018 35.3948 31.5018 37.0858V38.2634C31.5018 39.2305 30.716 39.9999 29.7651 39.9999H22.4329C22.2846 39.9999 22.1424 39.941 22.0375 39.8362L15.9649 33.7638C15.9097 33.7085 15.8666 33.6423 15.8385 33.5694L12.92 25.9917C12.809 25.7036 12.9527 25.3802 13.2409 25.2693C13.529 25.1584 13.8525 25.302 13.9635 25.59L16.8395 33.0572L22.6645 38.8821H29.7651C30.1045 38.8821 30.3837 38.607 30.3837 38.2634V37.0858C30.3837 36.0119 29.5074 35.1359 28.4338 35.1359C27.6097 35.1359 26.8441 34.8567 26.2364 34.3827C25.6294 33.9093 25.1674 33.2294 24.9724 32.427C24.9722 32.4264 24.9721 32.4257 24.9719 32.425L24.3277 29.8484C24.3055 29.7594 24.3055 29.6664 24.3277 29.5775L26.6778 20.1676L25.3362 18.8349L25.3349 18.8336C24.9537 18.4524 24.3871 18.3181 23.869 18.4875L23.0213 18.7735C21.8139 19.1803 20.5028 18.6297 19.9377 17.5041C19.7476 17.1358 19.6721 16.7388 19.6721 16.3597C19.6721 15.9667 19.7635 15.5768 19.9322 15.2264L19.9359 15.2189C20.229 14.6327 20.1815 13.9485 19.836 13.4136L12.8931 16.8801C11.7998 17.4269 11.3017 18.7105 11.7414 19.8557C11.7413 19.8556 11.7414 19.8558 11.7414 19.8557L13.0316 23.204C13.1426 23.4921 12.999 23.8155 12.7108 23.9265C12.4227 24.0375 12.0991 23.8939 11.9881 23.6058L10.6978 20.2573C10.0523 18.5765 10.7829 16.6852 12.3929 15.8803L19.7356 12.2142Z" fill="black"/>
<path fill-rule="evenodd" clip-rule="evenodd" d="M27.0859 37.015C27.0859 36.7063 27.3363 36.4561 27.645 36.4561H30.9331C31.2419 36.4561 31.4922 36.7063 31.4922 37.015C31.4922 37.3237 31.2419 37.5739 30.9331 37.5739H27.645C27.3363 37.5739 27.0859 37.3237 27.0859 37.015Z" fill="black"/>
<path fill-rule="evenodd" clip-rule="evenodd" d="M12.5129 15.8372C12.8011 15.7264 13.1246 15.8702 13.2354 16.1583L19.2654 31.8379L23.882 36.4543H25.0943C25.4031 36.4543 25.6534 36.7046 25.6534 37.0133C25.6534 37.3219 25.4031 37.5722 25.0943 37.5722H23.6504C23.5021 37.5722 23.3598 37.5133 23.255 37.4084L18.3908 32.5444C18.3355 32.489 18.2924 32.4228 18.2643 32.3498L12.1917 16.5595C12.0809 16.2713 12.2247 15.948 12.5129 15.8372Z" fill="black"/>
<path fill-rule="evenodd" clip-rule="evenodd" d="M31.2537 0.100816C31.5068 0.277624 31.5686 0.62608 31.3917 0.879114L23.9981 11.4572C23.2115 12.5809 22.0883 13.4112 20.7892 13.848C20.4965 13.9464 20.1795 13.7889 20.0811 13.4964C19.9826 13.2038 20.1401 12.8868 20.4328 12.7884C21.5094 12.4265 22.4345 11.741 23.0815 10.8169C23.0815 10.817 23.0816 10.8168 23.0815 10.8169L30.4751 0.238836C30.652 -0.0141986 31.0005 -0.0759922 31.2537 0.100816Z" fill="black"/>
<path fill-rule="evenodd" clip-rule="evenodd" d="M39.8382 6.24797C40.0559 6.46693 40.0548 6.82082 39.8357 7.03841L35.1661 11.6772C34.947 11.8948 34.593 11.8937 34.3754 11.6747C34.1577 11.4557 34.1589 11.1018 34.3779 10.8842L39.0476 6.24546C39.2666 6.02788 39.6206 6.029 39.8382 6.24797Z" fill="black"/>
<path fill-rule="evenodd" clip-rule="evenodd" d="M33.3664 12.6894C33.584 12.9084 33.5829 13.2623 33.3638 13.4799L28.9071 17.9062L27.802 20.2444C27.6701 20.5235 27.3369 20.6429 27.0577 20.511C26.7785 20.3792 26.6591 20.046 26.791 19.7669L27.9379 17.34C27.9657 17.2814 28.0034 17.228 28.0494 17.1823L32.5757 12.6868C32.7948 12.4693 33.1488 12.4704 33.3664 12.6894Z" fill="black"/>
<path fill-rule="evenodd" clip-rule="evenodd" d="M24.3018 22.431C24.3018 22.1223 24.552 21.8721 24.8607 21.8721H26.6834C26.9921 21.8721 27.2424 22.1223 27.2424 22.431C27.2424 22.7397 26.9921 22.9899 26.6834 22.9899H24.8607C24.552 22.9899 24.3018 22.7397 24.3018 22.431Z" fill="black"/>
<path fill-rule="evenodd" clip-rule="evenodd" d="M23.6973 24.8597C23.6973 24.551 23.9475 24.3008 24.2562 24.3008H26.0789C26.3876 24.3008 26.6379 24.551 26.6379 24.8597C26.6379 25.1684 26.3876 25.4186 26.0789 25.4186H24.2562C23.9475 25.4186 23.6973 25.1684 23.6973 24.8597Z" fill="black"/>
<path fill-rule="evenodd" clip-rule="evenodd" d="M23.0908 27.2953C23.0908 26.9866 23.3411 26.7363 23.6497 26.7363H25.4725C25.7812 26.7363 26.0314 26.9866 26.0314 27.2953C26.0314 27.6039 25.7812 27.8542 25.4725 27.8542H23.6497C23.3411 27.8542 23.0908 27.6039 23.0908 27.2953Z" fill="black"/>
<path fill-rule="evenodd" clip-rule="evenodd" d="M22.4785 29.722C22.4785 29.4133 22.7288 29.1631 23.0374 29.1631H24.8602C25.1689 29.1631 25.4191 29.4133 25.4191 29.722C25.4191 30.0307 25.1689 30.2809 24.8602 30.2809H23.0374C22.7288 30.2809 22.4785 30.0307 22.4785 29.722Z" fill="black"/>
<path fill-rule="evenodd" clip-rule="evenodd" d="M24.3018 34.5765C24.3018 34.2678 24.5521 34.0176 24.8609 34.0176H28.4255C28.7343 34.0176 28.9846 34.2678 28.9846 34.5765C28.9846 34.8852 28.7343 35.1354 28.4255 35.1354H24.8609C24.5521 35.1354 24.3018 34.8852 24.3018 34.5765Z" fill="black"/>
<path fill-rule="evenodd" clip-rule="evenodd" d="M9.71973 33.3685C9.71973 33.0598 9.97004 32.8096 10.2788 32.8096H13.9254C14.2342 32.8096 14.4845 33.0598 14.4845 33.3685C14.4845 33.6772 14.2342 33.9274 13.9254 33.9274H10.2788C9.97004 33.9274 9.71973 33.6772 9.71973 33.3685Z" fill="black"/>
<path fill-rule="evenodd" clip-rule="evenodd" d="M4.86426 33.3685C4.86426 33.0598 5.11457 32.8096 5.42335 32.8096H7.85099C8.15976 32.8096 8.41008 33.0598 8.41008 33.3685C8.41008 33.6772 8.15976 33.9274 7.85099 33.9274H5.42335C5.11457 33.9274 4.86426 33.6772 4.86426 33.3685Z" fill="black"/>
<path fill-rule="evenodd" clip-rule="evenodd" d="M4.85449 27.2953C4.85449 26.9866 5.10481 26.7363 5.41358 26.7363H10.2778C10.5866 26.7363 10.8369 26.9866 10.8369 27.2953C10.8369 27.6039 10.5866 27.8542 10.2778 27.8542H5.41358C5.10481 27.8542 4.85449 27.6039 4.85449 27.2953Z" fill="black"/>
<path fill-rule="evenodd" clip-rule="evenodd" d="M0 27.2953C0 26.9866 0.250314 26.7363 0.559092 26.7363H2.99697C3.30575 26.7363 3.55606 26.9866 3.55606 27.2953C3.55606 27.6039 3.30575 27.8542 2.99697 27.8542H0.559092C0.250314 27.8542 0 27.6039 0 27.2953Z" fill="black"/>
<path fill-rule="evenodd" clip-rule="evenodd" d="M16.4327 13.8712C16.7204 13.7593 17.0443 13.9018 17.1562 14.1895L17.3007 14.5609C18.6303 18.0352 18.3305 21.9187 16.4634 25.1379C16.3085 25.405 15.9665 25.4959 15.6995 25.341C15.4325 25.1861 15.3416 24.8441 15.4964 24.5771C17.1926 21.6526 17.4665 18.1229 16.2572 14.9619L16.1144 14.5947C16.0025 14.307 16.145 13.983 16.4327 13.8712Z" fill="black"/>
</g>
<defs>
<clipPath id="clip0_225_10333">
<rect width="40" height="40" fill="white"/>
</clipPath>
</defs>
</svg>
