<svg width="40" height="41" viewBox="0 0 40 41" fill="none" xmlns="http://www.w3.org/2000/svg">
<g clip-path="url(#clip0_225_10310)">
<path d="M9.29633 20.8237V24.1528L5.30148 26.1503L1.30664 30.8108L2.63826 32.1426L6.6331 28.8136L11.9596 26.1503L14.6228 21.4895L9.29633 20.8237Z" fill="#966342"/>
<path d="M25.2764 22.8215L28.6054 30.1454L31.9344 34.1402H33.266L29.937 26.8163L28.6054 22.1558L25.2764 22.8215Z" fill="#966342"/>
<path d="M39.2587 18.159L37.5942 19.8236L36.1484 18.6061L34.1985 16.9606L33.2664 16.1713L29.9374 19.5003V23.4951L26.6083 24.8266L24.8011 25.1501L21.9477 25.6733C20.2546 25.9777 18.5045 25.5401 17.1634 24.4653C16.7068 24.1039 16.2027 23.8089 15.6606 23.5901C15.2611 23.4284 14.8426 23.3144 14.4241 23.2383L11.9606 22.8294L9.96316 20.1661L8.91689 20.4324C8.64106 20.499 8.38425 20.6035 8.13695 20.7366C7.48065 21.0981 6.96702 21.6785 6.69119 22.3728C6.25366 23.4762 5.24544 24.2465 4.07552 24.3987L0.651367 24.8266L3.7331 22.2586C4.33233 21.764 4.77937 21.1077 5.02667 20.3658C5.59736 18.6537 7.1953 17.5028 9.00249 17.5028H9.98218L11.6467 16.9511C13.0544 16.485 14.5858 16.5136 15.9744 17.0368C16.0601 17.0653 16.1457 17.1034 16.2313 17.1415C17.7721 17.7978 19.5127 17.8357 21.0726 17.2365L23.2888 16.39L32.2677 12.9658L32.6101 12.8327H33.6088L33.2759 11.501L35.9392 12.8327L36.4528 13.6506L38.2409 16.5231L39.2682 18.159H39.2587Z" fill="#AD7D4D"/>
<path d="M9.96324 18.8262C9.1072 19.6822 8.63162 20.833 8.63162 22.041V22.2692C8.63162 23.4772 9.1072 24.6282 9.96324 25.4842L7.96582 27.4815L9.96324 34.1396H11.2949L10.629 29.479L13.5015 26.6065C14.2339 25.8742 14.738 24.942 14.9378 23.9242C15.1661 22.7733 15.0044 21.5843 14.4812 20.5381L13.9581 19.4919L9.96324 18.8262Z" fill="#AD7D4D"/>
<path d="M23.9453 20.8217L24.4684 22.9142C24.963 24.8831 26.561 26.3765 28.5489 26.7379L32.6008 27.4703L36.5956 30.7993L39.2589 30.1336L33.9324 24.807L29.9376 23.4755V23.1235C29.9376 21.2972 28.9103 19.6329 27.2743 18.8149L23.9453 20.8122V20.8217Z" fill="#AD7D4D"/>
<path d="M38.2311 16.5231L36.1481 18.6061L34.1982 16.9606L35.2635 14.8396L36.443 13.6602L38.2311 16.5327V16.5231Z" fill="#E44B4D"/>
<path d="M23.2789 16.3911V21.4987H15.9551V17.0378C16.0407 17.0664 16.1263 17.1045 16.2119 17.1426C17.7528 17.7989 19.4934 17.8368 21.0533 17.2375L23.2694 16.3911H23.2789Z" fill="#E44B4D"/>
<path d="M25.9423 10.8364H22.6133V12.1682H25.6094L25.9423 10.8364Z" fill="#F2C194"/>
<path d="M27.2734 10.1699V9.83688C27.2734 8.91426 26.5315 8.17236 25.6089 8.17236C24.6862 8.17236 23.9443 8.91426 23.9443 9.83688V10.1699H27.2734Z" fill="#E44B4D"/>
<path d="M23.9443 10.1694V10.5024C23.9443 11.425 24.6862 12.1669 25.6089 12.1669C26.5315 12.1669 27.2734 11.425 27.2734 10.5024V10.1694H23.9443Z" fill="#F4CEAF"/>
<path d="M22.8888 16.6669L22.613 17.5038L17.258 15.0688C16.4115 14.6883 16.031 13.6897 16.421 12.8337C16.478 12.7101 16.5541 12.5863 16.6397 12.4721C17.0297 11.9775 17.5148 11.5685 18.0474 11.2451L18.6086 13.4995L22.1469 15.0119C22.7842 15.2877 23.1076 16.0011 22.8888 16.6574V16.6669Z" fill="#D3E1E9"/>
<path d="M28.1103 15.0309L27.8345 15.0785L25.2759 15.5065L22.879 13.5092H18.6178L18.0566 11.2549C18.0566 11.2549 19.3312 10.6747 20.035 10.5796L22.1751 10.3132C22.86 10.2276 23.5448 10.5035 23.9823 11.0456L25.9512 13.4997L27.3589 13.1476L27.7108 13.0622C27.7869 13.0432 27.8725 13.0336 27.9581 13.0336C28.5098 13.0336 28.9664 13.4807 28.9664 14.0419C28.9664 14.5365 28.6144 14.9548 28.1294 15.0309H28.1103Z" fill="#8ACCE7"/>
<path d="M20.1493 16.3706L17.9521 21.4877H21.947L20.6154 20.1562L22.6128 17.4929L20.1493 16.3706Z" fill="#395166"/>
<path d="M28.1105 15.0293L27.8347 15.0769L27.3496 13.1555L27.7015 13.0701C27.7776 13.051 27.8632 13.0415 27.9488 13.0415C28.5005 13.0415 28.957 13.4886 28.957 14.0498C28.957 14.5444 28.6051 14.9627 28.12 15.0388L28.1105 15.0293Z" fill="#F4CEAF"/>
<path d="M39.7336 29.6781L34.4071 24.3516C34.331 24.2755 34.2454 24.228 34.1503 24.19L30.612 23.0106V19.7672L33.3133 17.0658L37.175 20.3282C37.4413 20.5565 37.8313 20.5374 38.0786 20.2901L39.7431 18.6256C39.9619 18.4069 39.9999 18.0646 39.8382 17.7982L36.5092 12.4717C36.4426 12.3671 36.3475 12.2815 36.2429 12.2244L33.5796 10.8929C33.2467 10.7312 32.8473 10.8644 32.6856 11.1878C32.619 11.3305 32.6 11.4921 32.638 11.6443L32.7616 12.1485H32.619C32.5334 12.1485 32.4573 12.1673 32.3812 12.1958L29.4707 13.2993C29.1282 12.5859 28.3293 12.2055 27.5588 12.3958L26.3889 12.6904C27.2069 12.4051 27.8061 11.6823 27.9298 10.8262H27.9488C28.3198 10.8262 28.6146 10.5314 28.6146 10.1605C28.6146 9.78951 28.3198 9.4947 27.9488 9.4947H27.9203C27.7395 8.22015 26.5601 7.33552 25.2856 7.52575C24.1632 7.68744 23.3167 8.6387 23.2882 9.77057C22.9077 9.63741 22.4987 9.59924 22.0992 9.6468L19.9591 9.91315C18.4563 10.0939 17.0771 10.8643 16.1355 12.0532C15.327 13.071 15.4887 14.5452 16.5064 15.3632C16.6586 15.4869 16.8298 15.5916 17.001 15.6677L19.2933 16.7043L19.1792 16.9706C18.2565 17.0372 17.3434 16.8755 16.4969 16.5141C14.8895 15.8293 13.0918 15.7532 11.4368 16.3049L9.87689 16.8281H9.01134C6.91881 16.8281 5.06405 18.1597 4.40776 20.1476C4.1985 20.7658 3.82756 21.3174 3.32344 21.7359L0.241709 24.304C-0.0436367 24.5418 -0.0816793 24.9605 0.156109 25.2459C0.298782 25.4171 0.527056 25.5122 0.755333 25.4836L4.17948 25.0554C5.5967 24.8747 6.80467 23.9428 7.33731 22.6207C7.4895 22.2497 7.71777 21.9168 8.02214 21.6505C8.01263 21.7836 8.00312 21.9167 8.00312 22.0499V22.2781C8.00312 22.8488 8.09824 23.41 8.27896 23.9427L5.04504 25.5596C4.96894 25.5976 4.89285 25.6548 4.83578 25.7214L0.840933 30.382C0.612657 30.6483 0.63168 31.0382 0.87898 31.2855L2.2106 32.6173C2.4579 32.8646 2.83836 32.8739 3.10468 32.6551L7.04246 29.3737L7.77484 29.0124L9.37278 34.3292C9.45838 34.6145 9.7152 34.8048 10.0101 34.8048H11.3417C11.7126 34.8048 12.0075 34.5099 12.0075 34.139C12.0075 34.1105 12.0075 34.0726 12.0075 34.044L11.3892 29.7162L14.0239 27.0815C14.8039 26.3016 15.346 25.3219 15.6028 24.2566C16.0309 24.4468 16.4398 24.6846 16.8108 24.9795C18.3041 26.178 20.2445 26.663 22.1277 26.3205L25.3617 25.7307C25.6375 26.0161 25.9419 26.2729 26.2748 26.4917L28.0629 30.4201C28.0915 30.4771 28.12 30.5246 28.1581 30.5722L31.4871 34.567C31.6107 34.7192 31.801 34.8048 32.0007 34.8048H33.3323C33.7033 34.8048 33.9981 34.5099 33.9981 34.139C33.9981 34.0439 33.9791 33.9487 33.9411 33.8631L31.2303 27.8994L32.3812 28.1086L36.2429 31.3236C36.4046 31.4568 36.6233 31.5137 36.8326 31.4567L39.4958 30.7909C39.8572 30.7053 40.0665 30.344 39.9809 29.9826C39.9524 29.8684 39.8953 29.7542 39.8097 29.6686L39.7336 29.6781ZM36.3285 14.7165L37.3938 16.4286L36.1192 17.703L35.0349 16.79L35.8148 15.2302L36.3285 14.7165ZM37.565 18.9205L37.1465 18.5592L38.1261 17.5795L38.4305 18.0551L37.5745 18.911L37.565 18.9205ZM26.3223 11.2068C25.9894 11.5397 25.4758 11.5967 25.0763 11.3399L24.6768 10.8453C24.6768 10.8453 24.6768 10.8453 24.6768 10.8357H26.5601C26.5126 10.9784 26.427 11.1022 26.3223 11.2068ZM25.6185 8.83846C26.037 8.83846 26.4175 9.10473 26.5601 9.50422H24.6768C24.8195 9.10473 25.1905 8.83846 25.6185 8.83846ZM20.1208 11.2352L22.2609 10.969C22.7175 10.912 23.174 11.1022 23.4689 11.4541L25.4378 13.9079C25.5995 14.1077 25.8658 14.2028 26.1226 14.1362L27.8822 13.6987C28.0534 13.6607 28.2246 13.7558 28.2817 13.9175C28.3388 14.0982 28.2437 14.2884 28.0629 14.3454C28.0439 14.3454 28.0249 14.355 28.0154 14.355L25.4853 14.7736L21.7283 11.6443L20.8722 12.6714L21.0529 12.8237H19.1506L18.8368 11.5872C19.2457 11.4065 19.6833 11.2827 20.1208 11.2256V11.2352ZM22.2324 20.8229L21.5 20.0904L22.6224 18.5971V20.8133H22.2324V20.8229ZM23.5164 15.582C23.3357 15.0493 22.9362 14.6213 22.4226 14.4026L21.8709 14.1648H22.6509L24.0966 15.3632L23.5259 15.582H23.5164ZM16.9725 13.7654C16.8964 13.461 16.9725 13.1374 17.1722 12.8901C17.3244 12.6999 17.4861 12.5289 17.6573 12.3672L17.9807 13.6606C18.0283 13.8604 18.1709 14.0316 18.3612 14.1077L21.8995 15.6201C22.2133 15.7532 22.375 16.1148 22.2704 16.4382L22.2229 16.5712L17.5432 14.4406C17.2578 14.3075 17.0486 14.0507 16.9725 13.7463V13.7654ZM21.5856 17.7602L20.0828 19.7577C19.883 20.024 19.9116 20.3949 20.1493 20.6231L20.3491 20.8229H18.9699L20.5013 17.256L21.5951 17.7506L21.5856 17.7602ZM17.5146 20.8229H16.6206V17.9884C17.2578 18.1882 17.9236 18.3024 18.5895 18.3119L17.5146 20.8229ZM6.33861 28.2133C6.33861 28.2133 6.253 28.261 6.20544 28.299L2.67666 31.2379L2.2106 30.7719L5.72035 26.6819L8.82112 25.1316C8.89721 25.2362 8.9733 25.3505 9.04939 25.4551L7.4895 27.0149C7.31829 27.1861 7.25171 27.4428 7.31829 27.6806V27.7187L6.32909 28.2229L6.33861 28.2133ZM13.8908 20.8324C14.7753 22.6015 14.4234 24.7322 13.0347 26.1304L10.1622 29.0029C10.0101 29.155 9.94348 29.3642 9.97201 29.5639L10.5332 33.4637H10.4666L8.726 27.6616L10.4381 25.9497C10.6949 25.6929 10.6949 25.2649 10.4381 25.0081C9.70569 24.2852 9.29669 23.2959 9.3062 22.2686V22.0404C9.3062 21.0131 9.7152 20.024 10.4381 19.3011L9.49643 18.3593C9.0589 18.7968 8.69746 19.3105 8.44065 19.8717C7.35634 20.2426 6.49079 21.0607 6.06277 22.126C5.71084 23.0011 4.91187 23.6193 3.97974 23.7334L2.80983 23.876L4.14144 22.7632C4.83578 22.183 5.3494 21.4221 5.63475 20.566C6.11032 19.1298 7.46096 18.1596 8.9733 18.1596H9.95298C10.0291 18.1596 10.0957 18.15 10.1622 18.1215L11.8268 17.57C12.9396 17.199 14.1476 17.1704 15.2794 17.5033V20.7184C15.2129 20.5567 15.1463 20.395 15.0702 20.2428L14.5471 19.1964L13.3581 19.7955L13.8813 20.8419L13.8908 20.8324ZM21.8329 24.9985C20.3301 25.2744 18.7797 24.8843 17.5812 23.9236C17.0201 23.4671 16.3828 23.1153 15.6979 22.868C15.6979 22.6016 15.6789 22.3257 15.6409 22.0594C15.736 22.107 15.8406 22.1356 15.9548 22.1356H23.2786C23.3833 22.1356 23.4784 22.107 23.5735 22.0689L23.8208 23.0677C23.9444 23.5813 24.1442 24.0664 24.4105 24.523L21.8329 24.989V24.9985ZM32.21 33.4256L29.1663 29.7731L28.0439 27.3003C28.1676 27.3288 28.3007 27.3574 28.4244 27.3859L29.5563 27.5952L32.21 33.4256ZM36.7565 30.068L33.0185 26.9577C32.9328 26.8817 32.8282 26.8342 32.7141 26.8152L28.6622 26.0828C26.9311 25.7689 25.5329 24.4658 25.1049 22.7537L24.5817 20.6612L23.9349 20.8229V16.8471L26.037 16.048L28.2151 15.6867C28.7573 15.6011 29.2233 15.2492 29.4516 14.7451L32.7141 13.499H33.066L33.2753 14.3264L34.5688 14.0032L34.255 12.7476L35.4534 13.3469L35.5866 13.5561L34.7876 14.355C34.74 14.4025 34.6925 14.4598 34.6639 14.5263L33.9791 15.8959L33.6938 15.6486C33.4275 15.4204 33.0375 15.4394 32.7902 15.6867L29.4611 19.0158C29.3375 19.1394 29.2709 19.3106 29.2709 19.4818V19.5389C28.7953 18.9968 28.2151 18.5401 27.5683 18.2262L26.9691 19.4152C28.3768 20.119 29.2709 21.5552 29.2614 23.1246V23.4766C29.2614 23.762 29.4421 24.0187 29.7179 24.1043L33.5606 25.3884L37.9454 29.7731L36.747 30.068H36.7565Z" fill="black"/>
</g>
<defs>
<clipPath id="clip0_225_10310">
<rect width="40" height="40" fill="white" transform="translate(0 0.5)"/>
</clipPath>
</defs>
</svg>
